G04 #@! TF.GenerationSoftware,KiCad,Pcbnew,7.0.2*
G04 #@! TF.CreationDate,2023-05-20T00:04:52-04:00*
G04 #@! TF.ProjectId,Boston-keyboard-V082JHA,426f7374-6f6e-42d6-9b65-79626f617264,rev?*
G04 #@! TF.SameCoordinates,Original*
G04 #@! TF.FileFunction,Soldermask,Bot*
G04 #@! TF.FilePolarity,Negative*
%FSLAX46Y46*%
G04 Gerber Fmt 4.6, Leading zero omitted, Abs format (unit mm)*
G04 Created by KiCad (PCBNEW 7.0.2) date 2023-05-20 00:04:52*
%MOMM*%
%LPD*%
G01*
G04 APERTURE LIST*
G04 Aperture macros list*
%AMRoundRect*
0 Rectangle with rounded corners*
0 $1 Rounding radius*
0 $2 $3 $4 $5 $6 $7 $8 $9 X,Y pos of 4 corners*
0 Add a 4 corners polygon primitive as box body*
4,1,4,$2,$3,$4,$5,$6,$7,$8,$9,$2,$3,0*
0 Add four circle primitives for the rounded corners*
1,1,$1+$1,$2,$3*
1,1,$1+$1,$4,$5*
1,1,$1+$1,$6,$7*
1,1,$1+$1,$8,$9*
0 Add four rect primitives between the rounded corners*
20,1,$1+$1,$2,$3,$4,$5,0*
20,1,$1+$1,$4,$5,$6,$7,0*
20,1,$1+$1,$6,$7,$8,$9,0*
20,1,$1+$1,$8,$9,$2,$3,0*%
G04 Aperture macros list end*
%ADD10C,3.987800*%
%ADD11C,1.701800*%
%ADD12C,3.048000*%
%ADD13RoundRect,0.254000X1.016000X1.016000X-1.016000X1.016000X-1.016000X-1.016000X1.016000X-1.016000X0*%
%ADD14C,2.200000*%
%ADD15R,1.800000X1.070000*%
%ADD16O,1.800000X1.070000*%
%ADD17R,1.800000X1.800000*%
%ADD18C,1.800000*%
%ADD19C,4.400000*%
%ADD20C,1.152000*%
%ADD21C,2.000000*%
%ADD22R,1.700000X1.700000*%
%ADD23O,1.700000X1.700000*%
%ADD24C,3.500000*%
%ADD25RoundRect,0.250000X-0.350000X0.250000X-0.350000X-0.250000X0.350000X-0.250000X0.350000X0.250000X0*%
%ADD26RoundRect,0.250000X0.350000X0.450000X-0.350000X0.450000X-0.350000X-0.450000X0.350000X-0.450000X0*%
%ADD27RoundRect,0.250001X-0.462499X-0.624999X0.462499X-0.624999X0.462499X0.624999X-0.462499X0.624999X0*%
%ADD28RoundRect,0.250000X0.250000X0.350000X-0.250000X0.350000X-0.250000X-0.350000X0.250000X-0.350000X0*%
%ADD29RoundRect,0.250001X0.624999X-0.462499X0.624999X0.462499X-0.624999X0.462499X-0.624999X-0.462499X0*%
%ADD30R,2.000000X1.500000*%
%ADD31R,2.000000X3.800000*%
%ADD32RoundRect,0.254000X-1.016000X1.016000X-1.016000X-1.016000X1.016000X-1.016000X1.016000X1.016000X0*%
%ADD33RoundRect,0.250000X-0.450000X0.325000X-0.450000X-0.325000X0.450000X-0.325000X0.450000X0.325000X0*%
%ADD34RoundRect,0.254000X-1.016000X-1.016000X1.016000X-1.016000X1.016000X1.016000X-1.016000X1.016000X0*%
%ADD35RoundRect,0.237500X0.287500X0.237500X-0.287500X0.237500X-0.287500X-0.237500X0.287500X-0.237500X0*%
%ADD36RoundRect,0.250000X1.450000X-0.400000X1.450000X0.400000X-1.450000X0.400000X-1.450000X-0.400000X0*%
%ADD37RoundRect,0.250001X-0.624999X0.462499X-0.624999X-0.462499X0.624999X-0.462499X0.624999X0.462499X0*%
%ADD38RoundRect,0.250000X0.450000X-0.325000X0.450000X0.325000X-0.450000X0.325000X-0.450000X-0.325000X0*%
%ADD39RoundRect,0.254000X1.016000X-1.016000X1.016000X1.016000X-1.016000X1.016000X-1.016000X-1.016000X0*%
%ADD40RoundRect,0.075000X0.662500X0.075000X-0.662500X0.075000X-0.662500X-0.075000X0.662500X-0.075000X0*%
%ADD41RoundRect,0.075000X0.075000X0.662500X-0.075000X0.662500X-0.075000X-0.662500X0.075000X-0.662500X0*%
%ADD42C,2.032000*%
%ADD43O,3.900000X2.799999*%
%ADD44RoundRect,0.250000X0.325000X0.450000X-0.325000X0.450000X-0.325000X-0.450000X0.325000X-0.450000X0*%
%ADD45RoundRect,0.250000X-0.325000X-0.450000X0.325000X-0.450000X0.325000X0.450000X-0.325000X0.450000X0*%
%ADD46C,0.650000*%
%ADD47RoundRect,0.150000X-0.150000X-0.575000X0.150000X-0.575000X0.150000X0.575000X-0.150000X0.575000X0*%
%ADD48RoundRect,0.075000X-0.075000X-0.650000X0.075000X-0.650000X0.075000X0.650000X-0.075000X0.650000X0*%
%ADD49O,1.300000X1.900000*%
%ADD50O,1.100000X2.200000*%
%ADD51R,1.560000X0.650000*%
%ADD52R,0.600000X1.550000*%
%ADD53C,0.500000*%
%ADD54R,1.200000X1.800000*%
%ADD55RoundRect,0.250000X-0.350000X-0.450000X0.350000X-0.450000X0.350000X0.450000X-0.350000X0.450000X0*%
%ADD56RoundRect,0.062500X0.375000X0.062500X-0.375000X0.062500X-0.375000X-0.062500X0.375000X-0.062500X0*%
%ADD57RoundRect,0.062500X0.062500X0.375000X-0.062500X0.375000X-0.062500X-0.375000X0.062500X-0.375000X0*%
%ADD58R,5.600000X5.600000*%
%ADD59RoundRect,0.150000X-0.587500X-0.150000X0.587500X-0.150000X0.587500X0.150000X-0.587500X0.150000X0*%
%ADD60RoundRect,0.250000X-0.475000X0.337500X-0.475000X-0.337500X0.475000X-0.337500X0.475000X0.337500X0*%
%ADD61RoundRect,0.150000X0.150000X-0.512500X0.150000X0.512500X-0.150000X0.512500X-0.150000X-0.512500X0*%
G04 APERTURE END LIST*
D10*
X237481750Y-171455000D03*
D11*
X230623750Y-163200000D03*
D10*
X225543750Y-163200000D03*
D11*
X220463750Y-163200000D03*
D12*
X213605750Y-156215000D03*
D10*
X213605750Y-171455000D03*
D12*
X237481750Y-156215000D03*
X228083750Y-158120000D03*
X221733750Y-160660000D03*
D13*
X231639750Y-158120000D03*
X218177750Y-160660000D03*
D11*
X159186250Y-163200000D03*
D10*
X142168250Y-171455000D03*
D11*
X149026250Y-163200000D03*
D12*
X142168250Y-156215000D03*
X166044250Y-156215000D03*
X156646250Y-158120000D03*
D10*
X154106250Y-163200000D03*
X166044250Y-171455000D03*
D12*
X150296250Y-160660000D03*
D13*
X160202250Y-158120000D03*
X146740250Y-160660000D03*
D10*
X187443750Y-163200000D03*
D12*
X137405750Y-156215000D03*
X237481750Y-156215000D03*
D11*
X182363750Y-163200000D03*
X192523750Y-163200000D03*
D10*
X137405750Y-171455000D03*
X237481750Y-171455000D03*
D12*
X189983750Y-158120000D03*
X183633750Y-160660000D03*
D13*
X193539750Y-158120000D03*
X180077750Y-160660000D03*
D14*
X304125200Y-48899992D03*
D15*
X79000000Y-34470000D03*
D16*
X79000000Y-35740000D03*
X79000000Y-37010000D03*
X79000000Y-38280000D03*
D14*
X389850272Y-96525032D03*
X427950304Y-48899992D03*
D17*
X338732500Y-72712500D03*
D18*
X336192500Y-72712500D03*
D19*
X330000000Y-72712500D03*
D20*
X447000000Y-31000000D03*
D17*
X357782500Y-72712500D03*
D18*
X355242500Y-72712500D03*
D21*
X291750000Y-147400000D03*
X291750000Y-140900000D03*
X296250000Y-147400000D03*
X296250000Y-140900000D03*
D22*
X82825000Y-30950000D03*
D23*
X80285000Y-30950000D03*
X77745000Y-30950000D03*
D20*
X57000000Y-172000000D03*
D14*
X266025168Y-153675080D03*
D20*
X57000000Y-32000000D03*
D14*
X199350112Y-96525032D03*
X104100032Y-153675080D03*
D19*
X173500000Y-72712500D03*
D14*
X204112500Y-48900000D03*
D24*
X427950304Y-153675080D03*
D14*
X81478138Y-96525032D03*
D22*
X325655625Y-39087500D03*
D23*
X323115625Y-39087500D03*
X325655625Y-41627500D03*
X323115625Y-41627500D03*
X325655625Y-44167500D03*
X323115625Y-44167500D03*
X325655625Y-46707500D03*
X323115625Y-46707500D03*
X325655625Y-49247500D03*
X323115625Y-49247500D03*
D17*
X376832500Y-72712500D03*
D18*
X374292500Y-72712500D03*
D20*
X447000000Y-172000000D03*
D25*
X124340625Y-97256250D03*
X124340625Y-100556250D03*
D11*
X280630000Y-87000000D03*
D12*
X278090000Y-81920000D03*
D10*
X275550000Y-87000000D03*
D12*
X271740000Y-84460000D03*
D11*
X270470000Y-87000000D03*
D13*
X281646000Y-81920000D03*
X268184000Y-84460000D03*
D19*
X387468750Y-34675000D03*
X163631250Y-34675000D03*
D26*
X262700000Y-31025000D03*
X260700000Y-31025000D03*
D10*
X401788000Y-171455000D03*
D12*
X401788000Y-156215000D03*
D11*
X394930000Y-163200000D03*
D12*
X392390000Y-158120000D03*
D10*
X389850000Y-163200000D03*
D12*
X386040000Y-160660000D03*
D11*
X384770000Y-163200000D03*
D10*
X377912000Y-171455000D03*
D12*
X377912000Y-156215000D03*
D13*
X395946000Y-158120000D03*
X382484000Y-160660000D03*
D27*
X235412500Y-69625000D03*
X238387500Y-69625000D03*
D25*
X238640625Y-97256250D03*
X238640625Y-100556250D03*
D28*
X262150000Y-49925000D03*
X258850000Y-49925000D03*
D29*
X238400000Y-65512500D03*
X238400000Y-62537500D03*
D19*
X306506250Y-169530000D03*
D11*
X256817500Y-125100000D03*
D12*
X254277500Y-120020000D03*
D10*
X251737500Y-125100000D03*
D12*
X247927500Y-122560000D03*
D11*
X246657500Y-125100000D03*
D13*
X257833500Y-120020000D03*
X244371500Y-122560000D03*
D25*
X286265625Y-49631250D03*
X286265625Y-52931250D03*
D11*
X423505000Y-163200000D03*
D12*
X420965000Y-158120000D03*
D10*
X418425000Y-163200000D03*
D12*
X414615000Y-160660000D03*
D11*
X413345000Y-163200000D03*
D13*
X424521000Y-158120000D03*
X411059000Y-160660000D03*
D11*
X261580000Y-163200000D03*
D12*
X259040000Y-158120000D03*
D10*
X256500000Y-163200000D03*
D12*
X252690000Y-160660000D03*
D11*
X251420000Y-163200000D03*
D13*
X262596000Y-158120000D03*
X249134000Y-160660000D03*
D19*
X441174000Y-72712500D03*
D25*
X224353125Y-49631250D03*
X224353125Y-52931250D03*
D11*
X99655000Y-58425000D03*
D12*
X97115000Y-53345000D03*
D10*
X94575000Y-58425000D03*
D12*
X90765000Y-55885000D03*
D11*
X89495000Y-58425000D03*
D13*
X100671000Y-53345000D03*
X87209000Y-55885000D03*
D11*
X309205000Y-106050000D03*
D12*
X306665000Y-100970000D03*
D10*
X304125000Y-106050000D03*
D12*
X300315000Y-103510000D03*
D11*
X299045000Y-106050000D03*
D13*
X310221000Y-100970000D03*
X296759000Y-103510000D03*
D30*
X233150000Y-63125000D03*
X233150000Y-65425000D03*
D31*
X226850000Y-65425000D03*
D30*
X233150000Y-67725000D03*
D25*
X276778750Y-97256250D03*
X276778750Y-100556250D03*
D11*
X218717500Y-39375000D03*
D12*
X216177500Y-34295000D03*
D10*
X213637500Y-39375000D03*
D12*
X209827500Y-36835000D03*
D11*
X208557500Y-39375000D03*
D13*
X219733500Y-34295000D03*
X206271500Y-36835000D03*
D25*
X348178125Y-78206250D03*
X348178125Y-81506250D03*
D19*
X62300000Y-72712500D03*
D29*
X235900000Y-65412500D03*
X235900000Y-62437500D03*
D28*
X63150000Y-49725000D03*
X59850000Y-49725000D03*
D11*
X437475000Y-100970000D03*
D12*
X432395000Y-103510000D03*
D10*
X437475000Y-106050000D03*
D12*
X434935000Y-109860000D03*
D11*
X437475000Y-111130000D03*
D32*
X432395000Y-99954000D03*
X434935000Y-113416000D03*
D33*
X90600000Y-46500000D03*
X90600000Y-48550000D03*
D11*
X342542500Y-58425000D03*
D12*
X340002500Y-53345000D03*
D10*
X337462500Y-58425000D03*
D12*
X333652500Y-55885000D03*
D11*
X332382500Y-58425000D03*
D13*
X343558500Y-53345000D03*
X330096500Y-55885000D03*
D11*
X361592500Y-125100000D03*
D12*
X359052500Y-120020000D03*
D10*
X356512500Y-125100000D03*
D12*
X352702500Y-122560000D03*
D11*
X351432500Y-125100000D03*
D13*
X362608500Y-120020000D03*
X349146500Y-122560000D03*
D25*
X348216250Y-30581250D03*
X348216250Y-33881250D03*
D11*
X361592500Y-106050000D03*
D12*
X359052500Y-100970000D03*
D10*
X356512500Y-106050000D03*
D12*
X352702500Y-103510000D03*
D11*
X351432500Y-106050000D03*
D13*
X362608500Y-100970000D03*
X349146500Y-103510000D03*
D25*
X76715625Y-78206250D03*
X76715625Y-81506250D03*
X114853750Y-78206250D03*
X114853750Y-81506250D03*
D28*
X212906372Y-49495305D03*
X209606372Y-49495305D03*
D27*
X82262500Y-41325000D03*
X85237500Y-41325000D03*
D19*
X262700000Y-72712500D03*
D11*
X423505000Y-125100000D03*
D12*
X420965000Y-120020000D03*
D10*
X418425000Y-125100000D03*
D12*
X414615000Y-122560000D03*
D11*
X413345000Y-125100000D03*
D13*
X424521000Y-120020000D03*
X411059000Y-122560000D03*
D11*
X97273750Y-163200000D03*
D12*
X94733750Y-158120000D03*
D10*
X92193750Y-163200000D03*
D12*
X88383750Y-160660000D03*
D11*
X87113750Y-163200000D03*
D13*
X98289750Y-158120000D03*
X84827750Y-160660000D03*
D10*
X89844250Y-152405000D03*
D12*
X89844250Y-137165000D03*
D11*
X82986250Y-144150000D03*
D12*
X80446250Y-139070000D03*
D10*
X77906250Y-144150000D03*
D12*
X74096250Y-141610000D03*
D11*
X72826250Y-144150000D03*
D10*
X65968250Y-152405000D03*
D12*
X65968250Y-137165000D03*
D13*
X84002250Y-139070000D03*
X70540250Y-141610000D03*
D11*
X394295000Y-163200000D03*
D12*
X396835000Y-168280000D03*
D10*
X399375000Y-163200000D03*
D12*
X403185000Y-165740000D03*
D11*
X404455000Y-163200000D03*
D34*
X393279000Y-168280000D03*
X406741000Y-165740000D03*
D25*
X243403125Y-116306250D03*
X243403125Y-119606250D03*
D11*
X142517500Y-125100000D03*
D12*
X139977500Y-120020000D03*
D10*
X137437500Y-125100000D03*
D12*
X133627500Y-122560000D03*
D11*
X132357500Y-125100000D03*
D13*
X143533500Y-120020000D03*
X130071500Y-122560000D03*
D11*
X299680000Y-39375000D03*
D12*
X297140000Y-34295000D03*
D10*
X294600000Y-39375000D03*
D12*
X290790000Y-36835000D03*
D11*
X289520000Y-39375000D03*
D13*
X300696000Y-34295000D03*
X287234000Y-36835000D03*
D11*
X333017500Y-106050000D03*
D12*
X330477500Y-100970000D03*
D10*
X327937500Y-106050000D03*
D12*
X324127500Y-103510000D03*
D11*
X322857500Y-106050000D03*
D13*
X334033500Y-100970000D03*
X320571500Y-103510000D03*
D11*
X132992500Y-144150000D03*
D12*
X130452500Y-139070000D03*
D10*
X127912500Y-144150000D03*
D12*
X124102500Y-141610000D03*
D11*
X122832500Y-144150000D03*
D13*
X134008500Y-139070000D03*
X120546500Y-141610000D03*
D25*
X407709375Y-154406250D03*
X407709375Y-157706250D03*
X329128125Y-30581250D03*
X329128125Y-33881250D03*
D11*
X266342500Y-144150000D03*
D12*
X263802500Y-139070000D03*
D10*
X261262500Y-144150000D03*
D12*
X257452500Y-141610000D03*
D11*
X256182500Y-144150000D03*
D13*
X267358500Y-139070000D03*
X253896500Y-141610000D03*
D11*
X218717500Y-125100000D03*
D12*
X216177500Y-120020000D03*
D10*
X213637500Y-125100000D03*
D12*
X209827500Y-122560000D03*
D11*
X208557500Y-125100000D03*
D13*
X219733500Y-120020000D03*
X206271500Y-122560000D03*
D25*
X172003750Y-78206250D03*
X172003750Y-81506250D03*
D11*
X185380000Y-87000000D03*
D12*
X182840000Y-81920000D03*
D10*
X180300000Y-87000000D03*
D12*
X176490000Y-84460000D03*
D11*
X175220000Y-87000000D03*
D13*
X186396000Y-81920000D03*
X172934000Y-84460000D03*
D10*
X332731964Y-133355000D03*
D12*
X332731964Y-118115000D03*
D11*
X325873964Y-125100000D03*
D12*
X323333964Y-120020000D03*
D10*
X320793964Y-125100000D03*
D12*
X316983964Y-122560000D03*
D11*
X315713964Y-125100000D03*
D10*
X308855964Y-133355000D03*
D12*
X308855964Y-118115000D03*
D13*
X326889964Y-120020000D03*
X313427964Y-122560000D03*
D25*
X219590625Y-97256250D03*
X219590625Y-100556250D03*
D11*
X299680000Y-87000000D03*
D12*
X297140000Y-81920000D03*
D10*
X294600000Y-87000000D03*
D12*
X290790000Y-84460000D03*
D11*
X289520000Y-87000000D03*
D13*
X300696000Y-81920000D03*
X287234000Y-84460000D03*
D11*
X156805000Y-58425000D03*
D12*
X154265000Y-53345000D03*
D10*
X151725000Y-58425000D03*
D12*
X147915000Y-55885000D03*
D11*
X146645000Y-58425000D03*
D13*
X157821000Y-53345000D03*
X144359000Y-55885000D03*
D11*
X199667500Y-125100000D03*
D12*
X197127500Y-120020000D03*
D10*
X194587500Y-125100000D03*
D12*
X190777500Y-122560000D03*
D11*
X189507500Y-125100000D03*
D13*
X200683500Y-120020000D03*
X187221500Y-122560000D03*
D19*
X244593750Y-34675000D03*
D28*
X70750000Y-78225000D03*
X67450000Y-78225000D03*
D11*
X261580160Y-39375000D03*
D12*
X259040160Y-34295000D03*
D10*
X256500160Y-39375000D03*
D12*
X252690160Y-36835000D03*
D11*
X251420160Y-39375000D03*
D13*
X262596160Y-34295000D03*
X249134160Y-36835000D03*
D25*
X167241250Y-116306250D03*
X167241250Y-119606250D03*
D11*
X223480000Y-87000000D03*
D12*
X220940000Y-81920000D03*
D10*
X218400000Y-87000000D03*
D12*
X214590000Y-84460000D03*
D11*
X213320000Y-87000000D03*
D13*
X224496000Y-81920000D03*
X211034000Y-84460000D03*
D11*
X442555000Y-87000000D03*
D12*
X440015000Y-81920000D03*
D10*
X437475000Y-87000000D03*
D12*
X433665000Y-84460000D03*
D11*
X432395000Y-87000000D03*
D13*
X443571000Y-81920000D03*
X430109000Y-84460000D03*
D25*
X296600000Y-135075000D03*
X296600000Y-138375000D03*
X410090625Y-97256250D03*
X410090625Y-100556250D03*
D33*
X289400000Y-65139069D03*
X289400000Y-67189069D03*
D11*
X118705000Y-106050000D03*
D12*
X116165000Y-100970000D03*
D10*
X113625000Y-106050000D03*
D12*
X109815000Y-103510000D03*
D11*
X108545000Y-106050000D03*
D13*
X119721000Y-100970000D03*
X106259000Y-103510000D03*
D11*
X194905000Y-106050000D03*
D12*
X192365000Y-100970000D03*
D10*
X189825000Y-106050000D03*
D12*
X186015000Y-103510000D03*
D11*
X184745000Y-106050000D03*
D13*
X195921000Y-100970000D03*
X182459000Y-103510000D03*
D25*
X61975000Y-31275000D03*
X61975000Y-34575000D03*
D11*
X113942500Y-144150000D03*
D12*
X111402500Y-139070000D03*
D10*
X108862500Y-144150000D03*
D12*
X105052500Y-141610000D03*
D11*
X103782500Y-144150000D03*
D13*
X114958500Y-139070000D03*
X101496500Y-141610000D03*
D11*
X404455000Y-144150000D03*
D12*
X401915000Y-139070000D03*
D10*
X399375000Y-144150000D03*
D12*
X395565000Y-141610000D03*
D11*
X394295000Y-144150000D03*
D13*
X405471000Y-139070000D03*
X392009000Y-141610000D03*
D11*
X190142500Y-144150000D03*
D12*
X187602500Y-139070000D03*
D10*
X185062500Y-144150000D03*
D12*
X181252500Y-141610000D03*
D11*
X179982500Y-144150000D03*
D13*
X191158500Y-139070000D03*
X177696500Y-141610000D03*
D25*
X367228125Y-30581250D03*
X367228125Y-33881250D03*
D11*
X90130000Y-87000000D03*
D12*
X87590000Y-81920000D03*
D10*
X85050000Y-87000000D03*
D12*
X81240000Y-84460000D03*
D11*
X79970000Y-87000000D03*
D13*
X91146000Y-81920000D03*
X77684000Y-84460000D03*
D10*
X335113000Y-95255000D03*
D12*
X335113000Y-80015000D03*
D11*
X328255000Y-87000000D03*
D12*
X325715000Y-81920000D03*
D10*
X323175000Y-87000000D03*
D12*
X319365000Y-84460000D03*
D11*
X318095000Y-87000000D03*
D10*
X311237000Y-95255000D03*
D12*
X311237000Y-80015000D03*
D13*
X329271000Y-81920000D03*
X315809000Y-84460000D03*
D25*
X143390625Y-30581250D03*
X143390625Y-33881250D03*
D11*
X128230000Y-87000000D03*
D12*
X125690000Y-81920000D03*
D10*
X123150000Y-87000000D03*
D12*
X119340000Y-84460000D03*
D11*
X118070000Y-87000000D03*
D13*
X129246000Y-81920000D03*
X115784000Y-84460000D03*
D25*
X437475000Y-135356250D03*
X437475000Y-138656250D03*
D11*
X423505000Y-87000000D03*
D12*
X420965000Y-81920000D03*
D10*
X418425000Y-87000000D03*
D12*
X414615000Y-84460000D03*
D11*
X413345000Y-87000000D03*
D13*
X424521000Y-81920000D03*
X411059000Y-84460000D03*
D11*
X442555000Y-58425000D03*
D12*
X440015000Y-53345000D03*
D10*
X437475000Y-58425000D03*
D12*
X433665000Y-55885000D03*
D11*
X432395000Y-58425000D03*
D13*
X443571000Y-53345000D03*
X430109000Y-55885000D03*
D11*
X199667606Y-39375000D03*
D12*
X197127606Y-34295000D03*
D10*
X194587606Y-39375000D03*
D12*
X190777606Y-36835000D03*
D11*
X189507606Y-39375000D03*
D13*
X200683606Y-34295000D03*
X187221606Y-36835000D03*
D11*
X404455000Y-39375000D03*
D12*
X401915000Y-34295000D03*
D10*
X399375000Y-39375000D03*
D12*
X395565000Y-36835000D03*
D11*
X394295000Y-39375000D03*
D13*
X405471000Y-34295000D03*
X392009000Y-36835000D03*
D25*
X205341250Y-30581250D03*
X205341250Y-33881250D03*
D11*
X156805000Y-39375000D03*
D12*
X154265000Y-34295000D03*
D10*
X151725000Y-39375000D03*
D12*
X147915000Y-36835000D03*
D11*
X146645000Y-39375000D03*
D13*
X157821000Y-34295000D03*
X144359000Y-36835000D03*
D25*
X317460000Y-101066250D03*
X317460000Y-104366250D03*
X124340625Y-49631250D03*
X124340625Y-52931250D03*
D33*
X78000000Y-40900000D03*
X78000000Y-42950000D03*
D25*
X81478125Y-154406250D03*
X81478125Y-157706250D03*
D26*
X351800000Y-72725000D03*
X349800000Y-72725000D03*
D11*
X275867500Y-125100000D03*
D12*
X273327500Y-120020000D03*
D10*
X270787500Y-125100000D03*
D12*
X266977500Y-122560000D03*
D11*
X265707500Y-125100000D03*
D13*
X276883500Y-120020000D03*
X263421500Y-122560000D03*
D19*
X79000000Y-46375000D03*
D11*
X237767500Y-58425000D03*
D12*
X235227500Y-53345000D03*
D10*
X232687500Y-58425000D03*
D12*
X228877500Y-55885000D03*
D11*
X227607500Y-58425000D03*
D13*
X238783500Y-53345000D03*
X225321500Y-55885000D03*
D11*
X404455000Y-125100000D03*
D12*
X401915000Y-120020000D03*
D10*
X399375000Y-125100000D03*
D12*
X395565000Y-122560000D03*
D11*
X394295000Y-125100000D03*
D13*
X405471000Y-120020000D03*
X392009000Y-122560000D03*
D11*
X280630000Y-39375000D03*
D12*
X278090000Y-34295000D03*
D10*
X275550000Y-39375000D03*
D12*
X271740000Y-36835000D03*
D11*
X270470000Y-39375000D03*
D13*
X281646000Y-34295000D03*
X268184000Y-36835000D03*
D11*
X342542500Y-148912500D03*
D12*
X340002500Y-143832500D03*
D10*
X337462500Y-148912500D03*
D12*
X333652500Y-146372500D03*
D11*
X332382500Y-148912500D03*
D13*
X343558500Y-143832500D03*
X330096500Y-146372500D03*
D25*
X64809375Y-116306250D03*
X64809375Y-119606250D03*
X348178125Y-159168750D03*
X348178125Y-162468750D03*
D11*
X209192500Y-144150000D03*
D12*
X206652500Y-139070000D03*
D10*
X204112500Y-144150000D03*
D12*
X200302500Y-141610000D03*
D11*
X199032500Y-144150000D03*
D13*
X210208500Y-139070000D03*
X196746500Y-141610000D03*
D25*
X124340625Y-30581250D03*
X124340625Y-33881250D03*
D35*
X244075000Y-51225000D03*
X242325000Y-51225000D03*
D25*
X91003125Y-116306250D03*
X91003125Y-119606250D03*
X301743948Y-116306300D03*
X301743948Y-119606300D03*
D11*
X180617500Y-58425000D03*
D12*
X178077500Y-53345000D03*
D10*
X175537500Y-58425000D03*
D12*
X171727500Y-55885000D03*
D11*
X170457500Y-58425000D03*
D13*
X181633500Y-53345000D03*
X168171500Y-55885000D03*
D11*
X437475000Y-120020000D03*
D12*
X432395000Y-122560000D03*
D10*
X437475000Y-125100000D03*
D12*
X434935000Y-128910000D03*
D11*
X437475000Y-130180000D03*
D32*
X432395000Y-119004000D03*
X434935000Y-132466000D03*
D11*
X327620000Y-87000000D03*
D12*
X330160000Y-92080000D03*
D10*
X332700000Y-87000000D03*
D12*
X336510000Y-89540000D03*
D11*
X337780000Y-87000000D03*
D34*
X326604000Y-92080000D03*
X340066000Y-89540000D03*
D36*
X240100000Y-48350000D03*
X240100000Y-43900000D03*
D25*
X119578125Y-135356250D03*
X119578125Y-138656250D03*
D11*
X187126250Y-163200000D03*
D12*
X189666250Y-168280000D03*
D10*
X192206250Y-163200000D03*
D12*
X196016250Y-165740000D03*
D11*
X197286250Y-163200000D03*
D34*
X186110250Y-168280000D03*
X199572250Y-165740000D03*
D25*
X295790625Y-97256250D03*
X295790625Y-100556250D03*
X83859375Y-52012500D03*
X83859375Y-55312500D03*
D11*
X180617590Y-39375000D03*
D12*
X178077590Y-34295000D03*
D10*
X175537590Y-39375000D03*
D12*
X171727590Y-36835000D03*
D11*
X170457590Y-39375000D03*
D13*
X181633590Y-34295000D03*
X168171590Y-36835000D03*
D11*
X290155000Y-106050000D03*
D12*
X287615000Y-100970000D03*
D10*
X285075000Y-106050000D03*
D12*
X281265000Y-103510000D03*
D11*
X279995000Y-106050000D03*
D13*
X291171000Y-100970000D03*
X277709000Y-103510000D03*
D11*
X308570000Y-87000000D03*
D12*
X311110000Y-92080000D03*
D10*
X313650000Y-87000000D03*
D12*
X317460000Y-89540000D03*
D11*
X318730000Y-87000000D03*
D34*
X307554000Y-92080000D03*
X321016000Y-89540000D03*
D11*
X404455000Y-106050000D03*
D12*
X401915000Y-100970000D03*
D10*
X399375000Y-106050000D03*
D12*
X395565000Y-103510000D03*
D11*
X394295000Y-106050000D03*
D13*
X405471000Y-100970000D03*
X392009000Y-103510000D03*
D25*
X329128125Y-140118750D03*
X329128125Y-143418750D03*
D11*
X118705000Y-39375000D03*
D12*
X116165000Y-34295000D03*
D10*
X113625000Y-39375000D03*
D12*
X109815000Y-36835000D03*
D11*
X108545000Y-39375000D03*
D13*
X119721000Y-34295000D03*
X106259000Y-36835000D03*
D37*
X328100000Y-151237500D03*
X328100000Y-154212500D03*
D11*
X237767500Y-125100000D03*
D12*
X235227500Y-120020000D03*
D10*
X232687500Y-125100000D03*
D12*
X228877500Y-122560000D03*
D11*
X227607500Y-125100000D03*
D13*
X238783500Y-120020000D03*
X225321500Y-122560000D03*
D25*
X348178125Y-116306250D03*
X348178125Y-119606250D03*
D11*
X137755000Y-106050000D03*
D12*
X135215000Y-100970000D03*
D10*
X132675000Y-106050000D03*
D12*
X128865000Y-103510000D03*
D11*
X127595000Y-106050000D03*
D13*
X138771000Y-100970000D03*
X125309000Y-103510000D03*
D11*
X199667500Y-58425000D03*
D12*
X197127500Y-53345000D03*
D10*
X194587500Y-58425000D03*
D12*
X190777500Y-55885000D03*
D11*
X189507500Y-58425000D03*
D13*
X200683500Y-53345000D03*
X187221500Y-55885000D03*
D19*
X358894000Y-139100000D03*
D28*
X436148747Y-49495305D03*
X432848747Y-49495305D03*
D25*
X305911139Y-78801581D03*
X305911139Y-82101581D03*
X129103125Y-116306250D03*
X129103125Y-119606250D03*
D38*
X302900000Y-73350000D03*
X302900000Y-71300000D03*
D11*
X171092500Y-144150000D03*
D12*
X168552500Y-139070000D03*
D10*
X166012500Y-144150000D03*
D12*
X162202500Y-141610000D03*
D11*
X160932500Y-144150000D03*
D13*
X172108500Y-139070000D03*
X158646500Y-141610000D03*
D11*
X342542500Y-167962500D03*
D12*
X340002500Y-162882500D03*
D10*
X337462500Y-167962500D03*
D12*
X333652500Y-165422500D03*
D11*
X332382500Y-167962500D03*
D13*
X343558500Y-162882500D03*
X330096500Y-165422500D03*
D11*
X75842500Y-106050000D03*
D12*
X73302500Y-100970000D03*
D10*
X70762500Y-106050000D03*
D12*
X66952500Y-103510000D03*
D11*
X65682500Y-106050000D03*
D13*
X76858500Y-100970000D03*
X63396500Y-103510000D03*
D11*
X375245000Y-163200000D03*
D12*
X377785000Y-168280000D03*
D10*
X380325000Y-163200000D03*
D12*
X384135000Y-165740000D03*
D11*
X385405000Y-163200000D03*
D34*
X374229000Y-168280000D03*
X387691000Y-165740000D03*
D25*
X329128125Y-159168750D03*
X329128125Y-162468750D03*
X371990625Y-97256250D03*
X371990625Y-100556250D03*
D11*
X99655000Y-106050000D03*
D12*
X97115000Y-100970000D03*
D10*
X94575000Y-106050000D03*
D12*
X90765000Y-103510000D03*
D11*
X89495000Y-106050000D03*
D13*
X100671000Y-100970000D03*
X87209000Y-103510000D03*
D25*
X338800000Y-81550000D03*
X338800000Y-84850000D03*
D11*
X71080000Y-58425000D03*
D12*
X68540000Y-53345000D03*
D10*
X66000000Y-58425000D03*
D12*
X62190000Y-55885000D03*
D11*
X60920000Y-58425000D03*
D13*
X72096000Y-53345000D03*
X58634000Y-55885000D03*
D11*
X318730000Y-39375000D03*
D12*
X316190000Y-34295000D03*
D10*
X313650000Y-39375000D03*
D12*
X309840000Y-36835000D03*
D11*
X308570000Y-39375000D03*
D13*
X319746000Y-34295000D03*
X306284000Y-36835000D03*
D25*
X176766250Y-135356250D03*
X176766250Y-138656250D03*
X248165625Y-78206250D03*
X248165625Y-81506250D03*
D11*
X361592500Y-167962500D03*
D12*
X359052500Y-162882500D03*
D10*
X356512500Y-167962500D03*
D12*
X352702500Y-165422500D03*
D11*
X351432500Y-167962500D03*
D13*
X362608500Y-162882500D03*
X349146500Y-165422500D03*
D11*
X261580000Y-87000000D03*
D12*
X259040000Y-81920000D03*
D10*
X256500000Y-87000000D03*
D12*
X252690000Y-84460000D03*
D11*
X251420000Y-87000000D03*
D13*
X262596000Y-81920000D03*
X249134000Y-84460000D03*
D11*
X99655000Y-39375000D03*
D12*
X97115000Y-34295000D03*
D10*
X94575000Y-39375000D03*
D12*
X90765000Y-36835000D03*
D11*
X89495000Y-39375000D03*
D13*
X100671000Y-34295000D03*
X87209000Y-36835000D03*
D25*
X138628125Y-135356250D03*
X138628125Y-138656250D03*
D37*
X287200000Y-64081256D03*
X287200000Y-67056256D03*
D11*
X147280000Y-87000000D03*
D12*
X144740000Y-81920000D03*
D10*
X142200000Y-87000000D03*
D12*
X138390000Y-84460000D03*
D11*
X137120000Y-87000000D03*
D13*
X148296000Y-81920000D03*
X134834000Y-84460000D03*
D25*
X371990625Y-135356250D03*
X371990625Y-138656250D03*
X305315625Y-30581250D03*
X305315625Y-33881250D03*
D33*
X258250000Y-26975000D03*
X258250000Y-29025000D03*
D10*
X429220000Y-127513000D03*
D12*
X444460000Y-127513000D03*
D11*
X437475000Y-120655000D03*
D12*
X442555000Y-118115000D03*
D10*
X437475000Y-115575000D03*
D12*
X440015000Y-111765000D03*
D11*
X437475000Y-110495000D03*
D10*
X429220000Y-103637000D03*
D12*
X444460000Y-103637000D03*
D39*
X442555000Y-121671000D03*
X440015000Y-108209000D03*
D11*
X361592500Y-58425000D03*
D12*
X359052500Y-53345000D03*
D10*
X356512500Y-58425000D03*
D12*
X352702500Y-55885000D03*
D11*
X351432500Y-58425000D03*
D13*
X362608500Y-53345000D03*
X349146500Y-55885000D03*
D11*
X228242500Y-144150000D03*
D12*
X225702500Y-139070000D03*
D10*
X223162500Y-144150000D03*
D12*
X219352500Y-141610000D03*
D11*
X218082500Y-144150000D03*
D13*
X229258500Y-139070000D03*
X215796500Y-141610000D03*
D25*
X391040625Y-49631250D03*
X391040625Y-52931250D03*
X281503125Y-116306250D03*
X281503125Y-119606250D03*
X286265625Y-78206250D03*
X286265625Y-81506250D03*
D11*
X361592500Y-39375000D03*
D12*
X359052500Y-34295000D03*
D10*
X356512500Y-39375000D03*
D12*
X352702500Y-36835000D03*
D11*
X351432500Y-39375000D03*
D13*
X362608500Y-34295000D03*
X349146500Y-36835000D03*
D25*
X210065625Y-78206250D03*
X210065625Y-81506250D03*
X348178125Y-49631250D03*
X348178125Y-52931250D03*
D28*
X274223611Y-154270393D03*
X270923611Y-154270393D03*
D25*
X224391250Y-30581250D03*
X224391250Y-33881250D03*
D11*
X280630000Y-163200000D03*
D12*
X278090000Y-158120000D03*
D10*
X275550000Y-163200000D03*
D12*
X271740000Y-160660000D03*
D11*
X270470000Y-163200000D03*
D13*
X281646000Y-158120000D03*
X268184000Y-160660000D03*
D11*
X121086250Y-163200000D03*
D12*
X118546250Y-158120000D03*
D10*
X116006250Y-163200000D03*
D12*
X112196250Y-160660000D03*
D11*
X110926250Y-163200000D03*
D13*
X122102250Y-158120000D03*
X108640250Y-160660000D03*
D11*
X380642500Y-39375000D03*
D12*
X378102500Y-34295000D03*
D10*
X375562500Y-39375000D03*
D12*
X371752500Y-36835000D03*
D11*
X370482500Y-39375000D03*
D13*
X381658500Y-34295000D03*
X368196500Y-36835000D03*
D11*
X442555000Y-39375000D03*
D12*
X440015000Y-34295000D03*
D10*
X437475000Y-39375000D03*
D12*
X433665000Y-36835000D03*
D11*
X432395000Y-39375000D03*
D13*
X443571000Y-34295000D03*
X430109000Y-36835000D03*
D11*
X404455000Y-87000000D03*
D12*
X401915000Y-81920000D03*
D10*
X399375000Y-87000000D03*
D12*
X395565000Y-84460000D03*
D11*
X394295000Y-87000000D03*
D13*
X405471000Y-81920000D03*
X392009000Y-84460000D03*
D25*
X257690625Y-97256250D03*
X257690625Y-100556250D03*
X186253125Y-116306250D03*
X186253125Y-119606250D03*
D11*
X137755000Y-39375000D03*
D12*
X135215000Y-34295000D03*
D10*
X132675000Y-39375000D03*
D12*
X128865000Y-36835000D03*
D11*
X127595000Y-39375000D03*
D13*
X138771000Y-34295000D03*
X125309000Y-36835000D03*
D11*
X242530000Y-87000000D03*
D12*
X239990000Y-81920000D03*
D10*
X237450000Y-87000000D03*
D12*
X233640000Y-84460000D03*
D11*
X232370000Y-87000000D03*
D13*
X243546000Y-81920000D03*
X230084000Y-84460000D03*
D11*
X342542500Y-39375000D03*
D12*
X340002500Y-34295000D03*
D10*
X337462500Y-39375000D03*
D12*
X333652500Y-36835000D03*
D11*
X332382500Y-39375000D03*
D13*
X343558500Y-34295000D03*
X330096500Y-36835000D03*
D25*
X186253125Y-49631250D03*
X186253125Y-52931250D03*
X391040625Y-116306250D03*
X391040625Y-119606250D03*
D11*
X152042500Y-144150000D03*
D12*
X149502500Y-139070000D03*
D10*
X146962500Y-144150000D03*
D12*
X143152500Y-141610000D03*
D11*
X141882500Y-144150000D03*
D13*
X153058500Y-139070000D03*
X139596500Y-141610000D03*
D25*
X214828125Y-135396875D03*
X214828125Y-138696875D03*
D11*
X423505000Y-144150000D03*
D12*
X420965000Y-139070000D03*
D10*
X418425000Y-144150000D03*
D12*
X414615000Y-141610000D03*
D11*
X413345000Y-144150000D03*
D13*
X424521000Y-139070000D03*
X411059000Y-141610000D03*
D19*
X368418750Y-169531000D03*
D11*
X109180000Y-87000000D03*
D12*
X106640000Y-81920000D03*
D10*
X104100000Y-87000000D03*
D12*
X100290000Y-84460000D03*
D11*
X99020000Y-87000000D03*
D13*
X110196000Y-81920000D03*
X96734000Y-84460000D03*
D19*
X250500000Y-72712500D03*
D11*
X71080000Y-87000000D03*
D12*
X68540000Y-81920000D03*
D10*
X66000000Y-87000000D03*
D12*
X62190000Y-84460000D03*
D11*
X60920000Y-87000000D03*
D13*
X72096000Y-81920000D03*
X58634000Y-84460000D03*
D29*
X224200000Y-64812500D03*
X224200000Y-61837500D03*
D25*
X348178125Y-97256250D03*
X348178125Y-100556250D03*
X391040625Y-78206250D03*
X391040625Y-81506250D03*
D19*
X325556250Y-34675000D03*
D11*
X78223750Y-125100000D03*
D12*
X75683750Y-120020000D03*
D10*
X73143750Y-125100000D03*
D12*
X69333750Y-122560000D03*
D11*
X68063750Y-125100000D03*
D13*
X79239750Y-120020000D03*
X65777750Y-122560000D03*
D25*
X429140625Y-30581250D03*
X429140625Y-33881250D03*
X195816250Y-135356250D03*
X195816250Y-138656250D03*
D11*
X161567500Y-125100000D03*
D12*
X159027500Y-120020000D03*
D10*
X156487500Y-125100000D03*
D12*
X152677500Y-122560000D03*
D11*
X151407500Y-125100000D03*
D13*
X162583500Y-120020000D03*
X149121500Y-122560000D03*
D25*
X286265625Y-154406250D03*
X286265625Y-157706250D03*
D11*
X280630000Y-58425000D03*
D12*
X278090000Y-53345000D03*
D10*
X275550000Y-58425000D03*
D12*
X271740000Y-55885000D03*
D11*
X270470000Y-58425000D03*
D13*
X281646000Y-53345000D03*
X268184000Y-55885000D03*
D11*
X180617500Y-125100000D03*
D12*
X178077500Y-120020000D03*
D10*
X175537500Y-125100000D03*
D12*
X171727500Y-122560000D03*
D11*
X170457500Y-125100000D03*
D13*
X181633500Y-120020000D03*
X168171500Y-122560000D03*
D25*
X410090625Y-30581250D03*
X410090625Y-33881250D03*
D11*
X423505000Y-106050000D03*
D12*
X420965000Y-100970000D03*
D10*
X418425000Y-106050000D03*
D12*
X414615000Y-103510000D03*
D11*
X413345000Y-106050000D03*
D13*
X424521000Y-100970000D03*
X411059000Y-103510000D03*
D11*
X247292500Y-144150000D03*
D12*
X244752500Y-139070000D03*
D10*
X242212500Y-144150000D03*
D12*
X238402500Y-141610000D03*
D11*
X237132500Y-144150000D03*
D13*
X248308500Y-139070000D03*
X234846500Y-141610000D03*
D25*
X410090625Y-154406250D03*
X410090625Y-157706250D03*
D28*
X390309375Y-154865625D03*
X387009375Y-154865625D03*
D11*
X118705000Y-58425000D03*
D12*
X116165000Y-53345000D03*
D10*
X113625000Y-58425000D03*
D12*
X109815000Y-55885000D03*
D11*
X108545000Y-58425000D03*
D13*
X119721000Y-53345000D03*
X106259000Y-55885000D03*
D25*
X167203125Y-30581250D03*
X167203125Y-33881250D03*
D40*
X299813125Y-67316875D03*
X299813125Y-67816875D03*
X299813125Y-68316875D03*
X299813125Y-68816875D03*
X299813125Y-69316875D03*
X299813125Y-69816875D03*
X299813125Y-70316875D03*
X299813125Y-70816875D03*
X299813125Y-71316875D03*
X299813125Y-71816875D03*
X299813125Y-72316875D03*
X299813125Y-72816875D03*
D41*
X298400625Y-74229375D03*
X297900625Y-74229375D03*
X297400625Y-74229375D03*
X296900625Y-74229375D03*
X296400625Y-74229375D03*
X295900625Y-74229375D03*
X295400625Y-74229375D03*
X294900625Y-74229375D03*
X294400625Y-74229375D03*
X293900625Y-74229375D03*
X293400625Y-74229375D03*
X292900625Y-74229375D03*
D40*
X291488125Y-72816875D03*
X291488125Y-72316875D03*
X291488125Y-71816875D03*
X291488125Y-71316875D03*
X291488125Y-70816875D03*
X291488125Y-70316875D03*
X291488125Y-69816875D03*
X291488125Y-69316875D03*
X291488125Y-68816875D03*
X291488125Y-68316875D03*
X291488125Y-67816875D03*
X291488125Y-67316875D03*
D41*
X292900625Y-65904375D03*
X293400625Y-65904375D03*
X293900625Y-65904375D03*
X294400625Y-65904375D03*
X294900625Y-65904375D03*
X295400625Y-65904375D03*
X295900625Y-65904375D03*
X296400625Y-65904375D03*
X296900625Y-65904375D03*
X297400625Y-65904375D03*
X297900625Y-65904375D03*
X298400625Y-65904375D03*
D25*
X152953750Y-78206250D03*
X152953750Y-81506250D03*
D28*
X206953242Y-97120345D03*
X203653242Y-97120345D03*
D25*
X233878125Y-135356250D03*
X233878125Y-138656250D03*
X371990625Y-78206250D03*
X371990625Y-81506250D03*
X391040625Y-135356250D03*
X391040625Y-138656250D03*
D11*
X156805000Y-106050000D03*
D12*
X154265000Y-100970000D03*
D10*
X151725000Y-106050000D03*
D12*
X147915000Y-103510000D03*
D11*
X146645000Y-106050000D03*
D13*
X157821000Y-100970000D03*
X144359000Y-103510000D03*
D25*
X186253125Y-30581250D03*
X186253125Y-33881250D03*
D11*
X385405000Y-106050000D03*
D12*
X382865000Y-100970000D03*
D10*
X380325000Y-106050000D03*
D12*
X376515000Y-103510000D03*
D11*
X375245000Y-106050000D03*
D13*
X386421000Y-100970000D03*
X372959000Y-103510000D03*
D28*
X237050000Y-48225000D03*
X233750000Y-48225000D03*
D25*
X267215625Y-78206250D03*
X267215625Y-81506250D03*
X110053125Y-116306250D03*
X110053125Y-119606250D03*
D11*
X261580000Y-58425000D03*
D12*
X259040000Y-53345000D03*
D10*
X256500000Y-58425000D03*
D12*
X252690000Y-55885000D03*
D11*
X251420000Y-58425000D03*
D13*
X262596000Y-53345000D03*
X249134000Y-55885000D03*
D25*
X100528125Y-135356250D03*
X100528125Y-138656250D03*
D42*
X73500000Y-33875000D03*
X73500000Y-38875000D03*
X73500000Y-36375000D03*
D43*
X66000000Y-30125000D03*
X66000000Y-42625000D03*
D42*
X59000000Y-33875000D03*
X59000000Y-38875000D03*
D44*
X325625000Y-149125000D03*
X323575000Y-149125000D03*
D25*
X371990625Y-116306250D03*
X371990625Y-119606250D03*
D11*
X318730000Y-58425000D03*
D12*
X316190000Y-53345000D03*
D10*
X313650000Y-58425000D03*
D12*
X309840000Y-55885000D03*
D11*
X308570000Y-58425000D03*
D13*
X319746000Y-53345000D03*
X306284000Y-55885000D03*
D25*
X429140625Y-78206250D03*
X429140625Y-81506250D03*
X229115625Y-78206250D03*
X229115625Y-81506250D03*
D28*
X336750000Y-49525000D03*
X333450000Y-49525000D03*
D11*
X237767500Y-39375000D03*
D12*
X235227500Y-34295000D03*
D10*
X232687500Y-39375000D03*
D12*
X228877500Y-36835000D03*
D11*
X227607500Y-39375000D03*
D13*
X238783500Y-34295000D03*
X225321500Y-36835000D03*
D25*
X391040625Y-30581250D03*
X391040625Y-33881250D03*
D11*
X385405000Y-125100000D03*
D12*
X382865000Y-120020000D03*
D10*
X380325000Y-125100000D03*
D12*
X376515000Y-122560000D03*
D11*
X375245000Y-125100000D03*
D13*
X386421000Y-120020000D03*
X372959000Y-122560000D03*
D11*
X299680000Y-58425000D03*
D12*
X297140000Y-53345000D03*
D10*
X294600000Y-58425000D03*
D12*
X290790000Y-55885000D03*
D11*
X289520000Y-58425000D03*
D13*
X300696000Y-53345000D03*
X287234000Y-55885000D03*
D11*
X271105000Y-106050000D03*
D12*
X268565000Y-100970000D03*
D10*
X266025000Y-106050000D03*
D12*
X262215000Y-103510000D03*
D11*
X260945000Y-106050000D03*
D13*
X272121000Y-100970000D03*
X258659000Y-103510000D03*
D25*
X157716250Y-135356250D03*
X157716250Y-138656250D03*
D28*
X77175000Y-154900000D03*
X73875000Y-154900000D03*
D14*
X104100000Y-48900000D03*
D25*
X62428125Y-97256250D03*
X62428125Y-100556250D03*
D11*
X294917500Y-125100000D03*
D12*
X292377500Y-120020000D03*
D10*
X289837500Y-125100000D03*
D12*
X286027500Y-122560000D03*
D11*
X284757500Y-125100000D03*
D13*
X295933500Y-120020000D03*
X282471500Y-122560000D03*
D28*
X83650000Y-135900000D03*
X80350000Y-135900000D03*
D11*
X166330000Y-87000000D03*
D12*
X163790000Y-81920000D03*
D10*
X161250000Y-87000000D03*
D12*
X157440000Y-84460000D03*
D11*
X156170000Y-87000000D03*
D13*
X167346000Y-81920000D03*
X153884000Y-84460000D03*
D11*
X104417500Y-125100000D03*
D12*
X101877500Y-120020000D03*
D10*
X99337500Y-125100000D03*
D12*
X95527500Y-122560000D03*
D11*
X94257500Y-125100000D03*
D13*
X105433500Y-120020000D03*
X91971500Y-122560000D03*
D25*
X167203125Y-49631250D03*
X167203125Y-52931250D03*
D11*
X380642500Y-58425000D03*
D12*
X378102500Y-53345000D03*
D10*
X375562500Y-58425000D03*
D12*
X371752500Y-55885000D03*
D11*
X370482500Y-58425000D03*
D13*
X381658500Y-53345000D03*
X368196500Y-55885000D03*
D45*
X290875000Y-76325000D03*
X292925000Y-76325000D03*
D11*
X123467500Y-125100000D03*
D12*
X120927500Y-120020000D03*
D10*
X118387500Y-125100000D03*
D12*
X114577500Y-122560000D03*
D11*
X113307500Y-125100000D03*
D13*
X124483500Y-120020000D03*
X111021500Y-122560000D03*
D25*
X367228125Y-49631250D03*
X367228125Y-52931250D03*
D38*
X325900000Y-153150000D03*
X325900000Y-151100000D03*
D44*
X301915625Y-64821875D03*
X299865625Y-64821875D03*
D46*
X248847000Y-26249000D03*
X254627000Y-26249000D03*
D47*
X248487000Y-27575000D03*
X249287000Y-27575000D03*
D48*
X250487000Y-27575000D03*
X251483000Y-27575000D03*
X251987000Y-27575000D03*
X252987000Y-27575000D03*
D47*
X254987000Y-27575000D03*
X254187000Y-27575000D03*
D48*
X253487000Y-27575000D03*
X252487000Y-27575000D03*
X250987000Y-27575000D03*
X249987000Y-27575000D03*
D49*
X247437000Y-22600000D03*
D50*
X247437000Y-26800000D03*
D49*
X256037000Y-22600000D03*
D50*
X256037000Y-26800000D03*
D11*
X252055000Y-106050000D03*
D12*
X249515000Y-100970000D03*
D10*
X246975000Y-106050000D03*
D12*
X243165000Y-103510000D03*
D11*
X241895000Y-106050000D03*
D13*
X253071000Y-100970000D03*
X239609000Y-103510000D03*
D11*
X385405000Y-144150000D03*
D12*
X382865000Y-139070000D03*
D10*
X380325000Y-144150000D03*
D12*
X376515000Y-141610000D03*
D11*
X375245000Y-144150000D03*
D13*
X386421000Y-139070000D03*
X372959000Y-141610000D03*
D26*
X370100000Y-72725000D03*
X368100000Y-72725000D03*
D51*
X88350000Y-46521250D03*
X88350000Y-47471250D03*
X88350000Y-48421250D03*
X85650000Y-48421250D03*
X85650000Y-47471250D03*
X85650000Y-46521250D03*
D11*
X423505000Y-39375000D03*
D12*
X420965000Y-34295000D03*
D10*
X418425000Y-39375000D03*
D12*
X414615000Y-36835000D03*
D11*
X413345000Y-39375000D03*
D13*
X424521000Y-34295000D03*
X411059000Y-36835000D03*
D27*
X82237500Y-43725000D03*
X85212500Y-43725000D03*
D28*
X258250000Y-44425000D03*
X254950000Y-44425000D03*
D25*
X205266250Y-116306250D03*
X205266250Y-119606250D03*
D28*
X321850000Y-149325000D03*
X318550000Y-149325000D03*
D25*
X179109375Y-154406250D03*
X179109375Y-157706250D03*
D44*
X70225000Y-38725000D03*
X68175000Y-38725000D03*
D25*
X271978125Y-135356250D03*
X271978125Y-138656250D03*
X95765625Y-78206250D03*
X95765625Y-81506250D03*
D52*
X80900000Y-66500000D03*
X79900000Y-66500000D03*
X78900000Y-66500000D03*
X77900000Y-66500000D03*
D53*
X82800000Y-70975000D03*
X82800000Y-70375000D03*
X82800000Y-69775000D03*
D54*
X82500000Y-70375000D03*
D53*
X82200000Y-70975000D03*
X82200000Y-70375000D03*
X82200000Y-69775000D03*
X76600000Y-70975000D03*
X76600000Y-70375000D03*
X76600000Y-69775000D03*
D54*
X76300000Y-70375000D03*
D53*
X76000000Y-70975000D03*
X76000000Y-70375000D03*
X76000000Y-69775000D03*
D25*
X191015625Y-78206250D03*
X191015625Y-81506250D03*
X252928125Y-135356250D03*
X252928125Y-138656250D03*
X410090625Y-78206250D03*
X410090625Y-81506250D03*
D11*
X218717500Y-58425000D03*
D12*
X216177500Y-53345000D03*
D10*
X213637500Y-58425000D03*
D12*
X209827500Y-55885000D03*
D11*
X208557500Y-58425000D03*
D13*
X219733500Y-53345000D03*
X206271500Y-55885000D03*
D28*
X114679727Y-151293828D03*
X111379727Y-151293828D03*
D11*
X311586250Y-144150000D03*
D12*
X309046250Y-139070000D03*
D10*
X306506250Y-144150000D03*
D12*
X302696250Y-141610000D03*
D11*
X301426250Y-144150000D03*
D13*
X312602250Y-139070000D03*
X299140250Y-141610000D03*
D25*
X206493750Y-154406250D03*
X206493750Y-157706250D03*
D11*
X137755000Y-58425000D03*
D12*
X135215000Y-53345000D03*
D10*
X132675000Y-58425000D03*
D12*
X128865000Y-55885000D03*
D11*
X127595000Y-58425000D03*
D13*
X138771000Y-53345000D03*
X125309000Y-55885000D03*
D28*
X246050000Y-65625000D03*
X242750000Y-65625000D03*
D25*
X422000000Y-112575000D03*
X422000000Y-115875000D03*
X86240625Y-30581250D03*
X86240625Y-33881250D03*
D11*
X285392500Y-144150000D03*
D12*
X282852500Y-139070000D03*
D10*
X280312500Y-144150000D03*
D12*
X276502500Y-141610000D03*
D11*
X275232500Y-144150000D03*
D13*
X286408500Y-139070000D03*
X272946500Y-141610000D03*
D25*
X162478750Y-97256250D03*
X162478750Y-100556250D03*
X267215625Y-30581250D03*
X267215625Y-33881250D03*
X410090625Y-49631250D03*
X410090625Y-52931250D03*
D55*
X236900000Y-30825000D03*
X238900000Y-30825000D03*
D11*
X404455000Y-58425000D03*
D12*
X401915000Y-53345000D03*
D10*
X399375000Y-58425000D03*
D12*
X395565000Y-55885000D03*
D11*
X394295000Y-58425000D03*
D13*
X405471000Y-53345000D03*
X392009000Y-55885000D03*
D44*
X62300000Y-36325000D03*
X60250000Y-36325000D03*
D25*
X224353125Y-116306250D03*
X224353125Y-119606250D03*
D11*
X213955000Y-106050000D03*
D12*
X211415000Y-100970000D03*
D10*
X208875000Y-106050000D03*
D12*
X205065000Y-103510000D03*
D11*
X203795000Y-106050000D03*
D13*
X214971000Y-100970000D03*
X201509000Y-103510000D03*
D56*
X299088125Y-67316875D03*
X299088125Y-67816875D03*
X299088125Y-68316875D03*
X299088125Y-68816875D03*
X299088125Y-69316875D03*
X299088125Y-69816875D03*
X299088125Y-70316875D03*
X299088125Y-70816875D03*
X299088125Y-71316875D03*
X299088125Y-71816875D03*
X299088125Y-72316875D03*
X299088125Y-72816875D03*
D57*
X298400625Y-73504375D03*
X297900625Y-73504375D03*
X297400625Y-73504375D03*
X296900625Y-73504375D03*
X296400625Y-73504375D03*
X295900625Y-73504375D03*
X295400625Y-73504375D03*
X294900625Y-73504375D03*
X294400625Y-73504375D03*
X293900625Y-73504375D03*
X293400625Y-73504375D03*
X292900625Y-73504375D03*
D56*
X292213125Y-72816875D03*
X292213125Y-72316875D03*
X292213125Y-71816875D03*
X292213125Y-71316875D03*
X292213125Y-70816875D03*
X292213125Y-70316875D03*
X292213125Y-69816875D03*
X292213125Y-69316875D03*
X292213125Y-68816875D03*
X292213125Y-68316875D03*
X292213125Y-67816875D03*
X292213125Y-67316875D03*
D57*
X292900625Y-66629375D03*
X293400625Y-66629375D03*
X293900625Y-66629375D03*
X294400625Y-66629375D03*
X294900625Y-66629375D03*
X295400625Y-66629375D03*
X295900625Y-66629375D03*
X296400625Y-66629375D03*
X296900625Y-66629375D03*
X297400625Y-66629375D03*
X297900625Y-66629375D03*
X298400625Y-66629375D03*
D58*
X295650625Y-70066875D03*
D25*
X132675056Y-155001645D03*
X132675056Y-158301645D03*
D11*
X385405000Y-87000000D03*
D12*
X382865000Y-81920000D03*
D10*
X380325000Y-87000000D03*
D12*
X376515000Y-84460000D03*
D11*
X375245000Y-87000000D03*
D13*
X386421000Y-81920000D03*
X372959000Y-84460000D03*
D11*
X323492500Y-167962500D03*
D12*
X320952500Y-162882500D03*
D10*
X318412500Y-167962500D03*
D12*
X314602500Y-165422500D03*
D11*
X313332500Y-167962500D03*
D13*
X324508500Y-162882500D03*
X311046500Y-165422500D03*
D25*
X105328750Y-97256250D03*
X105328750Y-100556250D03*
D38*
X316400000Y-144150000D03*
X316400000Y-142100000D03*
D12*
X430490000Y-165613000D03*
D10*
X445730000Y-165613000D03*
D11*
X437475000Y-158755000D03*
D12*
X442555000Y-156215000D03*
D10*
X437475000Y-153675000D03*
D12*
X440015000Y-149865000D03*
D11*
X437475000Y-148595000D03*
D12*
X430490000Y-141737000D03*
D10*
X445730000Y-141737000D03*
D39*
X442555000Y-159771000D03*
X440015000Y-146309000D03*
D25*
X181490625Y-97256250D03*
X181490625Y-100556250D03*
D33*
X72300000Y-45825000D03*
X72300000Y-47875000D03*
D25*
X267215625Y-49631250D03*
X267215625Y-52931250D03*
X310078125Y-159168750D03*
X310078125Y-162468750D03*
D26*
X338400000Y-69125000D03*
X336400000Y-69125000D03*
D25*
X133903750Y-78206250D03*
X133903750Y-81506250D03*
X86240625Y-97256250D03*
X86240625Y-100556250D03*
D59*
X318662500Y-147175000D03*
X318662500Y-145275000D03*
X320537500Y-146225000D03*
D25*
X148153125Y-116306250D03*
X148153125Y-119606250D03*
D11*
X73461250Y-163200000D03*
D12*
X70921250Y-158120000D03*
D10*
X68381250Y-163200000D03*
D12*
X64571250Y-160660000D03*
D11*
X63301250Y-163200000D03*
D13*
X74477250Y-158120000D03*
X61015250Y-160660000D03*
D28*
X313973643Y-49495305D03*
X310673643Y-49495305D03*
D60*
X243700000Y-42387500D03*
X243700000Y-44462500D03*
D61*
X247450000Y-44562500D03*
X246500000Y-44562500D03*
X245550000Y-44562500D03*
X245550000Y-42287500D03*
X246500000Y-42287500D03*
X247450000Y-42287500D03*
D11*
X361592500Y-87000000D03*
D12*
X359052500Y-81920000D03*
D10*
X356512500Y-87000000D03*
D12*
X352702500Y-84460000D03*
D11*
X351432500Y-87000000D03*
D13*
X362608500Y-81920000D03*
X349146500Y-84460000D03*
D28*
X113250000Y-49625000D03*
X109950000Y-49625000D03*
D25*
X143428750Y-97256250D03*
X143428750Y-100556250D03*
X262453125Y-116306250D03*
X262453125Y-119606250D03*
X410090625Y-135356250D03*
X410090625Y-138656250D03*
D11*
X204430000Y-87000000D03*
D12*
X201890000Y-81920000D03*
D10*
X199350000Y-87000000D03*
D12*
X195540000Y-84460000D03*
D11*
X194270000Y-87000000D03*
D13*
X205446000Y-81920000D03*
X191984000Y-84460000D03*
D11*
X423505000Y-58425000D03*
D12*
X420965000Y-53345000D03*
D10*
X418425000Y-58425000D03*
D12*
X414615000Y-55885000D03*
D11*
X413345000Y-58425000D03*
D13*
X424521000Y-53345000D03*
X411059000Y-55885000D03*
D45*
X430275000Y-160325000D03*
X432325000Y-160325000D03*
X318575000Y-143325000D03*
X320625000Y-143325000D03*
D25*
X248165625Y-154406250D03*
X248165625Y-157706250D03*
X410090625Y-116306250D03*
X410090625Y-119606250D03*
X427000000Y-111150000D03*
X427000000Y-114450000D03*
D28*
X398508089Y-96525032D03*
X395208089Y-96525032D03*
D25*
X286303750Y-30581250D03*
X286303750Y-33881250D03*
X143390625Y-49631250D03*
X143390625Y-52931250D03*
D11*
X299680000Y-163200000D03*
D12*
X297140000Y-158120000D03*
D10*
X294600000Y-163200000D03*
D12*
X290790000Y-160660000D03*
D11*
X289520000Y-163200000D03*
D13*
X300696000Y-158120000D03*
X287234000Y-160660000D03*
D11*
X175855000Y-106050000D03*
D12*
X173315000Y-100970000D03*
D10*
X170775000Y-106050000D03*
D12*
X166965000Y-103510000D03*
D11*
X165695000Y-106050000D03*
D13*
X176871000Y-100970000D03*
X163409000Y-103510000D03*
D25*
X105290625Y-30581250D03*
X105290625Y-33881250D03*
D11*
X233005000Y-106050000D03*
D12*
X230465000Y-100970000D03*
D10*
X227925000Y-106050000D03*
D12*
X224115000Y-103510000D03*
D11*
X222845000Y-106050000D03*
D13*
X234021000Y-100970000D03*
X220559000Y-103510000D03*
M02*
