G04 #@! TF.GenerationSoftware,KiCad,Pcbnew,7.0.2*
G04 #@! TF.CreationDate,2023-05-20T00:04:52-04:00*
G04 #@! TF.ProjectId,Boston-keyboard-V082JHA,426f7374-6f6e-42d6-9b65-79626f617264,rev?*
G04 #@! TF.SameCoordinates,Original*
G04 #@! TF.FileFunction,Legend,Top*
G04 #@! TF.FilePolarity,Positive*
%FSLAX46Y46*%
G04 Gerber Fmt 4.6, Leading zero omitted, Abs format (unit mm)*
G04 Created by KiCad (PCBNEW 7.0.2) date 2023-05-20 00:04:52*
%MOMM*%
%LPD*%
G01*
G04 APERTURE LIST*
%ADD10C,0.300000*%
%ADD11C,0.500000*%
%ADD12C,0.160000*%
%ADD13C,0.200000*%
%ADD14C,0.150000*%
%ADD15C,0.120000*%
G04 APERTURE END LIST*
D10*
X142200064Y-165139061D02*
X142200064Y-168710939D01*
X212409374Y-167371966D02*
X214790626Y-167371966D01*
X195182921Y-162604775D02*
X193992295Y-161414149D01*
X142200064Y-168710939D02*
X141009438Y-167520313D01*
X166012584Y-165175000D02*
X166012584Y-168746878D01*
X238640770Y-159626557D02*
X236259518Y-159626557D01*
X136246934Y-167556252D02*
X138628186Y-167556252D01*
X167203210Y-167556252D02*
X166012584Y-168746878D01*
X193992295Y-161414149D02*
X198754799Y-161414149D01*
X141009438Y-167520313D02*
X143390690Y-167520313D01*
X138628186Y-159817183D02*
X137437560Y-158626557D01*
X166012584Y-158626557D02*
X164821958Y-159817183D01*
X136246934Y-159817183D02*
X138628186Y-159817183D01*
X214790626Y-167371966D02*
X213600000Y-168562592D01*
X167203210Y-159817183D02*
X166012584Y-158626557D01*
X237450144Y-158435931D02*
X238640770Y-159626557D01*
X237450144Y-168556252D02*
X238640770Y-167365626D01*
X185657913Y-164986027D02*
X184467287Y-163795401D01*
X141009438Y-159781244D02*
X143390690Y-159781244D01*
X237450144Y-158435931D02*
X237450144Y-161412496D01*
X166012584Y-162198435D02*
X166012584Y-158626557D01*
X213600000Y-165225000D02*
X213600000Y-168562592D01*
X137437560Y-162198435D02*
X137437560Y-158626557D01*
X164821958Y-159817183D02*
X167203210Y-159817183D01*
X138628186Y-167556252D02*
X137437560Y-168746878D01*
X137437560Y-158626557D02*
X136246934Y-159817183D01*
X237450144Y-166175000D02*
X237450144Y-168556252D01*
X195182921Y-160223523D02*
X195182921Y-162604775D01*
X164821958Y-167556252D02*
X167203210Y-167556252D01*
X142200064Y-162162496D02*
X142200064Y-158590618D01*
X213600000Y-162425000D02*
X213600000Y-158442271D01*
X166012584Y-168746878D02*
X164821958Y-167556252D01*
X184467287Y-166176653D02*
X185657913Y-164986027D01*
X143390690Y-167520313D02*
X142200064Y-168710939D01*
X237450144Y-168556252D02*
X236259518Y-167365626D01*
X212409374Y-159632897D02*
X214790626Y-159632897D01*
X236259518Y-159626557D02*
X237450144Y-158435931D01*
X193992295Y-161414149D02*
X195182921Y-160223523D01*
X214790626Y-159632897D02*
X213600000Y-158442271D01*
X213600000Y-168562592D02*
X212409374Y-167371966D01*
X142200064Y-158590618D02*
X141009438Y-159781244D01*
X137437560Y-165175000D02*
X137437560Y-168746878D01*
X213600000Y-158442271D02*
X212409374Y-159632897D01*
X137437560Y-168746878D02*
X136246934Y-167556252D01*
X180895409Y-164986027D02*
X185657913Y-164986027D01*
X236259518Y-167365626D02*
X238640770Y-167365626D01*
X143390690Y-159781244D02*
X142200064Y-158590618D01*
X184467287Y-163795401D02*
X184467287Y-166176653D01*
D11*
X376029999Y-79895000D02*
X376458571Y-80037857D01*
X376458571Y-80037857D02*
X377172856Y-80037857D01*
X377172856Y-80037857D02*
X377458571Y-79895000D01*
X377458571Y-79895000D02*
X377601428Y-79752142D01*
X377601428Y-79752142D02*
X377744285Y-79466428D01*
X377744285Y-79466428D02*
X377744285Y-79180714D01*
X377744285Y-79180714D02*
X377601428Y-78895000D01*
X377601428Y-78895000D02*
X377458571Y-78752142D01*
X377458571Y-78752142D02*
X377172856Y-78609285D01*
X377172856Y-78609285D02*
X376601428Y-78466428D01*
X376601428Y-78466428D02*
X376315713Y-78323571D01*
X376315713Y-78323571D02*
X376172856Y-78180714D01*
X376172856Y-78180714D02*
X376029999Y-77895000D01*
X376029999Y-77895000D02*
X376029999Y-77609285D01*
X376029999Y-77609285D02*
X376172856Y-77323571D01*
X376172856Y-77323571D02*
X376315713Y-77180714D01*
X376315713Y-77180714D02*
X376601428Y-77037857D01*
X376601428Y-77037857D02*
X377315713Y-77037857D01*
X377315713Y-77037857D02*
X377744285Y-77180714D01*
X380315714Y-79895000D02*
X380029999Y-80037857D01*
X380029999Y-80037857D02*
X379458571Y-80037857D01*
X379458571Y-80037857D02*
X379172856Y-79895000D01*
X379172856Y-79895000D02*
X379029999Y-79752142D01*
X379029999Y-79752142D02*
X378887142Y-79466428D01*
X378887142Y-79466428D02*
X378887142Y-78609285D01*
X378887142Y-78609285D02*
X379029999Y-78323571D01*
X379029999Y-78323571D02*
X379172856Y-78180714D01*
X379172856Y-78180714D02*
X379458571Y-78037857D01*
X379458571Y-78037857D02*
X380029999Y-78037857D01*
X380029999Y-78037857D02*
X380315714Y-78180714D01*
X381601428Y-80037857D02*
X381601428Y-78037857D01*
X381601428Y-78609285D02*
X381744285Y-78323571D01*
X381744285Y-78323571D02*
X381887143Y-78180714D01*
X381887143Y-78180714D02*
X382172857Y-78037857D01*
X382172857Y-78037857D02*
X382458571Y-78037857D01*
X383887143Y-80037857D02*
X383601428Y-79895000D01*
X383601428Y-79895000D02*
X383458571Y-79752142D01*
X383458571Y-79752142D02*
X383315714Y-79466428D01*
X383315714Y-79466428D02*
X383315714Y-78609285D01*
X383315714Y-78609285D02*
X383458571Y-78323571D01*
X383458571Y-78323571D02*
X383601428Y-78180714D01*
X383601428Y-78180714D02*
X383887143Y-78037857D01*
X383887143Y-78037857D02*
X384315714Y-78037857D01*
X384315714Y-78037857D02*
X384601428Y-78180714D01*
X384601428Y-78180714D02*
X384744286Y-78323571D01*
X384744286Y-78323571D02*
X384887143Y-78609285D01*
X384887143Y-78609285D02*
X384887143Y-79466428D01*
X384887143Y-79466428D02*
X384744286Y-79752142D01*
X384744286Y-79752142D02*
X384601428Y-79895000D01*
X384601428Y-79895000D02*
X384315714Y-80037857D01*
X384315714Y-80037857D02*
X383887143Y-80037857D01*
X386601429Y-80037857D02*
X386315714Y-79895000D01*
X386315714Y-79895000D02*
X386172857Y-79609285D01*
X386172857Y-79609285D02*
X386172857Y-77037857D01*
X388172858Y-80037857D02*
X387887143Y-79895000D01*
X387887143Y-79895000D02*
X387744286Y-79609285D01*
X387744286Y-79609285D02*
X387744286Y-77037857D01*
D12*
X76933332Y-33076047D02*
X76666666Y-33076047D01*
X76666666Y-33495095D02*
X76666666Y-32695095D01*
X76666666Y-32695095D02*
X77047618Y-32695095D01*
X77466665Y-33495095D02*
X77390475Y-33457000D01*
X77390475Y-33457000D02*
X77352380Y-33380809D01*
X77352380Y-33380809D02*
X77352380Y-32695095D01*
X78114285Y-33495095D02*
X78114285Y-33076047D01*
X78114285Y-33076047D02*
X78076190Y-32999857D01*
X78076190Y-32999857D02*
X77999999Y-32961761D01*
X77999999Y-32961761D02*
X77847618Y-32961761D01*
X77847618Y-32961761D02*
X77771428Y-32999857D01*
X78114285Y-33457000D02*
X78038094Y-33495095D01*
X78038094Y-33495095D02*
X77847618Y-33495095D01*
X77847618Y-33495095D02*
X77771428Y-33457000D01*
X77771428Y-33457000D02*
X77733332Y-33380809D01*
X77733332Y-33380809D02*
X77733332Y-33304619D01*
X77733332Y-33304619D02*
X77771428Y-33228428D01*
X77771428Y-33228428D02*
X77847618Y-33190333D01*
X77847618Y-33190333D02*
X78038094Y-33190333D01*
X78038094Y-33190333D02*
X78114285Y-33152238D01*
X78380952Y-32961761D02*
X78685714Y-32961761D01*
X78495238Y-32695095D02*
X78495238Y-33380809D01*
X78495238Y-33380809D02*
X78533333Y-33457000D01*
X78533333Y-33457000D02*
X78609523Y-33495095D01*
X78609523Y-33495095D02*
X78685714Y-33495095D01*
X79523809Y-33457000D02*
X79638095Y-33495095D01*
X79638095Y-33495095D02*
X79828571Y-33495095D01*
X79828571Y-33495095D02*
X79904762Y-33457000D01*
X79904762Y-33457000D02*
X79942857Y-33418904D01*
X79942857Y-33418904D02*
X79980952Y-33342714D01*
X79980952Y-33342714D02*
X79980952Y-33266523D01*
X79980952Y-33266523D02*
X79942857Y-33190333D01*
X79942857Y-33190333D02*
X79904762Y-33152238D01*
X79904762Y-33152238D02*
X79828571Y-33114142D01*
X79828571Y-33114142D02*
X79676190Y-33076047D01*
X79676190Y-33076047D02*
X79600000Y-33037952D01*
X79600000Y-33037952D02*
X79561905Y-32999857D01*
X79561905Y-32999857D02*
X79523809Y-32923666D01*
X79523809Y-32923666D02*
X79523809Y-32847476D01*
X79523809Y-32847476D02*
X79561905Y-32771285D01*
X79561905Y-32771285D02*
X79600000Y-32733190D01*
X79600000Y-32733190D02*
X79676190Y-32695095D01*
X79676190Y-32695095D02*
X79866667Y-32695095D01*
X79866667Y-32695095D02*
X79980952Y-32733190D01*
X80323810Y-33495095D02*
X80323810Y-32961761D01*
X80323810Y-32695095D02*
X80285714Y-32733190D01*
X80285714Y-32733190D02*
X80323810Y-32771285D01*
X80323810Y-32771285D02*
X80361905Y-32733190D01*
X80361905Y-32733190D02*
X80323810Y-32695095D01*
X80323810Y-32695095D02*
X80323810Y-32771285D01*
X81047619Y-33495095D02*
X81047619Y-32695095D01*
X81047619Y-33457000D02*
X80971428Y-33495095D01*
X80971428Y-33495095D02*
X80819047Y-33495095D01*
X80819047Y-33495095D02*
X80742857Y-33457000D01*
X80742857Y-33457000D02*
X80704762Y-33418904D01*
X80704762Y-33418904D02*
X80666666Y-33342714D01*
X80666666Y-33342714D02*
X80666666Y-33114142D01*
X80666666Y-33114142D02*
X80704762Y-33037952D01*
X80704762Y-33037952D02*
X80742857Y-32999857D01*
X80742857Y-32999857D02*
X80819047Y-32961761D01*
X80819047Y-32961761D02*
X80971428Y-32961761D01*
X80971428Y-32961761D02*
X81047619Y-32999857D01*
X81733334Y-33457000D02*
X81657143Y-33495095D01*
X81657143Y-33495095D02*
X81504762Y-33495095D01*
X81504762Y-33495095D02*
X81428572Y-33457000D01*
X81428572Y-33457000D02*
X81390476Y-33380809D01*
X81390476Y-33380809D02*
X81390476Y-33076047D01*
X81390476Y-33076047D02*
X81428572Y-32999857D01*
X81428572Y-32999857D02*
X81504762Y-32961761D01*
X81504762Y-32961761D02*
X81657143Y-32961761D01*
X81657143Y-32961761D02*
X81733334Y-32999857D01*
X81733334Y-32999857D02*
X81771429Y-33076047D01*
X81771429Y-33076047D02*
X81771429Y-33152238D01*
X81771429Y-33152238D02*
X81390476Y-33228428D01*
D10*
X372978571Y-70032500D02*
X374121429Y-70032500D01*
X373550000Y-70603928D02*
X373550000Y-69461071D01*
D11*
X338305714Y-80277857D02*
X338305714Y-77277857D01*
X338305714Y-77277857D02*
X340020000Y-80277857D01*
X340020000Y-80277857D02*
X340020000Y-77277857D01*
X342734286Y-78277857D02*
X342734286Y-80277857D01*
X341448571Y-78277857D02*
X341448571Y-79849285D01*
X341448571Y-79849285D02*
X341591428Y-80135000D01*
X341591428Y-80135000D02*
X341877143Y-80277857D01*
X341877143Y-80277857D02*
X342305714Y-80277857D01*
X342305714Y-80277857D02*
X342591428Y-80135000D01*
X342591428Y-80135000D02*
X342734286Y-79992142D01*
X344162857Y-80277857D02*
X344162857Y-78277857D01*
X344162857Y-78563571D02*
X344305714Y-78420714D01*
X344305714Y-78420714D02*
X344591429Y-78277857D01*
X344591429Y-78277857D02*
X345020000Y-78277857D01*
X345020000Y-78277857D02*
X345305714Y-78420714D01*
X345305714Y-78420714D02*
X345448572Y-78706428D01*
X345448572Y-78706428D02*
X345448572Y-80277857D01*
X345448572Y-78706428D02*
X345591429Y-78420714D01*
X345591429Y-78420714D02*
X345877143Y-78277857D01*
X345877143Y-78277857D02*
X346305714Y-78277857D01*
X346305714Y-78277857D02*
X346591429Y-78420714D01*
X346591429Y-78420714D02*
X346734286Y-78706428D01*
X346734286Y-78706428D02*
X346734286Y-80277857D01*
D10*
X133473050Y-163118928D02*
X133187335Y-163118928D01*
X133187335Y-163118928D02*
X133044478Y-163190357D01*
X133044478Y-163190357D02*
X132973050Y-163261785D01*
X132973050Y-163261785D02*
X132830192Y-163476071D01*
X132830192Y-163476071D02*
X132758764Y-163761785D01*
X132758764Y-163761785D02*
X132758764Y-164333214D01*
X132758764Y-164333214D02*
X132830192Y-164476071D01*
X132830192Y-164476071D02*
X132901621Y-164547500D01*
X132901621Y-164547500D02*
X133044478Y-164618928D01*
X133044478Y-164618928D02*
X133330192Y-164618928D01*
X133330192Y-164618928D02*
X133473050Y-164547500D01*
X133473050Y-164547500D02*
X133544478Y-164476071D01*
X133544478Y-164476071D02*
X133615907Y-164333214D01*
X133615907Y-164333214D02*
X133615907Y-163976071D01*
X133615907Y-163976071D02*
X133544478Y-163833214D01*
X133544478Y-163833214D02*
X133473050Y-163761785D01*
X133473050Y-163761785D02*
X133330192Y-163690357D01*
X133330192Y-163690357D02*
X133044478Y-163690357D01*
X133044478Y-163690357D02*
X132901621Y-163761785D01*
X132901621Y-163761785D02*
X132830192Y-163833214D01*
X132830192Y-163833214D02*
X132758764Y-163976071D01*
X134258763Y-164476071D02*
X134330192Y-164547500D01*
X134330192Y-164547500D02*
X134258763Y-164618928D01*
X134258763Y-164618928D02*
X134187335Y-164547500D01*
X134187335Y-164547500D02*
X134258763Y-164476071D01*
X134258763Y-164476071D02*
X134258763Y-164618928D01*
X134901621Y-163261785D02*
X134973049Y-163190357D01*
X134973049Y-163190357D02*
X135115907Y-163118928D01*
X135115907Y-163118928D02*
X135473049Y-163118928D01*
X135473049Y-163118928D02*
X135615907Y-163190357D01*
X135615907Y-163190357D02*
X135687335Y-163261785D01*
X135687335Y-163261785D02*
X135758764Y-163404642D01*
X135758764Y-163404642D02*
X135758764Y-163547500D01*
X135758764Y-163547500D02*
X135687335Y-163761785D01*
X135687335Y-163761785D02*
X134830192Y-164618928D01*
X134830192Y-164618928D02*
X135758764Y-164618928D01*
X137115906Y-163118928D02*
X136401620Y-163118928D01*
X136401620Y-163118928D02*
X136330192Y-163833214D01*
X136330192Y-163833214D02*
X136401620Y-163761785D01*
X136401620Y-163761785D02*
X136544478Y-163690357D01*
X136544478Y-163690357D02*
X136901620Y-163690357D01*
X136901620Y-163690357D02*
X137044478Y-163761785D01*
X137044478Y-163761785D02*
X137115906Y-163833214D01*
X137115906Y-163833214D02*
X137187335Y-163976071D01*
X137187335Y-163976071D02*
X137187335Y-164333214D01*
X137187335Y-164333214D02*
X137115906Y-164476071D01*
X137115906Y-164476071D02*
X137044478Y-164547500D01*
X137044478Y-164547500D02*
X136901620Y-164618928D01*
X136901620Y-164618928D02*
X136544478Y-164618928D01*
X136544478Y-164618928D02*
X136401620Y-164547500D01*
X136401620Y-164547500D02*
X136330192Y-164476071D01*
X138473049Y-163618928D02*
X138473049Y-164618928D01*
X137830191Y-163618928D02*
X137830191Y-164404642D01*
X137830191Y-164404642D02*
X137901620Y-164547500D01*
X137901620Y-164547500D02*
X138044477Y-164618928D01*
X138044477Y-164618928D02*
X138258763Y-164618928D01*
X138258763Y-164618928D02*
X138401620Y-164547500D01*
X138401620Y-164547500D02*
X138473049Y-164476071D01*
X290500000Y-138918928D02*
X290000000Y-138204642D01*
X289642857Y-138918928D02*
X289642857Y-137418928D01*
X289642857Y-137418928D02*
X290214286Y-137418928D01*
X290214286Y-137418928D02*
X290357143Y-137490357D01*
X290357143Y-137490357D02*
X290428572Y-137561785D01*
X290428572Y-137561785D02*
X290500000Y-137704642D01*
X290500000Y-137704642D02*
X290500000Y-137918928D01*
X290500000Y-137918928D02*
X290428572Y-138061785D01*
X290428572Y-138061785D02*
X290357143Y-138133214D01*
X290357143Y-138133214D02*
X290214286Y-138204642D01*
X290214286Y-138204642D02*
X289642857Y-138204642D01*
X291714286Y-138847500D02*
X291571429Y-138918928D01*
X291571429Y-138918928D02*
X291285715Y-138918928D01*
X291285715Y-138918928D02*
X291142857Y-138847500D01*
X291142857Y-138847500D02*
X291071429Y-138704642D01*
X291071429Y-138704642D02*
X291071429Y-138133214D01*
X291071429Y-138133214D02*
X291142857Y-137990357D01*
X291142857Y-137990357D02*
X291285715Y-137918928D01*
X291285715Y-137918928D02*
X291571429Y-137918928D01*
X291571429Y-137918928D02*
X291714286Y-137990357D01*
X291714286Y-137990357D02*
X291785715Y-138133214D01*
X291785715Y-138133214D02*
X291785715Y-138276071D01*
X291785715Y-138276071D02*
X291071429Y-138418928D01*
X292357143Y-138847500D02*
X292500000Y-138918928D01*
X292500000Y-138918928D02*
X292785714Y-138918928D01*
X292785714Y-138918928D02*
X292928571Y-138847500D01*
X292928571Y-138847500D02*
X293000000Y-138704642D01*
X293000000Y-138704642D02*
X293000000Y-138633214D01*
X293000000Y-138633214D02*
X292928571Y-138490357D01*
X292928571Y-138490357D02*
X292785714Y-138418928D01*
X292785714Y-138418928D02*
X292571429Y-138418928D01*
X292571429Y-138418928D02*
X292428571Y-138347500D01*
X292428571Y-138347500D02*
X292357143Y-138204642D01*
X292357143Y-138204642D02*
X292357143Y-138133214D01*
X292357143Y-138133214D02*
X292428571Y-137990357D01*
X292428571Y-137990357D02*
X292571429Y-137918928D01*
X292571429Y-137918928D02*
X292785714Y-137918928D01*
X292785714Y-137918928D02*
X292928571Y-137990357D01*
X294214286Y-138847500D02*
X294071429Y-138918928D01*
X294071429Y-138918928D02*
X293785715Y-138918928D01*
X293785715Y-138918928D02*
X293642857Y-138847500D01*
X293642857Y-138847500D02*
X293571429Y-138704642D01*
X293571429Y-138704642D02*
X293571429Y-138133214D01*
X293571429Y-138133214D02*
X293642857Y-137990357D01*
X293642857Y-137990357D02*
X293785715Y-137918928D01*
X293785715Y-137918928D02*
X294071429Y-137918928D01*
X294071429Y-137918928D02*
X294214286Y-137990357D01*
X294214286Y-137990357D02*
X294285715Y-138133214D01*
X294285715Y-138133214D02*
X294285715Y-138276071D01*
X294285715Y-138276071D02*
X293571429Y-138418928D01*
X294714286Y-137918928D02*
X295285714Y-137918928D01*
X294928571Y-137418928D02*
X294928571Y-138704642D01*
X294928571Y-138704642D02*
X295000000Y-138847500D01*
X295000000Y-138847500D02*
X295142857Y-138918928D01*
X295142857Y-138918928D02*
X295285714Y-138918928D01*
X296857143Y-138847500D02*
X297071429Y-138918928D01*
X297071429Y-138918928D02*
X297428571Y-138918928D01*
X297428571Y-138918928D02*
X297571429Y-138847500D01*
X297571429Y-138847500D02*
X297642857Y-138776071D01*
X297642857Y-138776071D02*
X297714286Y-138633214D01*
X297714286Y-138633214D02*
X297714286Y-138490357D01*
X297714286Y-138490357D02*
X297642857Y-138347500D01*
X297642857Y-138347500D02*
X297571429Y-138276071D01*
X297571429Y-138276071D02*
X297428571Y-138204642D01*
X297428571Y-138204642D02*
X297142857Y-138133214D01*
X297142857Y-138133214D02*
X297000000Y-138061785D01*
X297000000Y-138061785D02*
X296928571Y-137990357D01*
X296928571Y-137990357D02*
X296857143Y-137847500D01*
X296857143Y-137847500D02*
X296857143Y-137704642D01*
X296857143Y-137704642D02*
X296928571Y-137561785D01*
X296928571Y-137561785D02*
X297000000Y-137490357D01*
X297000000Y-137490357D02*
X297142857Y-137418928D01*
X297142857Y-137418928D02*
X297500000Y-137418928D01*
X297500000Y-137418928D02*
X297714286Y-137490357D01*
X298214285Y-137418928D02*
X298571428Y-138918928D01*
X298571428Y-138918928D02*
X298857142Y-137847500D01*
X298857142Y-137847500D02*
X299142857Y-138918928D01*
X299142857Y-138918928D02*
X299500000Y-137418928D01*
X200290963Y-162108077D02*
X199433820Y-162108077D01*
X199862391Y-162108077D02*
X199862391Y-160608077D01*
X199862391Y-160608077D02*
X199719534Y-160822363D01*
X199719534Y-160822363D02*
X199576677Y-160965220D01*
X199576677Y-160965220D02*
X199433820Y-161036649D01*
X200933819Y-161965220D02*
X201005248Y-162036649D01*
X201005248Y-162036649D02*
X200933819Y-162108077D01*
X200933819Y-162108077D02*
X200862391Y-162036649D01*
X200862391Y-162036649D02*
X200933819Y-161965220D01*
X200933819Y-161965220D02*
X200933819Y-162108077D01*
X201576677Y-160750934D02*
X201648105Y-160679506D01*
X201648105Y-160679506D02*
X201790963Y-160608077D01*
X201790963Y-160608077D02*
X202148105Y-160608077D01*
X202148105Y-160608077D02*
X202290963Y-160679506D01*
X202290963Y-160679506D02*
X202362391Y-160750934D01*
X202362391Y-160750934D02*
X202433820Y-160893791D01*
X202433820Y-160893791D02*
X202433820Y-161036649D01*
X202433820Y-161036649D02*
X202362391Y-161250934D01*
X202362391Y-161250934D02*
X201505248Y-162108077D01*
X201505248Y-162108077D02*
X202433820Y-162108077D01*
X203790962Y-160608077D02*
X203076676Y-160608077D01*
X203076676Y-160608077D02*
X203005248Y-161322363D01*
X203005248Y-161322363D02*
X203076676Y-161250934D01*
X203076676Y-161250934D02*
X203219534Y-161179506D01*
X203219534Y-161179506D02*
X203576676Y-161179506D01*
X203576676Y-161179506D02*
X203719534Y-161250934D01*
X203719534Y-161250934D02*
X203790962Y-161322363D01*
X203790962Y-161322363D02*
X203862391Y-161465220D01*
X203862391Y-161465220D02*
X203862391Y-161822363D01*
X203862391Y-161822363D02*
X203790962Y-161965220D01*
X203790962Y-161965220D02*
X203719534Y-162036649D01*
X203719534Y-162036649D02*
X203576676Y-162108077D01*
X203576676Y-162108077D02*
X203219534Y-162108077D01*
X203219534Y-162108077D02*
X203076676Y-162036649D01*
X203076676Y-162036649D02*
X203005248Y-161965220D01*
X205148105Y-161108077D02*
X205148105Y-162108077D01*
X204505247Y-161108077D02*
X204505247Y-161893791D01*
X204505247Y-161893791D02*
X204576676Y-162036649D01*
X204576676Y-162036649D02*
X204719533Y-162108077D01*
X204719533Y-162108077D02*
X204933819Y-162108077D01*
X204933819Y-162108077D02*
X205076676Y-162036649D01*
X205076676Y-162036649D02*
X205148105Y-161965220D01*
X353428571Y-70212500D02*
X354571429Y-70212500D01*
X354000000Y-70783928D02*
X354000000Y-69641071D01*
D11*
X357760000Y-79662142D02*
X357617143Y-79805000D01*
X357617143Y-79805000D02*
X357188571Y-79947857D01*
X357188571Y-79947857D02*
X356902857Y-79947857D01*
X356902857Y-79947857D02*
X356474286Y-79805000D01*
X356474286Y-79805000D02*
X356188571Y-79519285D01*
X356188571Y-79519285D02*
X356045714Y-79233571D01*
X356045714Y-79233571D02*
X355902857Y-78662142D01*
X355902857Y-78662142D02*
X355902857Y-78233571D01*
X355902857Y-78233571D02*
X356045714Y-77662142D01*
X356045714Y-77662142D02*
X356188571Y-77376428D01*
X356188571Y-77376428D02*
X356474286Y-77090714D01*
X356474286Y-77090714D02*
X356902857Y-76947857D01*
X356902857Y-76947857D02*
X357188571Y-76947857D01*
X357188571Y-76947857D02*
X357617143Y-77090714D01*
X357617143Y-77090714D02*
X357760000Y-77233571D01*
X360331429Y-79947857D02*
X360331429Y-78376428D01*
X360331429Y-78376428D02*
X360188571Y-78090714D01*
X360188571Y-78090714D02*
X359902857Y-77947857D01*
X359902857Y-77947857D02*
X359331429Y-77947857D01*
X359331429Y-77947857D02*
X359045714Y-78090714D01*
X360331429Y-79805000D02*
X360045714Y-79947857D01*
X360045714Y-79947857D02*
X359331429Y-79947857D01*
X359331429Y-79947857D02*
X359045714Y-79805000D01*
X359045714Y-79805000D02*
X358902857Y-79519285D01*
X358902857Y-79519285D02*
X358902857Y-79233571D01*
X358902857Y-79233571D02*
X359045714Y-78947857D01*
X359045714Y-78947857D02*
X359331429Y-78805000D01*
X359331429Y-78805000D02*
X360045714Y-78805000D01*
X360045714Y-78805000D02*
X360331429Y-78662142D01*
X361760000Y-77947857D02*
X361760000Y-80947857D01*
X361760000Y-78090714D02*
X362045715Y-77947857D01*
X362045715Y-77947857D02*
X362617143Y-77947857D01*
X362617143Y-77947857D02*
X362902857Y-78090714D01*
X362902857Y-78090714D02*
X363045715Y-78233571D01*
X363045715Y-78233571D02*
X363188572Y-78519285D01*
X363188572Y-78519285D02*
X363188572Y-79376428D01*
X363188572Y-79376428D02*
X363045715Y-79662142D01*
X363045715Y-79662142D02*
X362902857Y-79805000D01*
X362902857Y-79805000D02*
X362617143Y-79947857D01*
X362617143Y-79947857D02*
X362045715Y-79947857D01*
X362045715Y-79947857D02*
X361760000Y-79805000D01*
X364331429Y-79805000D02*
X364617143Y-79947857D01*
X364617143Y-79947857D02*
X365188572Y-79947857D01*
X365188572Y-79947857D02*
X365474286Y-79805000D01*
X365474286Y-79805000D02*
X365617143Y-79519285D01*
X365617143Y-79519285D02*
X365617143Y-79376428D01*
X365617143Y-79376428D02*
X365474286Y-79090714D01*
X365474286Y-79090714D02*
X365188572Y-78947857D01*
X365188572Y-78947857D02*
X364760001Y-78947857D01*
X364760001Y-78947857D02*
X364474286Y-78805000D01*
X364474286Y-78805000D02*
X364331429Y-78519285D01*
X364331429Y-78519285D02*
X364331429Y-78376428D01*
X364331429Y-78376428D02*
X364474286Y-78090714D01*
X364474286Y-78090714D02*
X364760001Y-77947857D01*
X364760001Y-77947857D02*
X365188572Y-77947857D01*
X365188572Y-77947857D02*
X365474286Y-78090714D01*
D10*
X316382856Y-72163928D02*
X316382856Y-70663928D01*
X316382856Y-70663928D02*
X317239999Y-72163928D01*
X317239999Y-72163928D02*
X317239999Y-70663928D01*
X318597143Y-71163928D02*
X318597143Y-72163928D01*
X317954285Y-71163928D02*
X317954285Y-71949642D01*
X317954285Y-71949642D02*
X318025714Y-72092500D01*
X318025714Y-72092500D02*
X318168571Y-72163928D01*
X318168571Y-72163928D02*
X318382857Y-72163928D01*
X318382857Y-72163928D02*
X318525714Y-72092500D01*
X318525714Y-72092500D02*
X318597143Y-72021071D01*
X319311428Y-72163928D02*
X319311428Y-71163928D01*
X319311428Y-71306785D02*
X319382857Y-71235357D01*
X319382857Y-71235357D02*
X319525714Y-71163928D01*
X319525714Y-71163928D02*
X319740000Y-71163928D01*
X319740000Y-71163928D02*
X319882857Y-71235357D01*
X319882857Y-71235357D02*
X319954286Y-71378214D01*
X319954286Y-71378214D02*
X319954286Y-72163928D01*
X319954286Y-71378214D02*
X320025714Y-71235357D01*
X320025714Y-71235357D02*
X320168571Y-71163928D01*
X320168571Y-71163928D02*
X320382857Y-71163928D01*
X320382857Y-71163928D02*
X320525714Y-71235357D01*
X320525714Y-71235357D02*
X320597143Y-71378214D01*
X320597143Y-71378214D02*
X320597143Y-72163928D01*
X347289999Y-76141071D02*
X347218571Y-76212500D01*
X347218571Y-76212500D02*
X347004285Y-76283928D01*
X347004285Y-76283928D02*
X346861428Y-76283928D01*
X346861428Y-76283928D02*
X346647142Y-76212500D01*
X346647142Y-76212500D02*
X346504285Y-76069642D01*
X346504285Y-76069642D02*
X346432856Y-75926785D01*
X346432856Y-75926785D02*
X346361428Y-75641071D01*
X346361428Y-75641071D02*
X346361428Y-75426785D01*
X346361428Y-75426785D02*
X346432856Y-75141071D01*
X346432856Y-75141071D02*
X346504285Y-74998214D01*
X346504285Y-74998214D02*
X346647142Y-74855357D01*
X346647142Y-74855357D02*
X346861428Y-74783928D01*
X346861428Y-74783928D02*
X347004285Y-74783928D01*
X347004285Y-74783928D02*
X347218571Y-74855357D01*
X347218571Y-74855357D02*
X347289999Y-74926785D01*
X348575714Y-76283928D02*
X348575714Y-75498214D01*
X348575714Y-75498214D02*
X348504285Y-75355357D01*
X348504285Y-75355357D02*
X348361428Y-75283928D01*
X348361428Y-75283928D02*
X348075714Y-75283928D01*
X348075714Y-75283928D02*
X347932856Y-75355357D01*
X348575714Y-76212500D02*
X348432856Y-76283928D01*
X348432856Y-76283928D02*
X348075714Y-76283928D01*
X348075714Y-76283928D02*
X347932856Y-76212500D01*
X347932856Y-76212500D02*
X347861428Y-76069642D01*
X347861428Y-76069642D02*
X347861428Y-75926785D01*
X347861428Y-75926785D02*
X347932856Y-75783928D01*
X347932856Y-75783928D02*
X348075714Y-75712500D01*
X348075714Y-75712500D02*
X348432856Y-75712500D01*
X348432856Y-75712500D02*
X348575714Y-75641071D01*
X349289999Y-75283928D02*
X349289999Y-76783928D01*
X349289999Y-75355357D02*
X349432857Y-75283928D01*
X349432857Y-75283928D02*
X349718571Y-75283928D01*
X349718571Y-75283928D02*
X349861428Y-75355357D01*
X349861428Y-75355357D02*
X349932857Y-75426785D01*
X349932857Y-75426785D02*
X350004285Y-75569642D01*
X350004285Y-75569642D02*
X350004285Y-75998214D01*
X350004285Y-75998214D02*
X349932857Y-76141071D01*
X349932857Y-76141071D02*
X349861428Y-76212500D01*
X349861428Y-76212500D02*
X349718571Y-76283928D01*
X349718571Y-76283928D02*
X349432857Y-76283928D01*
X349432857Y-76283928D02*
X349289999Y-76212500D01*
X350575714Y-76212500D02*
X350718571Y-76283928D01*
X350718571Y-76283928D02*
X351004285Y-76283928D01*
X351004285Y-76283928D02*
X351147142Y-76212500D01*
X351147142Y-76212500D02*
X351218571Y-76069642D01*
X351218571Y-76069642D02*
X351218571Y-75998214D01*
X351218571Y-75998214D02*
X351147142Y-75855357D01*
X351147142Y-75855357D02*
X351004285Y-75783928D01*
X351004285Y-75783928D02*
X350790000Y-75783928D01*
X350790000Y-75783928D02*
X350647142Y-75712500D01*
X350647142Y-75712500D02*
X350575714Y-75569642D01*
X350575714Y-75569642D02*
X350575714Y-75498214D01*
X350575714Y-75498214D02*
X350647142Y-75355357D01*
X350647142Y-75355357D02*
X350790000Y-75283928D01*
X350790000Y-75283928D02*
X351004285Y-75283928D01*
X351004285Y-75283928D02*
X351147142Y-75355357D01*
X364231429Y-73312500D02*
X364445715Y-73383928D01*
X364445715Y-73383928D02*
X364802857Y-73383928D01*
X364802857Y-73383928D02*
X364945715Y-73312500D01*
X364945715Y-73312500D02*
X365017143Y-73241071D01*
X365017143Y-73241071D02*
X365088572Y-73098214D01*
X365088572Y-73098214D02*
X365088572Y-72955357D01*
X365088572Y-72955357D02*
X365017143Y-72812500D01*
X365017143Y-72812500D02*
X364945715Y-72741071D01*
X364945715Y-72741071D02*
X364802857Y-72669642D01*
X364802857Y-72669642D02*
X364517143Y-72598214D01*
X364517143Y-72598214D02*
X364374286Y-72526785D01*
X364374286Y-72526785D02*
X364302857Y-72455357D01*
X364302857Y-72455357D02*
X364231429Y-72312500D01*
X364231429Y-72312500D02*
X364231429Y-72169642D01*
X364231429Y-72169642D02*
X364302857Y-72026785D01*
X364302857Y-72026785D02*
X364374286Y-71955357D01*
X364374286Y-71955357D02*
X364517143Y-71883928D01*
X364517143Y-71883928D02*
X364874286Y-71883928D01*
X364874286Y-71883928D02*
X365088572Y-71955357D01*
X366374286Y-73312500D02*
X366231428Y-73383928D01*
X366231428Y-73383928D02*
X365945714Y-73383928D01*
X365945714Y-73383928D02*
X365802857Y-73312500D01*
X365802857Y-73312500D02*
X365731428Y-73241071D01*
X365731428Y-73241071D02*
X365660000Y-73098214D01*
X365660000Y-73098214D02*
X365660000Y-72669642D01*
X365660000Y-72669642D02*
X365731428Y-72526785D01*
X365731428Y-72526785D02*
X365802857Y-72455357D01*
X365802857Y-72455357D02*
X365945714Y-72383928D01*
X365945714Y-72383928D02*
X366231428Y-72383928D01*
X366231428Y-72383928D02*
X366374286Y-72455357D01*
X367017142Y-73383928D02*
X367017142Y-72383928D01*
X367017142Y-72669642D02*
X367088571Y-72526785D01*
X367088571Y-72526785D02*
X367160000Y-72455357D01*
X367160000Y-72455357D02*
X367302857Y-72383928D01*
X367302857Y-72383928D02*
X367445714Y-72383928D01*
X368159999Y-73383928D02*
X368017142Y-73312500D01*
X368017142Y-73312500D02*
X367945713Y-73169642D01*
X367945713Y-73169642D02*
X367945713Y-71883928D01*
X175144960Y-164179955D02*
X174859245Y-164179955D01*
X174859245Y-164179955D02*
X174716388Y-164251384D01*
X174716388Y-164251384D02*
X174644960Y-164322812D01*
X174644960Y-164322812D02*
X174502102Y-164537098D01*
X174502102Y-164537098D02*
X174430674Y-164822812D01*
X174430674Y-164822812D02*
X174430674Y-165394241D01*
X174430674Y-165394241D02*
X174502102Y-165537098D01*
X174502102Y-165537098D02*
X174573531Y-165608527D01*
X174573531Y-165608527D02*
X174716388Y-165679955D01*
X174716388Y-165679955D02*
X175002102Y-165679955D01*
X175002102Y-165679955D02*
X175144960Y-165608527D01*
X175144960Y-165608527D02*
X175216388Y-165537098D01*
X175216388Y-165537098D02*
X175287817Y-165394241D01*
X175287817Y-165394241D02*
X175287817Y-165037098D01*
X175287817Y-165037098D02*
X175216388Y-164894241D01*
X175216388Y-164894241D02*
X175144960Y-164822812D01*
X175144960Y-164822812D02*
X175002102Y-164751384D01*
X175002102Y-164751384D02*
X174716388Y-164751384D01*
X174716388Y-164751384D02*
X174573531Y-164822812D01*
X174573531Y-164822812D02*
X174502102Y-164894241D01*
X174502102Y-164894241D02*
X174430674Y-165037098D01*
X175930673Y-165537098D02*
X176002102Y-165608527D01*
X176002102Y-165608527D02*
X175930673Y-165679955D01*
X175930673Y-165679955D02*
X175859245Y-165608527D01*
X175859245Y-165608527D02*
X175930673Y-165537098D01*
X175930673Y-165537098D02*
X175930673Y-165679955D01*
X176573531Y-164322812D02*
X176644959Y-164251384D01*
X176644959Y-164251384D02*
X176787817Y-164179955D01*
X176787817Y-164179955D02*
X177144959Y-164179955D01*
X177144959Y-164179955D02*
X177287817Y-164251384D01*
X177287817Y-164251384D02*
X177359245Y-164322812D01*
X177359245Y-164322812D02*
X177430674Y-164465669D01*
X177430674Y-164465669D02*
X177430674Y-164608527D01*
X177430674Y-164608527D02*
X177359245Y-164822812D01*
X177359245Y-164822812D02*
X176502102Y-165679955D01*
X176502102Y-165679955D02*
X177430674Y-165679955D01*
X178787816Y-164179955D02*
X178073530Y-164179955D01*
X178073530Y-164179955D02*
X178002102Y-164894241D01*
X178002102Y-164894241D02*
X178073530Y-164822812D01*
X178073530Y-164822812D02*
X178216388Y-164751384D01*
X178216388Y-164751384D02*
X178573530Y-164751384D01*
X178573530Y-164751384D02*
X178716388Y-164822812D01*
X178716388Y-164822812D02*
X178787816Y-164894241D01*
X178787816Y-164894241D02*
X178859245Y-165037098D01*
X178859245Y-165037098D02*
X178859245Y-165394241D01*
X178859245Y-165394241D02*
X178787816Y-165537098D01*
X178787816Y-165537098D02*
X178716388Y-165608527D01*
X178716388Y-165608527D02*
X178573530Y-165679955D01*
X178573530Y-165679955D02*
X178216388Y-165679955D01*
X178216388Y-165679955D02*
X178073530Y-165608527D01*
X178073530Y-165608527D02*
X178002102Y-165537098D01*
X180144959Y-164679955D02*
X180144959Y-165679955D01*
X179502101Y-164679955D02*
X179502101Y-165465669D01*
X179502101Y-165465669D02*
X179573530Y-165608527D01*
X179573530Y-165608527D02*
X179716387Y-165679955D01*
X179716387Y-165679955D02*
X179930673Y-165679955D01*
X179930673Y-165679955D02*
X180073530Y-165608527D01*
X180073530Y-165608527D02*
X180144959Y-165537098D01*
X335198571Y-69512500D02*
X336341429Y-69512500D01*
X335770000Y-70083928D02*
X335770000Y-68941071D01*
X163119727Y-163321159D02*
X163191155Y-163249731D01*
X163191155Y-163249731D02*
X163334013Y-163178302D01*
X163334013Y-163178302D02*
X163691155Y-163178302D01*
X163691155Y-163178302D02*
X163834013Y-163249731D01*
X163834013Y-163249731D02*
X163905441Y-163321159D01*
X163905441Y-163321159D02*
X163976870Y-163464016D01*
X163976870Y-163464016D02*
X163976870Y-163606874D01*
X163976870Y-163606874D02*
X163905441Y-163821159D01*
X163905441Y-163821159D02*
X163048298Y-164678302D01*
X163048298Y-164678302D02*
X163976870Y-164678302D01*
X164619726Y-164535445D02*
X164691155Y-164606874D01*
X164691155Y-164606874D02*
X164619726Y-164678302D01*
X164619726Y-164678302D02*
X164548298Y-164606874D01*
X164548298Y-164606874D02*
X164619726Y-164535445D01*
X164619726Y-164535445D02*
X164619726Y-164678302D01*
X165191155Y-163178302D02*
X166191155Y-163178302D01*
X166191155Y-163178302D02*
X165548298Y-164678302D01*
X167476869Y-163178302D02*
X166762583Y-163178302D01*
X166762583Y-163178302D02*
X166691155Y-163892588D01*
X166691155Y-163892588D02*
X166762583Y-163821159D01*
X166762583Y-163821159D02*
X166905441Y-163749731D01*
X166905441Y-163749731D02*
X167262583Y-163749731D01*
X167262583Y-163749731D02*
X167405441Y-163821159D01*
X167405441Y-163821159D02*
X167476869Y-163892588D01*
X167476869Y-163892588D02*
X167548298Y-164035445D01*
X167548298Y-164035445D02*
X167548298Y-164392588D01*
X167548298Y-164392588D02*
X167476869Y-164535445D01*
X167476869Y-164535445D02*
X167405441Y-164606874D01*
X167405441Y-164606874D02*
X167262583Y-164678302D01*
X167262583Y-164678302D02*
X166905441Y-164678302D01*
X166905441Y-164678302D02*
X166762583Y-164606874D01*
X166762583Y-164606874D02*
X166691155Y-164535445D01*
X168834012Y-163678302D02*
X168834012Y-164678302D01*
X168191154Y-163678302D02*
X168191154Y-164464016D01*
X168191154Y-164464016D02*
X168262583Y-164606874D01*
X168262583Y-164606874D02*
X168405440Y-164678302D01*
X168405440Y-164678302D02*
X168619726Y-164678302D01*
X168619726Y-164678302D02*
X168762583Y-164606874D01*
X168762583Y-164606874D02*
X168834012Y-164535445D01*
X210707143Y-163261785D02*
X210778571Y-163190357D01*
X210778571Y-163190357D02*
X210921429Y-163118928D01*
X210921429Y-163118928D02*
X211278571Y-163118928D01*
X211278571Y-163118928D02*
X211421429Y-163190357D01*
X211421429Y-163190357D02*
X211492857Y-163261785D01*
X211492857Y-163261785D02*
X211564286Y-163404642D01*
X211564286Y-163404642D02*
X211564286Y-163547500D01*
X211564286Y-163547500D02*
X211492857Y-163761785D01*
X211492857Y-163761785D02*
X210635714Y-164618928D01*
X210635714Y-164618928D02*
X211564286Y-164618928D01*
X212207142Y-164476071D02*
X212278571Y-164547500D01*
X212278571Y-164547500D02*
X212207142Y-164618928D01*
X212207142Y-164618928D02*
X212135714Y-164547500D01*
X212135714Y-164547500D02*
X212207142Y-164476071D01*
X212207142Y-164476071D02*
X212207142Y-164618928D01*
X212850000Y-163261785D02*
X212921428Y-163190357D01*
X212921428Y-163190357D02*
X213064286Y-163118928D01*
X213064286Y-163118928D02*
X213421428Y-163118928D01*
X213421428Y-163118928D02*
X213564286Y-163190357D01*
X213564286Y-163190357D02*
X213635714Y-163261785D01*
X213635714Y-163261785D02*
X213707143Y-163404642D01*
X213707143Y-163404642D02*
X213707143Y-163547500D01*
X213707143Y-163547500D02*
X213635714Y-163761785D01*
X213635714Y-163761785D02*
X212778571Y-164618928D01*
X212778571Y-164618928D02*
X213707143Y-164618928D01*
X215064285Y-163118928D02*
X214349999Y-163118928D01*
X214349999Y-163118928D02*
X214278571Y-163833214D01*
X214278571Y-163833214D02*
X214349999Y-163761785D01*
X214349999Y-163761785D02*
X214492857Y-163690357D01*
X214492857Y-163690357D02*
X214849999Y-163690357D01*
X214849999Y-163690357D02*
X214992857Y-163761785D01*
X214992857Y-163761785D02*
X215064285Y-163833214D01*
X215064285Y-163833214D02*
X215135714Y-163976071D01*
X215135714Y-163976071D02*
X215135714Y-164333214D01*
X215135714Y-164333214D02*
X215064285Y-164476071D01*
X215064285Y-164476071D02*
X214992857Y-164547500D01*
X214992857Y-164547500D02*
X214849999Y-164618928D01*
X214849999Y-164618928D02*
X214492857Y-164618928D01*
X214492857Y-164618928D02*
X214349999Y-164547500D01*
X214349999Y-164547500D02*
X214278571Y-164476071D01*
X216421428Y-163618928D02*
X216421428Y-164618928D01*
X215778570Y-163618928D02*
X215778570Y-164404642D01*
X215778570Y-164404642D02*
X215849999Y-164547500D01*
X215849999Y-164547500D02*
X215992856Y-164618928D01*
X215992856Y-164618928D02*
X216207142Y-164618928D01*
X216207142Y-164618928D02*
X216349999Y-164547500D01*
X216349999Y-164547500D02*
X216421428Y-164476071D01*
X235321429Y-161903928D02*
X235035714Y-161903928D01*
X235035714Y-161903928D02*
X234892857Y-161975357D01*
X234892857Y-161975357D02*
X234821429Y-162046785D01*
X234821429Y-162046785D02*
X234678571Y-162261071D01*
X234678571Y-162261071D02*
X234607143Y-162546785D01*
X234607143Y-162546785D02*
X234607143Y-163118214D01*
X234607143Y-163118214D02*
X234678571Y-163261071D01*
X234678571Y-163261071D02*
X234750000Y-163332500D01*
X234750000Y-163332500D02*
X234892857Y-163403928D01*
X234892857Y-163403928D02*
X235178571Y-163403928D01*
X235178571Y-163403928D02*
X235321429Y-163332500D01*
X235321429Y-163332500D02*
X235392857Y-163261071D01*
X235392857Y-163261071D02*
X235464286Y-163118214D01*
X235464286Y-163118214D02*
X235464286Y-162761071D01*
X235464286Y-162761071D02*
X235392857Y-162618214D01*
X235392857Y-162618214D02*
X235321429Y-162546785D01*
X235321429Y-162546785D02*
X235178571Y-162475357D01*
X235178571Y-162475357D02*
X234892857Y-162475357D01*
X234892857Y-162475357D02*
X234750000Y-162546785D01*
X234750000Y-162546785D02*
X234678571Y-162618214D01*
X234678571Y-162618214D02*
X234607143Y-162761071D01*
X236107142Y-163261071D02*
X236178571Y-163332500D01*
X236178571Y-163332500D02*
X236107142Y-163403928D01*
X236107142Y-163403928D02*
X236035714Y-163332500D01*
X236035714Y-163332500D02*
X236107142Y-163261071D01*
X236107142Y-163261071D02*
X236107142Y-163403928D01*
X236750000Y-162046785D02*
X236821428Y-161975357D01*
X236821428Y-161975357D02*
X236964286Y-161903928D01*
X236964286Y-161903928D02*
X237321428Y-161903928D01*
X237321428Y-161903928D02*
X237464286Y-161975357D01*
X237464286Y-161975357D02*
X237535714Y-162046785D01*
X237535714Y-162046785D02*
X237607143Y-162189642D01*
X237607143Y-162189642D02*
X237607143Y-162332500D01*
X237607143Y-162332500D02*
X237535714Y-162546785D01*
X237535714Y-162546785D02*
X236678571Y-163403928D01*
X236678571Y-163403928D02*
X237607143Y-163403928D01*
X238964285Y-161903928D02*
X238249999Y-161903928D01*
X238249999Y-161903928D02*
X238178571Y-162618214D01*
X238178571Y-162618214D02*
X238249999Y-162546785D01*
X238249999Y-162546785D02*
X238392857Y-162475357D01*
X238392857Y-162475357D02*
X238749999Y-162475357D01*
X238749999Y-162475357D02*
X238892857Y-162546785D01*
X238892857Y-162546785D02*
X238964285Y-162618214D01*
X238964285Y-162618214D02*
X239035714Y-162761071D01*
X239035714Y-162761071D02*
X239035714Y-163118214D01*
X239035714Y-163118214D02*
X238964285Y-163261071D01*
X238964285Y-163261071D02*
X238892857Y-163332500D01*
X238892857Y-163332500D02*
X238749999Y-163403928D01*
X238749999Y-163403928D02*
X238392857Y-163403928D01*
X238392857Y-163403928D02*
X238249999Y-163332500D01*
X238249999Y-163332500D02*
X238178571Y-163261071D01*
X240321428Y-162403928D02*
X240321428Y-163403928D01*
X239678570Y-162403928D02*
X239678570Y-163189642D01*
X239678570Y-163189642D02*
X239749999Y-163332500D01*
X239749999Y-163332500D02*
X239892856Y-163403928D01*
X239892856Y-163403928D02*
X240107142Y-163403928D01*
X240107142Y-163403928D02*
X240249999Y-163332500D01*
X240249999Y-163332500D02*
X240321428Y-163261071D01*
X234607143Y-164476785D02*
X234678571Y-164405357D01*
X234678571Y-164405357D02*
X234821429Y-164333928D01*
X234821429Y-164333928D02*
X235178571Y-164333928D01*
X235178571Y-164333928D02*
X235321429Y-164405357D01*
X235321429Y-164405357D02*
X235392857Y-164476785D01*
X235392857Y-164476785D02*
X235464286Y-164619642D01*
X235464286Y-164619642D02*
X235464286Y-164762500D01*
X235464286Y-164762500D02*
X235392857Y-164976785D01*
X235392857Y-164976785D02*
X234535714Y-165833928D01*
X234535714Y-165833928D02*
X235464286Y-165833928D01*
X236107142Y-165691071D02*
X236178571Y-165762500D01*
X236178571Y-165762500D02*
X236107142Y-165833928D01*
X236107142Y-165833928D02*
X236035714Y-165762500D01*
X236035714Y-165762500D02*
X236107142Y-165691071D01*
X236107142Y-165691071D02*
X236107142Y-165833928D01*
X236750000Y-164476785D02*
X236821428Y-164405357D01*
X236821428Y-164405357D02*
X236964286Y-164333928D01*
X236964286Y-164333928D02*
X237321428Y-164333928D01*
X237321428Y-164333928D02*
X237464286Y-164405357D01*
X237464286Y-164405357D02*
X237535714Y-164476785D01*
X237535714Y-164476785D02*
X237607143Y-164619642D01*
X237607143Y-164619642D02*
X237607143Y-164762500D01*
X237607143Y-164762500D02*
X237535714Y-164976785D01*
X237535714Y-164976785D02*
X236678571Y-165833928D01*
X236678571Y-165833928D02*
X237607143Y-165833928D01*
X238964285Y-164333928D02*
X238249999Y-164333928D01*
X238249999Y-164333928D02*
X238178571Y-165048214D01*
X238178571Y-165048214D02*
X238249999Y-164976785D01*
X238249999Y-164976785D02*
X238392857Y-164905357D01*
X238392857Y-164905357D02*
X238749999Y-164905357D01*
X238749999Y-164905357D02*
X238892857Y-164976785D01*
X238892857Y-164976785D02*
X238964285Y-165048214D01*
X238964285Y-165048214D02*
X239035714Y-165191071D01*
X239035714Y-165191071D02*
X239035714Y-165548214D01*
X239035714Y-165548214D02*
X238964285Y-165691071D01*
X238964285Y-165691071D02*
X238892857Y-165762500D01*
X238892857Y-165762500D02*
X238749999Y-165833928D01*
X238749999Y-165833928D02*
X238392857Y-165833928D01*
X238392857Y-165833928D02*
X238249999Y-165762500D01*
X238249999Y-165762500D02*
X238178571Y-165691071D01*
X240321428Y-164833928D02*
X240321428Y-165833928D01*
X239678570Y-164833928D02*
X239678570Y-165619642D01*
X239678570Y-165619642D02*
X239749999Y-165762500D01*
X239749999Y-165762500D02*
X239892856Y-165833928D01*
X239892856Y-165833928D02*
X240107142Y-165833928D01*
X240107142Y-165833928D02*
X240249999Y-165762500D01*
X240249999Y-165762500D02*
X240321428Y-165691071D01*
D13*
X284390476Y-150330000D02*
X284533333Y-150377619D01*
X284533333Y-150377619D02*
X284771428Y-150377619D01*
X284771428Y-150377619D02*
X284866666Y-150330000D01*
X284866666Y-150330000D02*
X284914285Y-150282380D01*
X284914285Y-150282380D02*
X284961904Y-150187142D01*
X284961904Y-150187142D02*
X284961904Y-150091904D01*
X284961904Y-150091904D02*
X284914285Y-149996666D01*
X284914285Y-149996666D02*
X284866666Y-149949047D01*
X284866666Y-149949047D02*
X284771428Y-149901428D01*
X284771428Y-149901428D02*
X284580952Y-149853809D01*
X284580952Y-149853809D02*
X284485714Y-149806190D01*
X284485714Y-149806190D02*
X284438095Y-149758571D01*
X284438095Y-149758571D02*
X284390476Y-149663333D01*
X284390476Y-149663333D02*
X284390476Y-149568095D01*
X284390476Y-149568095D02*
X284438095Y-149472857D01*
X284438095Y-149472857D02*
X284485714Y-149425238D01*
X284485714Y-149425238D02*
X284580952Y-149377619D01*
X284580952Y-149377619D02*
X284819047Y-149377619D01*
X284819047Y-149377619D02*
X284961904Y-149425238D01*
X285390476Y-150377619D02*
X285390476Y-149377619D01*
X285819047Y-150377619D02*
X285819047Y-149853809D01*
X285819047Y-149853809D02*
X285771428Y-149758571D01*
X285771428Y-149758571D02*
X285676190Y-149710952D01*
X285676190Y-149710952D02*
X285533333Y-149710952D01*
X285533333Y-149710952D02*
X285438095Y-149758571D01*
X285438095Y-149758571D02*
X285390476Y-149806190D01*
X286438095Y-150377619D02*
X286342857Y-150330000D01*
X286342857Y-150330000D02*
X286295238Y-150282380D01*
X286295238Y-150282380D02*
X286247619Y-150187142D01*
X286247619Y-150187142D02*
X286247619Y-149901428D01*
X286247619Y-149901428D02*
X286295238Y-149806190D01*
X286295238Y-149806190D02*
X286342857Y-149758571D01*
X286342857Y-149758571D02*
X286438095Y-149710952D01*
X286438095Y-149710952D02*
X286580952Y-149710952D01*
X286580952Y-149710952D02*
X286676190Y-149758571D01*
X286676190Y-149758571D02*
X286723809Y-149806190D01*
X286723809Y-149806190D02*
X286771428Y-149901428D01*
X286771428Y-149901428D02*
X286771428Y-150187142D01*
X286771428Y-150187142D02*
X286723809Y-150282380D01*
X286723809Y-150282380D02*
X286676190Y-150330000D01*
X286676190Y-150330000D02*
X286580952Y-150377619D01*
X286580952Y-150377619D02*
X286438095Y-150377619D01*
X287200000Y-150377619D02*
X287200000Y-149710952D01*
X287200000Y-149901428D02*
X287247619Y-149806190D01*
X287247619Y-149806190D02*
X287295238Y-149758571D01*
X287295238Y-149758571D02*
X287390476Y-149710952D01*
X287390476Y-149710952D02*
X287485714Y-149710952D01*
X287676191Y-149710952D02*
X288057143Y-149710952D01*
X287819048Y-149377619D02*
X287819048Y-150234761D01*
X287819048Y-150234761D02*
X287866667Y-150330000D01*
X287866667Y-150330000D02*
X287961905Y-150377619D01*
X287961905Y-150377619D02*
X288057143Y-150377619D01*
X289152382Y-149710952D02*
X289152382Y-150710952D01*
X289152382Y-149758571D02*
X289247620Y-149710952D01*
X289247620Y-149710952D02*
X289438096Y-149710952D01*
X289438096Y-149710952D02*
X289533334Y-149758571D01*
X289533334Y-149758571D02*
X289580953Y-149806190D01*
X289580953Y-149806190D02*
X289628572Y-149901428D01*
X289628572Y-149901428D02*
X289628572Y-150187142D01*
X289628572Y-150187142D02*
X289580953Y-150282380D01*
X289580953Y-150282380D02*
X289533334Y-150330000D01*
X289533334Y-150330000D02*
X289438096Y-150377619D01*
X289438096Y-150377619D02*
X289247620Y-150377619D01*
X289247620Y-150377619D02*
X289152382Y-150330000D01*
X290057144Y-150377619D02*
X290057144Y-149710952D01*
X290057144Y-149901428D02*
X290104763Y-149806190D01*
X290104763Y-149806190D02*
X290152382Y-149758571D01*
X290152382Y-149758571D02*
X290247620Y-149710952D01*
X290247620Y-149710952D02*
X290342858Y-149710952D01*
X291057144Y-150330000D02*
X290961906Y-150377619D01*
X290961906Y-150377619D02*
X290771430Y-150377619D01*
X290771430Y-150377619D02*
X290676192Y-150330000D01*
X290676192Y-150330000D02*
X290628573Y-150234761D01*
X290628573Y-150234761D02*
X290628573Y-149853809D01*
X290628573Y-149853809D02*
X290676192Y-149758571D01*
X290676192Y-149758571D02*
X290771430Y-149710952D01*
X290771430Y-149710952D02*
X290961906Y-149710952D01*
X290961906Y-149710952D02*
X291057144Y-149758571D01*
X291057144Y-149758571D02*
X291104763Y-149853809D01*
X291104763Y-149853809D02*
X291104763Y-149949047D01*
X291104763Y-149949047D02*
X290628573Y-150044285D01*
X291485716Y-150330000D02*
X291580954Y-150377619D01*
X291580954Y-150377619D02*
X291771430Y-150377619D01*
X291771430Y-150377619D02*
X291866668Y-150330000D01*
X291866668Y-150330000D02*
X291914287Y-150234761D01*
X291914287Y-150234761D02*
X291914287Y-150187142D01*
X291914287Y-150187142D02*
X291866668Y-150091904D01*
X291866668Y-150091904D02*
X291771430Y-150044285D01*
X291771430Y-150044285D02*
X291628573Y-150044285D01*
X291628573Y-150044285D02*
X291533335Y-149996666D01*
X291533335Y-149996666D02*
X291485716Y-149901428D01*
X291485716Y-149901428D02*
X291485716Y-149853809D01*
X291485716Y-149853809D02*
X291533335Y-149758571D01*
X291533335Y-149758571D02*
X291628573Y-149710952D01*
X291628573Y-149710952D02*
X291771430Y-149710952D01*
X291771430Y-149710952D02*
X291866668Y-149758571D01*
X292295240Y-150330000D02*
X292390478Y-150377619D01*
X292390478Y-150377619D02*
X292580954Y-150377619D01*
X292580954Y-150377619D02*
X292676192Y-150330000D01*
X292676192Y-150330000D02*
X292723811Y-150234761D01*
X292723811Y-150234761D02*
X292723811Y-150187142D01*
X292723811Y-150187142D02*
X292676192Y-150091904D01*
X292676192Y-150091904D02*
X292580954Y-150044285D01*
X292580954Y-150044285D02*
X292438097Y-150044285D01*
X292438097Y-150044285D02*
X292342859Y-149996666D01*
X292342859Y-149996666D02*
X292295240Y-149901428D01*
X292295240Y-149901428D02*
X292295240Y-149853809D01*
X292295240Y-149853809D02*
X292342859Y-149758571D01*
X292342859Y-149758571D02*
X292438097Y-149710952D01*
X292438097Y-149710952D02*
X292580954Y-149710952D01*
X292580954Y-149710952D02*
X292676192Y-149758571D01*
X293771431Y-149710952D02*
X294152383Y-149710952D01*
X293914288Y-150377619D02*
X293914288Y-149520476D01*
X293914288Y-149520476D02*
X293961907Y-149425238D01*
X293961907Y-149425238D02*
X294057145Y-149377619D01*
X294057145Y-149377619D02*
X294152383Y-149377619D01*
X294628574Y-150377619D02*
X294533336Y-150330000D01*
X294533336Y-150330000D02*
X294485717Y-150282380D01*
X294485717Y-150282380D02*
X294438098Y-150187142D01*
X294438098Y-150187142D02*
X294438098Y-149901428D01*
X294438098Y-149901428D02*
X294485717Y-149806190D01*
X294485717Y-149806190D02*
X294533336Y-149758571D01*
X294533336Y-149758571D02*
X294628574Y-149710952D01*
X294628574Y-149710952D02*
X294771431Y-149710952D01*
X294771431Y-149710952D02*
X294866669Y-149758571D01*
X294866669Y-149758571D02*
X294914288Y-149806190D01*
X294914288Y-149806190D02*
X294961907Y-149901428D01*
X294961907Y-149901428D02*
X294961907Y-150187142D01*
X294961907Y-150187142D02*
X294914288Y-150282380D01*
X294914288Y-150282380D02*
X294866669Y-150330000D01*
X294866669Y-150330000D02*
X294771431Y-150377619D01*
X294771431Y-150377619D02*
X294628574Y-150377619D01*
X295390479Y-150377619D02*
X295390479Y-149710952D01*
X295390479Y-149901428D02*
X295438098Y-149806190D01*
X295438098Y-149806190D02*
X295485717Y-149758571D01*
X295485717Y-149758571D02*
X295580955Y-149710952D01*
X295580955Y-149710952D02*
X295676193Y-149710952D01*
X296771432Y-150377619D02*
X296771432Y-149710952D01*
X296771432Y-149901428D02*
X296819051Y-149806190D01*
X296819051Y-149806190D02*
X296866670Y-149758571D01*
X296866670Y-149758571D02*
X296961908Y-149710952D01*
X296961908Y-149710952D02*
X297057146Y-149710952D01*
X297771432Y-150330000D02*
X297676194Y-150377619D01*
X297676194Y-150377619D02*
X297485718Y-150377619D01*
X297485718Y-150377619D02*
X297390480Y-150330000D01*
X297390480Y-150330000D02*
X297342861Y-150234761D01*
X297342861Y-150234761D02*
X297342861Y-149853809D01*
X297342861Y-149853809D02*
X297390480Y-149758571D01*
X297390480Y-149758571D02*
X297485718Y-149710952D01*
X297485718Y-149710952D02*
X297676194Y-149710952D01*
X297676194Y-149710952D02*
X297771432Y-149758571D01*
X297771432Y-149758571D02*
X297819051Y-149853809D01*
X297819051Y-149853809D02*
X297819051Y-149949047D01*
X297819051Y-149949047D02*
X297342861Y-150044285D01*
X298200004Y-150330000D02*
X298295242Y-150377619D01*
X298295242Y-150377619D02*
X298485718Y-150377619D01*
X298485718Y-150377619D02*
X298580956Y-150330000D01*
X298580956Y-150330000D02*
X298628575Y-150234761D01*
X298628575Y-150234761D02*
X298628575Y-150187142D01*
X298628575Y-150187142D02*
X298580956Y-150091904D01*
X298580956Y-150091904D02*
X298485718Y-150044285D01*
X298485718Y-150044285D02*
X298342861Y-150044285D01*
X298342861Y-150044285D02*
X298247623Y-149996666D01*
X298247623Y-149996666D02*
X298200004Y-149901428D01*
X298200004Y-149901428D02*
X298200004Y-149853809D01*
X298200004Y-149853809D02*
X298247623Y-149758571D01*
X298247623Y-149758571D02*
X298342861Y-149710952D01*
X298342861Y-149710952D02*
X298485718Y-149710952D01*
X298485718Y-149710952D02*
X298580956Y-149758571D01*
X299438099Y-150330000D02*
X299342861Y-150377619D01*
X299342861Y-150377619D02*
X299152385Y-150377619D01*
X299152385Y-150377619D02*
X299057147Y-150330000D01*
X299057147Y-150330000D02*
X299009528Y-150234761D01*
X299009528Y-150234761D02*
X299009528Y-149853809D01*
X299009528Y-149853809D02*
X299057147Y-149758571D01*
X299057147Y-149758571D02*
X299152385Y-149710952D01*
X299152385Y-149710952D02*
X299342861Y-149710952D01*
X299342861Y-149710952D02*
X299438099Y-149758571D01*
X299438099Y-149758571D02*
X299485718Y-149853809D01*
X299485718Y-149853809D02*
X299485718Y-149949047D01*
X299485718Y-149949047D02*
X299009528Y-150044285D01*
X299771433Y-149710952D02*
X300152385Y-149710952D01*
X299914290Y-149377619D02*
X299914290Y-150234761D01*
X299914290Y-150234761D02*
X299961909Y-150330000D01*
X299961909Y-150330000D02*
X300057147Y-150377619D01*
X300057147Y-150377619D02*
X300152385Y-150377619D01*
X284914285Y-151997619D02*
X284438095Y-151997619D01*
X284438095Y-151997619D02*
X284438095Y-150997619D01*
X285390476Y-151997619D02*
X285295238Y-151950000D01*
X285295238Y-151950000D02*
X285247619Y-151902380D01*
X285247619Y-151902380D02*
X285200000Y-151807142D01*
X285200000Y-151807142D02*
X285200000Y-151521428D01*
X285200000Y-151521428D02*
X285247619Y-151426190D01*
X285247619Y-151426190D02*
X285295238Y-151378571D01*
X285295238Y-151378571D02*
X285390476Y-151330952D01*
X285390476Y-151330952D02*
X285533333Y-151330952D01*
X285533333Y-151330952D02*
X285628571Y-151378571D01*
X285628571Y-151378571D02*
X285676190Y-151426190D01*
X285676190Y-151426190D02*
X285723809Y-151521428D01*
X285723809Y-151521428D02*
X285723809Y-151807142D01*
X285723809Y-151807142D02*
X285676190Y-151902380D01*
X285676190Y-151902380D02*
X285628571Y-151950000D01*
X285628571Y-151950000D02*
X285533333Y-151997619D01*
X285533333Y-151997619D02*
X285390476Y-151997619D01*
X286152381Y-151330952D02*
X286152381Y-151997619D01*
X286152381Y-151426190D02*
X286200000Y-151378571D01*
X286200000Y-151378571D02*
X286295238Y-151330952D01*
X286295238Y-151330952D02*
X286438095Y-151330952D01*
X286438095Y-151330952D02*
X286533333Y-151378571D01*
X286533333Y-151378571D02*
X286580952Y-151473809D01*
X286580952Y-151473809D02*
X286580952Y-151997619D01*
X287485714Y-151330952D02*
X287485714Y-152140476D01*
X287485714Y-152140476D02*
X287438095Y-152235714D01*
X287438095Y-152235714D02*
X287390476Y-152283333D01*
X287390476Y-152283333D02*
X287295238Y-152330952D01*
X287295238Y-152330952D02*
X287152381Y-152330952D01*
X287152381Y-152330952D02*
X287057143Y-152283333D01*
X287485714Y-151950000D02*
X287390476Y-151997619D01*
X287390476Y-151997619D02*
X287200000Y-151997619D01*
X287200000Y-151997619D02*
X287104762Y-151950000D01*
X287104762Y-151950000D02*
X287057143Y-151902380D01*
X287057143Y-151902380D02*
X287009524Y-151807142D01*
X287009524Y-151807142D02*
X287009524Y-151521428D01*
X287009524Y-151521428D02*
X287057143Y-151426190D01*
X287057143Y-151426190D02*
X287104762Y-151378571D01*
X287104762Y-151378571D02*
X287200000Y-151330952D01*
X287200000Y-151330952D02*
X287390476Y-151330952D01*
X287390476Y-151330952D02*
X287485714Y-151378571D01*
X288723810Y-151330952D02*
X288723810Y-152330952D01*
X288723810Y-151378571D02*
X288819048Y-151330952D01*
X288819048Y-151330952D02*
X289009524Y-151330952D01*
X289009524Y-151330952D02*
X289104762Y-151378571D01*
X289104762Y-151378571D02*
X289152381Y-151426190D01*
X289152381Y-151426190D02*
X289200000Y-151521428D01*
X289200000Y-151521428D02*
X289200000Y-151807142D01*
X289200000Y-151807142D02*
X289152381Y-151902380D01*
X289152381Y-151902380D02*
X289104762Y-151950000D01*
X289104762Y-151950000D02*
X289009524Y-151997619D01*
X289009524Y-151997619D02*
X288819048Y-151997619D01*
X288819048Y-151997619D02*
X288723810Y-151950000D01*
X289628572Y-151997619D02*
X289628572Y-151330952D01*
X289628572Y-151521428D02*
X289676191Y-151426190D01*
X289676191Y-151426190D02*
X289723810Y-151378571D01*
X289723810Y-151378571D02*
X289819048Y-151330952D01*
X289819048Y-151330952D02*
X289914286Y-151330952D01*
X290628572Y-151950000D02*
X290533334Y-151997619D01*
X290533334Y-151997619D02*
X290342858Y-151997619D01*
X290342858Y-151997619D02*
X290247620Y-151950000D01*
X290247620Y-151950000D02*
X290200001Y-151854761D01*
X290200001Y-151854761D02*
X290200001Y-151473809D01*
X290200001Y-151473809D02*
X290247620Y-151378571D01*
X290247620Y-151378571D02*
X290342858Y-151330952D01*
X290342858Y-151330952D02*
X290533334Y-151330952D01*
X290533334Y-151330952D02*
X290628572Y-151378571D01*
X290628572Y-151378571D02*
X290676191Y-151473809D01*
X290676191Y-151473809D02*
X290676191Y-151569047D01*
X290676191Y-151569047D02*
X290200001Y-151664285D01*
X291057144Y-151950000D02*
X291152382Y-151997619D01*
X291152382Y-151997619D02*
X291342858Y-151997619D01*
X291342858Y-151997619D02*
X291438096Y-151950000D01*
X291438096Y-151950000D02*
X291485715Y-151854761D01*
X291485715Y-151854761D02*
X291485715Y-151807142D01*
X291485715Y-151807142D02*
X291438096Y-151711904D01*
X291438096Y-151711904D02*
X291342858Y-151664285D01*
X291342858Y-151664285D02*
X291200001Y-151664285D01*
X291200001Y-151664285D02*
X291104763Y-151616666D01*
X291104763Y-151616666D02*
X291057144Y-151521428D01*
X291057144Y-151521428D02*
X291057144Y-151473809D01*
X291057144Y-151473809D02*
X291104763Y-151378571D01*
X291104763Y-151378571D02*
X291200001Y-151330952D01*
X291200001Y-151330952D02*
X291342858Y-151330952D01*
X291342858Y-151330952D02*
X291438096Y-151378571D01*
X291866668Y-151950000D02*
X291961906Y-151997619D01*
X291961906Y-151997619D02*
X292152382Y-151997619D01*
X292152382Y-151997619D02*
X292247620Y-151950000D01*
X292247620Y-151950000D02*
X292295239Y-151854761D01*
X292295239Y-151854761D02*
X292295239Y-151807142D01*
X292295239Y-151807142D02*
X292247620Y-151711904D01*
X292247620Y-151711904D02*
X292152382Y-151664285D01*
X292152382Y-151664285D02*
X292009525Y-151664285D01*
X292009525Y-151664285D02*
X291914287Y-151616666D01*
X291914287Y-151616666D02*
X291866668Y-151521428D01*
X291866668Y-151521428D02*
X291866668Y-151473809D01*
X291866668Y-151473809D02*
X291914287Y-151378571D01*
X291914287Y-151378571D02*
X292009525Y-151330952D01*
X292009525Y-151330952D02*
X292152382Y-151330952D01*
X292152382Y-151330952D02*
X292247620Y-151378571D01*
X293342859Y-151330952D02*
X293723811Y-151330952D01*
X293485716Y-151997619D02*
X293485716Y-151140476D01*
X293485716Y-151140476D02*
X293533335Y-151045238D01*
X293533335Y-151045238D02*
X293628573Y-150997619D01*
X293628573Y-150997619D02*
X293723811Y-150997619D01*
X294200002Y-151997619D02*
X294104764Y-151950000D01*
X294104764Y-151950000D02*
X294057145Y-151902380D01*
X294057145Y-151902380D02*
X294009526Y-151807142D01*
X294009526Y-151807142D02*
X294009526Y-151521428D01*
X294009526Y-151521428D02*
X294057145Y-151426190D01*
X294057145Y-151426190D02*
X294104764Y-151378571D01*
X294104764Y-151378571D02*
X294200002Y-151330952D01*
X294200002Y-151330952D02*
X294342859Y-151330952D01*
X294342859Y-151330952D02*
X294438097Y-151378571D01*
X294438097Y-151378571D02*
X294485716Y-151426190D01*
X294485716Y-151426190D02*
X294533335Y-151521428D01*
X294533335Y-151521428D02*
X294533335Y-151807142D01*
X294533335Y-151807142D02*
X294485716Y-151902380D01*
X294485716Y-151902380D02*
X294438097Y-151950000D01*
X294438097Y-151950000D02*
X294342859Y-151997619D01*
X294342859Y-151997619D02*
X294200002Y-151997619D01*
X294961907Y-151997619D02*
X294961907Y-151330952D01*
X294961907Y-151521428D02*
X295009526Y-151426190D01*
X295009526Y-151426190D02*
X295057145Y-151378571D01*
X295057145Y-151378571D02*
X295152383Y-151330952D01*
X295152383Y-151330952D02*
X295247621Y-151330952D01*
X296342860Y-151997619D02*
X296342860Y-150997619D01*
X296342860Y-151378571D02*
X296438098Y-151330952D01*
X296438098Y-151330952D02*
X296628574Y-151330952D01*
X296628574Y-151330952D02*
X296723812Y-151378571D01*
X296723812Y-151378571D02*
X296771431Y-151426190D01*
X296771431Y-151426190D02*
X296819050Y-151521428D01*
X296819050Y-151521428D02*
X296819050Y-151807142D01*
X296819050Y-151807142D02*
X296771431Y-151902380D01*
X296771431Y-151902380D02*
X296723812Y-151950000D01*
X296723812Y-151950000D02*
X296628574Y-151997619D01*
X296628574Y-151997619D02*
X296438098Y-151997619D01*
X296438098Y-151997619D02*
X296342860Y-151950000D01*
X297390479Y-151997619D02*
X297295241Y-151950000D01*
X297295241Y-151950000D02*
X297247622Y-151902380D01*
X297247622Y-151902380D02*
X297200003Y-151807142D01*
X297200003Y-151807142D02*
X297200003Y-151521428D01*
X297200003Y-151521428D02*
X297247622Y-151426190D01*
X297247622Y-151426190D02*
X297295241Y-151378571D01*
X297295241Y-151378571D02*
X297390479Y-151330952D01*
X297390479Y-151330952D02*
X297533336Y-151330952D01*
X297533336Y-151330952D02*
X297628574Y-151378571D01*
X297628574Y-151378571D02*
X297676193Y-151426190D01*
X297676193Y-151426190D02*
X297723812Y-151521428D01*
X297723812Y-151521428D02*
X297723812Y-151807142D01*
X297723812Y-151807142D02*
X297676193Y-151902380D01*
X297676193Y-151902380D02*
X297628574Y-151950000D01*
X297628574Y-151950000D02*
X297533336Y-151997619D01*
X297533336Y-151997619D02*
X297390479Y-151997619D01*
X298295241Y-151997619D02*
X298200003Y-151950000D01*
X298200003Y-151950000D02*
X298152384Y-151902380D01*
X298152384Y-151902380D02*
X298104765Y-151807142D01*
X298104765Y-151807142D02*
X298104765Y-151521428D01*
X298104765Y-151521428D02*
X298152384Y-151426190D01*
X298152384Y-151426190D02*
X298200003Y-151378571D01*
X298200003Y-151378571D02*
X298295241Y-151330952D01*
X298295241Y-151330952D02*
X298438098Y-151330952D01*
X298438098Y-151330952D02*
X298533336Y-151378571D01*
X298533336Y-151378571D02*
X298580955Y-151426190D01*
X298580955Y-151426190D02*
X298628574Y-151521428D01*
X298628574Y-151521428D02*
X298628574Y-151807142D01*
X298628574Y-151807142D02*
X298580955Y-151902380D01*
X298580955Y-151902380D02*
X298533336Y-151950000D01*
X298533336Y-151950000D02*
X298438098Y-151997619D01*
X298438098Y-151997619D02*
X298295241Y-151997619D01*
X298914289Y-151330952D02*
X299295241Y-151330952D01*
X299057146Y-150997619D02*
X299057146Y-151854761D01*
X299057146Y-151854761D02*
X299104765Y-151950000D01*
X299104765Y-151950000D02*
X299200003Y-151997619D01*
X299200003Y-151997619D02*
X299295241Y-151997619D01*
X299771432Y-151997619D02*
X299676194Y-151950000D01*
X299676194Y-151950000D02*
X299628575Y-151854761D01*
X299628575Y-151854761D02*
X299628575Y-150997619D01*
X300295242Y-151997619D02*
X300200004Y-151950000D01*
X300200004Y-151950000D02*
X300152385Y-151902380D01*
X300152385Y-151902380D02*
X300104766Y-151807142D01*
X300104766Y-151807142D02*
X300104766Y-151521428D01*
X300104766Y-151521428D02*
X300152385Y-151426190D01*
X300152385Y-151426190D02*
X300200004Y-151378571D01*
X300200004Y-151378571D02*
X300295242Y-151330952D01*
X300295242Y-151330952D02*
X300438099Y-151330952D01*
X300438099Y-151330952D02*
X300533337Y-151378571D01*
X300533337Y-151378571D02*
X300580956Y-151426190D01*
X300580956Y-151426190D02*
X300628575Y-151521428D01*
X300628575Y-151521428D02*
X300628575Y-151807142D01*
X300628575Y-151807142D02*
X300580956Y-151902380D01*
X300580956Y-151902380D02*
X300533337Y-151950000D01*
X300533337Y-151950000D02*
X300438099Y-151997619D01*
X300438099Y-151997619D02*
X300295242Y-151997619D01*
X301485718Y-151997619D02*
X301485718Y-151473809D01*
X301485718Y-151473809D02*
X301438099Y-151378571D01*
X301438099Y-151378571D02*
X301342861Y-151330952D01*
X301342861Y-151330952D02*
X301152385Y-151330952D01*
X301152385Y-151330952D02*
X301057147Y-151378571D01*
X301485718Y-151950000D02*
X301390480Y-151997619D01*
X301390480Y-151997619D02*
X301152385Y-151997619D01*
X301152385Y-151997619D02*
X301057147Y-151950000D01*
X301057147Y-151950000D02*
X301009528Y-151854761D01*
X301009528Y-151854761D02*
X301009528Y-151759523D01*
X301009528Y-151759523D02*
X301057147Y-151664285D01*
X301057147Y-151664285D02*
X301152385Y-151616666D01*
X301152385Y-151616666D02*
X301390480Y-151616666D01*
X301390480Y-151616666D02*
X301485718Y-151569047D01*
X302390480Y-151997619D02*
X302390480Y-150997619D01*
X302390480Y-151950000D02*
X302295242Y-151997619D01*
X302295242Y-151997619D02*
X302104766Y-151997619D01*
X302104766Y-151997619D02*
X302009528Y-151950000D01*
X302009528Y-151950000D02*
X301961909Y-151902380D01*
X301961909Y-151902380D02*
X301914290Y-151807142D01*
X301914290Y-151807142D02*
X301914290Y-151521428D01*
X301914290Y-151521428D02*
X301961909Y-151426190D01*
X301961909Y-151426190D02*
X302009528Y-151378571D01*
X302009528Y-151378571D02*
X302104766Y-151330952D01*
X302104766Y-151330952D02*
X302295242Y-151330952D01*
X302295242Y-151330952D02*
X302390480Y-151378571D01*
X303247623Y-151950000D02*
X303152385Y-151997619D01*
X303152385Y-151997619D02*
X302961909Y-151997619D01*
X302961909Y-151997619D02*
X302866671Y-151950000D01*
X302866671Y-151950000D02*
X302819052Y-151854761D01*
X302819052Y-151854761D02*
X302819052Y-151473809D01*
X302819052Y-151473809D02*
X302866671Y-151378571D01*
X302866671Y-151378571D02*
X302961909Y-151330952D01*
X302961909Y-151330952D02*
X303152385Y-151330952D01*
X303152385Y-151330952D02*
X303247623Y-151378571D01*
X303247623Y-151378571D02*
X303295242Y-151473809D01*
X303295242Y-151473809D02*
X303295242Y-151569047D01*
X303295242Y-151569047D02*
X302819052Y-151664285D01*
X303723814Y-151997619D02*
X303723814Y-151330952D01*
X303723814Y-151521428D02*
X303771433Y-151426190D01*
X303771433Y-151426190D02*
X303819052Y-151378571D01*
X303819052Y-151378571D02*
X303914290Y-151330952D01*
X303914290Y-151330952D02*
X304009528Y-151330952D01*
D10*
X139307207Y-163011785D02*
X139378635Y-162940357D01*
X139378635Y-162940357D02*
X139521493Y-162868928D01*
X139521493Y-162868928D02*
X139878635Y-162868928D01*
X139878635Y-162868928D02*
X140021493Y-162940357D01*
X140021493Y-162940357D02*
X140092921Y-163011785D01*
X140092921Y-163011785D02*
X140164350Y-163154642D01*
X140164350Y-163154642D02*
X140164350Y-163297500D01*
X140164350Y-163297500D02*
X140092921Y-163511785D01*
X140092921Y-163511785D02*
X139235778Y-164368928D01*
X139235778Y-164368928D02*
X140164350Y-164368928D01*
X140807206Y-164226071D02*
X140878635Y-164297500D01*
X140878635Y-164297500D02*
X140807206Y-164368928D01*
X140807206Y-164368928D02*
X140735778Y-164297500D01*
X140735778Y-164297500D02*
X140807206Y-164226071D01*
X140807206Y-164226071D02*
X140807206Y-164368928D01*
X141378635Y-162868928D02*
X142378635Y-162868928D01*
X142378635Y-162868928D02*
X141735778Y-164368928D01*
X143664349Y-162868928D02*
X142950063Y-162868928D01*
X142950063Y-162868928D02*
X142878635Y-163583214D01*
X142878635Y-163583214D02*
X142950063Y-163511785D01*
X142950063Y-163511785D02*
X143092921Y-163440357D01*
X143092921Y-163440357D02*
X143450063Y-163440357D01*
X143450063Y-163440357D02*
X143592921Y-163511785D01*
X143592921Y-163511785D02*
X143664349Y-163583214D01*
X143664349Y-163583214D02*
X143735778Y-163726071D01*
X143735778Y-163726071D02*
X143735778Y-164083214D01*
X143735778Y-164083214D02*
X143664349Y-164226071D01*
X143664349Y-164226071D02*
X143592921Y-164297500D01*
X143592921Y-164297500D02*
X143450063Y-164368928D01*
X143450063Y-164368928D02*
X143092921Y-164368928D01*
X143092921Y-164368928D02*
X142950063Y-164297500D01*
X142950063Y-164297500D02*
X142878635Y-164226071D01*
X145021492Y-163368928D02*
X145021492Y-164368928D01*
X144378634Y-163368928D02*
X144378634Y-164154642D01*
X144378634Y-164154642D02*
X144450063Y-164297500D01*
X144450063Y-164297500D02*
X144592920Y-164368928D01*
X144592920Y-164368928D02*
X144807206Y-164368928D01*
X144807206Y-164368928D02*
X144950063Y-164297500D01*
X144950063Y-164297500D02*
X145021492Y-164226071D01*
D14*
X302410914Y-46612611D02*
X302410914Y-45612611D01*
X302410914Y-46088801D02*
X302982342Y-46088801D01*
X302982342Y-46612611D02*
X302982342Y-45612611D01*
X303363295Y-45612611D02*
X303982342Y-45612611D01*
X303982342Y-45612611D02*
X303649009Y-45993563D01*
X303649009Y-45993563D02*
X303791866Y-45993563D01*
X303791866Y-45993563D02*
X303887104Y-46041182D01*
X303887104Y-46041182D02*
X303934723Y-46088801D01*
X303934723Y-46088801D02*
X303982342Y-46184039D01*
X303982342Y-46184039D02*
X303982342Y-46422134D01*
X303982342Y-46422134D02*
X303934723Y-46517372D01*
X303934723Y-46517372D02*
X303887104Y-46564992D01*
X303887104Y-46564992D02*
X303791866Y-46612611D01*
X303791866Y-46612611D02*
X303506152Y-46612611D01*
X303506152Y-46612611D02*
X303410914Y-46564992D01*
X303410914Y-46564992D02*
X303363295Y-46517372D01*
X304601390Y-45612611D02*
X304696628Y-45612611D01*
X304696628Y-45612611D02*
X304791866Y-45660230D01*
X304791866Y-45660230D02*
X304839485Y-45707849D01*
X304839485Y-45707849D02*
X304887104Y-45803087D01*
X304887104Y-45803087D02*
X304934723Y-45993563D01*
X304934723Y-45993563D02*
X304934723Y-46231658D01*
X304934723Y-46231658D02*
X304887104Y-46422134D01*
X304887104Y-46422134D02*
X304839485Y-46517372D01*
X304839485Y-46517372D02*
X304791866Y-46564992D01*
X304791866Y-46564992D02*
X304696628Y-46612611D01*
X304696628Y-46612611D02*
X304601390Y-46612611D01*
X304601390Y-46612611D02*
X304506152Y-46564992D01*
X304506152Y-46564992D02*
X304458533Y-46517372D01*
X304458533Y-46517372D02*
X304410914Y-46422134D01*
X304410914Y-46422134D02*
X304363295Y-46231658D01*
X304363295Y-46231658D02*
X304363295Y-45993563D01*
X304363295Y-45993563D02*
X304410914Y-45803087D01*
X304410914Y-45803087D02*
X304458533Y-45707849D01*
X304458533Y-45707849D02*
X304506152Y-45660230D01*
X304506152Y-45660230D02*
X304601390Y-45612611D01*
X305315676Y-45707849D02*
X305363295Y-45660230D01*
X305363295Y-45660230D02*
X305458533Y-45612611D01*
X305458533Y-45612611D02*
X305696628Y-45612611D01*
X305696628Y-45612611D02*
X305791866Y-45660230D01*
X305791866Y-45660230D02*
X305839485Y-45707849D01*
X305839485Y-45707849D02*
X305887104Y-45803087D01*
X305887104Y-45803087D02*
X305887104Y-45898325D01*
X305887104Y-45898325D02*
X305839485Y-46041182D01*
X305839485Y-46041182D02*
X305268057Y-46612611D01*
X305268057Y-46612611D02*
X305887104Y-46612611D01*
X83422619Y-38446428D02*
X83422619Y-38922618D01*
X83422619Y-38922618D02*
X82422619Y-38922618D01*
X82898809Y-38113094D02*
X82898809Y-37779761D01*
X83422619Y-37636904D02*
X83422619Y-38113094D01*
X83422619Y-38113094D02*
X82422619Y-38113094D01*
X82422619Y-38113094D02*
X82422619Y-37636904D01*
X83422619Y-37208332D02*
X82422619Y-37208332D01*
X82422619Y-37208332D02*
X82422619Y-36970237D01*
X82422619Y-36970237D02*
X82470238Y-36827380D01*
X82470238Y-36827380D02*
X82565476Y-36732142D01*
X82565476Y-36732142D02*
X82660714Y-36684523D01*
X82660714Y-36684523D02*
X82851190Y-36636904D01*
X82851190Y-36636904D02*
X82994047Y-36636904D01*
X82994047Y-36636904D02*
X83184523Y-36684523D01*
X83184523Y-36684523D02*
X83279761Y-36732142D01*
X83279761Y-36732142D02*
X83375000Y-36827380D01*
X83375000Y-36827380D02*
X83422619Y-36970237D01*
X83422619Y-36970237D02*
X83422619Y-37208332D01*
X82422619Y-36303570D02*
X82422619Y-35636904D01*
X82422619Y-35636904D02*
X83422619Y-36065475D01*
X82422619Y-35065475D02*
X82422619Y-34970237D01*
X82422619Y-34970237D02*
X82470238Y-34874999D01*
X82470238Y-34874999D02*
X82517857Y-34827380D01*
X82517857Y-34827380D02*
X82613095Y-34779761D01*
X82613095Y-34779761D02*
X82803571Y-34732142D01*
X82803571Y-34732142D02*
X83041666Y-34732142D01*
X83041666Y-34732142D02*
X83232142Y-34779761D01*
X83232142Y-34779761D02*
X83327380Y-34827380D01*
X83327380Y-34827380D02*
X83375000Y-34874999D01*
X83375000Y-34874999D02*
X83422619Y-34970237D01*
X83422619Y-34970237D02*
X83422619Y-35065475D01*
X83422619Y-35065475D02*
X83375000Y-35160713D01*
X83375000Y-35160713D02*
X83327380Y-35208332D01*
X83327380Y-35208332D02*
X83232142Y-35255951D01*
X83232142Y-35255951D02*
X83041666Y-35303570D01*
X83041666Y-35303570D02*
X82803571Y-35303570D01*
X82803571Y-35303570D02*
X82613095Y-35255951D01*
X82613095Y-35255951D02*
X82517857Y-35208332D01*
X82517857Y-35208332D02*
X82470238Y-35160713D01*
X82470238Y-35160713D02*
X82422619Y-35065475D01*
X82517857Y-34351189D02*
X82470238Y-34303570D01*
X82470238Y-34303570D02*
X82422619Y-34208332D01*
X82422619Y-34208332D02*
X82422619Y-33970237D01*
X82422619Y-33970237D02*
X82470238Y-33874999D01*
X82470238Y-33874999D02*
X82517857Y-33827380D01*
X82517857Y-33827380D02*
X82613095Y-33779761D01*
X82613095Y-33779761D02*
X82708333Y-33779761D01*
X82708333Y-33779761D02*
X82851190Y-33827380D01*
X82851190Y-33827380D02*
X83422619Y-34398808D01*
X83422619Y-34398808D02*
X83422619Y-33779761D01*
X388135986Y-94237651D02*
X388135986Y-93237651D01*
X388135986Y-93713841D02*
X388707414Y-93713841D01*
X388707414Y-94237651D02*
X388707414Y-93237651D01*
X389088367Y-93237651D02*
X389707414Y-93237651D01*
X389707414Y-93237651D02*
X389374081Y-93618603D01*
X389374081Y-93618603D02*
X389516938Y-93618603D01*
X389516938Y-93618603D02*
X389612176Y-93666222D01*
X389612176Y-93666222D02*
X389659795Y-93713841D01*
X389659795Y-93713841D02*
X389707414Y-93809079D01*
X389707414Y-93809079D02*
X389707414Y-94047174D01*
X389707414Y-94047174D02*
X389659795Y-94142412D01*
X389659795Y-94142412D02*
X389612176Y-94190032D01*
X389612176Y-94190032D02*
X389516938Y-94237651D01*
X389516938Y-94237651D02*
X389231224Y-94237651D01*
X389231224Y-94237651D02*
X389135986Y-94190032D01*
X389135986Y-94190032D02*
X389088367Y-94142412D01*
X390326462Y-93237651D02*
X390421700Y-93237651D01*
X390421700Y-93237651D02*
X390516938Y-93285270D01*
X390516938Y-93285270D02*
X390564557Y-93332889D01*
X390564557Y-93332889D02*
X390612176Y-93428127D01*
X390612176Y-93428127D02*
X390659795Y-93618603D01*
X390659795Y-93618603D02*
X390659795Y-93856698D01*
X390659795Y-93856698D02*
X390612176Y-94047174D01*
X390612176Y-94047174D02*
X390564557Y-94142412D01*
X390564557Y-94142412D02*
X390516938Y-94190032D01*
X390516938Y-94190032D02*
X390421700Y-94237651D01*
X390421700Y-94237651D02*
X390326462Y-94237651D01*
X390326462Y-94237651D02*
X390231224Y-94190032D01*
X390231224Y-94190032D02*
X390183605Y-94142412D01*
X390183605Y-94142412D02*
X390135986Y-94047174D01*
X390135986Y-94047174D02*
X390088367Y-93856698D01*
X390088367Y-93856698D02*
X390088367Y-93618603D01*
X390088367Y-93618603D02*
X390135986Y-93428127D01*
X390135986Y-93428127D02*
X390183605Y-93332889D01*
X390183605Y-93332889D02*
X390231224Y-93285270D01*
X390231224Y-93285270D02*
X390326462Y-93237651D01*
X391516938Y-93237651D02*
X391326462Y-93237651D01*
X391326462Y-93237651D02*
X391231224Y-93285270D01*
X391231224Y-93285270D02*
X391183605Y-93332889D01*
X391183605Y-93332889D02*
X391088367Y-93475746D01*
X391088367Y-93475746D02*
X391040748Y-93666222D01*
X391040748Y-93666222D02*
X391040748Y-94047174D01*
X391040748Y-94047174D02*
X391088367Y-94142412D01*
X391088367Y-94142412D02*
X391135986Y-94190032D01*
X391135986Y-94190032D02*
X391231224Y-94237651D01*
X391231224Y-94237651D02*
X391421700Y-94237651D01*
X391421700Y-94237651D02*
X391516938Y-94190032D01*
X391516938Y-94190032D02*
X391564557Y-94142412D01*
X391564557Y-94142412D02*
X391612176Y-94047174D01*
X391612176Y-94047174D02*
X391612176Y-93809079D01*
X391612176Y-93809079D02*
X391564557Y-93713841D01*
X391564557Y-93713841D02*
X391516938Y-93666222D01*
X391516938Y-93666222D02*
X391421700Y-93618603D01*
X391421700Y-93618603D02*
X391231224Y-93618603D01*
X391231224Y-93618603D02*
X391135986Y-93666222D01*
X391135986Y-93666222D02*
X391088367Y-93713841D01*
X391088367Y-93713841D02*
X391040748Y-93809079D01*
X426236018Y-46612611D02*
X426236018Y-45612611D01*
X426236018Y-46088801D02*
X426807446Y-46088801D01*
X426807446Y-46612611D02*
X426807446Y-45612611D01*
X427188399Y-45612611D02*
X427807446Y-45612611D01*
X427807446Y-45612611D02*
X427474113Y-45993563D01*
X427474113Y-45993563D02*
X427616970Y-45993563D01*
X427616970Y-45993563D02*
X427712208Y-46041182D01*
X427712208Y-46041182D02*
X427759827Y-46088801D01*
X427759827Y-46088801D02*
X427807446Y-46184039D01*
X427807446Y-46184039D02*
X427807446Y-46422134D01*
X427807446Y-46422134D02*
X427759827Y-46517372D01*
X427759827Y-46517372D02*
X427712208Y-46564992D01*
X427712208Y-46564992D02*
X427616970Y-46612611D01*
X427616970Y-46612611D02*
X427331256Y-46612611D01*
X427331256Y-46612611D02*
X427236018Y-46564992D01*
X427236018Y-46564992D02*
X427188399Y-46517372D01*
X428426494Y-45612611D02*
X428521732Y-45612611D01*
X428521732Y-45612611D02*
X428616970Y-45660230D01*
X428616970Y-45660230D02*
X428664589Y-45707849D01*
X428664589Y-45707849D02*
X428712208Y-45803087D01*
X428712208Y-45803087D02*
X428759827Y-45993563D01*
X428759827Y-45993563D02*
X428759827Y-46231658D01*
X428759827Y-46231658D02*
X428712208Y-46422134D01*
X428712208Y-46422134D02*
X428664589Y-46517372D01*
X428664589Y-46517372D02*
X428616970Y-46564992D01*
X428616970Y-46564992D02*
X428521732Y-46612611D01*
X428521732Y-46612611D02*
X428426494Y-46612611D01*
X428426494Y-46612611D02*
X428331256Y-46564992D01*
X428331256Y-46564992D02*
X428283637Y-46517372D01*
X428283637Y-46517372D02*
X428236018Y-46422134D01*
X428236018Y-46422134D02*
X428188399Y-46231658D01*
X428188399Y-46231658D02*
X428188399Y-45993563D01*
X428188399Y-45993563D02*
X428236018Y-45803087D01*
X428236018Y-45803087D02*
X428283637Y-45707849D01*
X428283637Y-45707849D02*
X428331256Y-45660230D01*
X428331256Y-45660230D02*
X428426494Y-45612611D01*
X429093161Y-45612611D02*
X429712208Y-45612611D01*
X429712208Y-45612611D02*
X429378875Y-45993563D01*
X429378875Y-45993563D02*
X429521732Y-45993563D01*
X429521732Y-45993563D02*
X429616970Y-46041182D01*
X429616970Y-46041182D02*
X429664589Y-46088801D01*
X429664589Y-46088801D02*
X429712208Y-46184039D01*
X429712208Y-46184039D02*
X429712208Y-46422134D01*
X429712208Y-46422134D02*
X429664589Y-46517372D01*
X429664589Y-46517372D02*
X429616970Y-46564992D01*
X429616970Y-46564992D02*
X429521732Y-46612611D01*
X429521732Y-46612611D02*
X429236018Y-46612611D01*
X429236018Y-46612611D02*
X429140780Y-46564992D01*
X429140780Y-46564992D02*
X429093161Y-46517372D01*
X335391071Y-76135119D02*
X334914881Y-76135119D01*
X334914881Y-76135119D02*
X334914881Y-75135119D01*
X335724405Y-75611309D02*
X336057738Y-75611309D01*
X336200595Y-76135119D02*
X335724405Y-76135119D01*
X335724405Y-76135119D02*
X335724405Y-75135119D01*
X335724405Y-75135119D02*
X336200595Y-75135119D01*
X336629167Y-76135119D02*
X336629167Y-75135119D01*
X336629167Y-75135119D02*
X336867262Y-75135119D01*
X336867262Y-75135119D02*
X337010119Y-75182738D01*
X337010119Y-75182738D02*
X337105357Y-75277976D01*
X337105357Y-75277976D02*
X337152976Y-75373214D01*
X337152976Y-75373214D02*
X337200595Y-75563690D01*
X337200595Y-75563690D02*
X337200595Y-75706547D01*
X337200595Y-75706547D02*
X337152976Y-75897023D01*
X337152976Y-75897023D02*
X337105357Y-75992261D01*
X337105357Y-75992261D02*
X337010119Y-76087500D01*
X337010119Y-76087500D02*
X336867262Y-76135119D01*
X336867262Y-76135119D02*
X336629167Y-76135119D01*
X337581548Y-75230357D02*
X337629167Y-75182738D01*
X337629167Y-75182738D02*
X337724405Y-75135119D01*
X337724405Y-75135119D02*
X337962500Y-75135119D01*
X337962500Y-75135119D02*
X338057738Y-75182738D01*
X338057738Y-75182738D02*
X338105357Y-75230357D01*
X338105357Y-75230357D02*
X338152976Y-75325595D01*
X338152976Y-75325595D02*
X338152976Y-75420833D01*
X338152976Y-75420833D02*
X338105357Y-75563690D01*
X338105357Y-75563690D02*
X337533929Y-76135119D01*
X337533929Y-76135119D02*
X338152976Y-76135119D01*
X338772024Y-75135119D02*
X338867262Y-75135119D01*
X338867262Y-75135119D02*
X338962500Y-75182738D01*
X338962500Y-75182738D02*
X339010119Y-75230357D01*
X339010119Y-75230357D02*
X339057738Y-75325595D01*
X339057738Y-75325595D02*
X339105357Y-75516071D01*
X339105357Y-75516071D02*
X339105357Y-75754166D01*
X339105357Y-75754166D02*
X339057738Y-75944642D01*
X339057738Y-75944642D02*
X339010119Y-76039880D01*
X339010119Y-76039880D02*
X338962500Y-76087500D01*
X338962500Y-76087500D02*
X338867262Y-76135119D01*
X338867262Y-76135119D02*
X338772024Y-76135119D01*
X338772024Y-76135119D02*
X338676786Y-76087500D01*
X338676786Y-76087500D02*
X338629167Y-76039880D01*
X338629167Y-76039880D02*
X338581548Y-75944642D01*
X338581548Y-75944642D02*
X338533929Y-75754166D01*
X338533929Y-75754166D02*
X338533929Y-75516071D01*
X338533929Y-75516071D02*
X338581548Y-75325595D01*
X338581548Y-75325595D02*
X338629167Y-75230357D01*
X338629167Y-75230357D02*
X338676786Y-75182738D01*
X338676786Y-75182738D02*
X338772024Y-75135119D01*
X340057738Y-76135119D02*
X339486310Y-76135119D01*
X339772024Y-76135119D02*
X339772024Y-75135119D01*
X339772024Y-75135119D02*
X339676786Y-75277976D01*
X339676786Y-75277976D02*
X339581548Y-75373214D01*
X339581548Y-75373214D02*
X339486310Y-75420833D01*
X443428592Y-30487619D02*
X443428592Y-29487619D01*
X443428592Y-29963809D02*
X444000020Y-29963809D01*
X444000020Y-30487619D02*
X444000020Y-29487619D01*
X444428592Y-30201904D02*
X444904782Y-30201904D01*
X444333354Y-30487619D02*
X444666687Y-29487619D01*
X444666687Y-29487619D02*
X445000020Y-30487619D01*
X445238116Y-29487619D02*
X445857163Y-29487619D01*
X445857163Y-29487619D02*
X445523830Y-29868571D01*
X445523830Y-29868571D02*
X445666687Y-29868571D01*
X445666687Y-29868571D02*
X445761925Y-29916190D01*
X445761925Y-29916190D02*
X445809544Y-29963809D01*
X445809544Y-29963809D02*
X445857163Y-30059047D01*
X445857163Y-30059047D02*
X445857163Y-30297142D01*
X445857163Y-30297142D02*
X445809544Y-30392380D01*
X445809544Y-30392380D02*
X445761925Y-30440000D01*
X445761925Y-30440000D02*
X445666687Y-30487619D01*
X445666687Y-30487619D02*
X445380973Y-30487619D01*
X445380973Y-30487619D02*
X445285735Y-30440000D01*
X445285735Y-30440000D02*
X445238116Y-30392380D01*
X354441071Y-76135119D02*
X353964881Y-76135119D01*
X353964881Y-76135119D02*
X353964881Y-75135119D01*
X354774405Y-75611309D02*
X355107738Y-75611309D01*
X355250595Y-76135119D02*
X354774405Y-76135119D01*
X354774405Y-76135119D02*
X354774405Y-75135119D01*
X354774405Y-75135119D02*
X355250595Y-75135119D01*
X355679167Y-76135119D02*
X355679167Y-75135119D01*
X355679167Y-75135119D02*
X355917262Y-75135119D01*
X355917262Y-75135119D02*
X356060119Y-75182738D01*
X356060119Y-75182738D02*
X356155357Y-75277976D01*
X356155357Y-75277976D02*
X356202976Y-75373214D01*
X356202976Y-75373214D02*
X356250595Y-75563690D01*
X356250595Y-75563690D02*
X356250595Y-75706547D01*
X356250595Y-75706547D02*
X356202976Y-75897023D01*
X356202976Y-75897023D02*
X356155357Y-75992261D01*
X356155357Y-75992261D02*
X356060119Y-76087500D01*
X356060119Y-76087500D02*
X355917262Y-76135119D01*
X355917262Y-76135119D02*
X355679167Y-76135119D01*
X356631548Y-75230357D02*
X356679167Y-75182738D01*
X356679167Y-75182738D02*
X356774405Y-75135119D01*
X356774405Y-75135119D02*
X357012500Y-75135119D01*
X357012500Y-75135119D02*
X357107738Y-75182738D01*
X357107738Y-75182738D02*
X357155357Y-75230357D01*
X357155357Y-75230357D02*
X357202976Y-75325595D01*
X357202976Y-75325595D02*
X357202976Y-75420833D01*
X357202976Y-75420833D02*
X357155357Y-75563690D01*
X357155357Y-75563690D02*
X356583929Y-76135119D01*
X356583929Y-76135119D02*
X357202976Y-76135119D01*
X357822024Y-75135119D02*
X357917262Y-75135119D01*
X357917262Y-75135119D02*
X358012500Y-75182738D01*
X358012500Y-75182738D02*
X358060119Y-75230357D01*
X358060119Y-75230357D02*
X358107738Y-75325595D01*
X358107738Y-75325595D02*
X358155357Y-75516071D01*
X358155357Y-75516071D02*
X358155357Y-75754166D01*
X358155357Y-75754166D02*
X358107738Y-75944642D01*
X358107738Y-75944642D02*
X358060119Y-76039880D01*
X358060119Y-76039880D02*
X358012500Y-76087500D01*
X358012500Y-76087500D02*
X357917262Y-76135119D01*
X357917262Y-76135119D02*
X357822024Y-76135119D01*
X357822024Y-76135119D02*
X357726786Y-76087500D01*
X357726786Y-76087500D02*
X357679167Y-76039880D01*
X357679167Y-76039880D02*
X357631548Y-75944642D01*
X357631548Y-75944642D02*
X357583929Y-75754166D01*
X357583929Y-75754166D02*
X357583929Y-75516071D01*
X357583929Y-75516071D02*
X357631548Y-75325595D01*
X357631548Y-75325595D02*
X357679167Y-75230357D01*
X357679167Y-75230357D02*
X357726786Y-75182738D01*
X357726786Y-75182738D02*
X357822024Y-75135119D01*
X358536310Y-75230357D02*
X358583929Y-75182738D01*
X358583929Y-75182738D02*
X358679167Y-75135119D01*
X358679167Y-75135119D02*
X358917262Y-75135119D01*
X358917262Y-75135119D02*
X359012500Y-75182738D01*
X359012500Y-75182738D02*
X359060119Y-75230357D01*
X359060119Y-75230357D02*
X359107738Y-75325595D01*
X359107738Y-75325595D02*
X359107738Y-75420833D01*
X359107738Y-75420833D02*
X359060119Y-75563690D01*
X359060119Y-75563690D02*
X358488691Y-76135119D01*
X358488691Y-76135119D02*
X359107738Y-76135119D01*
X290165000Y-146435713D02*
X290212619Y-146292856D01*
X290212619Y-146292856D02*
X290212619Y-146054761D01*
X290212619Y-146054761D02*
X290165000Y-145959523D01*
X290165000Y-145959523D02*
X290117380Y-145911904D01*
X290117380Y-145911904D02*
X290022142Y-145864285D01*
X290022142Y-145864285D02*
X289926904Y-145864285D01*
X289926904Y-145864285D02*
X289831666Y-145911904D01*
X289831666Y-145911904D02*
X289784047Y-145959523D01*
X289784047Y-145959523D02*
X289736428Y-146054761D01*
X289736428Y-146054761D02*
X289688809Y-146245237D01*
X289688809Y-146245237D02*
X289641190Y-146340475D01*
X289641190Y-146340475D02*
X289593571Y-146388094D01*
X289593571Y-146388094D02*
X289498333Y-146435713D01*
X289498333Y-146435713D02*
X289403095Y-146435713D01*
X289403095Y-146435713D02*
X289307857Y-146388094D01*
X289307857Y-146388094D02*
X289260238Y-146340475D01*
X289260238Y-146340475D02*
X289212619Y-146245237D01*
X289212619Y-146245237D02*
X289212619Y-146007142D01*
X289212619Y-146007142D02*
X289260238Y-145864285D01*
X289212619Y-145530951D02*
X290212619Y-145292856D01*
X290212619Y-145292856D02*
X289498333Y-145102380D01*
X289498333Y-145102380D02*
X290212619Y-144911904D01*
X290212619Y-144911904D02*
X289212619Y-144673809D01*
X289307857Y-144340475D02*
X289260238Y-144292856D01*
X289260238Y-144292856D02*
X289212619Y-144197618D01*
X289212619Y-144197618D02*
X289212619Y-143959523D01*
X289212619Y-143959523D02*
X289260238Y-143864285D01*
X289260238Y-143864285D02*
X289307857Y-143816666D01*
X289307857Y-143816666D02*
X289403095Y-143769047D01*
X289403095Y-143769047D02*
X289498333Y-143769047D01*
X289498333Y-143769047D02*
X289641190Y-143816666D01*
X289641190Y-143816666D02*
X290212619Y-144388094D01*
X290212619Y-144388094D02*
X290212619Y-143769047D01*
X289212619Y-143149999D02*
X289212619Y-143054761D01*
X289212619Y-143054761D02*
X289260238Y-142959523D01*
X289260238Y-142959523D02*
X289307857Y-142911904D01*
X289307857Y-142911904D02*
X289403095Y-142864285D01*
X289403095Y-142864285D02*
X289593571Y-142816666D01*
X289593571Y-142816666D02*
X289831666Y-142816666D01*
X289831666Y-142816666D02*
X290022142Y-142864285D01*
X290022142Y-142864285D02*
X290117380Y-142911904D01*
X290117380Y-142911904D02*
X290165000Y-142959523D01*
X290165000Y-142959523D02*
X290212619Y-143054761D01*
X290212619Y-143054761D02*
X290212619Y-143149999D01*
X290212619Y-143149999D02*
X290165000Y-143245237D01*
X290165000Y-143245237D02*
X290117380Y-143292856D01*
X290117380Y-143292856D02*
X290022142Y-143340475D01*
X290022142Y-143340475D02*
X289831666Y-143388094D01*
X289831666Y-143388094D02*
X289593571Y-143388094D01*
X289593571Y-143388094D02*
X289403095Y-143340475D01*
X289403095Y-143340475D02*
X289307857Y-143292856D01*
X289307857Y-143292856D02*
X289260238Y-143245237D01*
X289260238Y-143245237D02*
X289212619Y-143149999D01*
X289212619Y-142197618D02*
X289212619Y-142102380D01*
X289212619Y-142102380D02*
X289260238Y-142007142D01*
X289260238Y-142007142D02*
X289307857Y-141959523D01*
X289307857Y-141959523D02*
X289403095Y-141911904D01*
X289403095Y-141911904D02*
X289593571Y-141864285D01*
X289593571Y-141864285D02*
X289831666Y-141864285D01*
X289831666Y-141864285D02*
X290022142Y-141911904D01*
X290022142Y-141911904D02*
X290117380Y-141959523D01*
X290117380Y-141959523D02*
X290165000Y-142007142D01*
X290165000Y-142007142D02*
X290212619Y-142102380D01*
X290212619Y-142102380D02*
X290212619Y-142197618D01*
X290212619Y-142197618D02*
X290165000Y-142292856D01*
X290165000Y-142292856D02*
X290117380Y-142340475D01*
X290117380Y-142340475D02*
X290022142Y-142388094D01*
X290022142Y-142388094D02*
X289831666Y-142435713D01*
X289831666Y-142435713D02*
X289593571Y-142435713D01*
X289593571Y-142435713D02*
X289403095Y-142388094D01*
X289403095Y-142388094D02*
X289307857Y-142340475D01*
X289307857Y-142340475D02*
X289260238Y-142292856D01*
X289260238Y-142292856D02*
X289212619Y-142197618D01*
X73214285Y-30387619D02*
X73214285Y-31101904D01*
X73214285Y-31101904D02*
X73166666Y-31244761D01*
X73166666Y-31244761D02*
X73071428Y-31340000D01*
X73071428Y-31340000D02*
X72928571Y-31387619D01*
X72928571Y-31387619D02*
X72833333Y-31387619D01*
X73595238Y-30387619D02*
X74261904Y-30387619D01*
X74261904Y-30387619D02*
X73833333Y-31387619D01*
X74833333Y-30387619D02*
X74928571Y-30387619D01*
X74928571Y-30387619D02*
X75023809Y-30435238D01*
X75023809Y-30435238D02*
X75071428Y-30482857D01*
X75071428Y-30482857D02*
X75119047Y-30578095D01*
X75119047Y-30578095D02*
X75166666Y-30768571D01*
X75166666Y-30768571D02*
X75166666Y-31006666D01*
X75166666Y-31006666D02*
X75119047Y-31197142D01*
X75119047Y-31197142D02*
X75071428Y-31292380D01*
X75071428Y-31292380D02*
X75023809Y-31340000D01*
X75023809Y-31340000D02*
X74928571Y-31387619D01*
X74928571Y-31387619D02*
X74833333Y-31387619D01*
X74833333Y-31387619D02*
X74738095Y-31340000D01*
X74738095Y-31340000D02*
X74690476Y-31292380D01*
X74690476Y-31292380D02*
X74642857Y-31197142D01*
X74642857Y-31197142D02*
X74595238Y-31006666D01*
X74595238Y-31006666D02*
X74595238Y-30768571D01*
X74595238Y-30768571D02*
X74642857Y-30578095D01*
X74642857Y-30578095D02*
X74690476Y-30482857D01*
X74690476Y-30482857D02*
X74738095Y-30435238D01*
X74738095Y-30435238D02*
X74833333Y-30387619D01*
X75547619Y-30482857D02*
X75595238Y-30435238D01*
X75595238Y-30435238D02*
X75690476Y-30387619D01*
X75690476Y-30387619D02*
X75928571Y-30387619D01*
X75928571Y-30387619D02*
X76023809Y-30435238D01*
X76023809Y-30435238D02*
X76071428Y-30482857D01*
X76071428Y-30482857D02*
X76119047Y-30578095D01*
X76119047Y-30578095D02*
X76119047Y-30673333D01*
X76119047Y-30673333D02*
X76071428Y-30816190D01*
X76071428Y-30816190D02*
X75500000Y-31387619D01*
X75500000Y-31387619D02*
X76119047Y-31387619D01*
X55809524Y-170462619D02*
X55809524Y-169462619D01*
X55809524Y-169938809D02*
X56380952Y-169938809D01*
X56380952Y-170462619D02*
X56380952Y-169462619D01*
X56809524Y-170176904D02*
X57285714Y-170176904D01*
X56714286Y-170462619D02*
X57047619Y-169462619D01*
X57047619Y-169462619D02*
X57380952Y-170462619D01*
X57666667Y-169557857D02*
X57714286Y-169510238D01*
X57714286Y-169510238D02*
X57809524Y-169462619D01*
X57809524Y-169462619D02*
X58047619Y-169462619D01*
X58047619Y-169462619D02*
X58142857Y-169510238D01*
X58142857Y-169510238D02*
X58190476Y-169557857D01*
X58190476Y-169557857D02*
X58238095Y-169653095D01*
X58238095Y-169653095D02*
X58238095Y-169748333D01*
X58238095Y-169748333D02*
X58190476Y-169891190D01*
X58190476Y-169891190D02*
X57619048Y-170462619D01*
X57619048Y-170462619D02*
X58238095Y-170462619D01*
X264310882Y-151387699D02*
X264310882Y-150387699D01*
X264310882Y-150863889D02*
X264882310Y-150863889D01*
X264882310Y-151387699D02*
X264882310Y-150387699D01*
X265263263Y-150387699D02*
X265882310Y-150387699D01*
X265882310Y-150387699D02*
X265548977Y-150768651D01*
X265548977Y-150768651D02*
X265691834Y-150768651D01*
X265691834Y-150768651D02*
X265787072Y-150816270D01*
X265787072Y-150816270D02*
X265834691Y-150863889D01*
X265834691Y-150863889D02*
X265882310Y-150959127D01*
X265882310Y-150959127D02*
X265882310Y-151197222D01*
X265882310Y-151197222D02*
X265834691Y-151292460D01*
X265834691Y-151292460D02*
X265787072Y-151340080D01*
X265787072Y-151340080D02*
X265691834Y-151387699D01*
X265691834Y-151387699D02*
X265406120Y-151387699D01*
X265406120Y-151387699D02*
X265310882Y-151340080D01*
X265310882Y-151340080D02*
X265263263Y-151292460D01*
X266501358Y-150387699D02*
X266596596Y-150387699D01*
X266596596Y-150387699D02*
X266691834Y-150435318D01*
X266691834Y-150435318D02*
X266739453Y-150482937D01*
X266739453Y-150482937D02*
X266787072Y-150578175D01*
X266787072Y-150578175D02*
X266834691Y-150768651D01*
X266834691Y-150768651D02*
X266834691Y-151006746D01*
X266834691Y-151006746D02*
X266787072Y-151197222D01*
X266787072Y-151197222D02*
X266739453Y-151292460D01*
X266739453Y-151292460D02*
X266691834Y-151340080D01*
X266691834Y-151340080D02*
X266596596Y-151387699D01*
X266596596Y-151387699D02*
X266501358Y-151387699D01*
X266501358Y-151387699D02*
X266406120Y-151340080D01*
X266406120Y-151340080D02*
X266358501Y-151292460D01*
X266358501Y-151292460D02*
X266310882Y-151197222D01*
X266310882Y-151197222D02*
X266263263Y-151006746D01*
X266263263Y-151006746D02*
X266263263Y-150768651D01*
X266263263Y-150768651D02*
X266310882Y-150578175D01*
X266310882Y-150578175D02*
X266358501Y-150482937D01*
X266358501Y-150482937D02*
X266406120Y-150435318D01*
X266406120Y-150435318D02*
X266501358Y-150387699D01*
X267406120Y-150816270D02*
X267310882Y-150768651D01*
X267310882Y-150768651D02*
X267263263Y-150721032D01*
X267263263Y-150721032D02*
X267215644Y-150625794D01*
X267215644Y-150625794D02*
X267215644Y-150578175D01*
X267215644Y-150578175D02*
X267263263Y-150482937D01*
X267263263Y-150482937D02*
X267310882Y-150435318D01*
X267310882Y-150435318D02*
X267406120Y-150387699D01*
X267406120Y-150387699D02*
X267596596Y-150387699D01*
X267596596Y-150387699D02*
X267691834Y-150435318D01*
X267691834Y-150435318D02*
X267739453Y-150482937D01*
X267739453Y-150482937D02*
X267787072Y-150578175D01*
X267787072Y-150578175D02*
X267787072Y-150625794D01*
X267787072Y-150625794D02*
X267739453Y-150721032D01*
X267739453Y-150721032D02*
X267691834Y-150768651D01*
X267691834Y-150768651D02*
X267596596Y-150816270D01*
X267596596Y-150816270D02*
X267406120Y-150816270D01*
X267406120Y-150816270D02*
X267310882Y-150863889D01*
X267310882Y-150863889D02*
X267263263Y-150911508D01*
X267263263Y-150911508D02*
X267215644Y-151006746D01*
X267215644Y-151006746D02*
X267215644Y-151197222D01*
X267215644Y-151197222D02*
X267263263Y-151292460D01*
X267263263Y-151292460D02*
X267310882Y-151340080D01*
X267310882Y-151340080D02*
X267406120Y-151387699D01*
X267406120Y-151387699D02*
X267596596Y-151387699D01*
X267596596Y-151387699D02*
X267691834Y-151340080D01*
X267691834Y-151340080D02*
X267739453Y-151292460D01*
X267739453Y-151292460D02*
X267787072Y-151197222D01*
X267787072Y-151197222D02*
X267787072Y-151006746D01*
X267787072Y-151006746D02*
X267739453Y-150911508D01*
X267739453Y-150911508D02*
X267691834Y-150863889D01*
X267691834Y-150863889D02*
X267596596Y-150816270D01*
X55809524Y-30462619D02*
X55809524Y-29462619D01*
X55809524Y-29938809D02*
X56380952Y-29938809D01*
X56380952Y-30462619D02*
X56380952Y-29462619D01*
X56809524Y-30176904D02*
X57285714Y-30176904D01*
X56714286Y-30462619D02*
X57047619Y-29462619D01*
X57047619Y-29462619D02*
X57380952Y-30462619D01*
X58238095Y-30462619D02*
X57666667Y-30462619D01*
X57952381Y-30462619D02*
X57952381Y-29462619D01*
X57952381Y-29462619D02*
X57857143Y-29605476D01*
X57857143Y-29605476D02*
X57761905Y-29700714D01*
X57761905Y-29700714D02*
X57666667Y-29748333D01*
X197635826Y-94237651D02*
X197635826Y-93237651D01*
X197635826Y-93713841D02*
X198207254Y-93713841D01*
X198207254Y-94237651D02*
X198207254Y-93237651D01*
X198588207Y-93237651D02*
X199207254Y-93237651D01*
X199207254Y-93237651D02*
X198873921Y-93618603D01*
X198873921Y-93618603D02*
X199016778Y-93618603D01*
X199016778Y-93618603D02*
X199112016Y-93666222D01*
X199112016Y-93666222D02*
X199159635Y-93713841D01*
X199159635Y-93713841D02*
X199207254Y-93809079D01*
X199207254Y-93809079D02*
X199207254Y-94047174D01*
X199207254Y-94047174D02*
X199159635Y-94142412D01*
X199159635Y-94142412D02*
X199112016Y-94190032D01*
X199112016Y-94190032D02*
X199016778Y-94237651D01*
X199016778Y-94237651D02*
X198731064Y-94237651D01*
X198731064Y-94237651D02*
X198635826Y-94190032D01*
X198635826Y-94190032D02*
X198588207Y-94142412D01*
X199826302Y-93237651D02*
X199921540Y-93237651D01*
X199921540Y-93237651D02*
X200016778Y-93285270D01*
X200016778Y-93285270D02*
X200064397Y-93332889D01*
X200064397Y-93332889D02*
X200112016Y-93428127D01*
X200112016Y-93428127D02*
X200159635Y-93618603D01*
X200159635Y-93618603D02*
X200159635Y-93856698D01*
X200159635Y-93856698D02*
X200112016Y-94047174D01*
X200112016Y-94047174D02*
X200064397Y-94142412D01*
X200064397Y-94142412D02*
X200016778Y-94190032D01*
X200016778Y-94190032D02*
X199921540Y-94237651D01*
X199921540Y-94237651D02*
X199826302Y-94237651D01*
X199826302Y-94237651D02*
X199731064Y-94190032D01*
X199731064Y-94190032D02*
X199683445Y-94142412D01*
X199683445Y-94142412D02*
X199635826Y-94047174D01*
X199635826Y-94047174D02*
X199588207Y-93856698D01*
X199588207Y-93856698D02*
X199588207Y-93618603D01*
X199588207Y-93618603D02*
X199635826Y-93428127D01*
X199635826Y-93428127D02*
X199683445Y-93332889D01*
X199683445Y-93332889D02*
X199731064Y-93285270D01*
X199731064Y-93285270D02*
X199826302Y-93237651D01*
X201064397Y-93237651D02*
X200588207Y-93237651D01*
X200588207Y-93237651D02*
X200540588Y-93713841D01*
X200540588Y-93713841D02*
X200588207Y-93666222D01*
X200588207Y-93666222D02*
X200683445Y-93618603D01*
X200683445Y-93618603D02*
X200921540Y-93618603D01*
X200921540Y-93618603D02*
X201016778Y-93666222D01*
X201016778Y-93666222D02*
X201064397Y-93713841D01*
X201064397Y-93713841D02*
X201112016Y-93809079D01*
X201112016Y-93809079D02*
X201112016Y-94047174D01*
X201112016Y-94047174D02*
X201064397Y-94142412D01*
X201064397Y-94142412D02*
X201016778Y-94190032D01*
X201016778Y-94190032D02*
X200921540Y-94237651D01*
X200921540Y-94237651D02*
X200683445Y-94237651D01*
X200683445Y-94237651D02*
X200588207Y-94190032D01*
X200588207Y-94190032D02*
X200540588Y-94142412D01*
X102385746Y-151387699D02*
X102385746Y-150387699D01*
X102385746Y-150863889D02*
X102957174Y-150863889D01*
X102957174Y-151387699D02*
X102957174Y-150387699D01*
X103338127Y-150387699D02*
X103957174Y-150387699D01*
X103957174Y-150387699D02*
X103623841Y-150768651D01*
X103623841Y-150768651D02*
X103766698Y-150768651D01*
X103766698Y-150768651D02*
X103861936Y-150816270D01*
X103861936Y-150816270D02*
X103909555Y-150863889D01*
X103909555Y-150863889D02*
X103957174Y-150959127D01*
X103957174Y-150959127D02*
X103957174Y-151197222D01*
X103957174Y-151197222D02*
X103909555Y-151292460D01*
X103909555Y-151292460D02*
X103861936Y-151340080D01*
X103861936Y-151340080D02*
X103766698Y-151387699D01*
X103766698Y-151387699D02*
X103480984Y-151387699D01*
X103480984Y-151387699D02*
X103385746Y-151340080D01*
X103385746Y-151340080D02*
X103338127Y-151292460D01*
X104576222Y-150387699D02*
X104671460Y-150387699D01*
X104671460Y-150387699D02*
X104766698Y-150435318D01*
X104766698Y-150435318D02*
X104814317Y-150482937D01*
X104814317Y-150482937D02*
X104861936Y-150578175D01*
X104861936Y-150578175D02*
X104909555Y-150768651D01*
X104909555Y-150768651D02*
X104909555Y-151006746D01*
X104909555Y-151006746D02*
X104861936Y-151197222D01*
X104861936Y-151197222D02*
X104814317Y-151292460D01*
X104814317Y-151292460D02*
X104766698Y-151340080D01*
X104766698Y-151340080D02*
X104671460Y-151387699D01*
X104671460Y-151387699D02*
X104576222Y-151387699D01*
X104576222Y-151387699D02*
X104480984Y-151340080D01*
X104480984Y-151340080D02*
X104433365Y-151292460D01*
X104433365Y-151292460D02*
X104385746Y-151197222D01*
X104385746Y-151197222D02*
X104338127Y-151006746D01*
X104338127Y-151006746D02*
X104338127Y-150768651D01*
X104338127Y-150768651D02*
X104385746Y-150578175D01*
X104385746Y-150578175D02*
X104433365Y-150482937D01*
X104433365Y-150482937D02*
X104480984Y-150435318D01*
X104480984Y-150435318D02*
X104576222Y-150387699D01*
X105242889Y-150387699D02*
X105909555Y-150387699D01*
X105909555Y-150387699D02*
X105480984Y-151387699D01*
X202398214Y-46612619D02*
X202398214Y-45612619D01*
X202398214Y-46088809D02*
X202969642Y-46088809D01*
X202969642Y-46612619D02*
X202969642Y-45612619D01*
X203350595Y-45612619D02*
X203969642Y-45612619D01*
X203969642Y-45612619D02*
X203636309Y-45993571D01*
X203636309Y-45993571D02*
X203779166Y-45993571D01*
X203779166Y-45993571D02*
X203874404Y-46041190D01*
X203874404Y-46041190D02*
X203922023Y-46088809D01*
X203922023Y-46088809D02*
X203969642Y-46184047D01*
X203969642Y-46184047D02*
X203969642Y-46422142D01*
X203969642Y-46422142D02*
X203922023Y-46517380D01*
X203922023Y-46517380D02*
X203874404Y-46565000D01*
X203874404Y-46565000D02*
X203779166Y-46612619D01*
X203779166Y-46612619D02*
X203493452Y-46612619D01*
X203493452Y-46612619D02*
X203398214Y-46565000D01*
X203398214Y-46565000D02*
X203350595Y-46517380D01*
X204588690Y-45612619D02*
X204683928Y-45612619D01*
X204683928Y-45612619D02*
X204779166Y-45660238D01*
X204779166Y-45660238D02*
X204826785Y-45707857D01*
X204826785Y-45707857D02*
X204874404Y-45803095D01*
X204874404Y-45803095D02*
X204922023Y-45993571D01*
X204922023Y-45993571D02*
X204922023Y-46231666D01*
X204922023Y-46231666D02*
X204874404Y-46422142D01*
X204874404Y-46422142D02*
X204826785Y-46517380D01*
X204826785Y-46517380D02*
X204779166Y-46565000D01*
X204779166Y-46565000D02*
X204683928Y-46612619D01*
X204683928Y-46612619D02*
X204588690Y-46612619D01*
X204588690Y-46612619D02*
X204493452Y-46565000D01*
X204493452Y-46565000D02*
X204445833Y-46517380D01*
X204445833Y-46517380D02*
X204398214Y-46422142D01*
X204398214Y-46422142D02*
X204350595Y-46231666D01*
X204350595Y-46231666D02*
X204350595Y-45993571D01*
X204350595Y-45993571D02*
X204398214Y-45803095D01*
X204398214Y-45803095D02*
X204445833Y-45707857D01*
X204445833Y-45707857D02*
X204493452Y-45660238D01*
X204493452Y-45660238D02*
X204588690Y-45612619D01*
X205874404Y-46612619D02*
X205302976Y-46612619D01*
X205588690Y-46612619D02*
X205588690Y-45612619D01*
X205588690Y-45612619D02*
X205493452Y-45755476D01*
X205493452Y-45755476D02*
X205398214Y-45850714D01*
X205398214Y-45850714D02*
X205302976Y-45898333D01*
X426236018Y-151387699D02*
X426236018Y-150387699D01*
X426236018Y-150863889D02*
X426807446Y-150863889D01*
X426807446Y-151387699D02*
X426807446Y-150387699D01*
X427188399Y-150387699D02*
X427807446Y-150387699D01*
X427807446Y-150387699D02*
X427474113Y-150768651D01*
X427474113Y-150768651D02*
X427616970Y-150768651D01*
X427616970Y-150768651D02*
X427712208Y-150816270D01*
X427712208Y-150816270D02*
X427759827Y-150863889D01*
X427759827Y-150863889D02*
X427807446Y-150959127D01*
X427807446Y-150959127D02*
X427807446Y-151197222D01*
X427807446Y-151197222D02*
X427759827Y-151292460D01*
X427759827Y-151292460D02*
X427712208Y-151340080D01*
X427712208Y-151340080D02*
X427616970Y-151387699D01*
X427616970Y-151387699D02*
X427331256Y-151387699D01*
X427331256Y-151387699D02*
X427236018Y-151340080D01*
X427236018Y-151340080D02*
X427188399Y-151292460D01*
X428426494Y-150387699D02*
X428521732Y-150387699D01*
X428521732Y-150387699D02*
X428616970Y-150435318D01*
X428616970Y-150435318D02*
X428664589Y-150482937D01*
X428664589Y-150482937D02*
X428712208Y-150578175D01*
X428712208Y-150578175D02*
X428759827Y-150768651D01*
X428759827Y-150768651D02*
X428759827Y-151006746D01*
X428759827Y-151006746D02*
X428712208Y-151197222D01*
X428712208Y-151197222D02*
X428664589Y-151292460D01*
X428664589Y-151292460D02*
X428616970Y-151340080D01*
X428616970Y-151340080D02*
X428521732Y-151387699D01*
X428521732Y-151387699D02*
X428426494Y-151387699D01*
X428426494Y-151387699D02*
X428331256Y-151340080D01*
X428331256Y-151340080D02*
X428283637Y-151292460D01*
X428283637Y-151292460D02*
X428236018Y-151197222D01*
X428236018Y-151197222D02*
X428188399Y-151006746D01*
X428188399Y-151006746D02*
X428188399Y-150768651D01*
X428188399Y-150768651D02*
X428236018Y-150578175D01*
X428236018Y-150578175D02*
X428283637Y-150482937D01*
X428283637Y-150482937D02*
X428331256Y-150435318D01*
X428331256Y-150435318D02*
X428426494Y-150387699D01*
X429236018Y-151387699D02*
X429426494Y-151387699D01*
X429426494Y-151387699D02*
X429521732Y-151340080D01*
X429521732Y-151340080D02*
X429569351Y-151292460D01*
X429569351Y-151292460D02*
X429664589Y-151149603D01*
X429664589Y-151149603D02*
X429712208Y-150959127D01*
X429712208Y-150959127D02*
X429712208Y-150578175D01*
X429712208Y-150578175D02*
X429664589Y-150482937D01*
X429664589Y-150482937D02*
X429616970Y-150435318D01*
X429616970Y-150435318D02*
X429521732Y-150387699D01*
X429521732Y-150387699D02*
X429331256Y-150387699D01*
X429331256Y-150387699D02*
X429236018Y-150435318D01*
X429236018Y-150435318D02*
X429188399Y-150482937D01*
X429188399Y-150482937D02*
X429140780Y-150578175D01*
X429140780Y-150578175D02*
X429140780Y-150816270D01*
X429140780Y-150816270D02*
X429188399Y-150911508D01*
X429188399Y-150911508D02*
X429236018Y-150959127D01*
X429236018Y-150959127D02*
X429331256Y-151006746D01*
X429331256Y-151006746D02*
X429521732Y-151006746D01*
X429521732Y-151006746D02*
X429616970Y-150959127D01*
X429616970Y-150959127D02*
X429664589Y-150911508D01*
X429664589Y-150911508D02*
X429712208Y-150816270D01*
X79763852Y-94237651D02*
X79763852Y-93237651D01*
X79763852Y-93713841D02*
X80335280Y-93713841D01*
X80335280Y-94237651D02*
X80335280Y-93237651D01*
X80716233Y-93237651D02*
X81335280Y-93237651D01*
X81335280Y-93237651D02*
X81001947Y-93618603D01*
X81001947Y-93618603D02*
X81144804Y-93618603D01*
X81144804Y-93618603D02*
X81240042Y-93666222D01*
X81240042Y-93666222D02*
X81287661Y-93713841D01*
X81287661Y-93713841D02*
X81335280Y-93809079D01*
X81335280Y-93809079D02*
X81335280Y-94047174D01*
X81335280Y-94047174D02*
X81287661Y-94142412D01*
X81287661Y-94142412D02*
X81240042Y-94190032D01*
X81240042Y-94190032D02*
X81144804Y-94237651D01*
X81144804Y-94237651D02*
X80859090Y-94237651D01*
X80859090Y-94237651D02*
X80763852Y-94190032D01*
X80763852Y-94190032D02*
X80716233Y-94142412D01*
X81954328Y-93237651D02*
X82049566Y-93237651D01*
X82049566Y-93237651D02*
X82144804Y-93285270D01*
X82144804Y-93285270D02*
X82192423Y-93332889D01*
X82192423Y-93332889D02*
X82240042Y-93428127D01*
X82240042Y-93428127D02*
X82287661Y-93618603D01*
X82287661Y-93618603D02*
X82287661Y-93856698D01*
X82287661Y-93856698D02*
X82240042Y-94047174D01*
X82240042Y-94047174D02*
X82192423Y-94142412D01*
X82192423Y-94142412D02*
X82144804Y-94190032D01*
X82144804Y-94190032D02*
X82049566Y-94237651D01*
X82049566Y-94237651D02*
X81954328Y-94237651D01*
X81954328Y-94237651D02*
X81859090Y-94190032D01*
X81859090Y-94190032D02*
X81811471Y-94142412D01*
X81811471Y-94142412D02*
X81763852Y-94047174D01*
X81763852Y-94047174D02*
X81716233Y-93856698D01*
X81716233Y-93856698D02*
X81716233Y-93618603D01*
X81716233Y-93618603D02*
X81763852Y-93428127D01*
X81763852Y-93428127D02*
X81811471Y-93332889D01*
X81811471Y-93332889D02*
X81859090Y-93285270D01*
X81859090Y-93285270D02*
X81954328Y-93237651D01*
X83144804Y-93570984D02*
X83144804Y-94237651D01*
X82906709Y-93190032D02*
X82668614Y-93904317D01*
X82668614Y-93904317D02*
X83287661Y-93904317D01*
X323714285Y-51137619D02*
X323714285Y-51851904D01*
X323714285Y-51851904D02*
X323666666Y-51994761D01*
X323666666Y-51994761D02*
X323571428Y-52090000D01*
X323571428Y-52090000D02*
X323428571Y-52137619D01*
X323428571Y-52137619D02*
X323333333Y-52137619D01*
X324095238Y-51137619D02*
X324761904Y-51137619D01*
X324761904Y-51137619D02*
X324333333Y-52137619D01*
X325333333Y-51137619D02*
X325428571Y-51137619D01*
X325428571Y-51137619D02*
X325523809Y-51185238D01*
X325523809Y-51185238D02*
X325571428Y-51232857D01*
X325571428Y-51232857D02*
X325619047Y-51328095D01*
X325619047Y-51328095D02*
X325666666Y-51518571D01*
X325666666Y-51518571D02*
X325666666Y-51756666D01*
X325666666Y-51756666D02*
X325619047Y-51947142D01*
X325619047Y-51947142D02*
X325571428Y-52042380D01*
X325571428Y-52042380D02*
X325523809Y-52090000D01*
X325523809Y-52090000D02*
X325428571Y-52137619D01*
X325428571Y-52137619D02*
X325333333Y-52137619D01*
X325333333Y-52137619D02*
X325238095Y-52090000D01*
X325238095Y-52090000D02*
X325190476Y-52042380D01*
X325190476Y-52042380D02*
X325142857Y-51947142D01*
X325142857Y-51947142D02*
X325095238Y-51756666D01*
X325095238Y-51756666D02*
X325095238Y-51518571D01*
X325095238Y-51518571D02*
X325142857Y-51328095D01*
X325142857Y-51328095D02*
X325190476Y-51232857D01*
X325190476Y-51232857D02*
X325238095Y-51185238D01*
X325238095Y-51185238D02*
X325333333Y-51137619D01*
X326523809Y-51137619D02*
X326333333Y-51137619D01*
X326333333Y-51137619D02*
X326238095Y-51185238D01*
X326238095Y-51185238D02*
X326190476Y-51232857D01*
X326190476Y-51232857D02*
X326095238Y-51375714D01*
X326095238Y-51375714D02*
X326047619Y-51566190D01*
X326047619Y-51566190D02*
X326047619Y-51947142D01*
X326047619Y-51947142D02*
X326095238Y-52042380D01*
X326095238Y-52042380D02*
X326142857Y-52090000D01*
X326142857Y-52090000D02*
X326238095Y-52137619D01*
X326238095Y-52137619D02*
X326428571Y-52137619D01*
X326428571Y-52137619D02*
X326523809Y-52090000D01*
X326523809Y-52090000D02*
X326571428Y-52042380D01*
X326571428Y-52042380D02*
X326619047Y-51947142D01*
X326619047Y-51947142D02*
X326619047Y-51709047D01*
X326619047Y-51709047D02*
X326571428Y-51613809D01*
X326571428Y-51613809D02*
X326523809Y-51566190D01*
X326523809Y-51566190D02*
X326428571Y-51518571D01*
X326428571Y-51518571D02*
X326238095Y-51518571D01*
X326238095Y-51518571D02*
X326142857Y-51566190D01*
X326142857Y-51566190D02*
X326095238Y-51613809D01*
X326095238Y-51613809D02*
X326047619Y-51709047D01*
X373491071Y-76135119D02*
X373014881Y-76135119D01*
X373014881Y-76135119D02*
X373014881Y-75135119D01*
X373824405Y-75611309D02*
X374157738Y-75611309D01*
X374300595Y-76135119D02*
X373824405Y-76135119D01*
X373824405Y-76135119D02*
X373824405Y-75135119D01*
X373824405Y-75135119D02*
X374300595Y-75135119D01*
X374729167Y-76135119D02*
X374729167Y-75135119D01*
X374729167Y-75135119D02*
X374967262Y-75135119D01*
X374967262Y-75135119D02*
X375110119Y-75182738D01*
X375110119Y-75182738D02*
X375205357Y-75277976D01*
X375205357Y-75277976D02*
X375252976Y-75373214D01*
X375252976Y-75373214D02*
X375300595Y-75563690D01*
X375300595Y-75563690D02*
X375300595Y-75706547D01*
X375300595Y-75706547D02*
X375252976Y-75897023D01*
X375252976Y-75897023D02*
X375205357Y-75992261D01*
X375205357Y-75992261D02*
X375110119Y-76087500D01*
X375110119Y-76087500D02*
X374967262Y-76135119D01*
X374967262Y-76135119D02*
X374729167Y-76135119D01*
X375681548Y-75230357D02*
X375729167Y-75182738D01*
X375729167Y-75182738D02*
X375824405Y-75135119D01*
X375824405Y-75135119D02*
X376062500Y-75135119D01*
X376062500Y-75135119D02*
X376157738Y-75182738D01*
X376157738Y-75182738D02*
X376205357Y-75230357D01*
X376205357Y-75230357D02*
X376252976Y-75325595D01*
X376252976Y-75325595D02*
X376252976Y-75420833D01*
X376252976Y-75420833D02*
X376205357Y-75563690D01*
X376205357Y-75563690D02*
X375633929Y-76135119D01*
X375633929Y-76135119D02*
X376252976Y-76135119D01*
X376872024Y-75135119D02*
X376967262Y-75135119D01*
X376967262Y-75135119D02*
X377062500Y-75182738D01*
X377062500Y-75182738D02*
X377110119Y-75230357D01*
X377110119Y-75230357D02*
X377157738Y-75325595D01*
X377157738Y-75325595D02*
X377205357Y-75516071D01*
X377205357Y-75516071D02*
X377205357Y-75754166D01*
X377205357Y-75754166D02*
X377157738Y-75944642D01*
X377157738Y-75944642D02*
X377110119Y-76039880D01*
X377110119Y-76039880D02*
X377062500Y-76087500D01*
X377062500Y-76087500D02*
X376967262Y-76135119D01*
X376967262Y-76135119D02*
X376872024Y-76135119D01*
X376872024Y-76135119D02*
X376776786Y-76087500D01*
X376776786Y-76087500D02*
X376729167Y-76039880D01*
X376729167Y-76039880D02*
X376681548Y-75944642D01*
X376681548Y-75944642D02*
X376633929Y-75754166D01*
X376633929Y-75754166D02*
X376633929Y-75516071D01*
X376633929Y-75516071D02*
X376681548Y-75325595D01*
X376681548Y-75325595D02*
X376729167Y-75230357D01*
X376729167Y-75230357D02*
X376776786Y-75182738D01*
X376776786Y-75182738D02*
X376872024Y-75135119D01*
X377538691Y-75135119D02*
X378157738Y-75135119D01*
X378157738Y-75135119D02*
X377824405Y-75516071D01*
X377824405Y-75516071D02*
X377967262Y-75516071D01*
X377967262Y-75516071D02*
X378062500Y-75563690D01*
X378062500Y-75563690D02*
X378110119Y-75611309D01*
X378110119Y-75611309D02*
X378157738Y-75706547D01*
X378157738Y-75706547D02*
X378157738Y-75944642D01*
X378157738Y-75944642D02*
X378110119Y-76039880D01*
X378110119Y-76039880D02*
X378062500Y-76087500D01*
X378062500Y-76087500D02*
X377967262Y-76135119D01*
X377967262Y-76135119D02*
X377681548Y-76135119D01*
X377681548Y-76135119D02*
X377586310Y-76087500D01*
X377586310Y-76087500D02*
X377538691Y-76039880D01*
X445809524Y-170462619D02*
X445809524Y-169462619D01*
X445809524Y-169938809D02*
X446380952Y-169938809D01*
X446380952Y-170462619D02*
X446380952Y-169462619D01*
X446809524Y-170176904D02*
X447285714Y-170176904D01*
X446714286Y-170462619D02*
X447047619Y-169462619D01*
X447047619Y-169462619D02*
X447380952Y-170462619D01*
X448142857Y-169795952D02*
X448142857Y-170462619D01*
X447904762Y-169415000D02*
X447666667Y-170129285D01*
X447666667Y-170129285D02*
X448285714Y-170129285D01*
X102385714Y-46612619D02*
X102385714Y-45612619D01*
X102385714Y-46088809D02*
X102957142Y-46088809D01*
X102957142Y-46612619D02*
X102957142Y-45612619D01*
X103338095Y-45612619D02*
X103957142Y-45612619D01*
X103957142Y-45612619D02*
X103623809Y-45993571D01*
X103623809Y-45993571D02*
X103766666Y-45993571D01*
X103766666Y-45993571D02*
X103861904Y-46041190D01*
X103861904Y-46041190D02*
X103909523Y-46088809D01*
X103909523Y-46088809D02*
X103957142Y-46184047D01*
X103957142Y-46184047D02*
X103957142Y-46422142D01*
X103957142Y-46422142D02*
X103909523Y-46517380D01*
X103909523Y-46517380D02*
X103861904Y-46565000D01*
X103861904Y-46565000D02*
X103766666Y-46612619D01*
X103766666Y-46612619D02*
X103480952Y-46612619D01*
X103480952Y-46612619D02*
X103385714Y-46565000D01*
X103385714Y-46565000D02*
X103338095Y-46517380D01*
X104576190Y-45612619D02*
X104671428Y-45612619D01*
X104671428Y-45612619D02*
X104766666Y-45660238D01*
X104766666Y-45660238D02*
X104814285Y-45707857D01*
X104814285Y-45707857D02*
X104861904Y-45803095D01*
X104861904Y-45803095D02*
X104909523Y-45993571D01*
X104909523Y-45993571D02*
X104909523Y-46231666D01*
X104909523Y-46231666D02*
X104861904Y-46422142D01*
X104861904Y-46422142D02*
X104814285Y-46517380D01*
X104814285Y-46517380D02*
X104766666Y-46565000D01*
X104766666Y-46565000D02*
X104671428Y-46612619D01*
X104671428Y-46612619D02*
X104576190Y-46612619D01*
X104576190Y-46612619D02*
X104480952Y-46565000D01*
X104480952Y-46565000D02*
X104433333Y-46517380D01*
X104433333Y-46517380D02*
X104385714Y-46422142D01*
X104385714Y-46422142D02*
X104338095Y-46231666D01*
X104338095Y-46231666D02*
X104338095Y-45993571D01*
X104338095Y-45993571D02*
X104385714Y-45803095D01*
X104385714Y-45803095D02*
X104433333Y-45707857D01*
X104433333Y-45707857D02*
X104480952Y-45660238D01*
X104480952Y-45660238D02*
X104576190Y-45612619D01*
X105528571Y-45612619D02*
X105623809Y-45612619D01*
X105623809Y-45612619D02*
X105719047Y-45660238D01*
X105719047Y-45660238D02*
X105766666Y-45707857D01*
X105766666Y-45707857D02*
X105814285Y-45803095D01*
X105814285Y-45803095D02*
X105861904Y-45993571D01*
X105861904Y-45993571D02*
X105861904Y-46231666D01*
X105861904Y-46231666D02*
X105814285Y-46422142D01*
X105814285Y-46422142D02*
X105766666Y-46517380D01*
X105766666Y-46517380D02*
X105719047Y-46565000D01*
X105719047Y-46565000D02*
X105623809Y-46612619D01*
X105623809Y-46612619D02*
X105528571Y-46612619D01*
X105528571Y-46612619D02*
X105433333Y-46565000D01*
X105433333Y-46565000D02*
X105385714Y-46517380D01*
X105385714Y-46517380D02*
X105338095Y-46422142D01*
X105338095Y-46422142D02*
X105290476Y-46231666D01*
X105290476Y-46231666D02*
X105290476Y-45993571D01*
X105290476Y-45993571D02*
X105338095Y-45803095D01*
X105338095Y-45803095D02*
X105385714Y-45707857D01*
X105385714Y-45707857D02*
X105433333Y-45660238D01*
X105433333Y-45660238D02*
X105528571Y-45612619D01*
D15*
X80545000Y-33815000D02*
X80080000Y-33815000D01*
X77920000Y-33815000D02*
X77455000Y-33815000D01*
X80080827Y-39162814D02*
G75*
G03*
X80544830Y-33815001I-1080827J2787814D01*
G01*
X80080428Y-38629478D02*
G75*
G03*
X80080000Y-34120317I-1080428J2254478D01*
G01*
X77920000Y-34120316D02*
G75*
G03*
X77919571Y-38629479I1080000J-2254684D01*
G01*
X77455170Y-33815001D02*
G75*
G03*
X77919173Y-39162814I1544830J-2559999D01*
G01*
X339022500Y-73948500D02*
X339022500Y-73792500D01*
X339022500Y-71632500D02*
X339022500Y-71476500D01*
X335790166Y-73791108D02*
G75*
G03*
X339022499Y-73948015I1672334J1078608D01*
G01*
X336421371Y-73792336D02*
G75*
G03*
X338503460Y-73792499I1041129J1079836D01*
G01*
X338503460Y-71632501D02*
G75*
G03*
X336421371Y-71632664I-1040960J-1079999D01*
G01*
X339022499Y-71476985D02*
G75*
G03*
X335790166Y-71633892I-1559999J-1235515D01*
G01*
X358072500Y-73948500D02*
X358072500Y-73792500D01*
X358072500Y-71632500D02*
X358072500Y-71476500D01*
X354840166Y-73791108D02*
G75*
G03*
X358072499Y-73948015I1672334J1078608D01*
G01*
X355471371Y-73792336D02*
G75*
G03*
X357553460Y-73792499I1041129J1079836D01*
G01*
X357553460Y-71632501D02*
G75*
G03*
X355471371Y-71632664I-1040960J-1079999D01*
G01*
X358072499Y-71476985D02*
G75*
G03*
X354840166Y-71633892I-1559999J-1235515D01*
G01*
X293250000Y-147650000D02*
X294750000Y-147650000D01*
X297250000Y-146400000D02*
X297250000Y-141900000D01*
X290750000Y-141900000D02*
X290750000Y-146400000D01*
X294750000Y-140650000D02*
X293250000Y-140650000D01*
X81555000Y-29620000D02*
X76415000Y-29620000D01*
X81555000Y-29620000D02*
X81555000Y-32280000D01*
X76415000Y-29620000D02*
X76415000Y-32280000D01*
X84155000Y-30950000D02*
X84155000Y-32280000D01*
X84155000Y-32280000D02*
X82825000Y-32280000D01*
X81555000Y-32280000D02*
X76415000Y-32280000D01*
X321785625Y-37757500D02*
X321785625Y-50577500D01*
X321785625Y-37757500D02*
X324385625Y-37757500D01*
X321785625Y-50577500D02*
X326985625Y-50577500D01*
X324385625Y-37757500D02*
X324385625Y-40357500D01*
X324385625Y-40357500D02*
X326985625Y-40357500D01*
X325655625Y-37757500D02*
X326985625Y-37757500D01*
X326985625Y-37757500D02*
X326985625Y-39087500D01*
X326985625Y-40357500D02*
X326985625Y-50577500D01*
X377122500Y-73948500D02*
X377122500Y-73792500D01*
X377122500Y-71632500D02*
X377122500Y-71476500D01*
X373890166Y-73791108D02*
G75*
G03*
X377122499Y-73948015I1672334J1078608D01*
G01*
X374521371Y-73792336D02*
G75*
G03*
X376603460Y-73792499I1041129J1079836D01*
G01*
X376603460Y-71632501D02*
G75*
G03*
X374521371Y-71632664I-1040960J-1079999D01*
G01*
X377122499Y-71476985D02*
G75*
G03*
X373890166Y-71633892I-1559999J-1235515D01*
G01*
D14*
X71400000Y-30175000D02*
X68400000Y-30175000D01*
X63600000Y-30175000D02*
X60600000Y-30175000D01*
X72200000Y-30975000D02*
X72200000Y-33175000D01*
X59800000Y-30975000D02*
X59800000Y-32975000D01*
X72200000Y-41775000D02*
X72200000Y-39575000D01*
X59800000Y-41775000D02*
X59800000Y-39575000D01*
X71400000Y-42575000D02*
X68400000Y-42575000D01*
X63600000Y-42575000D02*
X60600000Y-42575000D01*
X72200000Y-30975000D02*
G75*
G03*
X71400000Y-30175000I-800001J-1D01*
G01*
X60600000Y-30175000D02*
G75*
G03*
X59800000Y-30975000I1J-800001D01*
G01*
X71400000Y-42575000D02*
G75*
G03*
X72200000Y-41775000I0J800000D01*
G01*
X59800000Y-41775000D02*
G75*
G03*
X60600000Y-42575000I800000J0D01*
G01*
M02*
