0
SECTION
2
HEADER
9
$INSUNITS
70
4
0
ENDSEC
0
SECTION
2
TABLES
0
TABLE
2
LTYPE
0
LTYPE
72
65
70
64
2
CONTINUOUS
3
______
73
0
40
0
0
ENDTAB
0
TABLE
2
LAYER
0
ENDTAB
0
ENDSEC
0
SECTION
2
ENTITIES
0
LINE
8
0
10
31.6
20
-2.525
11
44.6
21
-2.525
0
LINE
8
0
10
31.6
20
-16.525
11
44.6
21
-16.525
0
LINE
8
0
10
31.1
20
-3.025
11
31.1
21
-16.025
0
LINE
8
0
10
45.1
20
-3.025
11
45.1
21
-16.025
0
ARC
8
0
10
31.6
20
-3.025
40
0.5
50
90
51
180
0
ARC
8
0
10
44.6
20
-3.025
40
0.5
50
0
51
90
0
ARC
8
0
10
31.6
20
-16.025
40
0.5
50
180
51
270
0
ARC
8
0
10
44.6
20
-16.025
40
0.5
50
270
51
0
0
LINE
8
0
10
50.65
20
-2.525
11
63.65
21
-2.525
0
LINE
8
0
10
50.65
20
-16.525
11
63.65
21
-16.525
0
LINE
8
0
10
50.15
20
-3.025
11
50.15
21
-16.025
0
LINE
8
0
10
64.15
20
-3.025
11
64.15
21
-16.025
0
ARC
8
0
10
50.65
20
-3.025
40
0.5
50
90
51
180
0
ARC
8
0
10
63.65
20
-3.025
40
0.5
50
0
51
90
0
ARC
8
0
10
50.65
20
-16.025
40
0.5
50
180
51
270
0
ARC
8
0
10
63.65
20
-16.025
40
0.5
50
270
51
0
0
LINE
8
0
10
69.7
20
-2.525
11
82.7
21
-2.525
0
LINE
8
0
10
69.7
20
-16.525
11
82.7
21
-16.525
0
LINE
8
0
10
69.2
20
-3.025
11
69.2
21
-16.025
0
LINE
8
0
10
83.2
20
-3.025
11
83.2
21
-16.025
0
ARC
8
0
10
69.7
20
-3.025
40
0.5
50
90
51
180
0
ARC
8
0
10
82.7
20
-3.025
40
0.5
50
0
51
90
0
ARC
8
0
10
69.7
20
-16.025
40
0.5
50
180
51
270
0
ARC
8
0
10
82.7
20
-16.025
40
0.5
50
270
51
0
0
LINE
8
0
10
88.75
20
-2.525
11
101.75
21
-2.525
0
LINE
8
0
10
88.75
20
-16.525
11
101.75
21
-16.525
0
LINE
8
0
10
88.25
20
-3.025
11
88.25
21
-16.025
0
LINE
8
0
10
102.25
20
-3.025
11
102.25
21
-16.025
0
ARC
8
0
10
88.75
20
-3.025
40
0.5
50
90
51
180
0
ARC
8
0
10
101.75
20
-3.025
40
0.5
50
0
51
90
0
ARC
8
0
10
88.75
20
-16.025
40
0.5
50
180
51
270
0
ARC
8
0
10
101.75
20
-16.025
40
0.5
50
270
51
0
0
LINE
8
0
10
112.5625
20
-2.525
11
125.5625
21
-2.525
0
LINE
8
0
10
112.5625
20
-16.525
11
125.5625
21
-16.525
0
LINE
8
0
10
112.0625
20
-3.025
11
112.0625
21
-16.025
0
LINE
8
0
10
126.0625
20
-3.025
11
126.0625
21
-16.025
0
ARC
8
0
10
112.5625
20
-3.025
40
0.5
50
90
51
180
0
ARC
8
0
10
125.5625
20
-3.025
40
0.5
50
0
51
90
0
ARC
8
0
10
112.5625
20
-16.025
40
0.5
50
180
51
270
0
ARC
8
0
10
125.5625
20
-16.025
40
0.5
50
270
51
0
0
LINE
8
0
10
131.6125
20
-2.525
11
144.6125
21
-2.525
0
LINE
8
0
10
131.6125
20
-16.525
11
144.6125
21
-16.525
0
LINE
8
0
10
131.1125
20
-3.025
11
131.1125
21
-16.025
0
LINE
8
0
10
145.1125
20
-3.025
11
145.1125
21
-16.025
0
ARC
8
0
10
131.6125
20
-3.025
40
0.5
50
90
51
180
0
ARC
8
0
10
144.6125
20
-3.025
40
0.5
50
0
51
90
0
ARC
8
0
10
131.6125
20
-16.025
40
0.5
50
180
51
270
0
ARC
8
0
10
144.6125
20
-16.025
40
0.5
50
270
51
0
0
LINE
8
0
10
150.6625
20
-2.525
11
163.6625
21
-2.525
0
LINE
8
0
10
150.6625
20
-16.525
11
163.6625
21
-16.525
0
LINE
8
0
10
150.1625
20
-3.025
11
150.1625
21
-16.025
0
LINE
8
0
10
164.1625
20
-3.025
11
164.1625
21
-16.025
0
ARC
8
0
10
150.6625
20
-3.025
40
0.5
50
90
51
180
0
ARC
8
0
10
163.6625
20
-3.025
40
0.5
50
0
51
90
0
ARC
8
0
10
150.6625
20
-16.025
40
0.5
50
180
51
270
0
ARC
8
0
10
163.6625
20
-16.025
40
0.5
50
270
51
0
0
LINE
8
0
10
169.7125
20
-2.525
11
182.7125
21
-2.525
0
LINE
8
0
10
169.7125
20
-16.525
11
182.7125
21
-16.525
0
LINE
8
0
10
169.2125
20
-3.025
11
169.2125
21
-16.025
0
LINE
8
0
10
183.2125
20
-3.025
11
183.2125
21
-16.025
0
ARC
8
0
10
169.7125
20
-3.025
40
0.5
50
90
51
180
0
ARC
8
0
10
182.7125
20
-3.025
40
0.5
50
0
51
90
0
ARC
8
0
10
169.7125
20
-16.025
40
0.5
50
180
51
270
0
ARC
8
0
10
182.7125
20
-16.025
40
0.5
50
270
51
0
0
LINE
8
0
10
193.525
20
-2.525
11
206.525
21
-2.525
0
LINE
8
0
10
193.525
20
-16.525
11
206.525
21
-16.525
0
LINE
8
0
10
193.025
20
-3.025
11
193.025
21
-16.025
0
LINE
8
0
10
207.025
20
-3.025
11
207.025
21
-16.025
0
ARC
8
0
10
193.525
20
-3.025
40
0.5
50
90
51
180
0
ARC
8
0
10
206.525
20
-3.025
40
0.5
50
0
51
90
0
ARC
8
0
10
193.525
20
-16.025
40
0.5
50
180
51
270
0
ARC
8
0
10
206.525
20
-16.025
40
0.5
50
270
51
0
0
LINE
8
0
10
212.575
20
-2.525
11
225.575
21
-2.525
0
LINE
8
0
10
212.575
20
-16.525
11
225.575
21
-16.525
0
LINE
8
0
10
212.075
20
-3.025
11
212.075
21
-16.025
0
LINE
8
0
10
226.075
20
-3.025
11
226.075
21
-16.025
0
ARC
8
0
10
212.575
20
-3.025
40
0.5
50
90
51
180
0
ARC
8
0
10
225.575
20
-3.025
40
0.5
50
0
51
90
0
ARC
8
0
10
212.575
20
-16.025
40
0.5
50
180
51
270
0
ARC
8
0
10
225.575
20
-16.025
40
0.5
50
270
51
0
0
LINE
8
0
10
231.625
20
-2.525
11
244.625
21
-2.525
0
LINE
8
0
10
231.625
20
-16.525
11
244.625
21
-16.525
0
LINE
8
0
10
231.125
20
-3.025
11
231.125
21
-16.025
0
LINE
8
0
10
245.125
20
-3.025
11
245.125
21
-16.025
0
ARC
8
0
10
231.625
20
-3.025
40
0.5
50
90
51
180
0
ARC
8
0
10
244.625
20
-3.025
40
0.5
50
0
51
90
0
ARC
8
0
10
231.625
20
-16.025
40
0.5
50
180
51
270
0
ARC
8
0
10
244.625
20
-16.025
40
0.5
50
270
51
0
0
LINE
8
0
10
250.675
20
-2.525
11
263.675
21
-2.525
0
LINE
8
0
10
250.675
20
-16.525
11
263.675
21
-16.525
0
LINE
8
0
10
250.175
20
-3.025
11
250.175
21
-16.025
0
LINE
8
0
10
264.175
20
-3.025
11
264.175
21
-16.025
0
ARC
8
0
10
250.675
20
-3.025
40
0.5
50
90
51
180
0
ARC
8
0
10
263.675
20
-3.025
40
0.5
50
0
51
90
0
ARC
8
0
10
250.675
20
-16.025
40
0.5
50
180
51
270
0
ARC
8
0
10
263.675
20
-16.025
40
0.5
50
270
51
0
0
LINE
8
0
10
274.4875
20
-2.525
11
287.4875
21
-2.525
0
LINE
8
0
10
274.4875
20
-16.525
11
287.4875
21
-16.525
0
LINE
8
0
10
273.9875
20
-3.025
11
273.9875
21
-16.025
0
LINE
8
0
10
287.9875
20
-3.025
11
287.9875
21
-16.025
0
ARC
8
0
10
274.4875
20
-3.025
40
0.5
50
90
51
180
0
ARC
8
0
10
287.4875
20
-3.025
40
0.5
50
0
51
90
0
ARC
8
0
10
274.4875
20
-16.025
40
0.5
50
180
51
270
0
ARC
8
0
10
287.4875
20
-16.025
40
0.5
50
270
51
0
0
LINE
8
0
10
293.5375
20
-2.525
11
306.5375
21
-2.525
0
LINE
8
0
10
293.5375
20
-16.525
11
306.5375
21
-16.525
0
LINE
8
0
10
293.0375
20
-3.025
11
293.0375
21
-16.025
0
LINE
8
0
10
307.0375
20
-3.025
11
307.0375
21
-16.025
0
ARC
8
0
10
293.5375
20
-3.025
40
0.5
50
90
51
180
0
ARC
8
0
10
306.5375
20
-3.025
40
0.5
50
0
51
90
0
ARC
8
0
10
293.5375
20
-16.025
40
0.5
50
180
51
270
0
ARC
8
0
10
306.5375
20
-16.025
40
0.5
50
270
51
0
0
LINE
8
0
10
312.5875
20
-2.525
11
325.5875
21
-2.525
0
LINE
8
0
10
312.5875
20
-16.525
11
325.5875
21
-16.525
0
LINE
8
0
10
312.0875
20
-3.025
11
312.0875
21
-16.025
0
LINE
8
0
10
326.0875
20
-3.025
11
326.0875
21
-16.025
0
ARC
8
0
10
312.5875
20
-3.025
40
0.5
50
90
51
180
0
ARC
8
0
10
325.5875
20
-3.025
40
0.5
50
0
51
90
0
ARC
8
0
10
312.5875
20
-16.025
40
0.5
50
180
51
270
0
ARC
8
0
10
325.5875
20
-16.025
40
0.5
50
270
51
0
0
LINE
8
0
10
336.4
20
-2.525
11
349.4
21
-2.525
0
LINE
8
0
10
336.4
20
-16.525
11
349.4
21
-16.525
0
LINE
8
0
10
335.9
20
-3.025
11
335.9
21
-16.025
0
LINE
8
0
10
349.9
20
-3.025
11
349.9
21
-16.025
0
ARC
8
0
10
336.4
20
-3.025
40
0.5
50
90
51
180
0
ARC
8
0
10
349.4
20
-3.025
40
0.5
50
0
51
90
0
ARC
8
0
10
336.4
20
-16.025
40
0.5
50
180
51
270
0
ARC
8
0
10
349.4
20
-16.025
40
0.5
50
270
51
0
0
LINE
8
0
10
355.45
20
-2.525
11
368.45
21
-2.525
0
LINE
8
0
10
355.45
20
-16.525
11
368.45
21
-16.525
0
LINE
8
0
10
354.95
20
-3.025
11
354.95
21
-16.025
0
LINE
8
0
10
368.95
20
-3.025
11
368.95
21
-16.025
0
ARC
8
0
10
355.45
20
-3.025
40
0.5
50
90
51
180
0
ARC
8
0
10
368.45
20
-3.025
40
0.5
50
0
51
90
0
ARC
8
0
10
355.45
20
-16.025
40
0.5
50
180
51
270
0
ARC
8
0
10
368.45
20
-16.025
40
0.5
50
270
51
0
0
LINE
8
0
10
374.5
20
-2.525
11
387.5
21
-2.525
0
LINE
8
0
10
374.5
20
-16.525
11
387.5
21
-16.525
0
LINE
8
0
10
374
20
-3.025
11
374
21
-16.025
0
LINE
8
0
10
388
20
-3.025
11
388
21
-16.025
0
ARC
8
0
10
374.5
20
-3.025
40
0.5
50
90
51
180
0
ARC
8
0
10
387.5
20
-3.025
40
0.5
50
0
51
90
0
ARC
8
0
10
374.5
20
-16.025
40
0.5
50
180
51
270
0
ARC
8
0
10
387.5
20
-16.025
40
0.5
50
270
51
0
0
LINE
8
0
10
3.025
20
-21.575
11
16.025
21
-21.575
0
LINE
8
0
10
3.025
20
-35.575
11
16.025
21
-35.575
0
LINE
8
0
10
2.525
20
-22.075
11
2.525
21
-35.075
0
LINE
8
0
10
16.525
20
-22.075
11
16.525
21
-35.075
0
ARC
8
0
10
3.025
20
-22.075
40
0.5
50
90
51
180
0
ARC
8
0
10
16.025
20
-22.075
40
0.5
50
0
51
90
0
ARC
8
0
10
3.025
20
-35.075
40
0.5
50
180
51
270
0
ARC
8
0
10
16.025
20
-35.075
40
0.5
50
270
51
0
0
LINE
8
0
10
31.6
20
-21.575
11
44.6
21
-21.575
0
LINE
8
0
10
31.6
20
-35.575
11
44.6
21
-35.575
0
LINE
8
0
10
31.1
20
-22.075
11
31.1
21
-35.075
0
LINE
8
0
10
45.1
20
-22.075
11
45.1
21
-35.075
0
ARC
8
0
10
31.6
20
-22.075
40
0.5
50
90
51
180
0
ARC
8
0
10
44.6
20
-22.075
40
0.5
50
0
51
90
0
ARC
8
0
10
31.6
20
-35.075
40
0.5
50
180
51
270
0
ARC
8
0
10
44.6
20
-35.075
40
0.5
50
270
51
0
0
LINE
8
0
10
50.65
20
-21.575
11
63.65
21
-21.575
0
LINE
8
0
10
50.65
20
-35.575
11
63.65
21
-35.575
0
LINE
8
0
10
50.15
20
-22.075
11
50.15
21
-35.075
0
LINE
8
0
10
64.15
20
-22.075
11
64.15
21
-35.075
0
ARC
8
0
10
50.65
20
-22.075
40
0.5
50
90
51
180
0
ARC
8
0
10
63.65
20
-22.075
40
0.5
50
0
51
90
0
ARC
8
0
10
50.65
20
-35.075
40
0.5
50
180
51
270
0
ARC
8
0
10
63.65
20
-35.075
40
0.5
50
270
51
0
0
LINE
8
0
10
69.7
20
-21.575
11
82.7
21
-21.575
0
LINE
8
0
10
69.7
20
-35.575
11
82.7
21
-35.575
0
LINE
8
0
10
69.2
20
-22.075
11
69.2
21
-35.075
0
LINE
8
0
10
83.2
20
-22.075
11
83.2
21
-35.075
0
ARC
8
0
10
69.7
20
-22.075
40
0.5
50
90
51
180
0
ARC
8
0
10
82.7
20
-22.075
40
0.5
50
0
51
90
0
ARC
8
0
10
69.7
20
-35.075
40
0.5
50
180
51
270
0
ARC
8
0
10
82.7
20
-35.075
40
0.5
50
270
51
0
0
LINE
8
0
10
88.75
20
-21.575
11
101.75
21
-21.575
0
LINE
8
0
10
88.75
20
-35.575
11
101.75
21
-35.575
0
LINE
8
0
10
88.25
20
-22.075
11
88.25
21
-35.075
0
LINE
8
0
10
102.25
20
-22.075
11
102.25
21
-35.075
0
ARC
8
0
10
88.75
20
-22.075
40
0.5
50
90
51
180
0
ARC
8
0
10
101.75
20
-22.075
40
0.5
50
0
51
90
0
ARC
8
0
10
88.75
20
-35.075
40
0.5
50
180
51
270
0
ARC
8
0
10
101.75
20
-35.075
40
0.5
50
270
51
0
0
LINE
8
0
10
112.5625
20
-21.575
11
125.5625
21
-21.575
0
LINE
8
0
10
112.5625
20
-35.575
11
125.5625
21
-35.575
0
LINE
8
0
10
112.0625
20
-22.075
11
112.0625
21
-35.075
0
LINE
8
0
10
126.0625
20
-22.075
11
126.0625
21
-35.075
0
ARC
8
0
10
112.5625
20
-22.075
40
0.5
50
90
51
180
0
ARC
8
0
10
125.5625
20
-22.075
40
0.5
50
0
51
90
0
ARC
8
0
10
112.5625
20
-35.075
40
0.5
50
180
51
270
0
ARC
8
0
10
125.5625
20
-35.075
40
0.5
50
270
51
0
0
LINE
8
0
10
131.6125
20
-21.575
11
144.6125
21
-21.575
0
LINE
8
0
10
131.6125
20
-35.575
11
144.6125
21
-35.575
0
LINE
8
0
10
131.1125
20
-22.075
11
131.1125
21
-35.075
0
LINE
8
0
10
145.1125
20
-22.075
11
145.1125
21
-35.075
0
ARC
8
0
10
131.6125
20
-22.075
40
0.5
50
90
51
180
0
ARC
8
0
10
144.6125
20
-22.075
40
0.5
50
0
51
90
0
ARC
8
0
10
131.6125
20
-35.075
40
0.5
50
180
51
270
0
ARC
8
0
10
144.6125
20
-35.075
40
0.5
50
270
51
0
0
LINE
8
0
10
150.6625
20
-21.575
11
163.6625
21
-21.575
0
LINE
8
0
10
150.6625
20
-35.575
11
163.6625
21
-35.575
0
LINE
8
0
10
150.1625
20
-22.075
11
150.1625
21
-35.075
0
LINE
8
0
10
164.1625
20
-22.075
11
164.1625
21
-35.075
0
ARC
8
0
10
150.6625
20
-22.075
40
0.5
50
90
51
180
0
ARC
8
0
10
163.6625
20
-22.075
40
0.5
50
0
51
90
0
ARC
8
0
10
150.6625
20
-35.075
40
0.5
50
180
51
270
0
ARC
8
0
10
163.6625
20
-35.075
40
0.5
50
270
51
0
0
LINE
8
0
10
169.7125
20
-21.575
11
182.7125
21
-21.575
0
LINE
8
0
10
169.7125
20
-35.575
11
182.7125
21
-35.575
0
LINE
8
0
10
169.2125
20
-22.075
11
169.2125
21
-35.075
0
LINE
8
0
10
183.2125
20
-22.075
11
183.2125
21
-35.075
0
ARC
8
0
10
169.7125
20
-22.075
40
0.5
50
90
51
180
0
ARC
8
0
10
182.7125
20
-22.075
40
0.5
50
0
51
90
0
ARC
8
0
10
169.7125
20
-35.075
40
0.5
50
180
51
270
0
ARC
8
0
10
182.7125
20
-35.075
40
0.5
50
270
51
0
0
LINE
8
0
10
193.525
20
-21.575
11
206.525
21
-21.575
0
LINE
8
0
10
193.525
20
-35.575
11
206.525
21
-35.575
0
LINE
8
0
10
193.025
20
-22.075
11
193.025
21
-35.075
0
LINE
8
0
10
207.025
20
-22.075
11
207.025
21
-35.075
0
ARC
8
0
10
193.525
20
-22.075
40
0.5
50
90
51
180
0
ARC
8
0
10
206.525
20
-22.075
40
0.5
50
0
51
90
0
ARC
8
0
10
193.525
20
-35.075
40
0.5
50
180
51
270
0
ARC
8
0
10
206.525
20
-35.075
40
0.5
50
270
51
0
0
LINE
8
0
10
212.575
20
-21.575
11
225.575
21
-21.575
0
LINE
8
0
10
212.575
20
-35.575
11
225.575
21
-35.575
0
LINE
8
0
10
212.075
20
-22.075
11
212.075
21
-35.075
0
LINE
8
0
10
226.075
20
-22.075
11
226.075
21
-35.075
0
ARC
8
0
10
212.575
20
-22.075
40
0.5
50
90
51
180
0
ARC
8
0
10
225.575
20
-22.075
40
0.5
50
0
51
90
0
ARC
8
0
10
212.575
20
-35.075
40
0.5
50
180
51
270
0
ARC
8
0
10
225.575
20
-35.075
40
0.5
50
270
51
0
0
LINE
8
0
10
231.625
20
-21.575
11
244.625
21
-21.575
0
LINE
8
0
10
231.625
20
-35.575
11
244.625
21
-35.575
0
LINE
8
0
10
231.125
20
-22.075
11
231.125
21
-35.075
0
LINE
8
0
10
245.125
20
-22.075
11
245.125
21
-35.075
0
ARC
8
0
10
231.625
20
-22.075
40
0.5
50
90
51
180
0
ARC
8
0
10
244.625
20
-22.075
40
0.5
50
0
51
90
0
ARC
8
0
10
231.625
20
-35.075
40
0.5
50
180
51
270
0
ARC
8
0
10
244.625
20
-35.075
40
0.5
50
270
51
0
0
LINE
8
0
10
250.675
20
-21.575
11
263.675
21
-21.575
0
LINE
8
0
10
250.675
20
-35.575
11
263.675
21
-35.575
0
LINE
8
0
10
250.175
20
-22.075
11
250.175
21
-35.075
0
LINE
8
0
10
264.175
20
-22.075
11
264.175
21
-35.075
0
ARC
8
0
10
250.675
20
-22.075
40
0.5
50
90
51
180
0
ARC
8
0
10
263.675
20
-22.075
40
0.5
50
0
51
90
0
ARC
8
0
10
250.675
20
-35.075
40
0.5
50
180
51
270
0
ARC
8
0
10
263.675
20
-35.075
40
0.5
50
270
51
0
0
LINE
8
0
10
274.4875
20
-21.575
11
287.4875
21
-21.575
0
LINE
8
0
10
274.4875
20
-35.575
11
287.4875
21
-35.575
0
LINE
8
0
10
273.9875
20
-22.075
11
273.9875
21
-35.075
0
LINE
8
0
10
287.9875
20
-22.075
11
287.9875
21
-35.075
0
ARC
8
0
10
274.4875
20
-22.075
40
0.5
50
90
51
180
0
ARC
8
0
10
287.4875
20
-22.075
40
0.5
50
0
51
90
0
ARC
8
0
10
274.4875
20
-35.075
40
0.5
50
180
51
270
0
ARC
8
0
10
287.4875
20
-35.075
40
0.5
50
270
51
0
0
LINE
8
0
10
293.5375
20
-21.575
11
306.5375
21
-21.575
0
LINE
8
0
10
293.5375
20
-35.575
11
306.5375
21
-35.575
0
LINE
8
0
10
293.0375
20
-22.075
11
293.0375
21
-35.075
0
LINE
8
0
10
307.0375
20
-22.075
11
307.0375
21
-35.075
0
ARC
8
0
10
293.5375
20
-22.075
40
0.5
50
90
51
180
0
ARC
8
0
10
306.5375
20
-22.075
40
0.5
50
0
51
90
0
ARC
8
0
10
293.5375
20
-35.075
40
0.5
50
180
51
270
0
ARC
8
0
10
306.5375
20
-35.075
40
0.5
50
270
51
0
0
LINE
8
0
10
312.5875
20
-21.575
11
325.5875
21
-21.575
0
LINE
8
0
10
312.5875
20
-35.575
11
325.5875
21
-35.575
0
LINE
8
0
10
312.0875
20
-22.075
11
312.0875
21
-35.075
0
LINE
8
0
10
326.0875
20
-22.075
11
326.0875
21
-35.075
0
ARC
8
0
10
312.5875
20
-22.075
40
0.5
50
90
51
180
0
ARC
8
0
10
325.5875
20
-22.075
40
0.5
50
0
51
90
0
ARC
8
0
10
312.5875
20
-35.075
40
0.5
50
180
51
270
0
ARC
8
0
10
325.5875
20
-35.075
40
0.5
50
270
51
0
0
LINE
8
0
10
336.4
20
-21.575
11
349.4
21
-21.575
0
LINE
8
0
10
336.4
20
-35.575
11
349.4
21
-35.575
0
LINE
8
0
10
335.9
20
-22.075
11
335.9
21
-35.075
0
LINE
8
0
10
349.9
20
-22.075
11
349.9
21
-35.075
0
ARC
8
0
10
336.4
20
-22.075
40
0.5
50
90
51
180
0
ARC
8
0
10
349.4
20
-22.075
40
0.5
50
0
51
90
0
ARC
8
0
10
336.4
20
-35.075
40
0.5
50
180
51
270
0
ARC
8
0
10
349.4
20
-35.075
40
0.5
50
270
51
0
0
LINE
8
0
10
355.45
20
-21.575
11
368.45
21
-21.575
0
LINE
8
0
10
355.45
20
-35.575
11
368.45
21
-35.575
0
LINE
8
0
10
354.95
20
-22.075
11
354.95
21
-35.075
0
LINE
8
0
10
368.95
20
-22.075
11
368.95
21
-35.075
0
ARC
8
0
10
355.45
20
-22.075
40
0.5
50
90
51
180
0
ARC
8
0
10
368.45
20
-22.075
40
0.5
50
0
51
90
0
ARC
8
0
10
355.45
20
-35.075
40
0.5
50
180
51
270
0
ARC
8
0
10
368.45
20
-35.075
40
0.5
50
270
51
0
0
LINE
8
0
10
374.5
20
-21.575
11
387.5
21
-21.575
0
LINE
8
0
10
374.5
20
-35.575
11
387.5
21
-35.575
0
LINE
8
0
10
374
20
-22.075
11
374
21
-35.075
0
LINE
8
0
10
388
20
-22.075
11
388
21
-35.075
0
ARC
8
0
10
374.5
20
-22.075
40
0.5
50
90
51
180
0
ARC
8
0
10
387.5
20
-22.075
40
0.5
50
0
51
90
0
ARC
8
0
10
374.5
20
-35.075
40
0.5
50
180
51
270
0
ARC
8
0
10
387.5
20
-35.075
40
0.5
50
270
51
0
0
LINE
8
0
10
3.025
20
-50.15
11
16.025
21
-50.15
0
LINE
8
0
10
3.025
20
-64.15
11
16.025
21
-64.15
0
LINE
8
0
10
2.525
20
-50.65
11
2.525
21
-63.65
0
LINE
8
0
10
16.525
20
-50.65
11
16.525
21
-63.65
0
ARC
8
0
10
3.025
20
-50.65
40
0.5
50
90
51
180
0
ARC
8
0
10
16.025
20
-50.65
40
0.5
50
0
51
90
0
ARC
8
0
10
3.025
20
-63.65
40
0.5
50
180
51
270
0
ARC
8
0
10
16.025
20
-63.65
40
0.5
50
270
51
0
0
LINE
8
0
10
22.075
20
-50.15
11
35.075
21
-50.15
0
LINE
8
0
10
22.075
20
-64.15
11
35.075
21
-64.15
0
LINE
8
0
10
21.575
20
-50.65
11
21.575
21
-63.65
0
LINE
8
0
10
35.575
20
-50.65
11
35.575
21
-63.65
0
ARC
8
0
10
22.075
20
-50.65
40
0.5
50
90
51
180
0
ARC
8
0
10
35.075
20
-50.65
40
0.5
50
0
51
90
0
ARC
8
0
10
22.075
20
-63.65
40
0.5
50
180
51
270
0
ARC
8
0
10
35.075
20
-63.65
40
0.5
50
270
51
0
0
LINE
8
0
10
41.125
20
-50.15
11
54.125
21
-50.15
0
LINE
8
0
10
41.125
20
-64.15
11
54.125
21
-64.15
0
LINE
8
0
10
40.625
20
-50.65
11
40.625
21
-63.65
0
LINE
8
0
10
54.625
20
-50.65
11
54.625
21
-63.65
0
ARC
8
0
10
41.125
20
-50.65
40
0.5
50
90
51
180
0
ARC
8
0
10
54.125
20
-50.65
40
0.5
50
0
51
90
0
ARC
8
0
10
41.125
20
-63.65
40
0.5
50
180
51
270
0
ARC
8
0
10
54.125
20
-63.65
40
0.5
50
270
51
0
0
LINE
8
0
10
60.175
20
-50.15
11
73.175
21
-50.15
0
LINE
8
0
10
60.175
20
-64.15
11
73.175
21
-64.15
0
LINE
8
0
10
59.675
20
-50.65
11
59.675
21
-63.65
0
LINE
8
0
10
73.675
20
-50.65
11
73.675
21
-63.65
0
ARC
8
0
10
60.175
20
-50.65
40
0.5
50
90
51
180
0
ARC
8
0
10
73.175
20
-50.65
40
0.5
50
0
51
90
0
ARC
8
0
10
60.175
20
-63.65
40
0.5
50
180
51
270
0
ARC
8
0
10
73.175
20
-63.65
40
0.5
50
270
51
0
0
LINE
8
0
10
79.225
20
-50.15
11
92.225
21
-50.15
0
LINE
8
0
10
79.225
20
-64.15
11
92.225
21
-64.15
0
LINE
8
0
10
78.725
20
-50.65
11
78.725
21
-63.65
0
LINE
8
0
10
92.725
20
-50.65
11
92.725
21
-63.65
0
ARC
8
0
10
79.225
20
-50.65
40
0.5
50
90
51
180
0
ARC
8
0
10
92.225
20
-50.65
40
0.5
50
0
51
90
0
ARC
8
0
10
79.225
20
-63.65
40
0.5
50
180
51
270
0
ARC
8
0
10
92.225
20
-63.65
40
0.5
50
270
51
0
0
LINE
8
0
10
98.275
20
-50.15
11
111.275
21
-50.15
0
LINE
8
0
10
98.275
20
-64.15
11
111.275
21
-64.15
0
LINE
8
0
10
97.775
20
-50.65
11
97.775
21
-63.65
0
LINE
8
0
10
111.775
20
-50.65
11
111.775
21
-63.65
0
ARC
8
0
10
98.275
20
-50.65
40
0.5
50
90
51
180
0
ARC
8
0
10
111.275
20
-50.65
40
0.5
50
0
51
90
0
ARC
8
0
10
98.275
20
-63.65
40
0.5
50
180
51
270
0
ARC
8
0
10
111.275
20
-63.65
40
0.5
50
270
51
0
0
LINE
8
0
10
117.325
20
-50.15
11
130.325
21
-50.15
0
LINE
8
0
10
117.325
20
-64.15
11
130.325
21
-64.15
0
LINE
8
0
10
116.825
20
-50.65
11
116.825
21
-63.65
0
LINE
8
0
10
130.825
20
-50.65
11
130.825
21
-63.65
0
ARC
8
0
10
117.325
20
-50.65
40
0.5
50
90
51
180
0
ARC
8
0
10
130.325
20
-50.65
40
0.5
50
0
51
90
0
ARC
8
0
10
117.325
20
-63.65
40
0.5
50
180
51
270
0
ARC
8
0
10
130.325
20
-63.65
40
0.5
50
270
51
0
0
LINE
8
0
10
136.375
20
-50.15
11
149.375
21
-50.15
0
LINE
8
0
10
136.375
20
-64.15
11
149.375
21
-64.15
0
LINE
8
0
10
135.875
20
-50.65
11
135.875
21
-63.65
0
LINE
8
0
10
149.875
20
-50.65
11
149.875
21
-63.65
0
ARC
8
0
10
136.375
20
-50.65
40
0.5
50
90
51
180
0
ARC
8
0
10
149.375
20
-50.65
40
0.5
50
0
51
90
0
ARC
8
0
10
136.375
20
-63.65
40
0.5
50
180
51
270
0
ARC
8
0
10
149.375
20
-63.65
40
0.5
50
270
51
0
0
LINE
8
0
10
155.425
20
-50.15
11
168.425
21
-50.15
0
LINE
8
0
10
155.425
20
-64.15
11
168.425
21
-64.15
0
LINE
8
0
10
154.925
20
-50.65
11
154.925
21
-63.65
0
LINE
8
0
10
168.925
20
-50.65
11
168.925
21
-63.65
0
ARC
8
0
10
155.425
20
-50.65
40
0.5
50
90
51
180
0
ARC
8
0
10
168.425
20
-50.65
40
0.5
50
0
51
90
0
ARC
8
0
10
155.425
20
-63.65
40
0.5
50
180
51
270
0
ARC
8
0
10
168.425
20
-63.65
40
0.5
50
270
51
0
0
LINE
8
0
10
174.475
20
-50.15
11
187.475
21
-50.15
0
LINE
8
0
10
174.475
20
-64.15
11
187.475
21
-64.15
0
LINE
8
0
10
173.975
20
-50.65
11
173.975
21
-63.65
0
LINE
8
0
10
187.975
20
-50.65
11
187.975
21
-63.65
0
ARC
8
0
10
174.475
20
-50.65
40
0.5
50
90
51
180
0
ARC
8
0
10
187.475
20
-50.65
40
0.5
50
0
51
90
0
ARC
8
0
10
174.475
20
-63.65
40
0.5
50
180
51
270
0
ARC
8
0
10
187.475
20
-63.65
40
0.5
50
270
51
0
0
LINE
8
0
10
193.525
20
-50.15
11
206.525
21
-50.15
0
LINE
8
0
10
193.525
20
-64.15
11
206.525
21
-64.15
0
LINE
8
0
10
193.025
20
-50.65
11
193.025
21
-63.65
0
LINE
8
0
10
207.025
20
-50.65
11
207.025
21
-63.65
0
ARC
8
0
10
193.525
20
-50.65
40
0.5
50
90
51
180
0
ARC
8
0
10
206.525
20
-50.65
40
0.5
50
0
51
90
0
ARC
8
0
10
193.525
20
-63.65
40
0.5
50
180
51
270
0
ARC
8
0
10
206.525
20
-63.65
40
0.5
50
270
51
0
0
LINE
8
0
10
212.575
20
-50.15
11
225.575
21
-50.15
0
LINE
8
0
10
212.575
20
-64.15
11
225.575
21
-64.15
0
LINE
8
0
10
212.075
20
-50.65
11
212.075
21
-63.65
0
LINE
8
0
10
226.075
20
-50.65
11
226.075
21
-63.65
0
ARC
8
0
10
212.575
20
-50.65
40
0.5
50
90
51
180
0
ARC
8
0
10
225.575
20
-50.65
40
0.5
50
0
51
90
0
ARC
8
0
10
212.575
20
-63.65
40
0.5
50
180
51
270
0
ARC
8
0
10
225.575
20
-63.65
40
0.5
50
270
51
0
0
LINE
8
0
10
231.625
20
-50.15
11
244.625
21
-50.15
0
LINE
8
0
10
231.625
20
-64.15
11
244.625
21
-64.15
0
LINE
8
0
10
231.125
20
-50.65
11
231.125
21
-63.65
0
LINE
8
0
10
245.125
20
-50.65
11
245.125
21
-63.65
0
ARC
8
0
10
231.625
20
-50.65
40
0.5
50
90
51
180
0
ARC
8
0
10
244.625
20
-50.65
40
0.5
50
0
51
90
0
ARC
8
0
10
231.625
20
-63.65
40
0.5
50
180
51
270
0
ARC
8
0
10
244.625
20
-63.65
40
0.5
50
270
51
0
0
LINE
8
0
10
250.675
20
-50.15
11
263.675
21
-50.15
0
LINE
8
0
10
250.675
20
-64.15
11
263.675
21
-64.15
0
LINE
8
0
10
250.175
20
-50.65
11
250.175
21
-63.65
0
LINE
8
0
10
264.175
20
-50.65
11
264.175
21
-63.65
0
ARC
8
0
10
250.675
20
-50.65
40
0.5
50
90
51
180
0
ARC
8
0
10
263.675
20
-50.65
40
0.5
50
0
51
90
0
ARC
8
0
10
250.675
20
-63.65
40
0.5
50
180
51
270
0
ARC
8
0
10
263.675
20
-63.65
40
0.5
50
270
51
0
0
LINE
8
0
10
260.2
20
-50.15
11
273.2
21
-50.15
0
LINE
8
0
10
260.2
20
-64.15
11
273.2
21
-64.15
0
LINE
8
0
10
259.7
20
-50.65
11
259.7
21
-63.65
0
LINE
8
0
10
273.7
20
-50.65
11
273.7
21
-63.65
0
ARC
8
0
10
260.2
20
-50.65
40
0.5
50
90
51
180
0
ARC
8
0
10
273.2
20
-50.65
40
0.5
50
0
51
90
0
ARC
8
0
10
260.2
20
-63.65
40
0.5
50
180
51
270
0
ARC
8
0
10
273.2
20
-63.65
40
0.5
50
270
51
0
0
LINE
8
0
10
251.762
20
-51.15
11
257.762
21
-51.15
0
LINE
8
0
10
251.762
20
-66.15
11
257.762
21
-66.15
0
LINE
8
0
10
251.262
20
-51.65
11
251.262
21
-65.65
0
LINE
8
0
10
258.262
20
-51.65
11
258.262
21
-65.65
0
ARC
8
0
10
251.762
20
-51.65
40
0.5
50
90
51
180
0
ARC
8
0
10
257.762
20
-51.65
40
0.5
50
0
51
90
0
ARC
8
0
10
251.762
20
-65.65
40
0.5
50
180
51
270
0
ARC
8
0
10
257.762
20
-65.65
40
0.5
50
270
51
0
0
LINE
8
0
10
275.638
20
-51.15
11
281.638
21
-51.15
0
LINE
8
0
10
275.638
20
-66.15
11
281.638
21
-66.15
0
LINE
8
0
10
275.138
20
-51.65
11
275.138
21
-65.65
0
LINE
8
0
10
282.138
20
-51.65
11
282.138
21
-65.65
0
ARC
8
0
10
275.638
20
-51.65
40
0.5
50
90
51
180
0
ARC
8
0
10
281.638
20
-51.65
40
0.5
50
0
51
90
0
ARC
8
0
10
275.638
20
-65.65
40
0.5
50
180
51
270
0
ARC
8
0
10
281.638
20
-65.65
40
0.5
50
270
51
0
0
LINE
8
0
10
269.725
20
-50.15
11
282.725
21
-50.15
0
LINE
8
0
10
269.725
20
-64.15
11
282.725
21
-64.15
0
LINE
8
0
10
269.225
20
-50.65
11
269.225
21
-63.65
0
LINE
8
0
10
283.225
20
-50.65
11
283.225
21
-63.65
0
ARC
8
0
10
269.725
20
-50.65
40
0.5
50
90
51
180
0
ARC
8
0
10
282.725
20
-50.65
40
0.5
50
0
51
90
0
ARC
8
0
10
269.725
20
-63.65
40
0.5
50
180
51
270
0
ARC
8
0
10
282.725
20
-63.65
40
0.5
50
270
51
0
0
LINE
8
0
10
293.5375
20
-50.15
11
306.5375
21
-50.15
0
LINE
8
0
10
293.5375
20
-64.15
11
306.5375
21
-64.15
0
LINE
8
0
10
293.0375
20
-50.65
11
293.0375
21
-63.65
0
LINE
8
0
10
307.0375
20
-50.65
11
307.0375
21
-63.65
0
ARC
8
0
10
293.5375
20
-50.65
40
0.5
50
90
51
180
0
ARC
8
0
10
306.5375
20
-50.65
40
0.5
50
0
51
90
0
ARC
8
0
10
293.5375
20
-63.65
40
0.5
50
180
51
270
0
ARC
8
0
10
306.5375
20
-63.65
40
0.5
50
270
51
0
0
LINE
8
0
10
317.35
20
-50.15
11
330.35
21
-50.15
0
LINE
8
0
10
317.35
20
-64.15
11
330.35
21
-64.15
0
LINE
8
0
10
316.85
20
-50.65
11
316.85
21
-63.65
0
LINE
8
0
10
330.85
20
-50.65
11
330.85
21
-63.65
0
ARC
8
0
10
317.35
20
-50.65
40
0.5
50
90
51
180
0
ARC
8
0
10
330.35
20
-50.65
40
0.5
50
0
51
90
0
ARC
8
0
10
317.35
20
-63.65
40
0.5
50
180
51
270
0
ARC
8
0
10
330.35
20
-63.65
40
0.5
50
270
51
0
0
LINE
8
0
10
336.4
20
-50.15
11
349.4
21
-50.15
0
LINE
8
0
10
336.4
20
-64.15
11
349.4
21
-64.15
0
LINE
8
0
10
335.9
20
-50.65
11
335.9
21
-63.65
0
LINE
8
0
10
349.9
20
-50.65
11
349.9
21
-63.65
0
ARC
8
0
10
336.4
20
-50.65
40
0.5
50
90
51
180
0
ARC
8
0
10
349.4
20
-50.65
40
0.5
50
0
51
90
0
ARC
8
0
10
336.4
20
-63.65
40
0.5
50
180
51
270
0
ARC
8
0
10
349.4
20
-63.65
40
0.5
50
270
51
0
0
LINE
8
0
10
355.45
20
-50.15
11
368.45
21
-50.15
0
LINE
8
0
10
355.45
20
-64.15
11
368.45
21
-64.15
0
LINE
8
0
10
354.95
20
-50.65
11
354.95
21
-63.65
0
LINE
8
0
10
368.95
20
-50.65
11
368.95
21
-63.65
0
ARC
8
0
10
355.45
20
-50.65
40
0.5
50
90
51
180
0
ARC
8
0
10
368.45
20
-50.65
40
0.5
50
0
51
90
0
ARC
8
0
10
355.45
20
-63.65
40
0.5
50
180
51
270
0
ARC
8
0
10
368.45
20
-63.65
40
0.5
50
270
51
0
0
LINE
8
0
10
374.5
20
-50.15
11
387.5
21
-50.15
0
LINE
8
0
10
374.5
20
-64.15
11
387.5
21
-64.15
0
LINE
8
0
10
374
20
-50.65
11
374
21
-63.65
0
LINE
8
0
10
388
20
-50.65
11
388
21
-63.65
0
ARC
8
0
10
374.5
20
-50.65
40
0.5
50
90
51
180
0
ARC
8
0
10
387.5
20
-50.65
40
0.5
50
0
51
90
0
ARC
8
0
10
374.5
20
-63.65
40
0.5
50
180
51
270
0
ARC
8
0
10
387.5
20
-63.65
40
0.5
50
270
51
0
0
LINE
8
0
10
7.7875
20
-69.2
11
20.7875
21
-69.2
0
LINE
8
0
10
7.7875
20
-83.2
11
20.7875
21
-83.2
0
LINE
8
0
10
7.2875
20
-69.7
11
7.2875
21
-82.7
0
LINE
8
0
10
21.2875
20
-69.7
11
21.2875
21
-82.7
0
ARC
8
0
10
7.7875
20
-69.7
40
0.5
50
90
51
180
0
ARC
8
0
10
20.7875
20
-69.7
40
0.5
50
0
51
90
0
ARC
8
0
10
7.7875
20
-82.7
40
0.5
50
180
51
270
0
ARC
8
0
10
20.7875
20
-82.7
40
0.5
50
270
51
0
0
LINE
8
0
10
31.6
20
-69.2
11
44.6
21
-69.2
0
LINE
8
0
10
31.6
20
-83.2
11
44.6
21
-83.2
0
LINE
8
0
10
31.1
20
-69.7
11
31.1
21
-82.7
0
LINE
8
0
10
45.1
20
-69.7
11
45.1
21
-82.7
0
ARC
8
0
10
31.6
20
-69.7
40
0.5
50
90
51
180
0
ARC
8
0
10
44.6
20
-69.7
40
0.5
50
0
51
90
0
ARC
8
0
10
31.6
20
-82.7
40
0.5
50
180
51
270
0
ARC
8
0
10
44.6
20
-82.7
40
0.5
50
270
51
0
0
LINE
8
0
10
50.65
20
-69.2
11
63.65
21
-69.2
0
LINE
8
0
10
50.65
20
-83.2
11
63.65
21
-83.2
0
LINE
8
0
10
50.15
20
-69.7
11
50.15
21
-82.7
0
LINE
8
0
10
64.15
20
-69.7
11
64.15
21
-82.7
0
ARC
8
0
10
50.65
20
-69.7
40
0.5
50
90
51
180
0
ARC
8
0
10
63.65
20
-69.7
40
0.5
50
0
51
90
0
ARC
8
0
10
50.65
20
-82.7
40
0.5
50
180
51
270
0
ARC
8
0
10
63.65
20
-82.7
40
0.5
50
270
51
0
0
LINE
8
0
10
69.7
20
-69.2
11
82.7
21
-69.2
0
LINE
8
0
10
69.7
20
-83.2
11
82.7
21
-83.2
0
LINE
8
0
10
69.2
20
-69.7
11
69.2
21
-82.7
0
LINE
8
0
10
83.2
20
-69.7
11
83.2
21
-82.7
0
ARC
8
0
10
69.7
20
-69.7
40
0.5
50
90
51
180
0
ARC
8
0
10
82.7
20
-69.7
40
0.5
50
0
51
90
0
ARC
8
0
10
69.7
20
-82.7
40
0.5
50
180
51
270
0
ARC
8
0
10
82.7
20
-82.7
40
0.5
50
270
51
0
0
LINE
8
0
10
88.75
20
-69.2
11
101.75
21
-69.2
0
LINE
8
0
10
88.75
20
-83.2
11
101.75
21
-83.2
0
LINE
8
0
10
88.25
20
-69.7
11
88.25
21
-82.7
0
LINE
8
0
10
102.25
20
-69.7
11
102.25
21
-82.7
0
ARC
8
0
10
88.75
20
-69.7
40
0.5
50
90
51
180
0
ARC
8
0
10
101.75
20
-69.7
40
0.5
50
0
51
90
0
ARC
8
0
10
88.75
20
-82.7
40
0.5
50
180
51
270
0
ARC
8
0
10
101.75
20
-82.7
40
0.5
50
270
51
0
0
LINE
8
0
10
107.8
20
-69.2
11
120.8
21
-69.2
0
LINE
8
0
10
107.8
20
-83.2
11
120.8
21
-83.2
0
LINE
8
0
10
107.3
20
-69.7
11
107.3
21
-82.7
0
LINE
8
0
10
121.3
20
-69.7
11
121.3
21
-82.7
0
ARC
8
0
10
107.8
20
-69.7
40
0.5
50
90
51
180
0
ARC
8
0
10
120.8
20
-69.7
40
0.5
50
0
51
90
0
ARC
8
0
10
107.8
20
-82.7
40
0.5
50
180
51
270
0
ARC
8
0
10
120.8
20
-82.7
40
0.5
50
270
51
0
0
LINE
8
0
10
126.85
20
-69.2
11
139.85
21
-69.2
0
LINE
8
0
10
126.85
20
-83.2
11
139.85
21
-83.2
0
LINE
8
0
10
126.35
20
-69.7
11
126.35
21
-82.7
0
LINE
8
0
10
140.35
20
-69.7
11
140.35
21
-82.7
0
ARC
8
0
10
126.85
20
-69.7
40
0.5
50
90
51
180
0
ARC
8
0
10
139.85
20
-69.7
40
0.5
50
0
51
90
0
ARC
8
0
10
126.85
20
-82.7
40
0.5
50
180
51
270
0
ARC
8
0
10
139.85
20
-82.7
40
0.5
50
270
51
0
0
LINE
8
0
10
145.9
20
-69.2
11
158.9
21
-69.2
0
LINE
8
0
10
145.9
20
-83.2
11
158.9
21
-83.2
0
LINE
8
0
10
145.4
20
-69.7
11
145.4
21
-82.7
0
LINE
8
0
10
159.4
20
-69.7
11
159.4
21
-82.7
0
ARC
8
0
10
145.9
20
-69.7
40
0.5
50
90
51
180
0
ARC
8
0
10
158.9
20
-69.7
40
0.5
50
0
51
90
0
ARC
8
0
10
145.9
20
-82.7
40
0.5
50
180
51
270
0
ARC
8
0
10
158.9
20
-82.7
40
0.5
50
270
51
0
0
LINE
8
0
10
164.95
20
-69.2
11
177.95
21
-69.2
0
LINE
8
0
10
164.95
20
-83.2
11
177.95
21
-83.2
0
LINE
8
0
10
164.45
20
-69.7
11
164.45
21
-82.7
0
LINE
8
0
10
178.45
20
-69.7
11
178.45
21
-82.7
0
ARC
8
0
10
164.95
20
-69.7
40
0.5
50
90
51
180
0
ARC
8
0
10
177.95
20
-69.7
40
0.5
50
0
51
90
0
ARC
8
0
10
164.95
20
-82.7
40
0.5
50
180
51
270
0
ARC
8
0
10
177.95
20
-82.7
40
0.5
50
270
51
0
0
LINE
8
0
10
184
20
-69.2
11
197
21
-69.2
0
LINE
8
0
10
184
20
-83.2
11
197
21
-83.2
0
LINE
8
0
10
183.5
20
-69.7
11
183.5
21
-82.7
0
LINE
8
0
10
197.5
20
-69.7
11
197.5
21
-82.7
0
ARC
8
0
10
184
20
-69.7
40
0.5
50
90
51
180
0
ARC
8
0
10
197
20
-69.7
40
0.5
50
0
51
90
0
ARC
8
0
10
184
20
-82.7
40
0.5
50
180
51
270
0
ARC
8
0
10
197
20
-82.7
40
0.5
50
270
51
0
0
LINE
8
0
10
203.05
20
-69.2
11
216.05
21
-69.2
0
LINE
8
0
10
203.05
20
-83.2
11
216.05
21
-83.2
0
LINE
8
0
10
202.55
20
-69.7
11
202.55
21
-82.7
0
LINE
8
0
10
216.55
20
-69.7
11
216.55
21
-82.7
0
ARC
8
0
10
203.05
20
-69.7
40
0.5
50
90
51
180
0
ARC
8
0
10
216.05
20
-69.7
40
0.5
50
0
51
90
0
ARC
8
0
10
203.05
20
-82.7
40
0.5
50
180
51
270
0
ARC
8
0
10
216.05
20
-82.7
40
0.5
50
270
51
0
0
LINE
8
0
10
222.1
20
-69.2
11
235.1
21
-69.2
0
LINE
8
0
10
222.1
20
-83.2
11
235.1
21
-83.2
0
LINE
8
0
10
221.6
20
-69.7
11
221.6
21
-82.7
0
LINE
8
0
10
235.6
20
-69.7
11
235.6
21
-82.7
0
ARC
8
0
10
222.1
20
-69.7
40
0.5
50
90
51
180
0
ARC
8
0
10
235.1
20
-69.7
40
0.5
50
0
51
90
0
ARC
8
0
10
222.1
20
-82.7
40
0.5
50
180
51
270
0
ARC
8
0
10
235.1
20
-82.7
40
0.5
50
270
51
0
0
LINE
8
0
10
241.15
20
-69.2
11
254.15
21
-69.2
0
LINE
8
0
10
241.15
20
-83.2
11
254.15
21
-83.2
0
LINE
8
0
10
240.65
20
-69.7
11
240.65
21
-82.7
0
LINE
8
0
10
254.65
20
-69.7
11
254.65
21
-82.7
0
ARC
8
0
10
241.15
20
-69.7
40
0.5
50
90
51
180
0
ARC
8
0
10
254.15
20
-69.7
40
0.5
50
0
51
90
0
ARC
8
0
10
241.15
20
-82.7
40
0.5
50
180
51
270
0
ARC
8
0
10
254.15
20
-82.7
40
0.5
50
270
51
0
0
LINE
8
0
10
264.9625
20
-69.2
11
277.9625
21
-69.2
0
LINE
8
0
10
264.9625
20
-83.2
11
277.9625
21
-83.2
0
LINE
8
0
10
264.4625
20
-69.7
11
264.4625
21
-82.7
0
LINE
8
0
10
278.4625
20
-69.7
11
278.4625
21
-82.7
0
ARC
8
0
10
264.9625
20
-69.7
40
0.5
50
90
51
180
0
ARC
8
0
10
277.9625
20
-69.7
40
0.5
50
0
51
90
0
ARC
8
0
10
264.9625
20
-82.7
40
0.5
50
180
51
270
0
ARC
8
0
10
277.9625
20
-82.7
40
0.5
50
270
51
0
0
LINE
8
0
10
293.5375
20
-69.2
11
306.5375
21
-69.2
0
LINE
8
0
10
293.5375
20
-83.2
11
306.5375
21
-83.2
0
LINE
8
0
10
293.0375
20
-69.7
11
293.0375
21
-82.7
0
LINE
8
0
10
307.0375
20
-69.7
11
307.0375
21
-82.7
0
ARC
8
0
10
293.5375
20
-69.7
40
0.5
50
90
51
180
0
ARC
8
0
10
306.5375
20
-69.7
40
0.5
50
0
51
90
0
ARC
8
0
10
293.5375
20
-82.7
40
0.5
50
180
51
270
0
ARC
8
0
10
306.5375
20
-82.7
40
0.5
50
270
51
0
0
LINE
8
0
10
317.35
20
-69.2
11
330.35
21
-69.2
0
LINE
8
0
10
317.35
20
-83.2
11
330.35
21
-83.2
0
LINE
8
0
10
316.85
20
-69.7
11
316.85
21
-82.7
0
LINE
8
0
10
330.85
20
-69.7
11
330.85
21
-82.7
0
ARC
8
0
10
317.35
20
-69.7
40
0.5
50
90
51
180
0
ARC
8
0
10
330.35
20
-69.7
40
0.5
50
0
51
90
0
ARC
8
0
10
317.35
20
-82.7
40
0.5
50
180
51
270
0
ARC
8
0
10
330.35
20
-82.7
40
0.5
50
270
51
0
0
LINE
8
0
10
336.4
20
-69.2
11
349.4
21
-69.2
0
LINE
8
0
10
336.4
20
-83.2
11
349.4
21
-83.2
0
LINE
8
0
10
335.9
20
-69.7
11
335.9
21
-82.7
0
LINE
8
0
10
349.9
20
-69.7
11
349.9
21
-82.7
0
ARC
8
0
10
336.4
20
-69.7
40
0.5
50
90
51
180
0
ARC
8
0
10
349.4
20
-69.7
40
0.5
50
0
51
90
0
ARC
8
0
10
336.4
20
-82.7
40
0.5
50
180
51
270
0
ARC
8
0
10
349.4
20
-82.7
40
0.5
50
270
51
0
0
LINE
8
0
10
355.45
20
-69.2
11
368.45
21
-69.2
0
LINE
8
0
10
355.45
20
-83.2
11
368.45
21
-83.2
0
LINE
8
0
10
354.95
20
-69.7
11
354.95
21
-82.7
0
LINE
8
0
10
368.95
20
-69.7
11
368.95
21
-82.7
0
ARC
8
0
10
355.45
20
-69.7
40
0.5
50
90
51
180
0
ARC
8
0
10
368.45
20
-69.7
40
0.5
50
0
51
90
0
ARC
8
0
10
355.45
20
-82.7
40
0.5
50
180
51
270
0
ARC
8
0
10
368.45
20
-82.7
40
0.5
50
270
51
0
0
LINE
8
0
10
388
20
-79.225
11
388
21
-92.225
0
LINE
8
0
10
374
20
-79.225
11
374
21
-92.225
0
LINE
8
0
10
387.5
20
-78.725
11
374.5
21
-78.725
0
LINE
8
0
10
387.5
20
-92.725
11
374.5
21
-92.725
0
ARC
8
0
10
387.5
20
-79.225
40
0.5
50
0
51
90
0
ARC
8
0
10
387.5
20
-92.225
40
0.5
50
270
51
0
0
ARC
8
0
10
374.5
20
-79.225
40
0.5
50
90
51
180
0
ARC
8
0
10
374.5
20
-92.225
40
0.5
50
180
51
270
0
LINE
8
0
10
387
20
-70.787
11
387
21
-76.787
0
LINE
8
0
10
372
20
-70.787
11
372
21
-76.787
0
LINE
8
0
10
386.5
20
-70.287
11
372.5
21
-70.287
0
LINE
8
0
10
386.5
20
-77.287
11
372.5
21
-77.287
0
ARC
8
0
10
386.5
20
-70.787
40
0.5
50
0
51
90
0
ARC
8
0
10
386.5
20
-76.787
40
0.5
50
270
51
0
0
ARC
8
0
10
372.5
20
-70.787
40
0.5
50
90
51
180
0
ARC
8
0
10
372.5
20
-76.787
40
0.5
50
180
51
270
0
LINE
8
0
10
387
20
-94.663
11
387
21
-100.663
0
LINE
8
0
10
372
20
-94.663
11
372
21
-100.663
0
LINE
8
0
10
386.5
20
-94.163
11
372.5
21
-94.163
0
LINE
8
0
10
386.5
20
-101.163
11
372.5
21
-101.163
0
ARC
8
0
10
386.5
20
-94.663
40
0.5
50
0
51
90
0
ARC
8
0
10
386.5
20
-100.663
40
0.5
50
270
51
0
0
ARC
8
0
10
372.5
20
-94.663
40
0.5
50
90
51
180
0
ARC
8
0
10
372.5
20
-100.663
40
0.5
50
180
51
270
0
LINE
8
0
10
374.5
20
-69.2
11
387.5
21
-69.2
0
LINE
8
0
10
374.5
20
-83.2
11
387.5
21
-83.2
0
LINE
8
0
10
374
20
-69.7
11
374
21
-82.7
0
LINE
8
0
10
388
20
-69.7
11
388
21
-82.7
0
ARC
8
0
10
374.5
20
-69.7
40
0.5
50
90
51
180
0
ARC
8
0
10
387.5
20
-69.7
40
0.5
50
0
51
90
0
ARC
8
0
10
374.5
20
-82.7
40
0.5
50
180
51
270
0
ARC
8
0
10
387.5
20
-82.7
40
0.5
50
270
51
0
0
LINE
8
0
10
10.16875
20
-88.25
11
23.16875
21
-88.25
0
LINE
8
0
10
10.16875
20
-102.25
11
23.16875
21
-102.25
0
LINE
8
0
10
9.66875
20
-88.75
11
9.66875
21
-101.75
0
LINE
8
0
10
23.66875
20
-88.75
11
23.66875
21
-101.75
0
ARC
8
0
10
10.16875
20
-88.75
40
0.5
50
90
51
180
0
ARC
8
0
10
23.16875
20
-88.75
40
0.5
50
0
51
90
0
ARC
8
0
10
10.16875
20
-101.75
40
0.5
50
180
51
270
0
ARC
8
0
10
23.16875
20
-101.75
40
0.5
50
270
51
0
0
LINE
8
0
10
36.3625
20
-88.25
11
49.3625
21
-88.25
0
LINE
8
0
10
36.3625
20
-102.25
11
49.3625
21
-102.25
0
LINE
8
0
10
35.8625
20
-88.75
11
35.8625
21
-101.75
0
LINE
8
0
10
49.8625
20
-88.75
11
49.8625
21
-101.75
0
ARC
8
0
10
36.3625
20
-88.75
40
0.5
50
90
51
180
0
ARC
8
0
10
49.3625
20
-88.75
40
0.5
50
0
51
90
0
ARC
8
0
10
36.3625
20
-101.75
40
0.5
50
180
51
270
0
ARC
8
0
10
49.3625
20
-101.75
40
0.5
50
270
51
0
0
LINE
8
0
10
55.4125
20
-88.25
11
68.4125
21
-88.25
0
LINE
8
0
10
55.4125
20
-102.25
11
68.4125
21
-102.25
0
LINE
8
0
10
54.9125
20
-88.75
11
54.9125
21
-101.75
0
LINE
8
0
10
68.9125
20
-88.75
11
68.9125
21
-101.75
0
ARC
8
0
10
55.4125
20
-88.75
40
0.5
50
90
51
180
0
ARC
8
0
10
68.4125
20
-88.75
40
0.5
50
0
51
90
0
ARC
8
0
10
55.4125
20
-101.75
40
0.5
50
180
51
270
0
ARC
8
0
10
68.4125
20
-101.75
40
0.5
50
270
51
0
0
LINE
8
0
10
74.4625
20
-88.25
11
87.4625
21
-88.25
0
LINE
8
0
10
74.4625
20
-102.25
11
87.4625
21
-102.25
0
LINE
8
0
10
73.9625
20
-88.75
11
73.9625
21
-101.75
0
LINE
8
0
10
87.9625
20
-88.75
11
87.9625
21
-101.75
0
ARC
8
0
10
74.4625
20
-88.75
40
0.5
50
90
51
180
0
ARC
8
0
10
87.4625
20
-88.75
40
0.5
50
0
51
90
0
ARC
8
0
10
74.4625
20
-101.75
40
0.5
50
180
51
270
0
ARC
8
0
10
87.4625
20
-101.75
40
0.5
50
270
51
0
0
LINE
8
0
10
93.5125
20
-88.25
11
106.5125
21
-88.25
0
LINE
8
0
10
93.5125
20
-102.25
11
106.5125
21
-102.25
0
LINE
8
0
10
93.0125
20
-88.75
11
93.0125
21
-101.75
0
LINE
8
0
10
107.0125
20
-88.75
11
107.0125
21
-101.75
0
ARC
8
0
10
93.5125
20
-88.75
40
0.5
50
90
51
180
0
ARC
8
0
10
106.5125
20
-88.75
40
0.5
50
0
51
90
0
ARC
8
0
10
93.5125
20
-101.75
40
0.5
50
180
51
270
0
ARC
8
0
10
106.5125
20
-101.75
40
0.5
50
270
51
0
0
LINE
8
0
10
112.5625
20
-88.25
11
125.5625
21
-88.25
0
LINE
8
0
10
112.5625
20
-102.25
11
125.5625
21
-102.25
0
LINE
8
0
10
112.0625
20
-88.75
11
112.0625
21
-101.75
0
LINE
8
0
10
126.0625
20
-88.75
11
126.0625
21
-101.75
0
ARC
8
0
10
112.5625
20
-88.75
40
0.5
50
90
51
180
0
ARC
8
0
10
125.5625
20
-88.75
40
0.5
50
0
51
90
0
ARC
8
0
10
112.5625
20
-101.75
40
0.5
50
180
51
270
0
ARC
8
0
10
125.5625
20
-101.75
40
0.5
50
270
51
0
0
LINE
8
0
10
131.6125
20
-88.25
11
144.6125
21
-88.25
0
LINE
8
0
10
131.6125
20
-102.25
11
144.6125
21
-102.25
0
LINE
8
0
10
131.1125
20
-88.75
11
131.1125
21
-101.75
0
LINE
8
0
10
145.1125
20
-88.75
11
145.1125
21
-101.75
0
ARC
8
0
10
131.6125
20
-88.75
40
0.5
50
90
51
180
0
ARC
8
0
10
144.6125
20
-88.75
40
0.5
50
0
51
90
0
ARC
8
0
10
131.6125
20
-101.75
40
0.5
50
180
51
270
0
ARC
8
0
10
144.6125
20
-101.75
40
0.5
50
270
51
0
0
LINE
8
0
10
150.6625
20
-88.25
11
163.6625
21
-88.25
0
LINE
8
0
10
150.6625
20
-102.25
11
163.6625
21
-102.25
0
LINE
8
0
10
150.1625
20
-88.75
11
150.1625
21
-101.75
0
LINE
8
0
10
164.1625
20
-88.75
11
164.1625
21
-101.75
0
ARC
8
0
10
150.6625
20
-88.75
40
0.5
50
90
51
180
0
ARC
8
0
10
163.6625
20
-88.75
40
0.5
50
0
51
90
0
ARC
8
0
10
150.6625
20
-101.75
40
0.5
50
180
51
270
0
ARC
8
0
10
163.6625
20
-101.75
40
0.5
50
270
51
0
0
LINE
8
0
10
169.7125
20
-88.25
11
182.7125
21
-88.25
0
LINE
8
0
10
169.7125
20
-102.25
11
182.7125
21
-102.25
0
LINE
8
0
10
169.2125
20
-88.75
11
169.2125
21
-101.75
0
LINE
8
0
10
183.2125
20
-88.75
11
183.2125
21
-101.75
0
ARC
8
0
10
169.7125
20
-88.75
40
0.5
50
90
51
180
0
ARC
8
0
10
182.7125
20
-88.75
40
0.5
50
0
51
90
0
ARC
8
0
10
169.7125
20
-101.75
40
0.5
50
180
51
270
0
ARC
8
0
10
182.7125
20
-101.75
40
0.5
50
270
51
0
0
LINE
8
0
10
188.7625
20
-88.25
11
201.7625
21
-88.25
0
LINE
8
0
10
188.7625
20
-102.25
11
201.7625
21
-102.25
0
LINE
8
0
10
188.2625
20
-88.75
11
188.2625
21
-101.75
0
LINE
8
0
10
202.2625
20
-88.75
11
202.2625
21
-101.75
0
ARC
8
0
10
188.7625
20
-88.75
40
0.5
50
90
51
180
0
ARC
8
0
10
201.7625
20
-88.75
40
0.5
50
0
51
90
0
ARC
8
0
10
188.7625
20
-101.75
40
0.5
50
180
51
270
0
ARC
8
0
10
201.7625
20
-101.75
40
0.5
50
270
51
0
0
LINE
8
0
10
207.8125
20
-88.25
11
220.8125
21
-88.25
0
LINE
8
0
10
207.8125
20
-102.25
11
220.8125
21
-102.25
0
LINE
8
0
10
207.3125
20
-88.75
11
207.3125
21
-101.75
0
LINE
8
0
10
221.3125
20
-88.75
11
221.3125
21
-101.75
0
ARC
8
0
10
207.8125
20
-88.75
40
0.5
50
90
51
180
0
ARC
8
0
10
220.8125
20
-88.75
40
0.5
50
0
51
90
0
ARC
8
0
10
207.8125
20
-101.75
40
0.5
50
180
51
270
0
ARC
8
0
10
220.8125
20
-101.75
40
0.5
50
270
51
0
0
LINE
8
0
10
226.8625
20
-88.25
11
239.8625
21
-88.25
0
LINE
8
0
10
226.8625
20
-102.25
11
239.8625
21
-102.25
0
LINE
8
0
10
226.3625
20
-88.75
11
226.3625
21
-101.75
0
LINE
8
0
10
240.3625
20
-88.75
11
240.3625
21
-101.75
0
ARC
8
0
10
226.8625
20
-88.75
40
0.5
50
90
51
180
0
ARC
8
0
10
239.8625
20
-88.75
40
0.5
50
0
51
90
0
ARC
8
0
10
226.8625
20
-101.75
40
0.5
50
180
51
270
0
ARC
8
0
10
239.8625
20
-101.75
40
0.5
50
270
51
0
0
LINE
8
0
10
257.81875
20
-88.25
11
270.81875
21
-88.25
0
LINE
8
0
10
257.81875
20
-102.25
11
270.81875
21
-102.25
0
LINE
8
0
10
257.31875
20
-88.75
11
257.31875
21
-101.75
0
LINE
8
0
10
271.31875
20
-88.75
11
271.31875
21
-101.75
0
ARC
8
0
10
257.81875
20
-88.75
40
0.5
50
90
51
180
0
ARC
8
0
10
270.81875
20
-88.75
40
0.5
50
0
51
90
0
ARC
8
0
10
257.81875
20
-101.75
40
0.5
50
180
51
270
0
ARC
8
0
10
270.81875
20
-101.75
40
0.5
50
270
51
0
0
LINE
8
0
10
249.38075
20
-89.25
11
255.38075
21
-89.25
0
LINE
8
0
10
249.38075
20
-104.25
11
255.38075
21
-104.25
0
LINE
8
0
10
248.88075
20
-89.75
11
248.88075
21
-103.75
0
LINE
8
0
10
255.88075
20
-89.75
11
255.88075
21
-103.75
0
ARC
8
0
10
249.38075
20
-89.75
40
0.5
50
90
51
180
0
ARC
8
0
10
255.38075
20
-89.75
40
0.5
50
0
51
90
0
ARC
8
0
10
249.38075
20
-103.75
40
0.5
50
180
51
270
0
ARC
8
0
10
255.38075
20
-103.75
40
0.5
50
270
51
0
0
LINE
8
0
10
273.25675
20
-89.25
11
279.25675
21
-89.25
0
LINE
8
0
10
273.25675
20
-104.25
11
279.25675
21
-104.25
0
LINE
8
0
10
272.75675
20
-89.75
11
272.75675
21
-103.75
0
LINE
8
0
10
279.75675
20
-89.75
11
279.75675
21
-103.75
0
ARC
8
0
10
273.25675
20
-89.75
40
0.5
50
90
51
180
0
ARC
8
0
10
279.25675
20
-89.75
40
0.5
50
0
51
90
0
ARC
8
0
10
273.25675
20
-103.75
40
0.5
50
180
51
270
0
ARC
8
0
10
279.25675
20
-103.75
40
0.5
50
270
51
0
0
LINE
8
0
10
293.5375
20
-88.25
11
306.5375
21
-88.25
0
LINE
8
0
10
293.5375
20
-102.25
11
306.5375
21
-102.25
0
LINE
8
0
10
293.0375
20
-88.75
11
293.0375
21
-101.75
0
LINE
8
0
10
307.0375
20
-88.75
11
307.0375
21
-101.75
0
ARC
8
0
10
293.5375
20
-88.75
40
0.5
50
90
51
180
0
ARC
8
0
10
306.5375
20
-88.75
40
0.5
50
0
51
90
0
ARC
8
0
10
293.5375
20
-101.75
40
0.5
50
180
51
270
0
ARC
8
0
10
306.5375
20
-101.75
40
0.5
50
270
51
0
0
LINE
8
0
10
317.35
20
-88.25
11
330.35
21
-88.25
0
LINE
8
0
10
317.35
20
-102.25
11
330.35
21
-102.25
0
LINE
8
0
10
316.85
20
-88.75
11
316.85
21
-101.75
0
LINE
8
0
10
330.85
20
-88.75
11
330.85
21
-101.75
0
ARC
8
0
10
317.35
20
-88.75
40
0.5
50
90
51
180
0
ARC
8
0
10
330.35
20
-88.75
40
0.5
50
0
51
90
0
ARC
8
0
10
317.35
20
-101.75
40
0.5
50
180
51
270
0
ARC
8
0
10
330.35
20
-101.75
40
0.5
50
270
51
0
0
LINE
8
0
10
336.4
20
-88.25
11
349.4
21
-88.25
0
LINE
8
0
10
336.4
20
-102.25
11
349.4
21
-102.25
0
LINE
8
0
10
335.9
20
-88.75
11
335.9
21
-101.75
0
LINE
8
0
10
349.9
20
-88.75
11
349.9
21
-101.75
0
ARC
8
0
10
336.4
20
-88.75
40
0.5
50
90
51
180
0
ARC
8
0
10
349.4
20
-88.75
40
0.5
50
0
51
90
0
ARC
8
0
10
336.4
20
-101.75
40
0.5
50
180
51
270
0
ARC
8
0
10
349.4
20
-101.75
40
0.5
50
270
51
0
0
LINE
8
0
10
355.45
20
-88.25
11
368.45
21
-88.25
0
LINE
8
0
10
355.45
20
-102.25
11
368.45
21
-102.25
0
LINE
8
0
10
354.95
20
-88.75
11
354.95
21
-101.75
0
LINE
8
0
10
368.95
20
-88.75
11
368.95
21
-101.75
0
ARC
8
0
10
355.45
20
-88.75
40
0.5
50
90
51
180
0
ARC
8
0
10
368.45
20
-88.75
40
0.5
50
0
51
90
0
ARC
8
0
10
355.45
20
-101.75
40
0.5
50
180
51
270
0
ARC
8
0
10
368.45
20
-101.75
40
0.5
50
270
51
0
0
LINE
8
0
10
374.5
20
-88.25
11
387.5
21
-88.25
0
LINE
8
0
10
374.5
20
-102.25
11
387.5
21
-102.25
0
LINE
8
0
10
374
20
-88.75
11
374
21
-101.75
0
LINE
8
0
10
388
20
-88.75
11
388
21
-101.75
0
ARC
8
0
10
374.5
20
-88.75
40
0.5
50
90
51
180
0
ARC
8
0
10
387.5
20
-88.75
40
0.5
50
0
51
90
0
ARC
8
0
10
374.5
20
-101.75
40
0.5
50
180
51
270
0
ARC
8
0
10
387.5
20
-101.75
40
0.5
50
270
51
0
0
LINE
8
0
10
14.93125
20
-107.3
11
27.93125
21
-107.3
0
LINE
8
0
10
14.93125
20
-121.3
11
27.93125
21
-121.3
0
LINE
8
0
10
14.43125
20
-107.8
11
14.43125
21
-120.8
0
LINE
8
0
10
28.43125
20
-107.8
11
28.43125
21
-120.8
0
ARC
8
0
10
14.93125
20
-107.8
40
0.5
50
90
51
180
0
ARC
8
0
10
27.93125
20
-107.8
40
0.5
50
0
51
90
0
ARC
8
0
10
14.93125
20
-120.8
40
0.5
50
180
51
270
0
ARC
8
0
10
27.93125
20
-120.8
40
0.5
50
270
51
0
0
LINE
8
0
10
6.49325
20
-108.3
11
12.49325
21
-108.3
0
LINE
8
0
10
6.49325
20
-123.3
11
12.49325
21
-123.3
0
LINE
8
0
10
5.99325
20
-108.8
11
5.99325
21
-122.8
0
LINE
8
0
10
12.99325
20
-108.8
11
12.99325
21
-122.8
0
ARC
8
0
10
6.49325
20
-108.8
40
0.5
50
90
51
180
0
ARC
8
0
10
12.49325
20
-108.8
40
0.5
50
0
51
90
0
ARC
8
0
10
6.49325
20
-122.8
40
0.5
50
180
51
270
0
ARC
8
0
10
12.49325
20
-122.8
40
0.5
50
270
51
0
0
LINE
8
0
10
30.36925
20
-108.3
11
36.36925
21
-108.3
0
LINE
8
0
10
30.36925
20
-123.3
11
36.36925
21
-123.3
0
LINE
8
0
10
29.86925
20
-108.8
11
29.86925
21
-122.8
0
LINE
8
0
10
36.86925
20
-108.8
11
36.86925
21
-122.8
0
ARC
8
0
10
30.36925
20
-108.8
40
0.5
50
90
51
180
0
ARC
8
0
10
36.36925
20
-108.8
40
0.5
50
0
51
90
0
ARC
8
0
10
30.36925
20
-122.8
40
0.5
50
180
51
270
0
ARC
8
0
10
36.36925
20
-122.8
40
0.5
50
270
51
0
0
LINE
8
0
10
45.8875
20
-107.3
11
58.8875
21
-107.3
0
LINE
8
0
10
45.8875
20
-121.3
11
58.8875
21
-121.3
0
LINE
8
0
10
45.3875
20
-107.8
11
45.3875
21
-120.8
0
LINE
8
0
10
59.3875
20
-107.8
11
59.3875
21
-120.8
0
ARC
8
0
10
45.8875
20
-107.8
40
0.5
50
90
51
180
0
ARC
8
0
10
58.8875
20
-107.8
40
0.5
50
0
51
90
0
ARC
8
0
10
45.8875
20
-120.8
40
0.5
50
180
51
270
0
ARC
8
0
10
58.8875
20
-120.8
40
0.5
50
270
51
0
0
LINE
8
0
10
64.9375
20
-107.3
11
77.9375
21
-107.3
0
LINE
8
0
10
64.9375
20
-121.3
11
77.9375
21
-121.3
0
LINE
8
0
10
64.4375
20
-107.8
11
64.4375
21
-120.8
0
LINE
8
0
10
78.4375
20
-107.8
11
78.4375
21
-120.8
0
ARC
8
0
10
64.9375
20
-107.8
40
0.5
50
90
51
180
0
ARC
8
0
10
77.9375
20
-107.8
40
0.5
50
0
51
90
0
ARC
8
0
10
64.9375
20
-120.8
40
0.5
50
180
51
270
0
ARC
8
0
10
77.9375
20
-120.8
40
0.5
50
270
51
0
0
LINE
8
0
10
83.9875
20
-107.3
11
96.9875
21
-107.3
0
LINE
8
0
10
83.9875
20
-121.3
11
96.9875
21
-121.3
0
LINE
8
0
10
83.4875
20
-107.8
11
83.4875
21
-120.8
0
LINE
8
0
10
97.4875
20
-107.8
11
97.4875
21
-120.8
0
ARC
8
0
10
83.9875
20
-107.8
40
0.5
50
90
51
180
0
ARC
8
0
10
96.9875
20
-107.8
40
0.5
50
0
51
90
0
ARC
8
0
10
83.9875
20
-120.8
40
0.5
50
180
51
270
0
ARC
8
0
10
96.9875
20
-120.8
40
0.5
50
270
51
0
0
LINE
8
0
10
103.0375
20
-107.3
11
116.0375
21
-107.3
0
LINE
8
0
10
103.0375
20
-121.3
11
116.0375
21
-121.3
0
LINE
8
0
10
102.5375
20
-107.8
11
102.5375
21
-120.8
0
LINE
8
0
10
116.5375
20
-107.8
11
116.5375
21
-120.8
0
ARC
8
0
10
103.0375
20
-107.8
40
0.5
50
90
51
180
0
ARC
8
0
10
116.0375
20
-107.8
40
0.5
50
0
51
90
0
ARC
8
0
10
103.0375
20
-120.8
40
0.5
50
180
51
270
0
ARC
8
0
10
116.0375
20
-120.8
40
0.5
50
270
51
0
0
LINE
8
0
10
122.0875
20
-107.3
11
135.0875
21
-107.3
0
LINE
8
0
10
122.0875
20
-121.3
11
135.0875
21
-121.3
0
LINE
8
0
10
121.5875
20
-107.8
11
121.5875
21
-120.8
0
LINE
8
0
10
135.5875
20
-107.8
11
135.5875
21
-120.8
0
ARC
8
0
10
122.0875
20
-107.8
40
0.5
50
90
51
180
0
ARC
8
0
10
135.0875
20
-107.8
40
0.5
50
0
51
90
0
ARC
8
0
10
122.0875
20
-120.8
40
0.5
50
180
51
270
0
ARC
8
0
10
135.0875
20
-120.8
40
0.5
50
270
51
0
0
LINE
8
0
10
141.1375
20
-107.3
11
154.1375
21
-107.3
0
LINE
8
0
10
141.1375
20
-121.3
11
154.1375
21
-121.3
0
LINE
8
0
10
140.6375
20
-107.8
11
140.6375
21
-120.8
0
LINE
8
0
10
154.6375
20
-107.8
11
154.6375
21
-120.8
0
ARC
8
0
10
141.1375
20
-107.8
40
0.5
50
90
51
180
0
ARC
8
0
10
154.1375
20
-107.8
40
0.5
50
0
51
90
0
ARC
8
0
10
141.1375
20
-120.8
40
0.5
50
180
51
270
0
ARC
8
0
10
154.1375
20
-120.8
40
0.5
50
270
51
0
0
LINE
8
0
10
160.1875
20
-107.3
11
173.1875
21
-107.3
0
LINE
8
0
10
160.1875
20
-121.3
11
173.1875
21
-121.3
0
LINE
8
0
10
159.6875
20
-107.8
11
159.6875
21
-120.8
0
LINE
8
0
10
173.6875
20
-107.8
11
173.6875
21
-120.8
0
ARC
8
0
10
160.1875
20
-107.8
40
0.5
50
90
51
180
0
ARC
8
0
10
173.1875
20
-107.8
40
0.5
50
0
51
90
0
ARC
8
0
10
160.1875
20
-120.8
40
0.5
50
180
51
270
0
ARC
8
0
10
173.1875
20
-120.8
40
0.5
50
270
51
0
0
LINE
8
0
10
179.2375
20
-107.3
11
192.2375
21
-107.3
0
LINE
8
0
10
179.2375
20
-121.3
11
192.2375
21
-121.3
0
LINE
8
0
10
178.7375
20
-107.8
11
178.7375
21
-120.8
0
LINE
8
0
10
192.7375
20
-107.8
11
192.7375
21
-120.8
0
ARC
8
0
10
179.2375
20
-107.8
40
0.5
50
90
51
180
0
ARC
8
0
10
192.2375
20
-107.8
40
0.5
50
0
51
90
0
ARC
8
0
10
179.2375
20
-120.8
40
0.5
50
180
51
270
0
ARC
8
0
10
192.2375
20
-120.8
40
0.5
50
270
51
0
0
LINE
8
0
10
198.2875
20
-107.3
11
211.2875
21
-107.3
0
LINE
8
0
10
198.2875
20
-121.3
11
211.2875
21
-121.3
0
LINE
8
0
10
197.7875
20
-107.8
11
197.7875
21
-120.8
0
LINE
8
0
10
211.7875
20
-107.8
11
211.7875
21
-120.8
0
ARC
8
0
10
198.2875
20
-107.8
40
0.5
50
90
51
180
0
ARC
8
0
10
211.2875
20
-107.8
40
0.5
50
0
51
90
0
ARC
8
0
10
198.2875
20
-120.8
40
0.5
50
180
51
270
0
ARC
8
0
10
211.2875
20
-120.8
40
0.5
50
270
51
0
0
LINE
8
0
10
217.3375
20
-107.3
11
230.3375
21
-107.3
0
LINE
8
0
10
217.3375
20
-121.3
11
230.3375
21
-121.3
0
LINE
8
0
10
216.8375
20
-107.8
11
216.8375
21
-120.8
0
LINE
8
0
10
230.8375
20
-107.8
11
230.8375
21
-120.8
0
ARC
8
0
10
217.3375
20
-107.8
40
0.5
50
90
51
180
0
ARC
8
0
10
230.3375
20
-107.8
40
0.5
50
0
51
90
0
ARC
8
0
10
217.3375
20
-120.8
40
0.5
50
180
51
270
0
ARC
8
0
10
230.3375
20
-120.8
40
0.5
50
270
51
0
0
LINE
8
0
10
243.53125
20
-107.3
11
256.53125
21
-107.3
0
LINE
8
0
10
243.53125
20
-121.3
11
256.53125
21
-121.3
0
LINE
8
0
10
243.03125
20
-107.8
11
243.03125
21
-120.8
0
LINE
8
0
10
257.03125
20
-107.8
11
257.03125
21
-120.8
0
ARC
8
0
10
243.53125
20
-107.8
40
0.5
50
90
51
180
0
ARC
8
0
10
256.53125
20
-107.8
40
0.5
50
0
51
90
0
ARC
8
0
10
243.53125
20
-120.8
40
0.5
50
180
51
270
0
ARC
8
0
10
256.53125
20
-120.8
40
0.5
50
270
51
0
0
LINE
8
0
10
317.35
20
-107.3
11
330.35
21
-107.3
0
LINE
8
0
10
317.35
20
-121.3
11
330.35
21
-121.3
0
LINE
8
0
10
316.85
20
-107.8
11
316.85
21
-120.8
0
LINE
8
0
10
330.85
20
-107.8
11
330.85
21
-120.8
0
ARC
8
0
10
317.35
20
-107.8
40
0.5
50
90
51
180
0
ARC
8
0
10
330.35
20
-107.8
40
0.5
50
0
51
90
0
ARC
8
0
10
317.35
20
-120.8
40
0.5
50
180
51
270
0
ARC
8
0
10
330.35
20
-120.8
40
0.5
50
270
51
0
0
LINE
8
0
10
336.4
20
-107.3
11
349.4
21
-107.3
0
LINE
8
0
10
336.4
20
-121.3
11
349.4
21
-121.3
0
LINE
8
0
10
335.9
20
-107.8
11
335.9
21
-120.8
0
LINE
8
0
10
349.9
20
-107.8
11
349.9
21
-120.8
0
ARC
8
0
10
336.4
20
-107.8
40
0.5
50
90
51
180
0
ARC
8
0
10
349.4
20
-107.8
40
0.5
50
0
51
90
0
ARC
8
0
10
336.4
20
-120.8
40
0.5
50
180
51
270
0
ARC
8
0
10
349.4
20
-120.8
40
0.5
50
270
51
0
0
LINE
8
0
10
355.45
20
-107.3
11
368.45
21
-107.3
0
LINE
8
0
10
355.45
20
-121.3
11
368.45
21
-121.3
0
LINE
8
0
10
354.95
20
-107.8
11
354.95
21
-120.8
0
LINE
8
0
10
368.95
20
-107.8
11
368.95
21
-120.8
0
ARC
8
0
10
355.45
20
-107.8
40
0.5
50
90
51
180
0
ARC
8
0
10
368.45
20
-107.8
40
0.5
50
0
51
90
0
ARC
8
0
10
355.45
20
-120.8
40
0.5
50
180
51
270
0
ARC
8
0
10
368.45
20
-120.8
40
0.5
50
270
51
0
0
LINE
8
0
10
388
20
-117.325
11
388
21
-130.325
0
LINE
8
0
10
374
20
-117.325
11
374
21
-130.325
0
LINE
8
0
10
387.5
20
-116.825
11
374.5
21
-116.825
0
LINE
8
0
10
387.5
20
-130.825
11
374.5
21
-130.825
0
ARC
8
0
10
387.5
20
-117.325
40
0.5
50
0
51
90
0
ARC
8
0
10
387.5
20
-130.325
40
0.5
50
270
51
0
0
ARC
8
0
10
374.5
20
-117.325
40
0.5
50
90
51
180
0
ARC
8
0
10
374.5
20
-130.325
40
0.5
50
180
51
270
0
LINE
8
0
10
387
20
-108.887
11
387
21
-114.887
0
LINE
8
0
10
372
20
-108.887
11
372
21
-114.887
0
LINE
8
0
10
386.5
20
-108.387
11
372.5
21
-108.387
0
LINE
8
0
10
386.5
20
-115.387
11
372.5
21
-115.387
0
ARC
8
0
10
386.5
20
-108.887
40
0.5
50
0
51
90
0
ARC
8
0
10
386.5
20
-114.887
40
0.5
50
270
51
0
0
ARC
8
0
10
372.5
20
-108.887
40
0.5
50
90
51
180
0
ARC
8
0
10
372.5
20
-114.887
40
0.5
50
180
51
270
0
LINE
8
0
10
387
20
-132.763
11
387
21
-138.763
0
LINE
8
0
10
372
20
-132.763
11
372
21
-138.763
0
LINE
8
0
10
386.5
20
-132.263
11
372.5
21
-132.263
0
LINE
8
0
10
386.5
20
-139.263
11
372.5
21
-139.263
0
ARC
8
0
10
386.5
20
-132.763
40
0.5
50
0
51
90
0
ARC
8
0
10
386.5
20
-138.763
40
0.5
50
270
51
0
0
ARC
8
0
10
372.5
20
-132.763
40
0.5
50
90
51
180
0
ARC
8
0
10
372.5
20
-138.763
40
0.5
50
180
51
270
0
LINE
8
0
10
274.4875
20
-112.0625
11
287.4875
21
-112.0625
0
LINE
8
0
10
274.4875
20
-126.0625
11
287.4875
21
-126.0625
0
LINE
8
0
10
273.9875
20
-112.5625
11
273.9875
21
-125.5625
0
LINE
8
0
10
287.9875
20
-112.5625
11
287.9875
21
-125.5625
0
ARC
8
0
10
274.4875
20
-112.5625
40
0.5
50
90
51
180
0
ARC
8
0
10
287.4875
20
-112.5625
40
0.5
50
0
51
90
0
ARC
8
0
10
274.4875
20
-125.5625
40
0.5
50
180
51
270
0
ARC
8
0
10
287.4875
20
-125.5625
40
0.5
50
270
51
0
0
LINE
8
0
10
5.40625
20
-126.35
11
18.40625
21
-126.35
0
LINE
8
0
10
5.40625
20
-140.35
11
18.40625
21
-140.35
0
LINE
8
0
10
4.90625
20
-126.85
11
4.90625
21
-139.85
0
LINE
8
0
10
18.90625
20
-126.85
11
18.90625
21
-139.85
0
ARC
8
0
10
5.40625
20
-126.85
40
0.5
50
90
51
180
0
ARC
8
0
10
18.40625
20
-126.85
40
0.5
50
0
51
90
0
ARC
8
0
10
5.40625
20
-139.85
40
0.5
50
180
51
270
0
ARC
8
0
10
18.40625
20
-139.85
40
0.5
50
270
51
0
0
LINE
8
0
10
29.21875
20
-126.35
11
42.21875
21
-126.35
0
LINE
8
0
10
29.21875
20
-140.35
11
42.21875
21
-140.35
0
LINE
8
0
10
28.71875
20
-126.85
11
28.71875
21
-139.85
0
LINE
8
0
10
42.71875
20
-126.85
11
42.71875
21
-139.85
0
ARC
8
0
10
29.21875
20
-126.85
40
0.5
50
90
51
180
0
ARC
8
0
10
42.21875
20
-126.85
40
0.5
50
0
51
90
0
ARC
8
0
10
29.21875
20
-139.85
40
0.5
50
180
51
270
0
ARC
8
0
10
42.21875
20
-139.85
40
0.5
50
270
51
0
0
LINE
8
0
10
53.03125
20
-126.35
11
66.03125
21
-126.35
0
LINE
8
0
10
53.03125
20
-140.35
11
66.03125
21
-140.35
0
LINE
8
0
10
52.53125
20
-126.85
11
52.53125
21
-139.85
0
LINE
8
0
10
66.53125
20
-126.85
11
66.53125
21
-139.85
0
ARC
8
0
10
53.03125
20
-126.85
40
0.5
50
90
51
180
0
ARC
8
0
10
66.03125
20
-126.85
40
0.5
50
0
51
90
0
ARC
8
0
10
53.03125
20
-139.85
40
0.5
50
180
51
270
0
ARC
8
0
10
66.03125
20
-139.85
40
0.5
50
270
51
0
0
LINE
8
0
10
124.46875
20
-126.35
11
137.46875
21
-126.35
0
LINE
8
0
10
124.46875
20
-140.35
11
137.46875
21
-140.35
0
LINE
8
0
10
123.96875
20
-126.85
11
123.96875
21
-139.85
0
LINE
8
0
10
137.96875
20
-126.85
11
137.96875
21
-139.85
0
ARC
8
0
10
124.46875
20
-126.85
40
0.5
50
90
51
180
0
ARC
8
0
10
137.46875
20
-126.85
40
0.5
50
0
51
90
0
ARC
8
0
10
124.46875
20
-139.85
40
0.5
50
180
51
270
0
ARC
8
0
10
137.46875
20
-139.85
40
0.5
50
270
51
0
0
LINE
8
0
10
77.96875
20
-127.35
11
83.96875
21
-127.35
0
LINE
8
0
10
77.96875
20
-142.35
11
83.96875
21
-142.35
0
LINE
8
0
10
77.46875
20
-127.85
11
77.46875
21
-141.85
0
LINE
8
0
10
84.46875
20
-127.85
11
84.46875
21
-141.85
0
ARC
8
0
10
77.96875
20
-127.85
40
0.5
50
90
51
180
0
ARC
8
0
10
83.96875
20
-127.85
40
0.5
50
0
51
90
0
ARC
8
0
10
77.96875
20
-141.85
40
0.5
50
180
51
270
0
ARC
8
0
10
83.96875
20
-141.85
40
0.5
50
270
51
0
0
LINE
8
0
10
177.96875
20
-127.35
11
183.96875
21
-127.35
0
LINE
8
0
10
177.96875
20
-142.35
11
183.96875
21
-142.35
0
LINE
8
0
10
177.46875
20
-127.85
11
177.46875
21
-141.85
0
LINE
8
0
10
184.46875
20
-127.85
11
184.46875
21
-141.85
0
ARC
8
0
10
177.96875
20
-127.85
40
0.5
50
90
51
180
0
ARC
8
0
10
183.96875
20
-127.85
40
0.5
50
0
51
90
0
ARC
8
0
10
177.96875
20
-141.85
40
0.5
50
180
51
270
0
ARC
8
0
10
183.96875
20
-141.85
40
0.5
50
270
51
0
0
LINE
8
0
10
91.13125
20
-126.35
11
104.13125
21
-126.35
0
LINE
8
0
10
91.13125
20
-140.35
11
104.13125
21
-140.35
0
LINE
8
0
10
90.63125
20
-126.85
11
90.63125
21
-139.85
0
LINE
8
0
10
104.63125
20
-126.85
11
104.63125
21
-139.85
0
ARC
8
0
10
91.13125
20
-126.85
40
0.5
50
90
51
180
0
ARC
8
0
10
104.13125
20
-126.85
40
0.5
50
0
51
90
0
ARC
8
0
10
91.13125
20
-139.85
40
0.5
50
180
51
270
0
ARC
8
0
10
104.13125
20
-139.85
40
0.5
50
270
51
0
0
LINE
8
0
10
82.69325
20
-127.35
11
88.69325
21
-127.35
0
LINE
8
0
10
82.69325
20
-142.35
11
88.69325
21
-142.35
0
LINE
8
0
10
82.19325
20
-127.85
11
82.19325
21
-141.85
0
LINE
8
0
10
89.19325
20
-127.85
11
89.19325
21
-141.85
0
ARC
8
0
10
82.69325
20
-127.85
40
0.5
50
90
51
180
0
ARC
8
0
10
88.69325
20
-127.85
40
0.5
50
0
51
90
0
ARC
8
0
10
82.69325
20
-141.85
40
0.5
50
180
51
270
0
ARC
8
0
10
88.69325
20
-141.85
40
0.5
50
270
51
0
0
LINE
8
0
10
106.56925
20
-127.35
11
112.56925
21
-127.35
0
LINE
8
0
10
106.56925
20
-142.35
11
112.56925
21
-142.35
0
LINE
8
0
10
106.06925
20
-127.85
11
106.06925
21
-141.85
0
LINE
8
0
10
113.06925
20
-127.85
11
113.06925
21
-141.85
0
ARC
8
0
10
106.56925
20
-127.85
40
0.5
50
90
51
180
0
ARC
8
0
10
112.56925
20
-127.85
40
0.5
50
0
51
90
0
ARC
8
0
10
106.56925
20
-141.85
40
0.5
50
180
51
270
0
ARC
8
0
10
112.56925
20
-141.85
40
0.5
50
270
51
0
0
LINE
8
0
10
129.23125
20
-126.35
11
142.23125
21
-126.35
0
LINE
8
0
10
129.23125
20
-140.35
11
142.23125
21
-140.35
0
LINE
8
0
10
128.73125
20
-126.85
11
128.73125
21
-139.85
0
LINE
8
0
10
142.73125
20
-126.85
11
142.73125
21
-139.85
0
ARC
8
0
10
129.23125
20
-126.85
40
0.5
50
90
51
180
0
ARC
8
0
10
142.23125
20
-126.85
40
0.5
50
0
51
90
0
ARC
8
0
10
129.23125
20
-139.85
40
0.5
50
180
51
270
0
ARC
8
0
10
142.23125
20
-139.85
40
0.5
50
270
51
0
0
LINE
8
0
10
162.56875
20
-126.35
11
175.56875
21
-126.35
0
LINE
8
0
10
162.56875
20
-140.35
11
175.56875
21
-140.35
0
LINE
8
0
10
162.06875
20
-126.85
11
162.06875
21
-139.85
0
LINE
8
0
10
176.06875
20
-126.85
11
176.06875
21
-139.85
0
ARC
8
0
10
162.56875
20
-126.85
40
0.5
50
90
51
180
0
ARC
8
0
10
175.56875
20
-126.85
40
0.5
50
0
51
90
0
ARC
8
0
10
162.56875
20
-139.85
40
0.5
50
180
51
270
0
ARC
8
0
10
175.56875
20
-139.85
40
0.5
50
270
51
0
0
LINE
8
0
10
154.13075
20
-127.35
11
160.13075
21
-127.35
0
LINE
8
0
10
154.13075
20
-142.35
11
160.13075
21
-142.35
0
LINE
8
0
10
153.63075
20
-127.85
11
153.63075
21
-141.85
0
LINE
8
0
10
160.63075
20
-127.85
11
160.63075
21
-141.85
0
ARC
8
0
10
154.13075
20
-127.85
40
0.5
50
90
51
180
0
ARC
8
0
10
160.13075
20
-127.85
40
0.5
50
0
51
90
0
ARC
8
0
10
154.13075
20
-141.85
40
0.5
50
180
51
270
0
ARC
8
0
10
160.13075
20
-141.85
40
0.5
50
270
51
0
0
LINE
8
0
10
178.00675
20
-127.35
11
184.00675
21
-127.35
0
LINE
8
0
10
178.00675
20
-142.35
11
184.00675
21
-142.35
0
LINE
8
0
10
177.50675
20
-127.85
11
177.50675
21
-141.85
0
LINE
8
0
10
184.50675
20
-127.85
11
184.50675
21
-141.85
0
ARC
8
0
10
178.00675
20
-127.85
40
0.5
50
90
51
180
0
ARC
8
0
10
184.00675
20
-127.85
40
0.5
50
0
51
90
0
ARC
8
0
10
178.00675
20
-141.85
40
0.5
50
180
51
270
0
ARC
8
0
10
184.00675
20
-141.85
40
0.5
50
270
51
0
0
LINE
8
0
10
193.525
20
-126.35
11
206.525
21
-126.35
0
LINE
8
0
10
193.525
20
-140.35
11
206.525
21
-140.35
0
LINE
8
0
10
193.025
20
-126.85
11
193.025
21
-139.85
0
LINE
8
0
10
207.025
20
-126.85
11
207.025
21
-139.85
0
ARC
8
0
10
193.525
20
-126.85
40
0.5
50
90
51
180
0
ARC
8
0
10
206.525
20
-126.85
40
0.5
50
0
51
90
0
ARC
8
0
10
193.525
20
-139.85
40
0.5
50
180
51
270
0
ARC
8
0
10
206.525
20
-139.85
40
0.5
50
270
51
0
0
LINE
8
0
10
212.575
20
-126.35
11
225.575
21
-126.35
0
LINE
8
0
10
212.575
20
-140.35
11
225.575
21
-140.35
0
LINE
8
0
10
212.075
20
-126.85
11
212.075
21
-139.85
0
LINE
8
0
10
226.075
20
-126.85
11
226.075
21
-139.85
0
ARC
8
0
10
212.575
20
-126.85
40
0.5
50
90
51
180
0
ARC
8
0
10
225.575
20
-126.85
40
0.5
50
0
51
90
0
ARC
8
0
10
212.575
20
-139.85
40
0.5
50
180
51
270
0
ARC
8
0
10
225.575
20
-139.85
40
0.5
50
270
51
0
0
LINE
8
0
10
231.625
20
-126.35
11
244.625
21
-126.35
0
LINE
8
0
10
231.625
20
-140.35
11
244.625
21
-140.35
0
LINE
8
0
10
231.125
20
-126.85
11
231.125
21
-139.85
0
LINE
8
0
10
245.125
20
-126.85
11
245.125
21
-139.85
0
ARC
8
0
10
231.625
20
-126.85
40
0.5
50
90
51
180
0
ARC
8
0
10
244.625
20
-126.85
40
0.5
50
0
51
90
0
ARC
8
0
10
231.625
20
-139.85
40
0.5
50
180
51
270
0
ARC
8
0
10
244.625
20
-139.85
40
0.5
50
270
51
0
0
LINE
8
0
10
326.875
20
-126.35
11
339.875
21
-126.35
0
LINE
8
0
10
326.875
20
-140.35
11
339.875
21
-140.35
0
LINE
8
0
10
326.375
20
-126.85
11
326.375
21
-139.85
0
LINE
8
0
10
340.375
20
-126.85
11
340.375
21
-139.85
0
ARC
8
0
10
326.875
20
-126.85
40
0.5
50
90
51
180
0
ARC
8
0
10
339.875
20
-126.85
40
0.5
50
0
51
90
0
ARC
8
0
10
326.875
20
-139.85
40
0.5
50
180
51
270
0
ARC
8
0
10
339.875
20
-139.85
40
0.5
50
270
51
0
0
LINE
8
0
10
318.437
20
-127.35
11
324.437
21
-127.35
0
LINE
8
0
10
318.437
20
-142.35
11
324.437
21
-142.35
0
LINE
8
0
10
317.937
20
-127.85
11
317.937
21
-141.85
0
LINE
8
0
10
324.937
20
-127.85
11
324.937
21
-141.85
0
ARC
8
0
10
318.437
20
-127.85
40
0.5
50
90
51
180
0
ARC
8
0
10
324.437
20
-127.85
40
0.5
50
0
51
90
0
ARC
8
0
10
318.437
20
-141.85
40
0.5
50
180
51
270
0
ARC
8
0
10
324.437
20
-141.85
40
0.5
50
270
51
0
0
LINE
8
0
10
342.313
20
-127.35
11
348.313
21
-127.35
0
LINE
8
0
10
342.313
20
-142.35
11
348.313
21
-142.35
0
LINE
8
0
10
341.813
20
-127.85
11
341.813
21
-141.85
0
LINE
8
0
10
348.813
20
-127.85
11
348.813
21
-141.85
0
ARC
8
0
10
342.313
20
-127.85
40
0.5
50
90
51
180
0
ARC
8
0
10
348.313
20
-127.85
40
0.5
50
0
51
90
0
ARC
8
0
10
342.313
20
-141.85
40
0.5
50
180
51
270
0
ARC
8
0
10
348.313
20
-141.85
40
0.5
50
270
51
0
0
LINE
8
0
10
317.35
20
-126.35
11
330.35
21
-126.35
0
LINE
8
0
10
317.35
20
-140.35
11
330.35
21
-140.35
0
LINE
8
0
10
316.85
20
-126.85
11
316.85
21
-139.85
0
LINE
8
0
10
330.85
20
-126.85
11
330.85
21
-139.85
0
ARC
8
0
10
317.35
20
-126.85
40
0.5
50
90
51
180
0
ARC
8
0
10
330.35
20
-126.85
40
0.5
50
0
51
90
0
ARC
8
0
10
317.35
20
-139.85
40
0.5
50
180
51
270
0
ARC
8
0
10
330.35
20
-139.85
40
0.5
50
270
51
0
0
LINE
8
0
10
336.4
20
-126.35
11
349.4
21
-126.35
0
LINE
8
0
10
336.4
20
-140.35
11
349.4
21
-140.35
0
LINE
8
0
10
335.9
20
-126.85
11
335.9
21
-139.85
0
LINE
8
0
10
349.9
20
-126.85
11
349.9
21
-139.85
0
ARC
8
0
10
336.4
20
-126.85
40
0.5
50
90
51
180
0
ARC
8
0
10
349.4
20
-126.85
40
0.5
50
0
51
90
0
ARC
8
0
10
336.4
20
-139.85
40
0.5
50
180
51
270
0
ARC
8
0
10
349.4
20
-139.85
40
0.5
50
270
51
0
0
LINE
8
0
10
355.45
20
-126.35
11
368.45
21
-126.35
0
LINE
8
0
10
355.45
20
-140.35
11
368.45
21
-140.35
0
LINE
8
0
10
354.95
20
-126.85
11
354.95
21
-139.85
0
LINE
8
0
10
368.95
20
-126.85
11
368.95
21
-139.85
0
ARC
8
0
10
355.45
20
-126.85
40
0.5
50
90
51
180
0
ARC
8
0
10
368.45
20
-126.85
40
0.5
50
0
51
90
0
ARC
8
0
10
355.45
20
-139.85
40
0.5
50
180
51
270
0
ARC
8
0
10
368.45
20
-139.85
40
0.5
50
270
51
0
0
LINE
8
0
10
255.4375
20
-131.1125
11
268.4375
21
-131.1125
0
LINE
8
0
10
255.4375
20
-145.1125
11
268.4375
21
-145.1125
0
LINE
8
0
10
254.9375
20
-131.6125
11
254.9375
21
-144.6125
0
LINE
8
0
10
268.9375
20
-131.6125
11
268.9375
21
-144.6125
0
ARC
8
0
10
255.4375
20
-131.6125
40
0.5
50
90
51
180
0
ARC
8
0
10
268.4375
20
-131.6125
40
0.5
50
0
51
90
0
ARC
8
0
10
255.4375
20
-144.6125
40
0.5
50
180
51
270
0
ARC
8
0
10
268.4375
20
-144.6125
40
0.5
50
270
51
0
0
LINE
8
0
10
274.4875
20
-131.1125
11
287.4875
21
-131.1125
0
LINE
8
0
10
274.4875
20
-145.1125
11
287.4875
21
-145.1125
0
LINE
8
0
10
273.9875
20
-131.6125
11
273.9875
21
-144.6125
0
LINE
8
0
10
287.9875
20
-131.6125
11
287.9875
21
-144.6125
0
ARC
8
0
10
274.4875
20
-131.6125
40
0.5
50
90
51
180
0
ARC
8
0
10
287.4875
20
-131.6125
40
0.5
50
0
51
90
0
ARC
8
0
10
274.4875
20
-144.6125
40
0.5
50
180
51
270
0
ARC
8
0
10
287.4875
20
-144.6125
40
0.5
50
270
51
0
0
LINE
8
0
10
293.5375
20
-131.1125
11
306.5375
21
-131.1125
0
LINE
8
0
10
293.5375
20
-145.1125
11
306.5375
21
-145.1125
0
LINE
8
0
10
293.0375
20
-131.6125
11
293.0375
21
-144.6125
0
LINE
8
0
10
307.0375
20
-131.6125
11
307.0375
21
-144.6125
0
ARC
8
0
10
293.5375
20
-131.6125
40
0.5
50
90
51
180
0
ARC
8
0
10
306.5375
20
-131.6125
40
0.5
50
0
51
90
0
ARC
8
0
10
293.5375
20
-144.6125
40
0.5
50
180
51
270
0
ARC
8
0
10
306.5375
20
-144.6125
40
0.5
50
270
51
0
0
LINE
8
0
10
0
20
-147.6375
11
390.525
21
-147.6375
0
LINE
8
0
10
0
20
0
11
390.525
21
0
0
LINE
8
0
10
0
20
-147.6375
11
0
21
0
0
LINE
8
0
10
390.525
20
-147.6375
11
390.525
21
0
0
ENDSEC
0
EOF