M48
; DRILL file {KiCad (6.0.5)} date Sun May 15 23:44:49 2022
; FORMAT={-:-/ absolute / metric / decimal}
; #@! TF.CreationDate,2022-05-15T23:44:49-04:00
; #@! TF.GenerationSoftware,Kicad,Pcbnew,(6.0.5)
; #@! TF.FileFunction,Plated,1,2,PTH
FMAT,2
METRIC
; #@! TA.AperFunction,Plated,PTH,ViaDrill
T1C0.300
; #@! TA.AperFunction,Plated,PTH,ComponentDrill
T2C0.300
; #@! TA.AperFunction,Plated,PTH,ViaDrill
T3C0.400
; #@! TA.AperFunction,Plated,PTH,ComponentDrill
T4C0.600
; #@! TA.AperFunction,Plated,PTH,ComponentDrill
T5C0.800
; #@! TA.AperFunction,Plated,PTH,ComponentDrill
T6C0.900
; #@! TA.AperFunction,Plated,PTH,ComponentDrill
T7C1.000
; #@! TA.AperFunction,Plated,PTH,ComponentDrill
T8C1.100
; #@! TA.AperFunction,Plated,PTH,ComponentDrill
T9C1.270
; #@! TA.AperFunction,Plated,PTH,ComponentDrill
T10C1.524
; #@! TA.AperFunction,Plated,PTH,ComponentDrill
T11C1.525
; #@! TA.AperFunction,Plated,PTH,ComponentDrill
T12C1.800
%
G90
G05
T1
X68.175Y-169.6
X70.975Y-169.525
X77.0Y-48.325
X78.4Y-43.625
X81.3Y-48.625
X91.975Y-169.45
X92.7Y-140.825
X94.5Y-165.425
X95.0Y-169.425
X96.6Y-56.825
X99.05Y-169.375
X99.125Y-131.275
X108.675Y-150.35
X110.1Y-158.225
X113.4Y-165.425
X114.1Y-55.925
X114.4Y-53.625
X115.825Y-169.325
X117.3Y-55.125
X117.4Y-57.025
X118.125Y-131.35
X118.9Y-168.325
X124.7Y-80.225
X126.4Y-165.425
X126.7Y-80.225
X127.7Y-150.3
X136.9Y-101.925
X137.225Y-131.35
X141.4Y-168.325
X141.5Y-165.425
X143.8Y-80.225
X145.8Y-80.225
X146.725Y-150.35
X149.15Y-169.25
X155.8Y-102.025
X156.3Y-131.25
X158.7Y-165.425
X158.7Y-168.325
X165.8Y-150.25
X169.0Y-32.425
X175.325Y-131.225
X180.1Y-93.125
X180.2Y-169.725
X182.825Y-169.7
X184.8Y-150.325
X187.25Y-169.375
X194.4Y-131.2
X198.2Y-93.525
X203.9Y-150.325
X213.425Y-131.35
X215.85Y-91.325
X218.2Y-93.2
X220.575Y-169.3
X221.15Y-92.525
X222.925Y-150.35
X223.8Y-165.225
X223.8Y-168.325
X232.4Y-131.525
X234.8Y-57.025
X235.1Y-168.325
X235.2Y-159.525
X235.2Y-161.425
X235.2Y-165.225
X236.2Y-55.125
X236.58Y-40.435
X236.9Y-57.025
X236.96Y-43.375
X237.1Y-35.125
X237.2Y-31.625
X237.25Y-93.175
X238.53Y-37.275
X238.54Y-47.375
X238.7Y-32.425
X239.15Y-38.975
X239.6Y-33.125
X240.9Y-32.225
X241.3Y-52.525
X241.3Y-54.925
X241.4Y-38.125
X241.45Y-41.625
X241.975Y-150.375
X242.2Y-33.325
X242.6Y-36.525
X243.23Y-49.955
X243.35Y-39.075
X243.46Y-47.505
X243.55Y-89.325
X243.6Y-38.125
X244.05Y-37.375
X244.1Y-54.525
X245.4Y-30.125
X245.55Y-89.375
X245.6Y-41.675
X245.7Y-52.525
X246.1Y-38.525
X247.15Y-43.825
X247.2Y-32.725
X247.9Y-36.325
X248.5Y-30.025
X249.0Y-32.525
X249.3Y-51.425
X249.3Y-52.525
X249.3Y-54.525
X250.27Y-31.415
X250.35Y-41.625
X251.3Y-43.825
X251.3Y-51.425
X251.3Y-54.525
X251.5Y-131.425
X252.2Y-31.925
X253.8Y-35.325
X254.6Y-37.425
X255.0Y-158.425
X255.9Y-35.125
X255.9Y-55.925
X256.3Y-93.225
X256.325Y-169.425
X258.9Y-78.725
X259.4Y-67.225
X260.4Y-37.425
X261.05Y-150.325
X261.05Y-169.325
X261.1Y-67.225
X262.3Y-35.625
X263.16Y-33.445
X266.6Y-32.325
X266.6Y-34.625
X267.0Y-74.925
X268.43Y-65.245
X269.3Y-67.225
X269.42Y-63.955
X270.6Y-131.25
X273.2Y-74.925
X273.4Y-64.75
X275.0Y-78.225
X275.35Y-169.425
X276.575Y-65.075
X279.42Y-64.425
X280.1Y-150.3
X282.76Y-64.575
X284.9Y-112.15
X286.1Y-69.225
X289.3Y-71.875
X289.6Y-169.35
X289.65Y-131.25
X291.2Y-71.875
X293.6Y-71.925
X294.375Y-169.35
X294.425Y-62.475
X295.5Y-67.425
X298.1Y-69.425
X299.7Y-71.825
X299.7Y-72.925
X299.7Y-73.925
X299.71Y-75.12
X300.7Y-71.825
X300.7Y-72.925
X300.7Y-73.925
X301.7Y-71.825
X301.7Y-72.925
X301.7Y-73.925
X302.4Y-62.925
X302.6Y-85.425
X303.0Y-70.425
X303.875Y-112.1
X304.1Y-71.725
X304.105Y-73.62
X304.12Y-72.645
X305.05Y-85.375
X305.7Y-69.225
X306.275Y-150.325
X306.625Y-131.725
X308.2Y-80.425
X308.3Y-83.525
X311.0Y-131.675
X311.625Y-62.0
X315.4Y-65.05
X316.1Y-102.025
X316.4Y-100.125
X318.2Y-174.175
X319.9Y-100.025
X319.9Y-102.025
X320.5Y-69.325
X320.6Y-131.325
X323.0Y-84.425
X323.3Y-69.825
X323.5Y-81.025
X324.1Y-82.825
X324.7Y-78.725
X324.9Y-95.025
X325.0Y-89.125
X326.0Y-92.725
X326.525Y-115.75
X326.7Y-75.825
X326.8Y-78.625
X327.775Y-112.375
X327.8Y-51.125
X327.9Y-69.125
X330.3Y-62.725
X332.2Y-60.625
X332.55Y-63.875
X333.5Y-74.825
X337.15Y-64.825
X337.25Y-155.175
X337.25Y-174.175
X339.25Y-60.675
X340.35Y-63.875
X356.3Y-174.175
X356.35Y-64.725
X365.5Y-154.625
X366.6Y-155.825
X372.7Y-31.625
X375.375Y-64.6
X375.9Y-169.045
X377.8Y-57.125
X378.24Y-164.645
X380.1Y-112.225
X380.15Y-131.275
X380.15Y-150.225
X380.7Y-37.425
X382.2Y-32.925
X383.7Y-34.525
X392.58Y-168.475
X393.48Y-166.255
X399.15Y-112.3
X399.15Y-131.3
X399.175Y-64.6
X399.175Y-150.25
X399.8Y-141.625
X400.1Y-53.325
X400.9Y-49.425
X400.9Y-51.025
X401.4Y-56.725
X401.4Y-142.625
X402.3Y-140.825
X402.8Y-51.025
X402.9Y-49.425
X403.3Y-54.825
X403.3Y-56.825
X403.8Y-139.325
X405.0Y-56.125
X405.25Y-63.925
X405.9Y-52.525
X406.2Y-55.025
X418.175Y-112.2
X418.2Y-131.2
X418.225Y-150.35
X418.3Y-64.65
X419.2Y-53.325
X420.6Y-142.825
X421.0Y-56.925
X421.4Y-51.425
X423.0Y-52.825
X423.2Y-56.525
X423.47Y-126.535
X424.95Y-154.155
X426.0Y-107.225
X426.0Y-112.125
X426.81Y-152.695
X428.3Y-110.345
X429.2Y-113.485
X431.075Y-105.85
X433.625Y-115.35
X434.9Y-91.325
X437.4Y-77.625
X437.7Y-80.725
X438.1Y-97.075
X441.0Y-79.125
X441.25Y-97.325
X442.0Y-91.475
X446.4Y-29.125
T2
X76.0Y-69.775
X76.0Y-70.375
X76.0Y-70.975
X76.6Y-69.775
X76.6Y-70.375
X76.6Y-70.975
X82.2Y-69.775
X82.2Y-70.375
X82.2Y-70.975
X82.8Y-69.775
X82.8Y-70.375
X82.8Y-70.975
T3
X58.23Y-92.645
X58.85Y-36.275
X63.5Y-93.175
X63.5Y-95.425
X63.6Y-155.925
X63.75Y-48.125
X64.2Y-50.225
X64.3Y-49.075
X65.85Y-64.925
X66.3Y-47.825
X66.6Y-53.125
X66.7Y-49.125
X67.0Y-50.225
X67.4Y-72.425
X67.4Y-80.225
X68.2Y-131.675
X68.2Y-150.625
X68.8Y-29.025
X68.9Y-92.675
X69.0Y-85.925
X69.0Y-94.925
X69.0Y-115.925
X69.0Y-117.925
X69.3Y-48.025
X69.4Y-49.125
X69.5Y-160.425
X69.6Y-73.125
X69.7Y-78.825
X70.2Y-50.125
X70.4Y-103.325
X70.5Y-92.825
X70.5Y-94.925
X70.5Y-112.475
X70.6Y-89.025
X71.0Y-82.625
X71.0Y-142.925
X71.0Y-153.425
X71.2Y-68.125
X71.3Y-101.225
X71.715Y-52.234
X72.2Y-54.725
X72.2Y-85.725
X72.4Y-57.025
X72.4Y-60.425
X72.5Y-64.125
X72.5Y-116.125
X72.5Y-118.025
X72.9Y-92.825
X72.9Y-131.575
X73.0Y-94.925
X73.2Y-69.425
X73.4Y-83.625
X73.5Y-89.025
X73.6Y-108.225
X73.62Y-67.474
X73.8Y-48.125
X73.9Y-111.925
X73.9Y-121.125
X74.1Y-29.025
X74.4Y-49.125
X74.7Y-54.725
X74.8Y-57.025
X74.8Y-60.425
X74.8Y-64.125
X74.9Y-50.225
X74.9Y-102.125
X75.0Y-86.425
X75.0Y-104.225
X75.1Y-43.425
X75.2Y-117.925
X75.3Y-116.025
X75.6Y-140.125
X75.7Y-137.925
X76.1Y-44.025
X76.1Y-72.325
X76.1Y-108.125
X76.1Y-111.925
X76.6Y-156.225
X76.9Y-79.925
X77.2Y-121.325
X77.3Y-50.325
X77.6Y-53.125
X77.6Y-129.025
X77.7Y-150.525
X77.8Y-60.425
X77.8Y-64.025
X77.9Y-57.225
X77.9Y-93.625
X78.8Y-137.425
X78.9Y-57.425
X78.9Y-59.925
X78.9Y-64.425
X78.9Y-134.725
X79.0Y-140.625
X79.2Y-131.525
X79.2Y-153.425
X79.3Y-126.525
X79.9Y-53.125
X79.9Y-57.225
X79.9Y-64.025
X79.9Y-156.225
X80.0Y-50.325
X80.0Y-60.425
X80.1Y-145.925
X80.5Y-164.925
X80.5Y-169.425
X80.78Y-38.525
X80.9Y-149.625
X81.039Y-61.686
X81.4Y-53.125
X81.4Y-58.425
X81.5Y-60.525
X81.6Y-127.625
X81.6Y-131.525
X81.9Y-56.925
X81.9Y-65.725
X81.9Y-66.725
X81.9Y-135.925
X81.939Y-61.686
X82.3Y-153.725
X82.5Y-35.075
X82.8Y-145.925
X82.9Y-149.625
X83.1Y-66.225
X83.3Y-75.425
X83.425Y-35.075
X84.0Y-105.425
X84.0Y-113.425
X84.0Y-121.425
X84.9Y-93.525
X85.0Y-153.725
X85.05Y-69.33
X85.1Y-67.425
X85.4Y-81.225
X85.7Y-75.325
X86.0Y-49.635
X86.025Y-35.05
X86.3Y-28.825
X86.4Y-42.525
X86.95Y-35.075
X87.2Y-79.925
X89.2Y-48.425
X89.2Y-49.425
X89.4Y-98.025
X90.1Y-123.625
X90.1Y-127.625
X90.1Y-131.625
X91.0Y-80.825
X91.1Y-84.125
X91.7Y-47.825
X92.0Y-146.125
X92.3Y-150.925
X92.4Y-120.225
X92.4Y-123.725
X92.4Y-127.625
X92.4Y-131.525
X92.7Y-47.825
X92.7Y-82.525
X93.0Y-158.125
X93.4Y-88.875
X93.4Y-136.025
X93.5Y-93.125
X93.5Y-94.925
X93.5Y-154.725
X93.8Y-103.425
X93.8Y-142.925
X94.1Y-36.725
X94.2Y-55.725
X94.35Y-64.975
X94.4Y-112.625
X94.45Y-42.975
X94.8Y-139.825
X95.1Y-53.725
X95.1Y-133.425
X95.2Y-33.625
X95.2Y-137.725
X95.3Y-102.025
X95.395Y-69.33
X95.5Y-118.925
X95.6Y-93.125
X95.6Y-94.925
X95.7Y-88.825
X95.8Y-51.625
X95.9Y-154.625
X96.1Y-146.125
X96.2Y-135.325
X96.2Y-149.825
X96.2Y-156.825
X96.4Y-47.725
X96.6Y-104.225
X96.6Y-141.925
X96.9Y-74.325
X96.981Y-66.021
X97.3Y-43.025
X97.5Y-60.325
X97.5Y-63.925
X97.5Y-122.325
X98.4Y-118.825
X98.6Y-51.625
X98.6Y-146.125
X98.6Y-149.825
X98.7Y-54.825
X98.7Y-56.925
X98.9Y-37.725
X99.0Y-33.625
X99.3Y-43.825
X99.4Y-47.825
X99.6Y-60.325
X99.6Y-63.925
X100.0Y-100.025
X100.1Y-103.025
X100.6Y-108.025
X100.7Y-111.825
X100.7Y-118.425
X101.3Y-153.725
X101.5Y-79.425
X101.5Y-82.425
X101.6Y-101.525
X102.7Y-123.325
X103.1Y-108.025
X103.85Y-93.325
X103.9Y-111.725
X104.0Y-66.425
X104.0Y-119.625
X104.0Y-134.425
X104.6Y-106.425
X105.4Y-76.425
X105.6Y-80.225
X106.0Y-57.625
X106.0Y-145.425
X106.0Y-155.425
X106.0Y-159.425
X106.0Y-163.425
X106.0Y-169.925
X106.5Y-136.425
X106.5Y-139.925
X107.4Y-124.625
X107.5Y-98.425
X107.5Y-101.425
X107.7Y-80.225
X107.9Y-76.925
X108.0Y-117.425
X108.3Y-85.225
X108.6Y-130.525
X108.7Y-126.825
X109.0Y-97.425
X111.0Y-130.525
X111.1Y-126.825
X111.785Y-69.33
X112.35Y-89.175
X112.8Y-86.225
X112.8Y-103.425
X113.3Y-36.625
X113.3Y-112.625
X113.3Y-140.325
X113.4Y-45.775
X113.4Y-64.825
X113.5Y-93.025
X113.5Y-94.825
X113.9Y-156.025
X114.2Y-33.225
X114.3Y-158.925
X114.5Y-101.925
X114.75Y-146.175
X114.9Y-51.625
X114.9Y-142.025
X114.95Y-149.825
X115.0Y-138.625
X115.2Y-119.725
X115.415Y-69.33
X115.55Y-89.125
X115.7Y-93.025
X115.7Y-94.825
X115.8Y-37.725
X115.9Y-157.225
X116.0Y-117.425
X116.4Y-42.925
X116.4Y-60.425
X116.5Y-47.925
X116.5Y-64.025
X116.672Y-66.332
X116.7Y-140.325
X117.0Y-79.425
X117.0Y-82.425
X117.05Y-149.725
X117.15Y-146.175
X117.4Y-121.825
X117.5Y-51.725
X117.8Y-104.325
X117.8Y-119.225
X118.0Y-33.125
X118.4Y-37.225
X118.5Y-43.825
X118.6Y-47.825
X118.7Y-60.425
X118.7Y-64.025
X119.0Y-101.425
X119.7Y-108.125
X119.7Y-111.725
X119.7Y-118.125
X120.2Y-123.225
X121.0Y-74.125
X121.0Y-103.425
X122.0Y-108.125
X122.0Y-111.725
X122.0Y-118.125
X122.5Y-121.125
X123.0Y-93.475
X123.0Y-97.425
X124.0Y-66.425
X124.8Y-106.825
X125.3Y-77.525
X125.8Y-124.025
X126.0Y-115.425
X126.0Y-134.425
X126.0Y-140.425
X126.4Y-85.425
X127.5Y-127.125
X127.7Y-130.625
X128.0Y-78.225
X128.5Y-138.725
X129.1Y-83.825
X129.8Y-130.725
X129.9Y-127.125
X130.3Y-118.125
X130.3Y-142.625
X130.7Y-120.125
X130.8Y-88.825
X131.0Y-157.225
X131.4Y-163.725
X131.5Y-168.925
X132.0Y-140.425
X132.2Y-92.425
X132.2Y-94.325
X132.3Y-36.725
X132.3Y-45.825
X132.35Y-64.925
X132.4Y-112.525
X133.2Y-34.425
X133.3Y-53.025
X133.525Y-69.33
X134.3Y-88.725
X134.4Y-92.425
X134.4Y-94.325
X134.8Y-37.725
X135.2Y-121.025
X135.5Y-47.725
X135.9Y-43.725
X136.0Y-122.425
X136.3Y-118.925
X136.42Y-66.445
X136.785Y-69.33
X136.9Y-57.125
X137.1Y-35.225
X137.1Y-37.625
X137.4Y-54.025
X138.0Y-43.925
X138.0Y-116.425
X138.1Y-47.725
X138.2Y-121.125
X138.5Y-100.225
X138.5Y-103.125
X138.8Y-60.625
X138.8Y-63.625
X139.0Y-55.525
X139.0Y-134.425
X139.0Y-144.425
X139.0Y-152.425
X139.48Y-66.485
X139.5Y-123.325
X140.0Y-64.4
X140.0Y-74.525
X140.0Y-101.625
X140.7Y-108.025
X140.7Y-111.725
X141.15Y-60.675
X141.2Y-63.575
X141.95Y-93.425
X142.0Y-97.425
X142.1Y-119.625
X142.9Y-108.025
X143.0Y-111.725
X143.6Y-105.825
X144.9Y-85.125
X144.95Y-88.775
X145.0Y-92.375
X146.1Y-94.475
X147.1Y-141.325
X147.2Y-84.925
X147.2Y-88.775
X147.2Y-92.125
X147.5Y-138.625
X147.8Y-125.425
X147.85Y-96.325
X148.5Y-120.525
X148.5Y-127.225
X148.5Y-130.825
X148.8Y-73.425
X149.15Y-94.275
X150.0Y-116.425
X150.1Y-146.125
X150.5Y-132.625
X150.6Y-127.225
X150.7Y-155.325
X150.8Y-80.125
X150.8Y-82.025
X150.8Y-140.725
X150.8Y-153.025
X150.9Y-74.625
X150.9Y-149.825
X151.0Y-96.325
X151.2Y-142.825
X151.3Y-103.425
X151.5Y-45.925
X151.5Y-64.825
X151.5Y-112.525
X151.8Y-36.725
X151.9Y-55.825
X152.3Y-34.325
X152.3Y-53.225
X152.4Y-101.525
X152.4Y-118.925
X152.745Y-69.33
X152.9Y-146.125
X152.9Y-149.825
X153.0Y-153.025
X153.0Y-155.225
X153.4Y-42.825
X153.6Y-142.025
X153.9Y-37.825
X154.1Y-47.825
X154.5Y-80.125
X154.5Y-82.025
X154.7Y-121.125
X155.6Y-118.725
X155.995Y-69.33
X156.2Y-44.125
X156.3Y-34.225
X156.31Y-65.975
X156.4Y-57.025
X156.4Y-136.825
X157.0Y-36.625
X157.2Y-54.725
X157.2Y-60.525
X157.25Y-63.725
X157.3Y-100.425
X157.3Y-103.525
X157.3Y-142.925
X157.8Y-118.225
X158.0Y-108.125
X158.0Y-111.625
X158.3Y-123.225
X158.447Y-64.422
X158.5Y-47.925
X158.6Y-44.125
X158.8Y-56.425
X158.8Y-101.925
X159.4Y-65.825
X159.4Y-125.425
X159.5Y-159.925
X159.5Y-162.525
X159.6Y-139.325
X160.0Y-60.425
X160.0Y-111.625
X160.1Y-108.125
X160.2Y-63.825
X160.2Y-118.125
X161.0Y-93.425
X161.4Y-99.025
X161.6Y-137.125
X161.745Y-69.33
X162.0Y-82.625
X162.3Y-118.525
X162.8Y-121.525
X163.6Y-101.325
X164.3Y-95.325
X164.3Y-97.125
X165.7Y-81.725
X166.4Y-118.025
X166.4Y-120.325
X166.6Y-138.725
X167.5Y-168.925
X167.54Y-130.725
X167.56Y-127.215
X167.6Y-155.825
X167.7Y-163.025
X169.15Y-88.975
X169.56Y-132.465
X169.58Y-127.215
X169.7Y-92.525
X169.7Y-137.425
X169.8Y-94.325
X169.9Y-65.725
X170.3Y-142.425
X170.5Y-112.525
X170.6Y-103.425
X170.9Y-69.425
X170.9Y-100.725
X171.0Y-115.425
X171.4Y-140.225
X171.9Y-92.525
X171.9Y-94.325
X172.0Y-88.925
X173.0Y-121.025
X173.0Y-142.025
X174.0Y-146.225
X174.3Y-118.825
X174.5Y-149.825
X174.6Y-54.725
X174.6Y-107.625
X175.25Y-45.975
X175.25Y-64.775
X175.7Y-36.725
X175.9Y-100.625
X175.9Y-103.625
X176.1Y-69.325
X176.2Y-34.225
X176.2Y-53.325
X176.4Y-121.125
X176.7Y-146.125
X176.7Y-149.825
X176.8Y-51.625
X177.3Y-102.125
X177.6Y-123.325
X177.6Y-145.225
X178.0Y-135.425
X178.2Y-155.625
X178.4Y-118.025
X178.5Y-111.525
X178.6Y-47.825
X178.6Y-108.125
X179.0Y-44.125
X179.4Y-51.625
X179.6Y-36.025
X179.8Y-38.125
X179.9Y-153.525
X180.0Y-65.725
X180.0Y-97.425
X180.1Y-57.025
X180.1Y-69.425
X180.3Y-119.425
X180.4Y-54.225
X180.6Y-108.125
X180.6Y-111.525
X180.9Y-81.825
X181.05Y-63.925
X181.175Y-65.325
X181.2Y-155.725
X181.3Y-44.125
X181.3Y-47.825
X181.7Y-60.675
X182.0Y-55.725
X182.3Y-69.725
X183.2Y-122.425
X183.4Y-88.025
X184.0Y-64.025
X184.1Y-60.675
X184.1Y-153.325
X184.2Y-155.525
X184.8Y-82.225
X185.6Y-138.825
X186.25Y-89.025
X186.27Y-83.845
X186.3Y-92.825
X186.3Y-121.025
X186.4Y-94.625
X186.6Y-73.925
X186.6Y-127.225
X186.6Y-130.725
X187.48Y-153.375
X188.5Y-89.025
X188.5Y-92.825
X188.5Y-94.625
X188.6Y-127.225
X188.7Y-132.825
X188.8Y-75.125
X188.9Y-121.325
X189.0Y-140.525
X189.2Y-103.425
X189.6Y-112.525
X189.8Y-70.625
X190.5Y-168.925
X190.7Y-102.025
X191.0Y-115.425
X191.9Y-104.325
X191.9Y-118.125
X192.3Y-99.025
X192.9Y-70.825
X193.2Y-121.125
X193.4Y-145.025
X194.0Y-102.025
X194.095Y-68.005
X194.3Y-45.975
X194.3Y-64.925
X194.7Y-55.725
X194.8Y-36.725
X195.0Y-97.425
X195.2Y-34.225
X195.2Y-118.925
X195.9Y-103.225
X196.0Y-100.025
X196.0Y-135.425
X196.0Y-139.425
X196.8Y-47.725
X197.41Y-101.675
X197.6Y-43.425
X198.4Y-163.225
X198.44Y-108.145
X198.44Y-111.615
X198.5Y-54.625
X198.5Y-168.925
X198.7Y-121.425
X198.8Y-155.525
X199.1Y-35.625
X199.35Y-64.075
X199.55Y-60.675
X199.6Y-47.925
X199.7Y-43.825
X200.0Y-53.025
X200.0Y-56.125
X200.2Y-37.525
X200.5Y-108.125
X200.5Y-111.625
X200.9Y-94.025
X201.2Y-106.425
X201.4Y-54.625
X201.45Y-64.075
X201.7Y-89.125
X201.8Y-123.225
X201.81Y-85.135
X201.85Y-95.775
X202.0Y-130.725
X202.1Y-127.225
X202.8Y-159.325
X203.05Y-60.775
X203.88Y-92.655
X203.9Y-94.725
X204.1Y-89.025
X204.1Y-130.725
X204.2Y-75.025
X204.2Y-127.225
X204.3Y-70.325
X205.2Y-59.025
X205.9Y-120.425
X206.464Y-90.261
X206.85Y-88.925
X206.9Y-118.025
X207.0Y-92.675
X207.0Y-115.425
X207.1Y-80.925
X207.1Y-83.625
X207.2Y-145.225
X207.364Y-90.261
X207.75Y-94.625
X208.1Y-75.025
X208.2Y-70.225
X208.3Y-137.925
X208.3Y-140.125
X208.364Y-90.261
X208.4Y-121.125
X208.6Y-112.425
X209.0Y-103.425
X209.4Y-100.825
X209.55Y-96.475
X209.555Y-91.445
X209.8Y-165.025
X210.186Y-166.239
X210.2Y-67.425
X210.4Y-146.225
X210.4Y-149.825
X210.434Y-91.441
X210.5Y-159.425
X210.5Y-161.625
X210.7Y-141.225
X210.864Y-147.411
X210.9Y-82.925
X210.9Y-168.825
X211.05Y-89.025
X211.24Y-108.175
X211.25Y-92.675
X211.286Y-166.239
X211.3Y-91.425
X211.3Y-134.925
X211.4Y-64.875
X211.4Y-80.925
X211.4Y-113.325
X211.864Y-147.411
X212.6Y-102.425
X212.775Y-94.45
X212.906Y-167.569
X213.0Y-70.325
X213.0Y-75.525
X213.0Y-76.84
X213.0Y-78.125
X213.084Y-148.591
X213.3Y-104.425
X213.3Y-108.175
X213.3Y-111.625
X213.3Y-168.825
X213.35Y-45.975
X213.6Y-118.825
X213.7Y-55.625
X213.8Y-36.625
X213.8Y-122.425
X213.956Y-167.569
X214.084Y-148.591
X214.1Y-165.125
X214.2Y-34.125
X214.2Y-53.125
X214.2Y-75.525
X214.2Y-76.88
X214.2Y-78.125
X214.2Y-149.825
X214.2Y-157.425
X214.4Y-146.125
X214.7Y-139.625
X214.875Y-96.475
X214.9Y-65.075
X215.0Y-79.425
X215.0Y-100.025
X215.1Y-159.625
X215.15Y-48.425
X215.25Y-66.225
X215.4Y-60.525
X215.8Y-42.775
X215.9Y-135.525
X215.964Y-109.311
X216.0Y-123.925
X216.4Y-66.625
X216.6Y-84.925
X216.6Y-101.525
X216.65Y-111.675
X216.7Y-108.125
X216.7Y-121.825
X216.864Y-109.311
X217.3Y-55.025
X217.6Y-57.225
X217.7Y-63.825
X217.764Y-109.311
X217.9Y-37.925
X217.9Y-44.175
X217.95Y-47.775
X218.1Y-34.725
X218.4Y-75.025
X218.7Y-69.925
X218.9Y-136.725
X218.989Y-61.686
X219.0Y-110.5
X219.1Y-51.625
X219.1Y-98.725
X219.2Y-47.825
X219.4Y-60.425
X219.41Y-46.615
X219.45Y-63.925
X219.5Y-83.225
X219.7Y-54.925
X219.884Y-110.491
X219.889Y-61.686
X219.9Y-139.225
X220.15Y-108.175
X220.15Y-111.625
X220.2Y-85.125
X220.2Y-101.425
X220.3Y-130.725
X220.41Y-46.615
X220.6Y-118.525
X220.7Y-121.925
X220.7Y-136.725
X220.784Y-110.491
X220.8Y-61.725
X220.8Y-127.225
X220.864Y-128.361
X220.9Y-79.925
X221.69Y-45.21
X221.864Y-128.361
X222.1Y-44.025
X222.1Y-62.825
X222.1Y-138.325
X222.2Y-141.525
X222.715Y-45.21
X222.9Y-82.125
X223.0Y-51.525
X223.0Y-69.925
X223.084Y-129.541
X223.1Y-74.925
X223.2Y-77.825
X223.25Y-62.825
X223.3Y-60.475
X223.3Y-63.925
X223.35Y-47.775
X223.4Y-84.225
X223.6Y-54.225
X223.8Y-138.725
X224.0Y-80.625
X224.2Y-130.625
X224.234Y-129.541
X224.3Y-117.825
X224.3Y-120.425
X224.3Y-127.225
X224.35Y-62.825
X224.8Y-40.225
X225.2Y-69.925
X225.2Y-74.925
X225.375Y-146.25
X225.5Y-78.625
X225.6Y-82.325
X225.75Y-150.65
X225.8Y-135.625
X226.0Y-92.825
X226.0Y-94.825
X226.14Y-89.115
X226.9Y-46.075
X227.3Y-142.725
X227.5Y-82.025
X227.6Y-112.525
X227.925Y-146.2
X227.95Y-149.8
X228.0Y-115.425
X228.0Y-134.425
X228.1Y-48.525
X228.36Y-89.125
X228.4Y-92.825
X228.55Y-94.875
X228.6Y-138.025
X229.2Y-78.625
X229.5Y-51.525
X229.7Y-135.725
X230.4Y-47.325
X231.15Y-65.125
X231.2Y-35.025
X231.6Y-144.825
X232.1Y-101.925
X232.2Y-80.525
X232.4Y-33.725
X232.5Y-45.725
X232.6Y-36.625
X232.8Y-51.525
X232.8Y-55.825
X232.85Y-48.725
X233.0Y-122.425
X233.495Y-49.63
X234.0Y-100.025
X234.0Y-102.925
X234.2Y-65.125
X234.3Y-50.625
X234.5Y-36.625
X234.7Y-131.825
X234.8Y-127.225
X235.0Y-32.175
X235.05Y-61.775
X235.4Y-50.825
X235.4Y-118.025
X235.5Y-101.525
X235.7Y-83.125
X236.18Y-61.315
X236.4Y-37.525
X236.4Y-108.125
X236.4Y-111.625
X236.8Y-127.225
X236.887Y-65.812
X236.9Y-130.725
X237.2Y-61.895
X237.3Y-120.125
X238.2Y-31.625
X238.2Y-53.525
X238.4Y-123.725
X238.5Y-80.525
X238.6Y-111.625
X238.7Y-54.8
X238.7Y-69.925
X238.7Y-108.125
X238.8Y-78.525
X238.8Y-106.625
X239.0Y-97.425
X239.1Y-31.625
X239.55Y-50.225
X239.6Y-76.175
X239.7Y-85.025
X240.0Y-31.625
X241.0Y-134.425
X241.2Y-78.525
X241.55Y-72.675
X241.6Y-80.525
X241.7Y-69.425
X242.0Y-82.025
X242.4Y-45.625
X242.9Y-83.825
X243.08Y-57.655
X243.4Y-93.125
X243.4Y-94.925
X243.88Y-69.425
X243.95Y-73.325
X244.0Y-155.425
X244.0Y-164.425
X244.0Y-168.925
X244.1Y-58.125
X245.0Y-115.425
X245.0Y-145.925
X245.2Y-141.025
X245.5Y-143.025
X245.7Y-93.125
X245.7Y-94.825
X246.7Y-112.525
X247.3Y-139.925
X247.6Y-101.025
X247.9Y-37.225
X248.0Y-39.625
X248.15Y-59.475
X248.15Y-61.225
X248.5Y-47.825
X248.9Y-141.725
X249.1Y-45.025
X249.1Y-48.825
X249.3Y-46.925
X249.4Y-104.425
X249.6Y-29.025
X249.6Y-29.925
X249.8Y-34.625
X250.0Y-108.125
X250.2Y-111.725
X250.35Y-59.425
X250.4Y-61.225
X250.475Y-146.225
X250.975Y-149.8
X251.0Y-121.225
X251.4Y-45.575
X251.4Y-47.025
X251.4Y-48.825
X251.525Y-34.05
X251.6Y-102.225
X251.6Y-104.425
X252.4Y-108.025
X252.4Y-111.725
X252.9Y-48.925
X252.9Y-118.525
X253.0Y-156.425
X253.225Y-149.8
X253.325Y-146.225
X254.2Y-28.925
X254.2Y-29.925
X254.2Y-30.975
X254.5Y-51.625
X255.45Y-54.025
X255.725Y-29.375
X255.725Y-30.375
X255.725Y-31.4
X255.8Y-156.125
X256.25Y-45.775
X256.3Y-64.925
X256.6Y-121.225
X257.0Y-97.425
X257.05Y-73.225
X257.3Y-54.425
X257.4Y-82.825
X257.4Y-130.725
X257.6Y-51.625
X257.6Y-80.525
X257.8Y-49.025
X258.0Y-127.025
X258.1Y-42.475
X258.5Y-56.625
X258.5Y-119.425
X258.8Y-106.425
X259.2Y-65.125
X259.7Y-63.825
X260.0Y-121.125
X260.4Y-130.825
X260.5Y-49.025
X260.6Y-126.925
X260.9Y-51.625
X260.9Y-84.925
X260.95Y-56.925
X261.1Y-65.125
X261.1Y-80.425
X261.2Y-53.725
X261.8Y-33.225
X261.8Y-125.625
X262.0Y-115.425
X262.0Y-134.425
X262.2Y-137.525
X262.8Y-82.925
X262.85Y-60.625
X263.4Y-55.825
X263.5Y-57.375
X263.6Y-94.625
X263.8Y-92.825
X263.85Y-89.125
X264.15Y-45.475
X264.2Y-63.925
X264.35Y-41.775
X264.5Y-59.825
X265.0Y-142.625
X265.35Y-46.325
X265.6Y-60.575
X265.8Y-112.625
X266.0Y-138.625
X266.0Y-158.425
X266.0Y-169.425
X266.1Y-94.525
X266.15Y-89.125
X266.2Y-92.825
X266.6Y-58.825
X266.75Y-41.825
X266.8Y-45.425
X267.2Y-48.025
X267.625Y-146.25
X267.675Y-149.775
X268.2Y-60.625
X268.7Y-141.325
X269.8Y-149.775
X269.825Y-146.25
X269.9Y-156.225
X270.2Y-144.625
X270.4Y-102.025
X271.3Y-119.725
X271.8Y-158.525
X272.2Y-103.025
X272.3Y-100.125
X272.3Y-108.125
X272.3Y-111.725
X273.1Y-156.225
X273.4Y-69.125
X273.8Y-101.525
X274.0Y-97.425
X274.4Y-111.625
X274.5Y-108.125
X274.5Y-118.225
X274.5Y-123.925
X274.6Y-66.925
X274.6Y-105.625
X274.9Y-36.725
X275.35Y-45.875
X275.35Y-93.325
X275.5Y-65.958
X275.5Y-72.525
X275.6Y-55.725
X275.8Y-48.925
X275.8Y-51.525
X276.1Y-34.625
X276.1Y-53.125
X276.1Y-121.125
X276.5Y-80.425
X277.15Y-42.575
X277.5Y-89.075
X277.7Y-37.725
X277.7Y-60.325
X277.7Y-127.125
X277.7Y-130.825
X278.3Y-122.525
X278.4Y-74.925
X278.45Y-47.575
X278.5Y-65.975
X278.7Y-42.925
X279.2Y-67.125
X279.2Y-69.325
X279.4Y-78.625
X279.5Y-56.825
X279.7Y-35.525
X279.7Y-93.625
X279.8Y-37.725
X279.8Y-89.075
X279.887Y-47.712
X279.9Y-95.525
X279.9Y-127.125
X279.9Y-130.825
X280.1Y-54.125
X280.2Y-49.575
X280.3Y-76.025
X280.4Y-83.225
X281.0Y-80.625
X281.0Y-134.425
X281.2Y-43.575
X281.2Y-60.125
X281.4Y-47.225
X281.5Y-85.275
X281.6Y-137.125
X281.65Y-83.125
X281.8Y-125.625
X282.1Y-93.725
X282.2Y-55.225
X282.2Y-88.825
X282.4Y-116.825
X282.5Y-51.825
X282.5Y-120.925
X282.59Y-85.67
X282.6Y-63.4
X282.75Y-82.825
X282.8Y-76.5
X282.91Y-59.585
X283.5Y-67.125
X283.5Y-69.375
X283.9Y-95.525
X283.97Y-63.51
X284.2Y-53.525
X284.3Y-103.425
X284.45Y-43.575
X284.5Y-142.825
X284.6Y-47.125
X284.6Y-86.625
X284.64Y-87.885
X284.7Y-34.525
X285.3Y-63.965
X285.5Y-139.925
X285.56Y-58.175
X285.7Y-101.725
X286.0Y-97.425
X286.33Y-89.745
X286.5Y-61.4
X286.55Y-93.225
X286.6Y-47.125
X286.65Y-43.475
X286.7Y-32.225
X287.55Y-62.095
X287.6Y-34.525
X287.9Y-58.125
X288.15Y-68.075
X288.2Y-108.125
X288.2Y-111.825
X288.2Y-141.025
X288.4Y-54.725
X288.68Y-53.62
X288.7Y-67.125
X289.1Y-121.825
X289.2Y-104.225
X289.3Y-77.425
X289.4Y-69.625
X289.5Y-32.425
X289.5Y-101.325
X290.3Y-108.125
X290.5Y-120.225
X290.7Y-111.725
X291.15Y-69.925
X291.8Y-127.125
X292.2Y-77.525
X292.3Y-54.725
X292.4Y-59.925
X292.4Y-79.625
X293.0Y-104.625
X293.1Y-97.225
X293.3Y-51.425
X293.6Y-130.825
X293.7Y-146.125
X293.7Y-149.825
X293.8Y-36.525
X293.8Y-108.125
X293.9Y-99.025
X293.9Y-121.425
X294.0Y-116.425
X294.0Y-123.625
X294.1Y-101.225
X294.1Y-111.825
X294.3Y-76.425
X294.3Y-93.375
X294.35Y-45.775
X294.7Y-80.025
X294.75Y-78.625
X294.8Y-142.825
X295.0Y-134.425
X295.1Y-77.425
X295.2Y-82.125
X295.3Y-34.825
X295.3Y-95.925
X295.3Y-127.025
X295.4Y-52.525
X295.5Y-69.625
X295.6Y-137.625
X296.0Y-146.125
X296.1Y-139.725
X296.2Y-55.625
X296.3Y-149.825
X296.6Y-69.675
X296.6Y-97.325
X296.7Y-60.025
X296.9Y-98.825
X296.99Y-138.69
X297.0Y-76.425
X297.0Y-79.925
X297.25Y-66.375
X297.3Y-111.725
X297.6Y-92.175
X297.6Y-108.125
X297.7Y-146.025
X297.7Y-149.925
X297.8Y-119.3
X297.8Y-127.025
X297.8Y-130.925
X297.9Y-101.325
X298.6Y-35.625
X298.6Y-173.475
X298.66Y-67.14
X298.8Y-37.825
X298.8Y-57.025
X299.2Y-49.725
X299.2Y-52.925
X299.2Y-64.6
X299.4Y-43.825
X299.6Y-161.0
X299.7Y-47.425
X299.775Y-149.8
X299.8Y-99.125
X299.8Y-120.325
X299.8Y-127.025
X299.8Y-130.825
X299.875Y-146.225
X299.9Y-118.025
X299.9Y-137.625
X300.1Y-139.725
X300.14Y-35.66
X300.2Y-114.225
X300.5Y-63.75
X300.6Y-88.925
X300.6Y-91.175
X300.7Y-51.325
X300.7Y-83.0
X300.8Y-55.625
X300.82Y-80.445
X301.2Y-108.025
X301.4Y-63.025
X301.8Y-43.825
X301.8Y-83.0
X301.85Y-47.475
X302.0Y-134.425
X302.414Y-100.114
X302.811Y-52.489
X302.863Y-61.962
X302.9Y-102.025
X303.0Y-169.425
X303.058Y-84.142
X303.1Y-66.0
X303.2Y-129.81
X303.2Y-131.025
X303.45Y-89.075
X303.6Y-99.925
X303.8Y-53.525
X303.8Y-61.075
X304.15Y-51.425
X304.2Y-43.775
X304.2Y-103.425
X304.25Y-47.425
X304.53Y-80.085
X304.8Y-81.625
X304.8Y-82.725
X304.9Y-60.325
X304.95Y-44.925
X305.0Y-163.425
X305.04Y-86.645
X305.5Y-57.025
X305.972Y-81.513
X306.275Y-46.2
X306.3Y-77.425
X306.7Y-141.525
X306.9Y-68.825
X307.1Y-139.025
X307.2Y-53.525
X307.2Y-108.025
X307.25Y-47.375
X307.35Y-51.475
X307.42Y-77.385
X307.6Y-111.625
X307.8Y-56.825
X307.8Y-102.625
X308.0Y-157.425
X308.3Y-68.825
X308.3Y-104.725
X308.53Y-73.415
X309.1Y-74.425
X309.2Y-146.25
X309.6Y-111.725
X309.6Y-149.825
X309.7Y-108.025
X309.8Y-59.425
X310.1Y-50.725
X310.18Y-69.485
X310.3Y-121.925
X310.3Y-140.725
X310.35Y-53.625
X310.8Y-48.525
X310.8Y-142.825
X310.9Y-127.125
X311.3Y-103.7
X311.3Y-173.625
X311.35Y-172.35
X311.4Y-75.52
X311.5Y-74.425
X311.8Y-146.225
X311.8Y-149.8
X312.05Y-71.955
X312.4Y-173.625
X312.41Y-172.35
X312.5Y-121.725
X312.6Y-54.625
X312.67Y-113.2
X312.7Y-130.825
X312.775Y-49.4
X313.0Y-48.0
X313.0Y-71.025
X313.0Y-108.125
X313.05Y-50.575
X313.4Y-45.725
X313.45Y-93.225
X313.5Y-127.025
X314.0Y-111.725
X314.0Y-169.725
X314.071Y-110.491
X314.2Y-34.125
X314.644Y-101.066
X314.7Y-75.925
X314.9Y-158.425
X315.0Y-132.425
X315.2Y-169.725
X315.425Y-109.625
X315.5Y-60.425
X315.5Y-74.325
X315.7Y-77.925
X316.1Y-37.825
X316.4Y-92.525
X316.4Y-156.625
X316.5Y-71.225
X316.6Y-108.125
X316.8Y-113.725
X317.52Y-91.42
X317.6Y-51.725
X318.0Y-88.825
X318.0Y-90.125
X318.0Y-134.425
X318.1Y-47.075
X318.2Y-109.925
X318.3Y-35.725
X318.3Y-37.825
X318.941Y-108.689
X319.4Y-55.025
X319.6Y-57.025
X319.7Y-114.125
X320.05Y-95.075
X320.1Y-109.925
X320.1Y-111.125
X320.4Y-72.275
X320.55Y-54.475
X320.6Y-78.625
X320.6Y-144.225
X320.801Y-114.499
X320.9Y-75.575
X321.0Y-52.325
X321.0Y-68.3
X321.9Y-168.525
X322.025Y-63.675
X322.2Y-172.225
X322.95Y-93.425
X323.1Y-55.125
X323.3Y-155.825
X324.3Y-75.975
X324.4Y-57.625
X324.5Y-63.625
X325.7Y-107.725
X325.71Y-64.39
X325.8Y-123.225
X326.5Y-169.625
X326.5Y-172.325
X326.8Y-59.925
X326.8Y-68.025
X326.9Y-64.525
X327.5Y-139.525
X327.6Y-119.825
X327.7Y-109.825
X327.8Y-63.625
X328.0Y-99.525
X328.1Y-96.525
X328.337Y-62.487
X329.2Y-169.625
X329.2Y-172.325
X329.5Y-53.625
X330.15Y-90.525
X330.3Y-96.525
X331.4Y-78.825
X331.5Y-54.625
X331.9Y-99.625
X333.7Y-109.725
X334.0Y-113.825
X334.2Y-121.825
X334.6Y-85.225
X334.7Y-88.825
X335.7Y-92.025
X335.8Y-56.325
X335.8Y-107.125
X336.5Y-123.625
X336.9Y-113.025
X337.0Y-109.125
X337.25Y-45.825
X337.3Y-117.525
X337.6Y-146.125
X337.975Y-50.25
X338.0Y-53.025
X338.0Y-143.725
X338.1Y-122.325
X338.6Y-77.425
X338.8Y-51.225
X338.9Y-49.325
X339.0Y-120.025
X339.075Y-151.025
X339.5Y-115.425
X339.55Y-157.005
X339.7Y-41.325
X340.1Y-133.025
X340.2Y-118.025
X340.4Y-141.725
X340.5Y-45.075
X340.9Y-57.025
X340.9Y-86.4
X340.9Y-108.625
X341.1Y-49.325
X341.1Y-51.225
X341.1Y-54.925
X341.1Y-122.225
X341.1Y-145.725
X341.6Y-97.425
X341.8Y-99.525
X341.8Y-106.525
X341.81Y-155.525
X341.93Y-150.905
X342.1Y-85.625
X342.8Y-94.1
X342.8Y-97.1
X342.9Y-41.325
X342.9Y-45.025
X343.3Y-147.625
X343.4Y-133.225
X343.9Y-99.525
X343.9Y-146.7
X344.0Y-94.125
X344.0Y-97.125
X344.5Y-145.625
X346.2Y-170.025
X346.3Y-172.725
X347.8Y-151.225
X348.1Y-170.025
X348.1Y-172.625
X348.8Y-59.025
X349.7Y-151.325
X354.35Y-41.425
X355.7Y-84.425
X356.25Y-93.375
X356.3Y-45.775
X356.3Y-131.625
X356.4Y-103.425
X356.4Y-112.525
X356.6Y-55.825
X357.0Y-100.625
X357.1Y-53.325
X357.5Y-83.025
X357.6Y-121.225
X357.9Y-51.125
X357.9Y-96.725
X358.0Y-49.325
X358.2Y-156.125
X358.5Y-85.125
X358.85Y-89.125
X359.0Y-108.025
X359.05Y-41.475
X359.4Y-45.025
X359.4Y-172.225
X359.5Y-92.675
X359.5Y-111.625
X359.8Y-168.425
X360.0Y-76.325
X360.1Y-51.125
X360.2Y-49.325
X360.3Y-96.025
X360.7Y-104.325
X360.7Y-123.325
X360.9Y-83.025
X360.9Y-85.225
X360.9Y-101.525
X361.3Y-54.125
X361.4Y-120.625
X361.5Y-41.325
X361.7Y-45.025
X361.8Y-74.525
X361.8Y-89.025
X361.8Y-92.675
X361.9Y-56.725
X361.9Y-108.025
X361.9Y-111.625
X362.3Y-154.925
X362.7Y-166.525
X362.9Y-122.225
X363.2Y-64.075
X363.2Y-76.425
X363.25Y-60.575
X363.3Y-67.425
X363.5Y-71.625
X363.6Y-54.925
X364.4Y-172.225
X364.5Y-68.5
X364.6Y-38.225
X364.8Y-74.525
X365.5Y-71.625
X365.6Y-68.025
X365.65Y-64.075
X365.7Y-60.475
X365.7Y-161.725
X366.65Y-147.925
X367.0Y-73.425
X367.0Y-78.425
X367.0Y-97.425
X367.0Y-106.425
X367.0Y-116.425
X367.0Y-121.425
X367.0Y-124.425
X367.7Y-161.725
X368.6Y-86.425
X368.9Y-164.025
X369.3Y-137.925
X370.4Y-144.625
X370.6Y-138.25
X371.4Y-136.825
X371.4Y-139.725
X371.4Y-172.225
X371.425Y-148.7
X371.7Y-127.225
X371.7Y-130.825
X371.7Y-155.925
X372.5Y-162.925
X372.6Y-168.925
X373.9Y-130.725
X373.9Y-145.225
X373.9Y-152.325
X373.9Y-166.625
X373.975Y-148.45
X374.0Y-127.125
X374.0Y-137.125
X374.0Y-139.725
X375.2Y-45.775
X375.8Y-55.825
X376.1Y-53.225
X376.9Y-51.225
X377.6Y-69.225
X377.85Y-60.525
X378.3Y-49.325
X378.6Y-64.125
X379.4Y-54.725
X379.8Y-51.225
X379.8Y-65.525
X379.8Y-84.325
X379.9Y-57.125
X380.0Y-141.425
X380.05Y-93.375
X380.1Y-122.325
X380.15Y-169.725
X380.4Y-103.325
X380.9Y-100.725
X380.9Y-119.625
X380.9Y-139.325
X380.95Y-60.375
X381.0Y-82.625
X381.25Y-63.975
X381.4Y-49.325
X381.7Y-70.825
X381.8Y-74.525
X381.8Y-76.425
X382.0Y-154.225
X382.3Y-85.325
X382.45Y-89.125
X382.5Y-142.525
X382.55Y-41.475
X382.55Y-45.025
X382.7Y-108.025
X383.2Y-111.625
X383.2Y-127.025
X383.2Y-130.725
X383.3Y-92.725
X383.425Y-146.225
X383.8Y-149.725
X383.8Y-152.125
X384.0Y-63.975
X384.0Y-74.525
X384.0Y-76.325
X384.3Y-140.325
X384.4Y-102.125
X384.5Y-142.525
X384.5Y-154.925
X384.7Y-104.225
X384.7Y-123.325
X384.8Y-41.475
X384.8Y-82.425
X384.8Y-85.225
X384.85Y-44.975
X384.9Y-119.925
X385.2Y-127.125
X385.2Y-130.725
X385.5Y-89.025
X385.5Y-92.675
X385.5Y-111.625
X385.71Y-138.615
X385.8Y-108.025
X385.9Y-152.125
X386.1Y-146.125
X386.1Y-149.725
X386.8Y-164.025
X388.7Y-69.025
X388.75Y-51.225
X388.8Y-41.375
X388.8Y-49.275
X388.8Y-53.625
X388.8Y-66.925
X388.85Y-45.025
X388.9Y-60.325
X388.9Y-64.075
X389.6Y-169.725
X390.8Y-87.825
X391.1Y-41.325
X391.1Y-45.025
X391.1Y-51.225
X391.1Y-53.625
X391.1Y-64.075
X391.1Y-66.925
X391.15Y-60.375
X391.2Y-49.275
X391.3Y-69.025
X392.8Y-163.825
X398.1Y-159.225
X398.3Y-156.325
X398.7Y-84.425
X399.1Y-93.375
X399.1Y-103.325
X399.15Y-169.725
X399.2Y-45.825
X399.8Y-82.525
X399.8Y-100.725
X399.9Y-119.625
X400.7Y-66.825
X400.8Y-69.025
X400.8Y-75.225
X400.9Y-77.225
X401.35Y-89.125
X401.4Y-85.325
X401.5Y-104.525
X401.6Y-60.425
X401.7Y-108.125
X401.915Y-67.285
X401.95Y-93.625
X402.0Y-41.475
X402.4Y-45.125
X402.5Y-111.525
X403.0Y-123.625
X403.1Y-72.525
X403.1Y-75.325
X403.1Y-77.225
X403.15Y-64.025
X403.5Y-104.425
X403.7Y-142.325
X403.8Y-70.425
X403.8Y-85.325
X403.9Y-81.825
X404.25Y-89.125
X404.5Y-45.025
X404.5Y-120.925
X404.6Y-41.375
X404.7Y-111.625
X404.9Y-69.125
X404.95Y-52.9
X405.1Y-60.575
X405.1Y-140.825
X405.25Y-99.625
X405.25Y-108.025
X405.25Y-130.725
X405.3Y-67.425
X405.3Y-92.775
X405.35Y-127.275
X405.4Y-102.675
X405.534Y-91.441
X405.8Y-159.425
X406.0Y-74.925
X406.1Y-154.225
X406.2Y-146.125
X406.2Y-149.825
X406.3Y-111.625
X406.356Y-110.419
X406.534Y-91.441
X406.614Y-90.261
X406.7Y-118.775
X406.8Y-121.775
X407.15Y-64.125
X407.2Y-60.425
X407.356Y-110.419
X407.4Y-156.125
X407.45Y-89.075
X407.55Y-130.925
X407.75Y-127.175
X407.786Y-109.239
X407.8Y-141.425
X408.164Y-90.261
X408.4Y-149.725
X408.75Y-146.125
X409.0Y-92.625
X409.05Y-98.975
X409.05Y-101.275
X409.05Y-107.925
X409.2Y-137.625
X409.2Y-139.725
X409.236Y-109.239
X409.25Y-130.775
X409.445Y-129.58
X410.175Y-128.4
X410.27Y-148.555
X410.445Y-129.58
X410.5Y-40.925
X410.5Y-111.625
X410.55Y-117.875
X410.7Y-120.525
X410.8Y-149.775
X411.2Y-147.375
X411.22Y-148.555
X411.225Y-128.4
X411.7Y-127.175
X412.2Y-147.375
X412.9Y-146.175
X412.95Y-132.525
X412.95Y-137.575
X412.95Y-139.725
X413.0Y-50.925
X413.0Y-53.925
X417.9Y-84.325
X418.2Y-93.425
X418.2Y-103.425
X418.2Y-141.325
X418.25Y-45.775
X418.3Y-169.725
X419.0Y-101.125
X419.0Y-139.225
X419.1Y-82.525
X419.9Y-118.425
X420.3Y-108.225
X420.4Y-113.025
X420.4Y-116.225
X420.5Y-89.175
X420.5Y-94.925
X420.6Y-85.325
X420.8Y-146.025
X420.9Y-60.575
X420.95Y-41.425
X421.2Y-127.125
X421.22Y-150.705
X421.4Y-44.975
X421.4Y-64.125
X422.2Y-118.325
X422.3Y-102.825
X422.3Y-140.725
X422.5Y-116.325
X422.6Y-83.225
X422.6Y-104.925
X422.6Y-143.025
X422.8Y-85.425
X422.8Y-89.125
X422.85Y-92.575
X423.045Y-110.81
X423.08Y-117.44
X423.19Y-111.895
X423.2Y-60.575
X423.21Y-108.215
X423.215Y-109.45
X423.35Y-122.645
X423.5Y-77.425
X423.6Y-64.125
X423.6Y-67.325
X423.68Y-150.415
X423.7Y-131.425
X423.7Y-146.025
X424.0Y-41.325
X424.0Y-44.975
X424.0Y-74.925
X424.2Y-69.025
X424.8Y-89.025
X424.8Y-156.025
X424.9Y-162.025
X425.0Y-124.725
X425.3Y-60.525
X425.3Y-67.5
X425.4Y-103.225
X425.85Y-127.86
X426.0Y-81.125
X426.0Y-167.725
X426.07Y-155.765
X426.134Y-91.441
X426.15Y-92.675
X426.2Y-129.125
X426.5Y-68.825
X426.509Y-62.866
X426.6Y-77.275
X426.7Y-64.175
X426.7Y-75.225
X426.8Y-45.075
X426.8Y-83.325
X426.85Y-53.475
X426.95Y-51.375
X427.0Y-112.325
X427.009Y-43.816
X427.3Y-149.825
X427.364Y-90.261
X427.6Y-92.675
X427.634Y-91.441
X427.859Y-62.866
X427.989Y-42.636
X428.139Y-61.686
X428.159Y-43.816
X428.5Y-41.325
X428.56Y-120.875
X428.6Y-117.215
X428.6Y-156.125
X428.964Y-90.261
X429.089Y-42.636
X429.239Y-61.686
X429.25Y-60.375
X429.4Y-107.125
X429.59Y-108.26
X429.85Y-89.075
X430.4Y-68.825
X430.55Y-64.075
X430.65Y-75.325
X430.65Y-77.275
X430.7Y-52.525
X430.7Y-54.725
X430.7Y-56.825
X430.75Y-45.025
X432.295Y-109.33
X433.4Y-109.125
X433.7Y-112.225
X433.8Y-124.925
X433.8Y-153.425
X437.25Y-42.975
X437.25Y-61.875
X439.0Y-93.725
T5
X314.6Y-71.4
X322.22Y-71.4
X345.08Y-75.6
X352.7Y-75.6
X362.38Y-72.7
X370.0Y-72.7
T6
X64.73Y-63.53
X64.73Y-92.08
X67.111Y-130.18
X67.111Y-149.23
X67.118Y-168.28
X67.27Y-63.53
X67.27Y-92.08
X69.492Y-111.13
X69.651Y-130.18
X69.651Y-149.23
X69.658Y-168.28
X69.658Y-168.28
X71.874Y-130.18
X72.032Y-111.13
X72.198Y-168.28
X74.414Y-130.18
X76.636Y-149.23
X79.0Y-34.47
X79.0Y-35.74
X79.0Y-37.01
X79.0Y-38.28
X79.176Y-149.23
X83.78Y-92.08
X86.32Y-92.08
X88.542Y-149.23
X90.924Y-168.28
X91.082Y-149.23
X93.305Y-44.455
X93.305Y-63.505
X93.305Y-111.13
X93.464Y-168.28
X95.845Y-44.455
X95.845Y-63.505
X95.845Y-111.13
X98.055Y-168.305
X98.067Y-130.18
X100.595Y-168.305
X100.608Y-130.18
X102.83Y-92.08
X105.37Y-92.08
X107.593Y-149.23
X110.132Y-149.23
X112.355Y-44.455
X112.355Y-63.505
X112.355Y-111.13
X114.743Y-168.28
X114.895Y-44.455
X114.895Y-63.505
X114.895Y-111.13
X117.117Y-130.18
X117.283Y-168.28
X119.657Y-130.18
X121.88Y-92.08
X124.42Y-92.08
X126.642Y-149.23
X129.183Y-149.23
X131.278Y-44.455
X131.405Y-63.505
X131.405Y-111.13
X133.818Y-44.455
X133.945Y-63.505
X133.945Y-111.13
X136.167Y-130.18
X138.707Y-130.18
X140.93Y-92.08
X143.47Y-92.08
X145.692Y-149.23
X148.069Y-168.262
X148.232Y-149.23
X150.455Y-44.455
X150.455Y-63.505
X150.455Y-111.13
X150.609Y-168.262
X152.995Y-44.455
X152.995Y-63.505
X152.995Y-111.13
X155.218Y-130.18
X157.757Y-130.18
X159.98Y-92.08
X162.52Y-92.08
X164.742Y-149.23
X167.282Y-149.23
X169.505Y-111.13
X172.045Y-111.13
X174.267Y-44.455
X174.267Y-63.505
X174.267Y-130.18
X176.808Y-44.455
X176.808Y-63.505
X176.808Y-130.18
X179.03Y-92.08
X179.03Y-168.28
X181.57Y-92.08
X183.792Y-149.23
X183.96Y-168.28
X186.167Y-168.28
X186.332Y-149.23
X188.555Y-111.13
X188.707Y-168.28
X191.095Y-111.13
X193.317Y-44.455
X193.317Y-63.505
X193.317Y-130.18
X195.857Y-44.455
X195.857Y-63.505
X195.857Y-130.18
X198.08Y-92.08
X200.62Y-92.08
X202.843Y-149.23
X205.382Y-149.23
X207.605Y-111.13
X210.145Y-111.13
X212.367Y-44.455
X212.367Y-63.505
X212.367Y-130.18
X214.907Y-44.455
X214.907Y-63.505
X214.907Y-130.18
X217.13Y-92.08
X219.52Y-168.265
X219.67Y-92.08
X221.892Y-149.23
X222.06Y-168.265
X224.432Y-149.23
X226.655Y-111.13
X229.195Y-111.13
X231.417Y-63.505
X231.417Y-130.18
X231.456Y-44.455
X233.957Y-63.505
X233.957Y-130.18
X233.996Y-44.455
X236.18Y-92.08
X238.72Y-92.08
X240.942Y-149.23
X243.482Y-149.23
X245.705Y-111.13
X248.245Y-111.13
X250.468Y-130.18
X253.007Y-130.18
X255.23Y-44.455
X255.23Y-63.505
X255.23Y-92.08
X255.23Y-168.28
X257.77Y-44.455
X257.77Y-63.505
X257.77Y-92.08
X257.77Y-168.28
X259.98Y-168.255
X259.993Y-149.23
X262.52Y-168.255
X262.532Y-149.23
X264.755Y-111.13
X267.295Y-111.13
X269.517Y-130.18
X272.058Y-130.18
X274.28Y-44.455
X274.28Y-63.505
X274.28Y-92.08
X274.28Y-168.28
X276.82Y-44.455
X276.82Y-63.505
X276.82Y-92.08
X276.82Y-168.28
X279.042Y-149.23
X281.582Y-149.23
X283.805Y-111.13
X286.345Y-111.13
X288.555Y-168.28
X288.567Y-130.18
X291.095Y-168.28
X291.107Y-130.18
X293.33Y-44.455
X293.33Y-63.505
X293.33Y-92.08
X293.33Y-168.28
X295.87Y-44.455
X295.87Y-63.505
X295.87Y-92.08
X295.87Y-168.28
X302.855Y-111.13
X305.236Y-149.23
X305.395Y-111.13
X307.618Y-130.18
X307.776Y-149.23
X310.157Y-130.18
X312.375Y-92.062
X312.38Y-44.455
X312.38Y-63.5
X314.915Y-92.062
X314.92Y-44.455
X314.92Y-63.5
X317.142Y-173.042
X319.524Y-130.18
X319.683Y-173.042
X321.905Y-92.08
X322.064Y-130.18
X324.445Y-92.08
X325.239Y-114.305
X325.239Y-116.845
X326.667Y-111.13
X329.207Y-111.13
X331.43Y-92.08
X333.97Y-92.08
X336.192Y-63.5
X336.192Y-72.712
X336.192Y-153.993
X336.192Y-173.042
X336.205Y-44.455
X338.732Y-63.5
X338.732Y-72.712
X338.732Y-153.993
X338.732Y-173.042
X338.745Y-44.455
X355.243Y-44.43
X355.243Y-72.712
X355.243Y-92.08
X355.243Y-111.13
X355.243Y-130.18
X355.243Y-173.042
X355.26Y-63.5
X357.782Y-44.43
X357.782Y-72.712
X357.782Y-92.08
X357.782Y-111.13
X357.782Y-130.18
X357.782Y-173.042
X357.8Y-63.5
X374.292Y-44.48
X374.292Y-63.5
X374.292Y-72.712
X376.832Y-44.48
X376.832Y-63.5
X376.832Y-72.712
X379.055Y-92.08
X379.055Y-111.13
X379.055Y-130.18
X379.055Y-149.23
X379.055Y-168.28
X381.595Y-92.08
X381.595Y-111.13
X381.595Y-130.18
X381.595Y-149.23
X381.595Y-168.28
X388.58Y-168.28
X391.12Y-168.28
X398.105Y-44.48
X398.105Y-63.53
X398.105Y-92.08
X398.105Y-111.13
X398.105Y-130.18
X398.105Y-149.23
X398.105Y-168.28
X400.645Y-44.48
X400.645Y-63.53
X400.645Y-92.08
X400.645Y-111.13
X400.645Y-130.18
X400.645Y-149.23
X400.645Y-168.28
X417.155Y-44.43
X417.155Y-63.53
X417.155Y-92.08
X417.155Y-111.13
X417.155Y-130.18
X417.155Y-149.23
X417.155Y-168.28
X419.695Y-44.43
X419.695Y-63.53
X419.695Y-92.08
X419.695Y-111.13
X419.695Y-130.18
X419.695Y-149.23
X419.695Y-168.28
X432.395Y-104.78
X432.395Y-107.32
X432.395Y-114.305
X432.395Y-116.845
X432.395Y-123.83
X432.395Y-126.37
X432.395Y-152.405
X432.395Y-154.945
X436.205Y-44.43
X436.205Y-63.48
X436.205Y-92.08
X438.745Y-44.43
X438.745Y-63.48
X438.745Y-92.08
T7
X77.745Y-30.95
X80.285Y-30.95
X82.825Y-30.95
X323.71Y-38.675
X323.71Y-41.215
X323.71Y-43.755
X323.71Y-46.295
X323.71Y-48.835
X326.25Y-38.675
X326.25Y-41.215
X326.25Y-43.755
X326.25Y-46.295
X326.25Y-48.835
X447.0Y-72.0
X447.0Y-74.54
T8
X390.0Y-70.17
X390.0Y-74.67
X396.5Y-70.17
X396.5Y-74.67
T9
X59.0Y-33.875
X59.0Y-38.875
X73.5Y-33.875
X73.5Y-36.375
X73.5Y-38.875
T10
X64.571Y-122.56
X64.571Y-141.61
X64.571Y-160.66
X66.953Y-103.51
X66.953Y-160.66
X69.334Y-122.56
X70.921Y-120.02
X70.921Y-139.07
X70.921Y-158.12
X73.302Y-100.97
X73.302Y-158.12
X74.096Y-141.61
X75.684Y-120.02
X80.446Y-139.07
X88.384Y-160.66
X94.734Y-158.12
X95.527Y-160.66
X101.877Y-158.12
X112.196Y-160.66
X118.546Y-158.12
X145.534Y-160.66
X151.884Y-158.12
X176.49Y-160.66
X178.871Y-160.66
X182.84Y-158.12
X183.634Y-160.66
X185.221Y-158.12
X189.984Y-158.12
X216.971Y-160.66
X223.321Y-158.12
X257.452Y-160.66
X263.803Y-158.12
X286.027Y-160.66
X292.377Y-158.12
X302.696Y-141.61
X309.046Y-139.07
X316.984Y-122.56
X319.365Y-84.46
X323.334Y-120.02
X324.127Y-103.51
X325.715Y-81.92
X330.477Y-100.97
X332.859Y-111.765
X335.399Y-118.115
X386.04Y-160.66
X392.39Y-158.12
X440.015Y-111.765
X440.015Y-149.865
X442.555Y-118.115
X442.555Y-156.215
T11
X62.19Y-55.885
X62.19Y-84.46
X68.54Y-53.345
X68.54Y-81.92
X81.24Y-84.46
X86.002Y-141.61
X87.59Y-81.92
X90.765Y-36.835
X90.765Y-55.885
X90.765Y-103.51
X92.352Y-139.07
X95.527Y-122.56
X97.115Y-34.295
X97.115Y-53.345
X97.115Y-100.97
X100.29Y-84.46
X101.877Y-120.02
X105.052Y-141.61
X106.64Y-81.92
X109.815Y-36.835
X109.815Y-55.885
X109.815Y-103.51
X111.402Y-139.07
X114.578Y-122.56
X116.165Y-34.295
X116.165Y-53.345
X116.165Y-100.97
X119.34Y-84.46
X120.927Y-120.02
X124.102Y-141.61
X125.69Y-81.92
X128.865Y-36.835
X128.865Y-55.885
X128.865Y-103.51
X130.452Y-139.07
X133.627Y-122.56
X135.215Y-34.295
X135.215Y-53.345
X135.215Y-100.97
X138.39Y-84.46
X139.977Y-120.02
X143.153Y-141.61
X144.74Y-81.92
X147.915Y-36.835
X147.915Y-55.885
X147.915Y-103.51
X149.502Y-139.07
X152.677Y-122.56
X154.265Y-34.295
X154.265Y-53.345
X154.265Y-100.97
X157.44Y-84.46
X159.028Y-120.02
X162.202Y-141.61
X163.79Y-81.92
X166.965Y-103.51
X168.552Y-139.07
X171.727Y-55.885
X171.727Y-122.56
X171.728Y-36.835
X173.315Y-100.97
X176.49Y-84.46
X178.077Y-53.345
X178.077Y-120.02
X178.078Y-34.295
X181.252Y-141.61
X182.84Y-81.92
X186.015Y-103.51
X187.602Y-139.07
X190.778Y-55.885
X190.778Y-122.56
X190.778Y-36.835
X192.365Y-100.97
X195.54Y-84.46
X197.127Y-53.345
X197.127Y-120.02
X197.128Y-34.295
X200.302Y-141.61
X201.89Y-81.92
X205.065Y-103.51
X206.653Y-139.07
X209.827Y-36.835
X209.827Y-55.885
X209.827Y-122.56
X211.415Y-100.97
X214.59Y-84.46
X216.177Y-34.295
X216.177Y-53.345
X216.177Y-120.02
X219.352Y-141.61
X220.94Y-81.92
X224.115Y-103.51
X225.702Y-139.07
X228.877Y-36.835
X228.877Y-55.885
X228.877Y-122.56
X230.465Y-100.97
X233.64Y-84.46
X235.227Y-34.295
X235.227Y-53.345
X235.227Y-120.02
X238.403Y-141.61
X239.99Y-81.92
X243.165Y-103.51
X244.752Y-139.07
X247.927Y-122.56
X249.515Y-100.97
X252.69Y-55.885
X252.69Y-84.46
X252.69Y-160.66
X252.69Y-36.835
X254.277Y-120.02
X257.452Y-141.61
X259.04Y-53.345
X259.04Y-81.92
X259.04Y-158.12
X259.04Y-34.295
X262.215Y-103.51
X263.803Y-139.07
X266.977Y-122.56
X268.565Y-100.97
X271.74Y-36.835
X271.74Y-55.885
X271.74Y-84.46
X271.74Y-160.66
X273.327Y-120.02
X276.502Y-141.61
X278.09Y-34.295
X278.09Y-53.345
X278.09Y-81.92
X278.09Y-158.12
X281.265Y-103.51
X282.852Y-139.07
X286.027Y-122.56
X287.615Y-100.97
X290.79Y-36.835
X290.79Y-55.885
X290.79Y-84.46
X290.79Y-160.66
X292.377Y-120.02
X297.14Y-34.295
X297.14Y-53.345
X297.14Y-81.92
X297.14Y-158.12
X300.315Y-103.51
X305.077Y-122.56
X306.665Y-100.97
X309.84Y-36.835
X309.84Y-55.885
X309.84Y-84.46
X311.428Y-120.02
X314.602Y-165.422
X316.19Y-34.295
X316.19Y-53.345
X316.19Y-81.92
X320.952Y-162.882
X328.89Y-84.46
X333.652Y-36.835
X333.652Y-55.885
X333.652Y-146.373
X333.652Y-165.422
X335.24Y-81.92
X340.002Y-34.295
X340.002Y-53.345
X340.002Y-143.832
X340.002Y-162.882
X352.702Y-36.835
X352.702Y-55.885
X352.702Y-84.46
X352.702Y-103.51
X352.702Y-122.56
X352.702Y-165.422
X359.053Y-34.295
X359.053Y-53.345
X359.053Y-81.92
X359.053Y-100.97
X359.053Y-120.02
X359.053Y-162.882
X371.752Y-36.835
X371.752Y-55.885
X376.515Y-84.46
X376.515Y-103.51
X376.515Y-122.56
X376.515Y-141.61
X376.515Y-160.66
X378.102Y-34.295
X378.102Y-53.345
X382.865Y-81.92
X382.865Y-100.97
X382.865Y-120.02
X382.865Y-139.07
X382.865Y-158.12
X395.565Y-36.835
X395.565Y-55.885
X395.565Y-84.46
X395.565Y-103.51
X395.565Y-122.56
X395.565Y-141.61
X395.565Y-160.66
X401.915Y-34.295
X401.915Y-53.345
X401.915Y-81.92
X401.915Y-100.97
X401.915Y-120.02
X401.915Y-139.07
X401.915Y-158.12
X414.615Y-36.835
X414.615Y-55.885
X414.615Y-84.46
X414.615Y-103.51
X414.615Y-122.56
X414.615Y-141.61
X414.615Y-160.66
X420.965Y-34.295
X420.965Y-53.345
X420.965Y-81.92
X420.965Y-100.97
X420.965Y-120.02
X420.965Y-139.07
X420.965Y-158.12
X433.665Y-36.835
X433.665Y-55.885
X433.665Y-84.46
X440.015Y-34.295
X440.015Y-53.345
X440.015Y-81.92
X440.015Y-102.24
X440.015Y-121.29
X442.555Y-108.59
X442.555Y-127.64
T4
G00X247.437Y-22.3
M15
G01X247.437Y-22.9
M16
G05
G00X247.437Y-26.25
M15
G01X247.437Y-27.35
M16
G05
G00X256.037Y-22.3
M15
G01X256.037Y-22.9
M16
G05
G00X256.037Y-26.25
M15
G01X256.037Y-27.35
M16
G05
T6
G00X181.27Y-168.28
M15
G01X181.57Y-168.28
M16
G05
G00X181.87Y-168.28
M15
G01X181.27Y-168.28
M16
G05
T12
G00X65.45Y-30.125
M15
G01X66.55Y-30.125
M16
G05
G00X65.45Y-42.625
M15
G01X66.55Y-42.625
M16
G05
T0
M30
