%TF.GenerationSoftware,KiCad,Pcbnew,(6.0.11)*%
%TF.CreationDate,2023-03-19T03:58:12-04:00*%
%TF.ProjectId,bottom-no-hole,626f7474-6f6d-42d6-9e6f-2d686f6c652e,rev?*%
%TF.SameCoordinates,Original*%
%TF.FileFunction,Legend,Bot*%
%TF.FilePolarity,Positive*%
%FSLAX46Y46*%
G04 Gerber Fmt 4.6, Leading zero omitted, Abs format (unit mm)*
G04 Created by KiCad (PCBNEW (6.0.11)) date 2023-03-19 03:58:12*
%MOMM*%
%LPD*%
G01*
G04 APERTURE LIST*
%ADD10C,0.180000*%
G04 APERTURE END LIST*
D10*
X313452380Y-50619047D02*
X314166666Y-50619047D01*
X314309523Y-50666666D01*
X314404761Y-50761904D01*
X314452380Y-50904761D01*
X314452380Y-51000000D01*
X314452380Y-49666666D02*
X314452380Y-50142857D01*
X313452380Y-50142857D01*
X314357142Y-48761904D02*
X314404761Y-48809523D01*
X314452380Y-48952380D01*
X314452380Y-49047619D01*
X314404761Y-49190476D01*
X314309523Y-49285714D01*
X314214285Y-49333333D01*
X314023809Y-49380952D01*
X313880952Y-49380952D01*
X313690476Y-49333333D01*
X313595238Y-49285714D01*
X313500000Y-49190476D01*
X313452380Y-49047619D01*
X313452380Y-48952380D01*
X313500000Y-48809523D01*
X313547619Y-48761904D01*
X313452380Y-48047619D02*
X314166666Y-48047619D01*
X314309523Y-48095238D01*
X314404761Y-48190476D01*
X314452380Y-48333333D01*
X314452380Y-48428571D01*
X314452380Y-47095238D02*
X314452380Y-47571428D01*
X313452380Y-47571428D01*
X314357142Y-46190476D02*
X314404761Y-46238095D01*
X314452380Y-46380952D01*
X314452380Y-46476190D01*
X314404761Y-46619047D01*
X314309523Y-46714285D01*
X314214285Y-46761904D01*
X314023809Y-46809523D01*
X313880952Y-46809523D01*
X313690476Y-46761904D01*
X313595238Y-46714285D01*
X313500000Y-46619047D01*
X313452380Y-46476190D01*
X313452380Y-46380952D01*
X313500000Y-46238095D01*
X313547619Y-46190476D01*
X313452380Y-45476190D02*
X314166666Y-45476190D01*
X314309523Y-45523809D01*
X314404761Y-45619047D01*
X314452380Y-45761904D01*
X314452380Y-45857142D01*
X314452380Y-44523809D02*
X314452380Y-45000000D01*
X313452380Y-45000000D01*
X314357142Y-43619047D02*
X314404761Y-43666666D01*
X314452380Y-43809523D01*
X314452380Y-43904761D01*
X314404761Y-44047619D01*
X314309523Y-44142857D01*
X314214285Y-44190476D01*
X314023809Y-44238095D01*
X313880952Y-44238095D01*
X313690476Y-44190476D01*
X313595238Y-44142857D01*
X313500000Y-44047619D01*
X313452380Y-43904761D01*
X313452380Y-43809523D01*
X313500000Y-43666666D01*
X313547619Y-43619047D01*
X313452380Y-42904761D02*
X314166666Y-42904761D01*
X314309523Y-42952380D01*
X314404761Y-43047619D01*
X314452380Y-43190476D01*
X314452380Y-43285714D01*
X314452380Y-41952380D02*
X314452380Y-42428571D01*
X313452380Y-42428571D01*
X314357142Y-41047619D02*
X314404761Y-41095238D01*
X314452380Y-41238095D01*
X314452380Y-41333333D01*
X314404761Y-41476190D01*
X314309523Y-41571428D01*
X314214285Y-41619047D01*
X314023809Y-41666666D01*
X313880952Y-41666666D01*
X313690476Y-41619047D01*
X313595238Y-41571428D01*
X313500000Y-41476190D01*
X313452380Y-41333333D01*
X313452380Y-41238095D01*
X313500000Y-41095238D01*
X313547619Y-41047619D01*
M02*
