M48
; DRILL file {KiCad 7.0.1} date Wed Apr  5 01:55:03 2023
; FORMAT={-:-/ absolute / metric / decimal}
; #@! TF.CreationDate,2023-04-05T01:55:03-04:00
; #@! TF.GenerationSoftware,Kicad,Pcbnew,7.0.1
; #@! TF.FileFunction,Plated,1,2,PTH
FMAT,2
METRIC
; #@! TA.AperFunction,Plated,PTH,ViaDrill
T1C0.300
; #@! TA.AperFunction,Plated,PTH,ComponentDrill
T2C0.300
; #@! TA.AperFunction,Plated,PTH,ViaDrill
T3C0.400
; #@! TA.AperFunction,Plated,PTH,ComponentDrill
T4C0.600
; #@! TA.AperFunction,Plated,PTH,ComponentDrill
T5C0.900
; #@! TA.AperFunction,Plated,PTH,ComponentDrill
T6C1.000
; #@! TA.AperFunction,Plated,PTH,ComponentDrill
T7C1.100
; #@! TA.AperFunction,Plated,PTH,ComponentDrill
T8C1.270
; #@! TA.AperFunction,Plated,PTH,ComponentDrill
T9C1.800
; #@! TA.AperFunction,Plated,PTH,ComponentDrill
T10C2.200
%
G90
G05
T1
X139.819Y-70.606
X158.869Y-70.494
X182.681Y-70.331
X201.731Y-70.331
X220.781Y-70.331
X247.5Y-28.925
X248.2Y-28.925
X255.8Y-29.025
X256.6Y-29.025
X259.9Y-60.825
X280.2Y-51.525
X282.694Y-36.994
X282.7Y-51.425
X284.4Y-60.025
X284.5Y-48.525
X284.5Y-51.425
X286.3Y-51.825
X286.3Y-60.025
X288.2Y-70.025
X288.39Y-68.115
X288.4Y-67.325
X290.8Y-51.825
X294.2Y-52.025
X331.1Y-68.125
X332.6Y-63.825
X332.6Y-69.125
X332.7Y-71.625
X334.6Y-63.525
X334.8Y-69.625
X334.8Y-71.625
X335.4Y-68.225
T2
X76.0Y-69.775
X76.0Y-70.375
X76.0Y-70.975
X76.6Y-69.775
X76.6Y-70.375
X76.6Y-70.975
X82.2Y-69.775
X82.2Y-70.375
X82.2Y-70.975
X82.8Y-69.775
X82.8Y-70.375
X82.8Y-70.975
T3
X57.85Y-44.375
X58.35Y-47.425
X60.2Y-44.425
X64.7Y-32.325
X67.1Y-32.325
X67.1Y-33.325
X68.6Y-40.725
X69.45Y-46.975
X69.6Y-40.325
X69.6Y-44.375
X70.3Y-54.875
X70.763Y-50.091
X71.5Y-44.425
X71.9Y-49.525
X71.95Y-79.375
X72.0Y-57.175
X72.0Y-76.975
X72.0Y-96.175
X72.75Y-98.375
X73.144Y-75.669
X73.144Y-84.619
X73.6Y-47.925
X74.1Y-48.825
X74.25Y-95.625
X74.3Y-54.475
X74.3Y-57.175
X74.35Y-76.975
X74.35Y-79.375
X74.5Y-42.525
X74.5Y-44.325
X74.9Y-32.525
X75.4Y-33.425
X75.4Y-97.725
X76.4Y-41.125
X76.7Y-108.125
X76.7Y-110.625
X77.906Y-103.669
X78.6Y-149.425
X78.9Y-50.825
X78.9Y-65.125
X79.0Y-53.175
X79.1Y-108.125
X79.1Y-110.625
X79.2Y-115.225
X79.2Y-117.425
X79.6Y-39.525
X79.6Y-41.325
X79.9Y-50.325
X79.9Y-64.825
X80.287Y-122.719
X80.8Y-133.825
X80.9Y-65.025
X81.4Y-115.225
X81.4Y-117.425
X81.7Y-47.625
X81.8Y-149.825
X81.9Y-46.325
X81.9Y-49.225
X82.2Y-35.725
X82.6Y-53.175
X82.9Y-45.225
X83.0Y-133.825
X83.7Y-44.425
X83.7Y-50.825
X83.9Y-49.225
X83.9Y-74.925
X83.9Y-76.825
X83.9Y-79.625
X84.9Y-79.625
X85.2Y-53.125
X85.5Y-50.825
X85.5Y-57.625
X85.7Y-80.575
X85.9Y-75.025
X85.9Y-76.825
X86.6Y-41.225
X87.3Y-53.125
X87.3Y-57.825
X88.3Y-49.825
X88.8Y-50.825
X92.194Y-84.619
X94.3Y-80.525
X94.8Y-96.025
X97.0Y-98.425
X97.2Y-146.425
X97.2Y-148.625
X98.4Y-96.025
X98.4Y-155.425
X98.6Y-47.025
X98.8Y-41.625
X99.6Y-146.425
X99.6Y-148.625
X99.6Y-155.425
X100.2Y-80.525
X100.4Y-108.025
X100.5Y-75.025
X100.5Y-76.725
X100.6Y-98.425
X101.0Y-110.825
X101.2Y-45.625
X101.719Y-36.994
X101.719Y-56.044
X101.719Y-75.094
X101.719Y-103.669
X102.4Y-41.825
X102.85Y-80.575
X103.0Y-73.225
X103.0Y-76.525
X103.0Y-108.025
X104.4Y-110.625
X104.6Y-136.625
X105.2Y-134.225
X105.4Y-115.225
X105.4Y-117.425
X106.481Y-122.719
X107.6Y-115.225
X107.6Y-117.425
X107.6Y-136.625
X107.8Y-134.225
X111.244Y-84.619
X113.6Y-76.825
X113.6Y-80.525
X113.8Y-96.025
X114.8Y-149.425
X116.006Y-141.769
X116.2Y-98.425
X116.6Y-152.625
X117.4Y-96.025
X117.8Y-149.825
X119.5Y-71.525
X119.5Y-80.475
X119.6Y-46.425
X119.6Y-50.825
X119.6Y-75.325
X119.6Y-77.125
X119.6Y-98.425
X119.6Y-108.025
X120.0Y-110.625
X120.2Y-152.425
X120.769Y-36.994
X120.769Y-56.044
X120.769Y-70.894
X120.769Y-103.669
X121.9Y-73.225
X121.9Y-75.425
X121.9Y-80.575
X121.95Y-77.025
X121.959Y-156.056
X122.0Y-46.425
X122.0Y-50.825
X122.0Y-108.025
X123.1Y-155.825
X123.4Y-110.625
X123.6Y-136.625
X124.4Y-115.225
X124.4Y-117.425
X124.4Y-134.225
X125.531Y-122.719
X126.8Y-115.225
X126.8Y-117.425
X126.8Y-134.225
X126.8Y-136.625
X130.294Y-84.619
X132.4Y-76.925
X132.4Y-80.525
X132.8Y-96.025
X135.056Y-141.769
X135.2Y-98.425
X136.4Y-96.025
X138.4Y-80.575
X138.6Y-46.425
X138.6Y-50.825
X138.6Y-72.825
X138.6Y-75.425
X138.6Y-98.425
X138.7Y-77.125
X138.7Y-108.125
X139.2Y-110.575
X139.819Y-36.994
X139.819Y-56.044
X139.819Y-103.669
X140.95Y-72.825
X140.95Y-80.525
X140.95Y-108.125
X141.0Y-50.825
X141.0Y-70.525
X141.0Y-75.325
X141.0Y-77.125
X141.0Y-103.725
X141.2Y-46.225
X142.4Y-110.575
X142.6Y-136.625
X143.4Y-134.225
X143.45Y-115.175
X143.45Y-117.425
X144.581Y-122.719
X145.7Y-117.425
X145.75Y-115.125
X145.8Y-134.225
X145.8Y-136.625
X149.344Y-84.619
X151.7Y-80.525
X152.1Y-96.125
X153.0Y-150.025
X154.106Y-141.769
X154.35Y-98.375
X154.8Y-152.425
X155.35Y-96.125
X155.4Y-142.425
X155.8Y-150.025
X157.1Y-80.475
X157.6Y-46.225
X157.6Y-50.825
X157.6Y-98.375
X157.7Y-72.325
X157.7Y-75.325
X157.7Y-77.075
X157.7Y-108.125
X158.2Y-110.575
X158.2Y-152.425
X158.869Y-36.994
X158.869Y-56.044
X158.869Y-103.669
X160.0Y-75.325
X160.0Y-80.525
X160.05Y-77.025
X160.05Y-103.775
X160.05Y-108.125
X160.059Y-156.056
X160.2Y-46.225
X160.2Y-50.825
X160.2Y-70.425
X160.4Y-154.725
X161.5Y-110.575
X162.4Y-134.225
X162.4Y-136.625
X162.5Y-115.175
X162.5Y-117.475
X163.631Y-122.719
X164.75Y-115.175
X164.8Y-117.475
X164.8Y-134.225
X164.8Y-136.625
X168.394Y-84.619
X170.5Y-76.925
X170.6Y-80.525
X171.05Y-96.125
X172.0Y-142.425
X173.156Y-141.769
X173.35Y-98.475
X173.9Y-80.825
X174.4Y-142.225
X174.45Y-96.025
X176.8Y-98.425
X176.8Y-108.175
X177.25Y-110.575
X177.919Y-103.669
X179.05Y-108.125
X180.55Y-110.575
X181.4Y-46.425
X181.4Y-70.325
X181.4Y-134.225
X181.4Y-136.625
X181.5Y-75.325
X181.55Y-115.225
X181.55Y-117.425
X181.6Y-50.825
X182.681Y-36.994
X182.681Y-56.044
X182.681Y-122.719
X183.8Y-50.825
X183.8Y-75.425
X183.8Y-134.225
X183.85Y-115.225
X183.85Y-117.425
X184.0Y-46.425
X184.0Y-136.625
X184.9Y-71.325
X187.444Y-84.619
X188.3Y-80.625
X188.5Y-76.925
X190.2Y-96.125
X191.85Y-94.525
X191.85Y-97.825
X192.2Y-80.525
X192.206Y-141.769
X193.0Y-142.625
X193.5Y-96.175
X194.6Y-44.425
X194.8Y-153.225
X195.0Y-155.625
X195.85Y-108.125
X196.3Y-158.425
X196.35Y-110.575
X196.969Y-103.669
X197.1Y-169.425
X197.4Y-44.425
X197.6Y-153.225
X197.6Y-155.625
X197.6Y-157.925
X197.6Y-170.625
X198.1Y-108.125
X198.8Y-49.425
X199.65Y-110.575
X200.4Y-47.625
X200.4Y-136.625
X200.5Y-70.325
X200.6Y-75.425
X200.6Y-115.225
X200.6Y-117.475
X200.6Y-134.225
X201.731Y-36.994
X201.731Y-56.044
X201.731Y-122.719
X202.9Y-36.525
X202.9Y-75.425
X202.9Y-115.175
X202.9Y-117.425
X203.0Y-70.325
X203.0Y-134.225
X203.0Y-136.625
X206.494Y-84.619
X208.8Y-80.525
X209.2Y-96.125
X211.256Y-141.769
X211.5Y-98.425
X212.5Y-80.625
X212.55Y-96.075
X212.9Y-76.925
X214.85Y-98.425
X214.85Y-108.125
X215.3Y-80.725
X215.4Y-110.625
X216.019Y-103.669
X217.2Y-108.075
X218.7Y-110.575
X219.4Y-136.625
X219.5Y-60.325
X219.6Y-46.225
X219.6Y-50.625
X219.6Y-70.725
X219.6Y-75.325
X219.6Y-134.225
X219.65Y-115.225
X219.65Y-117.425
X220.781Y-36.994
X220.781Y-56.044
X220.781Y-122.719
X221.4Y-77.025
X221.95Y-115.225
X221.95Y-117.425
X222.0Y-36.825
X222.0Y-70.225
X222.0Y-75.325
X222.0Y-134.225
X222.0Y-136.625
X222.2Y-29.625
X222.2Y-48.225
X222.2Y-51.825
X222.3Y-59.125
X222.856Y-30.581
X223.0Y-47.425
X223.2Y-51.025
X224.3Y-59.125
X225.544Y-84.619
X227.4Y-153.825
X228.35Y-96.125
X229.2Y-152.025
X229.2Y-155.425
X229.3Y-32.825
X230.1Y-31.125
X230.306Y-141.769
X230.306Y-154.866
X230.55Y-98.375
X231.0Y-153.625
X231.5Y-96.075
X233.8Y-98.375
X233.9Y-69.625
X233.95Y-108.075
X234.35Y-110.625
X235.0Y-41.325
X235.0Y-43.225
X235.0Y-45.325
X235.069Y-103.669
X236.0Y-41.325
X236.0Y-43.225
X236.1Y-80.525
X236.25Y-108.075
X237.0Y-41.325
X237.0Y-43.225
X237.0Y-69.625
X237.2Y-44.425
X237.7Y-110.575
X237.8Y-82.425
X238.5Y-46.925
X238.5Y-76.625
X238.6Y-49.625
X238.6Y-63.925
X238.6Y-66.925
X238.6Y-74.425
X238.6Y-134.225
X238.6Y-136.625
X238.65Y-41.525
X238.65Y-115.175
X238.65Y-117.425
X239.75Y-96.125
X239.831Y-122.719
X239.831Y-38.856
X239.831Y-56.044
X239.831Y-70.331
X240.7Y-30.625
X240.9Y-74.525
X240.95Y-115.175
X240.95Y-117.475
X241.0Y-40.975
X241.0Y-134.225
X241.1Y-46.925
X241.1Y-76.725
X241.2Y-64.425
X241.2Y-66.725
X241.2Y-136.625
X241.3Y-65.525
X241.3Y-69.725
X241.4Y-49.725
X241.5Y-29.825
X242.0Y-98.375
X242.25Y-96.025
X242.3Y-74.525
X242.4Y-55.325
X243.0Y-56.225
X243.1Y-76.625
X243.3Y-67.125
X243.3Y-69.625
X243.4Y-49.825
X243.5Y-30.725
X243.6Y-53.825
X243.6Y-57.125
X244.1Y-45.425
X244.3Y-40.025
X244.594Y-84.619
X244.6Y-98.425
X244.9Y-41.025
X245.0Y-48.825
X245.1Y-55.425
X245.4Y-47.725
X245.5Y-49.825
X245.5Y-52.125
X245.5Y-54.125
X245.6Y-80.525
X246.5Y-40.025
X246.5Y-41.025
X246.5Y-45.725
X246.9Y-32.825
X247.35Y-96.175
X247.5Y-52.125
X247.5Y-53.925
X247.6Y-47.825
X247.6Y-49.725
X248.7Y-48.925
X248.8Y-110.575
X248.85Y-108.125
X248.9Y-115.225
X248.9Y-117.425
X249.356Y-141.769
X249.6Y-28.925
X249.6Y-29.825
X249.6Y-98.375
X249.6Y-136.625
X249.8Y-134.225
X250.6Y-96.075
X250.65Y-117.425
X250.7Y-115.175
X250.75Y-108.125
X250.8Y-136.725
X251.8Y-134.225
X251.9Y-110.575
X252.4Y-51.325
X252.9Y-98.375
X252.9Y-108.125
X253.7Y-80.625
X254.119Y-103.669
X254.2Y-28.725
X254.2Y-29.725
X255.3Y-108.125
X255.4Y-30.025
X256.0Y-70.925
X256.0Y-74.525
X256.0Y-76.625
X256.0Y-137.625
X256.2Y-65.525
X256.8Y-110.575
X256.9Y-81.025
X257.1Y-31.925
X257.6Y-134.225
X257.7Y-115.225
X257.75Y-117.475
X257.9Y-153.225
X258.0Y-60.825
X258.0Y-62.925
X258.3Y-47.725
X258.4Y-76.625
X258.5Y-70.925
X258.5Y-74.525
X258.881Y-122.719
X259.6Y-65.625
X259.6Y-137.625
X259.8Y-62.825
X259.8Y-151.725
X259.8Y-155.025
X260.05Y-115.175
X260.05Y-117.475
X260.2Y-134.225
X260.8Y-80.525
X261.2Y-51.025
X261.4Y-43.325
X261.5Y-41.525
X261.5Y-45.625
X261.5Y-153.375
X262.7Y-55.425
X263.644Y-84.619
X263.644Y-160.819
X263.644Y-36.994
X263.644Y-59.069
X263.9Y-43.325
X264.1Y-49.725
X264.4Y-45.575
X264.5Y-53.825
X264.7Y-58.725
X264.8Y-37.025
X264.8Y-41.525
X265.1Y-80.525
X265.7Y-60.625
X265.8Y-62.925
X266.35Y-96.075
X266.4Y-47.325
X267.15Y-150.125
X267.25Y-147.725
X267.5Y-58.925
X267.5Y-60.725
X267.55Y-44.375
X267.6Y-63.025
X268.3Y-80.625
X268.4Y-48.525
X268.406Y-141.769
X268.65Y-98.375
X269.6Y-96.075
X269.6Y-148.675
X269.9Y-60.725
X269.9Y-63.025
X270.2Y-70.025
X270.4Y-76.625
X270.45Y-53.425
X271.15Y-42.475
X271.15Y-46.925
X271.2Y-44.525
X271.9Y-98.425
X272.05Y-108.125
X272.1Y-110.575
X272.2Y-76.625
X272.3Y-70.025
X273.169Y-103.669
X273.65Y-49.525
X273.7Y-52.225
X274.35Y-108.125
X274.55Y-110.575
X275.0Y-52.425
X275.6Y-137.625
X275.85Y-115.175
X276.6Y-70.025
X276.8Y-51.625
X276.8Y-117.425
X276.8Y-134.225
X277.6Y-76.625
X277.931Y-122.719
X278.3Y-48.425
X278.9Y-66.525
X279.0Y-115.125
X279.0Y-137.625
X279.1Y-117.475
X279.2Y-134.225
X279.2Y-155.575
X279.7Y-64.425
X280.0Y-70.025
X280.45Y-153.225
X280.5Y-55.625
X280.8Y-76.625
X281.4Y-89.825
X281.5Y-42.625
X281.5Y-44.425
X281.586Y-156.139
X281.75Y-48.475
X282.2Y-92.425
X282.3Y-69.825
X282.4Y-55.525
X282.4Y-62.025
X282.65Y-155.625
X282.694Y-84.619
X283.044Y-30.581
X283.4Y-48.125
X283.5Y-68.025
X283.8Y-90.625
X283.9Y-80.525
X283.9Y-84.625
X284.0Y-44.325
X284.3Y-47.025
X284.4Y-62.225
X284.5Y-55.725
X285.2Y-41.825
X285.2Y-46.425
X285.4Y-62.325
X285.5Y-66.525
X286.0Y-96.125
X286.4Y-48.325
X286.9Y-46.025
X286.9Y-76.625
X287.4Y-134.225
X288.1Y-44.825
X288.3Y-98.375
X288.55Y-155.525
X288.6Y-153.275
X288.647Y-141.769
X289.25Y-96.075
X289.4Y-48.525
X289.7Y-155.925
X289.8Y-74.625
X289.8Y-134.225
X289.8Y-137.625
X290.3Y-65.925
X290.75Y-80.725
X290.8Y-59.925
X290.8Y-62.625
X290.9Y-74.425
X290.9Y-81.825
X290.9Y-153.325
X290.95Y-157.475
X291.0Y-108.125
X291.1Y-65.125
X291.9Y-77.525
X291.9Y-82.325
X292.094Y-49.631
X292.1Y-48.325
X292.2Y-88.825
X292.2Y-110.575
X292.219Y-103.669
X293.0Y-96.125
X293.05Y-98.375
X293.9Y-54.925
X294.65Y-80.875
X294.85Y-81.925
X295.1Y-71.525
X295.3Y-108.125
X296.3Y-96.075
X296.3Y-98.575
X296.4Y-115.125
X296.45Y-69.725
X296.45Y-117.425
X297.0Y-71.625
X297.05Y-110.575
X297.1Y-88.425
X297.2Y-59.625
X297.2Y-84.125
X297.3Y-79.675
X297.577Y-123.314
X297.6Y-41.725
X297.8Y-46.725
X297.9Y-44.325
X297.9Y-98.375
X297.969Y-97.256
X298.0Y-37.525
X298.0Y-87.525
X298.0Y-108.075
X298.0Y-136.525
X298.2Y-63.425
X298.2Y-76.875
X298.4Y-59.625
X298.431Y-135.356
X298.8Y-54.925
X298.85Y-96.025
X298.9Y-56.525
X299.1Y-51.525
X299.2Y-65.825
X299.2Y-79.625
X299.2Y-117.525
X299.35Y-115.125
X299.363Y-134.03
X299.5Y-59.925
X299.6Y-152.475
X299.9Y-144.825
X300.0Y-146.825
X300.1Y-66.325
X300.1Y-110.575
X300.3Y-41.725
X300.4Y-46.725
X300.419Y-116.306
X300.5Y-44.325
X301.0Y-84.125
X301.25Y-67.025
X301.4Y-63.425
X301.45Y-79.975
X301.85Y-77.225
X302.2Y-59.625
X302.3Y-81.825
X303.1Y-63.025
X304.0Y-59.625
X304.1Y-62.725
X304.1Y-72.325
X304.1Y-73.325
X304.85Y-155.575
X306.9Y-151.325
X308.35Y-102.275
X308.5Y-155.825
X309.9Y-47.125
X311.05Y-110.575
X311.1Y-108.125
X311.15Y-112.975
X311.2Y-104.575
X311.7Y-45.425
X312.0Y-49.225
X312.0Y-100.825
X312.15Y-99.375
X312.3Y-148.625
X312.4Y-150.525
X313.1Y-46.825
X313.35Y-97.025
X313.45Y-102.275
X313.45Y-104.575
X313.45Y-112.925
X313.5Y-108.025
X313.5Y-110.625
X313.6Y-148.325
X313.65Y-115.275
X314.9Y-150.625
X315.0Y-148.025
X315.6Y-45.425
X315.7Y-46.625
X315.8Y-41.725
X315.85Y-48.575
X315.9Y-44.225
X317.05Y-50.375
X317.1Y-37.825
X318.2Y-41.725
X318.2Y-44.225
X318.3Y-45.425
X318.3Y-46.525
X318.55Y-48.575
X318.6Y-72.025
X318.65Y-60.125
X318.7Y-62.675
X318.7Y-66.975
X319.1Y-50.825
X319.6Y-75.725
X319.9Y-77.625
X320.1Y-55.225
X320.55Y-62.675
X320.55Y-67.025
X320.7Y-71.225
X320.7Y-75.725
X321.0Y-60.125
X321.7Y-70.825
X321.8Y-138.825
X322.2Y-142.425
X322.25Y-153.475
X323.3Y-155.775
X323.65Y-67.075
X324.05Y-60.125
X324.05Y-62.675
X324.6Y-138.825
X324.6Y-142.425
X324.6Y-153.725
X325.35Y-157.925
X325.5Y-160.325
X326.7Y-161.625
X327.85Y-158.025
X327.85Y-160.325
X328.4Y-77.475
X328.6Y-119.625
X329.0Y-97.625
X329.3Y-115.275
X329.5Y-79.025
X330.65Y-77.525
X331.8Y-112.975
X332.5Y-74.625
X334.0Y-107.425
X334.0Y-110.625
X334.05Y-104.325
X334.9Y-74.625
X335.1Y-112.975
X336.15Y-115.325
X336.35Y-108.625
X336.4Y-102.075
X336.4Y-104.425
X336.5Y-99.625
X337.0Y-84.825
X339.0Y-93.325
X339.5Y-69.225
X340.75Y-103.675
X340.95Y-85.275
X340.95Y-96.775
X340.95Y-105.575
X341.0Y-107.475
X341.0Y-115.225
X341.0Y-117.475
X341.0Y-136.025
X341.4Y-83.125
X341.6Y-76.925
X341.7Y-79.075
X342.0Y-133.025
X342.2Y-70.925
X342.6Y-139.025
X342.8Y-76.325
X342.8Y-134.225
X342.9Y-73.425
X343.2Y-63.025
X343.6Y-60.025
X343.7Y-68.525
X343.75Y-48.375
X343.75Y-50.675
X343.9Y-146.725
X343.95Y-115.175
X343.95Y-117.425
X344.0Y-107.625
X344.4Y-160.275
X344.45Y-151.025
X344.45Y-152.775
X344.6Y-65.525
X344.8Y-104.575
X344.8Y-106.625
X344.9Y-38.125
X344.9Y-56.625
X344.9Y-61.725
X345.0Y-137.225
X345.1Y-64.625
X345.3Y-105.625
X345.6Y-161.825
X345.7Y-79.125
X345.75Y-98.425
X345.8Y-76.725
X345.8Y-85.325
X345.8Y-95.925
X345.85Y-93.975
X346.0Y-61.725
X346.05Y-48.375
X346.05Y-50.675
X346.2Y-63.425
X346.4Y-60.025
X346.6Y-73.675
X346.7Y-152.825
X346.75Y-150.875
X346.75Y-160.325
X346.8Y-158.075
X347.4Y-137.225
X347.7Y-71.054
X348.0Y-134.225
X348.931Y-135.356
X349.3Y-157.825
X350.444Y-159.169
X351.55Y-157.825
X351.6Y-137.825
X351.8Y-134.225
X363.0Y-70.825
X363.0Y-76.875
X363.0Y-134.225
X363.0Y-137.825
X363.05Y-48.525
X363.05Y-50.775
X363.05Y-74.975
X363.05Y-79.325
X363.05Y-96.125
X363.05Y-98.375
X363.05Y-115.175
X363.05Y-117.425
X363.3Y-84.625
X363.4Y-94.925
X364.1Y-38.125
X364.2Y-56.225
X364.2Y-62.525
X364.2Y-104.325
X364.2Y-123.625
X365.3Y-50.775
X365.3Y-61.925
X365.35Y-48.525
X365.4Y-134.225
X365.5Y-70.225
X365.7Y-60.925
X366.5Y-70.225
X366.8Y-75.025
X366.8Y-79.325
X366.8Y-96.125
X366.8Y-98.375
X366.85Y-115.125
X366.85Y-117.475
X366.9Y-76.875
X366.9Y-136.925
X367.0Y-140.025
X367.3Y-137.925
X367.9Y-160.275
X367.95Y-158.025
X368.2Y-137.025
X369.1Y-160.925
X369.15Y-136.475
X369.2Y-134.125
X370.25Y-160.325
X370.3Y-157.625
X382.75Y-48.525
X382.75Y-50.775
X383.9Y-35.125
X383.9Y-53.325
X384.1Y-57.725
X384.2Y-91.175
X384.2Y-93.525
X385.05Y-48.525
X385.05Y-50.775
X385.5Y-57.525
X386.45Y-91.225
X386.55Y-93.475
X386.9Y-60.525
X387.15Y-115.225
X387.15Y-117.475
X387.15Y-134.275
X387.15Y-136.525
X387.25Y-75.075
X387.25Y-76.775
X387.3Y-62.625
X387.3Y-79.425
X388.3Y-104.225
X388.3Y-122.825
X388.3Y-141.725
X388.4Y-84.325
X389.45Y-117.425
X389.5Y-79.375
X389.5Y-115.175
X389.5Y-134.275
X389.5Y-136.525
X389.55Y-75.075
X389.6Y-60.525
X389.6Y-62.625
X389.65Y-76.725
X392.2Y-153.675
X393.9Y-152.025
X393.9Y-155.375
X394.15Y-164.925
X395.1Y-165.825
X395.5Y-155.325
X396.45Y-154.575
X398.35Y-153.175
X405.35Y-76.825
X405.35Y-85.125
X405.35Y-98.425
X405.35Y-115.175
X405.35Y-117.475
X405.35Y-134.275
X405.35Y-136.525
X405.4Y-48.525
X405.4Y-50.775
X405.4Y-60.525
X405.4Y-63.225
X405.4Y-75.025
X405.4Y-79.325
X405.4Y-96.075
X405.4Y-150.825
X406.519Y-36.994
X406.519Y-56.044
X406.519Y-61.306
X406.519Y-84.619
X406.519Y-103.669
X406.519Y-122.719
X406.519Y-141.769
X406.55Y-159.425
X407.65Y-50.775
X407.65Y-75.075
X407.65Y-79.375
X407.65Y-98.375
X407.65Y-117.475
X407.7Y-48.525
X407.7Y-61.625
X407.7Y-63.225
X407.7Y-76.825
X407.7Y-84.575
X407.7Y-96.175
X407.7Y-115.175
X407.7Y-134.275
X407.7Y-136.525
X407.7Y-150.975
X407.75Y-155.775
X408.9Y-158.925
X424.35Y-74.925
X424.4Y-43.625
X424.4Y-45.825
X424.4Y-61.625
X424.4Y-63.225
X424.4Y-76.775
X424.4Y-79.375
X424.4Y-112.125
X424.4Y-115.425
X424.4Y-123.175
X424.45Y-134.275
X424.45Y-136.475
X425.569Y-36.994
X425.569Y-56.044
X425.569Y-62.256
X425.569Y-84.619
X425.569Y-103.669
X425.569Y-122.719
X425.569Y-141.769
X425.569Y-148.912
X426.7Y-43.525
X426.7Y-45.925
X426.7Y-113.125
X426.7Y-136.475
X426.7Y-141.925
X426.7Y-148.775
X426.75Y-109.925
X426.75Y-116.725
X426.75Y-134.275
X426.8Y-74.975
X426.8Y-76.775
X426.8Y-79.425
X426.8Y-122.375
X428.2Y-120.475
X432.5Y-97.925
X443.35Y-74.875
X443.4Y-76.625
X444.619Y-36.994
X444.619Y-56.044
X444.619Y-75.844
X444.619Y-84.619
X445.2Y-121.625
X445.85Y-76.625
T5
X79.0Y-34.47
X79.0Y-35.74
X79.0Y-37.01
X79.0Y-38.28
X336.192Y-72.712
X338.732Y-72.712
X355.243Y-72.712
X357.782Y-72.712
X374.292Y-72.712
X376.832Y-72.712
T6
X77.745Y-30.95
X80.285Y-30.95
X82.825Y-30.95
X323.116Y-39.087
X323.116Y-41.627
X323.116Y-44.167
X323.116Y-46.707
X323.116Y-49.247
X325.656Y-39.087
X325.656Y-41.627
X325.656Y-44.167
X325.656Y-46.707
X325.656Y-49.247
T7
X291.75Y-140.9
X291.75Y-147.4
X296.25Y-140.9
X296.25Y-147.4
T8
X59.0Y-33.875
X59.0Y-38.875
X73.5Y-33.875
X73.5Y-36.375
X73.5Y-38.875
T10
X427.95Y-153.675
T4
G00X247.437Y-22.3
M15
G01X247.437Y-22.9
M16
G05
G00X247.437Y-26.25
M15
G01X247.437Y-27.35
M16
G05
G00X256.037Y-22.3
M15
G01X256.037Y-22.9
M16
G05
G00X256.037Y-26.25
M15
G01X256.037Y-27.35
M16
G05
T9
G00X66.55Y-30.125
M15
G01X65.45Y-30.125
M16
G05
G00X66.55Y-42.625
M15
G01X65.45Y-42.625
M16
G05
T0
M30
