G04 #@! TF.GenerationSoftware,KiCad,Pcbnew,7.0.1*
G04 #@! TF.CreationDate,2023-04-05T01:55:01-04:00*
G04 #@! TF.ProjectId,Boston-keyboard-V081JHA,426f7374-6f6e-42d6-9b65-79626f617264,rev?*
G04 #@! TF.SameCoordinates,Original*
G04 #@! TF.FileFunction,Paste,Bot*
G04 #@! TF.FilePolarity,Positive*
%FSLAX46Y46*%
G04 Gerber Fmt 4.6, Leading zero omitted, Abs format (unit mm)*
G04 Created by KiCad (PCBNEW 7.0.1) date 2023-04-05 01:55:01*
%MOMM*%
%LPD*%
G01*
G04 APERTURE LIST*
G04 Aperture macros list*
%AMRoundRect*
0 Rectangle with rounded corners*
0 $1 Rounding radius*
0 $2 $3 $4 $5 $6 $7 $8 $9 X,Y pos of 4 corners*
0 Add a 4 corners polygon primitive as box body*
4,1,4,$2,$3,$4,$5,$6,$7,$8,$9,$2,$3,0*
0 Add four circle primitives for the rounded corners*
1,1,$1+$1,$2,$3*
1,1,$1+$1,$4,$5*
1,1,$1+$1,$6,$7*
1,1,$1+$1,$8,$9*
0 Add four rect primitives between the rounded corners*
20,1,$1+$1,$2,$3,$4,$5,0*
20,1,$1+$1,$4,$5,$6,$7,0*
20,1,$1+$1,$6,$7,$8,$9,0*
20,1,$1+$1,$8,$9,$2,$3,0*%
G04 Aperture macros list end*
%ADD10RoundRect,0.250000X-0.350000X0.250000X-0.350000X-0.250000X0.350000X-0.250000X0.350000X0.250000X0*%
%ADD11RoundRect,0.250000X0.350000X0.450000X-0.350000X0.450000X-0.350000X-0.450000X0.350000X-0.450000X0*%
%ADD12RoundRect,0.250001X-0.462499X-0.624999X0.462499X-0.624999X0.462499X0.624999X-0.462499X0.624999X0*%
%ADD13RoundRect,0.250000X0.250000X0.350000X-0.250000X0.350000X-0.250000X-0.350000X0.250000X-0.350000X0*%
%ADD14RoundRect,0.250001X0.624999X-0.462499X0.624999X0.462499X-0.624999X0.462499X-0.624999X-0.462499X0*%
%ADD15R,2.000000X1.500000*%
%ADD16R,2.000000X3.800000*%
%ADD17RoundRect,0.250000X-0.450000X0.325000X-0.450000X-0.325000X0.450000X-0.325000X0.450000X0.325000X0*%
%ADD18RoundRect,0.237500X0.287500X0.237500X-0.287500X0.237500X-0.287500X-0.237500X0.287500X-0.237500X0*%
%ADD19RoundRect,0.250000X1.450000X-0.400000X1.450000X0.400000X-1.450000X0.400000X-1.450000X-0.400000X0*%
%ADD20RoundRect,0.250001X-0.624999X0.462499X-0.624999X-0.462499X0.624999X-0.462499X0.624999X0.462499X0*%
%ADD21RoundRect,0.254000X1.016000X1.016000X-1.016000X1.016000X-1.016000X-1.016000X1.016000X-1.016000X0*%
%ADD22RoundRect,0.250000X0.450000X-0.325000X0.450000X0.325000X-0.450000X0.325000X-0.450000X-0.325000X0*%
%ADD23RoundRect,0.075000X0.662500X0.075000X-0.662500X0.075000X-0.662500X-0.075000X0.662500X-0.075000X0*%
%ADD24RoundRect,0.075000X0.075000X0.662500X-0.075000X0.662500X-0.075000X-0.662500X0.075000X-0.662500X0*%
%ADD25RoundRect,0.250000X0.325000X0.450000X-0.325000X0.450000X-0.325000X-0.450000X0.325000X-0.450000X0*%
%ADD26RoundRect,0.250000X-0.325000X-0.450000X0.325000X-0.450000X0.325000X0.450000X-0.325000X0.450000X0*%
%ADD27RoundRect,0.150000X-0.150000X-0.575000X0.150000X-0.575000X0.150000X0.575000X-0.150000X0.575000X0*%
%ADD28RoundRect,0.075000X-0.075000X-0.650000X0.075000X-0.650000X0.075000X0.650000X-0.075000X0.650000X0*%
%ADD29R,1.560000X0.650000*%
%ADD30R,0.600000X1.550000*%
%ADD31R,1.200000X1.800000*%
%ADD32RoundRect,0.250000X-0.350000X-0.450000X0.350000X-0.450000X0.350000X0.450000X-0.350000X0.450000X0*%
%ADD33RoundRect,0.250000X0.315000X0.315000X-0.315000X0.315000X-0.315000X-0.315000X0.315000X-0.315000X0*%
%ADD34RoundRect,0.062500X0.375000X0.062500X-0.375000X0.062500X-0.375000X-0.062500X0.375000X-0.062500X0*%
%ADD35RoundRect,0.062500X0.062500X0.375000X-0.062500X0.375000X-0.062500X-0.375000X0.062500X-0.375000X0*%
%ADD36RoundRect,0.150000X-0.587500X-0.150000X0.587500X-0.150000X0.587500X0.150000X-0.587500X0.150000X0*%
%ADD37RoundRect,0.250000X-0.475000X0.337500X-0.475000X-0.337500X0.475000X-0.337500X0.475000X0.337500X0*%
%ADD38RoundRect,0.150000X0.150000X-0.512500X0.150000X0.512500X-0.150000X0.512500X-0.150000X-0.512500X0*%
G04 APERTURE END LIST*
D10*
X124340625Y-97256250D03*
X124340625Y-100556250D03*
D11*
X262700000Y-31025000D03*
X260700000Y-31025000D03*
D12*
X235412500Y-69625000D03*
X238387500Y-69625000D03*
D10*
X238640625Y-97256250D03*
X238640625Y-100556250D03*
D13*
X262150000Y-49925000D03*
X258850000Y-49925000D03*
D14*
X238400000Y-65512500D03*
X238400000Y-62537500D03*
D10*
X286265625Y-49631250D03*
X286265625Y-52931250D03*
X224353125Y-49631250D03*
X224353125Y-52931250D03*
D15*
X233150000Y-63125000D03*
X233150000Y-65425000D03*
D16*
X226850000Y-65425000D03*
D15*
X233150000Y-67725000D03*
D10*
X276778750Y-97256250D03*
X276778750Y-100556250D03*
X348178125Y-78206250D03*
X348178125Y-81506250D03*
D14*
X235900000Y-65412500D03*
X235900000Y-62437500D03*
D13*
X63150000Y-49725000D03*
X59850000Y-49725000D03*
D17*
X90600000Y-46500000D03*
X90600000Y-48550000D03*
D10*
X348216250Y-30581250D03*
X348216250Y-33881250D03*
X76715625Y-78206250D03*
X76715625Y-81506250D03*
X114853750Y-78206250D03*
X114853750Y-81506250D03*
D13*
X212906372Y-49495305D03*
X209606372Y-49495305D03*
D12*
X82262500Y-41325000D03*
X85237500Y-41325000D03*
D10*
X243403125Y-116306250D03*
X243403125Y-119606250D03*
X407709375Y-154406250D03*
X407709375Y-157706250D03*
X329128125Y-30581250D03*
X329128125Y-33881250D03*
X172003750Y-78206250D03*
X172003750Y-81506250D03*
X219590625Y-97256250D03*
X219590625Y-100556250D03*
D13*
X70750000Y-78225000D03*
X67450000Y-78225000D03*
D10*
X167241250Y-116306250D03*
X167241250Y-119606250D03*
X296600000Y-135075000D03*
X296600000Y-138375000D03*
X410090625Y-97256250D03*
X410090625Y-100556250D03*
D17*
X289400000Y-65139069D03*
X289400000Y-67189069D03*
D10*
X61975000Y-31275000D03*
X61975000Y-34575000D03*
X367228125Y-30581250D03*
X367228125Y-33881250D03*
X143390625Y-30581250D03*
X143390625Y-33881250D03*
X437475000Y-135356250D03*
X437475000Y-138656250D03*
X205341250Y-30581250D03*
X205341250Y-33881250D03*
X317460000Y-101066250D03*
X317460000Y-104366250D03*
X124340625Y-49631250D03*
X124340625Y-52931250D03*
D17*
X78000000Y-40900000D03*
X78000000Y-42950000D03*
D10*
X81478125Y-154406250D03*
X81478125Y-157706250D03*
D11*
X351800000Y-72725000D03*
X349800000Y-72725000D03*
D10*
X64809375Y-116306250D03*
X64809375Y-119606250D03*
X348178125Y-159168750D03*
X348178125Y-162468750D03*
X124340625Y-30581250D03*
X124340625Y-33881250D03*
D18*
X244075000Y-51225000D03*
X242325000Y-51225000D03*
D10*
X91003125Y-116306250D03*
X91003125Y-119606250D03*
X301743948Y-116306300D03*
X301743948Y-119606300D03*
D19*
X240100000Y-48350000D03*
X240100000Y-43900000D03*
D10*
X119578125Y-135356250D03*
X119578125Y-138656250D03*
X295790625Y-97256250D03*
X295790625Y-100556250D03*
X83859375Y-52012500D03*
X83859375Y-55312500D03*
X329128125Y-140118750D03*
X329128125Y-143418750D03*
D20*
X328100000Y-151237500D03*
X328100000Y-154212500D03*
D10*
X348178125Y-116306250D03*
X348178125Y-119606250D03*
D13*
X436148747Y-49495305D03*
X432848747Y-49495305D03*
D21*
X146740250Y-160660000D03*
D10*
X305911139Y-78801581D03*
X305911139Y-82101581D03*
X129103125Y-116306250D03*
X129103125Y-119606250D03*
D22*
X302900000Y-73350000D03*
X302900000Y-71300000D03*
D10*
X329128125Y-159168750D03*
X329128125Y-162468750D03*
X371990625Y-97256250D03*
X371990625Y-100556250D03*
X338800000Y-81550000D03*
X338800000Y-84850000D03*
X176766250Y-135356250D03*
X176766250Y-138656250D03*
X248165625Y-78206250D03*
X248165625Y-81506250D03*
X138628125Y-135356250D03*
X138628125Y-138656250D03*
D20*
X287200000Y-64081256D03*
X287200000Y-67056256D03*
D10*
X371990625Y-135356250D03*
X371990625Y-138656250D03*
X305315625Y-30581250D03*
X305315625Y-33881250D03*
D17*
X258250000Y-26975000D03*
X258250000Y-29025000D03*
D10*
X391040625Y-49631250D03*
X391040625Y-52931250D03*
X281503125Y-116306250D03*
X281503125Y-119606250D03*
X286265625Y-78206250D03*
X286265625Y-81506250D03*
X210065625Y-78206250D03*
X210065625Y-81506250D03*
X348178125Y-49631250D03*
X348178125Y-52931250D03*
D13*
X274223611Y-154270393D03*
X270923611Y-154270393D03*
D10*
X224391250Y-30581250D03*
X224391250Y-33881250D03*
X257690625Y-97256250D03*
X257690625Y-100556250D03*
X186253125Y-116306250D03*
X186253125Y-119606250D03*
X186253125Y-49631250D03*
X186253125Y-52931250D03*
X391040625Y-116306250D03*
X391040625Y-119606250D03*
X214828125Y-135396875D03*
X214828125Y-138696875D03*
D14*
X224200000Y-64812500D03*
X224200000Y-61837500D03*
D10*
X348178125Y-97256250D03*
X348178125Y-100556250D03*
X391040625Y-78206250D03*
X391040625Y-81506250D03*
X429140625Y-30581250D03*
X429140625Y-33881250D03*
X195816250Y-135356250D03*
X195816250Y-138656250D03*
X286265625Y-154406250D03*
X286265625Y-157706250D03*
X410090625Y-30581250D03*
X410090625Y-33881250D03*
X410090625Y-154406250D03*
X410090625Y-157706250D03*
D13*
X390309375Y-154865625D03*
X387009375Y-154865625D03*
D10*
X167203125Y-30581250D03*
X167203125Y-33881250D03*
D23*
X299813125Y-67316875D03*
X299813125Y-67816875D03*
X299813125Y-68316875D03*
X299813125Y-68816875D03*
X299813125Y-69316875D03*
X299813125Y-69816875D03*
X299813125Y-70316875D03*
X299813125Y-70816875D03*
X299813125Y-71316875D03*
X299813125Y-71816875D03*
X299813125Y-72316875D03*
X299813125Y-72816875D03*
D24*
X298400625Y-74229375D03*
X297900625Y-74229375D03*
X297400625Y-74229375D03*
X296900625Y-74229375D03*
X296400625Y-74229375D03*
X295900625Y-74229375D03*
X295400625Y-74229375D03*
X294900625Y-74229375D03*
X294400625Y-74229375D03*
X293900625Y-74229375D03*
X293400625Y-74229375D03*
X292900625Y-74229375D03*
D23*
X291488125Y-72816875D03*
X291488125Y-72316875D03*
X291488125Y-71816875D03*
X291488125Y-71316875D03*
X291488125Y-70816875D03*
X291488125Y-70316875D03*
X291488125Y-69816875D03*
X291488125Y-69316875D03*
X291488125Y-68816875D03*
X291488125Y-68316875D03*
X291488125Y-67816875D03*
X291488125Y-67316875D03*
D24*
X292900625Y-65904375D03*
X293400625Y-65904375D03*
X293900625Y-65904375D03*
X294400625Y-65904375D03*
X294900625Y-65904375D03*
X295400625Y-65904375D03*
X295900625Y-65904375D03*
X296400625Y-65904375D03*
X296900625Y-65904375D03*
X297400625Y-65904375D03*
X297900625Y-65904375D03*
X298400625Y-65904375D03*
D10*
X152953750Y-78206250D03*
X152953750Y-81506250D03*
D13*
X206953242Y-97120345D03*
X203653242Y-97120345D03*
D10*
X233878125Y-135356250D03*
X233878125Y-138656250D03*
X371990625Y-78206250D03*
X371990625Y-81506250D03*
X391040625Y-135356250D03*
X391040625Y-138656250D03*
X186253125Y-30581250D03*
X186253125Y-33881250D03*
D13*
X237050000Y-48225000D03*
X233750000Y-48225000D03*
D10*
X267215625Y-78206250D03*
X267215625Y-81506250D03*
X110053125Y-116306250D03*
X110053125Y-119606250D03*
X100528125Y-135356250D03*
X100528125Y-138656250D03*
D25*
X325625000Y-149125000D03*
X323575000Y-149125000D03*
D10*
X371990625Y-116306250D03*
X371990625Y-119606250D03*
X429140625Y-78206250D03*
X429140625Y-81506250D03*
X229115625Y-78206250D03*
X229115625Y-81506250D03*
D13*
X336750000Y-49525000D03*
X333450000Y-49525000D03*
D10*
X391040625Y-30581250D03*
X391040625Y-33881250D03*
X157716250Y-135356250D03*
X157716250Y-138656250D03*
D13*
X77175000Y-154900000D03*
X73875000Y-154900000D03*
D10*
X62428125Y-97256250D03*
X62428125Y-100556250D03*
D13*
X83650000Y-135900000D03*
X80350000Y-135900000D03*
D10*
X167203125Y-49631250D03*
X167203125Y-52931250D03*
D26*
X290875000Y-76325000D03*
X292925000Y-76325000D03*
D10*
X367228125Y-49631250D03*
X367228125Y-52931250D03*
D22*
X325900000Y-153150000D03*
X325900000Y-151100000D03*
D25*
X301915625Y-64821875D03*
X299865625Y-64821875D03*
D27*
X248487000Y-27575000D03*
X249287000Y-27575000D03*
D28*
X250487000Y-27575000D03*
X251483000Y-27575000D03*
X251987000Y-27575000D03*
X252987000Y-27575000D03*
D27*
X254987000Y-27575000D03*
X254187000Y-27575000D03*
D28*
X253487000Y-27575000D03*
X252487000Y-27575000D03*
X250987000Y-27575000D03*
X249987000Y-27575000D03*
D11*
X370100000Y-72725000D03*
X368100000Y-72725000D03*
D29*
X88350000Y-46521250D03*
X88350000Y-47471250D03*
X88350000Y-48421250D03*
X85650000Y-48421250D03*
X85650000Y-47471250D03*
X85650000Y-46521250D03*
D12*
X82237500Y-43725000D03*
X85212500Y-43725000D03*
D13*
X258250000Y-44425000D03*
X254950000Y-44425000D03*
D10*
X205266250Y-116306250D03*
X205266250Y-119606250D03*
D13*
X321850000Y-149325000D03*
X318550000Y-149325000D03*
D10*
X179109375Y-154406250D03*
X179109375Y-157706250D03*
D25*
X70225000Y-38725000D03*
X68175000Y-38725000D03*
D10*
X271978125Y-135356250D03*
X271978125Y-138656250D03*
X95765625Y-78206250D03*
X95765625Y-81506250D03*
D30*
X80900000Y-66500000D03*
X79900000Y-66500000D03*
X78900000Y-66500000D03*
X77900000Y-66500000D03*
D31*
X82500000Y-70375000D03*
X76300000Y-70375000D03*
D10*
X191015625Y-78206250D03*
X191015625Y-81506250D03*
X252928125Y-135356250D03*
X252928125Y-138656250D03*
X410090625Y-78206250D03*
X410090625Y-81506250D03*
D13*
X114679727Y-151293828D03*
X111379727Y-151293828D03*
D10*
X206493750Y-154406250D03*
X206493750Y-157706250D03*
D13*
X246050000Y-65625000D03*
X242750000Y-65625000D03*
D10*
X422000000Y-112575000D03*
X422000000Y-115875000D03*
X86240625Y-30581250D03*
X86240625Y-33881250D03*
X162478750Y-97256250D03*
X162478750Y-100556250D03*
X267215625Y-30581250D03*
X267215625Y-33881250D03*
X410090625Y-49631250D03*
X410090625Y-52931250D03*
D32*
X236900000Y-30825000D03*
X238900000Y-30825000D03*
D25*
X62300000Y-36325000D03*
X60250000Y-36325000D03*
D10*
X224353125Y-116306250D03*
X224353125Y-119606250D03*
D33*
X297750625Y-72166875D03*
X297750625Y-70766875D03*
X297750625Y-69366875D03*
X297750625Y-67966875D03*
X296350625Y-72166875D03*
X296350625Y-70766875D03*
X296350625Y-69366875D03*
X296350625Y-67966875D03*
X294950625Y-72166875D03*
X294950625Y-70766875D03*
X294950625Y-69366875D03*
X294950625Y-67966875D03*
X293550625Y-72166875D03*
X293550625Y-70766875D03*
X293550625Y-69366875D03*
X293550625Y-67966875D03*
D34*
X299088125Y-67316875D03*
X299088125Y-67816875D03*
X299088125Y-68316875D03*
X299088125Y-68816875D03*
X299088125Y-69316875D03*
X299088125Y-69816875D03*
X299088125Y-70316875D03*
X299088125Y-70816875D03*
X299088125Y-71316875D03*
X299088125Y-71816875D03*
X299088125Y-72316875D03*
X299088125Y-72816875D03*
D35*
X298400625Y-73504375D03*
X297900625Y-73504375D03*
X297400625Y-73504375D03*
X296900625Y-73504375D03*
X296400625Y-73504375D03*
X295900625Y-73504375D03*
X295400625Y-73504375D03*
X294900625Y-73504375D03*
X294400625Y-73504375D03*
X293900625Y-73504375D03*
X293400625Y-73504375D03*
X292900625Y-73504375D03*
D34*
X292213125Y-72816875D03*
X292213125Y-72316875D03*
X292213125Y-71816875D03*
X292213125Y-71316875D03*
X292213125Y-70816875D03*
X292213125Y-70316875D03*
X292213125Y-69816875D03*
X292213125Y-69316875D03*
X292213125Y-68816875D03*
X292213125Y-68316875D03*
X292213125Y-67816875D03*
X292213125Y-67316875D03*
D35*
X292900625Y-66629375D03*
X293400625Y-66629375D03*
X293900625Y-66629375D03*
X294400625Y-66629375D03*
X294900625Y-66629375D03*
X295400625Y-66629375D03*
X295900625Y-66629375D03*
X296400625Y-66629375D03*
X296900625Y-66629375D03*
X297400625Y-66629375D03*
X297900625Y-66629375D03*
X298400625Y-66629375D03*
D10*
X132675056Y-155001645D03*
X132675056Y-158301645D03*
X105328750Y-97256250D03*
X105328750Y-100556250D03*
D22*
X316400000Y-144150000D03*
X316400000Y-142100000D03*
D10*
X181490625Y-97256250D03*
X181490625Y-100556250D03*
D17*
X72300000Y-45825000D03*
X72300000Y-47875000D03*
D10*
X267215625Y-49631250D03*
X267215625Y-52931250D03*
X310078125Y-159168750D03*
X310078125Y-162468750D03*
D11*
X338400000Y-69125000D03*
X336400000Y-69125000D03*
D10*
X133903750Y-78206250D03*
X133903750Y-81506250D03*
X86240625Y-97256250D03*
X86240625Y-100556250D03*
D36*
X318662500Y-147175000D03*
X318662500Y-145275000D03*
X320537500Y-146225000D03*
D10*
X148153125Y-116306250D03*
X148153125Y-119606250D03*
D13*
X313973643Y-49495305D03*
X310673643Y-49495305D03*
D37*
X243700000Y-42387500D03*
X243700000Y-44462500D03*
D38*
X247450000Y-44562500D03*
X246500000Y-44562500D03*
X245550000Y-44562500D03*
X245550000Y-42287500D03*
X246500000Y-42287500D03*
X247450000Y-42287500D03*
D13*
X113250000Y-49625000D03*
X109950000Y-49625000D03*
D10*
X143428750Y-97256250D03*
X143428750Y-100556250D03*
X262453125Y-116306250D03*
X262453125Y-119606250D03*
X410090625Y-135356250D03*
X410090625Y-138656250D03*
D26*
X430275000Y-160325000D03*
X432325000Y-160325000D03*
X318575000Y-143325000D03*
X320625000Y-143325000D03*
D10*
X248165625Y-154406250D03*
X248165625Y-157706250D03*
X410090625Y-116306250D03*
X410090625Y-119606250D03*
X427000000Y-111150000D03*
X427000000Y-114450000D03*
D13*
X398508089Y-96525032D03*
X395208089Y-96525032D03*
D10*
X286303750Y-30581250D03*
X286303750Y-33881250D03*
X143390625Y-49631250D03*
X143390625Y-52931250D03*
X105290625Y-30581250D03*
X105290625Y-33881250D03*
M02*
