%TF.GenerationSoftware,KiCad,Pcbnew,7.0.2*%
%TF.CreationDate,2023-06-29T00:21:26-04:00*%
%TF.ProjectId,FR4-universal-layout-plate,4652342d-756e-4697-9665-7273616c2d6c,rev?*%
%TF.SameCoordinates,Original*%
%TF.FileFunction,Profile,NP*%
%FSLAX46Y46*%
G04 Gerber Fmt 4.6, Leading zero omitted, Abs format (unit mm)*
G04 Created by KiCad (PCBNEW 7.0.2) date 2023-06-29 00:21:26*
%MOMM*%
%LPD*%
G01*
G04 APERTURE LIST*
%TA.AperFunction,Profile*%
%ADD10C,0.100000*%
%TD*%
%TA.AperFunction,Profile*%
%ADD11C,0.200000*%
%TD*%
%TA.AperFunction,Profile*%
%ADD12C,0.050000*%
%TD*%
G04 APERTURE END LIST*
D10*
X135087500Y-7000000D02*
G75*
G03*
X135587500Y-6500000I0J500000D01*
G01*
X173187500Y-73675000D02*
G75*
G03*
X173687500Y-73175000I0J500000D01*
G01*
X259412500Y-103037500D02*
G75*
G03*
X258912500Y-102537500I-500000J0D01*
G01*
X284012500Y26050000D02*
X297012500Y26050000D01*
X264962500Y-102537500D02*
G75*
G03*
X264462500Y-103037500I0J-500000D01*
G01*
X326375000Y25550000D02*
X326375000Y12550000D01*
X243547867Y33725027D02*
G75*
G03*
X241235289Y32418548I33J-2700027D01*
G01*
X-2237500Y-54125000D02*
G75*
G03*
X-1737500Y-54625000I500001J1D01*
G01*
X-9962500Y33725000D02*
X-9962500Y36188331D01*
X245912500Y-102537500D02*
G75*
G03*
X245412500Y-103037500I0J-500000D01*
G01*
X297012500Y-116537500D02*
G75*
G03*
X297512500Y-116037500I0J500000D01*
G01*
X284012500Y-73675000D02*
X297012500Y-73675000D01*
X321325000Y-22075000D02*
X321325000Y-35075000D01*
X121587500Y-6500000D02*
G75*
G03*
X122087500Y-7000000I500000J0D01*
G01*
X220812500Y-92725000D02*
G75*
G03*
X221312500Y-92225000I0J500000D01*
G01*
X359425000Y-98274999D02*
X359425000Y-111274999D01*
X160187500Y-73675000D02*
X173187500Y-73675000D01*
X159400000Y-22075000D02*
G75*
G03*
X158900000Y-21575000I-500000J0D01*
G01*
X59387499Y-60175000D02*
X59387499Y-73175000D01*
X297512500Y25550000D02*
X297512500Y12550000D01*
X202262500Y-79225000D02*
X202262500Y-92225000D01*
X122087500Y26050000D02*
G75*
G03*
X121587500Y25550000I0J-500000D01*
G01*
X55412500Y-78725000D02*
G75*
G03*
X54912500Y-79225000I0J-500000D01*
G01*
X88250000Y-22075000D02*
X88250000Y-35075000D01*
X89843750Y-111775050D02*
G75*
G03*
X90343750Y-111275000I-50J500050D01*
G01*
X326875000Y-73675000D02*
X339875000Y-73675000D01*
X97487500Y-60175000D02*
G75*
G03*
X96987500Y-59675000I-500000J0D01*
G01*
X297512500Y-41125000D02*
X297512500Y-54125000D01*
X222100000Y26050000D02*
X235100000Y26050000D01*
X74443749Y-98774999D02*
X68443749Y-98774999D01*
X364174998Y-41711999D02*
G75*
G03*
X364474999Y-41411999I2J299999D01*
G01*
X270318741Y-66088000D02*
G75*
G03*
X270231749Y-65806164I-500041J0D01*
G01*
X345925000Y-78725000D02*
G75*
G03*
X345425000Y-79225000I0J-500000D01*
G01*
X307325001Y-111274999D02*
G75*
G03*
X307824999Y-111774999I499999J-1D01*
G01*
X163219249Y-99275000D02*
X163219249Y-100575001D01*
X127943749Y-111775049D02*
G75*
G03*
X128443749Y-111274999I-49J500049D01*
G01*
X345925000Y-59675000D02*
G75*
G03*
X345425000Y-60175000I0J-500000D01*
G01*
X283512500Y25550000D02*
X283512500Y12550000D01*
X332287998Y-113274999D02*
X332287998Y-112075000D01*
X154925000Y-54125000D02*
G75*
G03*
X155424999Y-54625000I500000J0D01*
G01*
X283512500Y-22075000D02*
X283512500Y-35075000D01*
X20344200Y-93024999D02*
G75*
G03*
X20044248Y-92725000I-300000J-1D01*
G01*
X307825000Y-59675000D02*
G75*
G03*
X307325000Y-60175000I0J-500000D01*
G01*
X59675000Y-6500000D02*
G75*
G03*
X60175000Y-7000000I500000J0D01*
G01*
X77787500Y33725000D02*
G75*
G03*
X81187500Y33725000I1700000J0D01*
G01*
X7000000Y-22075000D02*
G75*
G03*
X6499999Y-21575000I-500000J0D01*
G01*
X169712500Y-78725000D02*
X182712500Y-78725000D01*
X339587999Y-111774998D02*
G75*
G03*
X339287998Y-112075000I1J-300002D01*
G01*
X178450000Y-22075000D02*
G75*
G03*
X177950000Y-21575000I-500000J0D01*
G01*
X60650000Y-99275001D02*
G75*
G03*
X60149999Y-98775000I-500000J1D01*
G01*
X207812500Y-78725000D02*
X220812500Y-78725000D01*
X135875000Y-41125000D02*
X135875000Y-54125000D01*
X379975001Y-110688001D02*
G75*
G03*
X380475001Y-110187999I-1J500001D01*
G01*
X247006250Y-92725050D02*
G75*
G03*
X247506250Y-92225000I-50J500050D01*
G01*
X297012500Y-35575000D02*
G75*
G03*
X297512500Y-35075000I0J500000D01*
G01*
X35075000Y12050000D02*
G75*
G03*
X35575000Y12550000I0J500000D01*
G01*
X79225000Y7000000D02*
G75*
G03*
X78725000Y6500000I0J-500000D01*
G01*
X59675000Y-41125000D02*
X59675000Y-54125000D01*
X7500000Y14800000D02*
X-7500000Y14800000D01*
X203049999Y26050000D02*
X216049999Y26050000D01*
X207025000Y-41125000D02*
G75*
G03*
X206525000Y-40625000I-500000J0D01*
G01*
X359425000Y25550000D02*
X359425000Y12550000D01*
X45887500Y-59675000D02*
X58887499Y-59675000D01*
X128443749Y-111274999D02*
X128443749Y-98274999D01*
X41125000Y-40625000D02*
X54125000Y-40625000D01*
X159400000Y-22075000D02*
X159400000Y-35075000D01*
X254150000Y12050000D02*
G75*
G03*
X254650000Y12550000I0J500000D01*
G01*
X239355749Y-73975000D02*
X239355749Y-75174999D01*
X189831262Y35459390D02*
G75*
G03*
X188026987Y36681405I-2287462J-1434390D01*
G01*
X125562500Y-92725000D02*
G75*
G03*
X126062500Y-92225000I0J500000D01*
G01*
X339875000Y-7000000D02*
G75*
G03*
X340375000Y-6500000I0J500000D01*
G01*
X284012500Y-102537500D02*
X297012500Y-102537500D01*
X345425000Y25550000D02*
X345425000Y12550000D01*
X326875000Y-7000000D02*
X339875000Y-7000000D01*
X378037500Y33725000D02*
G75*
G03*
X381437500Y33725000I1700000J0D01*
G01*
X163219200Y-113275000D02*
G75*
G03*
X163719248Y-113775000I500000J0D01*
G01*
X233306251Y-83224950D02*
G75*
G03*
X233506250Y-83025000I49J199950D01*
G01*
X340427133Y-120274999D02*
X322965933Y-120274999D01*
X221600000Y-22075000D02*
X221600000Y-35075000D01*
X184000000Y-21575000D02*
X197000000Y-21575000D01*
X233506250Y-79225000D02*
X233506250Y-83025000D01*
X345425000Y-6500000D02*
G75*
G03*
X345925000Y-7000000I500000J0D01*
G01*
X308412000Y-112075000D02*
G75*
G03*
X308111999Y-111775000I-300000J0D01*
G01*
X-4618750Y-79225000D02*
X-4618751Y-92225000D01*
X326875000Y-78725000D02*
X339875000Y-78725000D01*
X245125000Y-41125000D02*
G75*
G03*
X244625000Y-40625000I-500000J0D01*
G01*
X83199999Y-22075000D02*
X83199999Y-35075000D01*
X41125000Y12050000D02*
X54125000Y12050000D01*
X377974999Y-73675000D02*
G75*
G03*
X378475000Y-73174999I1J500000D01*
G01*
X264462500Y-83987500D02*
X264462500Y-96987500D01*
X58887499Y-73674999D02*
G75*
G03*
X59387499Y-73175000I1J499999D01*
G01*
X154137500Y-7000000D02*
G75*
G03*
X154637500Y-6500000I0J500000D01*
G01*
X192737500Y-60175000D02*
G75*
G03*
X192237499Y-59675000I-500000J0D01*
G01*
X43006301Y-111274999D02*
G75*
G03*
X43506249Y-111774999I499999J-1D01*
G01*
X378475000Y6500000D02*
G75*
G03*
X377975000Y7000000I-500000J0D01*
G01*
X326875000Y-78725000D02*
G75*
G03*
X326375000Y-79225000I0J-500000D01*
G01*
X364974999Y-73675000D02*
X377974999Y-73675000D01*
X168924999Y-41125000D02*
X168924999Y-54125000D01*
X97775000Y-54125000D02*
G75*
G03*
X98274999Y-54625000I500000J0D01*
G01*
X96987500Y-73675000D02*
G75*
G03*
X97487500Y-73175000I0J500000D01*
G01*
X222100000Y7000000D02*
G75*
G03*
X221600000Y6500000I0J-500000D01*
G01*
X377975001Y-102250002D02*
G75*
G03*
X378475002Y-101750000I-1J500002D01*
G01*
X340375000Y-41125000D02*
G75*
G03*
X339875000Y-40625000I-500000J0D01*
G01*
X326375000Y-60175000D02*
X326375000Y-73175000D01*
X-4168762Y35459375D02*
G75*
G03*
X-1034066Y33725000I3134696J1965625D01*
G01*
X326875000Y-21575000D02*
G75*
G03*
X326375000Y-22075000I0J-500000D01*
G01*
X79225000Y-7000000D02*
X92225000Y-7000000D01*
X98781799Y-99275000D02*
G75*
G03*
X98281749Y-98775001I-499999J0D01*
G01*
X207312500Y-92225000D02*
G75*
G03*
X207812500Y-92725000I500000J0D01*
G01*
X254650000Y25550000D02*
G75*
G03*
X254150000Y26050000I-500000J0D01*
G01*
X212575000Y-54625000D02*
X225575000Y-54625000D01*
D11*
X265613000Y-37075000D02*
G75*
G03*
X266112997Y-37575000I500000J0D01*
G01*
D10*
X345425000Y-73175000D02*
G75*
G03*
X345925000Y-73675000I500000J0D01*
G01*
X182712500Y-92725000D02*
G75*
G03*
X183212500Y-92225000I0J500000D01*
G01*
X54625000Y25550000D02*
G75*
G03*
X54125000Y26050000I-500000J0D01*
G01*
X254650000Y25550000D02*
X254650000Y12550000D01*
X178509067Y-120274999D02*
X138547867Y-120274999D01*
X233506250Y-92225000D02*
X233506249Y-88424999D01*
X345925000Y-7000000D02*
X358925000Y-7000000D01*
X246655748Y-73675000D02*
X261293749Y-73675000D01*
X179237499Y-73675000D02*
X192237499Y-73675000D01*
X234006250Y-92725000D02*
X247006250Y-92725000D01*
X126350000Y-35075000D02*
G75*
G03*
X126850000Y-35575000I500000J0D01*
G01*
X317437500Y-120274999D02*
X317437500Y-122739477D01*
X340375000Y-22075000D02*
G75*
G03*
X339875000Y-21575000I-500000J0D01*
G01*
X59387500Y-60175000D02*
G75*
G03*
X58887499Y-59675000I-500000J0D01*
G01*
D11*
X273199989Y-35575000D02*
X273112997Y-35575000D01*
D10*
X284012500Y-21575000D02*
X297012500Y-21575000D01*
X59675000Y-54125000D02*
G75*
G03*
X60175000Y-54625000I500000J0D01*
G01*
X303062500Y12050000D02*
X316062500Y12050000D01*
X245912500Y-116537500D02*
X258912500Y-116537500D01*
X316562500Y25550000D02*
G75*
G03*
X316062500Y26050000I-500000J0D01*
G01*
X-10553408Y-123229996D02*
G75*
G03*
X-9962498Y-122738331I90998J491560D01*
G01*
X340375000Y6500000D02*
G75*
G03*
X339875000Y7000000I-500000J0D01*
G01*
X68443749Y-98774949D02*
G75*
G03*
X67943749Y-99274999I51J-500051D01*
G01*
X283512500Y-6500000D02*
G75*
G03*
X284012500Y-7000000I500000J0D01*
G01*
X307325000Y-41125000D02*
X307325000Y-54125000D01*
X217337500Y-59675000D02*
X230337500Y-59675000D01*
X60650000Y-113275001D02*
X60650000Y-99275001D01*
X128443700Y-98274999D02*
G75*
G03*
X127943748Y-97775000I-500000J-1D01*
G01*
X345925000Y26050000D02*
G75*
G03*
X345425000Y25550000I0J-500000D01*
G01*
X202549999Y-22075000D02*
X202549999Y-35075000D01*
X26837500Y-59675000D02*
X39837500Y-59675000D01*
X154637500Y6500000D02*
X154637500Y-6500000D01*
X26837500Y-59675000D02*
G75*
G03*
X26337500Y-60175000I0J-500000D01*
G01*
X56506249Y-97774999D02*
X43506249Y-97774999D01*
X362974999Y-65588000D02*
G75*
G03*
X362475000Y-66087999I1J-500000D01*
G01*
X187475000Y-54625000D02*
G75*
G03*
X187975000Y-54125000I0J500000D01*
G01*
X241149999Y-21574999D02*
G75*
G03*
X240649999Y-22075001I1J-500001D01*
G01*
X255437498Y-54625000D02*
X257018748Y-54624999D01*
X297012500Y-73675000D02*
G75*
G03*
X297512500Y-73175000I0J500000D01*
G01*
D11*
X248736998Y-36075000D02*
X248736999Y-37075000D01*
D10*
X74443749Y-113775050D02*
G75*
G03*
X74943750Y-113274999I-49J500050D01*
G01*
X69199999Y-22075000D02*
X69199999Y-35075000D01*
D11*
X272112989Y-37574989D02*
G75*
G03*
X272612989Y-37075000I11J499989D01*
G01*
D10*
X241150000Y7000000D02*
G75*
G03*
X240650000Y6500000I0J-500000D01*
G01*
X316562500Y25550000D02*
X316562500Y12550000D01*
X226075000Y-41125000D02*
G75*
G03*
X225575000Y-40625000I-500000J0D01*
G01*
X307325000Y-92225000D02*
G75*
G03*
X307825000Y-92725000I500000J0D01*
G01*
X150162500Y-79225000D02*
X150162500Y-92225000D01*
X149875000Y-41125000D02*
X149875000Y-54125000D01*
X67943749Y-99274999D02*
X67943749Y-113274999D01*
X117324999Y-40624999D02*
G75*
G03*
X116824999Y-41125000I1J-500001D01*
G01*
X160187500Y-59675000D02*
X173187500Y-59675000D01*
X193025000Y-41125000D02*
X193025000Y-54125000D01*
X50650000Y-21575000D02*
X63650000Y-21575000D01*
X320825000Y-92725000D02*
G75*
G03*
X321325000Y-92225000I0J500000D01*
G01*
X264962500Y26050000D02*
G75*
G03*
X264462500Y25550000I0J-500000D01*
G01*
X345925000Y-21575000D02*
X358925000Y-21575000D01*
X235600000Y25550000D02*
G75*
G03*
X235100000Y26050000I-500000J0D01*
G01*
X173975000Y-54125000D02*
G75*
G03*
X174475000Y-54625000I500000J0D01*
G01*
X-10553408Y36679997D02*
G75*
G03*
X-12762501Y34025000I491597J-2655571D01*
G01*
X122087500Y26050000D02*
X135087500Y26050000D01*
X183999999Y-111774999D02*
X235099999Y-111774999D01*
X326875000Y-35575000D02*
X339875000Y-35575000D01*
X187437523Y-122739477D02*
G75*
G03*
X188026987Y-123231404I499977J-23D01*
G01*
X31047867Y33725027D02*
G75*
G03*
X28735289Y32418548I33J-2700027D01*
G01*
X203049999Y26050001D02*
G75*
G03*
X202549999Y25550000I1J-500001D01*
G01*
X49362500Y-92725000D02*
G75*
G03*
X49862500Y-92225000I0J500000D01*
G01*
X364174998Y-41712000D02*
X362974999Y-41712000D01*
X173687500Y6500000D02*
G75*
G03*
X173187500Y7000000I-500000J0D01*
G01*
X74462499Y-78725000D02*
X87462499Y-78725000D01*
X3768249Y-92725000D02*
X20044249Y-92725000D01*
X116824999Y-41125000D02*
X116824999Y-54125000D01*
X54912500Y-92225000D02*
G75*
G03*
X55412500Y-92725000I500000J0D01*
G01*
X54625000Y-41125000D02*
G75*
G03*
X54125000Y-40625000I-500000J0D01*
G01*
X111274999Y-54624999D02*
G75*
G03*
X111774999Y-54125000I1J499999D01*
G01*
X155424999Y-40624999D02*
G75*
G03*
X154924999Y-41125000I1J-500001D01*
G01*
X283512500Y-116037500D02*
G75*
G03*
X284012500Y-116537500I500000J0D01*
G01*
X-4118751Y-97774998D02*
G75*
G03*
X-4618752Y-98274999I0J-500001D01*
G01*
X98274999Y-40624999D02*
G75*
G03*
X97774999Y-41125000I1J-500001D01*
G01*
X22075000Y-54625000D02*
X35075000Y-54625000D01*
X320825000Y-35575000D02*
G75*
G03*
X321325000Y-35075000I0J500000D01*
G01*
X345925000Y-35575000D02*
X358925000Y-35575000D01*
X183212500Y-79225000D02*
G75*
G03*
X182712500Y-78725000I-500000J0D01*
G01*
X345925000Y-21575000D02*
G75*
G03*
X345425000Y-22075000I0J-500000D01*
G01*
X160187500Y-7000000D02*
X173187500Y-7000000D01*
X326375000Y-6500000D02*
G75*
G03*
X326875000Y-7000000I500000J0D01*
G01*
X365475001Y-86311999D02*
G75*
G03*
X365975001Y-86811999I499999J-1D01*
G01*
X73175000Y-54625000D02*
G75*
G03*
X73675000Y-54125000I0J500000D01*
G01*
X92225000Y-7000000D02*
G75*
G03*
X92725000Y-6500000I0J500000D01*
G01*
X140637500Y12550000D02*
G75*
G03*
X141137500Y12050000I500000J0D01*
G01*
X241150000Y-7000000D02*
X254150000Y-7000000D01*
X103037500Y7000000D02*
X116037500Y7000000D01*
X75393787Y-122009359D02*
G75*
G03*
X72259067Y-120274999I-3134687J-1965641D01*
G01*
X-3531750Y-93024999D02*
X-3531750Y-94225000D01*
X316062500Y-7000000D02*
G75*
G03*
X316562500Y-6500000I0J500000D01*
G01*
X59675000Y25550000D02*
X59675000Y12550000D01*
X345425000Y-35075000D02*
G75*
G03*
X345925000Y-35575000I500000J0D01*
G01*
X77198018Y36681375D02*
G75*
G03*
X75393764Y35459375I483182J-2656375D01*
G01*
X103037500Y-73675000D02*
X116037500Y-73675000D01*
X202262500Y-79225000D02*
G75*
G03*
X201762500Y-78725000I-500000J0D01*
G01*
X340427133Y-120275027D02*
G75*
G03*
X342739712Y-118968547I-33J2700027D01*
G01*
X116537500Y25550000D02*
X116537500Y12550000D01*
X203049999Y7000001D02*
G75*
G03*
X202549999Y6500000I1J-500001D01*
G01*
X241149999Y-21575001D02*
X273199999Y-21575001D01*
X264962500Y12050000D02*
X277962500Y12050000D01*
X31100000Y-22075000D02*
X31100000Y-35075000D01*
X77937500Y-73675000D02*
G75*
G03*
X78437500Y-73175000I0J500000D01*
G01*
X116037500Y12050000D02*
G75*
G03*
X116537500Y12550000I0J500000D01*
G01*
X164450000Y-35075000D02*
G75*
G03*
X164950000Y-35575000I500000J0D01*
G01*
X91581750Y-100775000D02*
X90543750Y-100775000D01*
X359425000Y-79225000D02*
X359425000Y-92225000D01*
X-7000000Y-35075000D02*
G75*
G03*
X-6500000Y-35575000I500001J1D01*
G01*
X-4618751Y-73174999D02*
G75*
G03*
X-4118750Y-73675000I500001J0D01*
G01*
X30812499Y-79225000D02*
G75*
G03*
X30312499Y-78725001I-499999J0D01*
G01*
X235600001Y-98274999D02*
G75*
G03*
X235099999Y-97774999I-500001J-1D01*
G01*
X83581213Y35459360D02*
G75*
G03*
X86715933Y33725000I3134687J1965640D01*
G01*
X55412500Y-92725000D02*
X68412500Y-92725000D01*
X188762500Y-78725000D02*
X201762500Y-78725000D01*
X375975001Y-88249999D02*
X377975001Y-88249999D01*
X340375000Y-60175000D02*
G75*
G03*
X339875000Y-59675000I-500000J0D01*
G01*
X145843250Y-98775000D02*
X139843250Y-98775000D01*
X183500000Y-35075000D02*
G75*
G03*
X184000000Y-35575000I500000J0D01*
G01*
X381437500Y-120274999D02*
X381437500Y-122738330D01*
X321325000Y-22075000D02*
G75*
G03*
X320825000Y-21575000I-500000J0D01*
G01*
X316562500Y6500000D02*
G75*
G03*
X316062500Y7000000I-500000J0D01*
G01*
X107800000Y-21575000D02*
G75*
G03*
X107300000Y-22075000I0J-500000D01*
G01*
X127927133Y-120275027D02*
G75*
G03*
X130239712Y-118968547I-33J2700027D01*
G01*
X261793749Y-73174999D02*
X261793749Y-72888000D01*
X40337500Y-60175000D02*
G75*
G03*
X39837500Y-59675000I-500000J0D01*
G01*
X74943749Y-100575001D02*
X74943749Y-99274999D01*
X345425000Y-41125000D02*
X345425000Y-54125000D01*
X284012500Y-59675000D02*
X297012500Y-59675000D01*
X340375000Y-60175000D02*
X340375000Y-73175000D01*
X235100000Y-7000000D02*
G75*
G03*
X235600000Y-6500000I0J500000D01*
G01*
X203049999Y7000000D02*
X216049999Y7000000D01*
X73675000Y6500000D02*
G75*
G03*
X73175000Y7000000I-500000J0D01*
G01*
X345925000Y-59675000D02*
X358925000Y-59675000D01*
X297012500Y12050000D02*
G75*
G03*
X297512500Y12550000I0J500000D01*
G01*
D11*
X265112998Y-35575000D02*
X249236998Y-35575000D01*
D10*
X-12762500Y-120575000D02*
X-12762500Y34025000D01*
X36362500Y-78725000D02*
G75*
G03*
X35862500Y-79225000I0J-500000D01*
G01*
X168424999Y-54624999D02*
G75*
G03*
X168924999Y-54125000I1J499999D01*
G01*
X351047867Y33725027D02*
G75*
G03*
X348735289Y32418548I33J-2700027D01*
G01*
X184000000Y7000000D02*
X197000000Y7000000D01*
X64937500Y-59675000D02*
X77937500Y-59675000D01*
X140637500Y-60175000D02*
X140637500Y-73175000D01*
X22075000Y7000000D02*
X35075000Y7000000D01*
X45100000Y-22075000D02*
G75*
G03*
X44600000Y-21575000I-500000J0D01*
G01*
X102537500Y12550000D02*
G75*
G03*
X103037500Y12050000I500000J0D01*
G01*
X130824999Y-41125000D02*
X130824999Y-54125000D01*
X14143749Y-73174999D02*
X14143749Y-60175000D01*
X308111999Y-111775000D02*
X307824999Y-111774999D01*
D11*
X248883423Y-35721425D02*
G75*
G03*
X248736998Y-36075000I353677J-353575D01*
G01*
X272759422Y-35721425D02*
G75*
G03*
X272612997Y-36075000I353678J-353575D01*
G01*
D10*
X60175000Y-40625000D02*
G75*
G03*
X59675000Y-41125000I0J-500000D01*
G01*
X283512500Y6500000D02*
X283512500Y-6500000D01*
X141137500Y12050000D02*
X154137500Y12050000D01*
X188026982Y-123231375D02*
G75*
G03*
X189831237Y-122009374I-483182J2656375D01*
G01*
X277962500Y-7000000D02*
G75*
G03*
X278462500Y-6500000I0J500000D01*
G01*
X53650000Y-111975000D02*
X53650000Y-113275001D01*
X173687500Y-60175000D02*
X173687500Y-73175000D01*
X76843750Y-97774949D02*
G75*
G03*
X76343749Y-98275001I50J-500051D01*
G01*
X164162500Y-79225000D02*
X164162500Y-92225000D01*
X141137500Y-59675000D02*
G75*
G03*
X140637500Y-60175000I0J-500000D01*
G01*
X202550000Y-6500000D02*
G75*
G03*
X203049999Y-7000000I500000J0D01*
G01*
X187437500Y-120274999D02*
G75*
G03*
X184037500Y-120274999I-1700000J0D01*
G01*
X245855748Y-75675048D02*
G75*
G03*
X246355748Y-75174999I-48J500048D01*
G01*
X326875000Y26050000D02*
X339875000Y26050000D01*
X188026991Y36681426D02*
G75*
G03*
X187437500Y36189478I-89491J-491926D01*
G01*
X326875000Y-92725000D02*
X339875000Y-92725000D01*
X358925000Y-73675000D02*
G75*
G03*
X359425000Y-73175000I0J500000D01*
G01*
X342739713Y32418549D02*
G75*
G03*
X348735287Y32418549I2997787J1806451D01*
G01*
X271318749Y-63650000D02*
X271318749Y-50650000D01*
X75143749Y-109275048D02*
G75*
G03*
X74943748Y-109474999I-49J-199952D01*
G01*
X177950000Y-35575000D02*
G75*
G03*
X178450000Y-35075000I0J500000D01*
G01*
X150662500Y-92725000D02*
X163662500Y-92725000D01*
X221600000Y-35075000D02*
G75*
G03*
X222100000Y-35575000I500000J0D01*
G01*
X378037500Y-122739477D02*
X378037500Y-120274999D01*
X146343299Y-100575001D02*
G75*
G03*
X146543250Y-100775001I200001J1D01*
G01*
X378475001Y-41125000D02*
G75*
G03*
X377974999Y-40624999I-500001J0D01*
G01*
D11*
X240650000Y-35075000D02*
G75*
G03*
X241149998Y-35575000I500000J0D01*
G01*
D10*
X150662500Y-78725000D02*
G75*
G03*
X150162500Y-79225000I0J-500000D01*
G01*
X270818749Y-50150000D02*
X269237498Y-50150000D01*
X11262500Y-111775000D02*
G75*
G03*
X11762500Y-111275001I0J500000D01*
G01*
X307825000Y-21575000D02*
G75*
G03*
X307325000Y-22075000I0J-500000D01*
G01*
X173687500Y25550000D02*
G75*
G03*
X173187500Y26050000I-500000J0D01*
G01*
X20344300Y-94225000D02*
G75*
G03*
X20844249Y-94725000I500000J0D01*
G01*
X91781700Y-109475000D02*
G75*
G03*
X91581750Y-109275000I-200000J0D01*
G01*
X212575000Y-40625000D02*
G75*
G03*
X212075000Y-41125000I0J-500000D01*
G01*
X67943801Y-113274999D02*
G75*
G03*
X68443749Y-113774999I499999J-1D01*
G01*
X235239713Y32418549D02*
G75*
G03*
X241235287Y32418549I2997787J1806451D01*
G01*
X381437471Y-122738330D02*
G75*
G03*
X382028409Y-123229996I500029J30D01*
G01*
X107800000Y-21575000D02*
X120799999Y-21575000D01*
X240649999Y-35075000D02*
X240649999Y-22075001D01*
X141137500Y26050000D02*
G75*
G03*
X140637500Y25550000I0J-500000D01*
G01*
X326375000Y-54125000D02*
G75*
G03*
X326875000Y-54625000I500000J0D01*
G01*
X83200000Y-22075000D02*
G75*
G03*
X82699999Y-21575000I-500000J0D01*
G01*
X81187500Y36189478D02*
X81187500Y33725000D01*
X-6500000Y7000000D02*
G75*
G03*
X-7000000Y6500000I1J-500001D01*
G01*
X-4118751Y-111774999D02*
X11262500Y-111775001D01*
X45387500Y-73175000D02*
G75*
G03*
X45887500Y-73675000I500000J0D01*
G01*
X380475002Y-104187999D02*
G75*
G03*
X379975002Y-103687998I-500002J-1D01*
G01*
X365975001Y-110687999D02*
X379975001Y-110687999D01*
X188762500Y-92725000D02*
X201762500Y-92725000D01*
X235100000Y12050000D02*
G75*
G03*
X235600000Y12550000I0J500000D01*
G01*
X68412500Y-92725000D02*
G75*
G03*
X68912500Y-92225000I0J500000D01*
G01*
X216049999Y-35574999D02*
G75*
G03*
X216549999Y-35075000I1J499999D01*
G01*
X184000000Y26050000D02*
G75*
G03*
X183500000Y25550000I0J-500000D01*
G01*
X161781201Y-100575001D02*
G75*
G03*
X161981250Y-100774999I199999J1D01*
G01*
X203049999Y-21575000D02*
X216049999Y-21575000D01*
X326875000Y12050000D02*
X339875000Y12050000D01*
X138547867Y33725027D02*
G75*
G03*
X136235289Y32418548I33J-2700027D01*
G01*
X339875000Y-73675000D02*
G75*
G03*
X340375000Y-73175000I0J500000D01*
G01*
X21575000Y-54125000D02*
G75*
G03*
X22075000Y-54625000I500000J0D01*
G01*
X311643739Y-122009389D02*
G75*
G03*
X313448013Y-123231404I2287461J1434389D01*
G01*
X22075000Y7000000D02*
G75*
G03*
X21575000Y6500000I0J-500000D01*
G01*
X235600000Y-22075000D02*
X235600000Y-35075000D01*
X12549999Y-35575000D02*
X25550000Y-35575000D01*
X41125000Y7000000D02*
G75*
G03*
X40625000Y6500000I0J-500000D01*
G01*
X39837499Y-97775001D02*
X19693749Y-97774999D01*
X98274999Y-54625000D02*
X111274999Y-54625000D01*
X160187500Y26050000D02*
X173187500Y26050000D01*
X377975000Y-7000000D02*
G75*
G03*
X378475000Y-6500000I0J500000D01*
G01*
X202549999Y25550000D02*
X202549999Y12550000D01*
X307325000Y-54125000D02*
G75*
G03*
X307825000Y-54625000I500000J0D01*
G01*
X284012500Y-40625000D02*
X297012500Y-40625000D01*
X122087500Y-59675000D02*
G75*
G03*
X121587500Y-60175000I0J-500000D01*
G01*
X-6562500Y-120275000D02*
X-6562500Y-122739477D01*
X358925000Y-111775000D02*
G75*
G03*
X359425000Y-111274999I0J500000D01*
G01*
X339875000Y-35575000D02*
G75*
G03*
X340375000Y-35075000I0J500000D01*
G01*
X106512499Y-92724999D02*
G75*
G03*
X107012499Y-92225000I1J499999D01*
G01*
X365975001Y-103688001D02*
G75*
G03*
X365475001Y-104187999I-1J-499999D01*
G01*
X49862500Y-79225000D02*
X49862500Y-92225000D01*
X77787478Y36189478D02*
G75*
G03*
X77198013Y36681405I-499978J22D01*
G01*
X49862500Y-79225000D02*
G75*
G03*
X49362500Y-78725000I-500000J0D01*
G01*
X73675000Y6500000D02*
X73675000Y-6500000D01*
X54125000Y-7000000D02*
G75*
G03*
X54625000Y-6500000I0J500000D01*
G01*
X54150000Y-113775001D02*
X60150000Y-113775001D01*
X155424999Y-40625000D02*
X168424999Y-40625000D01*
X345425001Y-111274999D02*
G75*
G03*
X345925000Y-111774999I499999J-1D01*
G01*
X184000000Y-7000000D02*
X197000000Y-7000000D01*
X375775005Y-103487996D02*
G75*
G03*
X375975000Y-103687995I199995J-4D01*
G01*
X144612499Y-92724999D02*
G75*
G03*
X145112499Y-92225000I1J499999D01*
G01*
X22075000Y26050000D02*
G75*
G03*
X21575000Y25550000I0J-500000D01*
G01*
X181643739Y-122009389D02*
G75*
G03*
X183448013Y-123231404I2287461J1434389D01*
G01*
X53650001Y-111975000D02*
G75*
G03*
X53450001Y-111774999I-200001J0D01*
G01*
X359425000Y-41125000D02*
G75*
G03*
X358925000Y-40625000I-500000J0D01*
G01*
X90343750Y-111275000D02*
X90343750Y-109475000D01*
X277962500Y-116537500D02*
G75*
G03*
X278462500Y-116037500I0J500000D01*
G01*
X307325000Y-73175000D02*
G75*
G03*
X307825000Y-73675000I500000J0D01*
G01*
X243547867Y33725000D02*
X284759067Y33725000D01*
X183500000Y25550000D02*
X183500000Y12550000D01*
X297512500Y-103037500D02*
X297512500Y-116037500D01*
X378475000Y-22075000D02*
X378475000Y-35075000D01*
X340375001Y-98274999D02*
G75*
G03*
X339874998Y-97774999I-500001J-1D01*
G01*
X83987500Y-59675000D02*
X96987500Y-59675000D01*
X364475001Y-101749999D02*
X364475001Y-88749999D01*
X57006201Y-98274999D02*
G75*
G03*
X56506249Y-97774999I-500001J-1D01*
G01*
X273699999Y-22075001D02*
G75*
G03*
X273199999Y-21575001I-499999J1D01*
G01*
X263231701Y-72888000D02*
G75*
G03*
X262931748Y-72587999I-300001J0D01*
G01*
X216549999Y-22075000D02*
X216549999Y-35075000D01*
X21575000Y6500000D02*
X21575000Y-6500000D01*
X160187500Y-59675000D02*
G75*
G03*
X159687500Y-60175000I0J-500000D01*
G01*
X20427133Y-120274999D02*
X-1034066Y-120274999D01*
X164162500Y-79225000D02*
G75*
G03*
X163662500Y-78725000I-500000J0D01*
G01*
X365975001Y-103687999D02*
X366975001Y-103687999D01*
X207812500Y-78725000D02*
G75*
G03*
X207312500Y-79225000I0J-500000D01*
G01*
X140637500Y-73175000D02*
G75*
G03*
X141137500Y-73675000I500000J0D01*
G01*
X183448009Y-123231426D02*
G75*
G03*
X184037500Y-122739477I89491J491926D01*
G01*
X268937500Y-41125000D02*
G75*
G03*
X268437499Y-40625000I-500000J0D01*
G01*
X264962500Y7000000D02*
G75*
G03*
X264462500Y6500000I0J-500000D01*
G01*
X378037500Y33725000D02*
X378037500Y36189478D01*
X254650000Y6500000D02*
X254650000Y-6500000D01*
X90343699Y-100575000D02*
G75*
G03*
X90543749Y-100775001I200001J0D01*
G01*
X174943700Y-99274999D02*
G75*
G03*
X174443748Y-98775000I-500000J-1D01*
G01*
X239355700Y-73975000D02*
G75*
G03*
X239055749Y-73675000I-300000J0D01*
G01*
X297512500Y25550000D02*
G75*
G03*
X297012500Y26050000I-500000J0D01*
G01*
X321325000Y-41125000D02*
G75*
G03*
X320825000Y-40625000I-500000J0D01*
G01*
X68912500Y-79225000D02*
X68912500Y-92225000D01*
X364975001Y-88249999D02*
X366975001Y-88249999D01*
X163719250Y-113775000D02*
X174443749Y-113775000D01*
X81776982Y-123231375D02*
G75*
G03*
X83581237Y-122009374I-483182J2656375D01*
G01*
X161281250Y-111775050D02*
G75*
G03*
X161781250Y-111275000I-50J500050D01*
G01*
X139850000Y-35575000D02*
G75*
G03*
X140350000Y-35075000I0J500000D01*
G01*
X232927133Y-120274999D02*
X192965933Y-120274999D01*
X379975001Y-103687999D02*
X375975001Y-103687999D01*
X154137500Y-73675000D02*
G75*
G03*
X154637500Y-73175000I0J500000D01*
G01*
X189831213Y35459360D02*
G75*
G03*
X192965933Y33725000I3134687J1965640D01*
G01*
X380475001Y-80311999D02*
G75*
G03*
X379975001Y-79811999I-500001J-1D01*
G01*
X257018748Y-59675000D02*
X236387499Y-59675000D01*
X64937500Y-73675000D02*
X77937500Y-73675000D01*
X375975001Y-102249999D02*
X377975001Y-102249999D01*
X183212500Y-79225000D02*
X183212500Y-92225000D01*
X31600000Y-21575000D02*
X44600000Y-21575000D01*
X240650000Y12550000D02*
G75*
G03*
X241150000Y12050000I500000J0D01*
G01*
X264462500Y-116037500D02*
G75*
G03*
X264962500Y-116537500I500000J0D01*
G01*
X98274999Y-40625000D02*
X111274999Y-40625000D01*
X92225000Y12050000D02*
G75*
G03*
X92725000Y12550000I0J500000D01*
G01*
X135587500Y25550000D02*
G75*
G03*
X135087500Y26050000I-500000J0D01*
G01*
X183500000Y-6500000D02*
G75*
G03*
X184000000Y-7000000I500000J0D01*
G01*
X231625000Y-54625000D02*
X244625000Y-54625000D01*
X203049999Y-21574999D02*
G75*
G03*
X202549999Y-22075000I1J-500001D01*
G01*
X297512500Y-22075000D02*
G75*
G03*
X297012500Y-21575000I-500000J0D01*
G01*
X264462500Y-96987500D02*
G75*
G03*
X264962500Y-97487500I500000J0D01*
G01*
X122087500Y-59675000D02*
X135087500Y-59675000D01*
X35575000Y-41125000D02*
X35575000Y-54125000D01*
X284012500Y-40625000D02*
G75*
G03*
X283512500Y-41125000I0J-500000D01*
G01*
X193525000Y-54625000D02*
X206525000Y-54625000D01*
X231625000Y-40625000D02*
X244625000Y-40625000D01*
X340375000Y-79225000D02*
G75*
G03*
X339875000Y-78725000I-500000J0D01*
G01*
X3468249Y-94225000D02*
X3468249Y-93024999D01*
X375775000Y-88049995D02*
X375775001Y-87011999D01*
X290287500Y33725000D02*
G75*
G03*
X293687500Y33725000I1700000J0D01*
G01*
X307325000Y-35075000D02*
G75*
G03*
X307825000Y-35575000I500000J0D01*
G01*
X211787500Y-60175000D02*
X211787500Y-73175000D01*
X60175000Y-40625000D02*
X73175000Y-40625000D01*
X326375000Y-79225000D02*
X326375000Y-92225000D01*
X40337499Y-98275001D02*
G75*
G03*
X39837499Y-97775001I-499999J1D01*
G01*
X247506250Y-79225000D02*
X247506250Y-92225000D01*
X-6500000Y-35575000D02*
X6499999Y-35575000D01*
X161981250Y-109275049D02*
G75*
G03*
X161781249Y-109474999I-50J-199951D01*
G01*
X197500000Y25550000D02*
G75*
G03*
X197000000Y26050000I-500000J0D01*
G01*
X91781750Y-99275000D02*
X91781750Y-100575001D01*
X140350000Y-22075000D02*
G75*
G03*
X139850000Y-21575000I-500000J0D01*
G01*
X235600000Y25550000D02*
X235600000Y12550000D01*
X41125000Y-7000000D02*
X54125000Y-7000000D01*
X264462500Y-103037500D02*
X264462500Y-116037500D01*
X145900000Y-35575000D02*
X158900000Y-35575000D01*
X89843750Y-97775000D02*
X76843750Y-97775000D01*
D11*
X272112989Y-37574990D02*
X266112997Y-37575000D01*
D10*
X25550000Y-35575000D02*
G75*
G03*
X26050000Y-35075000I0J500000D01*
G01*
X379975001Y-79811999D02*
X366975001Y-79811999D01*
X207312500Y-79225000D02*
X207312500Y-92225000D01*
X197500000Y-22075000D02*
G75*
G03*
X197000000Y-21575000I-500000J0D01*
G01*
X297512500Y-60175000D02*
G75*
G03*
X297012500Y-59675000I-500000J0D01*
G01*
X278462500Y6500000D02*
X278462500Y-6500000D01*
X14143700Y-60175000D02*
G75*
G03*
X13643749Y-59675000I-500000J0D01*
G01*
X161981250Y-109275000D02*
X163019250Y-109275001D01*
X45887500Y-73675000D02*
X58887499Y-73675000D01*
X297512500Y-22075000D02*
X297512500Y-35075000D01*
X41125000Y-40625000D02*
G75*
G03*
X40625000Y-41125000I0J-500000D01*
G01*
X241150000Y7000000D02*
X254150000Y7000000D01*
X197787500Y-73175000D02*
G75*
G03*
X198287500Y-73675000I500000J0D01*
G01*
X88750000Y-35575000D02*
X101750000Y-35575000D01*
X86715933Y33725000D02*
X127927133Y33725000D01*
X359425000Y-60175000D02*
X359425000Y-73175000D01*
X235239688Y32418534D02*
G75*
G03*
X232927133Y33725000I-2312588J-1393534D01*
G01*
X-3031750Y-94725000D02*
X2968249Y-94725000D01*
D11*
X241590552Y-35721445D02*
G75*
G03*
X241236998Y-35575000I-353552J-353555D01*
G01*
D10*
X64149999Y-22075000D02*
X64149999Y-35075000D01*
X303062500Y26050000D02*
X316062500Y26050000D01*
X234006250Y-78725000D02*
X247006250Y-78725000D01*
X78725000Y-41125000D02*
X78725000Y-54125000D01*
X283512500Y-60175000D02*
X283512500Y-73175000D01*
X40625000Y-41125000D02*
X40625000Y-54125000D01*
X308411999Y-113274999D02*
X308411999Y-112075000D01*
X362475000Y-72088000D02*
G75*
G03*
X362974999Y-72588000I500000J0D01*
G01*
X284012500Y-35575000D02*
X297012500Y-35575000D01*
X93512499Y-92725000D02*
X106512499Y-92725000D01*
X-6562500Y-120275000D02*
G75*
G03*
X-9962500Y-120275000I-1700000J0D01*
G01*
X345925000Y-97775000D02*
G75*
G03*
X345425000Y-98274999I0J-500000D01*
G01*
X178737500Y-73175000D02*
G75*
G03*
X179237499Y-73675000I500000J0D01*
G01*
X103037500Y-7000000D02*
X116037500Y-7000000D01*
X307325000Y-60175000D02*
X307325000Y-73175000D01*
X364174998Y-65587999D02*
G75*
G03*
X364474999Y-65287999I2J299999D01*
G01*
X359425000Y-60175000D02*
G75*
G03*
X358925000Y-59675000I-500000J0D01*
G01*
X326875000Y7000000D02*
X339875000Y7000000D01*
X135087500Y-73675000D02*
G75*
G03*
X135587500Y-73175000I0J500000D01*
G01*
X235600000Y6500000D02*
X235600000Y-6500000D01*
X284012500Y7000000D02*
G75*
G03*
X283512500Y6500000I0J-500000D01*
G01*
X83487500Y-60175000D02*
X83487500Y-73175000D01*
X169212500Y-79225000D02*
X169212500Y-92225000D01*
X35862500Y-92225000D02*
G75*
G03*
X36362500Y-92725000I500000J0D01*
G01*
X181643787Y-122009359D02*
G75*
G03*
X178509067Y-120274999I-3134687J-1965641D01*
G01*
X302562500Y6500000D02*
X302562500Y-6500000D01*
X8000000Y28800000D02*
G75*
G03*
X7500000Y29300000I-500000J0D01*
G01*
X245412500Y-103037500D02*
X245412500Y-116037500D01*
X20344249Y-93024999D02*
X20344249Y-94225000D01*
X86715933Y-120275028D02*
G75*
G03*
X83581238Y-122009374I-33J-3699972D01*
G01*
X73675000Y-41125000D02*
G75*
G03*
X73175000Y-40625000I-500000J0D01*
G01*
X254937498Y-41125000D02*
X254937498Y-54125000D01*
X154924999Y-41125000D02*
X154924999Y-54125000D01*
X121587500Y-73175000D02*
G75*
G03*
X122087500Y-73675000I500000J0D01*
G01*
X81776991Y36681426D02*
G75*
G03*
X81187500Y36189478I-89491J-491926D01*
G01*
X187437500Y36189478D02*
X187437500Y33725000D01*
D11*
X249236998Y-35575000D02*
G75*
G03*
X248883446Y-35721448I2J-500000D01*
G01*
D10*
X278462500Y-83987500D02*
G75*
G03*
X277962500Y-83487500I-500000J0D01*
G01*
X307825000Y-40625000D02*
X320825000Y-40625000D01*
X112562500Y-78725000D02*
X125562500Y-78725000D01*
X339875000Y12050000D02*
G75*
G03*
X340375000Y12550000I0J500000D01*
G01*
X364475000Y25550000D02*
X364475000Y12550000D01*
X257018748Y-59675050D02*
G75*
G03*
X257318750Y-59375000I-48J300050D01*
G01*
X74943749Y-113274999D02*
X74943749Y-109475000D01*
X163219200Y-109475000D02*
G75*
G03*
X163019250Y-109275000I-200000J0D01*
G01*
X6499999Y-6999999D02*
G75*
G03*
X6999999Y-6500000I1J499999D01*
G01*
X11762500Y-41125000D02*
G75*
G03*
X11262500Y-40625000I-500000J0D01*
G01*
D11*
X273112997Y-35574999D02*
G75*
G03*
X272759444Y-35721447I3J-500001D01*
G01*
D10*
X159687500Y-73175000D02*
G75*
G03*
X160187500Y-73675000I500000J0D01*
G01*
X147581250Y-100775050D02*
G75*
G03*
X147781250Y-100575000I-50J200050D01*
G01*
X72259067Y33725028D02*
G75*
G03*
X75393763Y35459375I33J3699972D01*
G01*
X60175000Y7000000D02*
X73175000Y7000000D01*
X332288000Y-112075000D02*
G75*
G03*
X331987998Y-111775000I-300000J0D01*
G01*
X93512499Y-78724999D02*
G75*
G03*
X93012499Y-79225000I1J-500001D01*
G01*
X269818749Y-48712049D02*
G75*
G03*
X270318749Y-48212000I-49J500049D01*
G01*
X43006249Y-98274999D02*
X43006249Y-111274999D01*
X60175000Y-7000000D02*
X73175000Y-7000000D01*
X365975001Y-86811999D02*
X366975001Y-86811999D01*
X232927133Y-120275027D02*
G75*
G03*
X235239712Y-118968547I-33J2700027D01*
G01*
X221600000Y6500000D02*
X221600000Y-6500000D01*
X6999999Y6500000D02*
X6999999Y-6500000D01*
X107300000Y-35075000D02*
G75*
G03*
X107800000Y-35575000I500000J0D01*
G01*
X326375000Y-73175000D02*
G75*
G03*
X326875000Y-73675000I500000J0D01*
G01*
X141137500Y26050000D02*
X154137500Y26050000D01*
X313448009Y-123231426D02*
G75*
G03*
X314037500Y-122739477I89491J491926D01*
G01*
X-1737500Y-40625000D02*
X11262500Y-40625000D01*
X54625000Y25550000D02*
X54625000Y12550000D01*
X264462500Y25550000D02*
X264462500Y12550000D01*
X148281250Y-111775000D02*
X161281250Y-111775000D01*
X60175000Y12050000D02*
X73175000Y12050000D01*
X382028409Y-123229997D02*
G75*
G03*
X384237500Y-120574999I-490909J2654997D01*
G01*
X136375000Y-54625000D02*
X149375000Y-54625000D01*
X378475000Y-22075000D02*
G75*
G03*
X377975000Y-21575000I-500000J0D01*
G01*
X270231756Y-72369840D02*
G75*
G03*
X270318749Y-72087999I-413056J281840D01*
G01*
X273199998Y-35574999D02*
G75*
G03*
X273699999Y-35075000I2J499999D01*
G01*
X173687500Y25550000D02*
X173687500Y12550000D01*
X203049999Y-7000000D02*
X216049999Y-7000000D01*
X-7500000Y29300000D02*
X7500000Y29300000D01*
X73962499Y-79225000D02*
X73962499Y-92225000D01*
X82699999Y-35574999D02*
G75*
G03*
X83199999Y-35075000I1J499999D01*
G01*
X159687500Y25550000D02*
X159687500Y12550000D01*
X216550000Y25550000D02*
G75*
G03*
X216049999Y26050000I-500000J0D01*
G01*
X198287500Y-73675000D02*
X211287500Y-73675000D01*
X121299999Y-22075000D02*
X121299999Y-35075000D01*
X326375000Y-92225000D02*
G75*
G03*
X326875000Y-92725000I500000J0D01*
G01*
X92725000Y-41125000D02*
X92725000Y-54125000D01*
X-4118751Y-73675000D02*
X13643749Y-73675000D01*
X77198009Y-123231426D02*
G75*
G03*
X77787500Y-122739477I89491J491926D01*
G01*
X187975000Y-41125000D02*
G75*
G03*
X187475000Y-40625000I-500000J0D01*
G01*
X378475000Y25550000D02*
G75*
G03*
X377975000Y26050000I-500000J0D01*
G01*
X73675000Y25550000D02*
X73675000Y12550000D01*
X30812499Y-92225000D02*
X30812498Y-79225000D01*
X19693749Y-111774999D02*
X39837499Y-111775001D01*
X364475000Y12550000D02*
G75*
G03*
X364975000Y12050000I500000J0D01*
G01*
X22075000Y-40625000D02*
X35075000Y-40625000D01*
X122087500Y-73675000D02*
X135087500Y-73675000D01*
X307825000Y-21575000D02*
X320825000Y-21575000D01*
X40625000Y12550000D02*
G75*
G03*
X41125000Y12050000I500000J0D01*
G01*
X345425000Y-60175000D02*
X345425000Y-73175000D01*
X79225000Y-40625000D02*
G75*
G03*
X78725000Y-41125000I0J-500000D01*
G01*
X241235313Y-118968533D02*
G75*
G03*
X243547868Y-120274999I2312587J1393533D01*
G01*
X184000000Y-21575000D02*
G75*
G03*
X183500000Y-22075000I0J-500000D01*
G01*
X8000000Y28800000D02*
X8000000Y15300000D01*
X221600000Y12550000D02*
G75*
G03*
X222100000Y12050000I500000J0D01*
G01*
X303062500Y7000000D02*
X316062500Y7000000D01*
X149375000Y-54625000D02*
G75*
G03*
X149875000Y-54125000I0J500000D01*
G01*
X117324999Y-54625000D02*
X130324999Y-54625000D01*
X362475000Y-48212000D02*
G75*
G03*
X362974999Y-48712000I500000J0D01*
G01*
X60175000Y26050000D02*
G75*
G03*
X59675000Y25550000I0J-500000D01*
G01*
X377975000Y-35575000D02*
G75*
G03*
X378475000Y-35075000I0J500000D01*
G01*
X111775000Y-41125000D02*
G75*
G03*
X111274999Y-40625000I-500000J0D01*
G01*
X302562500Y25550000D02*
X302562500Y12550000D01*
X12549999Y-21575000D02*
X25550000Y-21575000D01*
X326875000Y-40625000D02*
G75*
G03*
X326375000Y-41125000I0J-500000D01*
G01*
X173975000Y-41125000D02*
X173975000Y-54125000D01*
X139343300Y-113275000D02*
G75*
G03*
X139843250Y-113775000I500000J0D01*
G01*
X92725000Y25550000D02*
G75*
G03*
X92225000Y26050000I-500000J0D01*
G01*
X98281750Y-98775000D02*
X92281750Y-98775000D01*
X183500001Y-111274999D02*
G75*
G03*
X183999999Y-111774999I499999J-1D01*
G01*
X296081262Y35459390D02*
G75*
G03*
X294276987Y36681405I-2287462J-1434390D01*
G01*
X308412001Y-113274999D02*
G75*
G03*
X308911999Y-113774999I499999J-1D01*
G01*
X54125000Y12050000D02*
G75*
G03*
X54625000Y12550000I0J500000D01*
G01*
X92281750Y-98774949D02*
G75*
G03*
X91781749Y-99275001I50J-500051D01*
G01*
X36362500Y-78725000D02*
X49362500Y-78725000D01*
X154637500Y-60175000D02*
X154637500Y-73175000D01*
X345925000Y-97774999D02*
X358925000Y-97774999D01*
X216049999Y12050001D02*
G75*
G03*
X216549999Y12550000I1J499999D01*
G01*
X362474999Y-42212000D02*
X362474999Y-48212000D01*
X103037500Y26050000D02*
X116037500Y26050000D01*
X241150000Y12050000D02*
X254150000Y12050000D01*
X184037478Y36189478D02*
G75*
G03*
X183448013Y36681405I-499978J22D01*
G01*
X297012500Y-54625000D02*
G75*
G03*
X297512500Y-54125000I0J500000D01*
G01*
X230837500Y-60175000D02*
G75*
G03*
X230337500Y-59675000I-500000J0D01*
G01*
X63650000Y-35575000D02*
G75*
G03*
X64150000Y-35075000I0J500000D01*
G01*
X22739688Y32418534D02*
G75*
G03*
X20427133Y33725000I-2312588J-1393534D01*
G01*
X-4118751Y-59675000D02*
G75*
G03*
X-4618751Y-60175000I1J-500001D01*
G01*
X43506249Y-97774949D02*
G75*
G03*
X43006249Y-98274999I51J-500051D01*
G01*
X297512500Y-103037500D02*
G75*
G03*
X297012500Y-102537500I-500000J0D01*
G01*
X-12762499Y-120575000D02*
G75*
G03*
X-10553410Y-123229997I2700687J571D01*
G01*
X-4118751Y-78725000D02*
G75*
G03*
X-4618751Y-79225000I1J-500001D01*
G01*
X198287500Y-59675000D02*
G75*
G03*
X197787500Y-60175000I0J-500000D01*
G01*
X145843250Y-113775050D02*
G75*
G03*
X146343250Y-113275000I-50J500050D01*
G01*
X-1034066Y33725000D02*
X20427133Y33725000D01*
X278462500Y6500000D02*
G75*
G03*
X277962500Y7000000I-500000J0D01*
G01*
X159687500Y6500000D02*
X159687500Y-6500000D01*
X31600000Y-35575000D02*
X44600000Y-35575000D01*
X345425000Y6500000D02*
X345425000Y-6500000D01*
X264962500Y26050000D02*
X277962500Y26050000D01*
X136235287Y-118968549D02*
G75*
G03*
X130239714Y-118968547I-2997787J-1806451D01*
G01*
X359425000Y-22075000D02*
X359425000Y-35075000D01*
X26050000Y-22075000D02*
X26050000Y-35075000D01*
X278462500Y25550000D02*
X278462500Y12550000D01*
X148281250Y-97775049D02*
G75*
G03*
X147781249Y-98274999I-50J-499951D01*
G01*
X35575000Y25550000D02*
G75*
G03*
X35075000Y26050000I-500000J0D01*
G01*
X359425000Y-41125000D02*
X359425000Y-54125000D01*
X121587500Y6500000D02*
X121587500Y-6500000D01*
X12050000Y-35075000D02*
G75*
G03*
X12549999Y-35575000I500000J0D01*
G01*
X79225000Y7000000D02*
X92225000Y7000000D01*
X290287478Y36189478D02*
G75*
G03*
X289698013Y36681405I-499978J22D01*
G01*
X140350000Y-22075000D02*
X140350000Y-35075000D01*
X81187500Y-120274999D02*
G75*
G03*
X77787500Y-120274999I-1700000J0D01*
G01*
X116037500Y-73675000D02*
G75*
G03*
X116537500Y-73175000I0J500000D01*
G01*
X247506200Y-79225000D02*
G75*
G03*
X247006250Y-78725000I-500000J0D01*
G01*
X-4618751Y-111274999D02*
G75*
G03*
X-4118751Y-111774999I500001J1D01*
G01*
X50150000Y-35075000D02*
G75*
G03*
X50650000Y-35575000I500000J0D01*
G01*
X140637500Y25550000D02*
X140637500Y12550000D01*
X73675000Y-41125000D02*
X73675000Y-54125000D01*
X174943749Y-113274999D02*
X174943749Y-99274999D01*
X126350000Y-22075000D02*
X126350000Y-35075000D01*
X381437500Y-120274999D02*
G75*
G03*
X378037500Y-120274999I-1700000J0D01*
G01*
X173687500Y6500000D02*
X173687500Y-6500000D01*
X384237500Y34025000D02*
G75*
G03*
X382028409Y36679997I-2700000J0D01*
G01*
X316062500Y12050000D02*
G75*
G03*
X316562500Y12550000I0J500000D01*
G01*
X35575000Y25550000D02*
X35575000Y12550000D01*
X221600000Y25550000D02*
X221600000Y12550000D01*
X216550000Y-22075000D02*
G75*
G03*
X216049999Y-21575000I-500000J0D01*
G01*
X278462500Y-83987500D02*
X278462500Y-96987500D01*
X64437500Y-60175000D02*
X64437500Y-73175000D01*
X78437500Y-60175000D02*
X78437500Y-73175000D01*
X136375000Y-40625000D02*
G75*
G03*
X135875000Y-41125000I0J-500000D01*
G01*
X90543750Y-109275000D02*
X91581750Y-109275000D01*
X345425000Y-22075000D02*
X345425000Y-35075000D01*
X254650000Y6500000D02*
G75*
G03*
X254150000Y7000000I-500000J0D01*
G01*
X73175000Y-7000000D02*
G75*
G03*
X73675000Y-6500000I0J500000D01*
G01*
X364475001Y-101749999D02*
G75*
G03*
X364975001Y-102249999I499999J-1D01*
G01*
X302562500Y12550000D02*
G75*
G03*
X303062500Y12050000I500000J0D01*
G01*
X183500000Y6500000D02*
X183500000Y-6500000D01*
X321325000Y-60175000D02*
X321325000Y-73175000D01*
X6499999Y-35574999D02*
G75*
G03*
X6999999Y-35075000I1J499999D01*
G01*
D11*
X241737000Y-37075000D02*
G75*
G03*
X242236997Y-37575000I500000J0D01*
G01*
D10*
X-5973012Y-123231403D02*
G75*
G03*
X-4168762Y-122009374I-483229J2656402D01*
G01*
X184000000Y7000000D02*
G75*
G03*
X183500000Y6500000I0J-500000D01*
G01*
X184000000Y26050000D02*
X197000000Y26050000D01*
X-7500000Y29300000D02*
G75*
G03*
X-8000001Y28800001I-1J-500000D01*
G01*
X102537500Y-73175000D02*
G75*
G03*
X103037500Y-73675000I500000J0D01*
G01*
X382028403Y36679967D02*
G75*
G03*
X381437500Y36188331I-90903J-491667D01*
G01*
X235887501Y-73174999D02*
G75*
G03*
X236387499Y-73674999I499999J-1D01*
G01*
X377974999Y-40625000D02*
X364974999Y-40625000D01*
X293687500Y36189478D02*
X293687500Y33725000D01*
X130239713Y32418549D02*
G75*
G03*
X136235287Y32418549I2997787J1806451D01*
G01*
X283512500Y-103037500D02*
X283512500Y-116037500D01*
X316562500Y6500000D02*
X316562500Y-6500000D01*
X318026982Y-123231375D02*
G75*
G03*
X319831237Y-122009374I-483182J2656375D01*
G01*
X202550000Y-35075000D02*
G75*
G03*
X203049999Y-35575000I500000J0D01*
G01*
X236387499Y-59674999D02*
G75*
G03*
X235887499Y-60175000I1J-500001D01*
G01*
X135587500Y6500000D02*
G75*
G03*
X135087500Y7000000I-500000J0D01*
G01*
X192965933Y33725000D02*
X232927133Y33725000D01*
X375975000Y-86812001D02*
G75*
G03*
X375775001Y-87011999I0J-199999D01*
G01*
X278462500Y25550000D02*
G75*
G03*
X277962500Y26050000I-500000J0D01*
G01*
X112062500Y-92225000D02*
G75*
G03*
X112562500Y-92725000I500000J0D01*
G01*
X161781201Y-98275000D02*
G75*
G03*
X161281249Y-97774999I-500001J0D01*
G01*
X161781250Y-100575001D02*
X161781250Y-98275000D01*
X116537500Y-60175000D02*
G75*
G03*
X116037500Y-59675000I-500000J0D01*
G01*
X187437500Y-120274999D02*
X187437500Y-122739477D01*
X359425000Y25550000D02*
G75*
G03*
X358925000Y26050000I-500000J0D01*
G01*
X88750000Y-21575000D02*
X101750000Y-21575000D01*
X11762500Y-41125000D02*
X11762500Y-54125000D01*
X366975002Y-88250001D02*
G75*
G03*
X367175001Y-88049999I-2J200001D01*
G01*
X245912500Y-102537500D02*
X258912500Y-102537500D01*
X375975000Y-102250001D02*
G75*
G03*
X375775001Y-102449999I0J-199999D01*
G01*
X284012500Y-116537500D02*
X297012500Y-116537500D01*
X146543250Y-109275000D02*
X147581250Y-109275001D01*
X364475000Y6500000D02*
X364475000Y-6500000D01*
X303062500Y-7000000D02*
X316062500Y-7000000D01*
X159687500Y-60175000D02*
X159687500Y-73175000D01*
X202550000Y12550000D02*
G75*
G03*
X203049999Y12050000I500000J0D01*
G01*
X103037500Y26050000D02*
G75*
G03*
X102537500Y25550000I0J-500000D01*
G01*
X76143750Y-100774949D02*
G75*
G03*
X76343749Y-100575001I50J199949D01*
G01*
X74943701Y-99274999D02*
G75*
G03*
X74443749Y-98774999I-500001J-1D01*
G01*
X35575000Y-41125000D02*
G75*
G03*
X35075000Y-40625000I-500000J0D01*
G01*
X364475001Y-73174999D02*
G75*
G03*
X364974999Y-73674999I499999J-1D01*
G01*
X314911999Y-113775000D02*
X308911999Y-113774999D01*
X307825000Y-92725000D02*
X320825000Y-92725000D01*
X380475001Y-86311999D02*
X380475001Y-80311999D01*
X216549999Y25550000D02*
X216549999Y12550000D01*
X326875000Y-21575000D02*
X339875000Y-21575000D01*
X358925000Y-54625000D02*
G75*
G03*
X359425000Y-54125000I0J500000D01*
G01*
X367175002Y-102450003D02*
X367175001Y-103487999D01*
X97774999Y-41125000D02*
X97774999Y-54125000D01*
X83987500Y-73675000D02*
X96987500Y-73675000D01*
X-7000000Y-6500000D02*
G75*
G03*
X-6500000Y-7000000I500001J1D01*
G01*
X270231749Y-75174999D02*
X270231749Y-72369835D01*
X169212500Y-92225000D02*
G75*
G03*
X169712500Y-92725000I500000J0D01*
G01*
X233000001Y-83224999D02*
X233306251Y-83224999D01*
X76843750Y-111775000D02*
X89843750Y-111775000D01*
X364975001Y-88250001D02*
G75*
G03*
X364475001Y-88749999I-1J-499999D01*
G01*
X364975000Y7000000D02*
G75*
G03*
X364475000Y6500000I0J-500000D01*
G01*
X50650000Y-35575000D02*
X63650000Y-35575000D01*
X216550000Y6500000D02*
G75*
G03*
X216049999Y7000000I-500000J0D01*
G01*
X50650000Y-21575000D02*
G75*
G03*
X50150000Y-22075000I0J-500000D01*
G01*
X12549999Y-21574999D02*
G75*
G03*
X12049999Y-22075000I1J-500001D01*
G01*
X121300000Y-22075000D02*
G75*
G03*
X120799999Y-21575000I-500000J0D01*
G01*
X217337500Y-73675000D02*
X230337500Y-73675000D01*
X83581262Y35459390D02*
G75*
G03*
X81776987Y36681405I-2287462J-1434390D01*
G01*
X235599999Y-111274999D02*
X235599999Y-98274999D01*
D11*
X241736981Y-36074999D02*
G75*
G03*
X241590551Y-35721446I-500281J-101D01*
G01*
D10*
X59675000Y12550000D02*
G75*
G03*
X60175000Y12050000I500000J0D01*
G01*
X345425000Y-98274999D02*
X345425000Y-111274999D01*
X164450000Y-22075000D02*
X164450000Y-35075000D01*
X221312500Y-79225000D02*
X221312500Y-92225000D01*
X54125000Y-54625000D02*
G75*
G03*
X54625000Y-54125000I0J500000D01*
G01*
X-7000000Y-22075000D02*
X-7000000Y-35075000D01*
X283512500Y-35075000D02*
G75*
G03*
X284012500Y-35575000I500000J0D01*
G01*
X150162500Y-92225000D02*
G75*
G03*
X150662500Y-92725000I500000J0D01*
G01*
X69699999Y-35575000D02*
X82699999Y-35575000D01*
X269237498Y-48711998D02*
G75*
G03*
X268937498Y-49012000I2J-300002D01*
G01*
X221312500Y-79225000D02*
G75*
G03*
X220812500Y-78725000I-500000J0D01*
G01*
X45100000Y-22075000D02*
X45100000Y-35075000D01*
X131612499Y-92725000D02*
X144612499Y-92725000D01*
X75393739Y-122009389D02*
G75*
G03*
X77198013Y-123231404I2287461J1434389D01*
G01*
X345925000Y-111774999D02*
X358925000Y-111774999D01*
X76343800Y-111275000D02*
G75*
G03*
X76843750Y-111775000I500000J0D01*
G01*
X193525000Y-40625000D02*
X206525000Y-40625000D01*
X345925000Y-54625000D02*
X358925000Y-54625000D01*
X359425001Y-98274999D02*
G75*
G03*
X358925000Y-97774999I-500001J-1D01*
G01*
X261293749Y-73675050D02*
G75*
G03*
X261793750Y-73174999I-49J500050D01*
G01*
X107012500Y-79225000D02*
G75*
G03*
X106512499Y-78725000I-500000J0D01*
G01*
X384237500Y34025000D02*
X384237500Y-120574999D01*
X364974999Y-40624999D02*
G75*
G03*
X364474999Y-41125000I1J-500001D01*
G01*
X111774999Y-41125000D02*
X111774999Y-54125000D01*
X183500000Y12550000D02*
G75*
G03*
X184000000Y12050000I500000J0D01*
G01*
X222100000Y-21575000D02*
G75*
G03*
X221600000Y-22075000I0J-500000D01*
G01*
X321325000Y-79225000D02*
X321325000Y-92225000D01*
X183448018Y36681375D02*
G75*
G03*
X181643764Y35459375I483182J-2656375D01*
G01*
X60175000Y7000000D02*
G75*
G03*
X59675000Y6500000I0J-500000D01*
G01*
X270318749Y-48212000D02*
X270318749Y-42212000D01*
X79225000Y-40625000D02*
X92225000Y-40625000D01*
X30312499Y-78725000D02*
X-4118751Y-78725000D01*
X317437500Y-120274999D02*
G75*
G03*
X314037500Y-120274999I-1700000J0D01*
G01*
X364975000Y12050000D02*
X377975000Y12050000D01*
X264962500Y-83487500D02*
G75*
G03*
X264462500Y-83987500I0J-500000D01*
G01*
X222100000Y26050000D02*
G75*
G03*
X221600000Y25550000I0J-500000D01*
G01*
X367174997Y-87012002D02*
G75*
G03*
X366975002Y-86812003I-199997J2D01*
G01*
X192737499Y-60175000D02*
X192737499Y-73175000D01*
X102250000Y-22075000D02*
G75*
G03*
X101750000Y-21575000I-500000J0D01*
G01*
X126850000Y-21575000D02*
X139850000Y-21575000D01*
X264462500Y-6500000D02*
G75*
G03*
X264962500Y-7000000I500000J0D01*
G01*
X284012500Y-102537500D02*
G75*
G03*
X283512500Y-103037500I0J-500000D01*
G01*
X78725000Y-54125000D02*
G75*
G03*
X79225000Y-54625000I500000J0D01*
G01*
X184037500Y33725000D02*
X184037500Y36189478D01*
X231125000Y-54125000D02*
G75*
G03*
X231625000Y-54625000I500000J0D01*
G01*
X174475000Y-54625000D02*
X187475000Y-54625000D01*
X222100000Y12050000D02*
X235100000Y12050000D01*
X41125000Y26050000D02*
G75*
G03*
X40625000Y25550000I0J-500000D01*
G01*
X284012500Y-21575000D02*
G75*
G03*
X283512500Y-22075000I0J-500000D01*
G01*
X161281249Y-97775000D02*
X148281250Y-97775000D01*
X364475000Y-6500000D02*
G75*
G03*
X364975000Y-7000000I500000J0D01*
G01*
X88250000Y-35075000D02*
G75*
G03*
X88750000Y-35575000I500000J0D01*
G01*
X268937499Y-49850000D02*
G75*
G03*
X269237499Y-50150001I300001J0D01*
G01*
X284012500Y-54625000D02*
X297012500Y-54625000D01*
X179237499Y-59674999D02*
G75*
G03*
X178737499Y-60175000I1J-500001D01*
G01*
X141137500Y-59675000D02*
X154137500Y-59675000D01*
X297512500Y-41125000D02*
G75*
G03*
X297012500Y-40625000I-500000J0D01*
G01*
X54625000Y6500000D02*
X54625000Y-6500000D01*
X158900000Y-35575000D02*
G75*
G03*
X159400000Y-35075000I0J500000D01*
G01*
X222100000Y-35575000D02*
X235100000Y-35575000D01*
X160187500Y26050000D02*
G75*
G03*
X159687500Y25550000I0J-500000D01*
G01*
X378037478Y36189478D02*
G75*
G03*
X377448013Y36681405I-499978J22D01*
G01*
X340374998Y-98274999D02*
X340374998Y-111274999D01*
X345925000Y-73675000D02*
X358925000Y-73675000D01*
X77787500Y-122739477D02*
X77787500Y-120274999D01*
X21575000Y12550000D02*
G75*
G03*
X22075000Y12050000I500000J0D01*
G01*
X307325000Y-22075000D02*
X307325000Y-35075000D01*
X364475000Y-22075000D02*
X364475000Y-35075000D01*
X241235287Y-118968549D02*
G75*
G03*
X235239714Y-118968547I-2997787J-1806451D01*
G01*
X284012500Y-59675000D02*
G75*
G03*
X283512500Y-60175000I0J-500000D01*
G01*
X121587500Y-60175000D02*
X121587500Y-73175000D01*
X28735313Y-118968533D02*
G75*
G03*
X31047868Y-120274999I2312587J1393533D01*
G01*
X246355748Y-75174999D02*
X246355748Y-73975000D01*
X270318700Y-42212000D02*
G75*
G03*
X269818749Y-41712000I-500000J0D01*
G01*
X68912500Y-79225000D02*
G75*
G03*
X68412500Y-78725000I-500000J0D01*
G01*
X103037500Y12050000D02*
X116037500Y12050000D01*
X377448018Y36681375D02*
G75*
G03*
X375643764Y35459375I483182J-2656375D01*
G01*
X270318748Y-72087999D02*
X270318749Y-66088000D01*
D11*
X241236998Y-35575000D02*
X241149998Y-35575000D01*
D10*
X168925000Y-41125000D02*
G75*
G03*
X168424999Y-40625000I-500000J0D01*
G01*
X93012500Y-92225000D02*
G75*
G03*
X93512499Y-92725000I500000J0D01*
G01*
X188762500Y-78725000D02*
G75*
G03*
X188262500Y-79225000I0J-500000D01*
G01*
X364174998Y-65588000D02*
X362974999Y-65588000D01*
X21575000Y-6500000D02*
G75*
G03*
X22075000Y-7000000I500000J0D01*
G01*
X154637500Y6500000D02*
G75*
G03*
X154137500Y7000000I-500000J0D01*
G01*
X314037500Y-122739477D02*
X314037500Y-120274999D01*
X254150000Y-7000000D02*
G75*
G03*
X254650000Y-6500000I0J500000D01*
G01*
X339875000Y-92725000D02*
G75*
G03*
X340375000Y-92225000I0J500000D01*
G01*
X307825000Y-78725000D02*
X320825000Y-78725000D01*
X173187500Y-7000000D02*
G75*
G03*
X173687500Y-6500000I0J500000D01*
G01*
X-4618751Y-92225000D02*
G75*
G03*
X-4118750Y-92725001I500001J0D01*
G01*
X136375000Y-40625000D02*
X149375000Y-40625000D01*
X263231749Y-72888000D02*
X263231749Y-75174999D01*
X78725000Y25550000D02*
X78725000Y12550000D01*
X91581750Y-100775050D02*
G75*
G03*
X91781750Y-100575000I-50J200050D01*
G01*
X107800000Y-97775000D02*
G75*
G03*
X107300000Y-98275001I0J-500000D01*
G01*
X30312499Y-92724998D02*
G75*
G03*
X30812498Y-92224999I1J499998D01*
G01*
X126062500Y-79225000D02*
X126062500Y-92225000D01*
X348735287Y-118968549D02*
G75*
G03*
X342739714Y-118968547I-2997787J-1806451D01*
G01*
X197000000Y12050000D02*
G75*
G03*
X197500000Y12550000I0J500000D01*
G01*
X326875000Y26050000D02*
G75*
G03*
X326375000Y25550000I0J-500000D01*
G01*
X7000000Y6500000D02*
G75*
G03*
X6499999Y7000000I-500000J0D01*
G01*
X340375000Y25550000D02*
G75*
G03*
X339875000Y26050000I-500000J0D01*
G01*
X-3531750Y-94225000D02*
G75*
G03*
X-3031750Y-94725000I500001J1D01*
G01*
X365475001Y-110187999D02*
X365475001Y-104187999D01*
X364474999Y-49012000D02*
X364474999Y-65287999D01*
X40625000Y-54125000D02*
G75*
G03*
X41125000Y-54625000I500000J0D01*
G01*
X362974999Y-72588000D02*
X364174998Y-72588000D01*
X160187500Y7000000D02*
X173187500Y7000000D01*
X145112500Y-79225000D02*
G75*
G03*
X144612499Y-78725000I-500000J0D01*
G01*
X117324999Y-40625000D02*
X130324999Y-40625000D01*
X147581250Y-100775000D02*
X146543250Y-100775001D01*
X263231801Y-75174999D02*
G75*
G03*
X263731749Y-75674999I499999J-1D01*
G01*
X107800000Y-35575000D02*
X120799999Y-35575000D01*
X326375000Y6500000D02*
X326375000Y-6500000D01*
X163219250Y-109475000D02*
X163219250Y-113275000D01*
X379975001Y-86812002D02*
G75*
G03*
X380475002Y-86312000I-1J500002D01*
G01*
X154137500Y12050000D02*
G75*
G03*
X154637500Y12550000I0J500000D01*
G01*
X40337500Y-111275001D02*
X40337499Y-98275001D01*
X259412500Y-103037500D02*
X259412500Y-116037500D01*
X178737499Y-60175000D02*
X178737499Y-73175000D01*
X216049999Y-6999999D02*
G75*
G03*
X216549999Y-6500000I1J499999D01*
G01*
X112562500Y-78725000D02*
G75*
G03*
X112062500Y-79225000I0J-500000D01*
G01*
X364975000Y-7000000D02*
X377975000Y-7000000D01*
X269731749Y-75675049D02*
G75*
G03*
X270231749Y-75174999I-49J500049D01*
G01*
X258912500Y-116537500D02*
G75*
G03*
X259412500Y-116037500I0J500000D01*
G01*
X365475001Y-110187999D02*
G75*
G03*
X365975001Y-110687999I499999J-1D01*
G01*
X183500000Y-22075000D02*
X183500000Y-35075000D01*
X314911999Y-113775000D02*
G75*
G03*
X315412000Y-113274999I1J500000D01*
G01*
X107300000Y-98275001D02*
X107300000Y-111275001D01*
X348735313Y-118968533D02*
G75*
G03*
X351047868Y-120274999I2312587J1393533D01*
G01*
X364475000Y-35075000D02*
G75*
G03*
X364975000Y-35575000I500000J0D01*
G01*
X365975001Y-79811999D02*
X366975001Y-79811999D01*
X92725000Y6500000D02*
X92725000Y-6500000D01*
X338787998Y-113774998D02*
G75*
G03*
X339287998Y-113275000I2J499998D01*
G01*
X174443749Y-98774999D02*
X163719250Y-98775000D01*
X136235313Y-118968533D02*
G75*
G03*
X138547868Y-120274999I2312587J1393533D01*
G01*
X192965933Y-120275028D02*
G75*
G03*
X189831238Y-122009374I-33J-3699972D01*
G01*
D11*
X265612999Y-37075000D02*
X265612998Y-36074999D01*
D10*
X159687500Y12550000D02*
G75*
G03*
X160187500Y12050000I500000J0D01*
G01*
X193025000Y-54125000D02*
G75*
G03*
X193525000Y-54625000I500000J0D01*
G01*
X122087500Y7000000D02*
X135087500Y7000000D01*
X31047867Y33725000D02*
X72259067Y33725000D01*
X308509067Y-120274999D02*
X243547867Y-120274999D01*
X299215933Y33725000D02*
X340427133Y33725000D01*
X121587500Y25550000D02*
X121587500Y12550000D01*
X11762500Y-111275001D02*
X11762500Y-98275001D01*
X241150000Y26050000D02*
X254150000Y26050000D01*
X270531749Y-64150000D02*
X270818749Y-64150000D01*
X377448009Y-123231426D02*
G75*
G03*
X378037500Y-122739477I89491J491926D01*
G01*
X317437523Y-122739477D02*
G75*
G03*
X318026987Y-123231404I499977J-23D01*
G01*
X321325000Y-41125000D02*
X321325000Y-54125000D01*
X92725000Y6500000D02*
G75*
G03*
X92225000Y7000000I-500000J0D01*
G01*
X79225000Y12050000D02*
X92225000Y12050000D01*
X231125000Y-41125000D02*
X231125000Y-54125000D01*
X339287999Y-112075000D02*
X339287998Y-113274999D01*
X244625000Y-54625000D02*
G75*
G03*
X245125000Y-54125000I0J500000D01*
G01*
X60150000Y-113775000D02*
G75*
G03*
X60650000Y-113275001I0J500000D01*
G01*
X264962500Y7000000D02*
X277962500Y7000000D01*
X378474999Y-73174999D02*
X378474998Y-41125000D01*
X35575000Y6500000D02*
X35575000Y-6500000D01*
X41125000Y26050000D02*
X54125000Y26050000D01*
X345425000Y12550000D02*
G75*
G03*
X345925000Y12050000I500000J0D01*
G01*
X35862500Y-79225000D02*
X35862500Y-92225000D01*
X116537500Y6500000D02*
X116537500Y-6500000D01*
X297512500Y6500000D02*
X297512500Y-6500000D01*
X179237499Y-59675000D02*
X192237499Y-59675000D01*
X35575000Y6500000D02*
G75*
G03*
X35075000Y7000000I-500000J0D01*
G01*
X54912500Y-79225000D02*
X54912500Y-92225000D01*
X245412500Y-116037500D02*
G75*
G03*
X245912500Y-116537500I500000J0D01*
G01*
X315411999Y-112075000D02*
X315411999Y-113274999D01*
X372509067Y33725028D02*
G75*
G03*
X375643763Y35459375I33J3699972D01*
G01*
X240650000Y6500000D02*
X240650000Y-6500000D01*
X81187500Y-120274999D02*
X81187500Y-122739477D01*
X183499999Y-98274999D02*
X183499999Y-111274999D01*
X13643749Y-73675050D02*
G75*
G03*
X14143750Y-73174999I-49J500050D01*
G01*
X103037500Y-59675000D02*
G75*
G03*
X102537500Y-60175000I0J-500000D01*
G01*
X183999999Y-97774999D02*
G75*
G03*
X183499999Y-98274999I1J-500001D01*
G01*
X147781250Y-98275000D02*
X147781250Y-100575001D01*
X359425000Y6500000D02*
X359425000Y-6500000D01*
X98281750Y-113775050D02*
G75*
G03*
X98781750Y-113275000I-50J500050D01*
G01*
X268437499Y-40625000D02*
X255437498Y-40625000D01*
X76343750Y-98275000D02*
X76343750Y-100575001D01*
X93512499Y-78725000D02*
X106512499Y-78725000D01*
X122087500Y7000000D02*
G75*
G03*
X121587500Y6500000I0J-500000D01*
G01*
X116537500Y-60175000D02*
X116537500Y-73175000D01*
X332288001Y-113274999D02*
G75*
G03*
X332787998Y-113774999I499999J-1D01*
G01*
X-4618751Y-98274999D02*
X-4618751Y-111274999D01*
X277962500Y12050000D02*
G75*
G03*
X278462500Y12550000I0J500000D01*
G01*
X212075000Y-54125000D02*
G75*
G03*
X212575000Y-54625000I500000J0D01*
G01*
X358925000Y-7000000D02*
G75*
G03*
X359425000Y-6500000I0J500000D01*
G01*
X135587500Y-60175000D02*
X135587500Y-73175000D01*
X140637500Y6500000D02*
X140637500Y-6500000D01*
X320825000Y-54625000D02*
G75*
G03*
X321325000Y-54125000I0J500000D01*
G01*
X54625000Y6500000D02*
G75*
G03*
X54125000Y7000000I-500000J0D01*
G01*
X26844249Y-94725049D02*
G75*
G03*
X27344249Y-94225000I-49J500049D01*
G01*
X20427133Y-120275027D02*
G75*
G03*
X22739712Y-118968547I-33J2700027D01*
G01*
X254937500Y-54125000D02*
G75*
G03*
X255437498Y-54625000I500000J0D01*
G01*
X284012500Y-7000000D02*
X297012500Y-7000000D01*
X284012500Y26050000D02*
G75*
G03*
X283512500Y25550000I0J-500000D01*
G01*
X326375000Y-22075000D02*
X326375000Y-35075000D01*
X-4168763Y35459375D02*
G75*
G03*
X-5973010Y36681404I-2287482J-1434377D01*
G01*
X20844249Y-94725000D02*
X26844249Y-94725000D01*
X264462500Y12550000D02*
G75*
G03*
X264962500Y12050000I500000J0D01*
G01*
X11762499Y-98275001D02*
G75*
G03*
X11262500Y-97775001I-499999J1D01*
G01*
X239355801Y-75174999D02*
G75*
G03*
X239855749Y-75674999I499999J-1D01*
G01*
X233506300Y-88424999D02*
G75*
G03*
X233306250Y-88225000I-200000J-1D01*
G01*
X297012500Y-7000000D02*
G75*
G03*
X297512500Y-6500000I0J500000D01*
G01*
X239855749Y-75674999D02*
X245855748Y-75674999D01*
X375775000Y-103487995D02*
X375775001Y-102449999D01*
X41125000Y-54625000D02*
X54125000Y-54625000D01*
X78725000Y6500000D02*
X78725000Y-6500000D01*
X107800000Y-111775001D02*
X127943749Y-111774999D01*
X79225000Y26050000D02*
G75*
G03*
X78725000Y25550000I0J-500000D01*
G01*
X107299999Y-111275001D02*
G75*
G03*
X107800000Y-111775001I500001J1D01*
G01*
X155424999Y-54625000D02*
X168424999Y-54625000D01*
X6999999Y-22075000D02*
X6999999Y-35075000D01*
X135875000Y-54125000D02*
G75*
G03*
X136375000Y-54625000I500000J0D01*
G01*
X140637500Y-6500000D02*
G75*
G03*
X141137500Y-7000000I500000J0D01*
G01*
X73175000Y12050000D02*
G75*
G03*
X73675000Y12550000I0J500000D01*
G01*
D11*
X241736999Y-37075000D02*
X241736998Y-36074999D01*
D10*
X43506249Y-111774999D02*
X53450000Y-111775000D01*
X-4118751Y-92725000D02*
X-3831750Y-92725000D01*
X307825000Y-59675000D02*
X320825000Y-59675000D01*
X278462500Y-103037500D02*
G75*
G03*
X277962500Y-102537500I-500000J0D01*
G01*
X270818749Y-64150049D02*
G75*
G03*
X271318749Y-63650000I-49J500049D01*
G01*
X271318700Y-50650000D02*
G75*
G03*
X270818749Y-50150000I-500000J0D01*
G01*
X7500000Y14800000D02*
G75*
G03*
X8000000Y15300000I0J500000D01*
G01*
X367174997Y-102450002D02*
G75*
G03*
X366975002Y-102250003I-199997J2D01*
G01*
X145112499Y-79225000D02*
X145112499Y-92225000D01*
X264962500Y-116537500D02*
X277962500Y-116537500D01*
X326375000Y-41125000D02*
X326375000Y-54125000D01*
X364474999Y-41125000D02*
X364474999Y-41412000D01*
X54625000Y-41125000D02*
X54625000Y-54125000D01*
X122087500Y12050000D02*
X135087500Y12050000D01*
X112062500Y-79225000D02*
X112062500Y-92225000D01*
X-9962500Y33725000D02*
G75*
G03*
X-6562500Y33725000I1700000J0D01*
G01*
X11262500Y-54625000D02*
G75*
G03*
X11762500Y-54125000I0J500000D01*
G01*
X235600000Y6500000D02*
G75*
G03*
X235100000Y7000000I-500000J0D01*
G01*
X138547867Y33725000D02*
X178509067Y33725000D01*
X21575000Y25550000D02*
X21575000Y12550000D01*
X339874998Y-111774997D02*
G75*
G03*
X340374997Y-111275000I2J499997D01*
G01*
X-5973012Y36681405D02*
G75*
G03*
X-6562501Y36189479I-89452J-491971D01*
G01*
X235099999Y-111774999D02*
G75*
G03*
X235599999Y-111274999I1J499999D01*
G01*
D11*
X265612981Y-36074999D02*
G75*
G03*
X265466551Y-35721446I-500281J-101D01*
G01*
D10*
X365975001Y-79812001D02*
G75*
G03*
X365475001Y-80311999I-1J-499999D01*
G01*
X-1737500Y-40625000D02*
G75*
G03*
X-2237500Y-41125000I1J-500001D01*
G01*
X264962500Y-97487500D02*
X277962500Y-97487500D01*
X31100000Y-35075000D02*
G75*
G03*
X31600000Y-35575000I500000J0D01*
G01*
X103037500Y-59675000D02*
X116037500Y-59675000D01*
X303062500Y26050000D02*
G75*
G03*
X302562500Y25550000I0J-500000D01*
G01*
X364975000Y-21575000D02*
G75*
G03*
X364475000Y-22075000I0J-500000D01*
G01*
X60175000Y26050000D02*
X73175000Y26050000D01*
X173687500Y-60175000D02*
G75*
G03*
X173187500Y-59675000I-500000J0D01*
G01*
X277962500Y-97487500D02*
G75*
G03*
X278462500Y-96987500I0J500000D01*
G01*
X302562500Y-6500000D02*
G75*
G03*
X303062500Y-7000000I500000J0D01*
G01*
X217337500Y-59675000D02*
G75*
G03*
X216837500Y-60175000I0J-500000D01*
G01*
X150662500Y-78725000D02*
X163662500Y-78725000D01*
X73675000Y25550000D02*
G75*
G03*
X73175000Y26050000I-500000J0D01*
G01*
X340375000Y-79225000D02*
X340375000Y-92225000D01*
X22075000Y26050000D02*
X35075000Y26050000D01*
X139343250Y-99275000D02*
X139343250Y-113275000D01*
X145400000Y-35075000D02*
G75*
G03*
X145900000Y-35575000I500000J0D01*
G01*
X120799999Y-35574999D02*
G75*
G03*
X121299999Y-35075000I1J499999D01*
G01*
X69699999Y-21574999D02*
G75*
G03*
X69199999Y-22075000I1J-500001D01*
G01*
X188262500Y-79225000D02*
X188262500Y-92225000D01*
X121587500Y12550000D02*
G75*
G03*
X122087500Y12050000I500000J0D01*
G01*
X322965933Y-120275028D02*
G75*
G03*
X319831238Y-122009374I-33J-3699972D01*
G01*
X92725000Y-41125000D02*
G75*
G03*
X92225000Y-40625000I-500000J0D01*
G01*
X19193749Y-98274999D02*
X19193749Y-111274999D01*
X211787500Y-60175000D02*
G75*
G03*
X211287500Y-59675000I-500000J0D01*
G01*
X160187500Y7000000D02*
G75*
G03*
X159687500Y6500000I0J-500000D01*
G01*
X3768249Y-92724999D02*
G75*
G03*
X3468249Y-93024998I1J-300001D01*
G01*
X90343750Y-100575001D02*
X90343750Y-98275000D01*
X345925000Y-92725000D02*
X358925000Y-92725000D01*
X31600000Y-21575000D02*
G75*
G03*
X31100000Y-22075000I0J-500000D01*
G01*
X307824999Y-97774999D02*
G75*
G03*
X307324999Y-98274999I1J-500001D01*
G01*
X233506300Y-92225000D02*
G75*
G03*
X234006250Y-92725000I500000J0D01*
G01*
X206525000Y-54625000D02*
G75*
G03*
X207025000Y-54125000I0J500000D01*
G01*
X19193801Y-111274999D02*
G75*
G03*
X19693749Y-111774999I499999J-1D01*
G01*
X40625000Y-6500000D02*
G75*
G03*
X41125000Y-7000000I500000J0D01*
G01*
X375643787Y-122009359D02*
G75*
G03*
X372509067Y-120274999I-3134687J-1965641D01*
G01*
X379975001Y-86811999D02*
X375975001Y-86811999D01*
D11*
X265466552Y-35721445D02*
G75*
G03*
X265112998Y-35575000I-353552J-353555D01*
G01*
D10*
X116825000Y-54125000D02*
G75*
G03*
X117324999Y-54625000I500000J0D01*
G01*
X149875000Y-41125000D02*
G75*
G03*
X149375000Y-40625000I-500000J0D01*
G01*
X26837500Y-73675000D02*
X39837500Y-73675000D01*
X76343750Y-109475000D02*
X76343750Y-111275000D01*
X131612499Y-78725000D02*
X144612499Y-78725000D01*
X116537500Y25550000D02*
G75*
G03*
X116037500Y26050000I-500000J0D01*
G01*
X83487500Y-73175000D02*
G75*
G03*
X83987500Y-73675000I500000J0D01*
G01*
X-6500000Y7000000D02*
X6499999Y7000000D01*
X364975000Y7000000D02*
X377975000Y7000000D01*
X77787500Y33725000D02*
X77787500Y36189478D01*
X145900000Y-21575000D02*
X158900000Y-21575000D01*
X164950000Y-21575000D02*
G75*
G03*
X164450000Y-22075000I0J-500000D01*
G01*
X364475001Y-72888000D02*
G75*
G03*
X364174998Y-72587999I-300001J0D01*
G01*
X60175000Y-54625000D02*
X73175000Y-54625000D01*
X262093748Y-72588049D02*
G75*
G03*
X261793749Y-72887999I-48J-299951D01*
G01*
X92225000Y-54625000D02*
G75*
G03*
X92725000Y-54125000I0J500000D01*
G01*
X365475001Y-86311999D02*
X365475001Y-80311999D01*
X283512500Y-54125000D02*
G75*
G03*
X284012500Y-54625000I500000J0D01*
G01*
X212575000Y-40625000D02*
X225575000Y-40625000D01*
X22075000Y-40625000D02*
G75*
G03*
X21575000Y-41125000I0J-500000D01*
G01*
X345925000Y12050000D02*
X358925000Y12050000D01*
X76143750Y-100775000D02*
X75143749Y-100775000D01*
X147781299Y-109475000D02*
G75*
G03*
X147581250Y-109275001I-199999J0D01*
G01*
X326875000Y-54625000D02*
X339875000Y-54625000D01*
X164950000Y-35575000D02*
X177950000Y-35575000D01*
X-4618750Y-60175000D02*
X-4618751Y-73174999D01*
X69699999Y-21575000D02*
X82699999Y-21575000D01*
X64937500Y-59675000D02*
G75*
G03*
X64437500Y-60175000I0J-500000D01*
G01*
X315711999Y-111774999D02*
G75*
G03*
X315411999Y-112074999I1J-300001D01*
G01*
X184000000Y12050000D02*
X197000000Y12050000D01*
X211287500Y-73675000D02*
G75*
G03*
X211787500Y-73175000I0J500000D01*
G01*
X178450000Y-22075000D02*
X178450000Y-35075000D01*
X201762500Y-92725000D02*
G75*
G03*
X202262500Y-92225000I0J500000D01*
G01*
X135587500Y-60175000D02*
G75*
G03*
X135087500Y-59675000I-500000J0D01*
G01*
X45887500Y-59675000D02*
G75*
G03*
X45387500Y-60175000I0J-500000D01*
G01*
X69200000Y-35075000D02*
G75*
G03*
X69699999Y-35575000I500000J0D01*
G01*
X222100000Y-7000000D02*
X235100000Y-7000000D01*
X146543250Y-109275049D02*
G75*
G03*
X146343249Y-109474999I-50J-199951D01*
G01*
X345925000Y-40625000D02*
X358925000Y-40625000D01*
X240650000Y25550000D02*
X240650000Y12550000D01*
X235600000Y-22075000D02*
G75*
G03*
X235100000Y-21575000I-500000J0D01*
G01*
X13643749Y-59675000D02*
X-4118751Y-59675000D01*
X246655748Y-73675048D02*
G75*
G03*
X246355748Y-73975000I-48J-299952D01*
G01*
X257318749Y-54925000D02*
X257318749Y-59375000D01*
X107300000Y-22075000D02*
X107300000Y-35075000D01*
X375643739Y-122009389D02*
G75*
G03*
X377448013Y-123231404I2287461J1434389D01*
G01*
X321325000Y-79225000D02*
G75*
G03*
X320825000Y-78725000I-500000J0D01*
G01*
X283512500Y-41125000D02*
X283512500Y-54125000D01*
X75143749Y-109275000D02*
X76143750Y-109275001D01*
X122087500Y-7000000D02*
X135087500Y-7000000D01*
X-9962500Y-122738330D02*
X-9962500Y-120275000D01*
X127927133Y-120274999D02*
X86715933Y-120274999D01*
X375775005Y-88049996D02*
G75*
G03*
X375975000Y-88249995I199995J-4D01*
G01*
X358925000Y12050000D02*
G75*
G03*
X359425000Y12550000I0J500000D01*
G01*
X364975000Y26050000D02*
G75*
G03*
X364475000Y25550000I0J-500000D01*
G01*
X345425000Y-79225000D02*
X345425000Y-92225000D01*
X40625000Y25550000D02*
X40625000Y12550000D01*
X102250000Y-22075000D02*
X102250000Y-35075000D01*
X345425000Y-92225000D02*
G75*
G03*
X345925000Y-92725000I500000J0D01*
G01*
X255437498Y-40624998D02*
G75*
G03*
X254937498Y-41125000I2J-500002D01*
G01*
X116537500Y6500000D02*
G75*
G03*
X116037500Y7000000I-500000J0D01*
G01*
X19693749Y-97774949D02*
G75*
G03*
X19193749Y-98274999I51J-500051D01*
G01*
X154637500Y25550000D02*
G75*
G03*
X154137500Y26050000I-500000J0D01*
G01*
X216549999Y6500000D02*
X216549999Y-6500000D01*
X268937499Y-41412000D02*
G75*
G03*
X269237499Y-41712001I300001J0D01*
G01*
X367175002Y-87012003D02*
X367175001Y-88049999D01*
X378475001Y-101749999D02*
X378475001Y-88749999D01*
X380475001Y-110187999D02*
X380475001Y-104187999D01*
X234006250Y-78724950D02*
G75*
G03*
X233506250Y-79225000I50J-500050D01*
G01*
X366975002Y-103688001D02*
G75*
G03*
X367175001Y-103487999I-2J200001D01*
G01*
X377975000Y12050000D02*
G75*
G03*
X378475000Y12550000I0J500000D01*
G01*
X342739688Y32418534D02*
G75*
G03*
X340427133Y33725000I-2312588J-1393534D01*
G01*
X107012499Y-79225000D02*
X107012499Y-92225000D01*
X270231748Y-65806164D02*
X270231749Y-64450000D01*
X226075000Y-41125000D02*
X226075000Y-54125000D01*
X8881249Y-97774999D02*
X-4118751Y-97774998D01*
X339875000Y-54625000D02*
G75*
G03*
X340375000Y-54125000I0J500000D01*
G01*
X303062500Y7000000D02*
G75*
G03*
X302562500Y6500000I0J-500000D01*
G01*
X345925000Y-40625000D02*
G75*
G03*
X345425000Y-41125000I0J-500000D01*
G01*
X378475000Y25550000D02*
X378475000Y12550000D01*
X197500000Y25550000D02*
X197500000Y12550000D01*
X55412500Y-78725000D02*
X68412500Y-78725000D01*
X40337500Y-60175000D02*
X40337500Y-73175000D01*
X-3531750Y-93024999D02*
G75*
G03*
X-3831751Y-92725000I-300000J-1D01*
G01*
X264962500Y-7000000D02*
X277962500Y-7000000D01*
X358925000Y-35575000D02*
G75*
G03*
X359425000Y-35075000I0J500000D01*
G01*
X163019249Y-100774948D02*
G75*
G03*
X163219248Y-100575001I51J199948D01*
G01*
X64149999Y-22075000D02*
G75*
G03*
X63650000Y-21575001I-499999J0D01*
G01*
X225575000Y-54625000D02*
G75*
G03*
X226075000Y-54125000I0J500000D01*
G01*
X362974999Y-48712000D02*
X364174998Y-48712000D01*
X74462499Y-92725000D02*
X87462499Y-92725000D01*
X73962500Y-92225000D02*
G75*
G03*
X74462499Y-92725000I500000J0D01*
G01*
X93012499Y-79225000D02*
X93012499Y-92225000D01*
X126850000Y-35575000D02*
X139850000Y-35575000D01*
D11*
X272612997Y-36075000D02*
X272612993Y-37075000D01*
D10*
X178509067Y33725028D02*
G75*
G03*
X181643763Y35459375I33J3699972D01*
G01*
X345925000Y7000000D02*
X358925000Y7000000D01*
X35075000Y-7000000D02*
G75*
G03*
X35575000Y-6500000I0J500000D01*
G01*
X91781800Y-113275000D02*
G75*
G03*
X92281750Y-113775000I500000J0D01*
G01*
X-1034066Y-120274999D02*
G75*
G03*
X-4168762Y-122009374I0J-3700000D01*
G01*
X141137500Y7000000D02*
X154137500Y7000000D01*
X40625000Y6500000D02*
X40625000Y-6500000D01*
X97487500Y-60175000D02*
X97487500Y-73175000D01*
X326375000Y-35075000D02*
G75*
G03*
X326875000Y-35575000I500000J0D01*
G01*
X39837500Y-73675000D02*
G75*
G03*
X40337500Y-73175000I0J500000D01*
G01*
X358925000Y-92725000D02*
G75*
G03*
X359425000Y-92225000I0J500000D01*
G01*
X102537500Y6500000D02*
X102537500Y-6500000D01*
X311643787Y-122009359D02*
G75*
G03*
X308509067Y-120274999I-3134687J-1965641D01*
G01*
X264962500Y-102537500D02*
X277962500Y-102537500D01*
X364474999Y-72888000D02*
X364474999Y-73174999D01*
X87962499Y-79225000D02*
X87962499Y-92225000D01*
X-2237500Y-41125000D02*
X-2237500Y-54125000D01*
X307824999Y-97774999D02*
X339874998Y-97775000D01*
X131612499Y-78724999D02*
G75*
G03*
X131112499Y-79225000I1J-500001D01*
G01*
X141137500Y-7000000D02*
X154137500Y-7000000D01*
X74943799Y-100575001D02*
G75*
G03*
X75143749Y-100775001I200001J1D01*
G01*
X198287500Y-59675000D02*
X211287500Y-59675000D01*
X283512500Y-73175000D02*
G75*
G03*
X284012500Y-73675000I500000J0D01*
G01*
X-9962500Y36188331D02*
G75*
G03*
X-10553407Y36679996I-499910J107D01*
G01*
X174475000Y-40625000D02*
G75*
G03*
X173975000Y-41125000I0J-500000D01*
G01*
X27644249Y-92725049D02*
G75*
G03*
X27344249Y-93024998I-49J-299951D01*
G01*
X146343250Y-100575001D02*
X146343250Y-99275000D01*
X36362500Y-92725000D02*
X49362500Y-92725000D01*
X222100000Y-21575000D02*
X235100000Y-21575000D01*
X351047867Y33725000D02*
X372509067Y33725000D01*
X184000000Y-35575000D02*
X197000000Y-35575000D01*
X378475002Y-88749999D02*
G75*
G03*
X377975002Y-88249998I-500002J-1D01*
G01*
X131112500Y-92225000D02*
G75*
G03*
X131612499Y-92725000I500000J0D01*
G01*
X130825000Y-41125000D02*
G75*
G03*
X130324999Y-40625000I-500000J0D01*
G01*
X284759067Y33725028D02*
G75*
G03*
X287893763Y35459375I33J3699972D01*
G01*
X197787500Y-60175000D02*
X197787500Y-73175000D01*
X326375000Y12550000D02*
G75*
G03*
X326875000Y12050000I500000J0D01*
G01*
X364975001Y-102249999D02*
X366975001Y-102249999D01*
X326875000Y-40625000D02*
X339875000Y-40625000D01*
X126062500Y-79225000D02*
G75*
G03*
X125562500Y-78725000I-500000J0D01*
G01*
X188262500Y-92225000D02*
G75*
G03*
X188762500Y-92725000I500000J0D01*
G01*
X340375000Y6500000D02*
X340375000Y-6500000D01*
X197500000Y-22075000D02*
X197500000Y-35075000D01*
X372509067Y-120274999D02*
X351047867Y-120274999D01*
X270531749Y-64150049D02*
G75*
G03*
X270231749Y-64450000I-49J-299951D01*
G01*
X90543750Y-109274950D02*
G75*
G03*
X90343750Y-109475000I50J-200050D01*
G01*
X297512500Y6500000D02*
G75*
G03*
X297012500Y7000000I-500000J0D01*
G01*
X154637500Y25550000D02*
X154637500Y12550000D01*
X284012500Y12050000D02*
X297012500Y12050000D01*
X126850000Y-21575000D02*
G75*
G03*
X126350000Y-22075000I0J-500000D01*
G01*
X221600000Y-6500000D02*
G75*
G03*
X222100000Y-7000000I500000J0D01*
G01*
X12049999Y-22075000D02*
X12049999Y-35075000D01*
X202549999Y6500000D02*
X202549999Y-6500000D01*
X212075000Y-41125000D02*
X212075000Y-54125000D01*
X159687500Y-6500000D02*
G75*
G03*
X160187500Y-7000000I500000J0D01*
G01*
X268937498Y-41412000D02*
X268937499Y-41125000D01*
X283512500Y12550000D02*
G75*
G03*
X284012500Y12050000I500000J0D01*
G01*
X278462500Y-103037500D02*
X278462500Y-116037500D01*
X147781249Y-109475000D02*
X147781250Y-111275000D01*
X289698018Y36681375D02*
G75*
G03*
X287893764Y35459375I483182J-2656375D01*
G01*
X216837500Y-73175000D02*
G75*
G03*
X217337500Y-73675000I500000J0D01*
G01*
X240650000Y-6500000D02*
G75*
G03*
X241150000Y-7000000I500000J0D01*
G01*
X22075000Y12050000D02*
X35075000Y12050000D01*
X320825000Y-73675000D02*
G75*
G03*
X321325000Y-73175000I0J500000D01*
G01*
X139843250Y-113775000D02*
X145843250Y-113775000D01*
X26337500Y-73175000D02*
G75*
G03*
X26837500Y-73675000I500000J0D01*
G01*
X50150000Y-22075000D02*
X50150000Y-35075000D01*
X-6562499Y-122739477D02*
G75*
G03*
X-5973013Y-123231404I500037J44D01*
G01*
X345425000Y-54125000D02*
G75*
G03*
X345925000Y-54625000I500000J0D01*
G01*
X273699999Y-22075001D02*
X273699999Y-35075000D01*
D11*
X248236989Y-37575000D02*
X242236997Y-37575000D01*
D10*
X307825000Y-35575000D02*
X320825000Y-35575000D01*
X364975000Y-35575000D02*
X377975000Y-35575000D01*
X101750000Y-35575000D02*
G75*
G03*
X102250000Y-35075000I0J500000D01*
G01*
X290287500Y33725000D02*
X290287500Y36189478D01*
X187975000Y-41125000D02*
X187975000Y-54125000D01*
X35075000Y-54625000D02*
G75*
G03*
X35575000Y-54125000I0J500000D01*
G01*
X230837500Y-60175000D02*
X230837500Y-73175000D01*
X321325000Y-60175000D02*
G75*
G03*
X320825000Y-59675000I-500000J0D01*
G01*
X268937498Y-49850000D02*
X268937498Y-49012000D01*
X340375000Y-22075000D02*
X340375000Y-35075000D01*
X141137500Y7000000D02*
G75*
G03*
X140637500Y6500000I0J-500000D01*
G01*
X21575000Y-41125000D02*
X21575000Y-54125000D01*
X297512500Y-60175000D02*
X297512500Y-73175000D01*
X345925000Y7000000D02*
G75*
G03*
X345425000Y6500000I0J-500000D01*
G01*
X79225000Y-54625000D02*
X92225000Y-54625000D01*
X307825000Y-40625000D02*
G75*
G03*
X307325000Y-41125000I0J-500000D01*
G01*
X264962500Y-83487500D02*
X277962500Y-83487500D01*
X364975000Y-21575000D02*
X377975000Y-21575000D01*
X216837500Y-60175000D02*
X216837500Y-73175000D01*
X192237499Y-73674999D02*
G75*
G03*
X192737499Y-73175000I1J499999D01*
G01*
X131112499Y-79225000D02*
X131112499Y-92225000D01*
X257318700Y-54925000D02*
G75*
G03*
X257018749Y-54625000I-300000J0D01*
G01*
X88750000Y-21575000D02*
G75*
G03*
X88250000Y-22075000I0J-500000D01*
G01*
X-6562500Y36189478D02*
X-6562500Y33725000D01*
X39837499Y-111774999D02*
G75*
G03*
X40337499Y-111275001I1J499999D01*
G01*
X22075000Y-7000000D02*
X35075000Y-7000000D01*
X359425000Y-22075000D02*
G75*
G03*
X358925000Y-21575000I-500000J0D01*
G01*
X-8000000Y15300000D02*
X-8000000Y28800000D01*
X26337500Y-60175000D02*
X26337500Y-73175000D01*
X230337500Y-73675000D02*
G75*
G03*
X230837500Y-73175000I0J500000D01*
G01*
X91781750Y-109475000D02*
X91781750Y-113275000D01*
X135587500Y25550000D02*
X135587500Y12550000D01*
X130324999Y-54624999D02*
G75*
G03*
X130824999Y-54125000I1J499999D01*
G01*
X236387499Y-73675000D02*
X239055749Y-73675000D01*
X92725000Y25550000D02*
X92725000Y12550000D01*
X68443749Y-113774999D02*
X74443749Y-113775000D01*
X169712500Y-78725000D02*
G75*
G03*
X169212500Y-79225000I0J-500000D01*
G01*
X27644249Y-92725000D02*
X30312499Y-92725000D01*
X307325000Y-79225000D02*
X307325000Y-92225000D01*
X79225000Y26050000D02*
X92225000Y26050000D01*
X57006299Y-98575001D02*
G75*
G03*
X57206249Y-98775001I200001J1D01*
G01*
X174475000Y-40625000D02*
X187475000Y-40625000D01*
X284012500Y7000000D02*
X297012500Y7000000D01*
X326875000Y-59675000D02*
G75*
G03*
X326375000Y-60175000I0J-500000D01*
G01*
X-6500000Y-21575000D02*
G75*
G03*
X-7000000Y-22075000I1J-500001D01*
G01*
X112562500Y-92725000D02*
X125562500Y-92725000D01*
X130239688Y32418534D02*
G75*
G03*
X127927133Y33725000I-2312588J-1393534D01*
G01*
X231625000Y-40625000D02*
G75*
G03*
X231125000Y-41125000I0J-500000D01*
G01*
X116037500Y-7000000D02*
G75*
G03*
X116537500Y-6500000I0J500000D01*
G01*
X174443749Y-113775049D02*
G75*
G03*
X174943749Y-113274998I-49J500049D01*
G01*
X307825000Y-73675000D02*
X320825000Y-73675000D01*
X74462499Y-78724999D02*
G75*
G03*
X73962499Y-79225000I1J-500001D01*
G01*
X331987998Y-111775000D02*
X315711999Y-111774999D01*
X53649999Y-113275001D02*
G75*
G03*
X54150000Y-113775001I500001J1D01*
G01*
X27344249Y-94225000D02*
X27344249Y-93024999D01*
X57006249Y-98575001D02*
X57006249Y-98274999D01*
X269237498Y-48712000D02*
X269818749Y-48712000D01*
X340375000Y-41125000D02*
X340375000Y-54125000D01*
X81187523Y-122739477D02*
G75*
G03*
X81776987Y-123231404I499977J-23D01*
G01*
X378475000Y6500000D02*
X378475000Y-6500000D01*
X359425000Y6500000D02*
G75*
G03*
X358925000Y7000000I-500000J0D01*
G01*
X103037500Y7000000D02*
G75*
G03*
X102537500Y6500000I0J-500000D01*
G01*
X26050000Y-22075000D02*
G75*
G03*
X25550000Y-21575000I-500000J0D01*
G01*
X296081213Y35459360D02*
G75*
G03*
X299215933Y33725000I3134687J1965640D01*
G01*
X90343700Y-98275000D02*
G75*
G03*
X89843750Y-97775000I-500000J0D01*
G01*
X102537500Y25550000D02*
X102537500Y12550000D01*
X87962500Y-79225000D02*
G75*
G03*
X87462499Y-78725000I-500000J0D01*
G01*
X135587500Y6500000D02*
X135587500Y-6500000D01*
X163662500Y-92725000D02*
G75*
G03*
X164162500Y-92225000I0J500000D01*
G01*
X139843250Y-98774949D02*
G75*
G03*
X139343249Y-99275001I50J-500051D01*
G01*
X163719250Y-98775048D02*
G75*
G03*
X163219248Y-99275000I-50J-499952D01*
G01*
X102537500Y-6500000D02*
G75*
G03*
X103037500Y-7000000I500000J0D01*
G01*
X307825000Y-78725000D02*
G75*
G03*
X307325000Y-79225000I0J-500000D01*
G01*
X98781750Y-113275000D02*
X98781750Y-99275000D01*
X146343250Y-113275000D02*
X146343250Y-109475000D01*
X41125000Y7000000D02*
X54125000Y7000000D01*
X-1737500Y-54625000D02*
X11262500Y-54625000D01*
X78437500Y-60175000D02*
G75*
G03*
X77937500Y-59675000I-500000J0D01*
G01*
X307825000Y-54625000D02*
X320825000Y-54625000D01*
X197500000Y6500000D02*
X197500000Y-6500000D01*
X78725000Y12550000D02*
G75*
G03*
X79225000Y12050000I500000J0D01*
G01*
X269818749Y-41712000D02*
X269237498Y-41712000D01*
X64437500Y-73175000D02*
G75*
G03*
X64937500Y-73675000I500000J0D01*
G01*
X207025000Y-41125000D02*
X207025000Y-54125000D01*
X197500000Y6500000D02*
G75*
G03*
X197000000Y7000000I-500000J0D01*
G01*
X294276991Y36681426D02*
G75*
G03*
X293687500Y36189478I-89491J-491926D01*
G01*
X163019249Y-100775000D02*
X161981250Y-100775000D01*
X184037500Y33725000D02*
G75*
G03*
X187437500Y33725000I1700000J0D01*
G01*
X364475001Y-49012000D02*
G75*
G03*
X364174998Y-48711999I-300001J0D01*
G01*
X359425000Y-79225000D02*
G75*
G03*
X358925000Y-78725000I-500000J0D01*
G01*
X145900000Y-21575000D02*
G75*
G03*
X145400000Y-22075000I0J-500000D01*
G01*
X197000000Y-35575000D02*
G75*
G03*
X197500000Y-35075000I0J500000D01*
G01*
X345925000Y26050000D02*
X358925000Y26050000D01*
X222100000Y7000000D02*
X235100000Y7000000D01*
X28735287Y-118968549D02*
G75*
G03*
X22739714Y-118968547I-2997787J-1806451D01*
G01*
X-6500000Y-7000000D02*
X6499999Y-7000000D01*
X59675000Y6500000D02*
X59675000Y-6500000D01*
X381437500Y36188331D02*
X381437500Y33725000D01*
X102537500Y-60175000D02*
X102537500Y-73175000D01*
X184037500Y-122739477D02*
X184037500Y-120274999D01*
X241150000Y26050000D02*
G75*
G03*
X240650000Y25550000I0J-500000D01*
G01*
X-8000000Y15300000D02*
G75*
G03*
X-7500001Y14799999I500000J-1D01*
G01*
X141137500Y-73675000D02*
X154137500Y-73675000D01*
X147781300Y-111275000D02*
G75*
G03*
X148281250Y-111775000I500000J0D01*
G01*
X135087500Y12050000D02*
G75*
G03*
X135587500Y12550000I0J500000D01*
G01*
X207812500Y-92725000D02*
X220812500Y-92725000D01*
X262093748Y-72588000D02*
X262931749Y-72588000D01*
X164950000Y-21575000D02*
X177950000Y-21575000D01*
X245125000Y-41125000D02*
X245125000Y-54125000D01*
X233000000Y-88225000D02*
X233306250Y-88225000D01*
X145400000Y-22075000D02*
X145400000Y-35075000D01*
X203049999Y12050000D02*
X216049999Y12050000D01*
D11*
X248236989Y-37574999D02*
G75*
G03*
X248736999Y-37075000I11J499999D01*
G01*
D10*
X127943749Y-97774999D02*
X107800000Y-97775001D01*
X146343299Y-99275000D02*
G75*
G03*
X145843249Y-98775001I-499999J0D01*
G01*
X78725000Y-6500000D02*
G75*
G03*
X79225000Y-7000000I500000J0D01*
G01*
X340375000Y25550000D02*
X340375000Y12550000D01*
X235099999Y-97774999D02*
X183999999Y-97774999D01*
X-7000000Y6500000D02*
X-7000000Y-6500000D01*
X2968249Y-94724999D02*
G75*
G03*
X3468249Y-94225000I1J499999D01*
G01*
X362474999Y-66088000D02*
X362474999Y-72088000D01*
X173187500Y12050000D02*
G75*
G03*
X173687500Y12550000I0J500000D01*
G01*
X45387500Y-60175000D02*
X45387500Y-73175000D01*
X-6500000Y-21575000D02*
X6499999Y-21575000D01*
X87462499Y-92724999D02*
G75*
G03*
X87962499Y-92225000I1J499999D01*
G01*
X60150000Y-98775001D02*
X57206249Y-98775001D01*
X76343700Y-109475000D02*
G75*
G03*
X76143750Y-109275000I-200000J0D01*
G01*
X235887499Y-60175000D02*
X235887499Y-73174999D01*
X203049999Y-35575000D02*
X216049999Y-35575000D01*
X83987500Y-59675000D02*
G75*
G03*
X83487500Y-60175000I0J-500000D01*
G01*
X154637500Y-60175000D02*
G75*
G03*
X154137500Y-59675000I-500000J0D01*
G01*
X169712500Y-92725000D02*
X182712500Y-92725000D01*
X326875000Y7000000D02*
G75*
G03*
X326375000Y6500000I0J-500000D01*
G01*
X193525000Y-40625000D02*
G75*
G03*
X193025000Y-41125000I0J-500000D01*
G01*
X263731749Y-75674999D02*
X269731749Y-75674999D01*
X11262500Y-97775001D02*
X8881249Y-97774999D01*
X364975000Y26050000D02*
X377975000Y26050000D01*
X339874998Y-111774999D02*
X339587999Y-111774999D01*
X160187500Y12050000D02*
X173187500Y12050000D01*
X235100000Y-35575000D02*
G75*
G03*
X235600000Y-35075000I0J500000D01*
G01*
X307324999Y-111274999D02*
X307324999Y-98274999D01*
X92281750Y-113775000D02*
X98281750Y-113775000D01*
X72259067Y-120274999D02*
X31047867Y-120274999D01*
X264462500Y6500000D02*
X264462500Y-6500000D01*
X161781250Y-111275000D02*
X161781250Y-109475000D01*
X197000000Y-7000000D02*
G75*
G03*
X197500000Y-6500000I0J500000D01*
G01*
X362974999Y-41712000D02*
G75*
G03*
X362475000Y-42211999I1J-500000D01*
G01*
X345925000Y-78725000D02*
X358925000Y-78725000D01*
X44600000Y-35575000D02*
G75*
G03*
X45100000Y-35075000I0J500000D01*
G01*
X338787998Y-113775000D02*
X332787998Y-113774999D01*
X326875000Y-59675000D02*
X339875000Y-59675000D01*
X22739713Y32418549D02*
G75*
G03*
X28735287Y32418549I2997787J1806451D01*
G01*
D12*
%TO.C,H1*%
X225500000Y-82225000D02*
X225500000Y-89225000D01*
X232000000Y-81725000D02*
X226000000Y-81725000D01*
X232000000Y-89725000D02*
X226000000Y-89725000D01*
X232500000Y-82225000D02*
X232500000Y-82725000D01*
X232500000Y-89225000D02*
X232500000Y-88725000D01*
X226000000Y-81725000D02*
G75*
G03*
X225500000Y-82225000I1J-500001D01*
G01*
X225500000Y-89225000D02*
G75*
G03*
X226000000Y-89725000I500001J1D01*
G01*
X232500000Y-82224998D02*
G75*
G03*
X232000000Y-81725000I-500000J-2D01*
G01*
X233000000Y-88225000D02*
G75*
G03*
X232500000Y-88725000I0J-500000D01*
G01*
X232000002Y-89725000D02*
G75*
G03*
X232500000Y-89225000I-2J500000D01*
G01*
X232500000Y-82725000D02*
G75*
G03*
X233000000Y-83225000I500000J0D01*
G01*
%TD*%
M02*
