%TF.GenerationSoftware,KiCad,Pcbnew,7.0.1*%
%TF.CreationDate,2023-03-27T00:24:38-04:00*%
%TF.ProjectId,3DP-FR4-plate-top-reset-cutout,3344502d-4652-4342-9d70-6c6174652d74,rev?*%
%TF.SameCoordinates,Original*%
%TF.FileFunction,Legend,Top*%
%TF.FilePolarity,Positive*%
%FSLAX46Y46*%
G04 Gerber Fmt 4.6, Leading zero omitted, Abs format (unit mm)*
G04 Created by KiCad (PCBNEW 7.0.1) date 2023-03-27 00:24:38*
%MOMM*%
%LPD*%
G01*
G04 APERTURE LIST*
%ADD10C,0.150000*%
%ADD11C,0.200000*%
%ADD12C,0.300000*%
G04 APERTURE END LIST*
D10*
X14000000Y-151000000D02*
X14500000Y-150500000D01*
X202500000Y-151000000D02*
X203000000Y-150500000D01*
X133500000Y-150500000D02*
X133000000Y-151000000D01*
X236000000Y-150500000D02*
X236000000Y-153000000D01*
X203000000Y-157000000D02*
X201500000Y-157000000D01*
X14500000Y-157500000D02*
X14500000Y-150500000D01*
X207500000Y-150500000D02*
X207500000Y-159000000D01*
X126500000Y-150500000D02*
X126500000Y-156500000D01*
X17000000Y-150500000D02*
X16500000Y-151000000D01*
X129000000Y-150500000D02*
X128500000Y-151000000D01*
X14500000Y-150500000D02*
X14000000Y-151000000D01*
X45500000Y-151000000D02*
X46000000Y-151500000D01*
X38500000Y-151000000D02*
X39000000Y-151500000D01*
X207000000Y-151000000D02*
X207500000Y-150500000D01*
X241000000Y-150500000D02*
X241500000Y-151000000D01*
X241000000Y-150500000D02*
X241000000Y-156000000D01*
X45500000Y-151000000D02*
X45000000Y-151500000D01*
X207500000Y-150500000D02*
X208000000Y-151000000D01*
X236000000Y-150500000D02*
X236500000Y-151000000D01*
X241000000Y-156000000D02*
X242000000Y-156000000D01*
X236000000Y-153000000D02*
X239000000Y-153000000D01*
X126500000Y-150500000D02*
X126000000Y-151000000D01*
X129000000Y-150500000D02*
X129000000Y-158500000D01*
X126500000Y-156500000D02*
X122500000Y-156500000D01*
X239000000Y-153000000D02*
X239000000Y-158000000D01*
X128500000Y-151000000D02*
X129000000Y-150500000D01*
X133500000Y-150500000D02*
X133500000Y-158500000D01*
X17000000Y-159500000D02*
X17000000Y-150500000D01*
X126000000Y-151000000D02*
X126500000Y-150500000D01*
X207500000Y-150500000D02*
X207000000Y-151000000D01*
X16500000Y-151000000D02*
X17000000Y-150500000D01*
X45500000Y-151000000D02*
X45500000Y-159500000D01*
X240500000Y-151000000D02*
X241000000Y-150500000D01*
X133500000Y-158500000D02*
X135000000Y-158500000D01*
X239000000Y-158000000D02*
X244000000Y-158000000D01*
X129000000Y-158500000D02*
X128500000Y-158500000D01*
X207500000Y-159000000D02*
X206500000Y-159000000D01*
X14500000Y-151000000D02*
X14500000Y-150500000D01*
X241000000Y-150500000D02*
X240500000Y-151000000D01*
X17000000Y-150500000D02*
X17500000Y-151000000D01*
X236000000Y-150500000D02*
X235500000Y-151000000D01*
X236500000Y-151000000D02*
X236000000Y-150500000D01*
X38500000Y-157000000D02*
X38500000Y-151000000D01*
X17000000Y-159500000D02*
X16500000Y-159500000D01*
X38500000Y-151000000D02*
X38000000Y-151500000D01*
X14500000Y-150500000D02*
X15000000Y-151000000D01*
X129000000Y-150500000D02*
X129500000Y-151000000D01*
X38500000Y-157000000D02*
X38000000Y-157000000D01*
X203000000Y-150500000D02*
X203000000Y-157000000D01*
X203000000Y-150500000D02*
X202500000Y-151000000D01*
X203000000Y-150500000D02*
X203500000Y-151000000D01*
X38000000Y-151500000D02*
X38500000Y-151000000D01*
X14500000Y-157500000D02*
X14000000Y-157500000D01*
X133500000Y-150500000D02*
X134000000Y-151000000D01*
X45500000Y-159500000D02*
X44500000Y-159500000D01*
X127000000Y-151000000D02*
X126500000Y-150500000D01*
D11*
X5285714Y-158055142D02*
X4600000Y-158055142D01*
X4942857Y-158055142D02*
X4942857Y-156855142D01*
X4942857Y-156855142D02*
X4828571Y-157026571D01*
X4828571Y-157026571D02*
X4714286Y-157140857D01*
X4714286Y-157140857D02*
X4600000Y-157198000D01*
X5800000Y-157940857D02*
X5857143Y-157998000D01*
X5857143Y-157998000D02*
X5800000Y-158055142D01*
X5800000Y-158055142D02*
X5742857Y-157998000D01*
X5742857Y-157998000D02*
X5800000Y-157940857D01*
X5800000Y-157940857D02*
X5800000Y-158055142D01*
X6314286Y-156969428D02*
X6371429Y-156912285D01*
X6371429Y-156912285D02*
X6485715Y-156855142D01*
X6485715Y-156855142D02*
X6771429Y-156855142D01*
X6771429Y-156855142D02*
X6885715Y-156912285D01*
X6885715Y-156912285D02*
X6942857Y-156969428D01*
X6942857Y-156969428D02*
X7000000Y-157083714D01*
X7000000Y-157083714D02*
X7000000Y-157198000D01*
X7000000Y-157198000D02*
X6942857Y-157369428D01*
X6942857Y-157369428D02*
X6257143Y-158055142D01*
X6257143Y-158055142D02*
X7000000Y-158055142D01*
X8085714Y-156855142D02*
X7514286Y-156855142D01*
X7514286Y-156855142D02*
X7457143Y-157426571D01*
X7457143Y-157426571D02*
X7514286Y-157369428D01*
X7514286Y-157369428D02*
X7628572Y-157312285D01*
X7628572Y-157312285D02*
X7914286Y-157312285D01*
X7914286Y-157312285D02*
X8028572Y-157369428D01*
X8028572Y-157369428D02*
X8085714Y-157426571D01*
X8085714Y-157426571D02*
X8142857Y-157540857D01*
X8142857Y-157540857D02*
X8142857Y-157826571D01*
X8142857Y-157826571D02*
X8085714Y-157940857D01*
X8085714Y-157940857D02*
X8028572Y-157998000D01*
X8028572Y-157998000D02*
X7914286Y-158055142D01*
X7914286Y-158055142D02*
X7628572Y-158055142D01*
X7628572Y-158055142D02*
X7514286Y-157998000D01*
X7514286Y-157998000D02*
X7457143Y-157940857D01*
X9171429Y-157255142D02*
X9171429Y-158055142D01*
X8657143Y-157255142D02*
X8657143Y-157883714D01*
X8657143Y-157883714D02*
X8714286Y-157998000D01*
X8714286Y-157998000D02*
X8828571Y-158055142D01*
X8828571Y-158055142D02*
X9000000Y-158055142D01*
X9000000Y-158055142D02*
X9114286Y-157998000D01*
X9114286Y-157998000D02*
X9171429Y-157940857D01*
X11342857Y-157940857D02*
X11285714Y-157998000D01*
X11285714Y-157998000D02*
X11114286Y-158055142D01*
X11114286Y-158055142D02*
X11000000Y-158055142D01*
X11000000Y-158055142D02*
X10828571Y-157998000D01*
X10828571Y-157998000D02*
X10714286Y-157883714D01*
X10714286Y-157883714D02*
X10657143Y-157769428D01*
X10657143Y-157769428D02*
X10600000Y-157540857D01*
X10600000Y-157540857D02*
X10600000Y-157369428D01*
X10600000Y-157369428D02*
X10657143Y-157140857D01*
X10657143Y-157140857D02*
X10714286Y-157026571D01*
X10714286Y-157026571D02*
X10828571Y-156912285D01*
X10828571Y-156912285D02*
X11000000Y-156855142D01*
X11000000Y-156855142D02*
X11114286Y-156855142D01*
X11114286Y-156855142D02*
X11285714Y-156912285D01*
X11285714Y-156912285D02*
X11342857Y-156969428D01*
X11685714Y-157255142D02*
X12142857Y-157255142D01*
X11857143Y-156855142D02*
X11857143Y-157883714D01*
X11857143Y-157883714D02*
X11914286Y-157998000D01*
X11914286Y-157998000D02*
X12028571Y-158055142D01*
X12028571Y-158055142D02*
X12142857Y-158055142D01*
X12542857Y-158055142D02*
X12542857Y-157255142D01*
X12542857Y-157483714D02*
X12600000Y-157369428D01*
X12600000Y-157369428D02*
X12657143Y-157312285D01*
X12657143Y-157312285D02*
X12771428Y-157255142D01*
X12771428Y-157255142D02*
X12885714Y-157255142D01*
X13457142Y-158055142D02*
X13342857Y-157998000D01*
X13342857Y-157998000D02*
X13285714Y-157883714D01*
X13285714Y-157883714D02*
X13285714Y-156855142D01*
X136257143Y-157855142D02*
X136028571Y-157855142D01*
X136028571Y-157855142D02*
X135914285Y-157912285D01*
X135914285Y-157912285D02*
X135857143Y-157969428D01*
X135857143Y-157969428D02*
X135742857Y-158140857D01*
X135742857Y-158140857D02*
X135685714Y-158369428D01*
X135685714Y-158369428D02*
X135685714Y-158826571D01*
X135685714Y-158826571D02*
X135742857Y-158940857D01*
X135742857Y-158940857D02*
X135800000Y-158998000D01*
X135800000Y-158998000D02*
X135914285Y-159055142D01*
X135914285Y-159055142D02*
X136142857Y-159055142D01*
X136142857Y-159055142D02*
X136257143Y-158998000D01*
X136257143Y-158998000D02*
X136314285Y-158940857D01*
X136314285Y-158940857D02*
X136371428Y-158826571D01*
X136371428Y-158826571D02*
X136371428Y-158540857D01*
X136371428Y-158540857D02*
X136314285Y-158426571D01*
X136314285Y-158426571D02*
X136257143Y-158369428D01*
X136257143Y-158369428D02*
X136142857Y-158312285D01*
X136142857Y-158312285D02*
X135914285Y-158312285D01*
X135914285Y-158312285D02*
X135800000Y-158369428D01*
X135800000Y-158369428D02*
X135742857Y-158426571D01*
X135742857Y-158426571D02*
X135685714Y-158540857D01*
X136885714Y-158940857D02*
X136942857Y-158998000D01*
X136942857Y-158998000D02*
X136885714Y-159055142D01*
X136885714Y-159055142D02*
X136828571Y-158998000D01*
X136828571Y-158998000D02*
X136885714Y-158940857D01*
X136885714Y-158940857D02*
X136885714Y-159055142D01*
X137400000Y-157969428D02*
X137457143Y-157912285D01*
X137457143Y-157912285D02*
X137571429Y-157855142D01*
X137571429Y-157855142D02*
X137857143Y-157855142D01*
X137857143Y-157855142D02*
X137971429Y-157912285D01*
X137971429Y-157912285D02*
X138028571Y-157969428D01*
X138028571Y-157969428D02*
X138085714Y-158083714D01*
X138085714Y-158083714D02*
X138085714Y-158198000D01*
X138085714Y-158198000D02*
X138028571Y-158369428D01*
X138028571Y-158369428D02*
X137342857Y-159055142D01*
X137342857Y-159055142D02*
X138085714Y-159055142D01*
X139171428Y-157855142D02*
X138600000Y-157855142D01*
X138600000Y-157855142D02*
X138542857Y-158426571D01*
X138542857Y-158426571D02*
X138600000Y-158369428D01*
X138600000Y-158369428D02*
X138714286Y-158312285D01*
X138714286Y-158312285D02*
X139000000Y-158312285D01*
X139000000Y-158312285D02*
X139114286Y-158369428D01*
X139114286Y-158369428D02*
X139171428Y-158426571D01*
X139171428Y-158426571D02*
X139228571Y-158540857D01*
X139228571Y-158540857D02*
X139228571Y-158826571D01*
X139228571Y-158826571D02*
X139171428Y-158940857D01*
X139171428Y-158940857D02*
X139114286Y-158998000D01*
X139114286Y-158998000D02*
X139000000Y-159055142D01*
X139000000Y-159055142D02*
X138714286Y-159055142D01*
X138714286Y-159055142D02*
X138600000Y-158998000D01*
X138600000Y-158998000D02*
X138542857Y-158940857D01*
X140257143Y-158255142D02*
X140257143Y-159055142D01*
X139742857Y-158255142D02*
X139742857Y-158883714D01*
X139742857Y-158883714D02*
X139800000Y-158998000D01*
X139800000Y-158998000D02*
X139914285Y-159055142D01*
X139914285Y-159055142D02*
X140085714Y-159055142D01*
X140085714Y-159055142D02*
X140200000Y-158998000D01*
X140200000Y-158998000D02*
X140257143Y-158940857D01*
X120057143Y-155855142D02*
X120857143Y-155855142D01*
X120857143Y-155855142D02*
X120342857Y-157055142D01*
X121828572Y-156255142D02*
X121828572Y-157055142D01*
X121314286Y-156255142D02*
X121314286Y-156883714D01*
X121314286Y-156883714D02*
X121371429Y-156998000D01*
X121371429Y-156998000D02*
X121485714Y-157055142D01*
X121485714Y-157055142D02*
X121657143Y-157055142D01*
X121657143Y-157055142D02*
X121771429Y-156998000D01*
X121771429Y-156998000D02*
X121828572Y-156940857D01*
D12*
X46250000Y-154478928D02*
X47107143Y-154478928D01*
X46678571Y-155978928D02*
X46678571Y-154478928D01*
X48178571Y-155907500D02*
X48035714Y-155978928D01*
X48035714Y-155978928D02*
X47750000Y-155978928D01*
X47750000Y-155978928D02*
X47607142Y-155907500D01*
X47607142Y-155907500D02*
X47535714Y-155764642D01*
X47535714Y-155764642D02*
X47535714Y-155193214D01*
X47535714Y-155193214D02*
X47607142Y-155050357D01*
X47607142Y-155050357D02*
X47750000Y-154978928D01*
X47750000Y-154978928D02*
X48035714Y-154978928D01*
X48035714Y-154978928D02*
X48178571Y-155050357D01*
X48178571Y-155050357D02*
X48250000Y-155193214D01*
X48250000Y-155193214D02*
X48250000Y-155336071D01*
X48250000Y-155336071D02*
X47535714Y-155478928D01*
X48821428Y-155907500D02*
X48964285Y-155978928D01*
X48964285Y-155978928D02*
X49249999Y-155978928D01*
X49249999Y-155978928D02*
X49392856Y-155907500D01*
X49392856Y-155907500D02*
X49464285Y-155764642D01*
X49464285Y-155764642D02*
X49464285Y-155693214D01*
X49464285Y-155693214D02*
X49392856Y-155550357D01*
X49392856Y-155550357D02*
X49249999Y-155478928D01*
X49249999Y-155478928D02*
X49035714Y-155478928D01*
X49035714Y-155478928D02*
X48892856Y-155407500D01*
X48892856Y-155407500D02*
X48821428Y-155264642D01*
X48821428Y-155264642D02*
X48821428Y-155193214D01*
X48821428Y-155193214D02*
X48892856Y-155050357D01*
X48892856Y-155050357D02*
X49035714Y-154978928D01*
X49035714Y-154978928D02*
X49249999Y-154978928D01*
X49249999Y-154978928D02*
X49392856Y-155050357D01*
X49892857Y-154978928D02*
X50464285Y-154978928D01*
X50107142Y-154478928D02*
X50107142Y-155764642D01*
X50107142Y-155764642D02*
X50178571Y-155907500D01*
X50178571Y-155907500D02*
X50321428Y-155978928D01*
X50321428Y-155978928D02*
X50464285Y-155978928D01*
X51964285Y-154978928D02*
X52321428Y-155978928D01*
X52678571Y-154978928D02*
X52321428Y-155978928D01*
X52321428Y-155978928D02*
X52178571Y-156336071D01*
X52178571Y-156336071D02*
X52107142Y-156407500D01*
X52107142Y-156407500D02*
X51964285Y-156478928D01*
X53464285Y-155978928D02*
X53321428Y-155907500D01*
X53321428Y-155907500D02*
X53249999Y-155836071D01*
X53249999Y-155836071D02*
X53178571Y-155693214D01*
X53178571Y-155693214D02*
X53178571Y-155264642D01*
X53178571Y-155264642D02*
X53249999Y-155121785D01*
X53249999Y-155121785D02*
X53321428Y-155050357D01*
X53321428Y-155050357D02*
X53464285Y-154978928D01*
X53464285Y-154978928D02*
X53678571Y-154978928D01*
X53678571Y-154978928D02*
X53821428Y-155050357D01*
X53821428Y-155050357D02*
X53892857Y-155121785D01*
X53892857Y-155121785D02*
X53964285Y-155264642D01*
X53964285Y-155264642D02*
X53964285Y-155693214D01*
X53964285Y-155693214D02*
X53892857Y-155836071D01*
X53892857Y-155836071D02*
X53821428Y-155907500D01*
X53821428Y-155907500D02*
X53678571Y-155978928D01*
X53678571Y-155978928D02*
X53464285Y-155978928D01*
X55250000Y-154978928D02*
X55250000Y-155978928D01*
X54607142Y-154978928D02*
X54607142Y-155764642D01*
X54607142Y-155764642D02*
X54678571Y-155907500D01*
X54678571Y-155907500D02*
X54821428Y-155978928D01*
X54821428Y-155978928D02*
X55035714Y-155978928D01*
X55035714Y-155978928D02*
X55178571Y-155907500D01*
X55178571Y-155907500D02*
X55250000Y-155836071D01*
X55964285Y-155978928D02*
X55964285Y-154978928D01*
X55964285Y-155264642D02*
X56035714Y-155121785D01*
X56035714Y-155121785D02*
X56107143Y-155050357D01*
X56107143Y-155050357D02*
X56250000Y-154978928D01*
X56250000Y-154978928D02*
X56392857Y-154978928D01*
X58035713Y-155978928D02*
X58035713Y-154478928D01*
X58035713Y-155050357D02*
X58178571Y-154978928D01*
X58178571Y-154978928D02*
X58464285Y-154978928D01*
X58464285Y-154978928D02*
X58607142Y-155050357D01*
X58607142Y-155050357D02*
X58678571Y-155121785D01*
X58678571Y-155121785D02*
X58749999Y-155264642D01*
X58749999Y-155264642D02*
X58749999Y-155693214D01*
X58749999Y-155693214D02*
X58678571Y-155836071D01*
X58678571Y-155836071D02*
X58607142Y-155907500D01*
X58607142Y-155907500D02*
X58464285Y-155978928D01*
X58464285Y-155978928D02*
X58178571Y-155978928D01*
X58178571Y-155978928D02*
X58035713Y-155907500D01*
X59607142Y-155978928D02*
X59464285Y-155907500D01*
X59464285Y-155907500D02*
X59392856Y-155836071D01*
X59392856Y-155836071D02*
X59321428Y-155693214D01*
X59321428Y-155693214D02*
X59321428Y-155264642D01*
X59321428Y-155264642D02*
X59392856Y-155121785D01*
X59392856Y-155121785D02*
X59464285Y-155050357D01*
X59464285Y-155050357D02*
X59607142Y-154978928D01*
X59607142Y-154978928D02*
X59821428Y-154978928D01*
X59821428Y-154978928D02*
X59964285Y-155050357D01*
X59964285Y-155050357D02*
X60035714Y-155121785D01*
X60035714Y-155121785D02*
X60107142Y-155264642D01*
X60107142Y-155264642D02*
X60107142Y-155693214D01*
X60107142Y-155693214D02*
X60035714Y-155836071D01*
X60035714Y-155836071D02*
X59964285Y-155907500D01*
X59964285Y-155907500D02*
X59821428Y-155978928D01*
X59821428Y-155978928D02*
X59607142Y-155978928D01*
X60535714Y-154978928D02*
X61107142Y-154978928D01*
X60749999Y-154478928D02*
X60749999Y-155764642D01*
X60749999Y-155764642D02*
X60821428Y-155907500D01*
X60821428Y-155907500D02*
X60964285Y-155978928D01*
X60964285Y-155978928D02*
X61107142Y-155978928D01*
X61392857Y-154978928D02*
X61964285Y-154978928D01*
X61607142Y-154478928D02*
X61607142Y-155764642D01*
X61607142Y-155764642D02*
X61678571Y-155907500D01*
X61678571Y-155907500D02*
X61821428Y-155978928D01*
X61821428Y-155978928D02*
X61964285Y-155978928D01*
X62678571Y-155978928D02*
X62535714Y-155907500D01*
X62535714Y-155907500D02*
X62464285Y-155836071D01*
X62464285Y-155836071D02*
X62392857Y-155693214D01*
X62392857Y-155693214D02*
X62392857Y-155264642D01*
X62392857Y-155264642D02*
X62464285Y-155121785D01*
X62464285Y-155121785D02*
X62535714Y-155050357D01*
X62535714Y-155050357D02*
X62678571Y-154978928D01*
X62678571Y-154978928D02*
X62892857Y-154978928D01*
X62892857Y-154978928D02*
X63035714Y-155050357D01*
X63035714Y-155050357D02*
X63107143Y-155121785D01*
X63107143Y-155121785D02*
X63178571Y-155264642D01*
X63178571Y-155264642D02*
X63178571Y-155693214D01*
X63178571Y-155693214D02*
X63107143Y-155836071D01*
X63107143Y-155836071D02*
X63035714Y-155907500D01*
X63035714Y-155907500D02*
X62892857Y-155978928D01*
X62892857Y-155978928D02*
X62678571Y-155978928D01*
X63821428Y-155978928D02*
X63821428Y-154978928D01*
X63821428Y-155121785D02*
X63892857Y-155050357D01*
X63892857Y-155050357D02*
X64035714Y-154978928D01*
X64035714Y-154978928D02*
X64250000Y-154978928D01*
X64250000Y-154978928D02*
X64392857Y-155050357D01*
X64392857Y-155050357D02*
X64464286Y-155193214D01*
X64464286Y-155193214D02*
X64464286Y-155978928D01*
X64464286Y-155193214D02*
X64535714Y-155050357D01*
X64535714Y-155050357D02*
X64678571Y-154978928D01*
X64678571Y-154978928D02*
X64892857Y-154978928D01*
X64892857Y-154978928D02*
X65035714Y-155050357D01*
X65035714Y-155050357D02*
X65107143Y-155193214D01*
X65107143Y-155193214D02*
X65107143Y-155978928D01*
X66964285Y-155978928D02*
X66964285Y-154978928D01*
X66964285Y-155264642D02*
X67035714Y-155121785D01*
X67035714Y-155121785D02*
X67107143Y-155050357D01*
X67107143Y-155050357D02*
X67250000Y-154978928D01*
X67250000Y-154978928D02*
X67392857Y-154978928D01*
X68107142Y-155978928D02*
X67964285Y-155907500D01*
X67964285Y-155907500D02*
X67892856Y-155836071D01*
X67892856Y-155836071D02*
X67821428Y-155693214D01*
X67821428Y-155693214D02*
X67821428Y-155264642D01*
X67821428Y-155264642D02*
X67892856Y-155121785D01*
X67892856Y-155121785D02*
X67964285Y-155050357D01*
X67964285Y-155050357D02*
X68107142Y-154978928D01*
X68107142Y-154978928D02*
X68321428Y-154978928D01*
X68321428Y-154978928D02*
X68464285Y-155050357D01*
X68464285Y-155050357D02*
X68535714Y-155121785D01*
X68535714Y-155121785D02*
X68607142Y-155264642D01*
X68607142Y-155264642D02*
X68607142Y-155693214D01*
X68607142Y-155693214D02*
X68535714Y-155836071D01*
X68535714Y-155836071D02*
X68464285Y-155907500D01*
X68464285Y-155907500D02*
X68321428Y-155978928D01*
X68321428Y-155978928D02*
X68107142Y-155978928D01*
X69107142Y-154978928D02*
X69392857Y-155978928D01*
X69392857Y-155978928D02*
X69678571Y-155264642D01*
X69678571Y-155264642D02*
X69964285Y-155978928D01*
X69964285Y-155978928D02*
X70249999Y-154978928D01*
X71964285Y-155978928D02*
X71964285Y-154478928D01*
X71964285Y-155050357D02*
X72107143Y-154978928D01*
X72107143Y-154978928D02*
X72392857Y-154978928D01*
X72392857Y-154978928D02*
X72535714Y-155050357D01*
X72535714Y-155050357D02*
X72607143Y-155121785D01*
X72607143Y-155121785D02*
X72678571Y-155264642D01*
X72678571Y-155264642D02*
X72678571Y-155693214D01*
X72678571Y-155693214D02*
X72607143Y-155836071D01*
X72607143Y-155836071D02*
X72535714Y-155907500D01*
X72535714Y-155907500D02*
X72392857Y-155978928D01*
X72392857Y-155978928D02*
X72107143Y-155978928D01*
X72107143Y-155978928D02*
X71964285Y-155907500D01*
X73178571Y-154978928D02*
X73535714Y-155978928D01*
X73892857Y-154978928D02*
X73535714Y-155978928D01*
X73535714Y-155978928D02*
X73392857Y-156336071D01*
X73392857Y-156336071D02*
X73321428Y-156407500D01*
X73321428Y-156407500D02*
X73178571Y-156478928D01*
X75607142Y-155978928D02*
X75607142Y-154978928D01*
X75607142Y-154478928D02*
X75535714Y-154550357D01*
X75535714Y-154550357D02*
X75607142Y-154621785D01*
X75607142Y-154621785D02*
X75678571Y-154550357D01*
X75678571Y-154550357D02*
X75607142Y-154478928D01*
X75607142Y-154478928D02*
X75607142Y-154621785D01*
X76321428Y-154978928D02*
X76321428Y-155978928D01*
X76321428Y-155121785D02*
X76392857Y-155050357D01*
X76392857Y-155050357D02*
X76535714Y-154978928D01*
X76535714Y-154978928D02*
X76750000Y-154978928D01*
X76750000Y-154978928D02*
X76892857Y-155050357D01*
X76892857Y-155050357D02*
X76964286Y-155193214D01*
X76964286Y-155193214D02*
X76964286Y-155978928D01*
X77607143Y-155907500D02*
X77750000Y-155978928D01*
X77750000Y-155978928D02*
X78035714Y-155978928D01*
X78035714Y-155978928D02*
X78178571Y-155907500D01*
X78178571Y-155907500D02*
X78250000Y-155764642D01*
X78250000Y-155764642D02*
X78250000Y-155693214D01*
X78250000Y-155693214D02*
X78178571Y-155550357D01*
X78178571Y-155550357D02*
X78035714Y-155478928D01*
X78035714Y-155478928D02*
X77821429Y-155478928D01*
X77821429Y-155478928D02*
X77678571Y-155407500D01*
X77678571Y-155407500D02*
X77607143Y-155264642D01*
X77607143Y-155264642D02*
X77607143Y-155193214D01*
X77607143Y-155193214D02*
X77678571Y-155050357D01*
X77678571Y-155050357D02*
X77821429Y-154978928D01*
X77821429Y-154978928D02*
X78035714Y-154978928D01*
X78035714Y-154978928D02*
X78178571Y-155050357D01*
X78678572Y-154978928D02*
X79250000Y-154978928D01*
X78892857Y-154478928D02*
X78892857Y-155764642D01*
X78892857Y-155764642D02*
X78964286Y-155907500D01*
X78964286Y-155907500D02*
X79107143Y-155978928D01*
X79107143Y-155978928D02*
X79250000Y-155978928D01*
X80392858Y-155978928D02*
X80392858Y-155193214D01*
X80392858Y-155193214D02*
X80321429Y-155050357D01*
X80321429Y-155050357D02*
X80178572Y-154978928D01*
X80178572Y-154978928D02*
X79892858Y-154978928D01*
X79892858Y-154978928D02*
X79750000Y-155050357D01*
X80392858Y-155907500D02*
X80250000Y-155978928D01*
X80250000Y-155978928D02*
X79892858Y-155978928D01*
X79892858Y-155978928D02*
X79750000Y-155907500D01*
X79750000Y-155907500D02*
X79678572Y-155764642D01*
X79678572Y-155764642D02*
X79678572Y-155621785D01*
X79678572Y-155621785D02*
X79750000Y-155478928D01*
X79750000Y-155478928D02*
X79892858Y-155407500D01*
X79892858Y-155407500D02*
X80250000Y-155407500D01*
X80250000Y-155407500D02*
X80392858Y-155336071D01*
X81321429Y-155978928D02*
X81178572Y-155907500D01*
X81178572Y-155907500D02*
X81107143Y-155764642D01*
X81107143Y-155764642D02*
X81107143Y-154478928D01*
X82107143Y-155978928D02*
X81964286Y-155907500D01*
X81964286Y-155907500D02*
X81892857Y-155764642D01*
X81892857Y-155764642D02*
X81892857Y-154478928D01*
X82678571Y-155978928D02*
X82678571Y-154978928D01*
X82678571Y-154478928D02*
X82607143Y-154550357D01*
X82607143Y-154550357D02*
X82678571Y-154621785D01*
X82678571Y-154621785D02*
X82750000Y-154550357D01*
X82750000Y-154550357D02*
X82678571Y-154478928D01*
X82678571Y-154478928D02*
X82678571Y-154621785D01*
X83392857Y-154978928D02*
X83392857Y-155978928D01*
X83392857Y-155121785D02*
X83464286Y-155050357D01*
X83464286Y-155050357D02*
X83607143Y-154978928D01*
X83607143Y-154978928D02*
X83821429Y-154978928D01*
X83821429Y-154978928D02*
X83964286Y-155050357D01*
X83964286Y-155050357D02*
X84035715Y-155193214D01*
X84035715Y-155193214D02*
X84035715Y-155978928D01*
X85392858Y-154978928D02*
X85392858Y-156193214D01*
X85392858Y-156193214D02*
X85321429Y-156336071D01*
X85321429Y-156336071D02*
X85250000Y-156407500D01*
X85250000Y-156407500D02*
X85107143Y-156478928D01*
X85107143Y-156478928D02*
X84892858Y-156478928D01*
X84892858Y-156478928D02*
X84750000Y-156407500D01*
X85392858Y-155907500D02*
X85250000Y-155978928D01*
X85250000Y-155978928D02*
X84964286Y-155978928D01*
X84964286Y-155978928D02*
X84821429Y-155907500D01*
X84821429Y-155907500D02*
X84750000Y-155836071D01*
X84750000Y-155836071D02*
X84678572Y-155693214D01*
X84678572Y-155693214D02*
X84678572Y-155264642D01*
X84678572Y-155264642D02*
X84750000Y-155121785D01*
X84750000Y-155121785D02*
X84821429Y-155050357D01*
X84821429Y-155050357D02*
X84964286Y-154978928D01*
X84964286Y-154978928D02*
X85250000Y-154978928D01*
X85250000Y-154978928D02*
X85392858Y-155050357D01*
X46892856Y-158408928D02*
X46892856Y-156908928D01*
X47035714Y-157837500D02*
X47464285Y-158408928D01*
X47464285Y-157408928D02*
X46892856Y-157980357D01*
X48678571Y-158337500D02*
X48535714Y-158408928D01*
X48535714Y-158408928D02*
X48250000Y-158408928D01*
X48250000Y-158408928D02*
X48107142Y-158337500D01*
X48107142Y-158337500D02*
X48035714Y-158194642D01*
X48035714Y-158194642D02*
X48035714Y-157623214D01*
X48035714Y-157623214D02*
X48107142Y-157480357D01*
X48107142Y-157480357D02*
X48250000Y-157408928D01*
X48250000Y-157408928D02*
X48535714Y-157408928D01*
X48535714Y-157408928D02*
X48678571Y-157480357D01*
X48678571Y-157480357D02*
X48750000Y-157623214D01*
X48750000Y-157623214D02*
X48750000Y-157766071D01*
X48750000Y-157766071D02*
X48035714Y-157908928D01*
X49249999Y-157408928D02*
X49607142Y-158408928D01*
X49964285Y-157408928D02*
X49607142Y-158408928D01*
X49607142Y-158408928D02*
X49464285Y-158766071D01*
X49464285Y-158766071D02*
X49392856Y-158837500D01*
X49392856Y-158837500D02*
X49249999Y-158908928D01*
X51178571Y-158337500D02*
X51035713Y-158408928D01*
X51035713Y-158408928D02*
X50749999Y-158408928D01*
X50749999Y-158408928D02*
X50607142Y-158337500D01*
X50607142Y-158337500D02*
X50535713Y-158266071D01*
X50535713Y-158266071D02*
X50464285Y-158123214D01*
X50464285Y-158123214D02*
X50464285Y-157694642D01*
X50464285Y-157694642D02*
X50535713Y-157551785D01*
X50535713Y-157551785D02*
X50607142Y-157480357D01*
X50607142Y-157480357D02*
X50749999Y-157408928D01*
X50749999Y-157408928D02*
X51035713Y-157408928D01*
X51035713Y-157408928D02*
X51178571Y-157480357D01*
X52464285Y-158408928D02*
X52464285Y-157623214D01*
X52464285Y-157623214D02*
X52392856Y-157480357D01*
X52392856Y-157480357D02*
X52249999Y-157408928D01*
X52249999Y-157408928D02*
X51964285Y-157408928D01*
X51964285Y-157408928D02*
X51821427Y-157480357D01*
X52464285Y-158337500D02*
X52321427Y-158408928D01*
X52321427Y-158408928D02*
X51964285Y-158408928D01*
X51964285Y-158408928D02*
X51821427Y-158337500D01*
X51821427Y-158337500D02*
X51749999Y-158194642D01*
X51749999Y-158194642D02*
X51749999Y-158051785D01*
X51749999Y-158051785D02*
X51821427Y-157908928D01*
X51821427Y-157908928D02*
X51964285Y-157837500D01*
X51964285Y-157837500D02*
X52321427Y-157837500D01*
X52321427Y-157837500D02*
X52464285Y-157766071D01*
X53178570Y-157408928D02*
X53178570Y-158908928D01*
X53178570Y-157480357D02*
X53321428Y-157408928D01*
X53321428Y-157408928D02*
X53607142Y-157408928D01*
X53607142Y-157408928D02*
X53749999Y-157480357D01*
X53749999Y-157480357D02*
X53821428Y-157551785D01*
X53821428Y-157551785D02*
X53892856Y-157694642D01*
X53892856Y-157694642D02*
X53892856Y-158123214D01*
X53892856Y-158123214D02*
X53821428Y-158266071D01*
X53821428Y-158266071D02*
X53749999Y-158337500D01*
X53749999Y-158337500D02*
X53607142Y-158408928D01*
X53607142Y-158408928D02*
X53321428Y-158408928D01*
X53321428Y-158408928D02*
X53178570Y-158337500D01*
X54464285Y-158337500D02*
X54607142Y-158408928D01*
X54607142Y-158408928D02*
X54892856Y-158408928D01*
X54892856Y-158408928D02*
X55035713Y-158337500D01*
X55035713Y-158337500D02*
X55107142Y-158194642D01*
X55107142Y-158194642D02*
X55107142Y-158123214D01*
X55107142Y-158123214D02*
X55035713Y-157980357D01*
X55035713Y-157980357D02*
X54892856Y-157908928D01*
X54892856Y-157908928D02*
X54678571Y-157908928D01*
X54678571Y-157908928D02*
X54535713Y-157837500D01*
X54535713Y-157837500D02*
X54464285Y-157694642D01*
X54464285Y-157694642D02*
X54464285Y-157623214D01*
X54464285Y-157623214D02*
X54535713Y-157480357D01*
X54535713Y-157480357D02*
X54678571Y-157408928D01*
X54678571Y-157408928D02*
X54892856Y-157408928D01*
X54892856Y-157408928D02*
X55035713Y-157480357D01*
X56892856Y-158408928D02*
X56892856Y-156908928D01*
X56892856Y-157480357D02*
X57035714Y-157408928D01*
X57035714Y-157408928D02*
X57321428Y-157408928D01*
X57321428Y-157408928D02*
X57464285Y-157480357D01*
X57464285Y-157480357D02*
X57535714Y-157551785D01*
X57535714Y-157551785D02*
X57607142Y-157694642D01*
X57607142Y-157694642D02*
X57607142Y-158123214D01*
X57607142Y-158123214D02*
X57535714Y-158266071D01*
X57535714Y-158266071D02*
X57464285Y-158337500D01*
X57464285Y-158337500D02*
X57321428Y-158408928D01*
X57321428Y-158408928D02*
X57035714Y-158408928D01*
X57035714Y-158408928D02*
X56892856Y-158337500D01*
X58821428Y-158337500D02*
X58678571Y-158408928D01*
X58678571Y-158408928D02*
X58392857Y-158408928D01*
X58392857Y-158408928D02*
X58249999Y-158337500D01*
X58249999Y-158337500D02*
X58178571Y-158194642D01*
X58178571Y-158194642D02*
X58178571Y-157623214D01*
X58178571Y-157623214D02*
X58249999Y-157480357D01*
X58249999Y-157480357D02*
X58392857Y-157408928D01*
X58392857Y-157408928D02*
X58678571Y-157408928D01*
X58678571Y-157408928D02*
X58821428Y-157480357D01*
X58821428Y-157480357D02*
X58892857Y-157623214D01*
X58892857Y-157623214D02*
X58892857Y-157766071D01*
X58892857Y-157766071D02*
X58178571Y-157908928D01*
X59321428Y-157408928D02*
X59892856Y-157408928D01*
X59535713Y-158408928D02*
X59535713Y-157123214D01*
X59535713Y-157123214D02*
X59607142Y-156980357D01*
X59607142Y-156980357D02*
X59749999Y-156908928D01*
X59749999Y-156908928D02*
X59892856Y-156908928D01*
X60607142Y-158408928D02*
X60464285Y-158337500D01*
X60464285Y-158337500D02*
X60392856Y-158266071D01*
X60392856Y-158266071D02*
X60321428Y-158123214D01*
X60321428Y-158123214D02*
X60321428Y-157694642D01*
X60321428Y-157694642D02*
X60392856Y-157551785D01*
X60392856Y-157551785D02*
X60464285Y-157480357D01*
X60464285Y-157480357D02*
X60607142Y-157408928D01*
X60607142Y-157408928D02*
X60821428Y-157408928D01*
X60821428Y-157408928D02*
X60964285Y-157480357D01*
X60964285Y-157480357D02*
X61035714Y-157551785D01*
X61035714Y-157551785D02*
X61107142Y-157694642D01*
X61107142Y-157694642D02*
X61107142Y-158123214D01*
X61107142Y-158123214D02*
X61035714Y-158266071D01*
X61035714Y-158266071D02*
X60964285Y-158337500D01*
X60964285Y-158337500D02*
X60821428Y-158408928D01*
X60821428Y-158408928D02*
X60607142Y-158408928D01*
X61749999Y-158408928D02*
X61749999Y-157408928D01*
X61749999Y-157694642D02*
X61821428Y-157551785D01*
X61821428Y-157551785D02*
X61892857Y-157480357D01*
X61892857Y-157480357D02*
X62035714Y-157408928D01*
X62035714Y-157408928D02*
X62178571Y-157408928D01*
X63249999Y-158337500D02*
X63107142Y-158408928D01*
X63107142Y-158408928D02*
X62821428Y-158408928D01*
X62821428Y-158408928D02*
X62678570Y-158337500D01*
X62678570Y-158337500D02*
X62607142Y-158194642D01*
X62607142Y-158194642D02*
X62607142Y-157623214D01*
X62607142Y-157623214D02*
X62678570Y-157480357D01*
X62678570Y-157480357D02*
X62821428Y-157408928D01*
X62821428Y-157408928D02*
X63107142Y-157408928D01*
X63107142Y-157408928D02*
X63249999Y-157480357D01*
X63249999Y-157480357D02*
X63321428Y-157623214D01*
X63321428Y-157623214D02*
X63321428Y-157766071D01*
X63321428Y-157766071D02*
X62607142Y-157908928D01*
X65035713Y-158337500D02*
X65178570Y-158408928D01*
X65178570Y-158408928D02*
X65464284Y-158408928D01*
X65464284Y-158408928D02*
X65607141Y-158337500D01*
X65607141Y-158337500D02*
X65678570Y-158194642D01*
X65678570Y-158194642D02*
X65678570Y-158123214D01*
X65678570Y-158123214D02*
X65607141Y-157980357D01*
X65607141Y-157980357D02*
X65464284Y-157908928D01*
X65464284Y-157908928D02*
X65249999Y-157908928D01*
X65249999Y-157908928D02*
X65107141Y-157837500D01*
X65107141Y-157837500D02*
X65035713Y-157694642D01*
X65035713Y-157694642D02*
X65035713Y-157623214D01*
X65035713Y-157623214D02*
X65107141Y-157480357D01*
X65107141Y-157480357D02*
X65249999Y-157408928D01*
X65249999Y-157408928D02*
X65464284Y-157408928D01*
X65464284Y-157408928D02*
X65607141Y-157480357D01*
X66535713Y-158408928D02*
X66392856Y-158337500D01*
X66392856Y-158337500D02*
X66321427Y-158266071D01*
X66321427Y-158266071D02*
X66249999Y-158123214D01*
X66249999Y-158123214D02*
X66249999Y-157694642D01*
X66249999Y-157694642D02*
X66321427Y-157551785D01*
X66321427Y-157551785D02*
X66392856Y-157480357D01*
X66392856Y-157480357D02*
X66535713Y-157408928D01*
X66535713Y-157408928D02*
X66749999Y-157408928D01*
X66749999Y-157408928D02*
X66892856Y-157480357D01*
X66892856Y-157480357D02*
X66964285Y-157551785D01*
X66964285Y-157551785D02*
X67035713Y-157694642D01*
X67035713Y-157694642D02*
X67035713Y-158123214D01*
X67035713Y-158123214D02*
X66964285Y-158266071D01*
X66964285Y-158266071D02*
X66892856Y-158337500D01*
X66892856Y-158337500D02*
X66749999Y-158408928D01*
X66749999Y-158408928D02*
X66535713Y-158408928D01*
X67892856Y-158408928D02*
X67749999Y-158337500D01*
X67749999Y-158337500D02*
X67678570Y-158194642D01*
X67678570Y-158194642D02*
X67678570Y-156908928D01*
X69107142Y-158408928D02*
X69107142Y-156908928D01*
X69107142Y-158337500D02*
X68964284Y-158408928D01*
X68964284Y-158408928D02*
X68678570Y-158408928D01*
X68678570Y-158408928D02*
X68535713Y-158337500D01*
X68535713Y-158337500D02*
X68464284Y-158266071D01*
X68464284Y-158266071D02*
X68392856Y-158123214D01*
X68392856Y-158123214D02*
X68392856Y-157694642D01*
X68392856Y-157694642D02*
X68464284Y-157551785D01*
X68464284Y-157551785D02*
X68535713Y-157480357D01*
X68535713Y-157480357D02*
X68678570Y-157408928D01*
X68678570Y-157408928D02*
X68964284Y-157408928D01*
X68964284Y-157408928D02*
X69107142Y-157480357D01*
X70392856Y-158337500D02*
X70249999Y-158408928D01*
X70249999Y-158408928D02*
X69964285Y-158408928D01*
X69964285Y-158408928D02*
X69821427Y-158337500D01*
X69821427Y-158337500D02*
X69749999Y-158194642D01*
X69749999Y-158194642D02*
X69749999Y-157623214D01*
X69749999Y-157623214D02*
X69821427Y-157480357D01*
X69821427Y-157480357D02*
X69964285Y-157408928D01*
X69964285Y-157408928D02*
X70249999Y-157408928D01*
X70249999Y-157408928D02*
X70392856Y-157480357D01*
X70392856Y-157480357D02*
X70464285Y-157623214D01*
X70464285Y-157623214D02*
X70464285Y-157766071D01*
X70464285Y-157766071D02*
X69749999Y-157908928D01*
X71107141Y-158408928D02*
X71107141Y-157408928D01*
X71107141Y-157694642D02*
X71178570Y-157551785D01*
X71178570Y-157551785D02*
X71249999Y-157480357D01*
X71249999Y-157480357D02*
X71392856Y-157408928D01*
X71392856Y-157408928D02*
X71535713Y-157408928D01*
X72035712Y-158408928D02*
X72035712Y-157408928D01*
X72035712Y-156908928D02*
X71964284Y-156980357D01*
X71964284Y-156980357D02*
X72035712Y-157051785D01*
X72035712Y-157051785D02*
X72107141Y-156980357D01*
X72107141Y-156980357D02*
X72035712Y-156908928D01*
X72035712Y-156908928D02*
X72035712Y-157051785D01*
X72749998Y-157408928D02*
X72749998Y-158408928D01*
X72749998Y-157551785D02*
X72821427Y-157480357D01*
X72821427Y-157480357D02*
X72964284Y-157408928D01*
X72964284Y-157408928D02*
X73178570Y-157408928D01*
X73178570Y-157408928D02*
X73321427Y-157480357D01*
X73321427Y-157480357D02*
X73392856Y-157623214D01*
X73392856Y-157623214D02*
X73392856Y-158408928D01*
X74749999Y-157408928D02*
X74749999Y-158623214D01*
X74749999Y-158623214D02*
X74678570Y-158766071D01*
X74678570Y-158766071D02*
X74607141Y-158837500D01*
X74607141Y-158837500D02*
X74464284Y-158908928D01*
X74464284Y-158908928D02*
X74249999Y-158908928D01*
X74249999Y-158908928D02*
X74107141Y-158837500D01*
X74749999Y-158337500D02*
X74607141Y-158408928D01*
X74607141Y-158408928D02*
X74321427Y-158408928D01*
X74321427Y-158408928D02*
X74178570Y-158337500D01*
X74178570Y-158337500D02*
X74107141Y-158266071D01*
X74107141Y-158266071D02*
X74035713Y-158123214D01*
X74035713Y-158123214D02*
X74035713Y-157694642D01*
X74035713Y-157694642D02*
X74107141Y-157551785D01*
X74107141Y-157551785D02*
X74178570Y-157480357D01*
X74178570Y-157480357D02*
X74321427Y-157408928D01*
X74321427Y-157408928D02*
X74607141Y-157408928D01*
X74607141Y-157408928D02*
X74749999Y-157480357D01*
X76535713Y-158337500D02*
X76678570Y-158408928D01*
X76678570Y-158408928D02*
X76964284Y-158408928D01*
X76964284Y-158408928D02*
X77107141Y-158337500D01*
X77107141Y-158337500D02*
X77178570Y-158194642D01*
X77178570Y-158194642D02*
X77178570Y-158123214D01*
X77178570Y-158123214D02*
X77107141Y-157980357D01*
X77107141Y-157980357D02*
X76964284Y-157908928D01*
X76964284Y-157908928D02*
X76749999Y-157908928D01*
X76749999Y-157908928D02*
X76607141Y-157837500D01*
X76607141Y-157837500D02*
X76535713Y-157694642D01*
X76535713Y-157694642D02*
X76535713Y-157623214D01*
X76535713Y-157623214D02*
X76607141Y-157480357D01*
X76607141Y-157480357D02*
X76749999Y-157408928D01*
X76749999Y-157408928D02*
X76964284Y-157408928D01*
X76964284Y-157408928D02*
X77107141Y-157480357D01*
X77678570Y-157408928D02*
X77964285Y-158408928D01*
X77964285Y-158408928D02*
X78249999Y-157694642D01*
X78249999Y-157694642D02*
X78535713Y-158408928D01*
X78535713Y-158408928D02*
X78821427Y-157408928D01*
X79392856Y-158408928D02*
X79392856Y-157408928D01*
X79392856Y-156908928D02*
X79321428Y-156980357D01*
X79321428Y-156980357D02*
X79392856Y-157051785D01*
X79392856Y-157051785D02*
X79464285Y-156980357D01*
X79464285Y-156980357D02*
X79392856Y-156908928D01*
X79392856Y-156908928D02*
X79392856Y-157051785D01*
X79892857Y-157408928D02*
X80464285Y-157408928D01*
X80107142Y-156908928D02*
X80107142Y-158194642D01*
X80107142Y-158194642D02*
X80178571Y-158337500D01*
X80178571Y-158337500D02*
X80321428Y-158408928D01*
X80321428Y-158408928D02*
X80464285Y-158408928D01*
X81607143Y-158337500D02*
X81464285Y-158408928D01*
X81464285Y-158408928D02*
X81178571Y-158408928D01*
X81178571Y-158408928D02*
X81035714Y-158337500D01*
X81035714Y-158337500D02*
X80964285Y-158266071D01*
X80964285Y-158266071D02*
X80892857Y-158123214D01*
X80892857Y-158123214D02*
X80892857Y-157694642D01*
X80892857Y-157694642D02*
X80964285Y-157551785D01*
X80964285Y-157551785D02*
X81035714Y-157480357D01*
X81035714Y-157480357D02*
X81178571Y-157408928D01*
X81178571Y-157408928D02*
X81464285Y-157408928D01*
X81464285Y-157408928D02*
X81607143Y-157480357D01*
X82249999Y-158408928D02*
X82249999Y-156908928D01*
X82892857Y-158408928D02*
X82892857Y-157623214D01*
X82892857Y-157623214D02*
X82821428Y-157480357D01*
X82821428Y-157480357D02*
X82678571Y-157408928D01*
X82678571Y-157408928D02*
X82464285Y-157408928D01*
X82464285Y-157408928D02*
X82321428Y-157480357D01*
X82321428Y-157480357D02*
X82249999Y-157551785D01*
X84178571Y-158337500D02*
X84035714Y-158408928D01*
X84035714Y-158408928D02*
X83750000Y-158408928D01*
X83750000Y-158408928D02*
X83607142Y-158337500D01*
X83607142Y-158337500D02*
X83535714Y-158194642D01*
X83535714Y-158194642D02*
X83535714Y-157623214D01*
X83535714Y-157623214D02*
X83607142Y-157480357D01*
X83607142Y-157480357D02*
X83750000Y-157408928D01*
X83750000Y-157408928D02*
X84035714Y-157408928D01*
X84035714Y-157408928D02*
X84178571Y-157480357D01*
X84178571Y-157480357D02*
X84250000Y-157623214D01*
X84250000Y-157623214D02*
X84250000Y-157766071D01*
X84250000Y-157766071D02*
X83535714Y-157908928D01*
X84821428Y-158337500D02*
X84964285Y-158408928D01*
X84964285Y-158408928D02*
X85249999Y-158408928D01*
X85249999Y-158408928D02*
X85392856Y-158337500D01*
X85392856Y-158337500D02*
X85464285Y-158194642D01*
X85464285Y-158194642D02*
X85464285Y-158123214D01*
X85464285Y-158123214D02*
X85392856Y-157980357D01*
X85392856Y-157980357D02*
X85249999Y-157908928D01*
X85249999Y-157908928D02*
X85035714Y-157908928D01*
X85035714Y-157908928D02*
X84892856Y-157837500D01*
X84892856Y-157837500D02*
X84821428Y-157694642D01*
X84821428Y-157694642D02*
X84821428Y-157623214D01*
X84821428Y-157623214D02*
X84892856Y-157480357D01*
X84892856Y-157480357D02*
X85035714Y-157408928D01*
X85035714Y-157408928D02*
X85249999Y-157408928D01*
X85249999Y-157408928D02*
X85392856Y-157480357D01*
X86107142Y-158266071D02*
X86178571Y-158337500D01*
X86178571Y-158337500D02*
X86107142Y-158408928D01*
X86107142Y-158408928D02*
X86035714Y-158337500D01*
X86035714Y-158337500D02*
X86107142Y-158266071D01*
X86107142Y-158266071D02*
X86107142Y-158408928D01*
X86107142Y-157837500D02*
X86035714Y-156980357D01*
X86035714Y-156980357D02*
X86107142Y-156908928D01*
X86107142Y-156908928D02*
X86178571Y-156980357D01*
X86178571Y-156980357D02*
X86107142Y-157837500D01*
X86107142Y-157837500D02*
X86107142Y-156908928D01*
D11*
X8857143Y-160055142D02*
X8171429Y-160055142D01*
X8514286Y-160055142D02*
X8514286Y-158855142D01*
X8514286Y-158855142D02*
X8400000Y-159026571D01*
X8400000Y-159026571D02*
X8285715Y-159140857D01*
X8285715Y-159140857D02*
X8171429Y-159198000D01*
X9371429Y-159940857D02*
X9428572Y-159998000D01*
X9428572Y-159998000D02*
X9371429Y-160055142D01*
X9371429Y-160055142D02*
X9314286Y-159998000D01*
X9314286Y-159998000D02*
X9371429Y-159940857D01*
X9371429Y-159940857D02*
X9371429Y-160055142D01*
X10514286Y-158855142D02*
X9942858Y-158855142D01*
X9942858Y-158855142D02*
X9885715Y-159426571D01*
X9885715Y-159426571D02*
X9942858Y-159369428D01*
X9942858Y-159369428D02*
X10057144Y-159312285D01*
X10057144Y-159312285D02*
X10342858Y-159312285D01*
X10342858Y-159312285D02*
X10457144Y-159369428D01*
X10457144Y-159369428D02*
X10514286Y-159426571D01*
X10514286Y-159426571D02*
X10571429Y-159540857D01*
X10571429Y-159540857D02*
X10571429Y-159826571D01*
X10571429Y-159826571D02*
X10514286Y-159940857D01*
X10514286Y-159940857D02*
X10457144Y-159998000D01*
X10457144Y-159998000D02*
X10342858Y-160055142D01*
X10342858Y-160055142D02*
X10057144Y-160055142D01*
X10057144Y-160055142D02*
X9942858Y-159998000D01*
X9942858Y-159998000D02*
X9885715Y-159940857D01*
X11600001Y-159255142D02*
X11600001Y-160055142D01*
X11085715Y-159255142D02*
X11085715Y-159883714D01*
X11085715Y-159883714D02*
X11142858Y-159998000D01*
X11142858Y-159998000D02*
X11257143Y-160055142D01*
X11257143Y-160055142D02*
X11428572Y-160055142D01*
X11428572Y-160055142D02*
X11542858Y-159998000D01*
X11542858Y-159998000D02*
X11600001Y-159940857D01*
X13771429Y-159940857D02*
X13714286Y-159998000D01*
X13714286Y-159998000D02*
X13542858Y-160055142D01*
X13542858Y-160055142D02*
X13428572Y-160055142D01*
X13428572Y-160055142D02*
X13257143Y-159998000D01*
X13257143Y-159998000D02*
X13142858Y-159883714D01*
X13142858Y-159883714D02*
X13085715Y-159769428D01*
X13085715Y-159769428D02*
X13028572Y-159540857D01*
X13028572Y-159540857D02*
X13028572Y-159369428D01*
X13028572Y-159369428D02*
X13085715Y-159140857D01*
X13085715Y-159140857D02*
X13142858Y-159026571D01*
X13142858Y-159026571D02*
X13257143Y-158912285D01*
X13257143Y-158912285D02*
X13428572Y-158855142D01*
X13428572Y-158855142D02*
X13542858Y-158855142D01*
X13542858Y-158855142D02*
X13714286Y-158912285D01*
X13714286Y-158912285D02*
X13771429Y-158969428D01*
X14114286Y-159255142D02*
X14571429Y-159255142D01*
X14285715Y-158855142D02*
X14285715Y-159883714D01*
X14285715Y-159883714D02*
X14342858Y-159998000D01*
X14342858Y-159998000D02*
X14457143Y-160055142D01*
X14457143Y-160055142D02*
X14571429Y-160055142D01*
X14971429Y-160055142D02*
X14971429Y-159255142D01*
X14971429Y-159483714D02*
X15028572Y-159369428D01*
X15028572Y-159369428D02*
X15085715Y-159312285D01*
X15085715Y-159312285D02*
X15200000Y-159255142D01*
X15200000Y-159255142D02*
X15314286Y-159255142D01*
X15885714Y-160055142D02*
X15771429Y-159998000D01*
X15771429Y-159998000D02*
X15714286Y-159883714D01*
X15714286Y-159883714D02*
X15714286Y-158855142D01*
X199814286Y-159555142D02*
X199128572Y-159555142D01*
X199471429Y-159555142D02*
X199471429Y-158355142D01*
X199471429Y-158355142D02*
X199357143Y-158526571D01*
X199357143Y-158526571D02*
X199242858Y-158640857D01*
X199242858Y-158640857D02*
X199128572Y-158698000D01*
X200328572Y-159440857D02*
X200385715Y-159498000D01*
X200385715Y-159498000D02*
X200328572Y-159555142D01*
X200328572Y-159555142D02*
X200271429Y-159498000D01*
X200271429Y-159498000D02*
X200328572Y-159440857D01*
X200328572Y-159440857D02*
X200328572Y-159555142D01*
X201471429Y-158355142D02*
X200900001Y-158355142D01*
X200900001Y-158355142D02*
X200842858Y-158926571D01*
X200842858Y-158926571D02*
X200900001Y-158869428D01*
X200900001Y-158869428D02*
X201014287Y-158812285D01*
X201014287Y-158812285D02*
X201300001Y-158812285D01*
X201300001Y-158812285D02*
X201414287Y-158869428D01*
X201414287Y-158869428D02*
X201471429Y-158926571D01*
X201471429Y-158926571D02*
X201528572Y-159040857D01*
X201528572Y-159040857D02*
X201528572Y-159326571D01*
X201528572Y-159326571D02*
X201471429Y-159440857D01*
X201471429Y-159440857D02*
X201414287Y-159498000D01*
X201414287Y-159498000D02*
X201300001Y-159555142D01*
X201300001Y-159555142D02*
X201014287Y-159555142D01*
X201014287Y-159555142D02*
X200900001Y-159498000D01*
X200900001Y-159498000D02*
X200842858Y-159440857D01*
X202557144Y-158755142D02*
X202557144Y-159555142D01*
X202042858Y-158755142D02*
X202042858Y-159383714D01*
X202042858Y-159383714D02*
X202100001Y-159498000D01*
X202100001Y-159498000D02*
X202214286Y-159555142D01*
X202214286Y-159555142D02*
X202385715Y-159555142D01*
X202385715Y-159555142D02*
X202500001Y-159498000D01*
X202500001Y-159498000D02*
X202557144Y-159440857D01*
X203985715Y-159212285D02*
X204557144Y-159212285D01*
X203871429Y-159555142D02*
X204271429Y-158355142D01*
X204271429Y-158355142D02*
X204671429Y-159555142D01*
X205242857Y-159555142D02*
X205128572Y-159498000D01*
X205128572Y-159498000D02*
X205071429Y-159383714D01*
X205071429Y-159383714D02*
X205071429Y-158355142D01*
X205528571Y-158755142D02*
X205985714Y-158755142D01*
X205700000Y-158355142D02*
X205700000Y-159383714D01*
X205700000Y-159383714D02*
X205757143Y-159498000D01*
X205757143Y-159498000D02*
X205871428Y-159555142D01*
X205871428Y-159555142D02*
X205985714Y-159555142D01*
X29399999Y-157555142D02*
X28714285Y-157555142D01*
X29057142Y-157555142D02*
X29057142Y-156355142D01*
X29057142Y-156355142D02*
X28942856Y-156526571D01*
X28942856Y-156526571D02*
X28828571Y-156640857D01*
X28828571Y-156640857D02*
X28714285Y-156698000D01*
X29914285Y-157440857D02*
X29971428Y-157498000D01*
X29971428Y-157498000D02*
X29914285Y-157555142D01*
X29914285Y-157555142D02*
X29857142Y-157498000D01*
X29857142Y-157498000D02*
X29914285Y-157440857D01*
X29914285Y-157440857D02*
X29914285Y-157555142D01*
X30428571Y-156469428D02*
X30485714Y-156412285D01*
X30485714Y-156412285D02*
X30600000Y-156355142D01*
X30600000Y-156355142D02*
X30885714Y-156355142D01*
X30885714Y-156355142D02*
X31000000Y-156412285D01*
X31000000Y-156412285D02*
X31057142Y-156469428D01*
X31057142Y-156469428D02*
X31114285Y-156583714D01*
X31114285Y-156583714D02*
X31114285Y-156698000D01*
X31114285Y-156698000D02*
X31057142Y-156869428D01*
X31057142Y-156869428D02*
X30371428Y-157555142D01*
X30371428Y-157555142D02*
X31114285Y-157555142D01*
X32199999Y-156355142D02*
X31628571Y-156355142D01*
X31628571Y-156355142D02*
X31571428Y-156926571D01*
X31571428Y-156926571D02*
X31628571Y-156869428D01*
X31628571Y-156869428D02*
X31742857Y-156812285D01*
X31742857Y-156812285D02*
X32028571Y-156812285D01*
X32028571Y-156812285D02*
X32142857Y-156869428D01*
X32142857Y-156869428D02*
X32199999Y-156926571D01*
X32199999Y-156926571D02*
X32257142Y-157040857D01*
X32257142Y-157040857D02*
X32257142Y-157326571D01*
X32257142Y-157326571D02*
X32199999Y-157440857D01*
X32199999Y-157440857D02*
X32142857Y-157498000D01*
X32142857Y-157498000D02*
X32028571Y-157555142D01*
X32028571Y-157555142D02*
X31742857Y-157555142D01*
X31742857Y-157555142D02*
X31628571Y-157498000D01*
X31628571Y-157498000D02*
X31571428Y-157440857D01*
X33285714Y-156755142D02*
X33285714Y-157555142D01*
X32771428Y-156755142D02*
X32771428Y-157383714D01*
X32771428Y-157383714D02*
X32828571Y-157498000D01*
X32828571Y-157498000D02*
X32942856Y-157555142D01*
X32942856Y-157555142D02*
X33114285Y-157555142D01*
X33114285Y-157555142D02*
X33228571Y-157498000D01*
X33228571Y-157498000D02*
X33285714Y-157440857D01*
X34657142Y-156355142D02*
X34942856Y-157555142D01*
X34942856Y-157555142D02*
X35171428Y-156698000D01*
X35171428Y-156698000D02*
X35399999Y-157555142D01*
X35399999Y-157555142D02*
X35685714Y-156355142D01*
X36142857Y-157555142D02*
X36142857Y-156755142D01*
X36142857Y-156355142D02*
X36085714Y-156412285D01*
X36085714Y-156412285D02*
X36142857Y-156469428D01*
X36142857Y-156469428D02*
X36200000Y-156412285D01*
X36200000Y-156412285D02*
X36142857Y-156355142D01*
X36142857Y-156355142D02*
X36142857Y-156469428D01*
X36714286Y-156755142D02*
X36714286Y-157555142D01*
X36714286Y-156869428D02*
X36771429Y-156812285D01*
X36771429Y-156812285D02*
X36885714Y-156755142D01*
X36885714Y-156755142D02*
X37057143Y-156755142D01*
X37057143Y-156755142D02*
X37171429Y-156812285D01*
X37171429Y-156812285D02*
X37228572Y-156926571D01*
X37228572Y-156926571D02*
X37228572Y-157555142D01*
X239557143Y-119155142D02*
X239157143Y-118583714D01*
X238871429Y-119155142D02*
X238871429Y-117955142D01*
X238871429Y-117955142D02*
X239328572Y-117955142D01*
X239328572Y-117955142D02*
X239442857Y-118012285D01*
X239442857Y-118012285D02*
X239500000Y-118069428D01*
X239500000Y-118069428D02*
X239557143Y-118183714D01*
X239557143Y-118183714D02*
X239557143Y-118355142D01*
X239557143Y-118355142D02*
X239500000Y-118469428D01*
X239500000Y-118469428D02*
X239442857Y-118526571D01*
X239442857Y-118526571D02*
X239328572Y-118583714D01*
X239328572Y-118583714D02*
X238871429Y-118583714D01*
X240071429Y-118526571D02*
X240471429Y-118526571D01*
X240642857Y-119155142D02*
X240071429Y-119155142D01*
X240071429Y-119155142D02*
X240071429Y-117955142D01*
X240071429Y-117955142D02*
X240642857Y-117955142D01*
X241100000Y-119098000D02*
X241271429Y-119155142D01*
X241271429Y-119155142D02*
X241557143Y-119155142D01*
X241557143Y-119155142D02*
X241671429Y-119098000D01*
X241671429Y-119098000D02*
X241728571Y-119040857D01*
X241728571Y-119040857D02*
X241785714Y-118926571D01*
X241785714Y-118926571D02*
X241785714Y-118812285D01*
X241785714Y-118812285D02*
X241728571Y-118698000D01*
X241728571Y-118698000D02*
X241671429Y-118640857D01*
X241671429Y-118640857D02*
X241557143Y-118583714D01*
X241557143Y-118583714D02*
X241328571Y-118526571D01*
X241328571Y-118526571D02*
X241214286Y-118469428D01*
X241214286Y-118469428D02*
X241157143Y-118412285D01*
X241157143Y-118412285D02*
X241100000Y-118298000D01*
X241100000Y-118298000D02*
X241100000Y-118183714D01*
X241100000Y-118183714D02*
X241157143Y-118069428D01*
X241157143Y-118069428D02*
X241214286Y-118012285D01*
X241214286Y-118012285D02*
X241328571Y-117955142D01*
X241328571Y-117955142D02*
X241614286Y-117955142D01*
X241614286Y-117955142D02*
X241785714Y-118012285D01*
X242300000Y-118526571D02*
X242700000Y-118526571D01*
X242871428Y-119155142D02*
X242300000Y-119155142D01*
X242300000Y-119155142D02*
X242300000Y-117955142D01*
X242300000Y-117955142D02*
X242871428Y-117955142D01*
X243214285Y-117955142D02*
X243900000Y-117955142D01*
X243557142Y-119155142D02*
X243557142Y-117955142D01*
X123871428Y-159055142D02*
X123185714Y-159055142D01*
X123528571Y-159055142D02*
X123528571Y-157855142D01*
X123528571Y-157855142D02*
X123414285Y-158026571D01*
X123414285Y-158026571D02*
X123300000Y-158140857D01*
X123300000Y-158140857D02*
X123185714Y-158198000D01*
X124385714Y-158940857D02*
X124442857Y-158998000D01*
X124442857Y-158998000D02*
X124385714Y-159055142D01*
X124385714Y-159055142D02*
X124328571Y-158998000D01*
X124328571Y-158998000D02*
X124385714Y-158940857D01*
X124385714Y-158940857D02*
X124385714Y-159055142D01*
X124900000Y-157969428D02*
X124957143Y-157912285D01*
X124957143Y-157912285D02*
X125071429Y-157855142D01*
X125071429Y-157855142D02*
X125357143Y-157855142D01*
X125357143Y-157855142D02*
X125471429Y-157912285D01*
X125471429Y-157912285D02*
X125528571Y-157969428D01*
X125528571Y-157969428D02*
X125585714Y-158083714D01*
X125585714Y-158083714D02*
X125585714Y-158198000D01*
X125585714Y-158198000D02*
X125528571Y-158369428D01*
X125528571Y-158369428D02*
X124842857Y-159055142D01*
X124842857Y-159055142D02*
X125585714Y-159055142D01*
X126671428Y-157855142D02*
X126100000Y-157855142D01*
X126100000Y-157855142D02*
X126042857Y-158426571D01*
X126042857Y-158426571D02*
X126100000Y-158369428D01*
X126100000Y-158369428D02*
X126214286Y-158312285D01*
X126214286Y-158312285D02*
X126500000Y-158312285D01*
X126500000Y-158312285D02*
X126614286Y-158369428D01*
X126614286Y-158369428D02*
X126671428Y-158426571D01*
X126671428Y-158426571D02*
X126728571Y-158540857D01*
X126728571Y-158540857D02*
X126728571Y-158826571D01*
X126728571Y-158826571D02*
X126671428Y-158940857D01*
X126671428Y-158940857D02*
X126614286Y-158998000D01*
X126614286Y-158998000D02*
X126500000Y-159055142D01*
X126500000Y-159055142D02*
X126214286Y-159055142D01*
X126214286Y-159055142D02*
X126100000Y-158998000D01*
X126100000Y-158998000D02*
X126042857Y-158940857D01*
X127757143Y-158255142D02*
X127757143Y-159055142D01*
X127242857Y-158255142D02*
X127242857Y-158883714D01*
X127242857Y-158883714D02*
X127300000Y-158998000D01*
X127300000Y-158998000D02*
X127414285Y-159055142D01*
X127414285Y-159055142D02*
X127585714Y-159055142D01*
X127585714Y-159055142D02*
X127700000Y-158998000D01*
X127700000Y-158998000D02*
X127757143Y-158940857D01*
X196171429Y-157555142D02*
X195485715Y-157555142D01*
X195828572Y-157555142D02*
X195828572Y-156355142D01*
X195828572Y-156355142D02*
X195714286Y-156526571D01*
X195714286Y-156526571D02*
X195600001Y-156640857D01*
X195600001Y-156640857D02*
X195485715Y-156698000D01*
X197200001Y-156755142D02*
X197200001Y-157555142D01*
X196685715Y-156755142D02*
X196685715Y-157383714D01*
X196685715Y-157383714D02*
X196742858Y-157498000D01*
X196742858Y-157498000D02*
X196857143Y-157555142D01*
X196857143Y-157555142D02*
X197028572Y-157555142D01*
X197028572Y-157555142D02*
X197142858Y-157498000D01*
X197142858Y-157498000D02*
X197200001Y-157440857D01*
X198628572Y-157212285D02*
X199200001Y-157212285D01*
X198514286Y-157555142D02*
X198914286Y-156355142D01*
X198914286Y-156355142D02*
X199314286Y-157555142D01*
X199885714Y-157555142D02*
X199771429Y-157498000D01*
X199771429Y-157498000D02*
X199714286Y-157383714D01*
X199714286Y-157383714D02*
X199714286Y-156355142D01*
X200171428Y-156755142D02*
X200628571Y-156755142D01*
X200342857Y-156355142D02*
X200342857Y-157383714D01*
X200342857Y-157383714D02*
X200400000Y-157498000D01*
X200400000Y-157498000D02*
X200514285Y-157555142D01*
X200514285Y-157555142D02*
X200628571Y-157555142D01*
X37314286Y-160055142D02*
X36628572Y-160055142D01*
X36971429Y-160055142D02*
X36971429Y-158855142D01*
X36971429Y-158855142D02*
X36857143Y-159026571D01*
X36857143Y-159026571D02*
X36742858Y-159140857D01*
X36742858Y-159140857D02*
X36628572Y-159198000D01*
X37828572Y-159940857D02*
X37885715Y-159998000D01*
X37885715Y-159998000D02*
X37828572Y-160055142D01*
X37828572Y-160055142D02*
X37771429Y-159998000D01*
X37771429Y-159998000D02*
X37828572Y-159940857D01*
X37828572Y-159940857D02*
X37828572Y-160055142D01*
X38971429Y-158855142D02*
X38400001Y-158855142D01*
X38400001Y-158855142D02*
X38342858Y-159426571D01*
X38342858Y-159426571D02*
X38400001Y-159369428D01*
X38400001Y-159369428D02*
X38514287Y-159312285D01*
X38514287Y-159312285D02*
X38800001Y-159312285D01*
X38800001Y-159312285D02*
X38914287Y-159369428D01*
X38914287Y-159369428D02*
X38971429Y-159426571D01*
X38971429Y-159426571D02*
X39028572Y-159540857D01*
X39028572Y-159540857D02*
X39028572Y-159826571D01*
X39028572Y-159826571D02*
X38971429Y-159940857D01*
X38971429Y-159940857D02*
X38914287Y-159998000D01*
X38914287Y-159998000D02*
X38800001Y-160055142D01*
X38800001Y-160055142D02*
X38514287Y-160055142D01*
X38514287Y-160055142D02*
X38400001Y-159998000D01*
X38400001Y-159998000D02*
X38342858Y-159940857D01*
X40057144Y-159255142D02*
X40057144Y-160055142D01*
X39542858Y-159255142D02*
X39542858Y-159883714D01*
X39542858Y-159883714D02*
X39600001Y-159998000D01*
X39600001Y-159998000D02*
X39714286Y-160055142D01*
X39714286Y-160055142D02*
X39885715Y-160055142D01*
X39885715Y-160055142D02*
X40000001Y-159998000D01*
X40000001Y-159998000D02*
X40057144Y-159940857D01*
X41485715Y-159712285D02*
X42057144Y-159712285D01*
X41371429Y-160055142D02*
X41771429Y-158855142D01*
X41771429Y-158855142D02*
X42171429Y-160055142D01*
X42742857Y-160055142D02*
X42628572Y-159998000D01*
X42628572Y-159998000D02*
X42571429Y-159883714D01*
X42571429Y-159883714D02*
X42571429Y-158855142D01*
X43028571Y-159255142D02*
X43485714Y-159255142D01*
X43200000Y-158855142D02*
X43200000Y-159883714D01*
X43200000Y-159883714D02*
X43257143Y-159998000D01*
X43257143Y-159998000D02*
X43371428Y-160055142D01*
X43371428Y-160055142D02*
X43485714Y-160055142D01*
X245357143Y-158555142D02*
X244671429Y-158555142D01*
X245014286Y-158555142D02*
X245014286Y-157355142D01*
X245014286Y-157355142D02*
X244900000Y-157526571D01*
X244900000Y-157526571D02*
X244785715Y-157640857D01*
X244785715Y-157640857D02*
X244671429Y-157698000D01*
X245871429Y-158440857D02*
X245928572Y-158498000D01*
X245928572Y-158498000D02*
X245871429Y-158555142D01*
X245871429Y-158555142D02*
X245814286Y-158498000D01*
X245814286Y-158498000D02*
X245871429Y-158440857D01*
X245871429Y-158440857D02*
X245871429Y-158555142D01*
X247014286Y-157355142D02*
X246442858Y-157355142D01*
X246442858Y-157355142D02*
X246385715Y-157926571D01*
X246385715Y-157926571D02*
X246442858Y-157869428D01*
X246442858Y-157869428D02*
X246557144Y-157812285D01*
X246557144Y-157812285D02*
X246842858Y-157812285D01*
X246842858Y-157812285D02*
X246957144Y-157869428D01*
X246957144Y-157869428D02*
X247014286Y-157926571D01*
X247014286Y-157926571D02*
X247071429Y-158040857D01*
X247071429Y-158040857D02*
X247071429Y-158326571D01*
X247071429Y-158326571D02*
X247014286Y-158440857D01*
X247014286Y-158440857D02*
X246957144Y-158498000D01*
X246957144Y-158498000D02*
X246842858Y-158555142D01*
X246842858Y-158555142D02*
X246557144Y-158555142D01*
X246557144Y-158555142D02*
X246442858Y-158498000D01*
X246442858Y-158498000D02*
X246385715Y-158440857D01*
X248100001Y-157755142D02*
X248100001Y-158555142D01*
X247585715Y-157755142D02*
X247585715Y-158383714D01*
X247585715Y-158383714D02*
X247642858Y-158498000D01*
X247642858Y-158498000D02*
X247757143Y-158555142D01*
X247757143Y-158555142D02*
X247928572Y-158555142D01*
X247928572Y-158555142D02*
X248042858Y-158498000D01*
X248042858Y-158498000D02*
X248100001Y-158440857D01*
X250271429Y-158440857D02*
X250214286Y-158498000D01*
X250214286Y-158498000D02*
X250042858Y-158555142D01*
X250042858Y-158555142D02*
X249928572Y-158555142D01*
X249928572Y-158555142D02*
X249757143Y-158498000D01*
X249757143Y-158498000D02*
X249642858Y-158383714D01*
X249642858Y-158383714D02*
X249585715Y-158269428D01*
X249585715Y-158269428D02*
X249528572Y-158040857D01*
X249528572Y-158040857D02*
X249528572Y-157869428D01*
X249528572Y-157869428D02*
X249585715Y-157640857D01*
X249585715Y-157640857D02*
X249642858Y-157526571D01*
X249642858Y-157526571D02*
X249757143Y-157412285D01*
X249757143Y-157412285D02*
X249928572Y-157355142D01*
X249928572Y-157355142D02*
X250042858Y-157355142D01*
X250042858Y-157355142D02*
X250214286Y-157412285D01*
X250214286Y-157412285D02*
X250271429Y-157469428D01*
X250614286Y-157755142D02*
X251071429Y-157755142D01*
X250785715Y-157355142D02*
X250785715Y-158383714D01*
X250785715Y-158383714D02*
X250842858Y-158498000D01*
X250842858Y-158498000D02*
X250957143Y-158555142D01*
X250957143Y-158555142D02*
X251071429Y-158555142D01*
X251471429Y-158555142D02*
X251471429Y-157755142D01*
X251471429Y-157983714D02*
X251528572Y-157869428D01*
X251528572Y-157869428D02*
X251585715Y-157812285D01*
X251585715Y-157812285D02*
X251700000Y-157755142D01*
X251700000Y-157755142D02*
X251814286Y-157755142D01*
X252385714Y-158555142D02*
X252271429Y-158498000D01*
X252271429Y-158498000D02*
X252214286Y-158383714D01*
X252214286Y-158383714D02*
X252214286Y-157355142D01*
X243214286Y-156555142D02*
X242528572Y-156555142D01*
X242871429Y-156555142D02*
X242871429Y-155355142D01*
X242871429Y-155355142D02*
X242757143Y-155526571D01*
X242757143Y-155526571D02*
X242642858Y-155640857D01*
X242642858Y-155640857D02*
X242528572Y-155698000D01*
X244242858Y-155755142D02*
X244242858Y-156555142D01*
X243728572Y-155755142D02*
X243728572Y-156383714D01*
X243728572Y-156383714D02*
X243785715Y-156498000D01*
X243785715Y-156498000D02*
X243900000Y-156555142D01*
X243900000Y-156555142D02*
X244071429Y-156555142D01*
X244071429Y-156555142D02*
X244185715Y-156498000D01*
X244185715Y-156498000D02*
X244242858Y-156440857D01*
X246414286Y-156440857D02*
X246357143Y-156498000D01*
X246357143Y-156498000D02*
X246185715Y-156555142D01*
X246185715Y-156555142D02*
X246071429Y-156555142D01*
X246071429Y-156555142D02*
X245900000Y-156498000D01*
X245900000Y-156498000D02*
X245785715Y-156383714D01*
X245785715Y-156383714D02*
X245728572Y-156269428D01*
X245728572Y-156269428D02*
X245671429Y-156040857D01*
X245671429Y-156040857D02*
X245671429Y-155869428D01*
X245671429Y-155869428D02*
X245728572Y-155640857D01*
X245728572Y-155640857D02*
X245785715Y-155526571D01*
X245785715Y-155526571D02*
X245900000Y-155412285D01*
X245900000Y-155412285D02*
X246071429Y-155355142D01*
X246071429Y-155355142D02*
X246185715Y-155355142D01*
X246185715Y-155355142D02*
X246357143Y-155412285D01*
X246357143Y-155412285D02*
X246414286Y-155469428D01*
X246757143Y-155755142D02*
X247214286Y-155755142D01*
X246928572Y-155355142D02*
X246928572Y-156383714D01*
X246928572Y-156383714D02*
X246985715Y-156498000D01*
X246985715Y-156498000D02*
X247100000Y-156555142D01*
X247100000Y-156555142D02*
X247214286Y-156555142D01*
X247614286Y-156555142D02*
X247614286Y-155755142D01*
X247614286Y-155983714D02*
X247671429Y-155869428D01*
X247671429Y-155869428D02*
X247728572Y-155812285D01*
X247728572Y-155812285D02*
X247842857Y-155755142D01*
X247842857Y-155755142D02*
X247957143Y-155755142D01*
X248528571Y-156555142D02*
X248414286Y-156498000D01*
X248414286Y-156498000D02*
X248357143Y-156383714D01*
X248357143Y-156383714D02*
X248357143Y-155355142D01*
M02*
