%TF.GenerationSoftware,KiCad,Pcbnew,7.0.5*%
%TF.CreationDate,2023-06-29T00:41:08-04:00*%
%TF.ProjectId,3DP-FR4-plate-top-reset-cutout,3344502d-4652-4342-9d70-6c6174652d74,rev?*%
%TF.SameCoordinates,Original*%
%TF.FileFunction,Legend,Top*%
%TF.FilePolarity,Positive*%
%FSLAX46Y46*%
G04 Gerber Fmt 4.6, Leading zero omitted, Abs format (unit mm)*
G04 Created by KiCad (PCBNEW 7.0.5) date 2023-06-29 00:41:08*
%MOMM*%
%LPD*%
G01*
G04 APERTURE LIST*
%ADD10C,0.150000*%
%ADD11C,0.200000*%
%ADD12C,0.300000*%
G04 APERTURE END LIST*
D10*
X14000000Y-151000000D02*
X14500000Y-150500000D01*
X202500000Y-151000000D02*
X203000000Y-150500000D01*
X133500000Y-150500000D02*
X133000000Y-151000000D01*
X236000000Y-150500000D02*
X236000000Y-153000000D01*
X203000000Y-157000000D02*
X201500000Y-157000000D01*
X14500000Y-157500000D02*
X14500000Y-150500000D01*
X207500000Y-150500000D02*
X207500000Y-159000000D01*
X126500000Y-150500000D02*
X126500000Y-156500000D01*
X17000000Y-150500000D02*
X16500000Y-151000000D01*
X129000000Y-150500000D02*
X128500000Y-151000000D01*
X14500000Y-150500000D02*
X14000000Y-151000000D01*
X45500000Y-151000000D02*
X46000000Y-151500000D01*
X38500000Y-151000000D02*
X39000000Y-151500000D01*
X207000000Y-151000000D02*
X207500000Y-150500000D01*
X241000000Y-150500000D02*
X241500000Y-151000000D01*
X241000000Y-150500000D02*
X241000000Y-156000000D01*
X45500000Y-151000000D02*
X45000000Y-151500000D01*
X207500000Y-150500000D02*
X208000000Y-151000000D01*
X236000000Y-150500000D02*
X236500000Y-151000000D01*
X241000000Y-156000000D02*
X242000000Y-156000000D01*
X236000000Y-153000000D02*
X239000000Y-153000000D01*
X126500000Y-150500000D02*
X126000000Y-151000000D01*
X129000000Y-150500000D02*
X129000000Y-158500000D01*
X126500000Y-156500000D02*
X122500000Y-156500000D01*
X239000000Y-153000000D02*
X239000000Y-158000000D01*
X128500000Y-151000000D02*
X129000000Y-150500000D01*
X133500000Y-150500000D02*
X133500000Y-158500000D01*
X17000000Y-159500000D02*
X17000000Y-150500000D01*
X126000000Y-151000000D02*
X126500000Y-150500000D01*
X207500000Y-150500000D02*
X207000000Y-151000000D01*
X16500000Y-151000000D02*
X17000000Y-150500000D01*
X45500000Y-151000000D02*
X45500000Y-159500000D01*
X240500000Y-151000000D02*
X241000000Y-150500000D01*
X133500000Y-158500000D02*
X135000000Y-158500000D01*
X239000000Y-158000000D02*
X244000000Y-158000000D01*
X129000000Y-158500000D02*
X128500000Y-158500000D01*
X207500000Y-159000000D02*
X206500000Y-159000000D01*
X14500000Y-151000000D02*
X14500000Y-150500000D01*
X241000000Y-150500000D02*
X240500000Y-151000000D01*
X17000000Y-150500000D02*
X17500000Y-151000000D01*
X236000000Y-150500000D02*
X235500000Y-151000000D01*
X236500000Y-151000000D02*
X236000000Y-150500000D01*
X38500000Y-157000000D02*
X38500000Y-151000000D01*
X17000000Y-159500000D02*
X16500000Y-159500000D01*
X38500000Y-151000000D02*
X38000000Y-151500000D01*
X14500000Y-150500000D02*
X15000000Y-151000000D01*
X129000000Y-150500000D02*
X129500000Y-151000000D01*
X38500000Y-157000000D02*
X38000000Y-157000000D01*
X203000000Y-150500000D02*
X203000000Y-157000000D01*
X203000000Y-150500000D02*
X202500000Y-151000000D01*
X203000000Y-150500000D02*
X203500000Y-151000000D01*
X38000000Y-151500000D02*
X38500000Y-151000000D01*
X14500000Y-157500000D02*
X14000000Y-157500000D01*
X133500000Y-150500000D02*
X134000000Y-151000000D01*
X45500000Y-159500000D02*
X44500000Y-159500000D01*
X127000000Y-151000000D02*
X126500000Y-150500000D01*
D11*
X5285714Y-158044742D02*
X4600000Y-158044742D01*
X4942857Y-158044742D02*
X4942857Y-156844742D01*
X4942857Y-156844742D02*
X4828571Y-157016171D01*
X4828571Y-157016171D02*
X4714286Y-157130457D01*
X4714286Y-157130457D02*
X4600000Y-157187600D01*
X5800000Y-157930457D02*
X5857143Y-157987600D01*
X5857143Y-157987600D02*
X5800000Y-158044742D01*
X5800000Y-158044742D02*
X5742857Y-157987600D01*
X5742857Y-157987600D02*
X5800000Y-157930457D01*
X5800000Y-157930457D02*
X5800000Y-158044742D01*
X6314286Y-156959028D02*
X6371429Y-156901885D01*
X6371429Y-156901885D02*
X6485715Y-156844742D01*
X6485715Y-156844742D02*
X6771429Y-156844742D01*
X6771429Y-156844742D02*
X6885715Y-156901885D01*
X6885715Y-156901885D02*
X6942857Y-156959028D01*
X6942857Y-156959028D02*
X7000000Y-157073314D01*
X7000000Y-157073314D02*
X7000000Y-157187600D01*
X7000000Y-157187600D02*
X6942857Y-157359028D01*
X6942857Y-157359028D02*
X6257143Y-158044742D01*
X6257143Y-158044742D02*
X7000000Y-158044742D01*
X8085714Y-156844742D02*
X7514286Y-156844742D01*
X7514286Y-156844742D02*
X7457143Y-157416171D01*
X7457143Y-157416171D02*
X7514286Y-157359028D01*
X7514286Y-157359028D02*
X7628572Y-157301885D01*
X7628572Y-157301885D02*
X7914286Y-157301885D01*
X7914286Y-157301885D02*
X8028572Y-157359028D01*
X8028572Y-157359028D02*
X8085714Y-157416171D01*
X8085714Y-157416171D02*
X8142857Y-157530457D01*
X8142857Y-157530457D02*
X8142857Y-157816171D01*
X8142857Y-157816171D02*
X8085714Y-157930457D01*
X8085714Y-157930457D02*
X8028572Y-157987600D01*
X8028572Y-157987600D02*
X7914286Y-158044742D01*
X7914286Y-158044742D02*
X7628572Y-158044742D01*
X7628572Y-158044742D02*
X7514286Y-157987600D01*
X7514286Y-157987600D02*
X7457143Y-157930457D01*
X9171429Y-157244742D02*
X9171429Y-158044742D01*
X8657143Y-157244742D02*
X8657143Y-157873314D01*
X8657143Y-157873314D02*
X8714286Y-157987600D01*
X8714286Y-157987600D02*
X8828571Y-158044742D01*
X8828571Y-158044742D02*
X9000000Y-158044742D01*
X9000000Y-158044742D02*
X9114286Y-157987600D01*
X9114286Y-157987600D02*
X9171429Y-157930457D01*
X11342857Y-157930457D02*
X11285714Y-157987600D01*
X11285714Y-157987600D02*
X11114286Y-158044742D01*
X11114286Y-158044742D02*
X11000000Y-158044742D01*
X11000000Y-158044742D02*
X10828571Y-157987600D01*
X10828571Y-157987600D02*
X10714286Y-157873314D01*
X10714286Y-157873314D02*
X10657143Y-157759028D01*
X10657143Y-157759028D02*
X10600000Y-157530457D01*
X10600000Y-157530457D02*
X10600000Y-157359028D01*
X10600000Y-157359028D02*
X10657143Y-157130457D01*
X10657143Y-157130457D02*
X10714286Y-157016171D01*
X10714286Y-157016171D02*
X10828571Y-156901885D01*
X10828571Y-156901885D02*
X11000000Y-156844742D01*
X11000000Y-156844742D02*
X11114286Y-156844742D01*
X11114286Y-156844742D02*
X11285714Y-156901885D01*
X11285714Y-156901885D02*
X11342857Y-156959028D01*
X11685714Y-157244742D02*
X12142857Y-157244742D01*
X11857143Y-156844742D02*
X11857143Y-157873314D01*
X11857143Y-157873314D02*
X11914286Y-157987600D01*
X11914286Y-157987600D02*
X12028571Y-158044742D01*
X12028571Y-158044742D02*
X12142857Y-158044742D01*
X12542857Y-158044742D02*
X12542857Y-157244742D01*
X12542857Y-157473314D02*
X12600000Y-157359028D01*
X12600000Y-157359028D02*
X12657143Y-157301885D01*
X12657143Y-157301885D02*
X12771428Y-157244742D01*
X12771428Y-157244742D02*
X12885714Y-157244742D01*
X13457142Y-158044742D02*
X13342857Y-157987600D01*
X13342857Y-157987600D02*
X13285714Y-157873314D01*
X13285714Y-157873314D02*
X13285714Y-156844742D01*
X136257143Y-157844742D02*
X136028571Y-157844742D01*
X136028571Y-157844742D02*
X135914285Y-157901885D01*
X135914285Y-157901885D02*
X135857143Y-157959028D01*
X135857143Y-157959028D02*
X135742857Y-158130457D01*
X135742857Y-158130457D02*
X135685714Y-158359028D01*
X135685714Y-158359028D02*
X135685714Y-158816171D01*
X135685714Y-158816171D02*
X135742857Y-158930457D01*
X135742857Y-158930457D02*
X135800000Y-158987600D01*
X135800000Y-158987600D02*
X135914285Y-159044742D01*
X135914285Y-159044742D02*
X136142857Y-159044742D01*
X136142857Y-159044742D02*
X136257143Y-158987600D01*
X136257143Y-158987600D02*
X136314285Y-158930457D01*
X136314285Y-158930457D02*
X136371428Y-158816171D01*
X136371428Y-158816171D02*
X136371428Y-158530457D01*
X136371428Y-158530457D02*
X136314285Y-158416171D01*
X136314285Y-158416171D02*
X136257143Y-158359028D01*
X136257143Y-158359028D02*
X136142857Y-158301885D01*
X136142857Y-158301885D02*
X135914285Y-158301885D01*
X135914285Y-158301885D02*
X135800000Y-158359028D01*
X135800000Y-158359028D02*
X135742857Y-158416171D01*
X135742857Y-158416171D02*
X135685714Y-158530457D01*
X136885714Y-158930457D02*
X136942857Y-158987600D01*
X136942857Y-158987600D02*
X136885714Y-159044742D01*
X136885714Y-159044742D02*
X136828571Y-158987600D01*
X136828571Y-158987600D02*
X136885714Y-158930457D01*
X136885714Y-158930457D02*
X136885714Y-159044742D01*
X137400000Y-157959028D02*
X137457143Y-157901885D01*
X137457143Y-157901885D02*
X137571429Y-157844742D01*
X137571429Y-157844742D02*
X137857143Y-157844742D01*
X137857143Y-157844742D02*
X137971429Y-157901885D01*
X137971429Y-157901885D02*
X138028571Y-157959028D01*
X138028571Y-157959028D02*
X138085714Y-158073314D01*
X138085714Y-158073314D02*
X138085714Y-158187600D01*
X138085714Y-158187600D02*
X138028571Y-158359028D01*
X138028571Y-158359028D02*
X137342857Y-159044742D01*
X137342857Y-159044742D02*
X138085714Y-159044742D01*
X139171428Y-157844742D02*
X138600000Y-157844742D01*
X138600000Y-157844742D02*
X138542857Y-158416171D01*
X138542857Y-158416171D02*
X138600000Y-158359028D01*
X138600000Y-158359028D02*
X138714286Y-158301885D01*
X138714286Y-158301885D02*
X139000000Y-158301885D01*
X139000000Y-158301885D02*
X139114286Y-158359028D01*
X139114286Y-158359028D02*
X139171428Y-158416171D01*
X139171428Y-158416171D02*
X139228571Y-158530457D01*
X139228571Y-158530457D02*
X139228571Y-158816171D01*
X139228571Y-158816171D02*
X139171428Y-158930457D01*
X139171428Y-158930457D02*
X139114286Y-158987600D01*
X139114286Y-158987600D02*
X139000000Y-159044742D01*
X139000000Y-159044742D02*
X138714286Y-159044742D01*
X138714286Y-159044742D02*
X138600000Y-158987600D01*
X138600000Y-158987600D02*
X138542857Y-158930457D01*
X140257143Y-158244742D02*
X140257143Y-159044742D01*
X139742857Y-158244742D02*
X139742857Y-158873314D01*
X139742857Y-158873314D02*
X139800000Y-158987600D01*
X139800000Y-158987600D02*
X139914285Y-159044742D01*
X139914285Y-159044742D02*
X140085714Y-159044742D01*
X140085714Y-159044742D02*
X140200000Y-158987600D01*
X140200000Y-158987600D02*
X140257143Y-158930457D01*
X120057143Y-155844742D02*
X120857143Y-155844742D01*
X120857143Y-155844742D02*
X120342857Y-157044742D01*
X121828572Y-156244742D02*
X121828572Y-157044742D01*
X121314286Y-156244742D02*
X121314286Y-156873314D01*
X121314286Y-156873314D02*
X121371429Y-156987600D01*
X121371429Y-156987600D02*
X121485714Y-157044742D01*
X121485714Y-157044742D02*
X121657143Y-157044742D01*
X121657143Y-157044742D02*
X121771429Y-156987600D01*
X121771429Y-156987600D02*
X121828572Y-156930457D01*
D12*
X46250000Y-154470828D02*
X47107143Y-154470828D01*
X46678571Y-155970828D02*
X46678571Y-154470828D01*
X48178571Y-155899400D02*
X48035714Y-155970828D01*
X48035714Y-155970828D02*
X47750000Y-155970828D01*
X47750000Y-155970828D02*
X47607142Y-155899400D01*
X47607142Y-155899400D02*
X47535714Y-155756542D01*
X47535714Y-155756542D02*
X47535714Y-155185114D01*
X47535714Y-155185114D02*
X47607142Y-155042257D01*
X47607142Y-155042257D02*
X47750000Y-154970828D01*
X47750000Y-154970828D02*
X48035714Y-154970828D01*
X48035714Y-154970828D02*
X48178571Y-155042257D01*
X48178571Y-155042257D02*
X48250000Y-155185114D01*
X48250000Y-155185114D02*
X48250000Y-155327971D01*
X48250000Y-155327971D02*
X47535714Y-155470828D01*
X48821428Y-155899400D02*
X48964285Y-155970828D01*
X48964285Y-155970828D02*
X49249999Y-155970828D01*
X49249999Y-155970828D02*
X49392856Y-155899400D01*
X49392856Y-155899400D02*
X49464285Y-155756542D01*
X49464285Y-155756542D02*
X49464285Y-155685114D01*
X49464285Y-155685114D02*
X49392856Y-155542257D01*
X49392856Y-155542257D02*
X49249999Y-155470828D01*
X49249999Y-155470828D02*
X49035714Y-155470828D01*
X49035714Y-155470828D02*
X48892856Y-155399400D01*
X48892856Y-155399400D02*
X48821428Y-155256542D01*
X48821428Y-155256542D02*
X48821428Y-155185114D01*
X48821428Y-155185114D02*
X48892856Y-155042257D01*
X48892856Y-155042257D02*
X49035714Y-154970828D01*
X49035714Y-154970828D02*
X49249999Y-154970828D01*
X49249999Y-154970828D02*
X49392856Y-155042257D01*
X49892857Y-154970828D02*
X50464285Y-154970828D01*
X50107142Y-154470828D02*
X50107142Y-155756542D01*
X50107142Y-155756542D02*
X50178571Y-155899400D01*
X50178571Y-155899400D02*
X50321428Y-155970828D01*
X50321428Y-155970828D02*
X50464285Y-155970828D01*
X51964285Y-154970828D02*
X52321428Y-155970828D01*
X52678571Y-154970828D02*
X52321428Y-155970828D01*
X52321428Y-155970828D02*
X52178571Y-156327971D01*
X52178571Y-156327971D02*
X52107142Y-156399400D01*
X52107142Y-156399400D02*
X51964285Y-156470828D01*
X53464285Y-155970828D02*
X53321428Y-155899400D01*
X53321428Y-155899400D02*
X53249999Y-155827971D01*
X53249999Y-155827971D02*
X53178571Y-155685114D01*
X53178571Y-155685114D02*
X53178571Y-155256542D01*
X53178571Y-155256542D02*
X53249999Y-155113685D01*
X53249999Y-155113685D02*
X53321428Y-155042257D01*
X53321428Y-155042257D02*
X53464285Y-154970828D01*
X53464285Y-154970828D02*
X53678571Y-154970828D01*
X53678571Y-154970828D02*
X53821428Y-155042257D01*
X53821428Y-155042257D02*
X53892857Y-155113685D01*
X53892857Y-155113685D02*
X53964285Y-155256542D01*
X53964285Y-155256542D02*
X53964285Y-155685114D01*
X53964285Y-155685114D02*
X53892857Y-155827971D01*
X53892857Y-155827971D02*
X53821428Y-155899400D01*
X53821428Y-155899400D02*
X53678571Y-155970828D01*
X53678571Y-155970828D02*
X53464285Y-155970828D01*
X55250000Y-154970828D02*
X55250000Y-155970828D01*
X54607142Y-154970828D02*
X54607142Y-155756542D01*
X54607142Y-155756542D02*
X54678571Y-155899400D01*
X54678571Y-155899400D02*
X54821428Y-155970828D01*
X54821428Y-155970828D02*
X55035714Y-155970828D01*
X55035714Y-155970828D02*
X55178571Y-155899400D01*
X55178571Y-155899400D02*
X55250000Y-155827971D01*
X55964285Y-155970828D02*
X55964285Y-154970828D01*
X55964285Y-155256542D02*
X56035714Y-155113685D01*
X56035714Y-155113685D02*
X56107143Y-155042257D01*
X56107143Y-155042257D02*
X56250000Y-154970828D01*
X56250000Y-154970828D02*
X56392857Y-154970828D01*
X58035713Y-155970828D02*
X58035713Y-154470828D01*
X58035713Y-155042257D02*
X58178571Y-154970828D01*
X58178571Y-154970828D02*
X58464285Y-154970828D01*
X58464285Y-154970828D02*
X58607142Y-155042257D01*
X58607142Y-155042257D02*
X58678571Y-155113685D01*
X58678571Y-155113685D02*
X58749999Y-155256542D01*
X58749999Y-155256542D02*
X58749999Y-155685114D01*
X58749999Y-155685114D02*
X58678571Y-155827971D01*
X58678571Y-155827971D02*
X58607142Y-155899400D01*
X58607142Y-155899400D02*
X58464285Y-155970828D01*
X58464285Y-155970828D02*
X58178571Y-155970828D01*
X58178571Y-155970828D02*
X58035713Y-155899400D01*
X59607142Y-155970828D02*
X59464285Y-155899400D01*
X59464285Y-155899400D02*
X59392856Y-155827971D01*
X59392856Y-155827971D02*
X59321428Y-155685114D01*
X59321428Y-155685114D02*
X59321428Y-155256542D01*
X59321428Y-155256542D02*
X59392856Y-155113685D01*
X59392856Y-155113685D02*
X59464285Y-155042257D01*
X59464285Y-155042257D02*
X59607142Y-154970828D01*
X59607142Y-154970828D02*
X59821428Y-154970828D01*
X59821428Y-154970828D02*
X59964285Y-155042257D01*
X59964285Y-155042257D02*
X60035714Y-155113685D01*
X60035714Y-155113685D02*
X60107142Y-155256542D01*
X60107142Y-155256542D02*
X60107142Y-155685114D01*
X60107142Y-155685114D02*
X60035714Y-155827971D01*
X60035714Y-155827971D02*
X59964285Y-155899400D01*
X59964285Y-155899400D02*
X59821428Y-155970828D01*
X59821428Y-155970828D02*
X59607142Y-155970828D01*
X60535714Y-154970828D02*
X61107142Y-154970828D01*
X60749999Y-154470828D02*
X60749999Y-155756542D01*
X60749999Y-155756542D02*
X60821428Y-155899400D01*
X60821428Y-155899400D02*
X60964285Y-155970828D01*
X60964285Y-155970828D02*
X61107142Y-155970828D01*
X61392857Y-154970828D02*
X61964285Y-154970828D01*
X61607142Y-154470828D02*
X61607142Y-155756542D01*
X61607142Y-155756542D02*
X61678571Y-155899400D01*
X61678571Y-155899400D02*
X61821428Y-155970828D01*
X61821428Y-155970828D02*
X61964285Y-155970828D01*
X62678571Y-155970828D02*
X62535714Y-155899400D01*
X62535714Y-155899400D02*
X62464285Y-155827971D01*
X62464285Y-155827971D02*
X62392857Y-155685114D01*
X62392857Y-155685114D02*
X62392857Y-155256542D01*
X62392857Y-155256542D02*
X62464285Y-155113685D01*
X62464285Y-155113685D02*
X62535714Y-155042257D01*
X62535714Y-155042257D02*
X62678571Y-154970828D01*
X62678571Y-154970828D02*
X62892857Y-154970828D01*
X62892857Y-154970828D02*
X63035714Y-155042257D01*
X63035714Y-155042257D02*
X63107143Y-155113685D01*
X63107143Y-155113685D02*
X63178571Y-155256542D01*
X63178571Y-155256542D02*
X63178571Y-155685114D01*
X63178571Y-155685114D02*
X63107143Y-155827971D01*
X63107143Y-155827971D02*
X63035714Y-155899400D01*
X63035714Y-155899400D02*
X62892857Y-155970828D01*
X62892857Y-155970828D02*
X62678571Y-155970828D01*
X63821428Y-155970828D02*
X63821428Y-154970828D01*
X63821428Y-155113685D02*
X63892857Y-155042257D01*
X63892857Y-155042257D02*
X64035714Y-154970828D01*
X64035714Y-154970828D02*
X64250000Y-154970828D01*
X64250000Y-154970828D02*
X64392857Y-155042257D01*
X64392857Y-155042257D02*
X64464286Y-155185114D01*
X64464286Y-155185114D02*
X64464286Y-155970828D01*
X64464286Y-155185114D02*
X64535714Y-155042257D01*
X64535714Y-155042257D02*
X64678571Y-154970828D01*
X64678571Y-154970828D02*
X64892857Y-154970828D01*
X64892857Y-154970828D02*
X65035714Y-155042257D01*
X65035714Y-155042257D02*
X65107143Y-155185114D01*
X65107143Y-155185114D02*
X65107143Y-155970828D01*
X66964285Y-155970828D02*
X66964285Y-154970828D01*
X66964285Y-155256542D02*
X67035714Y-155113685D01*
X67035714Y-155113685D02*
X67107143Y-155042257D01*
X67107143Y-155042257D02*
X67250000Y-154970828D01*
X67250000Y-154970828D02*
X67392857Y-154970828D01*
X68107142Y-155970828D02*
X67964285Y-155899400D01*
X67964285Y-155899400D02*
X67892856Y-155827971D01*
X67892856Y-155827971D02*
X67821428Y-155685114D01*
X67821428Y-155685114D02*
X67821428Y-155256542D01*
X67821428Y-155256542D02*
X67892856Y-155113685D01*
X67892856Y-155113685D02*
X67964285Y-155042257D01*
X67964285Y-155042257D02*
X68107142Y-154970828D01*
X68107142Y-154970828D02*
X68321428Y-154970828D01*
X68321428Y-154970828D02*
X68464285Y-155042257D01*
X68464285Y-155042257D02*
X68535714Y-155113685D01*
X68535714Y-155113685D02*
X68607142Y-155256542D01*
X68607142Y-155256542D02*
X68607142Y-155685114D01*
X68607142Y-155685114D02*
X68535714Y-155827971D01*
X68535714Y-155827971D02*
X68464285Y-155899400D01*
X68464285Y-155899400D02*
X68321428Y-155970828D01*
X68321428Y-155970828D02*
X68107142Y-155970828D01*
X69107142Y-154970828D02*
X69392857Y-155970828D01*
X69392857Y-155970828D02*
X69678571Y-155256542D01*
X69678571Y-155256542D02*
X69964285Y-155970828D01*
X69964285Y-155970828D02*
X70249999Y-154970828D01*
X71964285Y-155970828D02*
X71964285Y-154470828D01*
X71964285Y-155042257D02*
X72107143Y-154970828D01*
X72107143Y-154970828D02*
X72392857Y-154970828D01*
X72392857Y-154970828D02*
X72535714Y-155042257D01*
X72535714Y-155042257D02*
X72607143Y-155113685D01*
X72607143Y-155113685D02*
X72678571Y-155256542D01*
X72678571Y-155256542D02*
X72678571Y-155685114D01*
X72678571Y-155685114D02*
X72607143Y-155827971D01*
X72607143Y-155827971D02*
X72535714Y-155899400D01*
X72535714Y-155899400D02*
X72392857Y-155970828D01*
X72392857Y-155970828D02*
X72107143Y-155970828D01*
X72107143Y-155970828D02*
X71964285Y-155899400D01*
X73178571Y-154970828D02*
X73535714Y-155970828D01*
X73892857Y-154970828D02*
X73535714Y-155970828D01*
X73535714Y-155970828D02*
X73392857Y-156327971D01*
X73392857Y-156327971D02*
X73321428Y-156399400D01*
X73321428Y-156399400D02*
X73178571Y-156470828D01*
X75607142Y-155970828D02*
X75607142Y-154970828D01*
X75607142Y-154470828D02*
X75535714Y-154542257D01*
X75535714Y-154542257D02*
X75607142Y-154613685D01*
X75607142Y-154613685D02*
X75678571Y-154542257D01*
X75678571Y-154542257D02*
X75607142Y-154470828D01*
X75607142Y-154470828D02*
X75607142Y-154613685D01*
X76321428Y-154970828D02*
X76321428Y-155970828D01*
X76321428Y-155113685D02*
X76392857Y-155042257D01*
X76392857Y-155042257D02*
X76535714Y-154970828D01*
X76535714Y-154970828D02*
X76750000Y-154970828D01*
X76750000Y-154970828D02*
X76892857Y-155042257D01*
X76892857Y-155042257D02*
X76964286Y-155185114D01*
X76964286Y-155185114D02*
X76964286Y-155970828D01*
X77607143Y-155899400D02*
X77750000Y-155970828D01*
X77750000Y-155970828D02*
X78035714Y-155970828D01*
X78035714Y-155970828D02*
X78178571Y-155899400D01*
X78178571Y-155899400D02*
X78250000Y-155756542D01*
X78250000Y-155756542D02*
X78250000Y-155685114D01*
X78250000Y-155685114D02*
X78178571Y-155542257D01*
X78178571Y-155542257D02*
X78035714Y-155470828D01*
X78035714Y-155470828D02*
X77821429Y-155470828D01*
X77821429Y-155470828D02*
X77678571Y-155399400D01*
X77678571Y-155399400D02*
X77607143Y-155256542D01*
X77607143Y-155256542D02*
X77607143Y-155185114D01*
X77607143Y-155185114D02*
X77678571Y-155042257D01*
X77678571Y-155042257D02*
X77821429Y-154970828D01*
X77821429Y-154970828D02*
X78035714Y-154970828D01*
X78035714Y-154970828D02*
X78178571Y-155042257D01*
X78678572Y-154970828D02*
X79250000Y-154970828D01*
X78892857Y-154470828D02*
X78892857Y-155756542D01*
X78892857Y-155756542D02*
X78964286Y-155899400D01*
X78964286Y-155899400D02*
X79107143Y-155970828D01*
X79107143Y-155970828D02*
X79250000Y-155970828D01*
X80392858Y-155970828D02*
X80392858Y-155185114D01*
X80392858Y-155185114D02*
X80321429Y-155042257D01*
X80321429Y-155042257D02*
X80178572Y-154970828D01*
X80178572Y-154970828D02*
X79892858Y-154970828D01*
X79892858Y-154970828D02*
X79750000Y-155042257D01*
X80392858Y-155899400D02*
X80250000Y-155970828D01*
X80250000Y-155970828D02*
X79892858Y-155970828D01*
X79892858Y-155970828D02*
X79750000Y-155899400D01*
X79750000Y-155899400D02*
X79678572Y-155756542D01*
X79678572Y-155756542D02*
X79678572Y-155613685D01*
X79678572Y-155613685D02*
X79750000Y-155470828D01*
X79750000Y-155470828D02*
X79892858Y-155399400D01*
X79892858Y-155399400D02*
X80250000Y-155399400D01*
X80250000Y-155399400D02*
X80392858Y-155327971D01*
X81321429Y-155970828D02*
X81178572Y-155899400D01*
X81178572Y-155899400D02*
X81107143Y-155756542D01*
X81107143Y-155756542D02*
X81107143Y-154470828D01*
X82107143Y-155970828D02*
X81964286Y-155899400D01*
X81964286Y-155899400D02*
X81892857Y-155756542D01*
X81892857Y-155756542D02*
X81892857Y-154470828D01*
X82678571Y-155970828D02*
X82678571Y-154970828D01*
X82678571Y-154470828D02*
X82607143Y-154542257D01*
X82607143Y-154542257D02*
X82678571Y-154613685D01*
X82678571Y-154613685D02*
X82750000Y-154542257D01*
X82750000Y-154542257D02*
X82678571Y-154470828D01*
X82678571Y-154470828D02*
X82678571Y-154613685D01*
X83392857Y-154970828D02*
X83392857Y-155970828D01*
X83392857Y-155113685D02*
X83464286Y-155042257D01*
X83464286Y-155042257D02*
X83607143Y-154970828D01*
X83607143Y-154970828D02*
X83821429Y-154970828D01*
X83821429Y-154970828D02*
X83964286Y-155042257D01*
X83964286Y-155042257D02*
X84035715Y-155185114D01*
X84035715Y-155185114D02*
X84035715Y-155970828D01*
X85392858Y-154970828D02*
X85392858Y-156185114D01*
X85392858Y-156185114D02*
X85321429Y-156327971D01*
X85321429Y-156327971D02*
X85250000Y-156399400D01*
X85250000Y-156399400D02*
X85107143Y-156470828D01*
X85107143Y-156470828D02*
X84892858Y-156470828D01*
X84892858Y-156470828D02*
X84750000Y-156399400D01*
X85392858Y-155899400D02*
X85250000Y-155970828D01*
X85250000Y-155970828D02*
X84964286Y-155970828D01*
X84964286Y-155970828D02*
X84821429Y-155899400D01*
X84821429Y-155899400D02*
X84750000Y-155827971D01*
X84750000Y-155827971D02*
X84678572Y-155685114D01*
X84678572Y-155685114D02*
X84678572Y-155256542D01*
X84678572Y-155256542D02*
X84750000Y-155113685D01*
X84750000Y-155113685D02*
X84821429Y-155042257D01*
X84821429Y-155042257D02*
X84964286Y-154970828D01*
X84964286Y-154970828D02*
X85250000Y-154970828D01*
X85250000Y-154970828D02*
X85392858Y-155042257D01*
X46892856Y-158385828D02*
X46892856Y-156885828D01*
X47035714Y-157814400D02*
X47464285Y-158385828D01*
X47464285Y-157385828D02*
X46892856Y-157957257D01*
X48678571Y-158314400D02*
X48535714Y-158385828D01*
X48535714Y-158385828D02*
X48250000Y-158385828D01*
X48250000Y-158385828D02*
X48107142Y-158314400D01*
X48107142Y-158314400D02*
X48035714Y-158171542D01*
X48035714Y-158171542D02*
X48035714Y-157600114D01*
X48035714Y-157600114D02*
X48107142Y-157457257D01*
X48107142Y-157457257D02*
X48250000Y-157385828D01*
X48250000Y-157385828D02*
X48535714Y-157385828D01*
X48535714Y-157385828D02*
X48678571Y-157457257D01*
X48678571Y-157457257D02*
X48750000Y-157600114D01*
X48750000Y-157600114D02*
X48750000Y-157742971D01*
X48750000Y-157742971D02*
X48035714Y-157885828D01*
X49249999Y-157385828D02*
X49607142Y-158385828D01*
X49964285Y-157385828D02*
X49607142Y-158385828D01*
X49607142Y-158385828D02*
X49464285Y-158742971D01*
X49464285Y-158742971D02*
X49392856Y-158814400D01*
X49392856Y-158814400D02*
X49249999Y-158885828D01*
X51178571Y-158314400D02*
X51035713Y-158385828D01*
X51035713Y-158385828D02*
X50749999Y-158385828D01*
X50749999Y-158385828D02*
X50607142Y-158314400D01*
X50607142Y-158314400D02*
X50535713Y-158242971D01*
X50535713Y-158242971D02*
X50464285Y-158100114D01*
X50464285Y-158100114D02*
X50464285Y-157671542D01*
X50464285Y-157671542D02*
X50535713Y-157528685D01*
X50535713Y-157528685D02*
X50607142Y-157457257D01*
X50607142Y-157457257D02*
X50749999Y-157385828D01*
X50749999Y-157385828D02*
X51035713Y-157385828D01*
X51035713Y-157385828D02*
X51178571Y-157457257D01*
X52464285Y-158385828D02*
X52464285Y-157600114D01*
X52464285Y-157600114D02*
X52392856Y-157457257D01*
X52392856Y-157457257D02*
X52249999Y-157385828D01*
X52249999Y-157385828D02*
X51964285Y-157385828D01*
X51964285Y-157385828D02*
X51821427Y-157457257D01*
X52464285Y-158314400D02*
X52321427Y-158385828D01*
X52321427Y-158385828D02*
X51964285Y-158385828D01*
X51964285Y-158385828D02*
X51821427Y-158314400D01*
X51821427Y-158314400D02*
X51749999Y-158171542D01*
X51749999Y-158171542D02*
X51749999Y-158028685D01*
X51749999Y-158028685D02*
X51821427Y-157885828D01*
X51821427Y-157885828D02*
X51964285Y-157814400D01*
X51964285Y-157814400D02*
X52321427Y-157814400D01*
X52321427Y-157814400D02*
X52464285Y-157742971D01*
X53178570Y-157385828D02*
X53178570Y-158885828D01*
X53178570Y-157457257D02*
X53321428Y-157385828D01*
X53321428Y-157385828D02*
X53607142Y-157385828D01*
X53607142Y-157385828D02*
X53749999Y-157457257D01*
X53749999Y-157457257D02*
X53821428Y-157528685D01*
X53821428Y-157528685D02*
X53892856Y-157671542D01*
X53892856Y-157671542D02*
X53892856Y-158100114D01*
X53892856Y-158100114D02*
X53821428Y-158242971D01*
X53821428Y-158242971D02*
X53749999Y-158314400D01*
X53749999Y-158314400D02*
X53607142Y-158385828D01*
X53607142Y-158385828D02*
X53321428Y-158385828D01*
X53321428Y-158385828D02*
X53178570Y-158314400D01*
X54464285Y-158314400D02*
X54607142Y-158385828D01*
X54607142Y-158385828D02*
X54892856Y-158385828D01*
X54892856Y-158385828D02*
X55035713Y-158314400D01*
X55035713Y-158314400D02*
X55107142Y-158171542D01*
X55107142Y-158171542D02*
X55107142Y-158100114D01*
X55107142Y-158100114D02*
X55035713Y-157957257D01*
X55035713Y-157957257D02*
X54892856Y-157885828D01*
X54892856Y-157885828D02*
X54678571Y-157885828D01*
X54678571Y-157885828D02*
X54535713Y-157814400D01*
X54535713Y-157814400D02*
X54464285Y-157671542D01*
X54464285Y-157671542D02*
X54464285Y-157600114D01*
X54464285Y-157600114D02*
X54535713Y-157457257D01*
X54535713Y-157457257D02*
X54678571Y-157385828D01*
X54678571Y-157385828D02*
X54892856Y-157385828D01*
X54892856Y-157385828D02*
X55035713Y-157457257D01*
X56892856Y-158385828D02*
X56892856Y-156885828D01*
X56892856Y-157457257D02*
X57035714Y-157385828D01*
X57035714Y-157385828D02*
X57321428Y-157385828D01*
X57321428Y-157385828D02*
X57464285Y-157457257D01*
X57464285Y-157457257D02*
X57535714Y-157528685D01*
X57535714Y-157528685D02*
X57607142Y-157671542D01*
X57607142Y-157671542D02*
X57607142Y-158100114D01*
X57607142Y-158100114D02*
X57535714Y-158242971D01*
X57535714Y-158242971D02*
X57464285Y-158314400D01*
X57464285Y-158314400D02*
X57321428Y-158385828D01*
X57321428Y-158385828D02*
X57035714Y-158385828D01*
X57035714Y-158385828D02*
X56892856Y-158314400D01*
X58821428Y-158314400D02*
X58678571Y-158385828D01*
X58678571Y-158385828D02*
X58392857Y-158385828D01*
X58392857Y-158385828D02*
X58249999Y-158314400D01*
X58249999Y-158314400D02*
X58178571Y-158171542D01*
X58178571Y-158171542D02*
X58178571Y-157600114D01*
X58178571Y-157600114D02*
X58249999Y-157457257D01*
X58249999Y-157457257D02*
X58392857Y-157385828D01*
X58392857Y-157385828D02*
X58678571Y-157385828D01*
X58678571Y-157385828D02*
X58821428Y-157457257D01*
X58821428Y-157457257D02*
X58892857Y-157600114D01*
X58892857Y-157600114D02*
X58892857Y-157742971D01*
X58892857Y-157742971D02*
X58178571Y-157885828D01*
X59321428Y-157385828D02*
X59892856Y-157385828D01*
X59535713Y-158385828D02*
X59535713Y-157100114D01*
X59535713Y-157100114D02*
X59607142Y-156957257D01*
X59607142Y-156957257D02*
X59749999Y-156885828D01*
X59749999Y-156885828D02*
X59892856Y-156885828D01*
X60607142Y-158385828D02*
X60464285Y-158314400D01*
X60464285Y-158314400D02*
X60392856Y-158242971D01*
X60392856Y-158242971D02*
X60321428Y-158100114D01*
X60321428Y-158100114D02*
X60321428Y-157671542D01*
X60321428Y-157671542D02*
X60392856Y-157528685D01*
X60392856Y-157528685D02*
X60464285Y-157457257D01*
X60464285Y-157457257D02*
X60607142Y-157385828D01*
X60607142Y-157385828D02*
X60821428Y-157385828D01*
X60821428Y-157385828D02*
X60964285Y-157457257D01*
X60964285Y-157457257D02*
X61035714Y-157528685D01*
X61035714Y-157528685D02*
X61107142Y-157671542D01*
X61107142Y-157671542D02*
X61107142Y-158100114D01*
X61107142Y-158100114D02*
X61035714Y-158242971D01*
X61035714Y-158242971D02*
X60964285Y-158314400D01*
X60964285Y-158314400D02*
X60821428Y-158385828D01*
X60821428Y-158385828D02*
X60607142Y-158385828D01*
X61749999Y-158385828D02*
X61749999Y-157385828D01*
X61749999Y-157671542D02*
X61821428Y-157528685D01*
X61821428Y-157528685D02*
X61892857Y-157457257D01*
X61892857Y-157457257D02*
X62035714Y-157385828D01*
X62035714Y-157385828D02*
X62178571Y-157385828D01*
X63249999Y-158314400D02*
X63107142Y-158385828D01*
X63107142Y-158385828D02*
X62821428Y-158385828D01*
X62821428Y-158385828D02*
X62678570Y-158314400D01*
X62678570Y-158314400D02*
X62607142Y-158171542D01*
X62607142Y-158171542D02*
X62607142Y-157600114D01*
X62607142Y-157600114D02*
X62678570Y-157457257D01*
X62678570Y-157457257D02*
X62821428Y-157385828D01*
X62821428Y-157385828D02*
X63107142Y-157385828D01*
X63107142Y-157385828D02*
X63249999Y-157457257D01*
X63249999Y-157457257D02*
X63321428Y-157600114D01*
X63321428Y-157600114D02*
X63321428Y-157742971D01*
X63321428Y-157742971D02*
X62607142Y-157885828D01*
X65035713Y-158314400D02*
X65178570Y-158385828D01*
X65178570Y-158385828D02*
X65464284Y-158385828D01*
X65464284Y-158385828D02*
X65607141Y-158314400D01*
X65607141Y-158314400D02*
X65678570Y-158171542D01*
X65678570Y-158171542D02*
X65678570Y-158100114D01*
X65678570Y-158100114D02*
X65607141Y-157957257D01*
X65607141Y-157957257D02*
X65464284Y-157885828D01*
X65464284Y-157885828D02*
X65249999Y-157885828D01*
X65249999Y-157885828D02*
X65107141Y-157814400D01*
X65107141Y-157814400D02*
X65035713Y-157671542D01*
X65035713Y-157671542D02*
X65035713Y-157600114D01*
X65035713Y-157600114D02*
X65107141Y-157457257D01*
X65107141Y-157457257D02*
X65249999Y-157385828D01*
X65249999Y-157385828D02*
X65464284Y-157385828D01*
X65464284Y-157385828D02*
X65607141Y-157457257D01*
X66535713Y-158385828D02*
X66392856Y-158314400D01*
X66392856Y-158314400D02*
X66321427Y-158242971D01*
X66321427Y-158242971D02*
X66249999Y-158100114D01*
X66249999Y-158100114D02*
X66249999Y-157671542D01*
X66249999Y-157671542D02*
X66321427Y-157528685D01*
X66321427Y-157528685D02*
X66392856Y-157457257D01*
X66392856Y-157457257D02*
X66535713Y-157385828D01*
X66535713Y-157385828D02*
X66749999Y-157385828D01*
X66749999Y-157385828D02*
X66892856Y-157457257D01*
X66892856Y-157457257D02*
X66964285Y-157528685D01*
X66964285Y-157528685D02*
X67035713Y-157671542D01*
X67035713Y-157671542D02*
X67035713Y-158100114D01*
X67035713Y-158100114D02*
X66964285Y-158242971D01*
X66964285Y-158242971D02*
X66892856Y-158314400D01*
X66892856Y-158314400D02*
X66749999Y-158385828D01*
X66749999Y-158385828D02*
X66535713Y-158385828D01*
X67892856Y-158385828D02*
X67749999Y-158314400D01*
X67749999Y-158314400D02*
X67678570Y-158171542D01*
X67678570Y-158171542D02*
X67678570Y-156885828D01*
X69107142Y-158385828D02*
X69107142Y-156885828D01*
X69107142Y-158314400D02*
X68964284Y-158385828D01*
X68964284Y-158385828D02*
X68678570Y-158385828D01*
X68678570Y-158385828D02*
X68535713Y-158314400D01*
X68535713Y-158314400D02*
X68464284Y-158242971D01*
X68464284Y-158242971D02*
X68392856Y-158100114D01*
X68392856Y-158100114D02*
X68392856Y-157671542D01*
X68392856Y-157671542D02*
X68464284Y-157528685D01*
X68464284Y-157528685D02*
X68535713Y-157457257D01*
X68535713Y-157457257D02*
X68678570Y-157385828D01*
X68678570Y-157385828D02*
X68964284Y-157385828D01*
X68964284Y-157385828D02*
X69107142Y-157457257D01*
X70392856Y-158314400D02*
X70249999Y-158385828D01*
X70249999Y-158385828D02*
X69964285Y-158385828D01*
X69964285Y-158385828D02*
X69821427Y-158314400D01*
X69821427Y-158314400D02*
X69749999Y-158171542D01*
X69749999Y-158171542D02*
X69749999Y-157600114D01*
X69749999Y-157600114D02*
X69821427Y-157457257D01*
X69821427Y-157457257D02*
X69964285Y-157385828D01*
X69964285Y-157385828D02*
X70249999Y-157385828D01*
X70249999Y-157385828D02*
X70392856Y-157457257D01*
X70392856Y-157457257D02*
X70464285Y-157600114D01*
X70464285Y-157600114D02*
X70464285Y-157742971D01*
X70464285Y-157742971D02*
X69749999Y-157885828D01*
X71107141Y-158385828D02*
X71107141Y-157385828D01*
X71107141Y-157671542D02*
X71178570Y-157528685D01*
X71178570Y-157528685D02*
X71249999Y-157457257D01*
X71249999Y-157457257D02*
X71392856Y-157385828D01*
X71392856Y-157385828D02*
X71535713Y-157385828D01*
X72035712Y-158385828D02*
X72035712Y-157385828D01*
X72035712Y-156885828D02*
X71964284Y-156957257D01*
X71964284Y-156957257D02*
X72035712Y-157028685D01*
X72035712Y-157028685D02*
X72107141Y-156957257D01*
X72107141Y-156957257D02*
X72035712Y-156885828D01*
X72035712Y-156885828D02*
X72035712Y-157028685D01*
X72749998Y-157385828D02*
X72749998Y-158385828D01*
X72749998Y-157528685D02*
X72821427Y-157457257D01*
X72821427Y-157457257D02*
X72964284Y-157385828D01*
X72964284Y-157385828D02*
X73178570Y-157385828D01*
X73178570Y-157385828D02*
X73321427Y-157457257D01*
X73321427Y-157457257D02*
X73392856Y-157600114D01*
X73392856Y-157600114D02*
X73392856Y-158385828D01*
X74749999Y-157385828D02*
X74749999Y-158600114D01*
X74749999Y-158600114D02*
X74678570Y-158742971D01*
X74678570Y-158742971D02*
X74607141Y-158814400D01*
X74607141Y-158814400D02*
X74464284Y-158885828D01*
X74464284Y-158885828D02*
X74249999Y-158885828D01*
X74249999Y-158885828D02*
X74107141Y-158814400D01*
X74749999Y-158314400D02*
X74607141Y-158385828D01*
X74607141Y-158385828D02*
X74321427Y-158385828D01*
X74321427Y-158385828D02*
X74178570Y-158314400D01*
X74178570Y-158314400D02*
X74107141Y-158242971D01*
X74107141Y-158242971D02*
X74035713Y-158100114D01*
X74035713Y-158100114D02*
X74035713Y-157671542D01*
X74035713Y-157671542D02*
X74107141Y-157528685D01*
X74107141Y-157528685D02*
X74178570Y-157457257D01*
X74178570Y-157457257D02*
X74321427Y-157385828D01*
X74321427Y-157385828D02*
X74607141Y-157385828D01*
X74607141Y-157385828D02*
X74749999Y-157457257D01*
X76535713Y-158314400D02*
X76678570Y-158385828D01*
X76678570Y-158385828D02*
X76964284Y-158385828D01*
X76964284Y-158385828D02*
X77107141Y-158314400D01*
X77107141Y-158314400D02*
X77178570Y-158171542D01*
X77178570Y-158171542D02*
X77178570Y-158100114D01*
X77178570Y-158100114D02*
X77107141Y-157957257D01*
X77107141Y-157957257D02*
X76964284Y-157885828D01*
X76964284Y-157885828D02*
X76749999Y-157885828D01*
X76749999Y-157885828D02*
X76607141Y-157814400D01*
X76607141Y-157814400D02*
X76535713Y-157671542D01*
X76535713Y-157671542D02*
X76535713Y-157600114D01*
X76535713Y-157600114D02*
X76607141Y-157457257D01*
X76607141Y-157457257D02*
X76749999Y-157385828D01*
X76749999Y-157385828D02*
X76964284Y-157385828D01*
X76964284Y-157385828D02*
X77107141Y-157457257D01*
X77678570Y-157385828D02*
X77964285Y-158385828D01*
X77964285Y-158385828D02*
X78249999Y-157671542D01*
X78249999Y-157671542D02*
X78535713Y-158385828D01*
X78535713Y-158385828D02*
X78821427Y-157385828D01*
X79392856Y-158385828D02*
X79392856Y-157385828D01*
X79392856Y-156885828D02*
X79321428Y-156957257D01*
X79321428Y-156957257D02*
X79392856Y-157028685D01*
X79392856Y-157028685D02*
X79464285Y-156957257D01*
X79464285Y-156957257D02*
X79392856Y-156885828D01*
X79392856Y-156885828D02*
X79392856Y-157028685D01*
X79892857Y-157385828D02*
X80464285Y-157385828D01*
X80107142Y-156885828D02*
X80107142Y-158171542D01*
X80107142Y-158171542D02*
X80178571Y-158314400D01*
X80178571Y-158314400D02*
X80321428Y-158385828D01*
X80321428Y-158385828D02*
X80464285Y-158385828D01*
X81607143Y-158314400D02*
X81464285Y-158385828D01*
X81464285Y-158385828D02*
X81178571Y-158385828D01*
X81178571Y-158385828D02*
X81035714Y-158314400D01*
X81035714Y-158314400D02*
X80964285Y-158242971D01*
X80964285Y-158242971D02*
X80892857Y-158100114D01*
X80892857Y-158100114D02*
X80892857Y-157671542D01*
X80892857Y-157671542D02*
X80964285Y-157528685D01*
X80964285Y-157528685D02*
X81035714Y-157457257D01*
X81035714Y-157457257D02*
X81178571Y-157385828D01*
X81178571Y-157385828D02*
X81464285Y-157385828D01*
X81464285Y-157385828D02*
X81607143Y-157457257D01*
X82249999Y-158385828D02*
X82249999Y-156885828D01*
X82892857Y-158385828D02*
X82892857Y-157600114D01*
X82892857Y-157600114D02*
X82821428Y-157457257D01*
X82821428Y-157457257D02*
X82678571Y-157385828D01*
X82678571Y-157385828D02*
X82464285Y-157385828D01*
X82464285Y-157385828D02*
X82321428Y-157457257D01*
X82321428Y-157457257D02*
X82249999Y-157528685D01*
X84178571Y-158314400D02*
X84035714Y-158385828D01*
X84035714Y-158385828D02*
X83750000Y-158385828D01*
X83750000Y-158385828D02*
X83607142Y-158314400D01*
X83607142Y-158314400D02*
X83535714Y-158171542D01*
X83535714Y-158171542D02*
X83535714Y-157600114D01*
X83535714Y-157600114D02*
X83607142Y-157457257D01*
X83607142Y-157457257D02*
X83750000Y-157385828D01*
X83750000Y-157385828D02*
X84035714Y-157385828D01*
X84035714Y-157385828D02*
X84178571Y-157457257D01*
X84178571Y-157457257D02*
X84250000Y-157600114D01*
X84250000Y-157600114D02*
X84250000Y-157742971D01*
X84250000Y-157742971D02*
X83535714Y-157885828D01*
X84821428Y-158314400D02*
X84964285Y-158385828D01*
X84964285Y-158385828D02*
X85249999Y-158385828D01*
X85249999Y-158385828D02*
X85392856Y-158314400D01*
X85392856Y-158314400D02*
X85464285Y-158171542D01*
X85464285Y-158171542D02*
X85464285Y-158100114D01*
X85464285Y-158100114D02*
X85392856Y-157957257D01*
X85392856Y-157957257D02*
X85249999Y-157885828D01*
X85249999Y-157885828D02*
X85035714Y-157885828D01*
X85035714Y-157885828D02*
X84892856Y-157814400D01*
X84892856Y-157814400D02*
X84821428Y-157671542D01*
X84821428Y-157671542D02*
X84821428Y-157600114D01*
X84821428Y-157600114D02*
X84892856Y-157457257D01*
X84892856Y-157457257D02*
X85035714Y-157385828D01*
X85035714Y-157385828D02*
X85249999Y-157385828D01*
X85249999Y-157385828D02*
X85392856Y-157457257D01*
X86107142Y-158242971D02*
X86178571Y-158314400D01*
X86178571Y-158314400D02*
X86107142Y-158385828D01*
X86107142Y-158385828D02*
X86035714Y-158314400D01*
X86035714Y-158314400D02*
X86107142Y-158242971D01*
X86107142Y-158242971D02*
X86107142Y-158385828D01*
X86107142Y-157814400D02*
X86035714Y-156957257D01*
X86035714Y-156957257D02*
X86107142Y-156885828D01*
X86107142Y-156885828D02*
X86178571Y-156957257D01*
X86178571Y-156957257D02*
X86107142Y-157814400D01*
X86107142Y-157814400D02*
X86107142Y-156885828D01*
D11*
X8857143Y-160044742D02*
X8171429Y-160044742D01*
X8514286Y-160044742D02*
X8514286Y-158844742D01*
X8514286Y-158844742D02*
X8400000Y-159016171D01*
X8400000Y-159016171D02*
X8285715Y-159130457D01*
X8285715Y-159130457D02*
X8171429Y-159187600D01*
X9371429Y-159930457D02*
X9428572Y-159987600D01*
X9428572Y-159987600D02*
X9371429Y-160044742D01*
X9371429Y-160044742D02*
X9314286Y-159987600D01*
X9314286Y-159987600D02*
X9371429Y-159930457D01*
X9371429Y-159930457D02*
X9371429Y-160044742D01*
X10514286Y-158844742D02*
X9942858Y-158844742D01*
X9942858Y-158844742D02*
X9885715Y-159416171D01*
X9885715Y-159416171D02*
X9942858Y-159359028D01*
X9942858Y-159359028D02*
X10057144Y-159301885D01*
X10057144Y-159301885D02*
X10342858Y-159301885D01*
X10342858Y-159301885D02*
X10457144Y-159359028D01*
X10457144Y-159359028D02*
X10514286Y-159416171D01*
X10514286Y-159416171D02*
X10571429Y-159530457D01*
X10571429Y-159530457D02*
X10571429Y-159816171D01*
X10571429Y-159816171D02*
X10514286Y-159930457D01*
X10514286Y-159930457D02*
X10457144Y-159987600D01*
X10457144Y-159987600D02*
X10342858Y-160044742D01*
X10342858Y-160044742D02*
X10057144Y-160044742D01*
X10057144Y-160044742D02*
X9942858Y-159987600D01*
X9942858Y-159987600D02*
X9885715Y-159930457D01*
X11600001Y-159244742D02*
X11600001Y-160044742D01*
X11085715Y-159244742D02*
X11085715Y-159873314D01*
X11085715Y-159873314D02*
X11142858Y-159987600D01*
X11142858Y-159987600D02*
X11257143Y-160044742D01*
X11257143Y-160044742D02*
X11428572Y-160044742D01*
X11428572Y-160044742D02*
X11542858Y-159987600D01*
X11542858Y-159987600D02*
X11600001Y-159930457D01*
X13771429Y-159930457D02*
X13714286Y-159987600D01*
X13714286Y-159987600D02*
X13542858Y-160044742D01*
X13542858Y-160044742D02*
X13428572Y-160044742D01*
X13428572Y-160044742D02*
X13257143Y-159987600D01*
X13257143Y-159987600D02*
X13142858Y-159873314D01*
X13142858Y-159873314D02*
X13085715Y-159759028D01*
X13085715Y-159759028D02*
X13028572Y-159530457D01*
X13028572Y-159530457D02*
X13028572Y-159359028D01*
X13028572Y-159359028D02*
X13085715Y-159130457D01*
X13085715Y-159130457D02*
X13142858Y-159016171D01*
X13142858Y-159016171D02*
X13257143Y-158901885D01*
X13257143Y-158901885D02*
X13428572Y-158844742D01*
X13428572Y-158844742D02*
X13542858Y-158844742D01*
X13542858Y-158844742D02*
X13714286Y-158901885D01*
X13714286Y-158901885D02*
X13771429Y-158959028D01*
X14114286Y-159244742D02*
X14571429Y-159244742D01*
X14285715Y-158844742D02*
X14285715Y-159873314D01*
X14285715Y-159873314D02*
X14342858Y-159987600D01*
X14342858Y-159987600D02*
X14457143Y-160044742D01*
X14457143Y-160044742D02*
X14571429Y-160044742D01*
X14971429Y-160044742D02*
X14971429Y-159244742D01*
X14971429Y-159473314D02*
X15028572Y-159359028D01*
X15028572Y-159359028D02*
X15085715Y-159301885D01*
X15085715Y-159301885D02*
X15200000Y-159244742D01*
X15200000Y-159244742D02*
X15314286Y-159244742D01*
X15885714Y-160044742D02*
X15771429Y-159987600D01*
X15771429Y-159987600D02*
X15714286Y-159873314D01*
X15714286Y-159873314D02*
X15714286Y-158844742D01*
X199814286Y-159544742D02*
X199128572Y-159544742D01*
X199471429Y-159544742D02*
X199471429Y-158344742D01*
X199471429Y-158344742D02*
X199357143Y-158516171D01*
X199357143Y-158516171D02*
X199242858Y-158630457D01*
X199242858Y-158630457D02*
X199128572Y-158687600D01*
X200328572Y-159430457D02*
X200385715Y-159487600D01*
X200385715Y-159487600D02*
X200328572Y-159544742D01*
X200328572Y-159544742D02*
X200271429Y-159487600D01*
X200271429Y-159487600D02*
X200328572Y-159430457D01*
X200328572Y-159430457D02*
X200328572Y-159544742D01*
X201471429Y-158344742D02*
X200900001Y-158344742D01*
X200900001Y-158344742D02*
X200842858Y-158916171D01*
X200842858Y-158916171D02*
X200900001Y-158859028D01*
X200900001Y-158859028D02*
X201014287Y-158801885D01*
X201014287Y-158801885D02*
X201300001Y-158801885D01*
X201300001Y-158801885D02*
X201414287Y-158859028D01*
X201414287Y-158859028D02*
X201471429Y-158916171D01*
X201471429Y-158916171D02*
X201528572Y-159030457D01*
X201528572Y-159030457D02*
X201528572Y-159316171D01*
X201528572Y-159316171D02*
X201471429Y-159430457D01*
X201471429Y-159430457D02*
X201414287Y-159487600D01*
X201414287Y-159487600D02*
X201300001Y-159544742D01*
X201300001Y-159544742D02*
X201014287Y-159544742D01*
X201014287Y-159544742D02*
X200900001Y-159487600D01*
X200900001Y-159487600D02*
X200842858Y-159430457D01*
X202557144Y-158744742D02*
X202557144Y-159544742D01*
X202042858Y-158744742D02*
X202042858Y-159373314D01*
X202042858Y-159373314D02*
X202100001Y-159487600D01*
X202100001Y-159487600D02*
X202214286Y-159544742D01*
X202214286Y-159544742D02*
X202385715Y-159544742D01*
X202385715Y-159544742D02*
X202500001Y-159487600D01*
X202500001Y-159487600D02*
X202557144Y-159430457D01*
X203985715Y-159201885D02*
X204557144Y-159201885D01*
X203871429Y-159544742D02*
X204271429Y-158344742D01*
X204271429Y-158344742D02*
X204671429Y-159544742D01*
X205242857Y-159544742D02*
X205128572Y-159487600D01*
X205128572Y-159487600D02*
X205071429Y-159373314D01*
X205071429Y-159373314D02*
X205071429Y-158344742D01*
X205528571Y-158744742D02*
X205985714Y-158744742D01*
X205700000Y-158344742D02*
X205700000Y-159373314D01*
X205700000Y-159373314D02*
X205757143Y-159487600D01*
X205757143Y-159487600D02*
X205871428Y-159544742D01*
X205871428Y-159544742D02*
X205985714Y-159544742D01*
X29399999Y-157544742D02*
X28714285Y-157544742D01*
X29057142Y-157544742D02*
X29057142Y-156344742D01*
X29057142Y-156344742D02*
X28942856Y-156516171D01*
X28942856Y-156516171D02*
X28828571Y-156630457D01*
X28828571Y-156630457D02*
X28714285Y-156687600D01*
X29914285Y-157430457D02*
X29971428Y-157487600D01*
X29971428Y-157487600D02*
X29914285Y-157544742D01*
X29914285Y-157544742D02*
X29857142Y-157487600D01*
X29857142Y-157487600D02*
X29914285Y-157430457D01*
X29914285Y-157430457D02*
X29914285Y-157544742D01*
X30428571Y-156459028D02*
X30485714Y-156401885D01*
X30485714Y-156401885D02*
X30600000Y-156344742D01*
X30600000Y-156344742D02*
X30885714Y-156344742D01*
X30885714Y-156344742D02*
X31000000Y-156401885D01*
X31000000Y-156401885D02*
X31057142Y-156459028D01*
X31057142Y-156459028D02*
X31114285Y-156573314D01*
X31114285Y-156573314D02*
X31114285Y-156687600D01*
X31114285Y-156687600D02*
X31057142Y-156859028D01*
X31057142Y-156859028D02*
X30371428Y-157544742D01*
X30371428Y-157544742D02*
X31114285Y-157544742D01*
X32199999Y-156344742D02*
X31628571Y-156344742D01*
X31628571Y-156344742D02*
X31571428Y-156916171D01*
X31571428Y-156916171D02*
X31628571Y-156859028D01*
X31628571Y-156859028D02*
X31742857Y-156801885D01*
X31742857Y-156801885D02*
X32028571Y-156801885D01*
X32028571Y-156801885D02*
X32142857Y-156859028D01*
X32142857Y-156859028D02*
X32199999Y-156916171D01*
X32199999Y-156916171D02*
X32257142Y-157030457D01*
X32257142Y-157030457D02*
X32257142Y-157316171D01*
X32257142Y-157316171D02*
X32199999Y-157430457D01*
X32199999Y-157430457D02*
X32142857Y-157487600D01*
X32142857Y-157487600D02*
X32028571Y-157544742D01*
X32028571Y-157544742D02*
X31742857Y-157544742D01*
X31742857Y-157544742D02*
X31628571Y-157487600D01*
X31628571Y-157487600D02*
X31571428Y-157430457D01*
X33285714Y-156744742D02*
X33285714Y-157544742D01*
X32771428Y-156744742D02*
X32771428Y-157373314D01*
X32771428Y-157373314D02*
X32828571Y-157487600D01*
X32828571Y-157487600D02*
X32942856Y-157544742D01*
X32942856Y-157544742D02*
X33114285Y-157544742D01*
X33114285Y-157544742D02*
X33228571Y-157487600D01*
X33228571Y-157487600D02*
X33285714Y-157430457D01*
X34657142Y-156344742D02*
X34942856Y-157544742D01*
X34942856Y-157544742D02*
X35171428Y-156687600D01*
X35171428Y-156687600D02*
X35399999Y-157544742D01*
X35399999Y-157544742D02*
X35685714Y-156344742D01*
X36142857Y-157544742D02*
X36142857Y-156744742D01*
X36142857Y-156344742D02*
X36085714Y-156401885D01*
X36085714Y-156401885D02*
X36142857Y-156459028D01*
X36142857Y-156459028D02*
X36200000Y-156401885D01*
X36200000Y-156401885D02*
X36142857Y-156344742D01*
X36142857Y-156344742D02*
X36142857Y-156459028D01*
X36714286Y-156744742D02*
X36714286Y-157544742D01*
X36714286Y-156859028D02*
X36771429Y-156801885D01*
X36771429Y-156801885D02*
X36885714Y-156744742D01*
X36885714Y-156744742D02*
X37057143Y-156744742D01*
X37057143Y-156744742D02*
X37171429Y-156801885D01*
X37171429Y-156801885D02*
X37228572Y-156916171D01*
X37228572Y-156916171D02*
X37228572Y-157544742D01*
X239557143Y-119144742D02*
X239157143Y-118573314D01*
X238871429Y-119144742D02*
X238871429Y-117944742D01*
X238871429Y-117944742D02*
X239328572Y-117944742D01*
X239328572Y-117944742D02*
X239442857Y-118001885D01*
X239442857Y-118001885D02*
X239500000Y-118059028D01*
X239500000Y-118059028D02*
X239557143Y-118173314D01*
X239557143Y-118173314D02*
X239557143Y-118344742D01*
X239557143Y-118344742D02*
X239500000Y-118459028D01*
X239500000Y-118459028D02*
X239442857Y-118516171D01*
X239442857Y-118516171D02*
X239328572Y-118573314D01*
X239328572Y-118573314D02*
X238871429Y-118573314D01*
X240071429Y-118516171D02*
X240471429Y-118516171D01*
X240642857Y-119144742D02*
X240071429Y-119144742D01*
X240071429Y-119144742D02*
X240071429Y-117944742D01*
X240071429Y-117944742D02*
X240642857Y-117944742D01*
X241100000Y-119087600D02*
X241271429Y-119144742D01*
X241271429Y-119144742D02*
X241557143Y-119144742D01*
X241557143Y-119144742D02*
X241671429Y-119087600D01*
X241671429Y-119087600D02*
X241728571Y-119030457D01*
X241728571Y-119030457D02*
X241785714Y-118916171D01*
X241785714Y-118916171D02*
X241785714Y-118801885D01*
X241785714Y-118801885D02*
X241728571Y-118687600D01*
X241728571Y-118687600D02*
X241671429Y-118630457D01*
X241671429Y-118630457D02*
X241557143Y-118573314D01*
X241557143Y-118573314D02*
X241328571Y-118516171D01*
X241328571Y-118516171D02*
X241214286Y-118459028D01*
X241214286Y-118459028D02*
X241157143Y-118401885D01*
X241157143Y-118401885D02*
X241100000Y-118287600D01*
X241100000Y-118287600D02*
X241100000Y-118173314D01*
X241100000Y-118173314D02*
X241157143Y-118059028D01*
X241157143Y-118059028D02*
X241214286Y-118001885D01*
X241214286Y-118001885D02*
X241328571Y-117944742D01*
X241328571Y-117944742D02*
X241614286Y-117944742D01*
X241614286Y-117944742D02*
X241785714Y-118001885D01*
X242300000Y-118516171D02*
X242700000Y-118516171D01*
X242871428Y-119144742D02*
X242300000Y-119144742D01*
X242300000Y-119144742D02*
X242300000Y-117944742D01*
X242300000Y-117944742D02*
X242871428Y-117944742D01*
X243214285Y-117944742D02*
X243900000Y-117944742D01*
X243557142Y-119144742D02*
X243557142Y-117944742D01*
X123871428Y-159044742D02*
X123185714Y-159044742D01*
X123528571Y-159044742D02*
X123528571Y-157844742D01*
X123528571Y-157844742D02*
X123414285Y-158016171D01*
X123414285Y-158016171D02*
X123300000Y-158130457D01*
X123300000Y-158130457D02*
X123185714Y-158187600D01*
X124385714Y-158930457D02*
X124442857Y-158987600D01*
X124442857Y-158987600D02*
X124385714Y-159044742D01*
X124385714Y-159044742D02*
X124328571Y-158987600D01*
X124328571Y-158987600D02*
X124385714Y-158930457D01*
X124385714Y-158930457D02*
X124385714Y-159044742D01*
X124900000Y-157959028D02*
X124957143Y-157901885D01*
X124957143Y-157901885D02*
X125071429Y-157844742D01*
X125071429Y-157844742D02*
X125357143Y-157844742D01*
X125357143Y-157844742D02*
X125471429Y-157901885D01*
X125471429Y-157901885D02*
X125528571Y-157959028D01*
X125528571Y-157959028D02*
X125585714Y-158073314D01*
X125585714Y-158073314D02*
X125585714Y-158187600D01*
X125585714Y-158187600D02*
X125528571Y-158359028D01*
X125528571Y-158359028D02*
X124842857Y-159044742D01*
X124842857Y-159044742D02*
X125585714Y-159044742D01*
X126671428Y-157844742D02*
X126100000Y-157844742D01*
X126100000Y-157844742D02*
X126042857Y-158416171D01*
X126042857Y-158416171D02*
X126100000Y-158359028D01*
X126100000Y-158359028D02*
X126214286Y-158301885D01*
X126214286Y-158301885D02*
X126500000Y-158301885D01*
X126500000Y-158301885D02*
X126614286Y-158359028D01*
X126614286Y-158359028D02*
X126671428Y-158416171D01*
X126671428Y-158416171D02*
X126728571Y-158530457D01*
X126728571Y-158530457D02*
X126728571Y-158816171D01*
X126728571Y-158816171D02*
X126671428Y-158930457D01*
X126671428Y-158930457D02*
X126614286Y-158987600D01*
X126614286Y-158987600D02*
X126500000Y-159044742D01*
X126500000Y-159044742D02*
X126214286Y-159044742D01*
X126214286Y-159044742D02*
X126100000Y-158987600D01*
X126100000Y-158987600D02*
X126042857Y-158930457D01*
X127757143Y-158244742D02*
X127757143Y-159044742D01*
X127242857Y-158244742D02*
X127242857Y-158873314D01*
X127242857Y-158873314D02*
X127300000Y-158987600D01*
X127300000Y-158987600D02*
X127414285Y-159044742D01*
X127414285Y-159044742D02*
X127585714Y-159044742D01*
X127585714Y-159044742D02*
X127700000Y-158987600D01*
X127700000Y-158987600D02*
X127757143Y-158930457D01*
X196171429Y-157544742D02*
X195485715Y-157544742D01*
X195828572Y-157544742D02*
X195828572Y-156344742D01*
X195828572Y-156344742D02*
X195714286Y-156516171D01*
X195714286Y-156516171D02*
X195600001Y-156630457D01*
X195600001Y-156630457D02*
X195485715Y-156687600D01*
X197200001Y-156744742D02*
X197200001Y-157544742D01*
X196685715Y-156744742D02*
X196685715Y-157373314D01*
X196685715Y-157373314D02*
X196742858Y-157487600D01*
X196742858Y-157487600D02*
X196857143Y-157544742D01*
X196857143Y-157544742D02*
X197028572Y-157544742D01*
X197028572Y-157544742D02*
X197142858Y-157487600D01*
X197142858Y-157487600D02*
X197200001Y-157430457D01*
X198628572Y-157201885D02*
X199200001Y-157201885D01*
X198514286Y-157544742D02*
X198914286Y-156344742D01*
X198914286Y-156344742D02*
X199314286Y-157544742D01*
X199885714Y-157544742D02*
X199771429Y-157487600D01*
X199771429Y-157487600D02*
X199714286Y-157373314D01*
X199714286Y-157373314D02*
X199714286Y-156344742D01*
X200171428Y-156744742D02*
X200628571Y-156744742D01*
X200342857Y-156344742D02*
X200342857Y-157373314D01*
X200342857Y-157373314D02*
X200400000Y-157487600D01*
X200400000Y-157487600D02*
X200514285Y-157544742D01*
X200514285Y-157544742D02*
X200628571Y-157544742D01*
X37314286Y-160044742D02*
X36628572Y-160044742D01*
X36971429Y-160044742D02*
X36971429Y-158844742D01*
X36971429Y-158844742D02*
X36857143Y-159016171D01*
X36857143Y-159016171D02*
X36742858Y-159130457D01*
X36742858Y-159130457D02*
X36628572Y-159187600D01*
X37828572Y-159930457D02*
X37885715Y-159987600D01*
X37885715Y-159987600D02*
X37828572Y-160044742D01*
X37828572Y-160044742D02*
X37771429Y-159987600D01*
X37771429Y-159987600D02*
X37828572Y-159930457D01*
X37828572Y-159930457D02*
X37828572Y-160044742D01*
X38971429Y-158844742D02*
X38400001Y-158844742D01*
X38400001Y-158844742D02*
X38342858Y-159416171D01*
X38342858Y-159416171D02*
X38400001Y-159359028D01*
X38400001Y-159359028D02*
X38514287Y-159301885D01*
X38514287Y-159301885D02*
X38800001Y-159301885D01*
X38800001Y-159301885D02*
X38914287Y-159359028D01*
X38914287Y-159359028D02*
X38971429Y-159416171D01*
X38971429Y-159416171D02*
X39028572Y-159530457D01*
X39028572Y-159530457D02*
X39028572Y-159816171D01*
X39028572Y-159816171D02*
X38971429Y-159930457D01*
X38971429Y-159930457D02*
X38914287Y-159987600D01*
X38914287Y-159987600D02*
X38800001Y-160044742D01*
X38800001Y-160044742D02*
X38514287Y-160044742D01*
X38514287Y-160044742D02*
X38400001Y-159987600D01*
X38400001Y-159987600D02*
X38342858Y-159930457D01*
X40057144Y-159244742D02*
X40057144Y-160044742D01*
X39542858Y-159244742D02*
X39542858Y-159873314D01*
X39542858Y-159873314D02*
X39600001Y-159987600D01*
X39600001Y-159987600D02*
X39714286Y-160044742D01*
X39714286Y-160044742D02*
X39885715Y-160044742D01*
X39885715Y-160044742D02*
X40000001Y-159987600D01*
X40000001Y-159987600D02*
X40057144Y-159930457D01*
X41485715Y-159701885D02*
X42057144Y-159701885D01*
X41371429Y-160044742D02*
X41771429Y-158844742D01*
X41771429Y-158844742D02*
X42171429Y-160044742D01*
X42742857Y-160044742D02*
X42628572Y-159987600D01*
X42628572Y-159987600D02*
X42571429Y-159873314D01*
X42571429Y-159873314D02*
X42571429Y-158844742D01*
X43028571Y-159244742D02*
X43485714Y-159244742D01*
X43200000Y-158844742D02*
X43200000Y-159873314D01*
X43200000Y-159873314D02*
X43257143Y-159987600D01*
X43257143Y-159987600D02*
X43371428Y-160044742D01*
X43371428Y-160044742D02*
X43485714Y-160044742D01*
X245357143Y-158544742D02*
X244671429Y-158544742D01*
X245014286Y-158544742D02*
X245014286Y-157344742D01*
X245014286Y-157344742D02*
X244900000Y-157516171D01*
X244900000Y-157516171D02*
X244785715Y-157630457D01*
X244785715Y-157630457D02*
X244671429Y-157687600D01*
X245871429Y-158430457D02*
X245928572Y-158487600D01*
X245928572Y-158487600D02*
X245871429Y-158544742D01*
X245871429Y-158544742D02*
X245814286Y-158487600D01*
X245814286Y-158487600D02*
X245871429Y-158430457D01*
X245871429Y-158430457D02*
X245871429Y-158544742D01*
X247014286Y-157344742D02*
X246442858Y-157344742D01*
X246442858Y-157344742D02*
X246385715Y-157916171D01*
X246385715Y-157916171D02*
X246442858Y-157859028D01*
X246442858Y-157859028D02*
X246557144Y-157801885D01*
X246557144Y-157801885D02*
X246842858Y-157801885D01*
X246842858Y-157801885D02*
X246957144Y-157859028D01*
X246957144Y-157859028D02*
X247014286Y-157916171D01*
X247014286Y-157916171D02*
X247071429Y-158030457D01*
X247071429Y-158030457D02*
X247071429Y-158316171D01*
X247071429Y-158316171D02*
X247014286Y-158430457D01*
X247014286Y-158430457D02*
X246957144Y-158487600D01*
X246957144Y-158487600D02*
X246842858Y-158544742D01*
X246842858Y-158544742D02*
X246557144Y-158544742D01*
X246557144Y-158544742D02*
X246442858Y-158487600D01*
X246442858Y-158487600D02*
X246385715Y-158430457D01*
X248100001Y-157744742D02*
X248100001Y-158544742D01*
X247585715Y-157744742D02*
X247585715Y-158373314D01*
X247585715Y-158373314D02*
X247642858Y-158487600D01*
X247642858Y-158487600D02*
X247757143Y-158544742D01*
X247757143Y-158544742D02*
X247928572Y-158544742D01*
X247928572Y-158544742D02*
X248042858Y-158487600D01*
X248042858Y-158487600D02*
X248100001Y-158430457D01*
X250271429Y-158430457D02*
X250214286Y-158487600D01*
X250214286Y-158487600D02*
X250042858Y-158544742D01*
X250042858Y-158544742D02*
X249928572Y-158544742D01*
X249928572Y-158544742D02*
X249757143Y-158487600D01*
X249757143Y-158487600D02*
X249642858Y-158373314D01*
X249642858Y-158373314D02*
X249585715Y-158259028D01*
X249585715Y-158259028D02*
X249528572Y-158030457D01*
X249528572Y-158030457D02*
X249528572Y-157859028D01*
X249528572Y-157859028D02*
X249585715Y-157630457D01*
X249585715Y-157630457D02*
X249642858Y-157516171D01*
X249642858Y-157516171D02*
X249757143Y-157401885D01*
X249757143Y-157401885D02*
X249928572Y-157344742D01*
X249928572Y-157344742D02*
X250042858Y-157344742D01*
X250042858Y-157344742D02*
X250214286Y-157401885D01*
X250214286Y-157401885D02*
X250271429Y-157459028D01*
X250614286Y-157744742D02*
X251071429Y-157744742D01*
X250785715Y-157344742D02*
X250785715Y-158373314D01*
X250785715Y-158373314D02*
X250842858Y-158487600D01*
X250842858Y-158487600D02*
X250957143Y-158544742D01*
X250957143Y-158544742D02*
X251071429Y-158544742D01*
X251471429Y-158544742D02*
X251471429Y-157744742D01*
X251471429Y-157973314D02*
X251528572Y-157859028D01*
X251528572Y-157859028D02*
X251585715Y-157801885D01*
X251585715Y-157801885D02*
X251700000Y-157744742D01*
X251700000Y-157744742D02*
X251814286Y-157744742D01*
X252385714Y-158544742D02*
X252271429Y-158487600D01*
X252271429Y-158487600D02*
X252214286Y-158373314D01*
X252214286Y-158373314D02*
X252214286Y-157344742D01*
X243214286Y-156544742D02*
X242528572Y-156544742D01*
X242871429Y-156544742D02*
X242871429Y-155344742D01*
X242871429Y-155344742D02*
X242757143Y-155516171D01*
X242757143Y-155516171D02*
X242642858Y-155630457D01*
X242642858Y-155630457D02*
X242528572Y-155687600D01*
X244242858Y-155744742D02*
X244242858Y-156544742D01*
X243728572Y-155744742D02*
X243728572Y-156373314D01*
X243728572Y-156373314D02*
X243785715Y-156487600D01*
X243785715Y-156487600D02*
X243900000Y-156544742D01*
X243900000Y-156544742D02*
X244071429Y-156544742D01*
X244071429Y-156544742D02*
X244185715Y-156487600D01*
X244185715Y-156487600D02*
X244242858Y-156430457D01*
X246414286Y-156430457D02*
X246357143Y-156487600D01*
X246357143Y-156487600D02*
X246185715Y-156544742D01*
X246185715Y-156544742D02*
X246071429Y-156544742D01*
X246071429Y-156544742D02*
X245900000Y-156487600D01*
X245900000Y-156487600D02*
X245785715Y-156373314D01*
X245785715Y-156373314D02*
X245728572Y-156259028D01*
X245728572Y-156259028D02*
X245671429Y-156030457D01*
X245671429Y-156030457D02*
X245671429Y-155859028D01*
X245671429Y-155859028D02*
X245728572Y-155630457D01*
X245728572Y-155630457D02*
X245785715Y-155516171D01*
X245785715Y-155516171D02*
X245900000Y-155401885D01*
X245900000Y-155401885D02*
X246071429Y-155344742D01*
X246071429Y-155344742D02*
X246185715Y-155344742D01*
X246185715Y-155344742D02*
X246357143Y-155401885D01*
X246357143Y-155401885D02*
X246414286Y-155459028D01*
X246757143Y-155744742D02*
X247214286Y-155744742D01*
X246928572Y-155344742D02*
X246928572Y-156373314D01*
X246928572Y-156373314D02*
X246985715Y-156487600D01*
X246985715Y-156487600D02*
X247100000Y-156544742D01*
X247100000Y-156544742D02*
X247214286Y-156544742D01*
X247614286Y-156544742D02*
X247614286Y-155744742D01*
X247614286Y-155973314D02*
X247671429Y-155859028D01*
X247671429Y-155859028D02*
X247728572Y-155801885D01*
X247728572Y-155801885D02*
X247842857Y-155744742D01*
X247842857Y-155744742D02*
X247957143Y-155744742D01*
X248528571Y-156544742D02*
X248414286Y-156487600D01*
X248414286Y-156487600D02*
X248357143Y-156373314D01*
X248357143Y-156373314D02*
X248357143Y-155344742D01*
M02*
