%TF.GenerationSoftware,KiCad,Pcbnew,7.0.1*%
%TF.CreationDate,2023-03-27T00:20:16-04:00*%
%TF.ProjectId,3DP-FR4-hotswap-plate-ANSI,3344502d-4652-4342-9d68-6f7473776170,rev?*%
%TF.SameCoordinates,Original*%
%TF.FileFunction,Legend,Bot*%
%TF.FilePolarity,Positive*%
%FSLAX46Y46*%
G04 Gerber Fmt 4.6, Leading zero omitted, Abs format (unit mm)*
G04 Created by KiCad (PCBNEW 7.0.1) date 2023-03-27 00:20:16*
%MOMM*%
%LPD*%
G01*
G04 APERTURE LIST*
%ADD10C,0.200000*%
%ADD11C,0.300000*%
G04 APERTURE END LIST*
D10*
X365719999Y-157545142D02*
X365719999Y-156345142D01*
X365719999Y-156345142D02*
X365262856Y-156345142D01*
X365262856Y-156345142D02*
X365148571Y-156402285D01*
X365148571Y-156402285D02*
X365091428Y-156459428D01*
X365091428Y-156459428D02*
X365034285Y-156573714D01*
X365034285Y-156573714D02*
X365034285Y-156745142D01*
X365034285Y-156745142D02*
X365091428Y-156859428D01*
X365091428Y-156859428D02*
X365148571Y-156916571D01*
X365148571Y-156916571D02*
X365262856Y-156973714D01*
X365262856Y-156973714D02*
X365719999Y-156973714D01*
X364348571Y-157545142D02*
X364462856Y-157488000D01*
X364462856Y-157488000D02*
X364519999Y-157373714D01*
X364519999Y-157373714D02*
X364519999Y-156345142D01*
X363377143Y-157545142D02*
X363377143Y-156916571D01*
X363377143Y-156916571D02*
X363434285Y-156802285D01*
X363434285Y-156802285D02*
X363548571Y-156745142D01*
X363548571Y-156745142D02*
X363777143Y-156745142D01*
X363777143Y-156745142D02*
X363891428Y-156802285D01*
X363377143Y-157488000D02*
X363491428Y-157545142D01*
X363491428Y-157545142D02*
X363777143Y-157545142D01*
X363777143Y-157545142D02*
X363891428Y-157488000D01*
X363891428Y-157488000D02*
X363948571Y-157373714D01*
X363948571Y-157373714D02*
X363948571Y-157259428D01*
X363948571Y-157259428D02*
X363891428Y-157145142D01*
X363891428Y-157145142D02*
X363777143Y-157088000D01*
X363777143Y-157088000D02*
X363491428Y-157088000D01*
X363491428Y-157088000D02*
X363377143Y-157030857D01*
X362977143Y-156745142D02*
X362520000Y-156745142D01*
X362805714Y-156345142D02*
X362805714Y-157373714D01*
X362805714Y-157373714D02*
X362748571Y-157488000D01*
X362748571Y-157488000D02*
X362634286Y-157545142D01*
X362634286Y-157545142D02*
X362520000Y-157545142D01*
X361662857Y-157488000D02*
X361777143Y-157545142D01*
X361777143Y-157545142D02*
X362005715Y-157545142D01*
X362005715Y-157545142D02*
X362120000Y-157488000D01*
X362120000Y-157488000D02*
X362177143Y-157373714D01*
X362177143Y-157373714D02*
X362177143Y-156916571D01*
X362177143Y-156916571D02*
X362120000Y-156802285D01*
X362120000Y-156802285D02*
X362005715Y-156745142D01*
X362005715Y-156745142D02*
X361777143Y-156745142D01*
X361777143Y-156745142D02*
X361662857Y-156802285D01*
X361662857Y-156802285D02*
X361605715Y-156916571D01*
X361605715Y-156916571D02*
X361605715Y-157030857D01*
X361605715Y-157030857D02*
X362177143Y-157145142D01*
X360348572Y-156345142D02*
X359948572Y-157545142D01*
X359948572Y-157545142D02*
X359548572Y-156345142D01*
X358920001Y-156345142D02*
X358805715Y-156345142D01*
X358805715Y-156345142D02*
X358691429Y-156402285D01*
X358691429Y-156402285D02*
X358634287Y-156459428D01*
X358634287Y-156459428D02*
X358577144Y-156573714D01*
X358577144Y-156573714D02*
X358520001Y-156802285D01*
X358520001Y-156802285D02*
X358520001Y-157088000D01*
X358520001Y-157088000D02*
X358577144Y-157316571D01*
X358577144Y-157316571D02*
X358634287Y-157430857D01*
X358634287Y-157430857D02*
X358691429Y-157488000D01*
X358691429Y-157488000D02*
X358805715Y-157545142D01*
X358805715Y-157545142D02*
X358920001Y-157545142D01*
X358920001Y-157545142D02*
X359034287Y-157488000D01*
X359034287Y-157488000D02*
X359091429Y-157430857D01*
X359091429Y-157430857D02*
X359148572Y-157316571D01*
X359148572Y-157316571D02*
X359205715Y-157088000D01*
X359205715Y-157088000D02*
X359205715Y-156802285D01*
X359205715Y-156802285D02*
X359148572Y-156573714D01*
X359148572Y-156573714D02*
X359091429Y-156459428D01*
X359091429Y-156459428D02*
X359034287Y-156402285D01*
X359034287Y-156402285D02*
X358920001Y-156345142D01*
X358005715Y-157430857D02*
X357948572Y-157488000D01*
X357948572Y-157488000D02*
X358005715Y-157545142D01*
X358005715Y-157545142D02*
X358062858Y-157488000D01*
X358062858Y-157488000D02*
X358005715Y-157430857D01*
X358005715Y-157430857D02*
X358005715Y-157545142D01*
X356862858Y-156345142D02*
X357434286Y-156345142D01*
X357434286Y-156345142D02*
X357491429Y-156916571D01*
X357491429Y-156916571D02*
X357434286Y-156859428D01*
X357434286Y-156859428D02*
X357320001Y-156802285D01*
X357320001Y-156802285D02*
X357034286Y-156802285D01*
X357034286Y-156802285D02*
X356920001Y-156859428D01*
X356920001Y-156859428D02*
X356862858Y-156916571D01*
X356862858Y-156916571D02*
X356805715Y-157030857D01*
X356805715Y-157030857D02*
X356805715Y-157316571D01*
X356805715Y-157316571D02*
X356862858Y-157430857D01*
X356862858Y-157430857D02*
X356920001Y-157488000D01*
X356920001Y-157488000D02*
X357034286Y-157545142D01*
X357034286Y-157545142D02*
X357320001Y-157545142D01*
X357320001Y-157545142D02*
X357434286Y-157488000D01*
X357434286Y-157488000D02*
X357491429Y-157430857D01*
X355377143Y-157088000D02*
X354462858Y-157088000D01*
X352977143Y-157545142D02*
X352977143Y-156345142D01*
X352977143Y-156345142D02*
X352577143Y-157202285D01*
X352577143Y-157202285D02*
X352177143Y-156345142D01*
X352177143Y-156345142D02*
X352177143Y-157545142D01*
X351091429Y-157545142D02*
X351091429Y-156916571D01*
X351091429Y-156916571D02*
X351148571Y-156802285D01*
X351148571Y-156802285D02*
X351262857Y-156745142D01*
X351262857Y-156745142D02*
X351491429Y-156745142D01*
X351491429Y-156745142D02*
X351605714Y-156802285D01*
X351091429Y-157488000D02*
X351205714Y-157545142D01*
X351205714Y-157545142D02*
X351491429Y-157545142D01*
X351491429Y-157545142D02*
X351605714Y-157488000D01*
X351605714Y-157488000D02*
X351662857Y-157373714D01*
X351662857Y-157373714D02*
X351662857Y-157259428D01*
X351662857Y-157259428D02*
X351605714Y-157145142D01*
X351605714Y-157145142D02*
X351491429Y-157088000D01*
X351491429Y-157088000D02*
X351205714Y-157088000D01*
X351205714Y-157088000D02*
X351091429Y-157030857D01*
X350634286Y-156745142D02*
X350348572Y-157545142D01*
X350062857Y-156745142D02*
X350348572Y-157545142D01*
X350348572Y-157545142D02*
X350462857Y-157830857D01*
X350462857Y-157830857D02*
X350520000Y-157888000D01*
X350520000Y-157888000D02*
X350634286Y-157945142D01*
X348062857Y-157545142D02*
X348748571Y-157545142D01*
X348405714Y-157545142D02*
X348405714Y-156345142D01*
X348405714Y-156345142D02*
X348520000Y-156516571D01*
X348520000Y-156516571D02*
X348634285Y-156630857D01*
X348634285Y-156630857D02*
X348748571Y-156688000D01*
X346977143Y-156345142D02*
X347548571Y-156345142D01*
X347548571Y-156345142D02*
X347605714Y-156916571D01*
X347605714Y-156916571D02*
X347548571Y-156859428D01*
X347548571Y-156859428D02*
X347434286Y-156802285D01*
X347434286Y-156802285D02*
X347148571Y-156802285D01*
X347148571Y-156802285D02*
X347034286Y-156859428D01*
X347034286Y-156859428D02*
X346977143Y-156916571D01*
X346977143Y-156916571D02*
X346920000Y-157030857D01*
X346920000Y-157030857D02*
X346920000Y-157316571D01*
X346920000Y-157316571D02*
X346977143Y-157430857D01*
X346977143Y-157430857D02*
X347034286Y-157488000D01*
X347034286Y-157488000D02*
X347148571Y-157545142D01*
X347148571Y-157545142D02*
X347434286Y-157545142D01*
X347434286Y-157545142D02*
X347548571Y-157488000D01*
X347548571Y-157488000D02*
X347605714Y-157430857D01*
X346348571Y-157488000D02*
X346348571Y-157545142D01*
X346348571Y-157545142D02*
X346405714Y-157659428D01*
X346405714Y-157659428D02*
X346462857Y-157716571D01*
X344977142Y-156459428D02*
X344919999Y-156402285D01*
X344919999Y-156402285D02*
X344805714Y-156345142D01*
X344805714Y-156345142D02*
X344519999Y-156345142D01*
X344519999Y-156345142D02*
X344405714Y-156402285D01*
X344405714Y-156402285D02*
X344348571Y-156459428D01*
X344348571Y-156459428D02*
X344291428Y-156573714D01*
X344291428Y-156573714D02*
X344291428Y-156688000D01*
X344291428Y-156688000D02*
X344348571Y-156859428D01*
X344348571Y-156859428D02*
X345034285Y-157545142D01*
X345034285Y-157545142D02*
X344291428Y-157545142D01*
X343548571Y-156345142D02*
X343434285Y-156345142D01*
X343434285Y-156345142D02*
X343319999Y-156402285D01*
X343319999Y-156402285D02*
X343262857Y-156459428D01*
X343262857Y-156459428D02*
X343205714Y-156573714D01*
X343205714Y-156573714D02*
X343148571Y-156802285D01*
X343148571Y-156802285D02*
X343148571Y-157088000D01*
X343148571Y-157088000D02*
X343205714Y-157316571D01*
X343205714Y-157316571D02*
X343262857Y-157430857D01*
X343262857Y-157430857D02*
X343319999Y-157488000D01*
X343319999Y-157488000D02*
X343434285Y-157545142D01*
X343434285Y-157545142D02*
X343548571Y-157545142D01*
X343548571Y-157545142D02*
X343662857Y-157488000D01*
X343662857Y-157488000D02*
X343719999Y-157430857D01*
X343719999Y-157430857D02*
X343777142Y-157316571D01*
X343777142Y-157316571D02*
X343834285Y-157088000D01*
X343834285Y-157088000D02*
X343834285Y-156802285D01*
X343834285Y-156802285D02*
X343777142Y-156573714D01*
X343777142Y-156573714D02*
X343719999Y-156459428D01*
X343719999Y-156459428D02*
X343662857Y-156402285D01*
X343662857Y-156402285D02*
X343548571Y-156345142D01*
X342691428Y-156459428D02*
X342634285Y-156402285D01*
X342634285Y-156402285D02*
X342520000Y-156345142D01*
X342520000Y-156345142D02*
X342234285Y-156345142D01*
X342234285Y-156345142D02*
X342120000Y-156402285D01*
X342120000Y-156402285D02*
X342062857Y-156459428D01*
X342062857Y-156459428D02*
X342005714Y-156573714D01*
X342005714Y-156573714D02*
X342005714Y-156688000D01*
X342005714Y-156688000D02*
X342062857Y-156859428D01*
X342062857Y-156859428D02*
X342748571Y-157545142D01*
X342748571Y-157545142D02*
X342005714Y-157545142D01*
X341548571Y-156459428D02*
X341491428Y-156402285D01*
X341491428Y-156402285D02*
X341377143Y-156345142D01*
X341377143Y-156345142D02*
X341091428Y-156345142D01*
X341091428Y-156345142D02*
X340977143Y-156402285D01*
X340977143Y-156402285D02*
X340920000Y-156459428D01*
X340920000Y-156459428D02*
X340862857Y-156573714D01*
X340862857Y-156573714D02*
X340862857Y-156688000D01*
X340862857Y-156688000D02*
X340920000Y-156859428D01*
X340920000Y-156859428D02*
X341605714Y-157545142D01*
X341605714Y-157545142D02*
X340862857Y-157545142D01*
X365542858Y-158355142D02*
X365542858Y-159212285D01*
X365542858Y-159212285D02*
X365600001Y-159383714D01*
X365600001Y-159383714D02*
X365714287Y-159498000D01*
X365714287Y-159498000D02*
X365885715Y-159555142D01*
X365885715Y-159555142D02*
X366000001Y-159555142D01*
X364400001Y-159555142D02*
X364971429Y-159555142D01*
X364971429Y-159555142D02*
X364971429Y-158355142D01*
X363314286Y-159440857D02*
X363371429Y-159498000D01*
X363371429Y-159498000D02*
X363542857Y-159555142D01*
X363542857Y-159555142D02*
X363657143Y-159555142D01*
X363657143Y-159555142D02*
X363828572Y-159498000D01*
X363828572Y-159498000D02*
X363942857Y-159383714D01*
X363942857Y-159383714D02*
X364000000Y-159269428D01*
X364000000Y-159269428D02*
X364057143Y-159040857D01*
X364057143Y-159040857D02*
X364057143Y-158869428D01*
X364057143Y-158869428D02*
X364000000Y-158640857D01*
X364000000Y-158640857D02*
X363942857Y-158526571D01*
X363942857Y-158526571D02*
X363828572Y-158412285D01*
X363828572Y-158412285D02*
X363657143Y-158355142D01*
X363657143Y-158355142D02*
X363542857Y-158355142D01*
X363542857Y-158355142D02*
X363371429Y-158412285D01*
X363371429Y-158412285D02*
X363314286Y-158469428D01*
X362457143Y-158355142D02*
X362457143Y-159212285D01*
X362457143Y-159212285D02*
X362514286Y-159383714D01*
X362514286Y-159383714D02*
X362628572Y-159498000D01*
X362628572Y-159498000D02*
X362800000Y-159555142D01*
X362800000Y-159555142D02*
X362914286Y-159555142D01*
X361314286Y-159555142D02*
X361885714Y-159555142D01*
X361885714Y-159555142D02*
X361885714Y-158355142D01*
X360228571Y-159440857D02*
X360285714Y-159498000D01*
X360285714Y-159498000D02*
X360457142Y-159555142D01*
X360457142Y-159555142D02*
X360571428Y-159555142D01*
X360571428Y-159555142D02*
X360742857Y-159498000D01*
X360742857Y-159498000D02*
X360857142Y-159383714D01*
X360857142Y-159383714D02*
X360914285Y-159269428D01*
X360914285Y-159269428D02*
X360971428Y-159040857D01*
X360971428Y-159040857D02*
X360971428Y-158869428D01*
X360971428Y-158869428D02*
X360914285Y-158640857D01*
X360914285Y-158640857D02*
X360857142Y-158526571D01*
X360857142Y-158526571D02*
X360742857Y-158412285D01*
X360742857Y-158412285D02*
X360571428Y-158355142D01*
X360571428Y-158355142D02*
X360457142Y-158355142D01*
X360457142Y-158355142D02*
X360285714Y-158412285D01*
X360285714Y-158412285D02*
X360228571Y-158469428D01*
X359371428Y-158355142D02*
X359371428Y-159212285D01*
X359371428Y-159212285D02*
X359428571Y-159383714D01*
X359428571Y-159383714D02*
X359542857Y-159498000D01*
X359542857Y-159498000D02*
X359714285Y-159555142D01*
X359714285Y-159555142D02*
X359828571Y-159555142D01*
X358228571Y-159555142D02*
X358799999Y-159555142D01*
X358799999Y-159555142D02*
X358799999Y-158355142D01*
X357142856Y-159440857D02*
X357199999Y-159498000D01*
X357199999Y-159498000D02*
X357371427Y-159555142D01*
X357371427Y-159555142D02*
X357485713Y-159555142D01*
X357485713Y-159555142D02*
X357657142Y-159498000D01*
X357657142Y-159498000D02*
X357771427Y-159383714D01*
X357771427Y-159383714D02*
X357828570Y-159269428D01*
X357828570Y-159269428D02*
X357885713Y-159040857D01*
X357885713Y-159040857D02*
X357885713Y-158869428D01*
X357885713Y-158869428D02*
X357828570Y-158640857D01*
X357828570Y-158640857D02*
X357771427Y-158526571D01*
X357771427Y-158526571D02*
X357657142Y-158412285D01*
X357657142Y-158412285D02*
X357485713Y-158355142D01*
X357485713Y-158355142D02*
X357371427Y-158355142D01*
X357371427Y-158355142D02*
X357199999Y-158412285D01*
X357199999Y-158412285D02*
X357142856Y-158469428D01*
X356285713Y-158355142D02*
X356285713Y-159212285D01*
X356285713Y-159212285D02*
X356342856Y-159383714D01*
X356342856Y-159383714D02*
X356457142Y-159498000D01*
X356457142Y-159498000D02*
X356628570Y-159555142D01*
X356628570Y-159555142D02*
X356742856Y-159555142D01*
X355142856Y-159555142D02*
X355714284Y-159555142D01*
X355714284Y-159555142D02*
X355714284Y-158355142D01*
X354057141Y-159440857D02*
X354114284Y-159498000D01*
X354114284Y-159498000D02*
X354285712Y-159555142D01*
X354285712Y-159555142D02*
X354399998Y-159555142D01*
X354399998Y-159555142D02*
X354571427Y-159498000D01*
X354571427Y-159498000D02*
X354685712Y-159383714D01*
X354685712Y-159383714D02*
X354742855Y-159269428D01*
X354742855Y-159269428D02*
X354799998Y-159040857D01*
X354799998Y-159040857D02*
X354799998Y-158869428D01*
X354799998Y-158869428D02*
X354742855Y-158640857D01*
X354742855Y-158640857D02*
X354685712Y-158526571D01*
X354685712Y-158526571D02*
X354571427Y-158412285D01*
X354571427Y-158412285D02*
X354399998Y-158355142D01*
X354399998Y-158355142D02*
X354285712Y-158355142D01*
X354285712Y-158355142D02*
X354114284Y-158412285D01*
X354114284Y-158412285D02*
X354057141Y-158469428D01*
D11*
X112042857Y-52086428D02*
X112042857Y-50586428D01*
X112042857Y-51300714D02*
X111185714Y-51300714D01*
X111185714Y-52086428D02*
X111185714Y-50586428D01*
X110257142Y-52086428D02*
X110399999Y-52015000D01*
X110399999Y-52015000D02*
X110471428Y-51943571D01*
X110471428Y-51943571D02*
X110542856Y-51800714D01*
X110542856Y-51800714D02*
X110542856Y-51372142D01*
X110542856Y-51372142D02*
X110471428Y-51229285D01*
X110471428Y-51229285D02*
X110399999Y-51157857D01*
X110399999Y-51157857D02*
X110257142Y-51086428D01*
X110257142Y-51086428D02*
X110042856Y-51086428D01*
X110042856Y-51086428D02*
X109899999Y-51157857D01*
X109899999Y-51157857D02*
X109828571Y-51229285D01*
X109828571Y-51229285D02*
X109757142Y-51372142D01*
X109757142Y-51372142D02*
X109757142Y-51800714D01*
X109757142Y-51800714D02*
X109828571Y-51943571D01*
X109828571Y-51943571D02*
X109899999Y-52015000D01*
X109899999Y-52015000D02*
X110042856Y-52086428D01*
X110042856Y-52086428D02*
X110257142Y-52086428D01*
X109328570Y-51086428D02*
X108757142Y-51086428D01*
X109114285Y-50586428D02*
X109114285Y-51872142D01*
X109114285Y-51872142D02*
X109042856Y-52015000D01*
X109042856Y-52015000D02*
X108899999Y-52086428D01*
X108899999Y-52086428D02*
X108757142Y-52086428D01*
X108328570Y-52015000D02*
X108185713Y-52086428D01*
X108185713Y-52086428D02*
X107899999Y-52086428D01*
X107899999Y-52086428D02*
X107757142Y-52015000D01*
X107757142Y-52015000D02*
X107685713Y-51872142D01*
X107685713Y-51872142D02*
X107685713Y-51800714D01*
X107685713Y-51800714D02*
X107757142Y-51657857D01*
X107757142Y-51657857D02*
X107899999Y-51586428D01*
X107899999Y-51586428D02*
X108114285Y-51586428D01*
X108114285Y-51586428D02*
X108257142Y-51515000D01*
X108257142Y-51515000D02*
X108328570Y-51372142D01*
X108328570Y-51372142D02*
X108328570Y-51300714D01*
X108328570Y-51300714D02*
X108257142Y-51157857D01*
X108257142Y-51157857D02*
X108114285Y-51086428D01*
X108114285Y-51086428D02*
X107899999Y-51086428D01*
X107899999Y-51086428D02*
X107757142Y-51157857D01*
X107185713Y-51086428D02*
X106899999Y-52086428D01*
X106899999Y-52086428D02*
X106614284Y-51372142D01*
X106614284Y-51372142D02*
X106328570Y-52086428D01*
X106328570Y-52086428D02*
X106042856Y-51086428D01*
X104828570Y-52086428D02*
X104828570Y-51300714D01*
X104828570Y-51300714D02*
X104899998Y-51157857D01*
X104899998Y-51157857D02*
X105042855Y-51086428D01*
X105042855Y-51086428D02*
X105328570Y-51086428D01*
X105328570Y-51086428D02*
X105471427Y-51157857D01*
X104828570Y-52015000D02*
X104971427Y-52086428D01*
X104971427Y-52086428D02*
X105328570Y-52086428D01*
X105328570Y-52086428D02*
X105471427Y-52015000D01*
X105471427Y-52015000D02*
X105542855Y-51872142D01*
X105542855Y-51872142D02*
X105542855Y-51729285D01*
X105542855Y-51729285D02*
X105471427Y-51586428D01*
X105471427Y-51586428D02*
X105328570Y-51515000D01*
X105328570Y-51515000D02*
X104971427Y-51515000D01*
X104971427Y-51515000D02*
X104828570Y-51443571D01*
X104114284Y-51086428D02*
X104114284Y-52586428D01*
X104114284Y-51157857D02*
X103971427Y-51086428D01*
X103971427Y-51086428D02*
X103685712Y-51086428D01*
X103685712Y-51086428D02*
X103542855Y-51157857D01*
X103542855Y-51157857D02*
X103471427Y-51229285D01*
X103471427Y-51229285D02*
X103399998Y-51372142D01*
X103399998Y-51372142D02*
X103399998Y-51800714D01*
X103399998Y-51800714D02*
X103471427Y-51943571D01*
X103471427Y-51943571D02*
X103542855Y-52015000D01*
X103542855Y-52015000D02*
X103685712Y-52086428D01*
X103685712Y-52086428D02*
X103971427Y-52086428D01*
X103971427Y-52086428D02*
X104114284Y-52015000D01*
X101614284Y-51086428D02*
X101614284Y-52586428D01*
X101614284Y-51157857D02*
X101471427Y-51086428D01*
X101471427Y-51086428D02*
X101185712Y-51086428D01*
X101185712Y-51086428D02*
X101042855Y-51157857D01*
X101042855Y-51157857D02*
X100971427Y-51229285D01*
X100971427Y-51229285D02*
X100899998Y-51372142D01*
X100899998Y-51372142D02*
X100899998Y-51800714D01*
X100899998Y-51800714D02*
X100971427Y-51943571D01*
X100971427Y-51943571D02*
X101042855Y-52015000D01*
X101042855Y-52015000D02*
X101185712Y-52086428D01*
X101185712Y-52086428D02*
X101471427Y-52086428D01*
X101471427Y-52086428D02*
X101614284Y-52015000D01*
X100042855Y-52086428D02*
X100185712Y-52015000D01*
X100185712Y-52015000D02*
X100257141Y-51872142D01*
X100257141Y-51872142D02*
X100257141Y-50586428D01*
X98828570Y-52086428D02*
X98828570Y-51300714D01*
X98828570Y-51300714D02*
X98899998Y-51157857D01*
X98899998Y-51157857D02*
X99042855Y-51086428D01*
X99042855Y-51086428D02*
X99328570Y-51086428D01*
X99328570Y-51086428D02*
X99471427Y-51157857D01*
X98828570Y-52015000D02*
X98971427Y-52086428D01*
X98971427Y-52086428D02*
X99328570Y-52086428D01*
X99328570Y-52086428D02*
X99471427Y-52015000D01*
X99471427Y-52015000D02*
X99542855Y-51872142D01*
X99542855Y-51872142D02*
X99542855Y-51729285D01*
X99542855Y-51729285D02*
X99471427Y-51586428D01*
X99471427Y-51586428D02*
X99328570Y-51515000D01*
X99328570Y-51515000D02*
X98971427Y-51515000D01*
X98971427Y-51515000D02*
X98828570Y-51443571D01*
X98328569Y-51086428D02*
X97757141Y-51086428D01*
X98114284Y-50586428D02*
X98114284Y-51872142D01*
X98114284Y-51872142D02*
X98042855Y-52015000D01*
X98042855Y-52015000D02*
X97899998Y-52086428D01*
X97899998Y-52086428D02*
X97757141Y-52086428D01*
X96685712Y-52015000D02*
X96828569Y-52086428D01*
X96828569Y-52086428D02*
X97114284Y-52086428D01*
X97114284Y-52086428D02*
X97257141Y-52015000D01*
X97257141Y-52015000D02*
X97328569Y-51872142D01*
X97328569Y-51872142D02*
X97328569Y-51300714D01*
X97328569Y-51300714D02*
X97257141Y-51157857D01*
X97257141Y-51157857D02*
X97114284Y-51086428D01*
X97114284Y-51086428D02*
X96828569Y-51086428D01*
X96828569Y-51086428D02*
X96685712Y-51157857D01*
X96685712Y-51157857D02*
X96614284Y-51300714D01*
X96614284Y-51300714D02*
X96614284Y-51443571D01*
X96614284Y-51443571D02*
X97328569Y-51586428D01*
X94828570Y-51515000D02*
X93685713Y-51515000D01*
X91899998Y-51657857D02*
X91185713Y-51657857D01*
X92042855Y-52086428D02*
X91542855Y-50586428D01*
X91542855Y-50586428D02*
X91042855Y-52086428D01*
X90542856Y-52086428D02*
X90542856Y-50586428D01*
X90542856Y-50586428D02*
X89685713Y-52086428D01*
X89685713Y-52086428D02*
X89685713Y-50586428D01*
X89042855Y-52015000D02*
X88828570Y-52086428D01*
X88828570Y-52086428D02*
X88471427Y-52086428D01*
X88471427Y-52086428D02*
X88328570Y-52015000D01*
X88328570Y-52015000D02*
X88257141Y-51943571D01*
X88257141Y-51943571D02*
X88185712Y-51800714D01*
X88185712Y-51800714D02*
X88185712Y-51657857D01*
X88185712Y-51657857D02*
X88257141Y-51515000D01*
X88257141Y-51515000D02*
X88328570Y-51443571D01*
X88328570Y-51443571D02*
X88471427Y-51372142D01*
X88471427Y-51372142D02*
X88757141Y-51300714D01*
X88757141Y-51300714D02*
X88899998Y-51229285D01*
X88899998Y-51229285D02*
X88971427Y-51157857D01*
X88971427Y-51157857D02*
X89042855Y-51015000D01*
X89042855Y-51015000D02*
X89042855Y-50872142D01*
X89042855Y-50872142D02*
X88971427Y-50729285D01*
X88971427Y-50729285D02*
X88899998Y-50657857D01*
X88899998Y-50657857D02*
X88757141Y-50586428D01*
X88757141Y-50586428D02*
X88399998Y-50586428D01*
X88399998Y-50586428D02*
X88185712Y-50657857D01*
X87542856Y-52086428D02*
X87542856Y-50586428D01*
X112042857Y-54516428D02*
X112042857Y-53016428D01*
X112042857Y-53016428D02*
X111542857Y-54087857D01*
X111542857Y-54087857D02*
X111042857Y-53016428D01*
X111042857Y-53016428D02*
X111042857Y-54516428D01*
X109685714Y-54516428D02*
X109685714Y-53730714D01*
X109685714Y-53730714D02*
X109757142Y-53587857D01*
X109757142Y-53587857D02*
X109899999Y-53516428D01*
X109899999Y-53516428D02*
X110185714Y-53516428D01*
X110185714Y-53516428D02*
X110328571Y-53587857D01*
X109685714Y-54445000D02*
X109828571Y-54516428D01*
X109828571Y-54516428D02*
X110185714Y-54516428D01*
X110185714Y-54516428D02*
X110328571Y-54445000D01*
X110328571Y-54445000D02*
X110399999Y-54302142D01*
X110399999Y-54302142D02*
X110399999Y-54159285D01*
X110399999Y-54159285D02*
X110328571Y-54016428D01*
X110328571Y-54016428D02*
X110185714Y-53945000D01*
X110185714Y-53945000D02*
X109828571Y-53945000D01*
X109828571Y-53945000D02*
X109685714Y-53873571D01*
X108971428Y-54516428D02*
X108971428Y-53516428D01*
X108971428Y-53802142D02*
X108899999Y-53659285D01*
X108899999Y-53659285D02*
X108828571Y-53587857D01*
X108828571Y-53587857D02*
X108685713Y-53516428D01*
X108685713Y-53516428D02*
X108542856Y-53516428D01*
X106971428Y-53159285D02*
X106900000Y-53087857D01*
X106900000Y-53087857D02*
X106757143Y-53016428D01*
X106757143Y-53016428D02*
X106400000Y-53016428D01*
X106400000Y-53016428D02*
X106257143Y-53087857D01*
X106257143Y-53087857D02*
X106185714Y-53159285D01*
X106185714Y-53159285D02*
X106114285Y-53302142D01*
X106114285Y-53302142D02*
X106114285Y-53445000D01*
X106114285Y-53445000D02*
X106185714Y-53659285D01*
X106185714Y-53659285D02*
X107042857Y-54516428D01*
X107042857Y-54516428D02*
X106114285Y-54516428D01*
X104828572Y-53016428D02*
X105114286Y-53016428D01*
X105114286Y-53016428D02*
X105257143Y-53087857D01*
X105257143Y-53087857D02*
X105328572Y-53159285D01*
X105328572Y-53159285D02*
X105471429Y-53373571D01*
X105471429Y-53373571D02*
X105542857Y-53659285D01*
X105542857Y-53659285D02*
X105542857Y-54230714D01*
X105542857Y-54230714D02*
X105471429Y-54373571D01*
X105471429Y-54373571D02*
X105400000Y-54445000D01*
X105400000Y-54445000D02*
X105257143Y-54516428D01*
X105257143Y-54516428D02*
X104971429Y-54516428D01*
X104971429Y-54516428D02*
X104828572Y-54445000D01*
X104828572Y-54445000D02*
X104757143Y-54373571D01*
X104757143Y-54373571D02*
X104685714Y-54230714D01*
X104685714Y-54230714D02*
X104685714Y-53873571D01*
X104685714Y-53873571D02*
X104757143Y-53730714D01*
X104757143Y-53730714D02*
X104828572Y-53659285D01*
X104828572Y-53659285D02*
X104971429Y-53587857D01*
X104971429Y-53587857D02*
X105257143Y-53587857D01*
X105257143Y-53587857D02*
X105400000Y-53659285D01*
X105400000Y-53659285D02*
X105471429Y-53730714D01*
X105471429Y-53730714D02*
X105542857Y-53873571D01*
X103971429Y-54445000D02*
X103971429Y-54516428D01*
X103971429Y-54516428D02*
X104042858Y-54659285D01*
X104042858Y-54659285D02*
X104114286Y-54730714D01*
X102257143Y-53159285D02*
X102185715Y-53087857D01*
X102185715Y-53087857D02*
X102042858Y-53016428D01*
X102042858Y-53016428D02*
X101685715Y-53016428D01*
X101685715Y-53016428D02*
X101542858Y-53087857D01*
X101542858Y-53087857D02*
X101471429Y-53159285D01*
X101471429Y-53159285D02*
X101400000Y-53302142D01*
X101400000Y-53302142D02*
X101400000Y-53445000D01*
X101400000Y-53445000D02*
X101471429Y-53659285D01*
X101471429Y-53659285D02*
X102328572Y-54516428D01*
X102328572Y-54516428D02*
X101400000Y-54516428D01*
X100471429Y-53016428D02*
X100328572Y-53016428D01*
X100328572Y-53016428D02*
X100185715Y-53087857D01*
X100185715Y-53087857D02*
X100114287Y-53159285D01*
X100114287Y-53159285D02*
X100042858Y-53302142D01*
X100042858Y-53302142D02*
X99971429Y-53587857D01*
X99971429Y-53587857D02*
X99971429Y-53945000D01*
X99971429Y-53945000D02*
X100042858Y-54230714D01*
X100042858Y-54230714D02*
X100114287Y-54373571D01*
X100114287Y-54373571D02*
X100185715Y-54445000D01*
X100185715Y-54445000D02*
X100328572Y-54516428D01*
X100328572Y-54516428D02*
X100471429Y-54516428D01*
X100471429Y-54516428D02*
X100614287Y-54445000D01*
X100614287Y-54445000D02*
X100685715Y-54373571D01*
X100685715Y-54373571D02*
X100757144Y-54230714D01*
X100757144Y-54230714D02*
X100828572Y-53945000D01*
X100828572Y-53945000D02*
X100828572Y-53587857D01*
X100828572Y-53587857D02*
X100757144Y-53302142D01*
X100757144Y-53302142D02*
X100685715Y-53159285D01*
X100685715Y-53159285D02*
X100614287Y-53087857D01*
X100614287Y-53087857D02*
X100471429Y-53016428D01*
X99400001Y-53159285D02*
X99328573Y-53087857D01*
X99328573Y-53087857D02*
X99185716Y-53016428D01*
X99185716Y-53016428D02*
X98828573Y-53016428D01*
X98828573Y-53016428D02*
X98685716Y-53087857D01*
X98685716Y-53087857D02*
X98614287Y-53159285D01*
X98614287Y-53159285D02*
X98542858Y-53302142D01*
X98542858Y-53302142D02*
X98542858Y-53445000D01*
X98542858Y-53445000D02*
X98614287Y-53659285D01*
X98614287Y-53659285D02*
X99471430Y-54516428D01*
X99471430Y-54516428D02*
X98542858Y-54516428D01*
X98042859Y-53016428D02*
X97114287Y-53016428D01*
X97114287Y-53016428D02*
X97614287Y-53587857D01*
X97614287Y-53587857D02*
X97400002Y-53587857D01*
X97400002Y-53587857D02*
X97257145Y-53659285D01*
X97257145Y-53659285D02*
X97185716Y-53730714D01*
X97185716Y-53730714D02*
X97114287Y-53873571D01*
X97114287Y-53873571D02*
X97114287Y-54230714D01*
X97114287Y-54230714D02*
X97185716Y-54373571D01*
X97185716Y-54373571D02*
X97257145Y-54445000D01*
X97257145Y-54445000D02*
X97400002Y-54516428D01*
X97400002Y-54516428D02*
X97828573Y-54516428D01*
X97828573Y-54516428D02*
X97971430Y-54445000D01*
X97971430Y-54445000D02*
X98042859Y-54373571D01*
M02*
