%TF.GenerationSoftware,KiCad,Pcbnew,7.0.2*%
%TF.CreationDate,2023-06-27T02:19:37-04:00*%
%TF.ProjectId,3DP-FR4-hotswap-plate-ANSI,3344502d-4652-4342-9d68-6f7473776170,rev?*%
%TF.SameCoordinates,Original*%
%TF.FileFunction,Soldermask,Bot*%
%TF.FilePolarity,Negative*%
%FSLAX46Y46*%
G04 Gerber Fmt 4.6, Leading zero omitted, Abs format (unit mm)*
G04 Created by KiCad (PCBNEW 7.0.2) date 2023-06-27 02:19:37*
%MOMM*%
%LPD*%
G01*
G04 APERTURE LIST*
G04 Aperture macros list*
%AMRoundRect*
0 Rectangle with rounded corners*
0 $1 Rounding radius*
0 $2 $3 $4 $5 $6 $7 $8 $9 X,Y pos of 4 corners*
0 Add a 4 corners polygon primitive as box body*
4,1,4,$2,$3,$4,$5,$6,$7,$8,$9,$2,$3,0*
0 Add four circle primitives for the rounded corners*
1,1,$1+$1,$2,$3*
1,1,$1+$1,$4,$5*
1,1,$1+$1,$6,$7*
1,1,$1+$1,$8,$9*
0 Add four rect primitives between the rounded corners*
20,1,$1+$1,$2,$3,$4,$5,0*
20,1,$1+$1,$4,$5,$6,$7,0*
20,1,$1+$1,$6,$7,$8,$9,0*
20,1,$1+$1,$8,$9,$2,$3,0*%
G04 Aperture macros list end*
%ADD10O,10.000000X6.500000*%
%ADD11C,4.400000*%
%ADD12C,3.500000*%
%ADD13C,9.200000*%
%ADD14RoundRect,1.000000X1.000000X4.000000X-1.000000X4.000000X-1.000000X-4.000000X1.000000X-4.000000X0*%
G04 APERTURE END LIST*
D10*
%TO.C,H308*%
X93000000Y-157200000D03*
%TD*%
%TO.C,H306*%
X373000000Y-5375000D03*
%TD*%
D11*
%TO.C,H508*%
X276262300Y-52712500D03*
%TD*%
D12*
%TO.C,H206*%
X145613000Y-76525000D03*
%TD*%
%TO.C,H208*%
X50363000Y-133675000D03*
%TD*%
D10*
%TO.C,H311*%
X373000000Y-157200000D03*
%TD*%
D12*
%TO.C,H201*%
X50363000Y-28900000D03*
%TD*%
%TO.C,H207*%
X336113000Y-76525000D03*
%TD*%
D10*
%TO.C,H310*%
X233000000Y-157200000D03*
%TD*%
D13*
%TO.C,H102*%
X283725500Y-52712500D03*
%TD*%
D12*
%TO.C,H210*%
X374213000Y-133675000D03*
%TD*%
D13*
%TO.C,H104*%
X321825500Y-52712500D03*
%TD*%
D11*
%TO.C,H503*%
X109894250Y-14675000D03*
%TD*%
D10*
%TO.C,H304*%
X233000000Y-5375000D03*
%TD*%
%TO.C,H301*%
X23000000Y-5375000D03*
%TD*%
D11*
%TO.C,H512*%
X333731750Y-14675000D03*
%TD*%
%TO.C,H511*%
X305157000Y-119100000D03*
%TD*%
%TO.C,H101*%
X190856750Y-14675000D03*
%TD*%
D10*
%TO.C,H307*%
X23000000Y-157200000D03*
%TD*%
D11*
%TO.C,H506*%
X208963000Y-52712500D03*
%TD*%
%TO.C,H504*%
X119763000Y-52712500D03*
%TD*%
D10*
%TO.C,H303*%
X163000000Y-5375000D03*
%TD*%
D11*
%TO.C,H502*%
X25263000Y-26375000D03*
%TD*%
D12*
%TO.C,H203*%
X250388000Y-28900000D03*
%TD*%
D11*
%TO.C,H505*%
X196762300Y-52712500D03*
%TD*%
D12*
%TO.C,H202*%
X150375500Y-28900000D03*
%TD*%
%TO.C,H209*%
X212288000Y-133675000D03*
%TD*%
D13*
%TO.C,H513*%
X25263000Y-16375000D03*
%TD*%
D11*
%TO.C,H514*%
X314681750Y-149531112D03*
%TD*%
%TO.C,H507*%
X271819250Y-14675000D03*
%TD*%
D13*
%TO.C,H103*%
X302775500Y-52712500D03*
%TD*%
D10*
%TO.C,H302*%
X93000000Y-5375000D03*
%TD*%
D11*
%TO.C,H501*%
X8563000Y-52712500D03*
%TD*%
%TO.C,H510*%
X252769250Y-149531112D03*
%TD*%
%TO.C,H509*%
X387437000Y-52712500D03*
%TD*%
D10*
%TO.C,H305*%
X303000000Y-5375000D03*
%TD*%
D12*
%TO.C,H204*%
X374213000Y-28900000D03*
%TD*%
D10*
%TO.C,H309*%
X163000000Y-157200000D03*
%TD*%
D12*
%TO.C,H205*%
X27741125Y-76525000D03*
%TD*%
D14*
%TO.C,TP1*%
X393000000Y-53250000D03*
%TD*%
M02*
