M48
; DRILL file {KiCad 7.0.2} date Tue Jun 27 02:26:58 2023
; FORMAT={-:-/ absolute / metric / decimal}
; #@! TF.CreationDate,2023-06-27T02:26:58-04:00
; #@! TF.GenerationSoftware,Kicad,Pcbnew,7.0.2
; #@! TF.FileFunction,Plated,1,2,PTH
FMAT,2
METRIC
; #@! TA.AperFunction,Plated,PTH,ComponentDrill
T1C2.200
; #@! TA.AperFunction,Plated,PTH,ComponentDrill
T2C4.600
; #@! TA.AperFunction,Plated,PTH,ComponentDrill
T3C5.300
%
G90
G05
T1
X8.563Y-52.712
X25.263Y-26.375
X27.741Y-76.525
X50.363Y-28.9
X50.363Y-133.675
X109.894Y-14.675
X119.763Y-52.712
X145.613Y-76.525
X150.375Y-28.9
X190.857Y-14.675
X196.762Y-52.712
X208.963Y-52.712
X212.288Y-133.675
X250.388Y-28.9
X252.769Y-149.531
X271.819Y-14.675
X276.262Y-52.712
X305.157Y-119.1
X314.682Y-149.531
X333.732Y-14.675
X336.113Y-76.525
X374.213Y-28.9
X374.213Y-133.675
X387.437Y-52.712
T2
X23.0Y-5.375
X23.0Y-157.2
X93.0Y-5.375
X93.0Y-157.2
X163.0Y-5.375
X163.0Y-157.2
X233.0Y-5.375
X233.0Y-157.2
X303.0Y-5.375
X373.0Y-5.375
X373.0Y-157.2
T3
X25.263Y-16.375
X283.726Y-52.712
X302.775Y-52.712
X321.825Y-52.712
T0
M30
