%TF.GenerationSoftware,KiCad,Pcbnew,7.0.2*%
%TF.CreationDate,2023-06-27T02:19:37-04:00*%
%TF.ProjectId,3DP-FR4-hotswap-plate-ANSI,3344502d-4652-4342-9d68-6f7473776170,rev?*%
%TF.SameCoordinates,Original*%
%TF.FileFunction,Legend,Top*%
%TF.FilePolarity,Positive*%
%FSLAX46Y46*%
G04 Gerber Fmt 4.6, Leading zero omitted, Abs format (unit mm)*
G04 Created by KiCad (PCBNEW 7.0.2) date 2023-06-27 02:19:37*
%MOMM*%
%LPD*%
G01*
G04 APERTURE LIST*
%ADD10C,0.150000*%
%ADD11C,0.200000*%
G04 APERTURE END LIST*
D10*
X133111540Y-135461019D02*
X134302166Y-135461019D01*
X138469357Y-151534470D02*
X140255296Y-151534470D01*
X134302166Y-135461019D02*
X133706853Y-136056332D01*
X133706853Y-136056332D02*
X133111540Y-135461019D01*
X139064670Y-150939157D02*
X137874044Y-150939157D01*
X137874044Y-150939157D02*
X138469357Y-150343844D01*
X138469357Y-150343844D02*
X138469357Y-151534470D01*
X138469357Y-150343844D02*
X139064670Y-150939157D01*
X133706853Y-134865706D02*
X133111540Y-134865706D01*
X133706853Y-136056332D02*
X133706853Y-134865706D01*
X98440754Y-135018876D02*
X98488373Y-134971257D01*
X98488373Y-134971257D02*
X98583611Y-134923638D01*
X98583611Y-134923638D02*
X98821706Y-134923638D01*
X98821706Y-134923638D02*
X98916944Y-134971257D01*
X98916944Y-134971257D02*
X98964563Y-135018876D01*
X98964563Y-135018876D02*
X99012182Y-135114114D01*
X99012182Y-135114114D02*
X99012182Y-135209352D01*
X99012182Y-135209352D02*
X98964563Y-135352209D01*
X98964563Y-135352209D02*
X98393135Y-135923638D01*
X98393135Y-135923638D02*
X99012182Y-135923638D01*
X99440754Y-135828399D02*
X99488373Y-135876019D01*
X99488373Y-135876019D02*
X99440754Y-135923638D01*
X99440754Y-135923638D02*
X99393135Y-135876019D01*
X99393135Y-135876019D02*
X99440754Y-135828399D01*
X99440754Y-135828399D02*
X99440754Y-135923638D01*
X99821706Y-134923638D02*
X100488372Y-134923638D01*
X100488372Y-134923638D02*
X100059801Y-135923638D01*
X101345515Y-134923638D02*
X100869325Y-134923638D01*
X100869325Y-134923638D02*
X100821706Y-135399828D01*
X100821706Y-135399828D02*
X100869325Y-135352209D01*
X100869325Y-135352209D02*
X100964563Y-135304590D01*
X100964563Y-135304590D02*
X101202658Y-135304590D01*
X101202658Y-135304590D02*
X101297896Y-135352209D01*
X101297896Y-135352209D02*
X101345515Y-135399828D01*
X101345515Y-135399828D02*
X101393134Y-135495066D01*
X101393134Y-135495066D02*
X101393134Y-135733161D01*
X101393134Y-135733161D02*
X101345515Y-135828399D01*
X101345515Y-135828399D02*
X101297896Y-135876019D01*
X101297896Y-135876019D02*
X101202658Y-135923638D01*
X101202658Y-135923638D02*
X100964563Y-135923638D01*
X100964563Y-135923638D02*
X100869325Y-135876019D01*
X100869325Y-135876019D02*
X100821706Y-135828399D01*
X102250277Y-135256971D02*
X102250277Y-135923638D01*
X101821706Y-135256971D02*
X101821706Y-135780780D01*
X101821706Y-135780780D02*
X101869325Y-135876019D01*
X101869325Y-135876019D02*
X101964563Y-135923638D01*
X101964563Y-135923638D02*
X102107420Y-135923638D01*
X102107420Y-135923638D02*
X102202658Y-135876019D01*
X102202658Y-135876019D02*
X102250277Y-135828399D01*
D11*
X239557143Y-119155142D02*
X239157143Y-118583714D01*
X238871429Y-119155142D02*
X238871429Y-117955142D01*
X238871429Y-117955142D02*
X239328572Y-117955142D01*
X239328572Y-117955142D02*
X239442857Y-118012285D01*
X239442857Y-118012285D02*
X239500000Y-118069428D01*
X239500000Y-118069428D02*
X239557143Y-118183714D01*
X239557143Y-118183714D02*
X239557143Y-118355142D01*
X239557143Y-118355142D02*
X239500000Y-118469428D01*
X239500000Y-118469428D02*
X239442857Y-118526571D01*
X239442857Y-118526571D02*
X239328572Y-118583714D01*
X239328572Y-118583714D02*
X238871429Y-118583714D01*
X240071429Y-118526571D02*
X240471429Y-118526571D01*
X240642857Y-119155142D02*
X240071429Y-119155142D01*
X240071429Y-119155142D02*
X240071429Y-117955142D01*
X240071429Y-117955142D02*
X240642857Y-117955142D01*
X241100000Y-119098000D02*
X241271429Y-119155142D01*
X241271429Y-119155142D02*
X241557143Y-119155142D01*
X241557143Y-119155142D02*
X241671429Y-119098000D01*
X241671429Y-119098000D02*
X241728571Y-119040857D01*
X241728571Y-119040857D02*
X241785714Y-118926571D01*
X241785714Y-118926571D02*
X241785714Y-118812285D01*
X241785714Y-118812285D02*
X241728571Y-118698000D01*
X241728571Y-118698000D02*
X241671429Y-118640857D01*
X241671429Y-118640857D02*
X241557143Y-118583714D01*
X241557143Y-118583714D02*
X241328571Y-118526571D01*
X241328571Y-118526571D02*
X241214286Y-118469428D01*
X241214286Y-118469428D02*
X241157143Y-118412285D01*
X241157143Y-118412285D02*
X241100000Y-118298000D01*
X241100000Y-118298000D02*
X241100000Y-118183714D01*
X241100000Y-118183714D02*
X241157143Y-118069428D01*
X241157143Y-118069428D02*
X241214286Y-118012285D01*
X241214286Y-118012285D02*
X241328571Y-117955142D01*
X241328571Y-117955142D02*
X241614286Y-117955142D01*
X241614286Y-117955142D02*
X241785714Y-118012285D01*
X242300000Y-118526571D02*
X242700000Y-118526571D01*
X242871428Y-119155142D02*
X242300000Y-119155142D01*
X242300000Y-119155142D02*
X242300000Y-117955142D01*
X242300000Y-117955142D02*
X242871428Y-117955142D01*
X243214285Y-117955142D02*
X243900000Y-117955142D01*
X243557142Y-119155142D02*
X243557142Y-117955142D01*
D10*
X129277907Y-134328325D02*
X129087431Y-134328325D01*
X129087431Y-134328325D02*
X128992193Y-134375944D01*
X128992193Y-134375944D02*
X128944574Y-134423563D01*
X128944574Y-134423563D02*
X128849336Y-134566420D01*
X128849336Y-134566420D02*
X128801717Y-134756896D01*
X128801717Y-134756896D02*
X128801717Y-135137848D01*
X128801717Y-135137848D02*
X128849336Y-135233086D01*
X128849336Y-135233086D02*
X128896955Y-135280706D01*
X128896955Y-135280706D02*
X128992193Y-135328325D01*
X128992193Y-135328325D02*
X129182669Y-135328325D01*
X129182669Y-135328325D02*
X129277907Y-135280706D01*
X129277907Y-135280706D02*
X129325526Y-135233086D01*
X129325526Y-135233086D02*
X129373145Y-135137848D01*
X129373145Y-135137848D02*
X129373145Y-134899753D01*
X129373145Y-134899753D02*
X129325526Y-134804515D01*
X129325526Y-134804515D02*
X129277907Y-134756896D01*
X129277907Y-134756896D02*
X129182669Y-134709277D01*
X129182669Y-134709277D02*
X128992193Y-134709277D01*
X128992193Y-134709277D02*
X128896955Y-134756896D01*
X128896955Y-134756896D02*
X128849336Y-134804515D01*
X128849336Y-134804515D02*
X128801717Y-134899753D01*
X129801717Y-135233086D02*
X129849336Y-135280706D01*
X129849336Y-135280706D02*
X129801717Y-135328325D01*
X129801717Y-135328325D02*
X129754098Y-135280706D01*
X129754098Y-135280706D02*
X129801717Y-135233086D01*
X129801717Y-135233086D02*
X129801717Y-135328325D01*
X130230288Y-134423563D02*
X130277907Y-134375944D01*
X130277907Y-134375944D02*
X130373145Y-134328325D01*
X130373145Y-134328325D02*
X130611240Y-134328325D01*
X130611240Y-134328325D02*
X130706478Y-134375944D01*
X130706478Y-134375944D02*
X130754097Y-134423563D01*
X130754097Y-134423563D02*
X130801716Y-134518801D01*
X130801716Y-134518801D02*
X130801716Y-134614039D01*
X130801716Y-134614039D02*
X130754097Y-134756896D01*
X130754097Y-134756896D02*
X130182669Y-135328325D01*
X130182669Y-135328325D02*
X130801716Y-135328325D01*
X131706478Y-134328325D02*
X131230288Y-134328325D01*
X131230288Y-134328325D02*
X131182669Y-134804515D01*
X131182669Y-134804515D02*
X131230288Y-134756896D01*
X131230288Y-134756896D02*
X131325526Y-134709277D01*
X131325526Y-134709277D02*
X131563621Y-134709277D01*
X131563621Y-134709277D02*
X131658859Y-134756896D01*
X131658859Y-134756896D02*
X131706478Y-134804515D01*
X131706478Y-134804515D02*
X131754097Y-134899753D01*
X131754097Y-134899753D02*
X131754097Y-135137848D01*
X131754097Y-135137848D02*
X131706478Y-135233086D01*
X131706478Y-135233086D02*
X131658859Y-135280706D01*
X131658859Y-135280706D02*
X131563621Y-135328325D01*
X131563621Y-135328325D02*
X131325526Y-135328325D01*
X131325526Y-135328325D02*
X131230288Y-135280706D01*
X131230288Y-135280706D02*
X131182669Y-135233086D01*
X132611240Y-134661658D02*
X132611240Y-135328325D01*
X132182669Y-134661658D02*
X132182669Y-135185467D01*
X132182669Y-135185467D02*
X132230288Y-135280706D01*
X132230288Y-135280706D02*
X132325526Y-135328325D01*
X132325526Y-135328325D02*
X132468383Y-135328325D01*
X132468383Y-135328325D02*
X132563621Y-135280706D01*
X132563621Y-135280706D02*
X132611240Y-135233086D01*
X169878314Y-135018876D02*
X169925933Y-134971257D01*
X169925933Y-134971257D02*
X170021171Y-134923638D01*
X170021171Y-134923638D02*
X170259266Y-134923638D01*
X170259266Y-134923638D02*
X170354504Y-134971257D01*
X170354504Y-134971257D02*
X170402123Y-135018876D01*
X170402123Y-135018876D02*
X170449742Y-135114114D01*
X170449742Y-135114114D02*
X170449742Y-135209352D01*
X170449742Y-135209352D02*
X170402123Y-135352209D01*
X170402123Y-135352209D02*
X169830695Y-135923638D01*
X169830695Y-135923638D02*
X170449742Y-135923638D01*
X170878314Y-135828399D02*
X170925933Y-135876019D01*
X170925933Y-135876019D02*
X170878314Y-135923638D01*
X170878314Y-135923638D02*
X170830695Y-135876019D01*
X170830695Y-135876019D02*
X170878314Y-135828399D01*
X170878314Y-135828399D02*
X170878314Y-135923638D01*
X171306885Y-135018876D02*
X171354504Y-134971257D01*
X171354504Y-134971257D02*
X171449742Y-134923638D01*
X171449742Y-134923638D02*
X171687837Y-134923638D01*
X171687837Y-134923638D02*
X171783075Y-134971257D01*
X171783075Y-134971257D02*
X171830694Y-135018876D01*
X171830694Y-135018876D02*
X171878313Y-135114114D01*
X171878313Y-135114114D02*
X171878313Y-135209352D01*
X171878313Y-135209352D02*
X171830694Y-135352209D01*
X171830694Y-135352209D02*
X171259266Y-135923638D01*
X171259266Y-135923638D02*
X171878313Y-135923638D01*
X172783075Y-134923638D02*
X172306885Y-134923638D01*
X172306885Y-134923638D02*
X172259266Y-135399828D01*
X172259266Y-135399828D02*
X172306885Y-135352209D01*
X172306885Y-135352209D02*
X172402123Y-135304590D01*
X172402123Y-135304590D02*
X172640218Y-135304590D01*
X172640218Y-135304590D02*
X172735456Y-135352209D01*
X172735456Y-135352209D02*
X172783075Y-135399828D01*
X172783075Y-135399828D02*
X172830694Y-135495066D01*
X172830694Y-135495066D02*
X172830694Y-135733161D01*
X172830694Y-135733161D02*
X172783075Y-135828399D01*
X172783075Y-135828399D02*
X172735456Y-135876019D01*
X172735456Y-135876019D02*
X172640218Y-135923638D01*
X172640218Y-135923638D02*
X172402123Y-135923638D01*
X172402123Y-135923638D02*
X172306885Y-135876019D01*
X172306885Y-135876019D02*
X172259266Y-135828399D01*
X173687837Y-135256971D02*
X173687837Y-135923638D01*
X173259266Y-135256971D02*
X173259266Y-135780780D01*
X173259266Y-135780780D02*
X173306885Y-135876019D01*
X173306885Y-135876019D02*
X173402123Y-135923638D01*
X173402123Y-135923638D02*
X173544980Y-135923638D01*
X173544980Y-135923638D02*
X173640218Y-135876019D01*
X173640218Y-135876019D02*
X173687837Y-135828399D01*
X141279405Y-151997089D02*
X140707977Y-151997089D01*
X140993691Y-151997089D02*
X140993691Y-150997089D01*
X140993691Y-150997089D02*
X140898453Y-151139946D01*
X140898453Y-151139946D02*
X140803215Y-151235184D01*
X140803215Y-151235184D02*
X140707977Y-151282803D01*
X141707977Y-151901850D02*
X141755596Y-151949470D01*
X141755596Y-151949470D02*
X141707977Y-151997089D01*
X141707977Y-151997089D02*
X141660358Y-151949470D01*
X141660358Y-151949470D02*
X141707977Y-151901850D01*
X141707977Y-151901850D02*
X141707977Y-151997089D01*
X142136548Y-151092327D02*
X142184167Y-151044708D01*
X142184167Y-151044708D02*
X142279405Y-150997089D01*
X142279405Y-150997089D02*
X142517500Y-150997089D01*
X142517500Y-150997089D02*
X142612738Y-151044708D01*
X142612738Y-151044708D02*
X142660357Y-151092327D01*
X142660357Y-151092327D02*
X142707976Y-151187565D01*
X142707976Y-151187565D02*
X142707976Y-151282803D01*
X142707976Y-151282803D02*
X142660357Y-151425660D01*
X142660357Y-151425660D02*
X142088929Y-151997089D01*
X142088929Y-151997089D02*
X142707976Y-151997089D01*
X143612738Y-150997089D02*
X143136548Y-150997089D01*
X143136548Y-150997089D02*
X143088929Y-151473279D01*
X143088929Y-151473279D02*
X143136548Y-151425660D01*
X143136548Y-151425660D02*
X143231786Y-151378041D01*
X143231786Y-151378041D02*
X143469881Y-151378041D01*
X143469881Y-151378041D02*
X143565119Y-151425660D01*
X143565119Y-151425660D02*
X143612738Y-151473279D01*
X143612738Y-151473279D02*
X143660357Y-151568517D01*
X143660357Y-151568517D02*
X143660357Y-151806612D01*
X143660357Y-151806612D02*
X143612738Y-151901850D01*
X143612738Y-151901850D02*
X143565119Y-151949470D01*
X143565119Y-151949470D02*
X143469881Y-151997089D01*
X143469881Y-151997089D02*
X143231786Y-151997089D01*
X143231786Y-151997089D02*
X143136548Y-151949470D01*
X143136548Y-151949470D02*
X143088929Y-151901850D01*
X144517500Y-151330422D02*
X144517500Y-151997089D01*
X144088929Y-151330422D02*
X144088929Y-151854231D01*
X144088929Y-151854231D02*
X144136548Y-151949470D01*
X144136548Y-151949470D02*
X144231786Y-151997089D01*
X144231786Y-151997089D02*
X144374643Y-151997089D01*
X144374643Y-151997089D02*
X144469881Y-151949470D01*
X144469881Y-151949470D02*
X144517500Y-151901850D01*
M02*
