0
SECTION
2
HEADER
9
$INSUNITS
70
4
0
ENDSEC
0
SECTION
2
TABLES
0
TABLE
2
LTYPE
0
LTYPE
72
65
70
64
2
CONTINUOUS
3
______
73
0
40
0
0
ENDTAB
0
TABLE
2
LAYER
0
ENDTAB
0
ENDSEC
0
SECTION
2
ENTITIES
0
LINE
8
0
10
31.6
20
-2.525
11
44.6
21
-2.525
0
LINE
8
0
10
31.6
20
-16.525
11
44.6
21
-16.525
0
LINE
8
0
10
31.1
20
-3.025
11
31.1
21
-16.025
0
LINE
8
0
10
45.1
20
-3.025
11
45.1
21
-16.025
0
ARC
8
0
10
31.6
20
-3.025
40
0.5
50
90
51
180
0
ARC
8
0
10
44.6
20
-3.025
40
0.5
50
0
51
90
0
ARC
8
0
10
31.6
20
-16.025
40
0.5
50
180
51
270
0
ARC
8
0
10
44.6
20
-16.025
40
0.5
50
270
51
0
0
LINE
8
0
10
50.65
20
-2.525
11
63.65
21
-2.525
0
LINE
8
0
10
50.65
20
-16.525
11
63.65
21
-16.525
0
LINE
8
0
10
50.15
20
-3.025
11
50.15
21
-16.025
0
LINE
8
0
10
64.15
20
-3.025
11
64.15
21
-16.025
0
ARC
8
0
10
50.65
20
-3.025
40
0.5
50
90
51
180
0
ARC
8
0
10
63.65
20
-3.025
40
0.5
50
0
51
90
0
ARC
8
0
10
50.65
20
-16.025
40
0.5
50
180
51
270
0
ARC
8
0
10
63.65
20
-16.025
40
0.5
50
270
51
0
0
LINE
8
0
10
69.7
20
-2.525
11
82.7
21
-2.525
0
LINE
8
0
10
69.7
20
-16.525
11
82.7
21
-16.525
0
LINE
8
0
10
69.2
20
-3.025
11
69.2
21
-16.025
0
LINE
8
0
10
83.2
20
-3.025
11
83.2
21
-16.025
0
ARC
8
0
10
69.7
20
-3.025
40
0.5
50
90
51
180
0
ARC
8
0
10
82.7
20
-3.025
40
0.5
50
0
51
90
0
ARC
8
0
10
69.7
20
-16.025
40
0.5
50
180
51
270
0
ARC
8
0
10
82.7
20
-16.025
40
0.5
50
270
51
0
0
LINE
8
0
10
88.75
20
-2.525
11
101.75
21
-2.525
0
LINE
8
0
10
88.75
20
-16.525
11
101.75
21
-16.525
0
LINE
8
0
10
88.25
20
-3.025
11
88.25
21
-16.025
0
LINE
8
0
10
102.25
20
-3.025
11
102.25
21
-16.025
0
ARC
8
0
10
88.75
20
-3.025
40
0.5
50
90
51
180
0
ARC
8
0
10
101.75
20
-3.025
40
0.5
50
0
51
90
0
ARC
8
0
10
88.75
20
-16.025
40
0.5
50
180
51
270
0
ARC
8
0
10
101.75
20
-16.025
40
0.5
50
270
51
0
0
LINE
8
0
10
112.5625
20
-2.525
11
125.5625
21
-2.525
0
LINE
8
0
10
112.5625
20
-16.525
11
125.5625
21
-16.525
0
LINE
8
0
10
112.0625
20
-3.025
11
112.0625
21
-16.025
0
LINE
8
0
10
126.0625
20
-3.025
11
126.0625
21
-16.025
0
ARC
8
0
10
112.5625
20
-3.025
40
0.5
50
90
51
180
0
ARC
8
0
10
125.5625
20
-3.025
40
0.5
50
0
51
90
0
ARC
8
0
10
112.5625
20
-16.025
40
0.5
50
180
51
270
0
ARC
8
0
10
125.5625
20
-16.025
40
0.5
50
270
51
0
0
LINE
8
0
10
131.6125
20
-2.525
11
144.6125
21
-2.525
0
LINE
8
0
10
131.6125
20
-16.525
11
144.6125
21
-16.525
0
LINE
8
0
10
131.1125
20
-3.025
11
131.1125
21
-16.025
0
LINE
8
0
10
145.1125
20
-3.025
11
145.1125
21
-16.025
0
ARC
8
0
10
131.6125
20
-3.025
40
0.5
50
90
51
180
0
ARC
8
0
10
144.6125
20
-3.025
40
0.5
50
0
51
90
0
ARC
8
0
10
131.6125
20
-16.025
40
0.5
50
180
51
270
0
ARC
8
0
10
144.6125
20
-16.025
40
0.5
50
270
51
0
0
LINE
8
0
10
150.6625
20
-2.525
11
163.6625
21
-2.525
0
LINE
8
0
10
150.6625
20
-16.525
11
163.6625
21
-16.525
0
LINE
8
0
10
150.1625
20
-3.025
11
150.1625
21
-16.025
0
LINE
8
0
10
164.1625
20
-3.025
11
164.1625
21
-16.025
0
ARC
8
0
10
150.6625
20
-3.025
40
0.5
50
90
51
180
0
ARC
8
0
10
163.6625
20
-3.025
40
0.5
50
0
51
90
0
ARC
8
0
10
150.6625
20
-16.025
40
0.5
50
180
51
270
0
ARC
8
0
10
163.6625
20
-16.025
40
0.5
50
270
51
0
0
LINE
8
0
10
169.7125
20
-2.525
11
182.7125
21
-2.525
0
LINE
8
0
10
169.7125
20
-16.525
11
182.7125
21
-16.525
0
LINE
8
0
10
169.2125
20
-3.025
11
169.2125
21
-16.025
0
LINE
8
0
10
183.2125
20
-3.025
11
183.2125
21
-16.025
0
ARC
8
0
10
169.7125
20
-3.025
40
0.5
50
90
51
180
0
ARC
8
0
10
182.7125
20
-3.025
40
0.5
50
0
51
90
0
ARC
8
0
10
169.7125
20
-16.025
40
0.5
50
180
51
270
0
ARC
8
0
10
182.7125
20
-16.025
40
0.5
50
270
51
0
0
LINE
8
0
10
193.525
20
-2.525
11
206.525
21
-2.525
0
LINE
8
0
10
193.525
20
-16.525
11
206.525
21
-16.525
0
LINE
8
0
10
193.025
20
-3.025
11
193.025
21
-16.025
0
LINE
8
0
10
207.025
20
-3.025
11
207.025
21
-16.025
0
ARC
8
0
10
193.525
20
-3.025
40
0.5
50
90
51
180
0
ARC
8
0
10
206.525
20
-3.025
40
0.5
50
0
51
90
0
ARC
8
0
10
193.525
20
-16.025
40
0.5
50
180
51
270
0
ARC
8
0
10
206.525
20
-16.025
40
0.5
50
270
51
0
0
LINE
8
0
10
212.575
20
-2.525
11
225.575
21
-2.525
0
LINE
8
0
10
212.575
20
-16.525
11
225.575
21
-16.525
0
LINE
8
0
10
212.075
20
-3.025
11
212.075
21
-16.025
0
LINE
8
0
10
226.075
20
-3.025
11
226.075
21
-16.025
0
ARC
8
0
10
212.575
20
-3.025
40
0.5
50
90
51
180
0
ARC
8
0
10
225.575
20
-3.025
40
0.5
50
0
51
90
0
ARC
8
0
10
212.575
20
-16.025
40
0.5
50
180
51
270
0
ARC
8
0
10
225.575
20
-16.025
40
0.5
50
270
51
0
0
LINE
8
0
10
231.625
20
-2.525
11
244.625
21
-2.525
0
LINE
8
0
10
231.625
20
-16.525
11
244.625
21
-16.525
0
LINE
8
0
10
231.125
20
-3.025
11
231.125
21
-16.025
0
LINE
8
0
10
245.125
20
-3.025
11
245.125
21
-16.025
0
ARC
8
0
10
231.625
20
-3.025
40
0.5
50
90
51
180
0
ARC
8
0
10
244.625
20
-3.025
40
0.5
50
0
51
90
0
ARC
8
0
10
231.625
20
-16.025
40
0.5
50
180
51
270
0
ARC
8
0
10
244.625
20
-16.025
40
0.5
50
270
51
0
0
LINE
8
0
10
250.675
20
-2.525
11
263.675
21
-2.525
0
LINE
8
0
10
250.675
20
-16.525
11
263.675
21
-16.525
0
LINE
8
0
10
250.175
20
-3.025
11
250.175
21
-16.025
0
LINE
8
0
10
264.175
20
-3.025
11
264.175
21
-16.025
0
ARC
8
0
10
250.675
20
-3.025
40
0.5
50
90
51
180
0
ARC
8
0
10
263.675
20
-3.025
40
0.5
50
0
51
90
0
ARC
8
0
10
250.675
20
-16.025
40
0.5
50
180
51
270
0
ARC
8
0
10
263.675
20
-16.025
40
0.5
50
270
51
0
0
LINE
8
0
10
274.4875
20
-2.525
11
287.4875
21
-2.525
0
LINE
8
0
10
274.4875
20
-16.525
11
287.4875
21
-16.525
0
LINE
8
0
10
273.9875
20
-3.025
11
273.9875
21
-16.025
0
LINE
8
0
10
287.9875
20
-3.025
11
287.9875
21
-16.025
0
ARC
8
0
10
274.4875
20
-3.025
40
0.5
50
90
51
180
0
ARC
8
0
10
287.4875
20
-3.025
40
0.5
50
0
51
90
0
ARC
8
0
10
274.4875
20
-16.025
40
0.5
50
180
51
270
0
ARC
8
0
10
287.4875
20
-16.025
40
0.5
50
270
51
0
0
LINE
8
0
10
293.5375
20
-2.525
11
306.5375
21
-2.525
0
LINE
8
0
10
293.5375
20
-16.525
11
306.5375
21
-16.525
0
LINE
8
0
10
293.0375
20
-3.025
11
293.0375
21
-16.025
0
LINE
8
0
10
307.0375
20
-3.025
11
307.0375
21
-16.025
0
ARC
8
0
10
293.5375
20
-3.025
40
0.5
50
90
51
180
0
ARC
8
0
10
306.5375
20
-3.025
40
0.5
50
0
51
90
0
ARC
8
0
10
293.5375
20
-16.025
40
0.5
50
180
51
270
0
ARC
8
0
10
306.5375
20
-16.025
40
0.5
50
270
51
0
0
LINE
8
0
10
312.5875
20
-2.525
11
325.5875
21
-2.525
0
LINE
8
0
10
312.5875
20
-16.525
11
325.5875
21
-16.525
0
LINE
8
0
10
312.0875
20
-3.025
11
312.0875
21
-16.025
0
LINE
8
0
10
326.0875
20
-3.025
11
326.0875
21
-16.025
0
ARC
8
0
10
312.5875
20
-3.025
40
0.5
50
90
51
180
0
ARC
8
0
10
325.5875
20
-3.025
40
0.5
50
0
51
90
0
ARC
8
0
10
312.5875
20
-16.025
40
0.5
50
180
51
270
0
ARC
8
0
10
325.5875
20
-16.025
40
0.5
50
270
51
0
0
LINE
8
0
10
336.4
20
-2.525
11
349.4
21
-2.525
0
LINE
8
0
10
336.4
20
-16.525
11
349.4
21
-16.525
0
LINE
8
0
10
335.9
20
-3.025
11
335.9
21
-16.025
0
LINE
8
0
10
349.9
20
-3.025
11
349.9
21
-16.025
0
ARC
8
0
10
336.4
20
-3.025
40
0.5
50
90
51
180
0
ARC
8
0
10
349.4
20
-3.025
40
0.5
50
0
51
90
0
ARC
8
0
10
336.4
20
-16.025
40
0.5
50
180
51
270
0
ARC
8
0
10
349.4
20
-16.025
40
0.5
50
270
51
0
0
LINE
8
0
10
355.45
20
-2.525
11
368.45
21
-2.525
0
LINE
8
0
10
355.45
20
-16.525
11
368.45
21
-16.525
0
LINE
8
0
10
354.95
20
-3.025
11
354.95
21
-16.025
0
LINE
8
0
10
368.95
20
-3.025
11
368.95
21
-16.025
0
ARC
8
0
10
355.45
20
-3.025
40
0.5
50
90
51
180
0
ARC
8
0
10
368.45
20
-3.025
40
0.5
50
0
51
90
0
ARC
8
0
10
355.45
20
-16.025
40
0.5
50
180
51
270
0
ARC
8
0
10
368.45
20
-16.025
40
0.5
50
270
51
0
0
LINE
8
0
10
374.5
20
-2.525
11
387.5
21
-2.525
0
LINE
8
0
10
374.5
20
-16.525
11
387.5
21
-16.525
0
LINE
8
0
10
374
20
-3.025
11
374
21
-16.025
0
LINE
8
0
10
388
20
-3.025
11
388
21
-16.025
0
ARC
8
0
10
374.5
20
-3.025
40
0.5
50
90
51
180
0
ARC
8
0
10
387.5
20
-3.025
40
0.5
50
0
51
90
0
ARC
8
0
10
374.5
20
-16.025
40
0.5
50
180
51
270
0
ARC
8
0
10
387.5
20
-16.025
40
0.5
50
270
51
0
0
LINE
8
0
10
3.025
20
-21.575
11
16.025
21
-21.575
0
LINE
8
0
10
3.025
20
-35.575
11
16.025
21
-35.575
0
LINE
8
0
10
2.525
20
-22.075
11
2.525
21
-35.075
0
LINE
8
0
10
16.525
20
-22.075
11
16.525
21
-35.075
0
ARC
8
0
10
3.025
20
-22.075
40
0.5
50
90
51
180
0
ARC
8
0
10
16.025
20
-22.075
40
0.5
50
0
51
90
0
ARC
8
0
10
3.025
20
-35.075
40
0.5
50
180
51
270
0
ARC
8
0
10
16.025
20
-35.075
40
0.5
50
270
51
0
0
LINE
8
0
10
31.6
20
-21.575
11
44.6
21
-21.575
0
LINE
8
0
10
31.6
20
-35.575
11
44.6
21
-35.575
0
LINE
8
0
10
31.1
20
-22.075
11
31.1
21
-35.075
0
LINE
8
0
10
45.1
20
-22.075
11
45.1
21
-35.075
0
ARC
8
0
10
31.6
20
-22.075
40
0.5
50
90
51
180
0
ARC
8
0
10
44.6
20
-22.075
40
0.5
50
0
51
90
0
ARC
8
0
10
31.6
20
-35.075
40
0.5
50
180
51
270
0
ARC
8
0
10
44.6
20
-35.075
40
0.5
50
270
51
0
0
LINE
8
0
10
50.65
20
-21.575
11
63.65
21
-21.575
0
LINE
8
0
10
50.65
20
-35.575
11
63.65
21
-35.575
0
LINE
8
0
10
50.15
20
-22.075
11
50.15
21
-35.075
0
LINE
8
0
10
64.15
20
-22.075
11
64.15
21
-35.075
0
ARC
8
0
10
50.65
20
-22.075
40
0.5
50
90
51
180
0
ARC
8
0
10
63.65
20
-22.075
40
0.5
50
0
51
90
0
ARC
8
0
10
50.65
20
-35.075
40
0.5
50
180
51
270
0
ARC
8
0
10
63.65
20
-35.075
40
0.5
50
270
51
0
0
LINE
8
0
10
69.7
20
-21.575
11
82.7
21
-21.575
0
LINE
8
0
10
69.7
20
-35.575
11
82.7
21
-35.575
0
LINE
8
0
10
69.2
20
-22.075
11
69.2
21
-35.075
0
LINE
8
0
10
83.2
20
-22.075
11
83.2
21
-35.075
0
ARC
8
0
10
69.7
20
-22.075
40
0.5
50
90
51
180
0
ARC
8
0
10
82.7
20
-22.075
40
0.5
50
0
51
90
0
ARC
8
0
10
69.7
20
-35.075
40
0.5
50
180
51
270
0
ARC
8
0
10
82.7
20
-35.075
40
0.5
50
270
51
0
0
LINE
8
0
10
88.75
20
-21.575
11
101.75
21
-21.575
0
LINE
8
0
10
88.75
20
-35.575
11
101.75
21
-35.575
0
LINE
8
0
10
88.25
20
-22.075
11
88.25
21
-35.075
0
LINE
8
0
10
102.25
20
-22.075
11
102.25
21
-35.075
0
ARC
8
0
10
88.75
20
-22.075
40
0.5
50
90
51
180
0
ARC
8
0
10
101.75
20
-22.075
40
0.5
50
0
51
90
0
ARC
8
0
10
88.75
20
-35.075
40
0.5
50
180
51
270
0
ARC
8
0
10
101.75
20
-35.075
40
0.5
50
270
51
0
0
LINE
8
0
10
112.5625
20
-21.575
11
125.5625
21
-21.575
0
LINE
8
0
10
112.5625
20
-35.575
11
125.5625
21
-35.575
0
LINE
8
0
10
112.0625
20
-22.075
11
112.0625
21
-35.075
0
LINE
8
0
10
126.0625
20
-22.075
11
126.0625
21
-35.075
0
ARC
8
0
10
112.5625
20
-22.075
40
0.5
50
90
51
180
0
ARC
8
0
10
125.5625
20
-22.075
40
0.5
50
0
51
90
0
ARC
8
0
10
112.5625
20
-35.075
40
0.5
50
180
51
270
0
ARC
8
0
10
125.5625
20
-35.075
40
0.5
50
270
51
0
0
LINE
8
0
10
131.6125
20
-21.575
11
144.6125
21
-21.575
0
LINE
8
0
10
131.6125
20
-35.575
11
144.6125
21
-35.575
0
LINE
8
0
10
131.1125
20
-22.075
11
131.1125
21
-35.075
0
LINE
8
0
10
145.1125
20
-22.075
11
145.1125
21
-35.075
0
ARC
8
0
10
131.6125
20
-22.075
40
0.5
50
90
51
180
0
ARC
8
0
10
144.6125
20
-22.075
40
0.5
50
0
51
90
0
ARC
8
0
10
131.6125
20
-35.075
40
0.5
50
180
51
270
0
ARC
8
0
10
144.6125
20
-35.075
40
0.5
50
270
51
0
0
LINE
8
0
10
150.6625
20
-21.575
11
163.6625
21
-21.575
0
LINE
8
0
10
150.6625
20
-35.575
11
163.6625
21
-35.575
0
LINE
8
0
10
150.1625
20
-22.075
11
150.1625
21
-35.075
0
LINE
8
0
10
164.1625
20
-22.075
11
164.1625
21
-35.075
0
ARC
8
0
10
150.6625
20
-22.075
40
0.5
50
90
51
180
0
ARC
8
0
10
163.6625
20
-22.075
40
0.5
50
0
51
90
0
ARC
8
0
10
150.6625
20
-35.075
40
0.5
50
180
51
270
0
ARC
8
0
10
163.6625
20
-35.075
40
0.5
50
270
51
0
0
LINE
8
0
10
169.7125
20
-21.575
11
182.7125
21
-21.575
0
LINE
8
0
10
169.7125
20
-35.575
11
182.7125
21
-35.575
0
LINE
8
0
10
169.2125
20
-22.075
11
169.2125
21
-35.075
0
LINE
8
0
10
183.2125
20
-22.075
11
183.2125
21
-35.075
0
ARC
8
0
10
169.7125
20
-22.075
40
0.5
50
90
51
180
0
ARC
8
0
10
182.7125
20
-22.075
40
0.5
50
0
51
90
0
ARC
8
0
10
169.7125
20
-35.075
40
0.5
50
180
51
270
0
ARC
8
0
10
182.7125
20
-35.075
40
0.5
50
270
51
0
0
LINE
8
0
10
193.525
20
-21.575
11
206.525
21
-21.575
0
LINE
8
0
10
193.525
20
-35.575
11
206.525
21
-35.575
0
LINE
8
0
10
193.025
20
-22.075
11
193.025
21
-35.075
0
LINE
8
0
10
207.025
20
-22.075
11
207.025
21
-35.075
0
ARC
8
0
10
193.525
20
-22.075
40
0.5
50
90
51
180
0
ARC
8
0
10
206.525
20
-22.075
40
0.5
50
0
51
90
0
ARC
8
0
10
193.525
20
-35.075
40
0.5
50
180
51
270
0
ARC
8
0
10
206.525
20
-35.075
40
0.5
50
270
51
0
0
LINE
8
0
10
212.575
20
-21.575
11
225.575
21
-21.575
0
LINE
8
0
10
212.575
20
-35.575
11
225.575
21
-35.575
0
LINE
8
0
10
212.075
20
-22.075
11
212.075
21
-35.075
0
LINE
8
0
10
226.075
20
-22.075
11
226.075
21
-35.075
0
ARC
8
0
10
212.575
20
-22.075
40
0.5
50
90
51
180
0
ARC
8
0
10
225.575
20
-22.075
40
0.5
50
0
51
90
0
ARC
8
0
10
212.575
20
-35.075
40
0.5
50
180
51
270
0
ARC
8
0
10
225.575
20
-35.075
40
0.5
50
270
51
0
0
LINE
8
0
10
231.625
20
-21.575
11
244.625
21
-21.575
0
LINE
8
0
10
231.625
20
-35.575
11
244.625
21
-35.575
0
LINE
8
0
10
231.125
20
-22.075
11
231.125
21
-35.075
0
LINE
8
0
10
245.125
20
-22.075
11
245.125
21
-35.075
0
ARC
8
0
10
231.625
20
-22.075
40
0.5
50
90
51
180
0
ARC
8
0
10
244.625
20
-22.075
40
0.5
50
0
51
90
0
ARC
8
0
10
231.625
20
-35.075
40
0.5
50
180
51
270
0
ARC
8
0
10
244.625
20
-35.075
40
0.5
50
270
51
0
0
LINE
8
0
10
250.675
20
-21.575
11
263.675
21
-21.575
0
LINE
8
0
10
250.675
20
-35.575
11
263.675
21
-35.575
0
LINE
8
0
10
250.175
20
-22.075
11
250.175
21
-35.075
0
LINE
8
0
10
264.175
20
-22.075
11
264.175
21
-35.075
0
ARC
8
0
10
250.675
20
-22.075
40
0.5
50
90
51
180
0
ARC
8
0
10
263.675
20
-22.075
40
0.5
50
0
51
90
0
ARC
8
0
10
250.675
20
-35.075
40
0.5
50
180
51
270
0
ARC
8
0
10
263.675
20
-35.075
40
0.5
50
270
51
0
0
LINE
8
0
10
274.4875
20
-21.575
11
287.4875
21
-21.575
0
LINE
8
0
10
274.4875
20
-35.575
11
287.4875
21
-35.575
0
LINE
8
0
10
273.9875
20
-22.075
11
273.9875
21
-35.075
0
LINE
8
0
10
287.9875
20
-22.075
11
287.9875
21
-35.075
0
ARC
8
0
10
274.4875
20
-22.075
40
0.5
50
90
51
180
0
ARC
8
0
10
287.4875
20
-22.075
40
0.5
50
0
51
90
0
ARC
8
0
10
274.4875
20
-35.075
40
0.5
50
180
51
270
0
ARC
8
0
10
287.4875
20
-35.075
40
0.5
50
270
51
0
0
LINE
8
0
10
293.5375
20
-21.575
11
306.5375
21
-21.575
0
LINE
8
0
10
293.5375
20
-35.575
11
306.5375
21
-35.575
0
LINE
8
0
10
293.0375
20
-22.075
11
293.0375
21
-35.075
0
LINE
8
0
10
307.0375
20
-22.075
11
307.0375
21
-35.075
0
ARC
8
0
10
293.5375
20
-22.075
40
0.5
50
90
51
180
0
ARC
8
0
10
306.5375
20
-22.075
40
0.5
50
0
51
90
0
ARC
8
0
10
293.5375
20
-35.075
40
0.5
50
180
51
270
0
ARC
8
0
10
306.5375
20
-35.075
40
0.5
50
270
51
0
0
LINE
8
0
10
312.5875
20
-21.575
11
325.5875
21
-21.575
0
LINE
8
0
10
312.5875
20
-35.575
11
325.5875
21
-35.575
0
LINE
8
0
10
312.0875
20
-22.075
11
312.0875
21
-35.075
0
LINE
8
0
10
326.0875
20
-22.075
11
326.0875
21
-35.075
0
ARC
8
0
10
312.5875
20
-22.075
40
0.5
50
90
51
180
0
ARC
8
0
10
325.5875
20
-22.075
40
0.5
50
0
51
90
0
ARC
8
0
10
312.5875
20
-35.075
40
0.5
50
180
51
270
0
ARC
8
0
10
325.5875
20
-35.075
40
0.5
50
270
51
0
0
LINE
8
0
10
336.4
20
-21.575
11
349.4
21
-21.575
0
LINE
8
0
10
336.4
20
-35.575
11
349.4
21
-35.575
0
LINE
8
0
10
335.9
20
-22.075
11
335.9
21
-35.075
0
LINE
8
0
10
349.9
20
-22.075
11
349.9
21
-35.075
0
ARC
8
0
10
336.4
20
-22.075
40
0.5
50
90
51
180
0
ARC
8
0
10
349.4
20
-22.075
40
0.5
50
0
51
90
0
ARC
8
0
10
336.4
20
-35.075
40
0.5
50
180
51
270
0
ARC
8
0
10
349.4
20
-35.075
40
0.5
50
270
51
0
0
LINE
8
0
10
355.45
20
-21.575
11
368.45
21
-21.575
0
LINE
8
0
10
355.45
20
-35.575
11
368.45
21
-35.575
0
LINE
8
0
10
354.95
20
-22.075
11
354.95
21
-35.075
0
LINE
8
0
10
368.95
20
-22.075
11
368.95
21
-35.075
0
ARC
8
0
10
355.45
20
-22.075
40
0.5
50
90
51
180
0
ARC
8
0
10
368.45
20
-22.075
40
0.5
50
0
51
90
0
ARC
8
0
10
355.45
20
-35.075
40
0.5
50
180
51
270
0
ARC
8
0
10
368.45
20
-35.075
40
0.5
50
270
51
0
0
LINE
8
0
10
374.5
20
-21.575
11
387.5
21
-21.575
0
LINE
8
0
10
374.5
20
-35.575
11
387.5
21
-35.575
0
LINE
8
0
10
374
20
-22.075
11
374
21
-35.075
0
LINE
8
0
10
388
20
-22.075
11
388
21
-35.075
0
ARC
8
0
10
374.5
20
-22.075
40
0.5
50
90
51
180
0
ARC
8
0
10
387.5
20
-22.075
40
0.5
50
0
51
90
0
ARC
8
0
10
374.5
20
-35.075
40
0.5
50
180
51
270
0
ARC
8
0
10
387.5
20
-35.075
40
0.5
50
270
51
0
0
LINE
8
0
10
3.025
20
-50.15
11
16.025
21
-50.15
0
LINE
8
0
10
3.025
20
-64.15
11
16.025
21
-64.15
0
LINE
8
0
10
2.525
20
-50.65
11
2.525
21
-63.65
0
LINE
8
0
10
16.525
20
-50.65
11
16.525
21
-63.65
0
ARC
8
0
10
3.025
20
-50.65
40
0.5
50
90
51
180
0
ARC
8
0
10
16.025
20
-50.65
40
0.5
50
0
51
90
0
ARC
8
0
10
3.025
20
-63.65
40
0.5
50
180
51
270
0
ARC
8
0
10
16.025
20
-63.65
40
0.5
50
270
51
0
0
LINE
8
0
10
22.075
20
-50.15
11
35.075
21
-50.15
0
LINE
8
0
10
22.075
20
-64.15
11
35.075
21
-64.15
0
LINE
8
0
10
21.575
20
-50.65
11
21.575
21
-63.65
0
LINE
8
0
10
35.575
20
-50.65
11
35.575
21
-63.65
0
ARC
8
0
10
22.075
20
-50.65
40
0.5
50
90
51
180
0
ARC
8
0
10
35.075
20
-50.65
40
0.5
50
0
51
90
0
ARC
8
0
10
22.075
20
-63.65
40
0.5
50
180
51
270
0
ARC
8
0
10
35.075
20
-63.65
40
0.5
50
270
51
0
0
LINE
8
0
10
41.125
20
-50.15
11
54.125
21
-50.15
0
LINE
8
0
10
41.125
20
-64.15
11
54.125
21
-64.15
0
LINE
8
0
10
40.625
20
-50.65
11
40.625
21
-63.65
0
LINE
8
0
10
54.625
20
-50.65
11
54.625
21
-63.65
0
ARC
8
0
10
41.125
20
-50.65
40
0.5
50
90
51
180
0
ARC
8
0
10
54.125
20
-50.65
40
0.5
50
0
51
90
0
ARC
8
0
10
41.125
20
-63.65
40
0.5
50
180
51
270
0
ARC
8
0
10
54.125
20
-63.65
40
0.5
50
270
51
0
0
LINE
8
0
10
60.175
20
-50.15
11
73.175
21
-50.15
0
LINE
8
0
10
60.175
20
-64.15
11
73.175
21
-64.15
0
LINE
8
0
10
59.675
20
-50.65
11
59.675
21
-63.65
0
LINE
8
0
10
73.675
20
-50.65
11
73.675
21
-63.65
0
ARC
8
0
10
60.175
20
-50.65
40
0.5
50
90
51
180
0
ARC
8
0
10
73.175
20
-50.65
40
0.5
50
0
51
90
0
ARC
8
0
10
60.175
20
-63.65
40
0.5
50
180
51
270
0
ARC
8
0
10
73.175
20
-63.65
40
0.5
50
270
51
0
0
LINE
8
0
10
79.225
20
-50.15
11
92.225
21
-50.15
0
LINE
8
0
10
79.225
20
-64.15
11
92.225
21
-64.15
0
LINE
8
0
10
78.725
20
-50.65
11
78.725
21
-63.65
0
LINE
8
0
10
92.725
20
-50.65
11
92.725
21
-63.65
0
ARC
8
0
10
79.225
20
-50.65
40
0.5
50
90
51
180
0
ARC
8
0
10
92.225
20
-50.65
40
0.5
50
0
51
90
0
ARC
8
0
10
79.225
20
-63.65
40
0.5
50
180
51
270
0
ARC
8
0
10
92.225
20
-63.65
40
0.5
50
270
51
0
0
LINE
8
0
10
98.275
20
-50.15
11
111.275
21
-50.15
0
LINE
8
0
10
98.275
20
-64.15
11
111.275
21
-64.15
0
LINE
8
0
10
97.775
20
-50.65
11
97.775
21
-63.65
0
LINE
8
0
10
111.775
20
-50.65
11
111.775
21
-63.65
0
ARC
8
0
10
98.275
20
-50.65
40
0.5
50
90
51
180
0
ARC
8
0
10
111.275
20
-50.65
40
0.5
50
0
51
90
0
ARC
8
0
10
98.275
20
-63.65
40
0.5
50
180
51
270
0
ARC
8
0
10
111.275
20
-63.65
40
0.5
50
270
51
0
0
LINE
8
0
10
117.325
20
-50.15
11
130.325
21
-50.15
0
LINE
8
0
10
117.325
20
-64.15
11
130.325
21
-64.15
0
LINE
8
0
10
116.825
20
-50.65
11
116.825
21
-63.65
0
LINE
8
0
10
130.825
20
-50.65
11
130.825
21
-63.65
0
ARC
8
0
10
117.325
20
-50.65
40
0.5
50
90
51
180
0
ARC
8
0
10
130.325
20
-50.65
40
0.5
50
0
51
90
0
ARC
8
0
10
117.325
20
-63.65
40
0.5
50
180
51
270
0
ARC
8
0
10
130.325
20
-63.65
40
0.5
50
270
51
0
0
LINE
8
0
10
136.375
20
-50.15
11
149.375
21
-50.15
0
LINE
8
0
10
136.375
20
-64.15
11
149.375
21
-64.15
0
LINE
8
0
10
135.875
20
-50.65
11
135.875
21
-63.65
0
LINE
8
0
10
149.875
20
-50.65
11
149.875
21
-63.65
0
ARC
8
0
10
136.375
20
-50.65
40
0.5
50
90
51
180
0
ARC
8
0
10
149.375
20
-50.65
40
0.5
50
0
51
90
0
ARC
8
0
10
136.375
20
-63.65
40
0.5
50
180
51
270
0
ARC
8
0
10
149.375
20
-63.65
40
0.5
50
270
51
0
0
LINE
8
0
10
155.425
20
-50.15
11
168.425
21
-50.15
0
LINE
8
0
10
155.425
20
-64.15
11
168.425
21
-64.15
0
LINE
8
0
10
154.925
20
-50.65
11
154.925
21
-63.65
0
LINE
8
0
10
168.925
20
-50.65
11
168.925
21
-63.65
0
ARC
8
0
10
155.425
20
-50.65
40
0.5
50
90
51
180
0
ARC
8
0
10
168.425
20
-50.65
40
0.5
50
0
51
90
0
ARC
8
0
10
155.425
20
-63.65
40
0.5
50
180
51
270
0
ARC
8
0
10
168.425
20
-63.65
40
0.5
50
270
51
0
0
LINE
8
0
10
174.475
20
-50.15
11
187.475
21
-50.15
0
LINE
8
0
10
174.475
20
-64.15
11
187.475
21
-64.15
0
LINE
8
0
10
173.975
20
-50.65
11
173.975
21
-63.65
0
LINE
8
0
10
187.975
20
-50.65
11
187.975
21
-63.65
0
ARC
8
0
10
174.475
20
-50.65
40
0.5
50
90
51
180
0
ARC
8
0
10
187.475
20
-50.65
40
0.5
50
0
51
90
0
ARC
8
0
10
174.475
20
-63.65
40
0.5
50
180
51
270
0
ARC
8
0
10
187.475
20
-63.65
40
0.5
50
270
51
0
0
LINE
8
0
10
193.525
20
-50.15
11
206.525
21
-50.15
0
LINE
8
0
10
193.525
20
-64.15
11
206.525
21
-64.15
0
LINE
8
0
10
193.025
20
-50.65
11
193.025
21
-63.65
0
LINE
8
0
10
207.025
20
-50.65
11
207.025
21
-63.65
0
ARC
8
0
10
193.525
20
-50.65
40
0.5
50
90
51
180
0
ARC
8
0
10
206.525
20
-50.65
40
0.5
50
0
51
90
0
ARC
8
0
10
193.525
20
-63.65
40
0.5
50
180
51
270
0
ARC
8
0
10
206.525
20
-63.65
40
0.5
50
270
51
0
0
LINE
8
0
10
212.575
20
-50.15
11
225.575
21
-50.15
0
LINE
8
0
10
212.575
20
-64.15
11
225.575
21
-64.15
0
LINE
8
0
10
212.075
20
-50.65
11
212.075
21
-63.65
0
LINE
8
0
10
226.075
20
-50.65
11
226.075
21
-63.65
0
ARC
8
0
10
212.575
20
-50.65
40
0.5
50
90
51
180
0
ARC
8
0
10
225.575
20
-50.65
40
0.5
50
0
51
90
0
ARC
8
0
10
212.575
20
-63.65
40
0.5
50
180
51
270
0
ARC
8
0
10
225.575
20
-63.65
40
0.5
50
270
51
0
0
LINE
8
0
10
231.625
20
-50.15
11
244.625
21
-50.15
0
LINE
8
0
10
231.625
20
-64.15
11
244.625
21
-64.15
0
LINE
8
0
10
231.125
20
-50.65
11
231.125
21
-63.65
0
LINE
8
0
10
245.125
20
-50.65
11
245.125
21
-63.65
0
ARC
8
0
10
231.625
20
-50.65
40
0.5
50
90
51
180
0
ARC
8
0
10
244.625
20
-50.65
40
0.5
50
0
51
90
0
ARC
8
0
10
231.625
20
-63.65
40
0.5
50
180
51
270
0
ARC
8
0
10
244.625
20
-63.65
40
0.5
50
270
51
0
0
LINE
8
0
10
250.675
20
-50.15
11
263.675
21
-50.15
0
LINE
8
0
10
250.675
20
-64.15
11
263.675
21
-64.15
0
LINE
8
0
10
250.175
20
-50.65
11
250.175
21
-63.65
0
LINE
8
0
10
264.175
20
-50.65
11
264.175
21
-63.65
0
ARC
8
0
10
250.675
20
-50.65
40
0.5
50
90
51
180
0
ARC
8
0
10
263.675
20
-50.65
40
0.5
50
0
51
90
0
ARC
8
0
10
250.675
20
-63.65
40
0.5
50
180
51
270
0
ARC
8
0
10
263.675
20
-63.65
40
0.5
50
270
51
0
0
LINE
8
0
10
260.2
20
-50.15
11
273.2
21
-50.15
0
LINE
8
0
10
260.2
20
-64.15
11
273.2
21
-64.15
0
LINE
8
0
10
259.7
20
-50.65
11
259.7
21
-63.65
0
LINE
8
0
10
273.7
20
-50.65
11
273.7
21
-63.65
0
ARC
8
0
10
260.2
20
-50.65
40
0.5
50
90
51
180
0
ARC
8
0
10
273.2
20
-50.65
40
0.5
50
0
51
90
0
ARC
8
0
10
260.2
20
-63.65
40
0.5
50
180
51
270
0
ARC
8
0
10
273.2
20
-63.65
40
0.5
50
270
51
0
0
LINE
8
0
10
251.9346
20
-51.4604
11
257.5894
21
-51.4604
0
LINE
8
0
10
258.0894
20
-51.9604
11
258.0894
21
-52.2732
0
LINE
8
0
10
258.0894
20
-52.2732
11
266.7
21
-52.2732
0
LINE
8
0
10
266.7
20
-62.9666
11
258.5894
21
-62.9666
0
LINE
8
0
10
258.0894
20
-63.4666
11
258.0894
21
-63.754
0
LINE
8
0
10
258.0894
20
-63.754
11
256.786
21
-63.754
0
LINE
8
0
10
256.286
20
-64.254
11
256.286
21
-64.4224
0
LINE
8
0
10
255.786
20
-64.9224
11
253.738
21
-64.9224
0
LINE
8
0
10
253.238
20
-64.4224
11
253.238
21
-64.254
0
LINE
8
0
10
252.738
20
-63.754
11
251.9346
21
-63.754
0
LINE
8
0
10
251.4346
20
-63.254
11
251.4346
21
-58.158
0
LINE
8
0
10
250.9346
20
-57.658
11
250.571
21
-57.658
0
LINE
8
0
10
250.571
20
-57.658
11
250.571
21
-55.364
0
LINE
8
0
10
251.071
20
-54.864
11
251.4346
21
-54.864
0
LINE
8
0
10
251.4346
20
-54.864
11
251.4346
21
-51.9604
0
ARC
8
0
10
257.5894
20
-51.9604
40
0.5
50
0
51
90
0
ARC
8
0
10
258.5894
20
-63.4666
40
0.5
50
90
51
180
0
ARC
8
0
10
256.786
20
-64.254
40
0.5
50
90
51
180
0
ARC
8
0
10
255.786
20
-64.4224
40
0.5
50
270
51
0
0
ARC
8
0
10
253.738
20
-64.4224
40
0.5
50
180
51
270
0
ARC
8
0
10
252.738
20
-64.254
40
0.5
50
0
51
90
0
ARC
8
0
10
251.9346
20
-63.254
40
0.5
50
180
51
270
0
ARC
8
0
10
250.9346
20
-58.158
40
0.5
50
0
51
90
0
ARC
8
0
10
251.071
20
-55.364
40
0.5
50
90
51
180
0
ARC
8
0
10
251.9346
20
-51.9604
40
0.5
50
90
51
180
0
LINE
8
0
10
281.4654
20
-51.4604
11
275.8106
21
-51.4604
0
LINE
8
0
10
275.3106
20
-51.9604
11
275.3106
21
-52.2732
0
LINE
8
0
10
275.3106
20
-52.2732
11
266.7
21
-52.2732
0
LINE
8
0
10
266.7
20
-62.9666
11
274.8106
21
-62.9666
0
LINE
8
0
10
275.3106
20
-63.4666
11
275.3106
21
-63.754
0
LINE
8
0
10
275.3106
20
-63.754
11
276.614
21
-63.754
0
LINE
8
0
10
277.114
20
-64.254
11
277.114
21
-64.4224
0
LINE
8
0
10
277.614
20
-64.9224
11
279.662
21
-64.9224
0
LINE
8
0
10
280.162
20
-64.4224
11
280.162
21
-64.254
0
LINE
8
0
10
280.662
20
-63.754
11
281.4654
21
-63.754
0
LINE
8
0
10
281.9654
20
-63.254
11
281.9654
21
-58.158
0
LINE
8
0
10
282.4654
20
-57.658
11
282.829
21
-57.658
0
LINE
8
0
10
282.829
20
-57.658
11
282.829
21
-55.364
0
LINE
8
0
10
282.329
20
-54.864
11
281.9654
21
-54.864
0
LINE
8
0
10
281.9654
20
-54.864
11
281.9654
21
-51.9604
0
ARC
8
0
10
275.8106
20
-51.9604
40
0.5
50
90
51
180
0
ARC
8
0
10
274.8106
20
-63.4666
40
0.5
50
0
51
90
0
ARC
8
0
10
276.614
20
-64.254
40
0.5
50
0
51
90
0
ARC
8
0
10
277.614
20
-64.4224
40
0.5
50
180
51
270
0
ARC
8
0
10
279.662
20
-64.4224
40
0.5
50
270
51
0
0
ARC
8
0
10
280.662
20
-64.254
40
0.5
50
90
51
180
0
ARC
8
0
10
281.4654
20
-63.254
40
0.5
50
270
51
0
0
ARC
8
0
10
282.4654
20
-58.158
40
0.5
50
90
51
180
0
ARC
8
0
10
282.329
20
-55.364
40
0.5
50
0
51
90
0
ARC
8
0
10
281.4654
20
-51.9604
40
0.5
50
0
51
90
0
LINE
8
0
10
269.725
20
-50.15
11
282.725
21
-50.15
0
LINE
8
0
10
269.725
20
-64.15
11
282.725
21
-64.15
0
LINE
8
0
10
269.225
20
-50.65
11
269.225
21
-63.65
0
LINE
8
0
10
283.225
20
-50.65
11
283.225
21
-63.65
0
ARC
8
0
10
269.725
20
-50.65
40
0.5
50
90
51
180
0
ARC
8
0
10
282.725
20
-50.65
40
0.5
50
0
51
90
0
ARC
8
0
10
269.725
20
-63.65
40
0.5
50
180
51
270
0
ARC
8
0
10
282.725
20
-63.65
40
0.5
50
270
51
0
0
LINE
8
0
10
293.5375
20
-50.15
11
306.5375
21
-50.15
0
LINE
8
0
10
293.5375
20
-64.15
11
306.5375
21
-64.15
0
LINE
8
0
10
293.0375
20
-50.65
11
293.0375
21
-63.65
0
LINE
8
0
10
307.0375
20
-50.65
11
307.0375
21
-63.65
0
ARC
8
0
10
293.5375
20
-50.65
40
0.5
50
90
51
180
0
ARC
8
0
10
306.5375
20
-50.65
40
0.5
50
0
51
90
0
ARC
8
0
10
293.5375
20
-63.65
40
0.5
50
180
51
270
0
ARC
8
0
10
306.5375
20
-63.65
40
0.5
50
270
51
0
0
LINE
8
0
10
317.35
20
-50.15
11
330.35
21
-50.15
0
LINE
8
0
10
317.35
20
-64.15
11
330.35
21
-64.15
0
LINE
8
0
10
316.85
20
-50.65
11
316.85
21
-63.65
0
LINE
8
0
10
330.85
20
-50.65
11
330.85
21
-63.65
0
ARC
8
0
10
317.35
20
-50.65
40
0.5
50
90
51
180
0
ARC
8
0
10
330.35
20
-50.65
40
0.5
50
0
51
90
0
ARC
8
0
10
317.35
20
-63.65
40
0.5
50
180
51
270
0
ARC
8
0
10
330.35
20
-63.65
40
0.5
50
270
51
0
0
LINE
8
0
10
336.4
20
-50.15
11
349.4
21
-50.15
0
LINE
8
0
10
336.4
20
-64.15
11
349.4
21
-64.15
0
LINE
8
0
10
335.9
20
-50.65
11
335.9
21
-63.65
0
LINE
8
0
10
349.9
20
-50.65
11
349.9
21
-63.65
0
ARC
8
0
10
336.4
20
-50.65
40
0.5
50
90
51
180
0
ARC
8
0
10
349.4
20
-50.65
40
0.5
50
0
51
90
0
ARC
8
0
10
336.4
20
-63.65
40
0.5
50
180
51
270
0
ARC
8
0
10
349.4
20
-63.65
40
0.5
50
270
51
0
0
LINE
8
0
10
355.45
20
-50.15
11
368.45
21
-50.15
0
LINE
8
0
10
355.45
20
-64.15
11
368.45
21
-64.15
0
LINE
8
0
10
354.95
20
-50.65
11
354.95
21
-63.65
0
LINE
8
0
10
368.95
20
-50.65
11
368.95
21
-63.65
0
ARC
8
0
10
355.45
20
-50.65
40
0.5
50
90
51
180
0
ARC
8
0
10
368.45
20
-50.65
40
0.5
50
0
51
90
0
ARC
8
0
10
355.45
20
-63.65
40
0.5
50
180
51
270
0
ARC
8
0
10
368.45
20
-63.65
40
0.5
50
270
51
0
0
LINE
8
0
10
374.5
20
-50.15
11
387.5
21
-50.15
0
LINE
8
0
10
374.5
20
-64.15
11
387.5
21
-64.15
0
LINE
8
0
10
374
20
-50.65
11
374
21
-63.65
0
LINE
8
0
10
388
20
-50.65
11
388
21
-63.65
0
ARC
8
0
10
374.5
20
-50.65
40
0.5
50
90
51
180
0
ARC
8
0
10
387.5
20
-50.65
40
0.5
50
0
51
90
0
ARC
8
0
10
374.5
20
-63.65
40
0.5
50
180
51
270
0
ARC
8
0
10
387.5
20
-63.65
40
0.5
50
270
51
0
0
LINE
8
0
10
7.7875
20
-69.2
11
20.7875
21
-69.2
0
LINE
8
0
10
7.7875
20
-83.2
11
20.7875
21
-83.2
0
LINE
8
0
10
7.2875
20
-69.7
11
7.2875
21
-82.7
0
LINE
8
0
10
21.2875
20
-69.7
11
21.2875
21
-82.7
0
ARC
8
0
10
7.7875
20
-69.7
40
0.5
50
90
51
180
0
ARC
8
0
10
20.7875
20
-69.7
40
0.5
50
0
51
90
0
ARC
8
0
10
7.7875
20
-82.7
40
0.5
50
180
51
270
0
ARC
8
0
10
20.7875
20
-82.7
40
0.5
50
270
51
0
0
LINE
8
0
10
31.6
20
-69.2
11
44.6
21
-69.2
0
LINE
8
0
10
31.6
20
-83.2
11
44.6
21
-83.2
0
LINE
8
0
10
31.1
20
-69.7
11
31.1
21
-82.7
0
LINE
8
0
10
45.1
20
-69.7
11
45.1
21
-82.7
0
ARC
8
0
10
31.6
20
-69.7
40
0.5
50
90
51
180
0
ARC
8
0
10
44.6
20
-69.7
40
0.5
50
0
51
90
0
ARC
8
0
10
31.6
20
-82.7
40
0.5
50
180
51
270
0
ARC
8
0
10
44.6
20
-82.7
40
0.5
50
270
51
0
0
LINE
8
0
10
50.65
20
-69.2
11
63.65
21
-69.2
0
LINE
8
0
10
50.65
20
-83.2
11
63.65
21
-83.2
0
LINE
8
0
10
50.15
20
-69.7
11
50.15
21
-82.7
0
LINE
8
0
10
64.15
20
-69.7
11
64.15
21
-82.7
0
ARC
8
0
10
50.65
20
-69.7
40
0.5
50
90
51
180
0
ARC
8
0
10
63.65
20
-69.7
40
0.5
50
0
51
90
0
ARC
8
0
10
50.65
20
-82.7
40
0.5
50
180
51
270
0
ARC
8
0
10
63.65
20
-82.7
40
0.5
50
270
51
0
0
LINE
8
0
10
69.7
20
-69.2
11
82.7
21
-69.2
0
LINE
8
0
10
69.7
20
-83.2
11
82.7
21
-83.2
0
LINE
8
0
10
69.2
20
-69.7
11
69.2
21
-82.7
0
LINE
8
0
10
83.2
20
-69.7
11
83.2
21
-82.7
0
ARC
8
0
10
69.7
20
-69.7
40
0.5
50
90
51
180
0
ARC
8
0
10
82.7
20
-69.7
40
0.5
50
0
51
90
0
ARC
8
0
10
69.7
20
-82.7
40
0.5
50
180
51
270
0
ARC
8
0
10
82.7
20
-82.7
40
0.5
50
270
51
0
0
LINE
8
0
10
88.75
20
-69.2
11
101.75
21
-69.2
0
LINE
8
0
10
88.75
20
-83.2
11
101.75
21
-83.2
0
LINE
8
0
10
88.25
20
-69.7
11
88.25
21
-82.7
0
LINE
8
0
10
102.25
20
-69.7
11
102.25
21
-82.7
0
ARC
8
0
10
88.75
20
-69.7
40
0.5
50
90
51
180
0
ARC
8
0
10
101.75
20
-69.7
40
0.5
50
0
51
90
0
ARC
8
0
10
88.75
20
-82.7
40
0.5
50
180
51
270
0
ARC
8
0
10
101.75
20
-82.7
40
0.5
50
270
51
0
0
LINE
8
0
10
107.8
20
-69.2
11
120.8
21
-69.2
0
LINE
8
0
10
107.8
20
-83.2
11
120.8
21
-83.2
0
LINE
8
0
10
107.3
20
-69.7
11
107.3
21
-82.7
0
LINE
8
0
10
121.3
20
-69.7
11
121.3
21
-82.7
0
ARC
8
0
10
107.8
20
-69.7
40
0.5
50
90
51
180
0
ARC
8
0
10
120.8
20
-69.7
40
0.5
50
0
51
90
0
ARC
8
0
10
107.8
20
-82.7
40
0.5
50
180
51
270
0
ARC
8
0
10
120.8
20
-82.7
40
0.5
50
270
51
0
0
LINE
8
0
10
126.85
20
-69.2
11
139.85
21
-69.2
0
LINE
8
0
10
126.85
20
-83.2
11
139.85
21
-83.2
0
LINE
8
0
10
126.35
20
-69.7
11
126.35
21
-82.7
0
LINE
8
0
10
140.35
20
-69.7
11
140.35
21
-82.7
0
ARC
8
0
10
126.85
20
-69.7
40
0.5
50
90
51
180
0
ARC
8
0
10
139.85
20
-69.7
40
0.5
50
0
51
90
0
ARC
8
0
10
126.85
20
-82.7
40
0.5
50
180
51
270
0
ARC
8
0
10
139.85
20
-82.7
40
0.5
50
270
51
0
0
LINE
8
0
10
145.9
20
-69.2
11
158.9
21
-69.2
0
LINE
8
0
10
145.9
20
-83.2
11
158.9
21
-83.2
0
LINE
8
0
10
145.4
20
-69.7
11
145.4
21
-82.7
0
LINE
8
0
10
159.4
20
-69.7
11
159.4
21
-82.7
0
ARC
8
0
10
145.9
20
-69.7
40
0.5
50
90
51
180
0
ARC
8
0
10
158.9
20
-69.7
40
0.5
50
0
51
90
0
ARC
8
0
10
145.9
20
-82.7
40
0.5
50
180
51
270
0
ARC
8
0
10
158.9
20
-82.7
40
0.5
50
270
51
0
0
LINE
8
0
10
164.95
20
-69.2
11
177.95
21
-69.2
0
LINE
8
0
10
164.95
20
-83.2
11
177.95
21
-83.2
0
LINE
8
0
10
164.45
20
-69.7
11
164.45
21
-82.7
0
LINE
8
0
10
178.45
20
-69.7
11
178.45
21
-82.7
0
ARC
8
0
10
164.95
20
-69.7
40
0.5
50
90
51
180
0
ARC
8
0
10
177.95
20
-69.7
40
0.5
50
0
51
90
0
ARC
8
0
10
164.95
20
-82.7
40
0.5
50
180
51
270
0
ARC
8
0
10
177.95
20
-82.7
40
0.5
50
270
51
0
0
LINE
8
0
10
184
20
-69.2
11
197
21
-69.2
0
LINE
8
0
10
184
20
-83.2
11
197
21
-83.2
0
LINE
8
0
10
183.5
20
-69.7
11
183.5
21
-82.7
0
LINE
8
0
10
197.5
20
-69.7
11
197.5
21
-82.7
0
ARC
8
0
10
184
20
-69.7
40
0.5
50
90
51
180
0
ARC
8
0
10
197
20
-69.7
40
0.5
50
0
51
90
0
ARC
8
0
10
184
20
-82.7
40
0.5
50
180
51
270
0
ARC
8
0
10
197
20
-82.7
40
0.5
50
270
51
0
0
LINE
8
0
10
203.05
20
-69.2
11
216.05
21
-69.2
0
LINE
8
0
10
203.05
20
-83.2
11
216.05
21
-83.2
0
LINE
8
0
10
202.55
20
-69.7
11
202.55
21
-82.7
0
LINE
8
0
10
216.55
20
-69.7
11
216.55
21
-82.7
0
ARC
8
0
10
203.05
20
-69.7
40
0.5
50
90
51
180
0
ARC
8
0
10
216.05
20
-69.7
40
0.5
50
0
51
90
0
ARC
8
0
10
203.05
20
-82.7
40
0.5
50
180
51
270
0
ARC
8
0
10
216.05
20
-82.7
40
0.5
50
270
51
0
0
LINE
8
0
10
222.1
20
-69.2
11
235.1
21
-69.2
0
LINE
8
0
10
222.1
20
-83.2
11
235.1
21
-83.2
0
LINE
8
0
10
221.6
20
-69.7
11
221.6
21
-82.7
0
LINE
8
0
10
235.6
20
-69.7
11
235.6
21
-82.7
0
ARC
8
0
10
222.1
20
-69.7
40
0.5
50
90
51
180
0
ARC
8
0
10
235.1
20
-69.7
40
0.5
50
0
51
90
0
ARC
8
0
10
222.1
20
-82.7
40
0.5
50
180
51
270
0
ARC
8
0
10
235.1
20
-82.7
40
0.5
50
270
51
0
0
LINE
8
0
10
241.15
20
-69.2
11
254.15
21
-69.2
0
LINE
8
0
10
241.15
20
-83.2
11
254.15
21
-83.2
0
LINE
8
0
10
240.65
20
-69.7
11
240.65
21
-82.7
0
LINE
8
0
10
254.65
20
-69.7
11
254.65
21
-82.7
0
ARC
8
0
10
241.15
20
-69.7
40
0.5
50
90
51
180
0
ARC
8
0
10
254.15
20
-69.7
40
0.5
50
0
51
90
0
ARC
8
0
10
241.15
20
-82.7
40
0.5
50
180
51
270
0
ARC
8
0
10
254.15
20
-82.7
40
0.5
50
270
51
0
0
LINE
8
0
10
264.9625
20
-69.2
11
277.9625
21
-69.2
0
LINE
8
0
10
264.9625
20
-83.2
11
277.9625
21
-83.2
0
LINE
8
0
10
264.4625
20
-69.7
11
264.4625
21
-82.7
0
LINE
8
0
10
278.4625
20
-69.7
11
278.4625
21
-82.7
0
ARC
8
0
10
264.9625
20
-69.7
40
0.5
50
90
51
180
0
ARC
8
0
10
277.9625
20
-69.7
40
0.5
50
0
51
90
0
ARC
8
0
10
264.9625
20
-82.7
40
0.5
50
180
51
270
0
ARC
8
0
10
277.9625
20
-82.7
40
0.5
50
270
51
0
0
LINE
8
0
10
293.5375
20
-69.2
11
306.5375
21
-69.2
0
LINE
8
0
10
293.5375
20
-83.2
11
306.5375
21
-83.2
0
LINE
8
0
10
293.0375
20
-69.7
11
293.0375
21
-82.7
0
LINE
8
0
10
307.0375
20
-69.7
11
307.0375
21
-82.7
0
ARC
8
0
10
293.5375
20
-69.7
40
0.5
50
90
51
180
0
ARC
8
0
10
306.5375
20
-69.7
40
0.5
50
0
51
90
0
ARC
8
0
10
293.5375
20
-82.7
40
0.5
50
180
51
270
0
ARC
8
0
10
306.5375
20
-82.7
40
0.5
50
270
51
0
0
LINE
8
0
10
317.35
20
-69.2
11
330.35
21
-69.2
0
LINE
8
0
10
317.35
20
-83.2
11
330.35
21
-83.2
0
LINE
8
0
10
316.85
20
-69.7
11
316.85
21
-82.7
0
LINE
8
0
10
330.85
20
-69.7
11
330.85
21
-82.7
0
ARC
8
0
10
317.35
20
-69.7
40
0.5
50
90
51
180
0
ARC
8
0
10
330.35
20
-69.7
40
0.5
50
0
51
90
0
ARC
8
0
10
317.35
20
-82.7
40
0.5
50
180
51
270
0
ARC
8
0
10
330.35
20
-82.7
40
0.5
50
270
51
0
0
LINE
8
0
10
336.4
20
-69.2
11
349.4
21
-69.2
0
LINE
8
0
10
336.4
20
-83.2
11
349.4
21
-83.2
0
LINE
8
0
10
335.9
20
-69.7
11
335.9
21
-82.7
0
LINE
8
0
10
349.9
20
-69.7
11
349.9
21
-82.7
0
ARC
8
0
10
336.4
20
-69.7
40
0.5
50
90
51
180
0
ARC
8
0
10
349.4
20
-69.7
40
0.5
50
0
51
90
0
ARC
8
0
10
336.4
20
-82.7
40
0.5
50
180
51
270
0
ARC
8
0
10
349.4
20
-82.7
40
0.5
50
270
51
0
0
LINE
8
0
10
355.45
20
-69.2
11
368.45
21
-69.2
0
LINE
8
0
10
355.45
20
-83.2
11
368.45
21
-83.2
0
LINE
8
0
10
354.95
20
-69.7
11
354.95
21
-82.7
0
LINE
8
0
10
368.95
20
-69.7
11
368.95
21
-82.7
0
ARC
8
0
10
355.45
20
-69.7
40
0.5
50
90
51
180
0
ARC
8
0
10
368.45
20
-69.7
40
0.5
50
0
51
90
0
ARC
8
0
10
355.45
20
-82.7
40
0.5
50
180
51
270
0
ARC
8
0
10
368.45
20
-82.7
40
0.5
50
270
51
0
0
LINE
8
0
10
388
20
-79.225
11
388
21
-92.225
0
LINE
8
0
10
374
20
-79.225
11
374
21
-92.225
0
LINE
8
0
10
387.5
20
-78.725
11
374.5
21
-78.725
0
LINE
8
0
10
387.5
20
-92.725
11
374.5
21
-92.725
0
ARC
8
0
10
387.5
20
-79.225
40
0.5
50
0
51
90
0
ARC
8
0
10
387.5
20
-92.225
40
0.5
50
270
51
0
0
ARC
8
0
10
374.5
20
-79.225
40
0.5
50
90
51
180
0
ARC
8
0
10
374.5
20
-92.225
40
0.5
50
180
51
270
0
LINE
8
0
10
386.6896
20
-70.9596
11
386.6896
21
-76.6144
0
LINE
8
0
10
386.1896
20
-77.1144
11
385.8768
21
-77.1144
0
LINE
8
0
10
385.8768
20
-77.1144
11
385.8768
21
-85.725
0
LINE
8
0
10
375.1834
20
-85.725
11
375.1834
21
-77.6144
0
LINE
8
0
10
374.6834
20
-77.1144
11
374.396
21
-77.1144
0
LINE
8
0
10
374.396
20
-77.1144
11
374.396
21
-75.811
0
LINE
8
0
10
373.896
20
-75.311
11
373.7276
21
-75.311
0
LINE
8
0
10
373.2276
20
-74.811
11
373.2276
21
-72.763
0
LINE
8
0
10
373.7276
20
-72.263
11
373.896
21
-72.263
0
LINE
8
0
10
374.396
20
-71.763
11
374.396
21
-70.9596
0
LINE
8
0
10
374.896
20
-70.4596
11
379.992
21
-70.4596
0
LINE
8
0
10
380.492
20
-69.9596
11
380.492
21
-69.596
0
LINE
8
0
10
380.492
20
-69.596
11
382.786
21
-69.596
0
LINE
8
0
10
383.286
20
-70.096
11
383.286
21
-70.4596
0
LINE
8
0
10
383.286
20
-70.4596
11
386.1896
21
-70.4596
0
ARC
8
0
10
386.1896
20
-76.6144
40
0.5
50
270
51
0
0
ARC
8
0
10
374.6834
20
-77.6144
40
0.5
50
0
51
90
0
ARC
8
0
10
373.896
20
-75.811
40
0.5
50
0
51
90
0
ARC
8
0
10
373.7276
20
-74.811
40
0.5
50
180
51
270
0
ARC
8
0
10
373.7276
20
-72.763
40
0.5
50
90
51
180
0
ARC
8
0
10
373.896
20
-71.763
40
0.5
50
270
51
0
0
ARC
8
0
10
374.896
20
-70.9596
40
0.5
50
90
51
180
0
ARC
8
0
10
379.992
20
-69.9596
40
0.5
50
270
51
0
0
ARC
8
0
10
382.786
20
-70.096
40
0.5
50
0
51
90
0
ARC
8
0
10
386.1896
20
-70.9596
40
0.5
50
0
51
90
0
LINE
8
0
10
386.6896
20
-100.4904
11
386.6896
21
-94.8356
0
LINE
8
0
10
386.1896
20
-94.3356
11
385.8768
21
-94.3356
0
LINE
8
0
10
385.8768
20
-94.3356
11
385.8768
21
-85.725
0
LINE
8
0
10
375.1834
20
-85.725
11
375.1834
21
-93.8356
0
LINE
8
0
10
374.6834
20
-94.3356
11
374.396
21
-94.3356
0
LINE
8
0
10
374.396
20
-94.3356
11
374.396
21
-95.639
0
LINE
8
0
10
373.896
20
-96.139
11
373.7276
21
-96.139
0
LINE
8
0
10
373.2276
20
-96.639
11
373.2276
21
-98.687
0
LINE
8
0
10
373.7276
20
-99.187
11
373.896
21
-99.187
0
LINE
8
0
10
374.396
20
-99.687
11
374.396
21
-100.4904
0
LINE
8
0
10
374.896
20
-100.9904
11
379.992
21
-100.9904
0
LINE
8
0
10
380.492
20
-101.4904
11
380.492
21
-101.854
0
LINE
8
0
10
380.492
20
-101.854
11
382.786
21
-101.854
0
LINE
8
0
10
383.286
20
-101.354
11
383.286
21
-100.9904
0
LINE
8
0
10
383.286
20
-100.9904
11
386.1896
21
-100.9904
0
ARC
8
0
10
386.1896
20
-94.8356
40
0.5
50
0
51
90
0
ARC
8
0
10
374.6834
20
-93.8356
40
0.5
50
270
51
0
0
ARC
8
0
10
373.896
20
-95.639
40
0.5
50
270
51
0
0
ARC
8
0
10
373.7276
20
-96.639
40
0.5
50
90
51
180
0
ARC
8
0
10
373.7276
20
-98.687
40
0.5
50
180
51
270
0
ARC
8
0
10
373.896
20
-99.687
40
0.5
50
0
51
90
0
ARC
8
0
10
374.896
20
-100.4904
40
0.5
50
180
51
270
0
ARC
8
0
10
379.992
20
-101.4904
40
0.5
50
0
51
90
0
ARC
8
0
10
382.786
20
-101.354
40
0.5
50
270
51
0
0
ARC
8
0
10
386.1896
20
-100.4904
40
0.5
50
270
51
0
0
LINE
8
0
10
374.5
20
-69.2
11
387.5
21
-69.2
0
LINE
8
0
10
374.5
20
-83.2
11
387.5
21
-83.2
0
LINE
8
0
10
374
20
-69.7
11
374
21
-82.7
0
LINE
8
0
10
388
20
-69.7
11
388
21
-82.7
0
ARC
8
0
10
374.5
20
-69.7
40
0.5
50
90
51
180
0
ARC
8
0
10
387.5
20
-69.7
40
0.5
50
0
51
90
0
ARC
8
0
10
374.5
20
-82.7
40
0.5
50
180
51
270
0
ARC
8
0
10
387.5
20
-82.7
40
0.5
50
270
51
0
0
LINE
8
0
10
10.16875
20
-88.25
11
23.16875
21
-88.25
0
LINE
8
0
10
10.16875
20
-102.25
11
23.16875
21
-102.25
0
LINE
8
0
10
9.66875
20
-88.75
11
9.66875
21
-101.75
0
LINE
8
0
10
23.66875
20
-88.75
11
23.66875
21
-101.75
0
ARC
8
0
10
10.16875
20
-88.75
40
0.5
50
90
51
180
0
ARC
8
0
10
23.16875
20
-88.75
40
0.5
50
0
51
90
0
ARC
8
0
10
10.16875
20
-101.75
40
0.5
50
180
51
270
0
ARC
8
0
10
23.16875
20
-101.75
40
0.5
50
270
51
0
0
LINE
8
0
10
36.3625
20
-88.25
11
49.3625
21
-88.25
0
LINE
8
0
10
36.3625
20
-102.25
11
49.3625
21
-102.25
0
LINE
8
0
10
35.8625
20
-88.75
11
35.8625
21
-101.75
0
LINE
8
0
10
49.8625
20
-88.75
11
49.8625
21
-101.75
0
ARC
8
0
10
36.3625
20
-88.75
40
0.5
50
90
51
180
0
ARC
8
0
10
49.3625
20
-88.75
40
0.5
50
0
51
90
0
ARC
8
0
10
36.3625
20
-101.75
40
0.5
50
180
51
270
0
ARC
8
0
10
49.3625
20
-101.75
40
0.5
50
270
51
0
0
LINE
8
0
10
55.4125
20
-88.25
11
68.4125
21
-88.25
0
LINE
8
0
10
55.4125
20
-102.25
11
68.4125
21
-102.25
0
LINE
8
0
10
54.9125
20
-88.75
11
54.9125
21
-101.75
0
LINE
8
0
10
68.9125
20
-88.75
11
68.9125
21
-101.75
0
ARC
8
0
10
55.4125
20
-88.75
40
0.5
50
90
51
180
0
ARC
8
0
10
68.4125
20
-88.75
40
0.5
50
0
51
90
0
ARC
8
0
10
55.4125
20
-101.75
40
0.5
50
180
51
270
0
ARC
8
0
10
68.4125
20
-101.75
40
0.5
50
270
51
0
0
LINE
8
0
10
74.4625
20
-88.25
11
87.4625
21
-88.25
0
LINE
8
0
10
74.4625
20
-102.25
11
87.4625
21
-102.25
0
LINE
8
0
10
73.9625
20
-88.75
11
73.9625
21
-101.75
0
LINE
8
0
10
87.9625
20
-88.75
11
87.9625
21
-101.75
0
ARC
8
0
10
74.4625
20
-88.75
40
0.5
50
90
51
180
0
ARC
8
0
10
87.4625
20
-88.75
40
0.5
50
0
51
90
0
ARC
8
0
10
74.4625
20
-101.75
40
0.5
50
180
51
270
0
ARC
8
0
10
87.4625
20
-101.75
40
0.5
50
270
51
0
0
LINE
8
0
10
93.5125
20
-88.25
11
106.5125
21
-88.25
0
LINE
8
0
10
93.5125
20
-102.25
11
106.5125
21
-102.25
0
LINE
8
0
10
93.0125
20
-88.75
11
93.0125
21
-101.75
0
LINE
8
0
10
107.0125
20
-88.75
11
107.0125
21
-101.75
0
ARC
8
0
10
93.5125
20
-88.75
40
0.5
50
90
51
180
0
ARC
8
0
10
106.5125
20
-88.75
40
0.5
50
0
51
90
0
ARC
8
0
10
93.5125
20
-101.75
40
0.5
50
180
51
270
0
ARC
8
0
10
106.5125
20
-101.75
40
0.5
50
270
51
0
0
LINE
8
0
10
112.5625
20
-88.25
11
125.5625
21
-88.25
0
LINE
8
0
10
112.5625
20
-102.25
11
125.5625
21
-102.25
0
LINE
8
0
10
112.0625
20
-88.75
11
112.0625
21
-101.75
0
LINE
8
0
10
126.0625
20
-88.75
11
126.0625
21
-101.75
0
ARC
8
0
10
112.5625
20
-88.75
40
0.5
50
90
51
180
0
ARC
8
0
10
125.5625
20
-88.75
40
0.5
50
0
51
90
0
ARC
8
0
10
112.5625
20
-101.75
40
0.5
50
180
51
270
0
ARC
8
0
10
125.5625
20
-101.75
40
0.5
50
270
51
0
0
LINE
8
0
10
131.6125
20
-88.25
11
144.6125
21
-88.25
0
LINE
8
0
10
131.6125
20
-102.25
11
144.6125
21
-102.25
0
LINE
8
0
10
131.1125
20
-88.75
11
131.1125
21
-101.75
0
LINE
8
0
10
145.1125
20
-88.75
11
145.1125
21
-101.75
0
ARC
8
0
10
131.6125
20
-88.75
40
0.5
50
90
51
180
0
ARC
8
0
10
144.6125
20
-88.75
40
0.5
50
0
51
90
0
ARC
8
0
10
131.6125
20
-101.75
40
0.5
50
180
51
270
0
ARC
8
0
10
144.6125
20
-101.75
40
0.5
50
270
51
0
0
LINE
8
0
10
150.6625
20
-88.25
11
163.6625
21
-88.25
0
LINE
8
0
10
150.6625
20
-102.25
11
163.6625
21
-102.25
0
LINE
8
0
10
150.1625
20
-88.75
11
150.1625
21
-101.75
0
LINE
8
0
10
164.1625
20
-88.75
11
164.1625
21
-101.75
0
ARC
8
0
10
150.6625
20
-88.75
40
0.5
50
90
51
180
0
ARC
8
0
10
163.6625
20
-88.75
40
0.5
50
0
51
90
0
ARC
8
0
10
150.6625
20
-101.75
40
0.5
50
180
51
270
0
ARC
8
0
10
163.6625
20
-101.75
40
0.5
50
270
51
0
0
LINE
8
0
10
169.7125
20
-88.25
11
182.7125
21
-88.25
0
LINE
8
0
10
169.7125
20
-102.25
11
182.7125
21
-102.25
0
LINE
8
0
10
169.2125
20
-88.75
11
169.2125
21
-101.75
0
LINE
8
0
10
183.2125
20
-88.75
11
183.2125
21
-101.75
0
ARC
8
0
10
169.7125
20
-88.75
40
0.5
50
90
51
180
0
ARC
8
0
10
182.7125
20
-88.75
40
0.5
50
0
51
90
0
ARC
8
0
10
169.7125
20
-101.75
40
0.5
50
180
51
270
0
ARC
8
0
10
182.7125
20
-101.75
40
0.5
50
270
51
0
0
LINE
8
0
10
188.7625
20
-88.25
11
201.7625
21
-88.25
0
LINE
8
0
10
188.7625
20
-102.25
11
201.7625
21
-102.25
0
LINE
8
0
10
188.2625
20
-88.75
11
188.2625
21
-101.75
0
LINE
8
0
10
202.2625
20
-88.75
11
202.2625
21
-101.75
0
ARC
8
0
10
188.7625
20
-88.75
40
0.5
50
90
51
180
0
ARC
8
0
10
201.7625
20
-88.75
40
0.5
50
0
51
90
0
ARC
8
0
10
188.7625
20
-101.75
40
0.5
50
180
51
270
0
ARC
8
0
10
201.7625
20
-101.75
40
0.5
50
270
51
0
0
LINE
8
0
10
207.8125
20
-88.25
11
220.8125
21
-88.25
0
LINE
8
0
10
207.8125
20
-102.25
11
220.8125
21
-102.25
0
LINE
8
0
10
207.3125
20
-88.75
11
207.3125
21
-101.75
0
LINE
8
0
10
221.3125
20
-88.75
11
221.3125
21
-101.75
0
ARC
8
0
10
207.8125
20
-88.75
40
0.5
50
90
51
180
0
ARC
8
0
10
220.8125
20
-88.75
40
0.5
50
0
51
90
0
ARC
8
0
10
207.8125
20
-101.75
40
0.5
50
180
51
270
0
ARC
8
0
10
220.8125
20
-101.75
40
0.5
50
270
51
0
0
LINE
8
0
10
226.8625
20
-88.25
11
239.8625
21
-88.25
0
LINE
8
0
10
226.8625
20
-102.25
11
239.8625
21
-102.25
0
LINE
8
0
10
226.3625
20
-88.75
11
226.3625
21
-101.75
0
LINE
8
0
10
240.3625
20
-88.75
11
240.3625
21
-101.75
0
ARC
8
0
10
226.8625
20
-88.75
40
0.5
50
90
51
180
0
ARC
8
0
10
239.8625
20
-88.75
40
0.5
50
0
51
90
0
ARC
8
0
10
226.8625
20
-101.75
40
0.5
50
180
51
270
0
ARC
8
0
10
239.8625
20
-101.75
40
0.5
50
270
51
0
0
LINE
8
0
10
257.81875
20
-88.25
11
270.81875
21
-88.25
0
LINE
8
0
10
257.81875
20
-102.25
11
270.81875
21
-102.25
0
LINE
8
0
10
257.31875
20
-88.75
11
257.31875
21
-101.75
0
LINE
8
0
10
271.31875
20
-88.75
11
271.31875
21
-101.75
0
ARC
8
0
10
257.81875
20
-88.75
40
0.5
50
90
51
180
0
ARC
8
0
10
270.81875
20
-88.75
40
0.5
50
0
51
90
0
ARC
8
0
10
257.81875
20
-101.75
40
0.5
50
180
51
270
0
ARC
8
0
10
270.81875
20
-101.75
40
0.5
50
270
51
0
0
LINE
8
0
10
249.55335
20
-89.5604
11
255.20815
21
-89.5604
0
LINE
8
0
10
255.70815
20
-90.0604
11
255.70815
21
-90.3732
0
LINE
8
0
10
255.70815
20
-90.3732
11
264.31875
21
-90.3732
0
LINE
8
0
10
264.31875
20
-101.0666
11
256.20815
21
-101.0666
0
LINE
8
0
10
255.70815
20
-101.5666
11
255.70815
21
-101.854
0
LINE
8
0
10
255.70815
20
-101.854
11
254.40475
21
-101.854
0
LINE
8
0
10
253.90475
20
-102.354
11
253.90475
21
-102.5224
0
LINE
8
0
10
253.40475
20
-103.0224
11
251.35675
21
-103.0224
0
LINE
8
0
10
250.85675
20
-102.5224
11
250.85675
21
-102.354
0
LINE
8
0
10
250.35675
20
-101.854
11
249.55335
21
-101.854
0
LINE
8
0
10
249.05335
20
-101.354
11
249.05335
21
-96.258
0
LINE
8
0
10
248.55335
20
-95.758
11
248.18975
21
-95.758
0
LINE
8
0
10
248.18975
20
-95.758
11
248.18975
21
-93.464
0
LINE
8
0
10
248.68975
20
-92.964
11
249.05335
21
-92.964
0
LINE
8
0
10
249.05335
20
-92.964
11
249.05335
21
-90.0604
0
ARC
8
0
10
255.20815
20
-90.0604
40
0.5
50
0
51
90
0
ARC
8
0
10
256.20815
20
-101.5666
40
0.5
50
90
51
180
0
ARC
8
0
10
254.40475
20
-102.354
40
0.5
50
90
51
180
0
ARC
8
0
10
253.40475
20
-102.5224
40
0.5
50
270
51
0
0
ARC
8
0
10
251.35675
20
-102.5224
40
0.5
50
180
51
270
0
ARC
8
0
10
250.35675
20
-102.354
40
0.5
50
0
51
90
0
ARC
8
0
10
249.55335
20
-101.354
40
0.5
50
180
51
270
0
ARC
8
0
10
248.55335
20
-96.258
40
0.5
50
0
51
90
0
ARC
8
0
10
248.68975
20
-93.464
40
0.5
50
90
51
180
0
ARC
8
0
10
249.55335
20
-90.0604
40
0.5
50
90
51
180
0
LINE
8
0
10
279.08415
20
-89.5604
11
273.42935
21
-89.5604
0
LINE
8
0
10
272.92935
20
-90.0604
11
272.92935
21
-90.3732
0
LINE
8
0
10
272.92935
20
-90.3732
11
264.31875
21
-90.3732
0
LINE
8
0
10
264.31875
20
-101.0666
11
272.42935
21
-101.0666
0
LINE
8
0
10
272.92935
20
-101.5666
11
272.92935
21
-101.854
0
LINE
8
0
10
272.92935
20
-101.854
11
274.23275
21
-101.854
0
LINE
8
0
10
274.73275
20
-102.354
11
274.73275
21
-102.5224
0
LINE
8
0
10
275.23275
20
-103.0224
11
277.28075
21
-103.0224
0
LINE
8
0
10
277.78075
20
-102.5224
11
277.78075
21
-102.354
0
LINE
8
0
10
278.28075
20
-101.854
11
279.08415
21
-101.854
0
LINE
8
0
10
279.58415
20
-101.354
11
279.58415
21
-96.258
0
LINE
8
0
10
280.08415
20
-95.758
11
280.44775
21
-95.758
0
LINE
8
0
10
280.44775
20
-95.758
11
280.44775
21
-93.464
0
LINE
8
0
10
279.94775
20
-92.964
11
279.58415
21
-92.964
0
LINE
8
0
10
279.58415
20
-92.964
11
279.58415
21
-90.0604
0
ARC
8
0
10
273.42935
20
-90.0604
40
0.5
50
90
51
180
0
ARC
8
0
10
272.42935
20
-101.5666
40
0.5
50
0
51
90
0
ARC
8
0
10
274.23275
20
-102.354
40
0.5
50
0
51
90
0
ARC
8
0
10
275.23275
20
-102.5224
40
0.5
50
180
51
270
0
ARC
8
0
10
277.28075
20
-102.5224
40
0.5
50
270
51
0
0
ARC
8
0
10
278.28075
20
-102.354
40
0.5
50
90
51
180
0
ARC
8
0
10
279.08415
20
-101.354
40
0.5
50
270
51
0
0
ARC
8
0
10
280.08415
20
-96.258
40
0.5
50
90
51
180
0
ARC
8
0
10
279.94775
20
-93.464
40
0.5
50
0
51
90
0
ARC
8
0
10
279.08415
20
-90.0604
40
0.5
50
0
51
90
0
LINE
8
0
10
293.5375
20
-88.25
11
306.5375
21
-88.25
0
LINE
8
0
10
293.5375
20
-102.25
11
306.5375
21
-102.25
0
LINE
8
0
10
293.0375
20
-88.75
11
293.0375
21
-101.75
0
LINE
8
0
10
307.0375
20
-88.75
11
307.0375
21
-101.75
0
ARC
8
0
10
293.5375
20
-88.75
40
0.5
50
90
51
180
0
ARC
8
0
10
306.5375
20
-88.75
40
0.5
50
0
51
90
0
ARC
8
0
10
293.5375
20
-101.75
40
0.5
50
180
51
270
0
ARC
8
0
10
306.5375
20
-101.75
40
0.5
50
270
51
0
0
LINE
8
0
10
317.35
20
-88.25
11
330.35
21
-88.25
0
LINE
8
0
10
317.35
20
-102.25
11
330.35
21
-102.25
0
LINE
8
0
10
316.85
20
-88.75
11
316.85
21
-101.75
0
LINE
8
0
10
330.85
20
-88.75
11
330.85
21
-101.75
0
ARC
8
0
10
317.35
20
-88.75
40
0.5
50
90
51
180
0
ARC
8
0
10
330.35
20
-88.75
40
0.5
50
0
51
90
0
ARC
8
0
10
317.35
20
-101.75
40
0.5
50
180
51
270
0
ARC
8
0
10
330.35
20
-101.75
40
0.5
50
270
51
0
0
LINE
8
0
10
336.4
20
-88.25
11
349.4
21
-88.25
0
LINE
8
0
10
336.4
20
-102.25
11
349.4
21
-102.25
0
LINE
8
0
10
335.9
20
-88.75
11
335.9
21
-101.75
0
LINE
8
0
10
349.9
20
-88.75
11
349.9
21
-101.75
0
ARC
8
0
10
336.4
20
-88.75
40
0.5
50
90
51
180
0
ARC
8
0
10
349.4
20
-88.75
40
0.5
50
0
51
90
0
ARC
8
0
10
336.4
20
-101.75
40
0.5
50
180
51
270
0
ARC
8
0
10
349.4
20
-101.75
40
0.5
50
270
51
0
0
LINE
8
0
10
355.45
20
-88.25
11
368.45
21
-88.25
0
LINE
8
0
10
355.45
20
-102.25
11
368.45
21
-102.25
0
LINE
8
0
10
354.95
20
-88.75
11
354.95
21
-101.75
0
LINE
8
0
10
368.95
20
-88.75
11
368.95
21
-101.75
0
ARC
8
0
10
355.45
20
-88.75
40
0.5
50
90
51
180
0
ARC
8
0
10
368.45
20
-88.75
40
0.5
50
0
51
90
0
ARC
8
0
10
355.45
20
-101.75
40
0.5
50
180
51
270
0
ARC
8
0
10
368.45
20
-101.75
40
0.5
50
270
51
0
0
LINE
8
0
10
374.5
20
-88.25
11
387.5
21
-88.25
0
LINE
8
0
10
374.5
20
-102.25
11
387.5
21
-102.25
0
LINE
8
0
10
374
20
-88.75
11
374
21
-101.75
0
LINE
8
0
10
388
20
-88.75
11
388
21
-101.75
0
ARC
8
0
10
374.5
20
-88.75
40
0.5
50
90
51
180
0
ARC
8
0
10
387.5
20
-88.75
40
0.5
50
0
51
90
0
ARC
8
0
10
374.5
20
-101.75
40
0.5
50
180
51
270
0
ARC
8
0
10
387.5
20
-101.75
40
0.5
50
270
51
0
0
LINE
8
0
10
14.93125
20
-107.3
11
27.93125
21
-107.3
0
LINE
8
0
10
14.93125
20
-121.3
11
27.93125
21
-121.3
0
LINE
8
0
10
14.43125
20
-107.8
11
14.43125
21
-120.8
0
LINE
8
0
10
28.43125
20
-107.8
11
28.43125
21
-120.8
0
ARC
8
0
10
14.93125
20
-107.8
40
0.5
50
90
51
180
0
ARC
8
0
10
27.93125
20
-107.8
40
0.5
50
0
51
90
0
ARC
8
0
10
14.93125
20
-120.8
40
0.5
50
180
51
270
0
ARC
8
0
10
27.93125
20
-120.8
40
0.5
50
270
51
0
0
LINE
8
0
10
6.66585
20
-108.6104
11
12.32065
21
-108.6104
0
LINE
8
0
10
12.82065
20
-109.1104
11
12.82065
21
-109.4232
0
LINE
8
0
10
12.82065
20
-109.4232
11
21.43125
21
-109.4232
0
LINE
8
0
10
21.43125
20
-120.1166
11
13.32065
21
-120.1166
0
LINE
8
0
10
12.82065
20
-120.6166
11
12.82065
21
-120.904
0
LINE
8
0
10
12.82065
20
-120.904
11
11.51725
21
-120.904
0
LINE
8
0
10
11.01725
20
-121.404
11
11.01725
21
-121.5724
0
LINE
8
0
10
10.51725
20
-122.0724
11
8.46925
21
-122.0724
0
LINE
8
0
10
7.96925
20
-121.5724
11
7.96925
21
-121.404
0
LINE
8
0
10
7.46925
20
-120.904
11
6.66585
21
-120.904
0
LINE
8
0
10
6.16585
20
-120.404
11
6.16585
21
-115.308
0
LINE
8
0
10
5.66585
20
-114.808
11
5.30225
21
-114.808
0
LINE
8
0
10
5.30225
20
-114.808
11
5.30225
21
-112.514
0
LINE
8
0
10
5.80225
20
-112.014
11
6.16585
21
-112.014
0
LINE
8
0
10
6.16585
20
-112.014
11
6.16585
21
-109.1104
0
ARC
8
0
10
12.32065
20
-109.1104
40
0.5
50
0
51
90
0
ARC
8
0
10
13.32065
20
-120.6166
40
0.5
50
90
51
180
0
ARC
8
0
10
11.51725
20
-121.404
40
0.5
50
90
51
180
0
ARC
8
0
10
10.51725
20
-121.5724
40
0.5
50
270
51
0
0
ARC
8
0
10
8.46925
20
-121.5724
40
0.5
50
180
51
270
0
ARC
8
0
10
7.46925
20
-121.404
40
0.5
50
0
51
90
0
ARC
8
0
10
6.66585
20
-120.404
40
0.5
50
180
51
270
0
ARC
8
0
10
5.66585
20
-115.308
40
0.5
50
0
51
90
0
ARC
8
0
10
5.80225
20
-112.514
40
0.5
50
90
51
180
0
ARC
8
0
10
6.66585
20
-109.1104
40
0.5
50
90
51
180
0
LINE
8
0
10
36.19665
20
-108.6104
11
30.54185
21
-108.6104
0
LINE
8
0
10
30.04185
20
-109.1104
11
30.04185
21
-109.4232
0
LINE
8
0
10
30.04185
20
-109.4232
11
21.43125
21
-109.4232
0
LINE
8
0
10
21.43125
20
-120.1166
11
29.54185
21
-120.1166
0
LINE
8
0
10
30.04185
20
-120.6166
11
30.04185
21
-120.904
0
LINE
8
0
10
30.04185
20
-120.904
11
31.34525
21
-120.904
0
LINE
8
0
10
31.84525
20
-121.404
11
31.84525
21
-121.5724
0
LINE
8
0
10
32.34525
20
-122.0724
11
34.39325
21
-122.0724
0
LINE
8
0
10
34.89325
20
-121.5724
11
34.89325
21
-121.404
0
LINE
8
0
10
35.39325
20
-120.904
11
36.19665
21
-120.904
0
LINE
8
0
10
36.69665
20
-120.404
11
36.69665
21
-115.308
0
LINE
8
0
10
37.19665
20
-114.808
11
37.56025
21
-114.808
0
LINE
8
0
10
37.56025
20
-114.808
11
37.56025
21
-112.514
0
LINE
8
0
10
37.06025
20
-112.014
11
36.69665
21
-112.014
0
LINE
8
0
10
36.69665
20
-112.014
11
36.69665
21
-109.1104
0
ARC
8
0
10
30.54185
20
-109.1104
40
0.5
50
90
51
180
0
ARC
8
0
10
29.54185
20
-120.6166
40
0.5
50
0
51
90
0
ARC
8
0
10
31.34525
20
-121.404
40
0.5
50
0
51
90
0
ARC
8
0
10
32.34525
20
-121.5724
40
0.5
50
180
51
270
0
ARC
8
0
10
34.39325
20
-121.5724
40
0.5
50
270
51
0
0
ARC
8
0
10
35.39325
20
-121.404
40
0.5
50
90
51
180
0
ARC
8
0
10
36.19665
20
-120.404
40
0.5
50
270
51
0
0
ARC
8
0
10
37.19665
20
-115.308
40
0.5
50
90
51
180
0
ARC
8
0
10
37.06025
20
-112.514
40
0.5
50
0
51
90
0
ARC
8
0
10
36.19665
20
-109.1104
40
0.5
50
0
51
90
0
LINE
8
0
10
45.8875
20
-107.3
11
58.8875
21
-107.3
0
LINE
8
0
10
45.8875
20
-121.3
11
58.8875
21
-121.3
0
LINE
8
0
10
45.3875
20
-107.8
11
45.3875
21
-120.8
0
LINE
8
0
10
59.3875
20
-107.8
11
59.3875
21
-120.8
0
ARC
8
0
10
45.8875
20
-107.8
40
0.5
50
90
51
180
0
ARC
8
0
10
58.8875
20
-107.8
40
0.5
50
0
51
90
0
ARC
8
0
10
45.8875
20
-120.8
40
0.5
50
180
51
270
0
ARC
8
0
10
58.8875
20
-120.8
40
0.5
50
270
51
0
0
LINE
8
0
10
64.9375
20
-107.3
11
77.9375
21
-107.3
0
LINE
8
0
10
64.9375
20
-121.3
11
77.9375
21
-121.3
0
LINE
8
0
10
64.4375
20
-107.8
11
64.4375
21
-120.8
0
LINE
8
0
10
78.4375
20
-107.8
11
78.4375
21
-120.8
0
ARC
8
0
10
64.9375
20
-107.8
40
0.5
50
90
51
180
0
ARC
8
0
10
77.9375
20
-107.8
40
0.5
50
0
51
90
0
ARC
8
0
10
64.9375
20
-120.8
40
0.5
50
180
51
270
0
ARC
8
0
10
77.9375
20
-120.8
40
0.5
50
270
51
0
0
LINE
8
0
10
83.9875
20
-107.3
11
96.9875
21
-107.3
0
LINE
8
0
10
83.9875
20
-121.3
11
96.9875
21
-121.3
0
LINE
8
0
10
83.4875
20
-107.8
11
83.4875
21
-120.8
0
LINE
8
0
10
97.4875
20
-107.8
11
97.4875
21
-120.8
0
ARC
8
0
10
83.9875
20
-107.8
40
0.5
50
90
51
180
0
ARC
8
0
10
96.9875
20
-107.8
40
0.5
50
0
51
90
0
ARC
8
0
10
83.9875
20
-120.8
40
0.5
50
180
51
270
0
ARC
8
0
10
96.9875
20
-120.8
40
0.5
50
270
51
0
0
LINE
8
0
10
103.0375
20
-107.3
11
116.0375
21
-107.3
0
LINE
8
0
10
103.0375
20
-121.3
11
116.0375
21
-121.3
0
LINE
8
0
10
102.5375
20
-107.8
11
102.5375
21
-120.8
0
LINE
8
0
10
116.5375
20
-107.8
11
116.5375
21
-120.8
0
ARC
8
0
10
103.0375
20
-107.8
40
0.5
50
90
51
180
0
ARC
8
0
10
116.0375
20
-107.8
40
0.5
50
0
51
90
0
ARC
8
0
10
103.0375
20
-120.8
40
0.5
50
180
51
270
0
ARC
8
0
10
116.0375
20
-120.8
40
0.5
50
270
51
0
0
LINE
8
0
10
122.0875
20
-107.3
11
135.0875
21
-107.3
0
LINE
8
0
10
122.0875
20
-121.3
11
135.0875
21
-121.3
0
LINE
8
0
10
121.5875
20
-107.8
11
121.5875
21
-120.8
0
LINE
8
0
10
135.5875
20
-107.8
11
135.5875
21
-120.8
0
ARC
8
0
10
122.0875
20
-107.8
40
0.5
50
90
51
180
0
ARC
8
0
10
135.0875
20
-107.8
40
0.5
50
0
51
90
0
ARC
8
0
10
122.0875
20
-120.8
40
0.5
50
180
51
270
0
ARC
8
0
10
135.0875
20
-120.8
40
0.5
50
270
51
0
0
LINE
8
0
10
141.1375
20
-107.3
11
154.1375
21
-107.3
0
LINE
8
0
10
141.1375
20
-121.3
11
154.1375
21
-121.3
0
LINE
8
0
10
140.6375
20
-107.8
11
140.6375
21
-120.8
0
LINE
8
0
10
154.6375
20
-107.8
11
154.6375
21
-120.8
0
ARC
8
0
10
141.1375
20
-107.8
40
0.5
50
90
51
180
0
ARC
8
0
10
154.1375
20
-107.8
40
0.5
50
0
51
90
0
ARC
8
0
10
141.1375
20
-120.8
40
0.5
50
180
51
270
0
ARC
8
0
10
154.1375
20
-120.8
40
0.5
50
270
51
0
0
LINE
8
0
10
160.1875
20
-107.3
11
173.1875
21
-107.3
0
LINE
8
0
10
160.1875
20
-121.3
11
173.1875
21
-121.3
0
LINE
8
0
10
159.6875
20
-107.8
11
159.6875
21
-120.8
0
LINE
8
0
10
173.6875
20
-107.8
11
173.6875
21
-120.8
0
ARC
8
0
10
160.1875
20
-107.8
40
0.5
50
90
51
180
0
ARC
8
0
10
173.1875
20
-107.8
40
0.5
50
0
51
90
0
ARC
8
0
10
160.1875
20
-120.8
40
0.5
50
180
51
270
0
ARC
8
0
10
173.1875
20
-120.8
40
0.5
50
270
51
0
0
LINE
8
0
10
179.2375
20
-107.3
11
192.2375
21
-107.3
0
LINE
8
0
10
179.2375
20
-121.3
11
192.2375
21
-121.3
0
LINE
8
0
10
178.7375
20
-107.8
11
178.7375
21
-120.8
0
LINE
8
0
10
192.7375
20
-107.8
11
192.7375
21
-120.8
0
ARC
8
0
10
179.2375
20
-107.8
40
0.5
50
90
51
180
0
ARC
8
0
10
192.2375
20
-107.8
40
0.5
50
0
51
90
0
ARC
8
0
10
179.2375
20
-120.8
40
0.5
50
180
51
270
0
ARC
8
0
10
192.2375
20
-120.8
40
0.5
50
270
51
0
0
LINE
8
0
10
198.2875
20
-107.3
11
211.2875
21
-107.3
0
LINE
8
0
10
198.2875
20
-121.3
11
211.2875
21
-121.3
0
LINE
8
0
10
197.7875
20
-107.8
11
197.7875
21
-120.8
0
LINE
8
0
10
211.7875
20
-107.8
11
211.7875
21
-120.8
0
ARC
8
0
10
198.2875
20
-107.8
40
0.5
50
90
51
180
0
ARC
8
0
10
211.2875
20
-107.8
40
0.5
50
0
51
90
0
ARC
8
0
10
198.2875
20
-120.8
40
0.5
50
180
51
270
0
ARC
8
0
10
211.2875
20
-120.8
40
0.5
50
270
51
0
0
LINE
8
0
10
217.3375
20
-107.3
11
230.3375
21
-107.3
0
LINE
8
0
10
217.3375
20
-121.3
11
230.3375
21
-121.3
0
LINE
8
0
10
216.8375
20
-107.8
11
216.8375
21
-120.8
0
LINE
8
0
10
230.8375
20
-107.8
11
230.8375
21
-120.8
0
ARC
8
0
10
217.3375
20
-107.8
40
0.5
50
90
51
180
0
ARC
8
0
10
230.3375
20
-107.8
40
0.5
50
0
51
90
0
ARC
8
0
10
217.3375
20
-120.8
40
0.5
50
180
51
270
0
ARC
8
0
10
230.3375
20
-120.8
40
0.5
50
270
51
0
0
LINE
8
0
10
243.53125
20
-107.3
11
256.53125
21
-107.3
0
LINE
8
0
10
243.53125
20
-121.3
11
256.53125
21
-121.3
0
LINE
8
0
10
243.03125
20
-107.8
11
243.03125
21
-120.8
0
LINE
8
0
10
257.03125
20
-107.8
11
257.03125
21
-120.8
0
ARC
8
0
10
243.53125
20
-107.8
40
0.5
50
90
51
180
0
ARC
8
0
10
256.53125
20
-107.8
40
0.5
50
0
51
90
0
ARC
8
0
10
243.53125
20
-120.8
40
0.5
50
180
51
270
0
ARC
8
0
10
256.53125
20
-120.8
40
0.5
50
270
51
0
0
LINE
8
0
10
317.35
20
-107.3
11
330.35
21
-107.3
0
LINE
8
0
10
317.35
20
-121.3
11
330.35
21
-121.3
0
LINE
8
0
10
316.85
20
-107.8
11
316.85
21
-120.8
0
LINE
8
0
10
330.85
20
-107.8
11
330.85
21
-120.8
0
ARC
8
0
10
317.35
20
-107.8
40
0.5
50
90
51
180
0
ARC
8
0
10
330.35
20
-107.8
40
0.5
50
0
51
90
0
ARC
8
0
10
317.35
20
-120.8
40
0.5
50
180
51
270
0
ARC
8
0
10
330.35
20
-120.8
40
0.5
50
270
51
0
0
LINE
8
0
10
336.4
20
-107.3
11
349.4
21
-107.3
0
LINE
8
0
10
336.4
20
-121.3
11
349.4
21
-121.3
0
LINE
8
0
10
335.9
20
-107.8
11
335.9
21
-120.8
0
LINE
8
0
10
349.9
20
-107.8
11
349.9
21
-120.8
0
ARC
8
0
10
336.4
20
-107.8
40
0.5
50
90
51
180
0
ARC
8
0
10
349.4
20
-107.8
40
0.5
50
0
51
90
0
ARC
8
0
10
336.4
20
-120.8
40
0.5
50
180
51
270
0
ARC
8
0
10
349.4
20
-120.8
40
0.5
50
270
51
0
0
LINE
8
0
10
355.45
20
-107.3
11
368.45
21
-107.3
0
LINE
8
0
10
355.45
20
-121.3
11
368.45
21
-121.3
0
LINE
8
0
10
354.95
20
-107.8
11
354.95
21
-120.8
0
LINE
8
0
10
368.95
20
-107.8
11
368.95
21
-120.8
0
ARC
8
0
10
355.45
20
-107.8
40
0.5
50
90
51
180
0
ARC
8
0
10
368.45
20
-107.8
40
0.5
50
0
51
90
0
ARC
8
0
10
355.45
20
-120.8
40
0.5
50
180
51
270
0
ARC
8
0
10
368.45
20
-120.8
40
0.5
50
270
51
0
0
LINE
8
0
10
388
20
-117.325
11
388
21
-130.325
0
LINE
8
0
10
374
20
-117.325
11
374
21
-130.325
0
LINE
8
0
10
387.5
20
-116.825
11
374.5
21
-116.825
0
LINE
8
0
10
387.5
20
-130.825
11
374.5
21
-130.825
0
ARC
8
0
10
387.5
20
-117.325
40
0.5
50
0
51
90
0
ARC
8
0
10
387.5
20
-130.325
40
0.5
50
270
51
0
0
ARC
8
0
10
374.5
20
-117.325
40
0.5
50
90
51
180
0
ARC
8
0
10
374.5
20
-130.325
40
0.5
50
180
51
270
0
LINE
8
0
10
386.6896
20
-109.0596
11
386.6896
21
-114.7144
0
LINE
8
0
10
386.1896
20
-115.2144
11
385.8768
21
-115.2144
0
LINE
8
0
10
385.8768
20
-115.2144
11
385.8768
21
-123.825
0
LINE
8
0
10
375.1834
20
-123.825
11
375.1834
21
-115.7144
0
LINE
8
0
10
374.6834
20
-115.2144
11
374.396
21
-115.2144
0
LINE
8
0
10
374.396
20
-115.2144
11
374.396
21
-113.911
0
LINE
8
0
10
373.896
20
-113.411
11
373.7276
21
-113.411
0
LINE
8
0
10
373.2276
20
-112.911
11
373.2276
21
-110.863
0
LINE
8
0
10
373.7276
20
-110.363
11
373.896
21
-110.363
0
LINE
8
0
10
374.396
20
-109.863
11
374.396
21
-109.0596
0
LINE
8
0
10
374.896
20
-108.5596
11
379.992
21
-108.5596
0
LINE
8
0
10
380.492
20
-108.0596
11
380.492
21
-107.696
0
LINE
8
0
10
380.492
20
-107.696
11
382.786
21
-107.696
0
LINE
8
0
10
383.286
20
-108.196
11
383.286
21
-108.5596
0
LINE
8
0
10
383.286
20
-108.5596
11
386.1896
21
-108.5596
0
ARC
8
0
10
386.1896
20
-114.7144
40
0.5
50
270
51
0
0
ARC
8
0
10
374.6834
20
-115.7144
40
0.5
50
0
51
90
0
ARC
8
0
10
373.896
20
-113.911
40
0.5
50
0
51
90
0
ARC
8
0
10
373.7276
20
-112.911
40
0.5
50
180
51
270
0
ARC
8
0
10
373.7276
20
-110.863
40
0.5
50
90
51
180
0
ARC
8
0
10
373.896
20
-109.863
40
0.5
50
270
51
0
0
ARC
8
0
10
374.896
20
-109.0596
40
0.5
50
90
51
180
0
ARC
8
0
10
379.992
20
-108.0596
40
0.5
50
270
51
0
0
ARC
8
0
10
382.786
20
-108.196
40
0.5
50
0
51
90
0
ARC
8
0
10
386.1896
20
-109.0596
40
0.5
50
0
51
90
0
LINE
8
0
10
386.6896
20
-138.5904
11
386.6896
21
-132.9356
0
LINE
8
0
10
386.1896
20
-132.4356
11
385.8768
21
-132.4356
0
LINE
8
0
10
385.8768
20
-132.4356
11
385.8768
21
-123.825
0
LINE
8
0
10
375.1834
20
-123.825
11
375.1834
21
-131.9356
0
LINE
8
0
10
374.6834
20
-132.4356
11
374.396
21
-132.4356
0
LINE
8
0
10
374.396
20
-132.4356
11
374.396
21
-133.739
0
LINE
8
0
10
373.896
20
-134.239
11
373.7276
21
-134.239
0
LINE
8
0
10
373.2276
20
-134.739
11
373.2276
21
-136.787
0
LINE
8
0
10
373.7276
20
-137.287
11
373.896
21
-137.287
0
LINE
8
0
10
374.396
20
-137.787
11
374.396
21
-138.5904
0
LINE
8
0
10
374.896
20
-139.0904
11
379.992
21
-139.0904
0
LINE
8
0
10
380.492
20
-139.5904
11
380.492
21
-139.954
0
LINE
8
0
10
380.492
20
-139.954
11
382.786
21
-139.954
0
LINE
8
0
10
383.286
20
-139.454
11
383.286
21
-139.0904
0
LINE
8
0
10
383.286
20
-139.0904
11
386.1896
21
-139.0904
0
ARC
8
0
10
386.1896
20
-132.9356
40
0.5
50
0
51
90
0
ARC
8
0
10
374.6834
20
-131.9356
40
0.5
50
270
51
0
0
ARC
8
0
10
373.896
20
-133.739
40
0.5
50
270
51
0
0
ARC
8
0
10
373.7276
20
-134.739
40
0.5
50
90
51
180
0
ARC
8
0
10
373.7276
20
-136.787
40
0.5
50
180
51
270
0
ARC
8
0
10
373.896
20
-137.787
40
0.5
50
0
51
90
0
ARC
8
0
10
374.896
20
-138.5904
40
0.5
50
180
51
270
0
ARC
8
0
10
379.992
20
-139.5904
40
0.5
50
0
51
90
0
ARC
8
0
10
382.786
20
-139.454
40
0.5
50
270
51
0
0
ARC
8
0
10
386.1896
20
-138.5904
40
0.5
50
270
51
0
0
LINE
8
0
10
274.4875
20
-112.0625
11
287.4875
21
-112.0625
0
LINE
8
0
10
274.4875
20
-126.0625
11
287.4875
21
-126.0625
0
LINE
8
0
10
273.9875
20
-112.5625
11
273.9875
21
-125.5625
0
LINE
8
0
10
287.9875
20
-112.5625
11
287.9875
21
-125.5625
0
ARC
8
0
10
274.4875
20
-112.5625
40
0.5
50
90
51
180
0
ARC
8
0
10
287.4875
20
-112.5625
40
0.5
50
0
51
90
0
ARC
8
0
10
274.4875
20
-125.5625
40
0.5
50
180
51
270
0
ARC
8
0
10
287.4875
20
-125.5625
40
0.5
50
270
51
0
0
LINE
8
0
10
5.40625
20
-126.35
11
18.40625
21
-126.35
0
LINE
8
0
10
5.40625
20
-140.35
11
18.40625
21
-140.35
0
LINE
8
0
10
4.90625
20
-126.85
11
4.90625
21
-139.85
0
LINE
8
0
10
18.90625
20
-126.85
11
18.90625
21
-139.85
0
ARC
8
0
10
5.40625
20
-126.85
40
0.5
50
90
51
180
0
ARC
8
0
10
18.40625
20
-126.85
40
0.5
50
0
51
90
0
ARC
8
0
10
5.40625
20
-139.85
40
0.5
50
180
51
270
0
ARC
8
0
10
18.40625
20
-139.85
40
0.5
50
270
51
0
0
LINE
8
0
10
29.21875
20
-126.35
11
42.21875
21
-126.35
0
LINE
8
0
10
29.21875
20
-140.35
11
42.21875
21
-140.35
0
LINE
8
0
10
28.71875
20
-126.85
11
28.71875
21
-139.85
0
LINE
8
0
10
42.71875
20
-126.85
11
42.71875
21
-139.85
0
ARC
8
0
10
29.21875
20
-126.85
40
0.5
50
90
51
180
0
ARC
8
0
10
42.21875
20
-126.85
40
0.5
50
0
51
90
0
ARC
8
0
10
29.21875
20
-139.85
40
0.5
50
180
51
270
0
ARC
8
0
10
42.21875
20
-139.85
40
0.5
50
270
51
0
0
LINE
8
0
10
53.03125
20
-126.35
11
66.03125
21
-126.35
0
LINE
8
0
10
53.03125
20
-140.35
11
66.03125
21
-140.35
0
LINE
8
0
10
52.53125
20
-126.85
11
52.53125
21
-139.85
0
LINE
8
0
10
66.53125
20
-126.85
11
66.53125
21
-139.85
0
ARC
8
0
10
53.03125
20
-126.85
40
0.5
50
90
51
180
0
ARC
8
0
10
66.03125
20
-126.85
40
0.5
50
0
51
90
0
ARC
8
0
10
53.03125
20
-139.85
40
0.5
50
180
51
270
0
ARC
8
0
10
66.03125
20
-139.85
40
0.5
50
270
51
0
0
LINE
8
0
10
124.46875
20
-126.35
11
137.46875
21
-126.35
0
LINE
8
0
10
124.46875
20
-140.35
11
137.46875
21
-140.35
0
LINE
8
0
10
123.96875
20
-126.85
11
123.96875
21
-139.85
0
LINE
8
0
10
137.96875
20
-126.85
11
137.96875
21
-139.85
0
ARC
8
0
10
124.46875
20
-126.85
40
0.5
50
90
51
180
0
ARC
8
0
10
137.46875
20
-126.85
40
0.5
50
0
51
90
0
ARC
8
0
10
124.46875
20
-139.85
40
0.5
50
180
51
270
0
ARC
8
0
10
137.46875
20
-139.85
40
0.5
50
270
51
0
0
LINE
8
0
10
78.14135
20
-127.6604
11
83.79615
21
-127.6604
0
LINE
8
0
10
84.29615
20
-128.1604
11
84.29615
21
-130.55
0
LINE
8
0
10
84.79615
20
-131.05
11
130.96875
21
-131.05
0
LINE
8
0
10
130.96875
20
-135.65
11
84.79615
21
-135.65
0
LINE
8
0
10
84.29615
20
-136.15
11
84.29615
21
-139.454
0
LINE
8
0
10
83.79615
20
-139.954
11
82.99275
21
-139.954
0
LINE
8
0
10
82.49275
20
-140.454
11
82.49275
21
-140.6224
0
LINE
8
0
10
81.99275
20
-141.1224
11
79.94475
21
-141.1224
0
LINE
8
0
10
79.44475
20
-140.6224
11
79.44475
21
-140.454
0
LINE
8
0
10
78.94475
20
-139.954
11
78.14135
21
-139.954
0
LINE
8
0
10
77.64135
20
-139.454
11
77.64135
21
-134.358
0
LINE
8
0
10
77.14135
20
-133.858
11
76.77775
21
-133.858
0
LINE
8
0
10
76.77775
20
-133.858
11
76.77775
21
-131.564
0
LINE
8
0
10
77.27775
20
-131.064
11
77.64135
21
-131.064
0
LINE
8
0
10
77.64135
20
-131.064
11
77.64135
21
-128.1604
0
ARC
8
0
10
83.79615
20
-128.1604
40
0.5
50
0
51
90
0
ARC
8
0
10
84.79615
20
-130.55
40
0.5
50
180
51
270
0
ARC
8
0
10
84.79615
20
-136.15
40
0.5
50
90
51
180
0
ARC
8
0
10
83.79615
20
-139.454
40
0.5
50
270
51
0
0
ARC
8
0
10
82.99275
20
-140.454
40
0.5
50
90
51
180
0
ARC
8
0
10
81.99275
20
-140.6224
40
0.5
50
270
51
0
0
ARC
8
0
10
79.94475
20
-140.6224
40
0.5
50
180
51
270
0
ARC
8
0
10
78.94475
20
-140.454
40
0.5
50
0
51
90
0
ARC
8
0
10
78.14135
20
-139.454
40
0.5
50
180
51
270
0
ARC
8
0
10
77.14135
20
-134.358
40
0.5
50
0
51
90
0
ARC
8
0
10
77.27775
20
-131.564
40
0.5
50
90
51
180
0
ARC
8
0
10
78.14135
20
-128.1604
40
0.5
50
90
51
180
0
LINE
8
0
10
183.79615
20
-127.6604
11
178.14135
21
-127.6604
0
LINE
8
0
10
177.64135
20
-128.1604
11
177.64135
21
-130.55
0
LINE
8
0
10
177.14135
20
-131.05
11
130.96875
21
-131.05
0
LINE
8
0
10
130.96875
20
-135.65
11
177.14135
21
-135.65
0
LINE
8
0
10
177.64135
20
-136.15
11
177.64135
21
-139.454
0
LINE
8
0
10
178.14135
20
-139.954
11
178.94475
21
-139.954
0
LINE
8
0
10
179.44475
20
-140.454
11
179.44475
21
-140.6224
0
LINE
8
0
10
179.94475
20
-141.1224
11
181.99275
21
-141.1224
0
LINE
8
0
10
182.49275
20
-140.6224
11
182.49275
21
-140.454
0
LINE
8
0
10
182.99275
20
-139.954
11
183.79615
21
-139.954
0
LINE
8
0
10
184.29615
20
-139.454
11
184.29615
21
-134.358
0
LINE
8
0
10
184.79615
20
-133.858
11
185.15975
21
-133.858
0
LINE
8
0
10
185.15975
20
-133.858
11
185.15975
21
-131.564
0
LINE
8
0
10
184.65975
20
-131.064
11
184.29615
21
-131.064
0
LINE
8
0
10
184.29615
20
-131.064
11
184.29615
21
-128.1604
0
ARC
8
0
10
178.14135
20
-128.1604
40
0.5
50
90
51
180
0
ARC
8
0
10
177.14135
20
-130.55
40
0.5
50
270
51
0
0
ARC
8
0
10
177.14135
20
-136.15
40
0.5
50
0
51
90
0
ARC
8
0
10
178.14135
20
-139.454
40
0.5
50
180
51
270
0
ARC
8
0
10
178.94475
20
-140.454
40
0.5
50
0
51
90
0
ARC
8
0
10
179.94475
20
-140.6224
40
0.5
50
180
51
270
0
ARC
8
0
10
181.99275
20
-140.6224
40
0.5
50
270
51
0
0
ARC
8
0
10
182.99275
20
-140.454
40
0.5
50
90
51
180
0
ARC
8
0
10
183.79615
20
-139.454
40
0.5
50
270
51
0
0
ARC
8
0
10
184.79615
20
-134.358
40
0.5
50
90
51
180
0
ARC
8
0
10
184.65975
20
-131.564
40
0.5
50
0
51
90
0
ARC
8
0
10
183.79615
20
-128.1604
40
0.5
50
0
51
90
0
LINE
8
0
10
91.13125
20
-126.35
11
104.13125
21
-126.35
0
LINE
8
0
10
91.13125
20
-140.35
11
104.13125
21
-140.35
0
LINE
8
0
10
90.63125
20
-126.85
11
90.63125
21
-139.85
0
LINE
8
0
10
104.63125
20
-126.85
11
104.63125
21
-139.85
0
ARC
8
0
10
91.13125
20
-126.85
40
0.5
50
90
51
180
0
ARC
8
0
10
104.13125
20
-126.85
40
0.5
50
0
51
90
0
ARC
8
0
10
91.13125
20
-139.85
40
0.5
50
180
51
270
0
ARC
8
0
10
104.13125
20
-139.85
40
0.5
50
270
51
0
0
LINE
8
0
10
82.86585
20
-127.6604
11
88.52065
21
-127.6604
0
LINE
8
0
10
89.02065
20
-128.1604
11
89.02065
21
-128.4732
0
LINE
8
0
10
89.02065
20
-128.4732
11
97.63125
21
-128.4732
0
LINE
8
0
10
97.63125
20
-139.1666
11
89.52065
21
-139.1666
0
LINE
8
0
10
89.02065
20
-139.6666
11
89.02065
21
-139.954
0
LINE
8
0
10
89.02065
20
-139.954
11
87.71725
21
-139.954
0
LINE
8
0
10
87.21725
20
-140.454
11
87.21725
21
-140.6224
0
LINE
8
0
10
86.71725
20
-141.1224
11
84.66925
21
-141.1224
0
LINE
8
0
10
84.16925
20
-140.6224
11
84.16925
21
-140.454
0
LINE
8
0
10
83.66925
20
-139.954
11
82.86585
21
-139.954
0
LINE
8
0
10
82.36585
20
-139.454
11
82.36585
21
-134.358
0
LINE
8
0
10
81.86585
20
-133.858
11
81.50225
21
-133.858
0
LINE
8
0
10
81.50225
20
-133.858
11
81.50225
21
-131.564
0
LINE
8
0
10
82.00225
20
-131.064
11
82.36585
21
-131.064
0
LINE
8
0
10
82.36585
20
-131.064
11
82.36585
21
-128.1604
0
ARC
8
0
10
88.52065
20
-128.1604
40
0.5
50
0
51
90
0
ARC
8
0
10
89.52065
20
-139.6666
40
0.5
50
90
51
180
0
ARC
8
0
10
87.71725
20
-140.454
40
0.5
50
90
51
180
0
ARC
8
0
10
86.71725
20
-140.6224
40
0.5
50
270
51
0
0
ARC
8
0
10
84.66925
20
-140.6224
40
0.5
50
180
51
270
0
ARC
8
0
10
83.66925
20
-140.454
40
0.5
50
0
51
90
0
ARC
8
0
10
82.86585
20
-139.454
40
0.5
50
180
51
270
0
ARC
8
0
10
81.86585
20
-134.358
40
0.5
50
0
51
90
0
ARC
8
0
10
82.00225
20
-131.564
40
0.5
50
90
51
180
0
ARC
8
0
10
82.86585
20
-128.1604
40
0.5
50
90
51
180
0
LINE
8
0
10
112.39665
20
-127.6604
11
106.74185
21
-127.6604
0
LINE
8
0
10
106.24185
20
-128.1604
11
106.24185
21
-128.4732
0
LINE
8
0
10
106.24185
20
-128.4732
11
97.63125
21
-128.4732
0
LINE
8
0
10
97.63125
20
-139.1666
11
105.74185
21
-139.1666
0
LINE
8
0
10
106.24185
20
-139.6666
11
106.24185
21
-139.954
0
LINE
8
0
10
106.24185
20
-139.954
11
107.54525
21
-139.954
0
LINE
8
0
10
108.04525
20
-140.454
11
108.04525
21
-140.6224
0
LINE
8
0
10
108.54525
20
-141.1224
11
110.59325
21
-141.1224
0
LINE
8
0
10
111.09325
20
-140.6224
11
111.09325
21
-140.454
0
LINE
8
0
10
111.59325
20
-139.954
11
112.39665
21
-139.954
0
LINE
8
0
10
112.89665
20
-139.454
11
112.89665
21
-134.358
0
LINE
8
0
10
113.39665
20
-133.858
11
113.76025
21
-133.858
0
LINE
8
0
10
113.76025
20
-133.858
11
113.76025
21
-131.564
0
LINE
8
0
10
113.26025
20
-131.064
11
112.89665
21
-131.064
0
LINE
8
0
10
112.89665
20
-131.064
11
112.89665
21
-128.1604
0
ARC
8
0
10
106.74185
20
-128.1604
40
0.5
50
90
51
180
0
ARC
8
0
10
105.74185
20
-139.6666
40
0.5
50
0
51
90
0
ARC
8
0
10
107.54525
20
-140.454
40
0.5
50
0
51
90
0
ARC
8
0
10
108.54525
20
-140.6224
40
0.5
50
180
51
270
0
ARC
8
0
10
110.59325
20
-140.6224
40
0.5
50
270
51
0
0
ARC
8
0
10
111.59325
20
-140.454
40
0.5
50
90
51
180
0
ARC
8
0
10
112.39665
20
-139.454
40
0.5
50
270
51
0
0
ARC
8
0
10
113.39665
20
-134.358
40
0.5
50
90
51
180
0
ARC
8
0
10
113.26025
20
-131.564
40
0.5
50
0
51
90
0
ARC
8
0
10
112.39665
20
-128.1604
40
0.5
50
0
51
90
0
LINE
8
0
10
129.23125
20
-126.35
11
142.23125
21
-126.35
0
LINE
8
0
10
129.23125
20
-140.35
11
142.23125
21
-140.35
0
LINE
8
0
10
128.73125
20
-126.85
11
128.73125
21
-139.85
0
LINE
8
0
10
142.73125
20
-126.85
11
142.73125
21
-139.85
0
ARC
8
0
10
129.23125
20
-126.85
40
0.5
50
90
51
180
0
ARC
8
0
10
142.23125
20
-126.85
40
0.5
50
0
51
90
0
ARC
8
0
10
129.23125
20
-139.85
40
0.5
50
180
51
270
0
ARC
8
0
10
142.23125
20
-139.85
40
0.5
50
270
51
0
0
LINE
8
0
10
162.56875
20
-126.35
11
175.56875
21
-126.35
0
LINE
8
0
10
162.56875
20
-140.35
11
175.56875
21
-140.35
0
LINE
8
0
10
162.06875
20
-126.85
11
162.06875
21
-139.85
0
LINE
8
0
10
176.06875
20
-126.85
11
176.06875
21
-139.85
0
ARC
8
0
10
162.56875
20
-126.85
40
0.5
50
90
51
180
0
ARC
8
0
10
175.56875
20
-126.85
40
0.5
50
0
51
90
0
ARC
8
0
10
162.56875
20
-139.85
40
0.5
50
180
51
270
0
ARC
8
0
10
175.56875
20
-139.85
40
0.5
50
270
51
0
0
LINE
8
0
10
154.30335
20
-127.6604
11
159.95815
21
-127.6604
0
LINE
8
0
10
160.45815
20
-128.1604
11
160.45815
21
-128.4732
0
LINE
8
0
10
160.45815
20
-128.4732
11
169.06875
21
-128.4732
0
LINE
8
0
10
169.06875
20
-139.1666
11
160.95815
21
-139.1666
0
LINE
8
0
10
160.45815
20
-139.6666
11
160.45815
21
-139.954
0
LINE
8
0
10
160.45815
20
-139.954
11
159.15475
21
-139.954
0
LINE
8
0
10
158.65475
20
-140.454
11
158.65475
21
-140.6224
0
LINE
8
0
10
158.15475
20
-141.1224
11
156.10675
21
-141.1224
0
LINE
8
0
10
155.60675
20
-140.6224
11
155.60675
21
-140.454
0
LINE
8
0
10
155.10675
20
-139.954
11
154.30335
21
-139.954
0
LINE
8
0
10
153.80335
20
-139.454
11
153.80335
21
-134.358
0
LINE
8
0
10
153.30335
20
-133.858
11
152.93975
21
-133.858
0
LINE
8
0
10
152.93975
20
-133.858
11
152.93975
21
-131.564
0
LINE
8
0
10
153.43975
20
-131.064
11
153.80335
21
-131.064
0
LINE
8
0
10
153.80335
20
-131.064
11
153.80335
21
-128.1604
0
ARC
8
0
10
159.95815
20
-128.1604
40
0.5
50
0
51
90
0
ARC
8
0
10
160.95815
20
-139.6666
40
0.5
50
90
51
180
0
ARC
8
0
10
159.15475
20
-140.454
40
0.5
50
90
51
180
0
ARC
8
0
10
158.15475
20
-140.6224
40
0.5
50
270
51
0
0
ARC
8
0
10
156.10675
20
-140.6224
40
0.5
50
180
51
270
0
ARC
8
0
10
155.10675
20
-140.454
40
0.5
50
0
51
90
0
ARC
8
0
10
154.30335
20
-139.454
40
0.5
50
180
51
270
0
ARC
8
0
10
153.30335
20
-134.358
40
0.5
50
0
51
90
0
ARC
8
0
10
153.43975
20
-131.564
40
0.5
50
90
51
180
0
ARC
8
0
10
154.30335
20
-128.1604
40
0.5
50
90
51
180
0
LINE
8
0
10
183.83415
20
-127.6604
11
178.17935
21
-127.6604
0
LINE
8
0
10
177.67935
20
-128.1604
11
177.67935
21
-128.4732
0
LINE
8
0
10
177.67935
20
-128.4732
11
169.06875
21
-128.4732
0
LINE
8
0
10
169.06875
20
-139.1666
11
177.17935
21
-139.1666
0
LINE
8
0
10
177.67935
20
-139.6666
11
177.67935
21
-139.954
0
LINE
8
0
10
177.67935
20
-139.954
11
178.98275
21
-139.954
0
LINE
8
0
10
179.48275
20
-140.454
11
179.48275
21
-140.6224
0
LINE
8
0
10
179.98275
20
-141.1224
11
182.03075
21
-141.1224
0
LINE
8
0
10
182.53075
20
-140.6224
11
182.53075
21
-140.454
0
LINE
8
0
10
183.03075
20
-139.954
11
183.83415
21
-139.954
0
LINE
8
0
10
184.33415
20
-139.454
11
184.33415
21
-134.358
0
LINE
8
0
10
184.83415
20
-133.858
11
185.19775
21
-133.858
0
LINE
8
0
10
185.19775
20
-133.858
11
185.19775
21
-131.564
0
LINE
8
0
10
184.69775
20
-131.064
11
184.33415
21
-131.064
0
LINE
8
0
10
184.33415
20
-131.064
11
184.33415
21
-128.1604
0
ARC
8
0
10
178.17935
20
-128.1604
40
0.5
50
90
51
180
0
ARC
8
0
10
177.17935
20
-139.6666
40
0.5
50
0
51
90
0
ARC
8
0
10
178.98275
20
-140.454
40
0.5
50
0
51
90
0
ARC
8
0
10
179.98275
20
-140.6224
40
0.5
50
180
51
270
0
ARC
8
0
10
182.03075
20
-140.6224
40
0.5
50
270
51
0
0
ARC
8
0
10
183.03075
20
-140.454
40
0.5
50
90
51
180
0
ARC
8
0
10
183.83415
20
-139.454
40
0.5
50
270
51
0
0
ARC
8
0
10
184.83415
20
-134.358
40
0.5
50
90
51
180
0
ARC
8
0
10
184.69775
20
-131.564
40
0.5
50
0
51
90
0
ARC
8
0
10
183.83415
20
-128.1604
40
0.5
50
0
51
90
0
LINE
8
0
10
193.525
20
-126.35
11
206.525
21
-126.35
0
LINE
8
0
10
193.525
20
-140.35
11
206.525
21
-140.35
0
LINE
8
0
10
193.025
20
-126.85
11
193.025
21
-139.85
0
LINE
8
0
10
207.025
20
-126.85
11
207.025
21
-139.85
0
ARC
8
0
10
193.525
20
-126.85
40
0.5
50
90
51
180
0
ARC
8
0
10
206.525
20
-126.85
40
0.5
50
0
51
90
0
ARC
8
0
10
193.525
20
-139.85
40
0.5
50
180
51
270
0
ARC
8
0
10
206.525
20
-139.85
40
0.5
50
270
51
0
0
LINE
8
0
10
212.575
20
-126.35
11
225.575
21
-126.35
0
LINE
8
0
10
212.575
20
-140.35
11
225.575
21
-140.35
0
LINE
8
0
10
212.075
20
-126.85
11
212.075
21
-139.85
0
LINE
8
0
10
226.075
20
-126.85
11
226.075
21
-139.85
0
ARC
8
0
10
212.575
20
-126.85
40
0.5
50
90
51
180
0
ARC
8
0
10
225.575
20
-126.85
40
0.5
50
0
51
90
0
ARC
8
0
10
212.575
20
-139.85
40
0.5
50
180
51
270
0
ARC
8
0
10
225.575
20
-139.85
40
0.5
50
270
51
0
0
LINE
8
0
10
231.625
20
-126.35
11
244.625
21
-126.35
0
LINE
8
0
10
231.625
20
-140.35
11
244.625
21
-140.35
0
LINE
8
0
10
231.125
20
-126.85
11
231.125
21
-139.85
0
LINE
8
0
10
245.125
20
-126.85
11
245.125
21
-139.85
0
ARC
8
0
10
231.625
20
-126.85
40
0.5
50
90
51
180
0
ARC
8
0
10
244.625
20
-126.85
40
0.5
50
0
51
90
0
ARC
8
0
10
231.625
20
-139.85
40
0.5
50
180
51
270
0
ARC
8
0
10
244.625
20
-139.85
40
0.5
50
270
51
0
0
LINE
8
0
10
326.875
20
-126.35
11
339.875
21
-126.35
0
LINE
8
0
10
326.875
20
-140.35
11
339.875
21
-140.35
0
LINE
8
0
10
326.375
20
-126.85
11
326.375
21
-139.85
0
LINE
8
0
10
340.375
20
-126.85
11
340.375
21
-139.85
0
ARC
8
0
10
326.875
20
-126.85
40
0.5
50
90
51
180
0
ARC
8
0
10
339.875
20
-126.85
40
0.5
50
0
51
90
0
ARC
8
0
10
326.875
20
-139.85
40
0.5
50
180
51
270
0
ARC
8
0
10
339.875
20
-139.85
40
0.5
50
270
51
0
0
LINE
8
0
10
318.6096
20
-127.6604
11
324.2644
21
-127.6604
0
LINE
8
0
10
324.7644
20
-128.1604
11
324.7644
21
-128.4732
0
LINE
8
0
10
324.7644
20
-128.4732
11
333.375
21
-128.4732
0
LINE
8
0
10
333.375
20
-139.1666
11
325.2644
21
-139.1666
0
LINE
8
0
10
324.7644
20
-139.6666
11
324.7644
21
-139.954
0
LINE
8
0
10
324.7644
20
-139.954
11
323.461
21
-139.954
0
LINE
8
0
10
322.961
20
-140.454
11
322.961
21
-140.6224
0
LINE
8
0
10
322.461
20
-141.1224
11
320.413
21
-141.1224
0
LINE
8
0
10
319.913
20
-140.6224
11
319.913
21
-140.454
0
LINE
8
0
10
319.413
20
-139.954
11
318.6096
21
-139.954
0
LINE
8
0
10
318.1096
20
-139.454
11
318.1096
21
-134.358
0
LINE
8
0
10
317.6096
20
-133.858
11
317.246
21
-133.858
0
LINE
8
0
10
317.246
20
-133.858
11
317.246
21
-131.564
0
LINE
8
0
10
317.746
20
-131.064
11
318.1096
21
-131.064
0
LINE
8
0
10
318.1096
20
-131.064
11
318.1096
21
-128.1604
0
ARC
8
0
10
324.2644
20
-128.1604
40
0.5
50
0
51
90
0
ARC
8
0
10
325.2644
20
-139.6666
40
0.5
50
90
51
180
0
ARC
8
0
10
323.461
20
-140.454
40
0.5
50
90
51
180
0
ARC
8
0
10
322.461
20
-140.6224
40
0.5
50
270
51
0
0
ARC
8
0
10
320.413
20
-140.6224
40
0.5
50
180
51
270
0
ARC
8
0
10
319.413
20
-140.454
40
0.5
50
0
51
90
0
ARC
8
0
10
318.6096
20
-139.454
40
0.5
50
180
51
270
0
ARC
8
0
10
317.6096
20
-134.358
40
0.5
50
0
51
90
0
ARC
8
0
10
317.746
20
-131.564
40
0.5
50
90
51
180
0
ARC
8
0
10
318.6096
20
-128.1604
40
0.5
50
90
51
180
0
LINE
8
0
10
348.1404
20
-127.6604
11
342.4856
21
-127.6604
0
LINE
8
0
10
341.9856
20
-128.1604
11
341.9856
21
-128.4732
0
LINE
8
0
10
341.9856
20
-128.4732
11
333.375
21
-128.4732
0
LINE
8
0
10
333.375
20
-139.1666
11
341.4856
21
-139.1666
0
LINE
8
0
10
341.9856
20
-139.6666
11
341.9856
21
-139.954
0
LINE
8
0
10
341.9856
20
-139.954
11
343.289
21
-139.954
0
LINE
8
0
10
343.789
20
-140.454
11
343.789
21
-140.6224
0
LINE
8
0
10
344.289
20
-141.1224
11
346.337
21
-141.1224
0
LINE
8
0
10
346.837
20
-140.6224
11
346.837
21
-140.454
0
LINE
8
0
10
347.337
20
-139.954
11
348.1404
21
-139.954
0
LINE
8
0
10
348.6404
20
-139.454
11
348.6404
21
-134.358
0
LINE
8
0
10
349.1404
20
-133.858
11
349.504
21
-133.858
0
LINE
8
0
10
349.504
20
-133.858
11
349.504
21
-131.564
0
LINE
8
0
10
349.004
20
-131.064
11
348.6404
21
-131.064
0
LINE
8
0
10
348.6404
20
-131.064
11
348.6404
21
-128.1604
0
ARC
8
0
10
342.4856
20
-128.1604
40
0.5
50
90
51
180
0
ARC
8
0
10
341.4856
20
-139.6666
40
0.5
50
0
51
90
0
ARC
8
0
10
343.289
20
-140.454
40
0.5
50
0
51
90
0
ARC
8
0
10
344.289
20
-140.6224
40
0.5
50
180
51
270
0
ARC
8
0
10
346.337
20
-140.6224
40
0.5
50
270
51
0
0
ARC
8
0
10
347.337
20
-140.454
40
0.5
50
90
51
180
0
ARC
8
0
10
348.1404
20
-139.454
40
0.5
50
270
51
0
0
ARC
8
0
10
349.1404
20
-134.358
40
0.5
50
90
51
180
0
ARC
8
0
10
349.004
20
-131.564
40
0.5
50
0
51
90
0
ARC
8
0
10
348.1404
20
-128.1604
40
0.5
50
0
51
90
0
LINE
8
0
10
317.35
20
-126.35
11
330.35
21
-126.35
0
LINE
8
0
10
317.35
20
-140.35
11
330.35
21
-140.35
0
LINE
8
0
10
316.85
20
-126.85
11
316.85
21
-139.85
0
LINE
8
0
10
330.85
20
-126.85
11
330.85
21
-139.85
0
ARC
8
0
10
317.35
20
-126.85
40
0.5
50
90
51
180
0
ARC
8
0
10
330.35
20
-126.85
40
0.5
50
0
51
90
0
ARC
8
0
10
317.35
20
-139.85
40
0.5
50
180
51
270
0
ARC
8
0
10
330.35
20
-139.85
40
0.5
50
270
51
0
0
LINE
8
0
10
336.4
20
-126.35
11
349.4
21
-126.35
0
LINE
8
0
10
336.4
20
-140.35
11
349.4
21
-140.35
0
LINE
8
0
10
335.9
20
-126.85
11
335.9
21
-139.85
0
LINE
8
0
10
349.9
20
-126.85
11
349.9
21
-139.85
0
ARC
8
0
10
336.4
20
-126.85
40
0.5
50
90
51
180
0
ARC
8
0
10
349.4
20
-126.85
40
0.5
50
0
51
90
0
ARC
8
0
10
336.4
20
-139.85
40
0.5
50
180
51
270
0
ARC
8
0
10
349.4
20
-139.85
40
0.5
50
270
51
0
0
LINE
8
0
10
355.45
20
-126.35
11
368.45
21
-126.35
0
LINE
8
0
10
355.45
20
-140.35
11
368.45
21
-140.35
0
LINE
8
0
10
354.95
20
-126.85
11
354.95
21
-139.85
0
LINE
8
0
10
368.95
20
-126.85
11
368.95
21
-139.85
0
ARC
8
0
10
355.45
20
-126.85
40
0.5
50
90
51
180
0
ARC
8
0
10
368.45
20
-126.85
40
0.5
50
0
51
90
0
ARC
8
0
10
355.45
20
-139.85
40
0.5
50
180
51
270
0
ARC
8
0
10
368.45
20
-139.85
40
0.5
50
270
51
0
0
LINE
8
0
10
255.4375
20
-131.1125
11
268.4375
21
-131.1125
0
LINE
8
0
10
255.4375
20
-145.1125
11
268.4375
21
-145.1125
0
LINE
8
0
10
254.9375
20
-131.6125
11
254.9375
21
-144.6125
0
LINE
8
0
10
268.9375
20
-131.6125
11
268.9375
21
-144.6125
0
ARC
8
0
10
255.4375
20
-131.6125
40
0.5
50
90
51
180
0
ARC
8
0
10
268.4375
20
-131.6125
40
0.5
50
0
51
90
0
ARC
8
0
10
255.4375
20
-144.6125
40
0.5
50
180
51
270
0
ARC
8
0
10
268.4375
20
-144.6125
40
0.5
50
270
51
0
0
LINE
8
0
10
274.4875
20
-131.1125
11
287.4875
21
-131.1125
0
LINE
8
0
10
274.4875
20
-145.1125
11
287.4875
21
-145.1125
0
LINE
8
0
10
273.9875
20
-131.6125
11
273.9875
21
-144.6125
0
LINE
8
0
10
287.9875
20
-131.6125
11
287.9875
21
-144.6125
0
ARC
8
0
10
274.4875
20
-131.6125
40
0.5
50
90
51
180
0
ARC
8
0
10
287.4875
20
-131.6125
40
0.5
50
0
51
90
0
ARC
8
0
10
274.4875
20
-144.6125
40
0.5
50
180
51
270
0
ARC
8
0
10
287.4875
20
-144.6125
40
0.5
50
270
51
0
0
LINE
8
0
10
293.5375
20
-131.1125
11
306.5375
21
-131.1125
0
LINE
8
0
10
293.5375
20
-145.1125
11
306.5375
21
-145.1125
0
LINE
8
0
10
293.0375
20
-131.6125
11
293.0375
21
-144.6125
0
LINE
8
0
10
307.0375
20
-131.6125
11
307.0375
21
-144.6125
0
ARC
8
0
10
293.5375
20
-131.6125
40
0.5
50
90
51
180
0
ARC
8
0
10
306.5375
20
-131.6125
40
0.5
50
0
51
90
0
ARC
8
0
10
293.5375
20
-144.6125
40
0.5
50
180
51
270
0
ARC
8
0
10
306.5375
20
-144.6125
40
0.5
50
270
51
0
0
LINE
8
0
10
0
20
-147.6375
11
390.525
21
-147.6375
0
LINE
8
0
10
0
20
0
11
390.525
21
0
0
LINE
8
0
10
0
20
-147.6375
11
0
21
0
0
LINE
8
0
10
390.525
20
-147.6375
11
390.525
21
0
0
ENDSEC
0
EOF