G04 #@! TF.GenerationSoftware,KiCad,Pcbnew,7.0.2*
G04 #@! TF.CreationDate,2023-06-04T01:27:27-04:00*
G04 #@! TF.ProjectId,Boston-keyboard-V082DHI,426f7374-6f6e-42d6-9b65-79626f617264,rev?*
G04 #@! TF.SameCoordinates,Original*
G04 #@! TF.FileFunction,AssemblyDrawing,Top*
%FSLAX46Y46*%
G04 Gerber Fmt 4.6, Leading zero omitted, Abs format (unit mm)*
G04 Created by KiCad (PCBNEW 7.0.2) date 2023-06-04 01:27:27*
%MOMM*%
%LPD*%
G01*
G04 APERTURE LIST*
%ADD10C,0.150000*%
%ADD11C,0.120000*%
%ADD12C,0.100000*%
G04 APERTURE END LIST*
D10*
X358431595Y-147112119D02*
X358431595Y-146112119D01*
X358431595Y-146588309D02*
X359003023Y-146588309D01*
X359003023Y-147112119D02*
X359003023Y-146112119D01*
X360003023Y-147112119D02*
X359431595Y-147112119D01*
X359717309Y-147112119D02*
X359717309Y-146112119D01*
X359717309Y-146112119D02*
X359622071Y-146254976D01*
X359622071Y-146254976D02*
X359526833Y-146350214D01*
X359526833Y-146350214D02*
X359431595Y-146397833D01*
X302410914Y-49362611D02*
X302410914Y-48362611D01*
X302410914Y-48838801D02*
X302982342Y-48838801D01*
X302982342Y-49362611D02*
X302982342Y-48362611D01*
X303363295Y-48362611D02*
X303982342Y-48362611D01*
X303982342Y-48362611D02*
X303649009Y-48743563D01*
X303649009Y-48743563D02*
X303791866Y-48743563D01*
X303791866Y-48743563D02*
X303887104Y-48791182D01*
X303887104Y-48791182D02*
X303934723Y-48838801D01*
X303934723Y-48838801D02*
X303982342Y-48934039D01*
X303982342Y-48934039D02*
X303982342Y-49172134D01*
X303982342Y-49172134D02*
X303934723Y-49267372D01*
X303934723Y-49267372D02*
X303887104Y-49314992D01*
X303887104Y-49314992D02*
X303791866Y-49362611D01*
X303791866Y-49362611D02*
X303506152Y-49362611D01*
X303506152Y-49362611D02*
X303410914Y-49314992D01*
X303410914Y-49314992D02*
X303363295Y-49267372D01*
X304601390Y-48362611D02*
X304696628Y-48362611D01*
X304696628Y-48362611D02*
X304791866Y-48410230D01*
X304791866Y-48410230D02*
X304839485Y-48457849D01*
X304839485Y-48457849D02*
X304887104Y-48553087D01*
X304887104Y-48553087D02*
X304934723Y-48743563D01*
X304934723Y-48743563D02*
X304934723Y-48981658D01*
X304934723Y-48981658D02*
X304887104Y-49172134D01*
X304887104Y-49172134D02*
X304839485Y-49267372D01*
X304839485Y-49267372D02*
X304791866Y-49314992D01*
X304791866Y-49314992D02*
X304696628Y-49362611D01*
X304696628Y-49362611D02*
X304601390Y-49362611D01*
X304601390Y-49362611D02*
X304506152Y-49314992D01*
X304506152Y-49314992D02*
X304458533Y-49267372D01*
X304458533Y-49267372D02*
X304410914Y-49172134D01*
X304410914Y-49172134D02*
X304363295Y-48981658D01*
X304363295Y-48981658D02*
X304363295Y-48743563D01*
X304363295Y-48743563D02*
X304410914Y-48553087D01*
X304410914Y-48553087D02*
X304458533Y-48457849D01*
X304458533Y-48457849D02*
X304506152Y-48410230D01*
X304506152Y-48410230D02*
X304601390Y-48362611D01*
X305315676Y-48457849D02*
X305363295Y-48410230D01*
X305363295Y-48410230D02*
X305458533Y-48362611D01*
X305458533Y-48362611D02*
X305696628Y-48362611D01*
X305696628Y-48362611D02*
X305791866Y-48410230D01*
X305791866Y-48410230D02*
X305839485Y-48457849D01*
X305839485Y-48457849D02*
X305887104Y-48553087D01*
X305887104Y-48553087D02*
X305887104Y-48648325D01*
X305887104Y-48648325D02*
X305839485Y-48791182D01*
X305839485Y-48791182D02*
X305268057Y-49362611D01*
X305268057Y-49362611D02*
X305887104Y-49362611D01*
X388135986Y-96987651D02*
X388135986Y-95987651D01*
X388135986Y-96463841D02*
X388707414Y-96463841D01*
X388707414Y-96987651D02*
X388707414Y-95987651D01*
X389088367Y-95987651D02*
X389707414Y-95987651D01*
X389707414Y-95987651D02*
X389374081Y-96368603D01*
X389374081Y-96368603D02*
X389516938Y-96368603D01*
X389516938Y-96368603D02*
X389612176Y-96416222D01*
X389612176Y-96416222D02*
X389659795Y-96463841D01*
X389659795Y-96463841D02*
X389707414Y-96559079D01*
X389707414Y-96559079D02*
X389707414Y-96797174D01*
X389707414Y-96797174D02*
X389659795Y-96892412D01*
X389659795Y-96892412D02*
X389612176Y-96940032D01*
X389612176Y-96940032D02*
X389516938Y-96987651D01*
X389516938Y-96987651D02*
X389231224Y-96987651D01*
X389231224Y-96987651D02*
X389135986Y-96940032D01*
X389135986Y-96940032D02*
X389088367Y-96892412D01*
X390326462Y-95987651D02*
X390421700Y-95987651D01*
X390421700Y-95987651D02*
X390516938Y-96035270D01*
X390516938Y-96035270D02*
X390564557Y-96082889D01*
X390564557Y-96082889D02*
X390612176Y-96178127D01*
X390612176Y-96178127D02*
X390659795Y-96368603D01*
X390659795Y-96368603D02*
X390659795Y-96606698D01*
X390659795Y-96606698D02*
X390612176Y-96797174D01*
X390612176Y-96797174D02*
X390564557Y-96892412D01*
X390564557Y-96892412D02*
X390516938Y-96940032D01*
X390516938Y-96940032D02*
X390421700Y-96987651D01*
X390421700Y-96987651D02*
X390326462Y-96987651D01*
X390326462Y-96987651D02*
X390231224Y-96940032D01*
X390231224Y-96940032D02*
X390183605Y-96892412D01*
X390183605Y-96892412D02*
X390135986Y-96797174D01*
X390135986Y-96797174D02*
X390088367Y-96606698D01*
X390088367Y-96606698D02*
X390088367Y-96368603D01*
X390088367Y-96368603D02*
X390135986Y-96178127D01*
X390135986Y-96178127D02*
X390183605Y-96082889D01*
X390183605Y-96082889D02*
X390231224Y-96035270D01*
X390231224Y-96035270D02*
X390326462Y-95987651D01*
X391516938Y-95987651D02*
X391326462Y-95987651D01*
X391326462Y-95987651D02*
X391231224Y-96035270D01*
X391231224Y-96035270D02*
X391183605Y-96082889D01*
X391183605Y-96082889D02*
X391088367Y-96225746D01*
X391088367Y-96225746D02*
X391040748Y-96416222D01*
X391040748Y-96416222D02*
X391040748Y-96797174D01*
X391040748Y-96797174D02*
X391088367Y-96892412D01*
X391088367Y-96892412D02*
X391135986Y-96940032D01*
X391135986Y-96940032D02*
X391231224Y-96987651D01*
X391231224Y-96987651D02*
X391421700Y-96987651D01*
X391421700Y-96987651D02*
X391516938Y-96940032D01*
X391516938Y-96940032D02*
X391564557Y-96892412D01*
X391564557Y-96892412D02*
X391612176Y-96797174D01*
X391612176Y-96797174D02*
X391612176Y-96559079D01*
X391612176Y-96559079D02*
X391564557Y-96463841D01*
X391564557Y-96463841D02*
X391516938Y-96416222D01*
X391516938Y-96416222D02*
X391421700Y-96368603D01*
X391421700Y-96368603D02*
X391231224Y-96368603D01*
X391231224Y-96368603D02*
X391135986Y-96416222D01*
X391135986Y-96416222D02*
X391088367Y-96463841D01*
X391088367Y-96463841D02*
X391040748Y-96559079D01*
X426236018Y-49362611D02*
X426236018Y-48362611D01*
X426236018Y-48838801D02*
X426807446Y-48838801D01*
X426807446Y-49362611D02*
X426807446Y-48362611D01*
X427188399Y-48362611D02*
X427807446Y-48362611D01*
X427807446Y-48362611D02*
X427474113Y-48743563D01*
X427474113Y-48743563D02*
X427616970Y-48743563D01*
X427616970Y-48743563D02*
X427712208Y-48791182D01*
X427712208Y-48791182D02*
X427759827Y-48838801D01*
X427759827Y-48838801D02*
X427807446Y-48934039D01*
X427807446Y-48934039D02*
X427807446Y-49172134D01*
X427807446Y-49172134D02*
X427759827Y-49267372D01*
X427759827Y-49267372D02*
X427712208Y-49314992D01*
X427712208Y-49314992D02*
X427616970Y-49362611D01*
X427616970Y-49362611D02*
X427331256Y-49362611D01*
X427331256Y-49362611D02*
X427236018Y-49314992D01*
X427236018Y-49314992D02*
X427188399Y-49267372D01*
X428426494Y-48362611D02*
X428521732Y-48362611D01*
X428521732Y-48362611D02*
X428616970Y-48410230D01*
X428616970Y-48410230D02*
X428664589Y-48457849D01*
X428664589Y-48457849D02*
X428712208Y-48553087D01*
X428712208Y-48553087D02*
X428759827Y-48743563D01*
X428759827Y-48743563D02*
X428759827Y-48981658D01*
X428759827Y-48981658D02*
X428712208Y-49172134D01*
X428712208Y-49172134D02*
X428664589Y-49267372D01*
X428664589Y-49267372D02*
X428616970Y-49314992D01*
X428616970Y-49314992D02*
X428521732Y-49362611D01*
X428521732Y-49362611D02*
X428426494Y-49362611D01*
X428426494Y-49362611D02*
X428331256Y-49314992D01*
X428331256Y-49314992D02*
X428283637Y-49267372D01*
X428283637Y-49267372D02*
X428236018Y-49172134D01*
X428236018Y-49172134D02*
X428188399Y-48981658D01*
X428188399Y-48981658D02*
X428188399Y-48743563D01*
X428188399Y-48743563D02*
X428236018Y-48553087D01*
X428236018Y-48553087D02*
X428283637Y-48457849D01*
X428283637Y-48457849D02*
X428331256Y-48410230D01*
X428331256Y-48410230D02*
X428426494Y-48362611D01*
X429093161Y-48362611D02*
X429712208Y-48362611D01*
X429712208Y-48362611D02*
X429378875Y-48743563D01*
X429378875Y-48743563D02*
X429521732Y-48743563D01*
X429521732Y-48743563D02*
X429616970Y-48791182D01*
X429616970Y-48791182D02*
X429664589Y-48838801D01*
X429664589Y-48838801D02*
X429712208Y-48934039D01*
X429712208Y-48934039D02*
X429712208Y-49172134D01*
X429712208Y-49172134D02*
X429664589Y-49267372D01*
X429664589Y-49267372D02*
X429616970Y-49314992D01*
X429616970Y-49314992D02*
X429521732Y-49362611D01*
X429521732Y-49362611D02*
X429236018Y-49362611D01*
X429236018Y-49362611D02*
X429140780Y-49314992D01*
X429140780Y-49314992D02*
X429093161Y-49267372D01*
D11*
X335605356Y-73082595D02*
X335224404Y-73082595D01*
X335224404Y-73082595D02*
X335224404Y-72282595D01*
X335872023Y-72663547D02*
X336138689Y-72663547D01*
X336252975Y-73082595D02*
X335872023Y-73082595D01*
X335872023Y-73082595D02*
X335872023Y-72282595D01*
X335872023Y-72282595D02*
X336252975Y-72282595D01*
X336595833Y-73082595D02*
X336595833Y-72282595D01*
X336595833Y-72282595D02*
X336786309Y-72282595D01*
X336786309Y-72282595D02*
X336900595Y-72320690D01*
X336900595Y-72320690D02*
X336976785Y-72396880D01*
X336976785Y-72396880D02*
X337014880Y-72473071D01*
X337014880Y-72473071D02*
X337052976Y-72625452D01*
X337052976Y-72625452D02*
X337052976Y-72739738D01*
X337052976Y-72739738D02*
X337014880Y-72892119D01*
X337014880Y-72892119D02*
X336976785Y-72968309D01*
X336976785Y-72968309D02*
X336900595Y-73044500D01*
X336900595Y-73044500D02*
X336786309Y-73082595D01*
X336786309Y-73082595D02*
X336595833Y-73082595D01*
X337357737Y-72358785D02*
X337395833Y-72320690D01*
X337395833Y-72320690D02*
X337472023Y-72282595D01*
X337472023Y-72282595D02*
X337662499Y-72282595D01*
X337662499Y-72282595D02*
X337738690Y-72320690D01*
X337738690Y-72320690D02*
X337776785Y-72358785D01*
X337776785Y-72358785D02*
X337814880Y-72434976D01*
X337814880Y-72434976D02*
X337814880Y-72511166D01*
X337814880Y-72511166D02*
X337776785Y-72625452D01*
X337776785Y-72625452D02*
X337319642Y-73082595D01*
X337319642Y-73082595D02*
X337814880Y-73082595D01*
X338310119Y-72282595D02*
X338386309Y-72282595D01*
X338386309Y-72282595D02*
X338462500Y-72320690D01*
X338462500Y-72320690D02*
X338500595Y-72358785D01*
X338500595Y-72358785D02*
X338538690Y-72434976D01*
X338538690Y-72434976D02*
X338576785Y-72587357D01*
X338576785Y-72587357D02*
X338576785Y-72777833D01*
X338576785Y-72777833D02*
X338538690Y-72930214D01*
X338538690Y-72930214D02*
X338500595Y-73006404D01*
X338500595Y-73006404D02*
X338462500Y-73044500D01*
X338462500Y-73044500D02*
X338386309Y-73082595D01*
X338386309Y-73082595D02*
X338310119Y-73082595D01*
X338310119Y-73082595D02*
X338233928Y-73044500D01*
X338233928Y-73044500D02*
X338195833Y-73006404D01*
X338195833Y-73006404D02*
X338157738Y-72930214D01*
X338157738Y-72930214D02*
X338119642Y-72777833D01*
X338119642Y-72777833D02*
X338119642Y-72587357D01*
X338119642Y-72587357D02*
X338157738Y-72434976D01*
X338157738Y-72434976D02*
X338195833Y-72358785D01*
X338195833Y-72358785D02*
X338233928Y-72320690D01*
X338233928Y-72320690D02*
X338310119Y-72282595D01*
X339338690Y-73082595D02*
X338881547Y-73082595D01*
X339110119Y-73082595D02*
X339110119Y-72282595D01*
X339110119Y-72282595D02*
X339033928Y-72396880D01*
X339033928Y-72396880D02*
X338957738Y-72473071D01*
X338957738Y-72473071D02*
X338881547Y-72511166D01*
X354655356Y-73082595D02*
X354274404Y-73082595D01*
X354274404Y-73082595D02*
X354274404Y-72282595D01*
X354922023Y-72663547D02*
X355188689Y-72663547D01*
X355302975Y-73082595D02*
X354922023Y-73082595D01*
X354922023Y-73082595D02*
X354922023Y-72282595D01*
X354922023Y-72282595D02*
X355302975Y-72282595D01*
X355645833Y-73082595D02*
X355645833Y-72282595D01*
X355645833Y-72282595D02*
X355836309Y-72282595D01*
X355836309Y-72282595D02*
X355950595Y-72320690D01*
X355950595Y-72320690D02*
X356026785Y-72396880D01*
X356026785Y-72396880D02*
X356064880Y-72473071D01*
X356064880Y-72473071D02*
X356102976Y-72625452D01*
X356102976Y-72625452D02*
X356102976Y-72739738D01*
X356102976Y-72739738D02*
X356064880Y-72892119D01*
X356064880Y-72892119D02*
X356026785Y-72968309D01*
X356026785Y-72968309D02*
X355950595Y-73044500D01*
X355950595Y-73044500D02*
X355836309Y-73082595D01*
X355836309Y-73082595D02*
X355645833Y-73082595D01*
X356407737Y-72358785D02*
X356445833Y-72320690D01*
X356445833Y-72320690D02*
X356522023Y-72282595D01*
X356522023Y-72282595D02*
X356712499Y-72282595D01*
X356712499Y-72282595D02*
X356788690Y-72320690D01*
X356788690Y-72320690D02*
X356826785Y-72358785D01*
X356826785Y-72358785D02*
X356864880Y-72434976D01*
X356864880Y-72434976D02*
X356864880Y-72511166D01*
X356864880Y-72511166D02*
X356826785Y-72625452D01*
X356826785Y-72625452D02*
X356369642Y-73082595D01*
X356369642Y-73082595D02*
X356864880Y-73082595D01*
X357360119Y-72282595D02*
X357436309Y-72282595D01*
X357436309Y-72282595D02*
X357512500Y-72320690D01*
X357512500Y-72320690D02*
X357550595Y-72358785D01*
X357550595Y-72358785D02*
X357588690Y-72434976D01*
X357588690Y-72434976D02*
X357626785Y-72587357D01*
X357626785Y-72587357D02*
X357626785Y-72777833D01*
X357626785Y-72777833D02*
X357588690Y-72930214D01*
X357588690Y-72930214D02*
X357550595Y-73006404D01*
X357550595Y-73006404D02*
X357512500Y-73044500D01*
X357512500Y-73044500D02*
X357436309Y-73082595D01*
X357436309Y-73082595D02*
X357360119Y-73082595D01*
X357360119Y-73082595D02*
X357283928Y-73044500D01*
X357283928Y-73044500D02*
X357245833Y-73006404D01*
X357245833Y-73006404D02*
X357207738Y-72930214D01*
X357207738Y-72930214D02*
X357169642Y-72777833D01*
X357169642Y-72777833D02*
X357169642Y-72587357D01*
X357169642Y-72587357D02*
X357207738Y-72434976D01*
X357207738Y-72434976D02*
X357245833Y-72358785D01*
X357245833Y-72358785D02*
X357283928Y-72320690D01*
X357283928Y-72320690D02*
X357360119Y-72282595D01*
X357931547Y-72358785D02*
X357969643Y-72320690D01*
X357969643Y-72320690D02*
X358045833Y-72282595D01*
X358045833Y-72282595D02*
X358236309Y-72282595D01*
X358236309Y-72282595D02*
X358312500Y-72320690D01*
X358312500Y-72320690D02*
X358350595Y-72358785D01*
X358350595Y-72358785D02*
X358388690Y-72434976D01*
X358388690Y-72434976D02*
X358388690Y-72511166D01*
X358388690Y-72511166D02*
X358350595Y-72625452D01*
X358350595Y-72625452D02*
X357893452Y-73082595D01*
X357893452Y-73082595D02*
X358388690Y-73082595D01*
D10*
X294415000Y-146435713D02*
X294462619Y-146292856D01*
X294462619Y-146292856D02*
X294462619Y-146054761D01*
X294462619Y-146054761D02*
X294415000Y-145959523D01*
X294415000Y-145959523D02*
X294367380Y-145911904D01*
X294367380Y-145911904D02*
X294272142Y-145864285D01*
X294272142Y-145864285D02*
X294176904Y-145864285D01*
X294176904Y-145864285D02*
X294081666Y-145911904D01*
X294081666Y-145911904D02*
X294034047Y-145959523D01*
X294034047Y-145959523D02*
X293986428Y-146054761D01*
X293986428Y-146054761D02*
X293938809Y-146245237D01*
X293938809Y-146245237D02*
X293891190Y-146340475D01*
X293891190Y-146340475D02*
X293843571Y-146388094D01*
X293843571Y-146388094D02*
X293748333Y-146435713D01*
X293748333Y-146435713D02*
X293653095Y-146435713D01*
X293653095Y-146435713D02*
X293557857Y-146388094D01*
X293557857Y-146388094D02*
X293510238Y-146340475D01*
X293510238Y-146340475D02*
X293462619Y-146245237D01*
X293462619Y-146245237D02*
X293462619Y-146007142D01*
X293462619Y-146007142D02*
X293510238Y-145864285D01*
X293462619Y-145530951D02*
X294462619Y-145292856D01*
X294462619Y-145292856D02*
X293748333Y-145102380D01*
X293748333Y-145102380D02*
X294462619Y-144911904D01*
X294462619Y-144911904D02*
X293462619Y-144673809D01*
X293557857Y-144340475D02*
X293510238Y-144292856D01*
X293510238Y-144292856D02*
X293462619Y-144197618D01*
X293462619Y-144197618D02*
X293462619Y-143959523D01*
X293462619Y-143959523D02*
X293510238Y-143864285D01*
X293510238Y-143864285D02*
X293557857Y-143816666D01*
X293557857Y-143816666D02*
X293653095Y-143769047D01*
X293653095Y-143769047D02*
X293748333Y-143769047D01*
X293748333Y-143769047D02*
X293891190Y-143816666D01*
X293891190Y-143816666D02*
X294462619Y-144388094D01*
X294462619Y-144388094D02*
X294462619Y-143769047D01*
X293462619Y-143149999D02*
X293462619Y-143054761D01*
X293462619Y-143054761D02*
X293510238Y-142959523D01*
X293510238Y-142959523D02*
X293557857Y-142911904D01*
X293557857Y-142911904D02*
X293653095Y-142864285D01*
X293653095Y-142864285D02*
X293843571Y-142816666D01*
X293843571Y-142816666D02*
X294081666Y-142816666D01*
X294081666Y-142816666D02*
X294272142Y-142864285D01*
X294272142Y-142864285D02*
X294367380Y-142911904D01*
X294367380Y-142911904D02*
X294415000Y-142959523D01*
X294415000Y-142959523D02*
X294462619Y-143054761D01*
X294462619Y-143054761D02*
X294462619Y-143149999D01*
X294462619Y-143149999D02*
X294415000Y-143245237D01*
X294415000Y-143245237D02*
X294367380Y-143292856D01*
X294367380Y-143292856D02*
X294272142Y-143340475D01*
X294272142Y-143340475D02*
X294081666Y-143388094D01*
X294081666Y-143388094D02*
X293843571Y-143388094D01*
X293843571Y-143388094D02*
X293653095Y-143340475D01*
X293653095Y-143340475D02*
X293557857Y-143292856D01*
X293557857Y-143292856D02*
X293510238Y-143245237D01*
X293510238Y-143245237D02*
X293462619Y-143149999D01*
X293462619Y-142197618D02*
X293462619Y-142102380D01*
X293462619Y-142102380D02*
X293510238Y-142007142D01*
X293510238Y-142007142D02*
X293557857Y-141959523D01*
X293557857Y-141959523D02*
X293653095Y-141911904D01*
X293653095Y-141911904D02*
X293843571Y-141864285D01*
X293843571Y-141864285D02*
X294081666Y-141864285D01*
X294081666Y-141864285D02*
X294272142Y-141911904D01*
X294272142Y-141911904D02*
X294367380Y-141959523D01*
X294367380Y-141959523D02*
X294415000Y-142007142D01*
X294415000Y-142007142D02*
X294462619Y-142102380D01*
X294462619Y-142102380D02*
X294462619Y-142197618D01*
X294462619Y-142197618D02*
X294415000Y-142292856D01*
X294415000Y-142292856D02*
X294367380Y-142340475D01*
X294367380Y-142340475D02*
X294272142Y-142388094D01*
X294272142Y-142388094D02*
X294081666Y-142435713D01*
X294081666Y-142435713D02*
X293843571Y-142435713D01*
X293843571Y-142435713D02*
X293653095Y-142388094D01*
X293653095Y-142388094D02*
X293557857Y-142340475D01*
X293557857Y-142340475D02*
X293510238Y-142292856D01*
X293510238Y-142292856D02*
X293462619Y-142197618D01*
X78999285Y-30412619D02*
X78999285Y-31126904D01*
X78999285Y-31126904D02*
X78951666Y-31269761D01*
X78951666Y-31269761D02*
X78856428Y-31365000D01*
X78856428Y-31365000D02*
X78713571Y-31412619D01*
X78713571Y-31412619D02*
X78618333Y-31412619D01*
X79380238Y-30412619D02*
X80046904Y-30412619D01*
X80046904Y-30412619D02*
X79618333Y-31412619D01*
X80618333Y-30412619D02*
X80713571Y-30412619D01*
X80713571Y-30412619D02*
X80808809Y-30460238D01*
X80808809Y-30460238D02*
X80856428Y-30507857D01*
X80856428Y-30507857D02*
X80904047Y-30603095D01*
X80904047Y-30603095D02*
X80951666Y-30793571D01*
X80951666Y-30793571D02*
X80951666Y-31031666D01*
X80951666Y-31031666D02*
X80904047Y-31222142D01*
X80904047Y-31222142D02*
X80856428Y-31317380D01*
X80856428Y-31317380D02*
X80808809Y-31365000D01*
X80808809Y-31365000D02*
X80713571Y-31412619D01*
X80713571Y-31412619D02*
X80618333Y-31412619D01*
X80618333Y-31412619D02*
X80523095Y-31365000D01*
X80523095Y-31365000D02*
X80475476Y-31317380D01*
X80475476Y-31317380D02*
X80427857Y-31222142D01*
X80427857Y-31222142D02*
X80380238Y-31031666D01*
X80380238Y-31031666D02*
X80380238Y-30793571D01*
X80380238Y-30793571D02*
X80427857Y-30603095D01*
X80427857Y-30603095D02*
X80475476Y-30507857D01*
X80475476Y-30507857D02*
X80523095Y-30460238D01*
X80523095Y-30460238D02*
X80618333Y-30412619D01*
X81332619Y-30507857D02*
X81380238Y-30460238D01*
X81380238Y-30460238D02*
X81475476Y-30412619D01*
X81475476Y-30412619D02*
X81713571Y-30412619D01*
X81713571Y-30412619D02*
X81808809Y-30460238D01*
X81808809Y-30460238D02*
X81856428Y-30507857D01*
X81856428Y-30507857D02*
X81904047Y-30603095D01*
X81904047Y-30603095D02*
X81904047Y-30698333D01*
X81904047Y-30698333D02*
X81856428Y-30841190D01*
X81856428Y-30841190D02*
X81285000Y-31412619D01*
X81285000Y-31412619D02*
X81904047Y-31412619D01*
X264310882Y-154137699D02*
X264310882Y-153137699D01*
X264310882Y-153613889D02*
X264882310Y-153613889D01*
X264882310Y-154137699D02*
X264882310Y-153137699D01*
X265263263Y-153137699D02*
X265882310Y-153137699D01*
X265882310Y-153137699D02*
X265548977Y-153518651D01*
X265548977Y-153518651D02*
X265691834Y-153518651D01*
X265691834Y-153518651D02*
X265787072Y-153566270D01*
X265787072Y-153566270D02*
X265834691Y-153613889D01*
X265834691Y-153613889D02*
X265882310Y-153709127D01*
X265882310Y-153709127D02*
X265882310Y-153947222D01*
X265882310Y-153947222D02*
X265834691Y-154042460D01*
X265834691Y-154042460D02*
X265787072Y-154090080D01*
X265787072Y-154090080D02*
X265691834Y-154137699D01*
X265691834Y-154137699D02*
X265406120Y-154137699D01*
X265406120Y-154137699D02*
X265310882Y-154090080D01*
X265310882Y-154090080D02*
X265263263Y-154042460D01*
X266501358Y-153137699D02*
X266596596Y-153137699D01*
X266596596Y-153137699D02*
X266691834Y-153185318D01*
X266691834Y-153185318D02*
X266739453Y-153232937D01*
X266739453Y-153232937D02*
X266787072Y-153328175D01*
X266787072Y-153328175D02*
X266834691Y-153518651D01*
X266834691Y-153518651D02*
X266834691Y-153756746D01*
X266834691Y-153756746D02*
X266787072Y-153947222D01*
X266787072Y-153947222D02*
X266739453Y-154042460D01*
X266739453Y-154042460D02*
X266691834Y-154090080D01*
X266691834Y-154090080D02*
X266596596Y-154137699D01*
X266596596Y-154137699D02*
X266501358Y-154137699D01*
X266501358Y-154137699D02*
X266406120Y-154090080D01*
X266406120Y-154090080D02*
X266358501Y-154042460D01*
X266358501Y-154042460D02*
X266310882Y-153947222D01*
X266310882Y-153947222D02*
X266263263Y-153756746D01*
X266263263Y-153756746D02*
X266263263Y-153518651D01*
X266263263Y-153518651D02*
X266310882Y-153328175D01*
X266310882Y-153328175D02*
X266358501Y-153232937D01*
X266358501Y-153232937D02*
X266406120Y-153185318D01*
X266406120Y-153185318D02*
X266501358Y-153137699D01*
X267406120Y-153566270D02*
X267310882Y-153518651D01*
X267310882Y-153518651D02*
X267263263Y-153471032D01*
X267263263Y-153471032D02*
X267215644Y-153375794D01*
X267215644Y-153375794D02*
X267215644Y-153328175D01*
X267215644Y-153328175D02*
X267263263Y-153232937D01*
X267263263Y-153232937D02*
X267310882Y-153185318D01*
X267310882Y-153185318D02*
X267406120Y-153137699D01*
X267406120Y-153137699D02*
X267596596Y-153137699D01*
X267596596Y-153137699D02*
X267691834Y-153185318D01*
X267691834Y-153185318D02*
X267739453Y-153232937D01*
X267739453Y-153232937D02*
X267787072Y-153328175D01*
X267787072Y-153328175D02*
X267787072Y-153375794D01*
X267787072Y-153375794D02*
X267739453Y-153471032D01*
X267739453Y-153471032D02*
X267691834Y-153518651D01*
X267691834Y-153518651D02*
X267596596Y-153566270D01*
X267596596Y-153566270D02*
X267406120Y-153566270D01*
X267406120Y-153566270D02*
X267310882Y-153613889D01*
X267310882Y-153613889D02*
X267263263Y-153661508D01*
X267263263Y-153661508D02*
X267215644Y-153756746D01*
X267215644Y-153756746D02*
X267215644Y-153947222D01*
X267215644Y-153947222D02*
X267263263Y-154042460D01*
X267263263Y-154042460D02*
X267310882Y-154090080D01*
X267310882Y-154090080D02*
X267406120Y-154137699D01*
X267406120Y-154137699D02*
X267596596Y-154137699D01*
X267596596Y-154137699D02*
X267691834Y-154090080D01*
X267691834Y-154090080D02*
X267739453Y-154042460D01*
X267739453Y-154042460D02*
X267787072Y-153947222D01*
X267787072Y-153947222D02*
X267787072Y-153756746D01*
X267787072Y-153756746D02*
X267739453Y-153661508D01*
X267739453Y-153661508D02*
X267691834Y-153613889D01*
X267691834Y-153613889D02*
X267596596Y-153566270D01*
X197635826Y-96987651D02*
X197635826Y-95987651D01*
X197635826Y-96463841D02*
X198207254Y-96463841D01*
X198207254Y-96987651D02*
X198207254Y-95987651D01*
X198588207Y-95987651D02*
X199207254Y-95987651D01*
X199207254Y-95987651D02*
X198873921Y-96368603D01*
X198873921Y-96368603D02*
X199016778Y-96368603D01*
X199016778Y-96368603D02*
X199112016Y-96416222D01*
X199112016Y-96416222D02*
X199159635Y-96463841D01*
X199159635Y-96463841D02*
X199207254Y-96559079D01*
X199207254Y-96559079D02*
X199207254Y-96797174D01*
X199207254Y-96797174D02*
X199159635Y-96892412D01*
X199159635Y-96892412D02*
X199112016Y-96940032D01*
X199112016Y-96940032D02*
X199016778Y-96987651D01*
X199016778Y-96987651D02*
X198731064Y-96987651D01*
X198731064Y-96987651D02*
X198635826Y-96940032D01*
X198635826Y-96940032D02*
X198588207Y-96892412D01*
X199826302Y-95987651D02*
X199921540Y-95987651D01*
X199921540Y-95987651D02*
X200016778Y-96035270D01*
X200016778Y-96035270D02*
X200064397Y-96082889D01*
X200064397Y-96082889D02*
X200112016Y-96178127D01*
X200112016Y-96178127D02*
X200159635Y-96368603D01*
X200159635Y-96368603D02*
X200159635Y-96606698D01*
X200159635Y-96606698D02*
X200112016Y-96797174D01*
X200112016Y-96797174D02*
X200064397Y-96892412D01*
X200064397Y-96892412D02*
X200016778Y-96940032D01*
X200016778Y-96940032D02*
X199921540Y-96987651D01*
X199921540Y-96987651D02*
X199826302Y-96987651D01*
X199826302Y-96987651D02*
X199731064Y-96940032D01*
X199731064Y-96940032D02*
X199683445Y-96892412D01*
X199683445Y-96892412D02*
X199635826Y-96797174D01*
X199635826Y-96797174D02*
X199588207Y-96606698D01*
X199588207Y-96606698D02*
X199588207Y-96368603D01*
X199588207Y-96368603D02*
X199635826Y-96178127D01*
X199635826Y-96178127D02*
X199683445Y-96082889D01*
X199683445Y-96082889D02*
X199731064Y-96035270D01*
X199731064Y-96035270D02*
X199826302Y-95987651D01*
X201064397Y-95987651D02*
X200588207Y-95987651D01*
X200588207Y-95987651D02*
X200540588Y-96463841D01*
X200540588Y-96463841D02*
X200588207Y-96416222D01*
X200588207Y-96416222D02*
X200683445Y-96368603D01*
X200683445Y-96368603D02*
X200921540Y-96368603D01*
X200921540Y-96368603D02*
X201016778Y-96416222D01*
X201016778Y-96416222D02*
X201064397Y-96463841D01*
X201064397Y-96463841D02*
X201112016Y-96559079D01*
X201112016Y-96559079D02*
X201112016Y-96797174D01*
X201112016Y-96797174D02*
X201064397Y-96892412D01*
X201064397Y-96892412D02*
X201016778Y-96940032D01*
X201016778Y-96940032D02*
X200921540Y-96987651D01*
X200921540Y-96987651D02*
X200683445Y-96987651D01*
X200683445Y-96987651D02*
X200588207Y-96940032D01*
X200588207Y-96940032D02*
X200540588Y-96892412D01*
X102385746Y-154137699D02*
X102385746Y-153137699D01*
X102385746Y-153613889D02*
X102957174Y-153613889D01*
X102957174Y-154137699D02*
X102957174Y-153137699D01*
X103338127Y-153137699D02*
X103957174Y-153137699D01*
X103957174Y-153137699D02*
X103623841Y-153518651D01*
X103623841Y-153518651D02*
X103766698Y-153518651D01*
X103766698Y-153518651D02*
X103861936Y-153566270D01*
X103861936Y-153566270D02*
X103909555Y-153613889D01*
X103909555Y-153613889D02*
X103957174Y-153709127D01*
X103957174Y-153709127D02*
X103957174Y-153947222D01*
X103957174Y-153947222D02*
X103909555Y-154042460D01*
X103909555Y-154042460D02*
X103861936Y-154090080D01*
X103861936Y-154090080D02*
X103766698Y-154137699D01*
X103766698Y-154137699D02*
X103480984Y-154137699D01*
X103480984Y-154137699D02*
X103385746Y-154090080D01*
X103385746Y-154090080D02*
X103338127Y-154042460D01*
X104576222Y-153137699D02*
X104671460Y-153137699D01*
X104671460Y-153137699D02*
X104766698Y-153185318D01*
X104766698Y-153185318D02*
X104814317Y-153232937D01*
X104814317Y-153232937D02*
X104861936Y-153328175D01*
X104861936Y-153328175D02*
X104909555Y-153518651D01*
X104909555Y-153518651D02*
X104909555Y-153756746D01*
X104909555Y-153756746D02*
X104861936Y-153947222D01*
X104861936Y-153947222D02*
X104814317Y-154042460D01*
X104814317Y-154042460D02*
X104766698Y-154090080D01*
X104766698Y-154090080D02*
X104671460Y-154137699D01*
X104671460Y-154137699D02*
X104576222Y-154137699D01*
X104576222Y-154137699D02*
X104480984Y-154090080D01*
X104480984Y-154090080D02*
X104433365Y-154042460D01*
X104433365Y-154042460D02*
X104385746Y-153947222D01*
X104385746Y-153947222D02*
X104338127Y-153756746D01*
X104338127Y-153756746D02*
X104338127Y-153518651D01*
X104338127Y-153518651D02*
X104385746Y-153328175D01*
X104385746Y-153328175D02*
X104433365Y-153232937D01*
X104433365Y-153232937D02*
X104480984Y-153185318D01*
X104480984Y-153185318D02*
X104576222Y-153137699D01*
X105242889Y-153137699D02*
X105909555Y-153137699D01*
X105909555Y-153137699D02*
X105480984Y-154137699D01*
X202398214Y-49362619D02*
X202398214Y-48362619D01*
X202398214Y-48838809D02*
X202969642Y-48838809D01*
X202969642Y-49362619D02*
X202969642Y-48362619D01*
X203350595Y-48362619D02*
X203969642Y-48362619D01*
X203969642Y-48362619D02*
X203636309Y-48743571D01*
X203636309Y-48743571D02*
X203779166Y-48743571D01*
X203779166Y-48743571D02*
X203874404Y-48791190D01*
X203874404Y-48791190D02*
X203922023Y-48838809D01*
X203922023Y-48838809D02*
X203969642Y-48934047D01*
X203969642Y-48934047D02*
X203969642Y-49172142D01*
X203969642Y-49172142D02*
X203922023Y-49267380D01*
X203922023Y-49267380D02*
X203874404Y-49315000D01*
X203874404Y-49315000D02*
X203779166Y-49362619D01*
X203779166Y-49362619D02*
X203493452Y-49362619D01*
X203493452Y-49362619D02*
X203398214Y-49315000D01*
X203398214Y-49315000D02*
X203350595Y-49267380D01*
X204588690Y-48362619D02*
X204683928Y-48362619D01*
X204683928Y-48362619D02*
X204779166Y-48410238D01*
X204779166Y-48410238D02*
X204826785Y-48457857D01*
X204826785Y-48457857D02*
X204874404Y-48553095D01*
X204874404Y-48553095D02*
X204922023Y-48743571D01*
X204922023Y-48743571D02*
X204922023Y-48981666D01*
X204922023Y-48981666D02*
X204874404Y-49172142D01*
X204874404Y-49172142D02*
X204826785Y-49267380D01*
X204826785Y-49267380D02*
X204779166Y-49315000D01*
X204779166Y-49315000D02*
X204683928Y-49362619D01*
X204683928Y-49362619D02*
X204588690Y-49362619D01*
X204588690Y-49362619D02*
X204493452Y-49315000D01*
X204493452Y-49315000D02*
X204445833Y-49267380D01*
X204445833Y-49267380D02*
X204398214Y-49172142D01*
X204398214Y-49172142D02*
X204350595Y-48981666D01*
X204350595Y-48981666D02*
X204350595Y-48743571D01*
X204350595Y-48743571D02*
X204398214Y-48553095D01*
X204398214Y-48553095D02*
X204445833Y-48457857D01*
X204445833Y-48457857D02*
X204493452Y-48410238D01*
X204493452Y-48410238D02*
X204588690Y-48362619D01*
X205874404Y-49362619D02*
X205302976Y-49362619D01*
X205588690Y-49362619D02*
X205588690Y-48362619D01*
X205588690Y-48362619D02*
X205493452Y-48505476D01*
X205493452Y-48505476D02*
X205398214Y-48600714D01*
X205398214Y-48600714D02*
X205302976Y-48648333D01*
X426236018Y-154137699D02*
X426236018Y-153137699D01*
X426236018Y-153613889D02*
X426807446Y-153613889D01*
X426807446Y-154137699D02*
X426807446Y-153137699D01*
X427188399Y-153137699D02*
X427807446Y-153137699D01*
X427807446Y-153137699D02*
X427474113Y-153518651D01*
X427474113Y-153518651D02*
X427616970Y-153518651D01*
X427616970Y-153518651D02*
X427712208Y-153566270D01*
X427712208Y-153566270D02*
X427759827Y-153613889D01*
X427759827Y-153613889D02*
X427807446Y-153709127D01*
X427807446Y-153709127D02*
X427807446Y-153947222D01*
X427807446Y-153947222D02*
X427759827Y-154042460D01*
X427759827Y-154042460D02*
X427712208Y-154090080D01*
X427712208Y-154090080D02*
X427616970Y-154137699D01*
X427616970Y-154137699D02*
X427331256Y-154137699D01*
X427331256Y-154137699D02*
X427236018Y-154090080D01*
X427236018Y-154090080D02*
X427188399Y-154042460D01*
X428426494Y-153137699D02*
X428521732Y-153137699D01*
X428521732Y-153137699D02*
X428616970Y-153185318D01*
X428616970Y-153185318D02*
X428664589Y-153232937D01*
X428664589Y-153232937D02*
X428712208Y-153328175D01*
X428712208Y-153328175D02*
X428759827Y-153518651D01*
X428759827Y-153518651D02*
X428759827Y-153756746D01*
X428759827Y-153756746D02*
X428712208Y-153947222D01*
X428712208Y-153947222D02*
X428664589Y-154042460D01*
X428664589Y-154042460D02*
X428616970Y-154090080D01*
X428616970Y-154090080D02*
X428521732Y-154137699D01*
X428521732Y-154137699D02*
X428426494Y-154137699D01*
X428426494Y-154137699D02*
X428331256Y-154090080D01*
X428331256Y-154090080D02*
X428283637Y-154042460D01*
X428283637Y-154042460D02*
X428236018Y-153947222D01*
X428236018Y-153947222D02*
X428188399Y-153756746D01*
X428188399Y-153756746D02*
X428188399Y-153518651D01*
X428188399Y-153518651D02*
X428236018Y-153328175D01*
X428236018Y-153328175D02*
X428283637Y-153232937D01*
X428283637Y-153232937D02*
X428331256Y-153185318D01*
X428331256Y-153185318D02*
X428426494Y-153137699D01*
X429236018Y-154137699D02*
X429426494Y-154137699D01*
X429426494Y-154137699D02*
X429521732Y-154090080D01*
X429521732Y-154090080D02*
X429569351Y-154042460D01*
X429569351Y-154042460D02*
X429664589Y-153899603D01*
X429664589Y-153899603D02*
X429712208Y-153709127D01*
X429712208Y-153709127D02*
X429712208Y-153328175D01*
X429712208Y-153328175D02*
X429664589Y-153232937D01*
X429664589Y-153232937D02*
X429616970Y-153185318D01*
X429616970Y-153185318D02*
X429521732Y-153137699D01*
X429521732Y-153137699D02*
X429331256Y-153137699D01*
X429331256Y-153137699D02*
X429236018Y-153185318D01*
X429236018Y-153185318D02*
X429188399Y-153232937D01*
X429188399Y-153232937D02*
X429140780Y-153328175D01*
X429140780Y-153328175D02*
X429140780Y-153566270D01*
X429140780Y-153566270D02*
X429188399Y-153661508D01*
X429188399Y-153661508D02*
X429236018Y-153709127D01*
X429236018Y-153709127D02*
X429331256Y-153756746D01*
X429331256Y-153756746D02*
X429521732Y-153756746D01*
X429521732Y-153756746D02*
X429616970Y-153709127D01*
X429616970Y-153709127D02*
X429664589Y-153661508D01*
X429664589Y-153661508D02*
X429712208Y-153566270D01*
X79763852Y-96987651D02*
X79763852Y-95987651D01*
X79763852Y-96463841D02*
X80335280Y-96463841D01*
X80335280Y-96987651D02*
X80335280Y-95987651D01*
X80716233Y-95987651D02*
X81335280Y-95987651D01*
X81335280Y-95987651D02*
X81001947Y-96368603D01*
X81001947Y-96368603D02*
X81144804Y-96368603D01*
X81144804Y-96368603D02*
X81240042Y-96416222D01*
X81240042Y-96416222D02*
X81287661Y-96463841D01*
X81287661Y-96463841D02*
X81335280Y-96559079D01*
X81335280Y-96559079D02*
X81335280Y-96797174D01*
X81335280Y-96797174D02*
X81287661Y-96892412D01*
X81287661Y-96892412D02*
X81240042Y-96940032D01*
X81240042Y-96940032D02*
X81144804Y-96987651D01*
X81144804Y-96987651D02*
X80859090Y-96987651D01*
X80859090Y-96987651D02*
X80763852Y-96940032D01*
X80763852Y-96940032D02*
X80716233Y-96892412D01*
X81954328Y-95987651D02*
X82049566Y-95987651D01*
X82049566Y-95987651D02*
X82144804Y-96035270D01*
X82144804Y-96035270D02*
X82192423Y-96082889D01*
X82192423Y-96082889D02*
X82240042Y-96178127D01*
X82240042Y-96178127D02*
X82287661Y-96368603D01*
X82287661Y-96368603D02*
X82287661Y-96606698D01*
X82287661Y-96606698D02*
X82240042Y-96797174D01*
X82240042Y-96797174D02*
X82192423Y-96892412D01*
X82192423Y-96892412D02*
X82144804Y-96940032D01*
X82144804Y-96940032D02*
X82049566Y-96987651D01*
X82049566Y-96987651D02*
X81954328Y-96987651D01*
X81954328Y-96987651D02*
X81859090Y-96940032D01*
X81859090Y-96940032D02*
X81811471Y-96892412D01*
X81811471Y-96892412D02*
X81763852Y-96797174D01*
X81763852Y-96797174D02*
X81716233Y-96606698D01*
X81716233Y-96606698D02*
X81716233Y-96368603D01*
X81716233Y-96368603D02*
X81763852Y-96178127D01*
X81763852Y-96178127D02*
X81811471Y-96082889D01*
X81811471Y-96082889D02*
X81859090Y-96035270D01*
X81859090Y-96035270D02*
X81954328Y-95987651D01*
X83144804Y-96320984D02*
X83144804Y-96987651D01*
X82906709Y-95940032D02*
X82668614Y-96654317D01*
X82668614Y-96654317D02*
X83287661Y-96654317D01*
X323848244Y-45453214D02*
X324562529Y-45453214D01*
X324562529Y-45453214D02*
X324705386Y-45500833D01*
X324705386Y-45500833D02*
X324800625Y-45596071D01*
X324800625Y-45596071D02*
X324848244Y-45738928D01*
X324848244Y-45738928D02*
X324848244Y-45834166D01*
X323848244Y-45072261D02*
X323848244Y-44405595D01*
X323848244Y-44405595D02*
X324848244Y-44834166D01*
X323848244Y-43834166D02*
X323848244Y-43738928D01*
X323848244Y-43738928D02*
X323895863Y-43643690D01*
X323895863Y-43643690D02*
X323943482Y-43596071D01*
X323943482Y-43596071D02*
X324038720Y-43548452D01*
X324038720Y-43548452D02*
X324229196Y-43500833D01*
X324229196Y-43500833D02*
X324467291Y-43500833D01*
X324467291Y-43500833D02*
X324657767Y-43548452D01*
X324657767Y-43548452D02*
X324753005Y-43596071D01*
X324753005Y-43596071D02*
X324800625Y-43643690D01*
X324800625Y-43643690D02*
X324848244Y-43738928D01*
X324848244Y-43738928D02*
X324848244Y-43834166D01*
X324848244Y-43834166D02*
X324800625Y-43929404D01*
X324800625Y-43929404D02*
X324753005Y-43977023D01*
X324753005Y-43977023D02*
X324657767Y-44024642D01*
X324657767Y-44024642D02*
X324467291Y-44072261D01*
X324467291Y-44072261D02*
X324229196Y-44072261D01*
X324229196Y-44072261D02*
X324038720Y-44024642D01*
X324038720Y-44024642D02*
X323943482Y-43977023D01*
X323943482Y-43977023D02*
X323895863Y-43929404D01*
X323895863Y-43929404D02*
X323848244Y-43834166D01*
X323848244Y-42643690D02*
X323848244Y-42834166D01*
X323848244Y-42834166D02*
X323895863Y-42929404D01*
X323895863Y-42929404D02*
X323943482Y-42977023D01*
X323943482Y-42977023D02*
X324086339Y-43072261D01*
X324086339Y-43072261D02*
X324276815Y-43119880D01*
X324276815Y-43119880D02*
X324657767Y-43119880D01*
X324657767Y-43119880D02*
X324753005Y-43072261D01*
X324753005Y-43072261D02*
X324800625Y-43024642D01*
X324800625Y-43024642D02*
X324848244Y-42929404D01*
X324848244Y-42929404D02*
X324848244Y-42738928D01*
X324848244Y-42738928D02*
X324800625Y-42643690D01*
X324800625Y-42643690D02*
X324753005Y-42596071D01*
X324753005Y-42596071D02*
X324657767Y-42548452D01*
X324657767Y-42548452D02*
X324419672Y-42548452D01*
X324419672Y-42548452D02*
X324324434Y-42596071D01*
X324324434Y-42596071D02*
X324276815Y-42643690D01*
X324276815Y-42643690D02*
X324229196Y-42738928D01*
X324229196Y-42738928D02*
X324229196Y-42929404D01*
X324229196Y-42929404D02*
X324276815Y-43024642D01*
X324276815Y-43024642D02*
X324324434Y-43072261D01*
X324324434Y-43072261D02*
X324419672Y-43119880D01*
D11*
X373705356Y-73082595D02*
X373324404Y-73082595D01*
X373324404Y-73082595D02*
X373324404Y-72282595D01*
X373972023Y-72663547D02*
X374238689Y-72663547D01*
X374352975Y-73082595D02*
X373972023Y-73082595D01*
X373972023Y-73082595D02*
X373972023Y-72282595D01*
X373972023Y-72282595D02*
X374352975Y-72282595D01*
X374695833Y-73082595D02*
X374695833Y-72282595D01*
X374695833Y-72282595D02*
X374886309Y-72282595D01*
X374886309Y-72282595D02*
X375000595Y-72320690D01*
X375000595Y-72320690D02*
X375076785Y-72396880D01*
X375076785Y-72396880D02*
X375114880Y-72473071D01*
X375114880Y-72473071D02*
X375152976Y-72625452D01*
X375152976Y-72625452D02*
X375152976Y-72739738D01*
X375152976Y-72739738D02*
X375114880Y-72892119D01*
X375114880Y-72892119D02*
X375076785Y-72968309D01*
X375076785Y-72968309D02*
X375000595Y-73044500D01*
X375000595Y-73044500D02*
X374886309Y-73082595D01*
X374886309Y-73082595D02*
X374695833Y-73082595D01*
X375457737Y-72358785D02*
X375495833Y-72320690D01*
X375495833Y-72320690D02*
X375572023Y-72282595D01*
X375572023Y-72282595D02*
X375762499Y-72282595D01*
X375762499Y-72282595D02*
X375838690Y-72320690D01*
X375838690Y-72320690D02*
X375876785Y-72358785D01*
X375876785Y-72358785D02*
X375914880Y-72434976D01*
X375914880Y-72434976D02*
X375914880Y-72511166D01*
X375914880Y-72511166D02*
X375876785Y-72625452D01*
X375876785Y-72625452D02*
X375419642Y-73082595D01*
X375419642Y-73082595D02*
X375914880Y-73082595D01*
X376410119Y-72282595D02*
X376486309Y-72282595D01*
X376486309Y-72282595D02*
X376562500Y-72320690D01*
X376562500Y-72320690D02*
X376600595Y-72358785D01*
X376600595Y-72358785D02*
X376638690Y-72434976D01*
X376638690Y-72434976D02*
X376676785Y-72587357D01*
X376676785Y-72587357D02*
X376676785Y-72777833D01*
X376676785Y-72777833D02*
X376638690Y-72930214D01*
X376638690Y-72930214D02*
X376600595Y-73006404D01*
X376600595Y-73006404D02*
X376562500Y-73044500D01*
X376562500Y-73044500D02*
X376486309Y-73082595D01*
X376486309Y-73082595D02*
X376410119Y-73082595D01*
X376410119Y-73082595D02*
X376333928Y-73044500D01*
X376333928Y-73044500D02*
X376295833Y-73006404D01*
X376295833Y-73006404D02*
X376257738Y-72930214D01*
X376257738Y-72930214D02*
X376219642Y-72777833D01*
X376219642Y-72777833D02*
X376219642Y-72587357D01*
X376219642Y-72587357D02*
X376257738Y-72434976D01*
X376257738Y-72434976D02*
X376295833Y-72358785D01*
X376295833Y-72358785D02*
X376333928Y-72320690D01*
X376333928Y-72320690D02*
X376410119Y-72282595D01*
X376943452Y-72282595D02*
X377438690Y-72282595D01*
X377438690Y-72282595D02*
X377172024Y-72587357D01*
X377172024Y-72587357D02*
X377286309Y-72587357D01*
X377286309Y-72587357D02*
X377362500Y-72625452D01*
X377362500Y-72625452D02*
X377400595Y-72663547D01*
X377400595Y-72663547D02*
X377438690Y-72739738D01*
X377438690Y-72739738D02*
X377438690Y-72930214D01*
X377438690Y-72930214D02*
X377400595Y-73006404D01*
X377400595Y-73006404D02*
X377362500Y-73044500D01*
X377362500Y-73044500D02*
X377286309Y-73082595D01*
X377286309Y-73082595D02*
X377057738Y-73082595D01*
X377057738Y-73082595D02*
X376981547Y-73044500D01*
X376981547Y-73044500D02*
X376943452Y-73006404D01*
D12*
X338962500Y-73878690D02*
X338962500Y-71546310D01*
X338963054Y-71547025D02*
G75*
G03*
X338962499Y-73878690I-1500554J-1165475D01*
G01*
X338962500Y-72712500D02*
G75*
G03*
X338962500Y-72712500I-1500000J0D01*
G01*
X358012500Y-73878690D02*
X358012500Y-71546310D01*
X358013054Y-71547025D02*
G75*
G03*
X358012499Y-73878690I-1500554J-1165475D01*
G01*
X358012500Y-72712500D02*
G75*
G03*
X358012500Y-72712500I-1500000J0D01*
G01*
X291000000Y-147150000D02*
X291000000Y-144150000D01*
X297000000Y-147150000D02*
X291000000Y-147150000D01*
X291000000Y-144150000D02*
X291000000Y-141150000D01*
X291000000Y-141150000D02*
X297000000Y-141150000D01*
X297000000Y-141150000D02*
X297000000Y-147150000D01*
X296015564Y-144150000D02*
G75*
G03*
X296015564Y-144150000I-2015564J0D01*
G01*
X84095000Y-29680000D02*
X84095000Y-31585000D01*
X76475000Y-29680000D02*
X84095000Y-29680000D01*
X84095000Y-31585000D02*
X83460000Y-32220000D01*
X83460000Y-32220000D02*
X76475000Y-32220000D01*
X76475000Y-32220000D02*
X76475000Y-29680000D01*
X321845625Y-37817500D02*
X325925625Y-37817500D01*
X321845625Y-50517500D02*
X321845625Y-37817500D01*
X325925625Y-37817500D02*
X326925625Y-38817500D01*
X326925625Y-38817500D02*
X326925625Y-50517500D01*
X326925625Y-50517500D02*
X321845625Y-50517500D01*
X377062500Y-73878690D02*
X377062500Y-71546310D01*
X377063054Y-71547025D02*
G75*
G03*
X377062499Y-73878690I-1500554J-1165475D01*
G01*
X377062500Y-72712500D02*
G75*
G03*
X377062500Y-72712500I-1500000J0D01*
G01*
M02*
