%TF.GenerationSoftware,KiCad,Pcbnew,(5.99.0-2421-g2ea5528cd)*%
%TF.CreationDate,2020-08-11T23:59:47-04:00*%
%TF.ProjectId,FR4-plate-new,4652342d-706c-4617-9465-2d6e65772e6b,rev?*%
%TF.SameCoordinates,Original*%
%TF.FileFunction,Soldermask,Bot*%
%TF.FilePolarity,Negative*%
%FSLAX46Y46*%
G04 Gerber Fmt 4.6, Leading zero omitted, Abs format (unit mm)*
G04 Created by KiCad (PCBNEW (5.99.0-2421-g2ea5528cd)) date 2020-08-11 23:59:47*
%MOMM*%
%LPD*%
G01*
G04 APERTURE LIST*
%ADD10C,0.100000*%
%ADD11O,10.000000X6.500000*%
%ADD12C,5.000000*%
%ADD13C,9.200000*%
G04 APERTURE END LIST*
D10*
G36*
X396000000Y-153000000D02*
G01*
X364000000Y-153000000D01*
X364000000Y-161000000D01*
X241000000Y-161000000D01*
X241000000Y-153000000D01*
X0Y-153000000D01*
X0Y-10000000D01*
X396000000Y-10000000D01*
X396000000Y-153000000D01*
G37*
X396000000Y-153000000D02*
X364000000Y-153000000D01*
X364000000Y-161000000D01*
X241000000Y-161000000D01*
X241000000Y-153000000D01*
X0Y-153000000D01*
X0Y-10000000D01*
X396000000Y-10000000D01*
X396000000Y-153000000D01*
D11*
%TO.C,H8*%
X93000000Y-157200000D03*
%TD*%
%TO.C,H6*%
X373000000Y-5375000D03*
%TD*%
D12*
%TO.C,H20*%
X276262300Y-52712500D03*
%TD*%
D11*
%TO.C,H11*%
X373000000Y-157200000D03*
%TD*%
%TO.C,H10*%
X233000000Y-157200000D03*
%TD*%
D13*
%TO.C,H26*%
X283725500Y-52712500D03*
%TD*%
%TO.C,H28*%
X321825500Y-52712500D03*
%TD*%
D12*
%TO.C,H14*%
X109894250Y-14675000D03*
%TD*%
D11*
%TO.C,H4*%
X233000000Y-5375000D03*
%TD*%
%TO.C,H1*%
X23000000Y-5375000D03*
%TD*%
D12*
%TO.C,H21*%
X333731750Y-14675000D03*
%TD*%
%TO.C,H24*%
X305157000Y-119100000D03*
%TD*%
%TO.C,H16*%
X190856750Y-14675000D03*
%TD*%
D11*
%TO.C,H7*%
X23000000Y-157200000D03*
%TD*%
D12*
%TO.C,H18*%
X208963000Y-52712500D03*
%TD*%
%TO.C,H15*%
X119763000Y-52712500D03*
%TD*%
D11*
%TO.C,H3*%
X163000000Y-5375000D03*
%TD*%
D12*
%TO.C,H13*%
X25263000Y-26375000D03*
%TD*%
%TO.C,H17*%
X196762300Y-52712500D03*
%TD*%
D13*
%TO.C,H29*%
X25263000Y-16375000D03*
%TD*%
D12*
%TO.C,H25*%
X314681750Y-149531112D03*
%TD*%
%TO.C,H19*%
X271819250Y-14675000D03*
%TD*%
D13*
%TO.C,H27*%
X302775500Y-52712500D03*
%TD*%
D11*
%TO.C,H2*%
X93000000Y-5375000D03*
%TD*%
D12*
%TO.C,H12*%
X8563000Y-52712500D03*
%TD*%
%TO.C,H23*%
X252769250Y-149531112D03*
%TD*%
%TO.C,H22*%
X387437000Y-52712500D03*
%TD*%
D11*
%TO.C,H5*%
X303000000Y-5375000D03*
%TD*%
%TO.C,H9*%
X163000000Y-157200000D03*
%TD*%
M02*
