M48
; DRILL file {KiCad 7.0.1} date Tue Mar 28 00:09:39 2023
; FORMAT={-:-/ absolute / metric / decimal}
; #@! TF.CreationDate,2023-03-28T00:09:39-04:00
; #@! TF.GenerationSoftware,Kicad,Pcbnew,7.0.1
; #@! TF.FileFunction,NonPlated,1,2,NPTH
FMAT,2
METRIC
; #@! TA.AperFunction,NonPlated,NPTH,ComponentDrill
T1C1.152
; #@! TA.AperFunction,NonPlated,NPTH,ComponentDrill
T2C1.702
; #@! TA.AperFunction,NonPlated,NPTH,ComponentDrill
T3C2.200
; #@! TA.AperFunction,NonPlated,NPTH,ComponentDrill
T4C3.048
; #@! TA.AperFunction,NonPlated,NPTH,ComponentDrill
T5C3.988
; #@! TA.AperFunction,NonPlated,NPTH,ComponentDrill
T6C4.250
%
G90
G05
T1
X57.0Y-32.0
X57.0Y-172.0
X447.0Y-31.0
X447.0Y-172.0
T2
X60.92Y-58.425
X60.92Y-87.0
X63.301Y-163.2
X65.682Y-106.05
X68.064Y-125.1
X71.08Y-58.425
X71.08Y-87.0
X72.826Y-144.15
X73.461Y-163.2
X75.843Y-106.05
X78.224Y-125.1
X79.97Y-87.0
X82.986Y-144.15
X87.114Y-163.2
X89.495Y-39.375
X89.495Y-58.425
X89.495Y-106.05
X90.13Y-87.0
X94.257Y-125.1
X97.274Y-163.2
X99.02Y-87.0
X99.655Y-39.375
X99.655Y-58.425
X99.655Y-106.05
X103.782Y-144.15
X104.417Y-125.1
X108.545Y-39.375
X108.545Y-58.425
X108.545Y-106.05
X109.18Y-87.0
X110.926Y-163.2
X113.307Y-125.1
X113.942Y-144.15
X118.07Y-87.0
X118.705Y-39.375
X118.705Y-58.425
X118.705Y-106.05
X121.086Y-163.2
X122.832Y-144.15
X123.468Y-125.1
X127.595Y-39.375
X127.595Y-58.425
X127.595Y-106.05
X128.23Y-87.0
X132.357Y-125.1
X132.993Y-144.15
X137.12Y-87.0
X137.755Y-39.375
X137.755Y-58.425
X137.755Y-106.05
X141.882Y-144.15
X142.517Y-125.1
X146.645Y-39.375
X146.645Y-58.425
X146.645Y-106.05
X147.28Y-87.0
X149.026Y-163.2
X151.407Y-125.1
X152.042Y-144.15
X156.17Y-87.0
X156.805Y-39.375
X156.805Y-58.425
X156.805Y-106.05
X159.186Y-163.2
X160.933Y-144.15
X161.567Y-125.1
X165.695Y-106.05
X166.33Y-87.0
X170.457Y-58.425
X170.457Y-125.1
X170.458Y-39.375
X171.093Y-144.15
X175.22Y-87.0
X175.855Y-106.05
X179.982Y-144.15
X180.617Y-58.425
X180.617Y-125.1
X180.618Y-39.375
X182.364Y-163.2
X184.745Y-106.05
X185.38Y-87.0
X187.126Y-163.2
X189.507Y-58.425
X189.507Y-125.1
X189.508Y-39.375
X190.142Y-144.15
X192.524Y-163.2
X194.27Y-87.0
X194.905Y-106.05
X197.286Y-163.2
X199.032Y-144.15
X199.667Y-58.425
X199.667Y-125.1
X199.668Y-39.375
X203.795Y-106.05
X204.43Y-87.0
X208.558Y-39.375
X208.558Y-58.425
X208.558Y-125.1
X209.192Y-144.15
X213.32Y-87.0
X213.955Y-106.05
X218.082Y-144.15
X218.718Y-39.375
X218.718Y-58.425
X218.718Y-125.1
X220.464Y-163.2
X222.845Y-106.05
X223.48Y-87.0
X227.607Y-39.375
X227.607Y-58.425
X227.607Y-125.1
X228.242Y-144.15
X230.624Y-163.2
X232.37Y-87.0
X233.005Y-106.05
X237.132Y-144.15
X237.767Y-39.375
X237.767Y-58.425
X237.767Y-125.1
X241.895Y-106.05
X242.53Y-87.0
X246.657Y-125.1
X247.292Y-144.15
X251.42Y-58.425
X251.42Y-87.0
X251.42Y-163.2
X251.42Y-39.375
X252.055Y-106.05
X256.183Y-144.15
X256.817Y-125.1
X260.945Y-106.05
X261.58Y-58.425
X261.58Y-87.0
X261.58Y-163.2
X261.58Y-39.375
X265.707Y-125.1
X266.342Y-144.15
X270.47Y-39.375
X270.47Y-58.425
X270.47Y-87.0
X270.47Y-163.2
X271.105Y-106.05
X275.233Y-144.15
X275.868Y-125.1
X279.995Y-106.05
X280.63Y-39.375
X280.63Y-58.425
X280.63Y-87.0
X280.63Y-163.2
X284.757Y-125.1
X285.392Y-144.15
X289.52Y-39.375
X289.52Y-58.425
X289.52Y-87.0
X289.52Y-163.2
X290.155Y-106.05
X294.917Y-125.1
X299.045Y-106.05
X299.68Y-39.375
X299.68Y-58.425
X299.68Y-87.0
X299.68Y-163.2
X301.426Y-144.15
X308.57Y-39.375
X308.57Y-58.425
X308.57Y-87.0
X309.205Y-106.05
X311.586Y-144.15
X313.332Y-167.963
X315.714Y-125.1
X318.095Y-87.0
X318.73Y-39.375
X318.73Y-58.425
X318.73Y-87.0
X322.857Y-106.05
X323.493Y-167.963
X325.874Y-125.1
X327.62Y-87.0
X328.255Y-87.0
X332.382Y-39.375
X332.382Y-58.425
X332.382Y-148.912
X332.382Y-167.963
X333.017Y-106.05
X337.78Y-87.0
X342.542Y-39.375
X342.542Y-58.425
X342.542Y-148.912
X342.542Y-167.963
X351.433Y-39.375
X351.433Y-58.425
X351.433Y-87.0
X351.433Y-106.05
X351.433Y-125.1
X351.433Y-167.963
X361.592Y-39.375
X361.592Y-58.425
X361.592Y-87.0
X361.592Y-106.05
X361.592Y-125.1
X361.592Y-167.963
X370.482Y-39.375
X370.482Y-58.425
X375.245Y-87.0
X375.245Y-106.05
X375.245Y-125.1
X375.245Y-144.15
X375.245Y-163.2
X380.642Y-39.375
X380.642Y-58.425
X384.77Y-163.2
X385.405Y-87.0
X385.405Y-106.05
X385.405Y-125.1
X385.405Y-144.15
X385.405Y-163.2
X394.295Y-39.375
X394.295Y-58.425
X394.295Y-87.0
X394.295Y-106.05
X394.295Y-125.1
X394.295Y-144.15
X394.295Y-163.2
X394.93Y-163.2
X404.455Y-39.375
X404.455Y-58.425
X404.455Y-87.0
X404.455Y-106.05
X404.455Y-125.1
X404.455Y-144.15
X404.455Y-163.2
X413.345Y-39.375
X413.345Y-58.425
X413.345Y-87.0
X413.345Y-106.05
X413.345Y-125.1
X413.345Y-144.15
X413.345Y-163.2
X423.505Y-39.375
X423.505Y-58.425
X423.505Y-87.0
X423.505Y-106.05
X423.505Y-125.1
X423.505Y-144.15
X423.505Y-163.2
X432.395Y-39.375
X432.395Y-58.425
X432.395Y-87.0
X437.475Y-100.97
X437.475Y-110.495
X437.475Y-111.13
X437.475Y-120.02
X437.475Y-120.655
X437.475Y-130.18
X437.475Y-148.595
X437.475Y-158.755
X442.555Y-39.375
X442.555Y-58.425
X442.555Y-87.0
T3
X81.478Y-96.525
X104.1Y-48.9
X104.1Y-153.675
X199.35Y-96.525
X204.112Y-48.9
X266.025Y-153.675
X304.125Y-48.9
X389.85Y-96.525
X427.95Y-48.9
T4
X62.19Y-55.885
X62.19Y-84.46
X64.571Y-160.66
X65.968Y-137.165
X66.953Y-103.51
X68.54Y-53.345
X68.54Y-81.92
X69.334Y-122.56
X70.921Y-158.12
X73.302Y-100.97
X74.096Y-141.61
X75.684Y-120.02
X80.446Y-139.07
X81.24Y-84.46
X87.59Y-81.92
X88.384Y-160.66
X89.844Y-137.165
X90.765Y-36.835
X90.765Y-55.885
X90.765Y-103.51
X94.734Y-158.12
X95.527Y-122.56
X97.115Y-34.295
X97.115Y-53.345
X97.115Y-100.97
X100.29Y-84.46
X101.877Y-120.02
X105.052Y-141.61
X106.64Y-81.92
X109.815Y-36.835
X109.815Y-55.885
X109.815Y-103.51
X111.402Y-139.07
X112.196Y-160.66
X114.578Y-122.56
X116.165Y-34.295
X116.165Y-53.345
X116.165Y-100.97
X118.546Y-158.12
X119.34Y-84.46
X120.927Y-120.02
X124.102Y-141.61
X125.69Y-81.92
X128.865Y-36.835
X128.865Y-55.885
X128.865Y-103.51
X130.452Y-139.07
X133.627Y-122.56
X135.215Y-34.295
X135.215Y-53.345
X135.215Y-100.97
X137.406Y-170.185
X138.39Y-84.46
X139.977Y-120.02
X142.168Y-170.185
X143.153Y-141.61
X144.74Y-81.92
X147.915Y-36.835
X147.915Y-55.885
X147.915Y-103.51
X149.502Y-139.07
X150.296Y-160.66
X152.677Y-122.56
X154.265Y-34.295
X154.265Y-53.345
X154.265Y-100.97
X156.646Y-158.12
X157.44Y-84.46
X159.028Y-120.02
X162.202Y-141.61
X163.79Y-81.92
X166.044Y-170.185
X166.965Y-103.51
X168.552Y-139.07
X171.727Y-55.885
X171.727Y-122.56
X171.728Y-36.835
X173.315Y-100.97
X176.49Y-84.46
X178.077Y-53.345
X178.077Y-120.02
X178.078Y-34.295
X181.252Y-141.61
X182.84Y-81.92
X183.634Y-160.66
X186.015Y-103.51
X187.602Y-139.07
X189.666Y-168.28
X189.984Y-158.12
X190.778Y-55.885
X190.778Y-122.56
X190.778Y-36.835
X192.365Y-100.97
X195.54Y-84.46
X196.016Y-165.74
X197.127Y-53.345
X197.127Y-120.02
X197.128Y-34.295
X200.302Y-141.61
X201.89Y-81.92
X205.065Y-103.51
X206.653Y-139.07
X209.827Y-36.835
X209.827Y-55.885
X209.827Y-122.56
X211.415Y-100.97
X213.606Y-170.185
X214.59Y-84.46
X216.177Y-34.295
X216.177Y-53.345
X216.177Y-120.02
X219.352Y-141.61
X220.94Y-81.92
X221.734Y-160.66
X224.115Y-103.51
X225.702Y-139.07
X228.084Y-158.12
X228.877Y-36.835
X228.877Y-55.885
X228.877Y-122.56
X230.465Y-100.97
X233.64Y-84.46
X235.227Y-34.295
X235.227Y-53.345
X235.227Y-120.02
X237.482Y-170.185
X237.482Y-170.185
X238.403Y-141.61
X239.99Y-81.92
X243.165Y-103.51
X244.752Y-139.07
X247.927Y-122.56
X249.515Y-100.97
X252.69Y-55.885
X252.69Y-84.46
X252.69Y-160.66
X252.69Y-36.835
X254.277Y-120.02
X257.452Y-141.61
X259.04Y-53.345
X259.04Y-81.92
X259.04Y-158.12
X259.04Y-34.295
X262.215Y-103.51
X263.803Y-139.07
X266.977Y-122.56
X268.565Y-100.97
X271.74Y-36.835
X271.74Y-55.885
X271.74Y-84.46
X271.74Y-160.66
X273.327Y-120.02
X276.502Y-141.61
X278.09Y-34.295
X278.09Y-53.345
X278.09Y-81.92
X278.09Y-158.12
X281.265Y-103.51
X282.852Y-139.07
X286.027Y-122.56
X287.615Y-100.97
X290.79Y-36.835
X290.79Y-55.885
X290.79Y-84.46
X290.79Y-160.66
X292.377Y-120.02
X297.14Y-34.295
X297.14Y-53.345
X297.14Y-81.92
X297.14Y-158.12
X300.315Y-103.51
X302.696Y-141.61
X306.665Y-100.97
X308.856Y-118.115
X309.046Y-139.07
X309.84Y-36.835
X309.84Y-55.885
X311.11Y-92.08
X311.237Y-80.015
X314.602Y-165.422
X316.19Y-34.295
X316.19Y-53.345
X316.984Y-122.56
X317.46Y-89.54
X319.365Y-84.46
X320.952Y-162.882
X323.334Y-120.02
X324.127Y-103.51
X325.715Y-81.92
X330.16Y-92.08
X330.477Y-100.97
X332.732Y-118.115
X333.652Y-36.835
X333.652Y-55.885
X333.652Y-146.373
X333.652Y-165.422
X335.113Y-80.015
X336.51Y-89.54
X340.002Y-34.295
X340.002Y-53.345
X340.002Y-143.832
X340.002Y-162.882
X352.702Y-36.835
X352.702Y-55.885
X352.702Y-84.46
X352.702Y-103.51
X352.702Y-122.56
X352.702Y-165.422
X359.053Y-34.295
X359.053Y-53.345
X359.053Y-81.92
X359.053Y-100.97
X359.053Y-120.02
X359.053Y-162.882
X371.752Y-36.835
X371.752Y-55.885
X376.515Y-84.46
X376.515Y-103.51
X376.515Y-122.56
X376.515Y-141.61
X377.785Y-168.28
X377.912Y-156.215
X378.102Y-34.295
X378.102Y-53.345
X382.865Y-81.92
X382.865Y-100.97
X382.865Y-120.02
X382.865Y-139.07
X384.135Y-165.74
X386.04Y-160.66
X392.39Y-158.12
X395.565Y-36.835
X395.565Y-55.885
X395.565Y-84.46
X395.565Y-103.51
X395.565Y-122.56
X395.565Y-141.61
X396.835Y-168.28
X401.788Y-156.215
X401.915Y-34.295
X401.915Y-53.345
X401.915Y-81.92
X401.915Y-100.97
X401.915Y-120.02
X401.915Y-139.07
X403.185Y-165.74
X414.615Y-36.835
X414.615Y-55.885
X414.615Y-84.46
X414.615Y-103.51
X414.615Y-122.56
X414.615Y-141.61
X414.615Y-160.66
X420.965Y-34.295
X420.965Y-53.345
X420.965Y-81.92
X420.965Y-100.97
X420.965Y-120.02
X420.965Y-139.07
X420.965Y-158.12
X430.49Y-141.737
X430.49Y-165.613
X432.395Y-103.51
X432.395Y-122.56
X433.665Y-36.835
X433.665Y-55.885
X433.665Y-84.46
X434.935Y-109.86
X434.935Y-128.91
X440.015Y-34.295
X440.015Y-53.345
X440.015Y-81.92
X440.015Y-111.765
X440.015Y-149.865
X442.555Y-118.115
X442.555Y-156.215
X444.46Y-103.637
X444.46Y-127.513
T5
X65.968Y-152.405
X66.0Y-58.425
X66.0Y-87.0
X68.381Y-163.2
X70.763Y-106.05
X73.144Y-125.1
X77.906Y-144.15
X85.05Y-87.0
X89.844Y-152.405
X92.194Y-163.2
X94.575Y-39.375
X94.575Y-58.425
X94.575Y-106.05
X99.337Y-125.1
X104.1Y-87.0
X108.862Y-144.15
X113.625Y-39.375
X113.625Y-58.425
X113.625Y-106.05
X116.006Y-163.2
X118.387Y-125.1
X123.15Y-87.0
X127.912Y-144.15
X132.675Y-39.375
X132.675Y-58.425
X132.675Y-106.05
X137.406Y-154.945
X137.438Y-125.1
X142.168Y-154.945
X142.2Y-87.0
X146.963Y-144.15
X151.725Y-39.375
X151.725Y-58.425
X151.725Y-106.05
X154.106Y-163.2
X156.487Y-125.1
X161.25Y-87.0
X166.012Y-144.15
X166.044Y-154.945
X170.775Y-106.05
X175.537Y-58.425
X175.537Y-125.1
X175.538Y-39.375
X180.3Y-87.0
X185.062Y-144.15
X187.444Y-163.2
X189.825Y-106.05
X192.206Y-163.2
X194.587Y-58.425
X194.587Y-125.1
X194.588Y-39.375
X199.35Y-87.0
X204.112Y-144.15
X208.875Y-106.05
X213.606Y-154.945
X213.637Y-39.375
X213.637Y-58.425
X213.637Y-125.1
X218.4Y-87.0
X223.162Y-144.15
X225.544Y-163.2
X227.925Y-106.05
X232.688Y-39.375
X232.688Y-58.425
X232.688Y-125.1
X237.45Y-87.0
X237.482Y-154.945
X237.482Y-154.945
X242.212Y-144.15
X246.975Y-106.05
X251.737Y-125.1
X256.5Y-58.425
X256.5Y-87.0
X256.5Y-163.2
X256.5Y-39.375
X261.262Y-144.15
X266.025Y-106.05
X270.787Y-125.1
X275.55Y-39.375
X275.55Y-58.425
X275.55Y-87.0
X275.55Y-163.2
X280.312Y-144.15
X285.075Y-106.05
X289.837Y-125.1
X294.6Y-39.375
X294.6Y-58.425
X294.6Y-87.0
X294.6Y-163.2
X304.125Y-106.05
X306.506Y-144.15
X308.856Y-133.355
X311.237Y-95.255
X313.65Y-39.375
X313.65Y-58.425
X313.65Y-87.0
X318.412Y-167.963
X320.794Y-125.1
X323.175Y-87.0
X327.938Y-106.05
X332.7Y-87.0
X332.732Y-133.355
X335.113Y-95.255
X337.462Y-39.375
X337.462Y-58.425
X337.462Y-148.912
X337.462Y-167.963
X356.512Y-39.375
X356.512Y-58.425
X356.512Y-87.0
X356.512Y-106.05
X356.512Y-125.1
X356.512Y-167.963
X375.562Y-39.375
X375.562Y-58.425
X377.912Y-171.455
X380.325Y-87.0
X380.325Y-106.05
X380.325Y-125.1
X380.325Y-144.15
X380.325Y-163.2
X389.85Y-163.2
X399.375Y-39.375
X399.375Y-58.425
X399.375Y-87.0
X399.375Y-106.05
X399.375Y-125.1
X399.375Y-144.15
X399.375Y-163.2
X401.788Y-171.455
X418.425Y-39.375
X418.425Y-58.425
X418.425Y-87.0
X418.425Y-106.05
X418.425Y-125.1
X418.425Y-144.15
X418.425Y-163.2
X429.22Y-103.637
X429.22Y-127.513
X437.475Y-39.375
X437.475Y-58.425
X437.475Y-87.0
X437.475Y-106.05
X437.475Y-115.575
X437.475Y-125.1
X437.475Y-153.675
X445.73Y-141.737
X445.73Y-165.613
T6
X79.0Y-36.375
T0
M30
