G04 #@! TF.GenerationSoftware,KiCad,Pcbnew,7.0.1*
G04 #@! TF.CreationDate,2023-03-28T01:20:07-04:00*
G04 #@! TF.ProjectId,Boston-keyboard-V08J,426f7374-6f6e-42d6-9b65-79626f617264,rev?*
G04 #@! TF.SameCoordinates,Original*
G04 #@! TF.FileFunction,Paste,Bot*
G04 #@! TF.FilePolarity,Positive*
%FSLAX46Y46*%
G04 Gerber Fmt 4.6, Leading zero omitted, Abs format (unit mm)*
G04 Created by KiCad (PCBNEW 7.0.1) date 2023-03-28 01:20:07*
%MOMM*%
%LPD*%
G01*
G04 APERTURE LIST*
G04 Aperture macros list*
%AMRoundRect*
0 Rectangle with rounded corners*
0 $1 Rounding radius*
0 $2 $3 $4 $5 $6 $7 $8 $9 X,Y pos of 4 corners*
0 Add a 4 corners polygon primitive as box body*
4,1,4,$2,$3,$4,$5,$6,$7,$8,$9,$2,$3,0*
0 Add four circle primitives for the rounded corners*
1,1,$1+$1,$2,$3*
1,1,$1+$1,$4,$5*
1,1,$1+$1,$6,$7*
1,1,$1+$1,$8,$9*
0 Add four rect primitives between the rounded corners*
20,1,$1+$1,$2,$3,$4,$5,0*
20,1,$1+$1,$4,$5,$6,$7,0*
20,1,$1+$1,$6,$7,$8,$9,0*
20,1,$1+$1,$8,$9,$2,$3,0*%
G04 Aperture macros list end*
%ADD10RoundRect,0.249999X-0.325001X-0.450001X0.325001X-0.450001X0.325001X0.450001X-0.325001X0.450001X0*%
%ADD11RoundRect,0.250000X-0.350000X0.250000X-0.350000X-0.250000X0.350000X-0.250000X0.350000X0.250000X0*%
%ADD12RoundRect,0.249999X0.325001X0.450001X-0.325001X0.450001X-0.325001X-0.450001X0.325001X-0.450001X0*%
%ADD13RoundRect,0.250001X-0.462499X-0.624999X0.462499X-0.624999X0.462499X0.624999X-0.462499X0.624999X0*%
%ADD14RoundRect,0.249999X-0.450001X0.325001X-0.450001X-0.325001X0.450001X-0.325001X0.450001X0.325001X0*%
%ADD15RoundRect,0.250000X-0.450000X0.325000X-0.450000X-0.325000X0.450000X-0.325000X0.450000X0.325000X0*%
%ADD16RoundRect,0.250000X0.325000X0.450000X-0.325000X0.450000X-0.325000X-0.450000X0.325000X-0.450000X0*%
%ADD17RoundRect,0.250000X0.250000X0.350000X-0.250000X0.350000X-0.250000X-0.350000X0.250000X-0.350000X0*%
%ADD18RoundRect,0.249999X0.450001X-0.325001X0.450001X0.325001X-0.450001X0.325001X-0.450001X-0.325001X0*%
%ADD19R,2.000000X1.500000*%
%ADD20R,2.000000X3.800000*%
%ADD21R,1.550000X0.600000*%
%ADD22RoundRect,0.300000X0.475000X0.000000X-0.475000X0.000000X-0.475000X0.000000X0.475000X0.000000X0*%
%ADD23R,1.100000X1.100000*%
%ADD24RoundRect,0.150000X-0.150000X-0.575000X0.150000X-0.575000X0.150000X0.575000X-0.150000X0.575000X0*%
%ADD25RoundRect,0.075000X-0.075000X-0.650000X0.075000X-0.650000X0.075000X0.650000X-0.075000X0.650000X0*%
%ADD26RoundRect,0.237500X0.287500X0.237500X-0.287500X0.237500X-0.287500X-0.237500X0.287500X-0.237500X0*%
%ADD27RoundRect,0.250001X-0.624999X0.462499X-0.624999X-0.462499X0.624999X-0.462499X0.624999X0.462499X0*%
%ADD28RoundRect,0.250000X0.450000X-0.325000X0.450000X0.325000X-0.450000X0.325000X-0.450000X-0.325000X0*%
%ADD29RoundRect,0.075000X0.662500X0.075000X-0.662500X0.075000X-0.662500X-0.075000X0.662500X-0.075000X0*%
%ADD30RoundRect,0.075000X0.075000X0.662500X-0.075000X0.662500X-0.075000X-0.662500X0.075000X-0.662500X0*%
%ADD31RoundRect,0.250000X-0.325000X-0.450000X0.325000X-0.450000X0.325000X0.450000X-0.325000X0.450000X0*%
%ADD32RoundRect,0.250000X1.450000X-0.400000X1.450000X0.400000X-1.450000X0.400000X-1.450000X-0.400000X0*%
%ADD33R,1.560000X0.650000*%
%ADD34R,0.600000X1.550000*%
%ADD35R,1.200000X1.800000*%
%ADD36RoundRect,0.250000X0.315000X0.315000X-0.315000X0.315000X-0.315000X-0.315000X0.315000X-0.315000X0*%
%ADD37RoundRect,0.062500X0.375000X0.062500X-0.375000X0.062500X-0.375000X-0.062500X0.375000X-0.062500X0*%
%ADD38RoundRect,0.062500X0.062500X0.375000X-0.062500X0.375000X-0.062500X-0.375000X0.062500X-0.375000X0*%
%ADD39R,0.900000X0.800000*%
%ADD40R,0.650000X1.060000*%
G04 APERTURE END LIST*
D10*
X374855000Y-168121250D03*
X376905000Y-168121250D03*
D11*
X124578750Y-100113750D03*
X124578750Y-103413750D03*
D12*
X78625000Y-127900000D03*
X76575000Y-127900000D03*
D13*
X244312500Y-51555000D03*
X247287500Y-51555000D03*
D14*
X148153125Y-109311250D03*
X148153125Y-111361250D03*
D13*
X239725000Y-41225000D03*
X242700000Y-41225000D03*
D11*
X238878750Y-100113750D03*
X238878750Y-103413750D03*
D15*
X258250000Y-25800000D03*
X258250000Y-27850000D03*
D16*
X242325000Y-51375000D03*
X240275000Y-51375000D03*
D17*
X255450000Y-52600000D03*
X252150000Y-52600000D03*
D16*
X221955000Y-78800000D03*
X219905000Y-78800000D03*
D11*
X97908750Y-137261250D03*
X97908750Y-140561250D03*
D14*
X262453125Y-109311250D03*
X262453125Y-111361250D03*
D11*
X286503750Y-52488750D03*
X286503750Y-55788750D03*
D14*
X157440000Y-90102500D03*
X157440000Y-92152500D03*
X67220000Y-109470000D03*
X67220000Y-111520000D03*
X252690000Y-90737500D03*
X252690000Y-92787500D03*
D18*
X290975000Y-46500000D03*
X290975000Y-44450000D03*
D14*
X190777500Y-128361250D03*
X190777500Y-130411250D03*
D11*
X224591250Y-52488750D03*
X224591250Y-55788750D03*
D18*
X252925000Y-46450000D03*
X252925000Y-44400000D03*
D14*
X276740625Y-147411250D03*
X276740625Y-149461250D03*
D19*
X240650000Y-48925000D03*
X240650000Y-46625000D03*
D20*
X246950000Y-46625000D03*
D19*
X240650000Y-44325000D03*
D11*
X276978750Y-100113750D03*
X276978750Y-103413750D03*
D14*
X414853125Y-61686250D03*
X414853125Y-63736250D03*
D11*
X348416250Y-81063750D03*
X348416250Y-84363750D03*
D14*
X171727500Y-128361250D03*
X171727500Y-130411250D03*
X209827500Y-128361250D03*
X209827500Y-130411250D03*
D11*
X57903750Y-52965000D03*
X57903750Y-56265000D03*
D21*
X216800000Y-75585000D03*
D22*
X216800000Y-76855000D03*
X216800000Y-78125000D03*
X216800000Y-79395000D03*
X211400000Y-79395000D03*
X211400000Y-78125000D03*
X211400000Y-76855000D03*
X211400000Y-75585000D03*
D15*
X87700000Y-45980000D03*
X87700000Y-48030000D03*
D11*
X348416250Y-33438750D03*
X348416250Y-36738750D03*
X76953750Y-81318750D03*
X76953750Y-84618750D03*
D14*
X243403125Y-109311250D03*
X243403125Y-111361250D03*
D11*
X115053750Y-81063750D03*
X115053750Y-84363750D03*
D14*
X152677500Y-128361250D03*
X152677500Y-130411250D03*
X352940625Y-42636250D03*
X352940625Y-44686250D03*
D23*
X238150000Y-43275000D03*
X238150000Y-46075000D03*
D11*
X205541250Y-52488750D03*
X205541250Y-55788750D03*
D13*
X82262500Y-41325000D03*
X85237500Y-41325000D03*
D11*
X243641250Y-119163750D03*
X243641250Y-122463750D03*
D14*
X433903125Y-42398125D03*
X433903125Y-44448125D03*
X219352500Y-147411250D03*
X219352500Y-149461250D03*
D18*
X271900000Y-46375000D03*
X271900000Y-44325000D03*
D11*
X329366250Y-33438750D03*
X329366250Y-36738750D03*
X172203750Y-81063750D03*
X172203750Y-84363750D03*
D14*
X302934375Y-147411250D03*
X302934375Y-149461250D03*
X81240000Y-90075000D03*
X81240000Y-92125000D03*
D11*
X219828750Y-100113750D03*
X219828750Y-103413750D03*
D14*
X228877500Y-128361250D03*
X228877500Y-130411250D03*
D15*
X309950000Y-90165000D03*
X309950000Y-92215000D03*
D16*
X255725000Y-33250000D03*
X253675000Y-33250000D03*
D14*
X110053125Y-109311250D03*
X110053125Y-111361250D03*
X333900000Y-171325000D03*
X333900000Y-173375000D03*
X138390000Y-89857500D03*
X138390000Y-91907500D03*
D11*
X57903750Y-81540000D03*
X57903750Y-84840000D03*
D14*
X64809375Y-147173125D03*
X64809375Y-149223125D03*
X414850000Y-166325000D03*
X414850000Y-168375000D03*
D11*
X167441250Y-119163750D03*
X167441250Y-122463750D03*
D17*
X304650000Y-138425000D03*
X301350000Y-138425000D03*
D18*
X110053125Y-46353125D03*
X110053125Y-44303125D03*
D11*
X410328750Y-100113750D03*
X410328750Y-103413750D03*
D10*
X320800625Y-116924375D03*
X322850625Y-116924375D03*
D16*
X296625000Y-68500000D03*
X294575000Y-68500000D03*
D18*
X210060000Y-46630000D03*
X210060000Y-44580000D03*
D14*
X352940625Y-109238750D03*
X352940625Y-111288750D03*
D11*
X61975000Y-31275000D03*
X61975000Y-34575000D03*
D14*
X281503125Y-109383750D03*
X281503125Y-111433750D03*
X129103125Y-61686250D03*
X129103125Y-63736250D03*
X353020000Y-171075000D03*
X353020000Y-173125000D03*
D11*
X367466250Y-33438750D03*
X367466250Y-36738750D03*
D14*
X95819600Y-128139000D03*
X95819600Y-130189000D03*
D11*
X143628750Y-33915000D03*
X143628750Y-37215000D03*
D14*
X352950000Y-90250000D03*
X352950000Y-92300000D03*
X395803125Y-61520625D03*
X395803125Y-63570625D03*
X91003125Y-61613750D03*
X91003125Y-63663750D03*
X333890625Y-42636250D03*
X333890625Y-44686250D03*
D11*
X427930000Y-147890000D03*
X427930000Y-151190000D03*
D14*
X266977500Y-128361250D03*
X266977500Y-130411250D03*
X86002500Y-147252500D03*
X86002500Y-149302500D03*
X414900000Y-147375000D03*
X414900000Y-149425000D03*
D11*
X205541250Y-33438750D03*
X205541250Y-36738750D03*
D14*
X352940625Y-61686250D03*
X352940625Y-63736250D03*
D11*
X317460000Y-101066250D03*
X317460000Y-104366250D03*
D14*
X124340625Y-147411250D03*
X124340625Y-149461250D03*
D11*
X124578750Y-52488750D03*
X124578750Y-55788750D03*
D15*
X79660000Y-40640000D03*
X79660000Y-42690000D03*
D11*
X84097500Y-157263750D03*
X84097500Y-160563750D03*
D14*
X229115625Y-61613750D03*
X229115625Y-63663750D03*
X333900000Y-152175000D03*
X333900000Y-154225000D03*
D24*
X248487000Y-27575000D03*
X249287000Y-27575000D03*
D25*
X250487000Y-27575000D03*
X251483000Y-27575000D03*
X251987000Y-27575000D03*
X252987000Y-27575000D03*
D24*
X254987000Y-27575000D03*
X254187000Y-27575000D03*
D25*
X253487000Y-27575000D03*
X252487000Y-27575000D03*
X250987000Y-27575000D03*
X249987000Y-27575000D03*
D14*
X62428125Y-61686250D03*
X62428125Y-63736250D03*
X186253125Y-109311250D03*
X186253125Y-111361250D03*
D17*
X81461250Y-117003750D03*
X78161250Y-117003750D03*
D14*
X214590000Y-90261250D03*
X214590000Y-92311250D03*
D11*
X348416250Y-162026250D03*
X348416250Y-165326250D03*
X124578750Y-33915000D03*
X124578750Y-37215000D03*
D26*
X242175000Y-39225000D03*
X240425000Y-39225000D03*
D14*
X271978125Y-61686250D03*
X271978125Y-63736250D03*
D10*
X427718750Y-123036250D03*
X429768750Y-123036250D03*
D11*
X91241250Y-119163750D03*
X91241250Y-122463750D03*
D10*
X322467500Y-111130000D03*
X324517500Y-111130000D03*
D14*
X433850000Y-90250000D03*
X433850000Y-92300000D03*
D11*
X339900000Y-107550000D03*
X339900000Y-110850000D03*
X119816250Y-138435000D03*
X119816250Y-141735000D03*
D10*
X352425000Y-132875000D03*
X354475000Y-132875000D03*
D14*
X129103125Y-109311250D03*
X129103125Y-111361250D03*
D11*
X296028750Y-100113750D03*
X296028750Y-103413750D03*
D14*
X64809375Y-166461250D03*
X64809375Y-168511250D03*
D11*
X86478750Y-52965000D03*
X86478750Y-56265000D03*
D10*
X308275000Y-62275000D03*
X310325000Y-62275000D03*
D14*
X395803125Y-109311250D03*
X395803125Y-111361250D03*
X317140000Y-128545000D03*
X317140000Y-130595000D03*
D11*
X329366250Y-142976250D03*
X329366250Y-146276250D03*
D27*
X382000000Y-69312500D03*
X382000000Y-72287500D03*
D11*
X348416250Y-119163750D03*
X348416250Y-122463750D03*
X429378750Y-52488750D03*
X429378750Y-55788750D03*
D14*
X171965625Y-61851875D03*
X171965625Y-63901875D03*
X162440625Y-147411250D03*
X162440625Y-149461250D03*
X376753125Y-90261250D03*
X376753125Y-92311250D03*
X247927500Y-128361250D03*
X247927500Y-130411250D03*
X200540625Y-147411250D03*
X200540625Y-149461250D03*
D11*
X306020000Y-84180000D03*
X306020000Y-87480000D03*
X129341250Y-119163750D03*
X129341250Y-122463750D03*
D28*
X310030000Y-75560000D03*
X310030000Y-73510000D03*
D14*
X114717200Y-128361250D03*
X114717200Y-130411250D03*
X395803125Y-128361250D03*
X395803125Y-130411250D03*
X205303125Y-109311250D03*
X205303125Y-111361250D03*
D18*
X191015625Y-46353125D03*
X191015625Y-44303125D03*
D14*
X333890625Y-61686250D03*
X333890625Y-63736250D03*
D11*
X329366250Y-162026250D03*
X329366250Y-165326250D03*
X372228750Y-100113750D03*
X372228750Y-103413750D03*
X338800000Y-81550000D03*
X338800000Y-84850000D03*
D14*
X224353125Y-109311250D03*
X224353125Y-111361250D03*
D11*
X176966250Y-138213750D03*
X176966250Y-141513750D03*
X248403750Y-81063750D03*
X248403750Y-84363750D03*
X138866250Y-138213750D03*
X138866250Y-141513750D03*
D13*
X289642500Y-68085000D03*
X292617500Y-68085000D03*
D14*
X286027500Y-128361250D03*
X286027500Y-130411250D03*
X271978125Y-166461250D03*
X271978125Y-168511250D03*
D10*
X384062500Y-168280000D03*
X386112500Y-168280000D03*
D14*
X133627500Y-128361250D03*
X133627500Y-130411250D03*
X105052500Y-147649375D03*
X105052500Y-149699375D03*
D11*
X372228750Y-138213750D03*
X372228750Y-141513750D03*
D14*
X167203125Y-109238750D03*
X167203125Y-111288750D03*
D11*
X305553750Y-33438750D03*
X305553750Y-36738750D03*
D14*
X395803125Y-42636250D03*
X395803125Y-44686250D03*
D11*
X391278750Y-52488750D03*
X391278750Y-55788750D03*
X281741250Y-119163750D03*
X281741250Y-122463750D03*
X286410000Y-83485000D03*
X286410000Y-86785000D03*
D14*
X181490625Y-147411250D03*
X181490625Y-149461250D03*
X432450000Y-100535000D03*
X432450000Y-102585000D03*
D11*
X210250000Y-81775000D03*
X210250000Y-85075000D03*
X348416250Y-52488750D03*
X348416250Y-55788750D03*
D14*
X314790000Y-170990000D03*
X314790000Y-173040000D03*
D11*
X267453750Y-157263750D03*
X267453750Y-160563750D03*
X224591250Y-33693750D03*
X224591250Y-36993750D03*
D14*
X195540000Y-90261250D03*
X195540000Y-92311250D03*
X74096250Y-147173125D03*
X74096250Y-149223125D03*
D11*
X257928750Y-100113750D03*
X257928750Y-103413750D03*
D14*
X143390625Y-147411250D03*
X143390625Y-149461250D03*
D11*
X186491250Y-119163750D03*
X186491250Y-122463750D03*
D14*
X371990625Y-61686250D03*
X371990625Y-63736250D03*
X371990625Y-42636250D03*
X371990625Y-44686250D03*
D11*
X186491250Y-52488750D03*
X186491250Y-55788750D03*
X391278750Y-119163750D03*
X391278750Y-122463750D03*
X215066250Y-138213750D03*
X215066250Y-141513750D03*
D17*
X235150000Y-30825000D03*
X231850000Y-30825000D03*
D14*
X395800000Y-90300000D03*
X395800000Y-92350000D03*
X291000000Y-61175000D03*
X291000000Y-63225000D03*
X238640625Y-147411250D03*
X238640625Y-149461250D03*
D13*
X242612500Y-53925000D03*
X245587500Y-53925000D03*
D11*
X348416250Y-100590000D03*
X348416250Y-103890000D03*
D15*
X319325000Y-90150000D03*
X319325000Y-92200000D03*
D14*
X175200000Y-166400000D03*
X175200000Y-168450000D03*
D11*
X391200000Y-81540000D03*
X391200000Y-84840000D03*
D14*
X414875000Y-90300000D03*
X414875000Y-92350000D03*
D18*
X171965625Y-46591250D03*
X171965625Y-44541250D03*
D11*
X429378750Y-33438750D03*
X429378750Y-36738750D03*
X196016250Y-138213750D03*
X196016250Y-141513750D03*
X283000000Y-157263750D03*
X283000000Y-160563750D03*
X410328750Y-33438750D03*
X410328750Y-36738750D03*
D14*
X209827500Y-61686250D03*
X209827500Y-63736250D03*
D11*
X410400000Y-157350000D03*
X410400000Y-160650000D03*
D17*
X389050000Y-155100000D03*
X385750000Y-155100000D03*
D11*
X167441250Y-33438750D03*
X167441250Y-36738750D03*
D13*
X242612500Y-56325000D03*
X245587500Y-56325000D03*
D29*
X306122500Y-70120000D03*
X306122500Y-70620000D03*
X306122500Y-71120000D03*
X306122500Y-71620000D03*
X306122500Y-72120000D03*
X306122500Y-72620000D03*
X306122500Y-73120000D03*
X306122500Y-73620000D03*
X306122500Y-74120000D03*
X306122500Y-74620000D03*
X306122500Y-75120000D03*
X306122500Y-75620000D03*
D30*
X304710000Y-77032500D03*
X304210000Y-77032500D03*
X303710000Y-77032500D03*
X303210000Y-77032500D03*
X302710000Y-77032500D03*
X302210000Y-77032500D03*
X301710000Y-77032500D03*
X301210000Y-77032500D03*
X300710000Y-77032500D03*
X300210000Y-77032500D03*
X299710000Y-77032500D03*
X299210000Y-77032500D03*
D29*
X297797500Y-75620000D03*
X297797500Y-75120000D03*
X297797500Y-74620000D03*
X297797500Y-74120000D03*
X297797500Y-73620000D03*
X297797500Y-73120000D03*
X297797500Y-72620000D03*
X297797500Y-72120000D03*
X297797500Y-71620000D03*
X297797500Y-71120000D03*
X297797500Y-70620000D03*
X297797500Y-70120000D03*
D30*
X299210000Y-68707500D03*
X299710000Y-68707500D03*
X300210000Y-68707500D03*
X300710000Y-68707500D03*
X301210000Y-68707500D03*
X301710000Y-68707500D03*
X302210000Y-68707500D03*
X302710000Y-68707500D03*
X303210000Y-68707500D03*
X303710000Y-68707500D03*
X304210000Y-68707500D03*
X304710000Y-68707500D03*
D15*
X144820000Y-166390000D03*
X144820000Y-168440000D03*
D11*
X153153750Y-81063750D03*
X153153750Y-84363750D03*
X200778750Y-100113750D03*
X200778750Y-103413750D03*
X234116250Y-138213750D03*
X234116250Y-141513750D03*
X372228750Y-81063750D03*
X372228750Y-84363750D03*
X391278750Y-138468750D03*
X391278750Y-141768750D03*
D18*
X128865000Y-46425625D03*
X128865000Y-44375625D03*
D11*
X186491250Y-33438750D03*
X186491250Y-36738750D03*
X267453750Y-81063750D03*
X267453750Y-84363750D03*
X110291250Y-119163750D03*
X110291250Y-122463750D03*
D14*
X376753125Y-128361250D03*
X376753125Y-130411250D03*
D11*
X100766250Y-138213750D03*
X100766250Y-141513750D03*
D15*
X384300000Y-69400000D03*
X384300000Y-71450000D03*
D11*
X372228750Y-119163750D03*
X372228750Y-122463750D03*
X429378750Y-81540000D03*
X429378750Y-84840000D03*
X229353750Y-81063750D03*
X229353750Y-84363750D03*
X329366250Y-52488750D03*
X329366250Y-55788750D03*
X391278750Y-33438750D03*
X391278750Y-36738750D03*
D14*
X300553125Y-109311250D03*
X300553125Y-111361250D03*
X88621875Y-166461250D03*
X88621875Y-168511250D03*
D12*
X432595000Y-111820000D03*
X430545000Y-111820000D03*
D11*
X157916250Y-138213750D03*
X157916250Y-141513750D03*
D17*
X81450000Y-154900000D03*
X78150000Y-154900000D03*
D31*
X219890000Y-76760000D03*
X221940000Y-76760000D03*
D17*
X70031250Y-99382500D03*
X66731250Y-99382500D03*
X83650000Y-135900000D03*
X80350000Y-135900000D03*
D15*
X244800000Y-38500000D03*
X244800000Y-40550000D03*
D10*
X393905000Y-168280000D03*
X395955000Y-168280000D03*
D14*
X110053125Y-61686250D03*
X110053125Y-63736250D03*
D11*
X167441250Y-52488750D03*
X167441250Y-55788750D03*
D31*
X295885000Y-78875000D03*
X297935000Y-78875000D03*
D14*
X414853125Y-109383750D03*
X414853125Y-111433750D03*
D11*
X367466250Y-52488750D03*
X367466250Y-55788750D03*
D32*
X239400000Y-35050000D03*
X239400000Y-30600000D03*
D14*
X305240000Y-128525000D03*
X305240000Y-130575000D03*
X119750000Y-90025000D03*
X119750000Y-92075000D03*
D28*
X379590000Y-70505000D03*
X379590000Y-68455000D03*
D14*
X414853125Y-128361250D03*
X414853125Y-130411250D03*
D16*
X308225000Y-67625000D03*
X306175000Y-67625000D03*
D33*
X85450000Y-46075000D03*
X85450000Y-47025000D03*
X85450000Y-47975000D03*
X82750000Y-47975000D03*
X82750000Y-47025000D03*
X82750000Y-46075000D03*
D13*
X82237500Y-43725000D03*
X85212500Y-43725000D03*
D11*
X264200000Y-33300000D03*
X264200000Y-36600000D03*
X205541250Y-119163750D03*
X205541250Y-122463750D03*
X386800000Y-69150000D03*
X386800000Y-72450000D03*
D14*
X257690625Y-147411250D03*
X257690625Y-149461250D03*
D11*
X170720000Y-157211000D03*
X170720000Y-160511000D03*
D28*
X221720000Y-50695000D03*
X221720000Y-48645000D03*
D11*
X272216250Y-138213750D03*
X272216250Y-141513750D03*
D14*
X191015625Y-61924375D03*
X191015625Y-63974375D03*
X376753125Y-109476875D03*
X376753125Y-111526875D03*
D11*
X96003750Y-81063750D03*
X96003750Y-84363750D03*
D14*
X252900000Y-61795000D03*
X252900000Y-63845000D03*
D34*
X80900000Y-66500000D03*
X79900000Y-66500000D03*
X78900000Y-66500000D03*
X77900000Y-66500000D03*
D35*
X82500000Y-70375000D03*
X76300000Y-70375000D03*
D11*
X191253750Y-81063750D03*
X191253750Y-84363750D03*
X253166250Y-138213750D03*
X253166250Y-141513750D03*
X407600000Y-157350000D03*
X407600000Y-160650000D03*
X410328750Y-81540000D03*
X410328750Y-84840000D03*
X107910000Y-157263750D03*
X107910000Y-160563750D03*
X201100000Y-160575000D03*
X201100000Y-163875000D03*
D18*
X310000000Y-46200000D03*
X310000000Y-44150000D03*
D14*
X233610000Y-90415000D03*
X233610000Y-92465000D03*
X376800000Y-147375000D03*
X376800000Y-149425000D03*
D11*
X427000000Y-116550000D03*
X427000000Y-119850000D03*
X86478750Y-33438750D03*
X86478750Y-36738750D03*
D14*
X176648750Y-90261250D03*
X176648750Y-92311250D03*
D11*
X162678750Y-100113750D03*
X162678750Y-103413750D03*
X267453750Y-33438750D03*
X267453750Y-36738750D03*
X410328750Y-52488750D03*
X410328750Y-55788750D03*
D14*
X112434375Y-166461250D03*
X112434375Y-168511250D03*
D16*
X62100000Y-36325000D03*
X60050000Y-36325000D03*
D11*
X224591250Y-119163750D03*
X224591250Y-122463750D03*
D36*
X304060000Y-74970000D03*
X304060000Y-73570000D03*
X304060000Y-72170000D03*
X304060000Y-70770000D03*
X302660000Y-74970000D03*
X302660000Y-73570000D03*
X302660000Y-72170000D03*
X302660000Y-70770000D03*
X301260000Y-74970000D03*
X301260000Y-73570000D03*
X301260000Y-72170000D03*
X301260000Y-70770000D03*
X299860000Y-74970000D03*
X299860000Y-73570000D03*
X299860000Y-72170000D03*
X299860000Y-70770000D03*
D37*
X305397500Y-70120000D03*
X305397500Y-70620000D03*
X305397500Y-71120000D03*
X305397500Y-71620000D03*
X305397500Y-72120000D03*
X305397500Y-72620000D03*
X305397500Y-73120000D03*
X305397500Y-73620000D03*
X305397500Y-74120000D03*
X305397500Y-74620000D03*
X305397500Y-75120000D03*
X305397500Y-75620000D03*
D38*
X304710000Y-76307500D03*
X304210000Y-76307500D03*
X303710000Y-76307500D03*
X303210000Y-76307500D03*
X302710000Y-76307500D03*
X302210000Y-76307500D03*
X301710000Y-76307500D03*
X301210000Y-76307500D03*
X300710000Y-76307500D03*
X300210000Y-76307500D03*
X299710000Y-76307500D03*
X299210000Y-76307500D03*
D37*
X298522500Y-75620000D03*
X298522500Y-75120000D03*
X298522500Y-74620000D03*
X298522500Y-74120000D03*
X298522500Y-73620000D03*
X298522500Y-73120000D03*
X298522500Y-72620000D03*
X298522500Y-72120000D03*
X298522500Y-71620000D03*
X298522500Y-71120000D03*
X298522500Y-70620000D03*
X298522500Y-70120000D03*
D38*
X299210000Y-69432500D03*
X299710000Y-69432500D03*
X300210000Y-69432500D03*
X300710000Y-69432500D03*
X301210000Y-69432500D03*
X301710000Y-69432500D03*
X302210000Y-69432500D03*
X302710000Y-69432500D03*
X303210000Y-69432500D03*
X303710000Y-69432500D03*
X304210000Y-69432500D03*
X304710000Y-69432500D03*
D11*
X145373000Y-154117000D03*
X145373000Y-157417000D03*
D14*
X395850000Y-147375000D03*
X395850000Y-149425000D03*
D11*
X300800000Y-119250000D03*
X300800000Y-122550000D03*
D14*
X252928125Y-166461250D03*
X252928125Y-168511250D03*
D11*
X105528750Y-100113750D03*
X105528750Y-103413750D03*
D14*
X91003125Y-109311250D03*
X91003125Y-111361250D03*
D31*
X324175000Y-51825000D03*
X326225000Y-51825000D03*
D14*
X62190000Y-90261250D03*
X62190000Y-92311250D03*
D11*
X181728750Y-100113750D03*
X181728750Y-103413750D03*
D14*
X291050000Y-90595000D03*
X291050000Y-92645000D03*
D28*
X227040000Y-49515000D03*
X227040000Y-47465000D03*
D14*
X286370400Y-166433200D03*
X286370400Y-168483200D03*
D11*
X267453750Y-52488750D03*
X267453750Y-55788750D03*
X310316250Y-162026250D03*
X310316250Y-165326250D03*
X134103750Y-81063750D03*
X134103750Y-84363750D03*
X86478750Y-100090000D03*
X86478750Y-103390000D03*
D15*
X216710000Y-166240000D03*
X216710000Y-168290000D03*
D14*
X272010000Y-90305000D03*
X272010000Y-92355000D03*
X433903125Y-61686250D03*
X433903125Y-63736250D03*
D39*
X399175000Y-74675000D03*
X399175000Y-72775000D03*
X401175000Y-73725000D03*
D14*
X100290000Y-90261250D03*
X100290000Y-92311250D03*
D11*
X148391250Y-119163750D03*
X148391250Y-122463750D03*
X305553750Y-52488750D03*
X305553750Y-55788750D03*
X105528750Y-52488750D03*
X105528750Y-55788750D03*
X143628750Y-100113750D03*
X143628750Y-103413750D03*
X262691250Y-119163750D03*
X262691250Y-122463750D03*
D15*
X244200000Y-28825000D03*
X244200000Y-30875000D03*
D11*
X410328750Y-138690000D03*
X410328750Y-141990000D03*
D18*
X148153125Y-46353125D03*
X148153125Y-44303125D03*
D40*
X248920000Y-40525000D03*
X247970000Y-40525000D03*
X247020000Y-40525000D03*
X247020000Y-38325000D03*
X247970000Y-38325000D03*
X248920000Y-38325000D03*
D18*
X91003125Y-46353125D03*
X91003125Y-44303125D03*
D14*
X414853125Y-42398125D03*
X414853125Y-44448125D03*
X148153125Y-61686250D03*
X148153125Y-63736250D03*
D15*
X404400000Y-71500000D03*
X404400000Y-73550000D03*
D31*
X327200000Y-92025000D03*
X329250000Y-92025000D03*
D11*
X248403750Y-157485000D03*
X248403750Y-160785000D03*
D10*
X427925000Y-153050000D03*
X429975000Y-153050000D03*
D11*
X410328750Y-119163750D03*
X410328750Y-122463750D03*
X427000000Y-111150000D03*
X427000000Y-114450000D03*
X391278750Y-100113750D03*
X391278750Y-103413750D03*
X286503750Y-33438750D03*
X286503750Y-36738750D03*
X143628750Y-52488750D03*
X143628750Y-55788750D03*
D10*
X227275000Y-44225000D03*
X229325000Y-44225000D03*
D11*
X105528750Y-33693750D03*
X105528750Y-36993750D03*
M02*
