%TF.GenerationSoftware,KiCad,Pcbnew,(6.0.5)*%
%TF.CreationDate,2022-05-15T23:02:55-04:00*%
%TF.ProjectId,FR4-plate-grounded,4652342d-706c-4617-9465-2d67726f756e,rev?*%
%TF.SameCoordinates,Original*%
%TF.FileFunction,Legend,Top*%
%TF.FilePolarity,Positive*%
%FSLAX46Y46*%
G04 Gerber Fmt 4.6, Leading zero omitted, Abs format (unit mm)*
G04 Created by KiCad (PCBNEW (6.0.5)) date 2022-05-15 23:02:55*
%MOMM*%
%LPD*%
G01*
G04 APERTURE LIST*
%ADD10C,0.150000*%
%ADD11C,0.200000*%
%ADD12C,0.300000*%
G04 APERTURE END LIST*
D10*
X14000000Y-151000000D02*
X14500000Y-150500000D01*
X202500000Y-151000000D02*
X203000000Y-150500000D01*
X133500000Y-150500000D02*
X133000000Y-151000000D01*
X236000000Y-150500000D02*
X236000000Y-153000000D01*
X203000000Y-157000000D02*
X201500000Y-157000000D01*
X14500000Y-157500000D02*
X14500000Y-150500000D01*
X207500000Y-150500000D02*
X207500000Y-159000000D01*
X126500000Y-150500000D02*
X126500000Y-156500000D01*
X17000000Y-150500000D02*
X16500000Y-151000000D01*
X129000000Y-150500000D02*
X128500000Y-151000000D01*
X14500000Y-150500000D02*
X14000000Y-151000000D01*
X45500000Y-151000000D02*
X46000000Y-151500000D01*
X38500000Y-151000000D02*
X39000000Y-151500000D01*
X207000000Y-151000000D02*
X207500000Y-150500000D01*
X241000000Y-150500000D02*
X241500000Y-151000000D01*
X241000000Y-150500000D02*
X241000000Y-156000000D01*
X45500000Y-151000000D02*
X45000000Y-151500000D01*
X207500000Y-150500000D02*
X208000000Y-151000000D01*
X236000000Y-150500000D02*
X236500000Y-151000000D01*
X241000000Y-156000000D02*
X242000000Y-156000000D01*
X236000000Y-153000000D02*
X239000000Y-153000000D01*
X126500000Y-150500000D02*
X126000000Y-151000000D01*
X129000000Y-150500000D02*
X129000000Y-158500000D01*
X126500000Y-156500000D02*
X122500000Y-156500000D01*
X239000000Y-153000000D02*
X239000000Y-158000000D01*
X128500000Y-151000000D02*
X129000000Y-150500000D01*
X133500000Y-150500000D02*
X133500000Y-158500000D01*
X17000000Y-159500000D02*
X17000000Y-150500000D01*
X126000000Y-151000000D02*
X126500000Y-150500000D01*
X207500000Y-150500000D02*
X207000000Y-151000000D01*
X16500000Y-151000000D02*
X17000000Y-150500000D01*
X45500000Y-151000000D02*
X45500000Y-159500000D01*
X240500000Y-151000000D02*
X241000000Y-150500000D01*
X133500000Y-158500000D02*
X135000000Y-158500000D01*
X239000000Y-158000000D02*
X244000000Y-158000000D01*
X129000000Y-158500000D02*
X128500000Y-158500000D01*
X207500000Y-159000000D02*
X206500000Y-159000000D01*
X14500000Y-151000000D02*
X14500000Y-150500000D01*
X241000000Y-150500000D02*
X240500000Y-151000000D01*
X17000000Y-150500000D02*
X17500000Y-151000000D01*
X236000000Y-150500000D02*
X235500000Y-151000000D01*
X236500000Y-151000000D02*
X236000000Y-150500000D01*
X38500000Y-157000000D02*
X38500000Y-151000000D01*
X17000000Y-159500000D02*
X16500000Y-159500000D01*
X38500000Y-151000000D02*
X38000000Y-151500000D01*
X14500000Y-150500000D02*
X15000000Y-151000000D01*
X129000000Y-150500000D02*
X129500000Y-151000000D01*
X38500000Y-157000000D02*
X38000000Y-157000000D01*
X203000000Y-150500000D02*
X203000000Y-157000000D01*
X203000000Y-150500000D02*
X202500000Y-151000000D01*
X203000000Y-150500000D02*
X203500000Y-151000000D01*
X38000000Y-151500000D02*
X38500000Y-151000000D01*
X14500000Y-157500000D02*
X14000000Y-157500000D01*
X133500000Y-150500000D02*
X134000000Y-151000000D01*
X45500000Y-159500000D02*
X44500000Y-159500000D01*
X127000000Y-151000000D02*
X126500000Y-150500000D01*
D11*
X5285714Y-158042857D02*
X4600000Y-158042857D01*
X4942857Y-158042857D02*
X4942857Y-156842857D01*
X4828571Y-157014285D01*
X4714285Y-157128571D01*
X4600000Y-157185714D01*
X5800000Y-157928571D02*
X5857142Y-157985714D01*
X5800000Y-158042857D01*
X5742857Y-157985714D01*
X5800000Y-157928571D01*
X5800000Y-158042857D01*
X6314285Y-156957142D02*
X6371428Y-156900000D01*
X6485714Y-156842857D01*
X6771428Y-156842857D01*
X6885714Y-156900000D01*
X6942857Y-156957142D01*
X7000000Y-157071428D01*
X7000000Y-157185714D01*
X6942857Y-157357142D01*
X6257142Y-158042857D01*
X7000000Y-158042857D01*
X8085714Y-156842857D02*
X7514285Y-156842857D01*
X7457142Y-157414285D01*
X7514285Y-157357142D01*
X7628571Y-157300000D01*
X7914285Y-157300000D01*
X8028571Y-157357142D01*
X8085714Y-157414285D01*
X8142857Y-157528571D01*
X8142857Y-157814285D01*
X8085714Y-157928571D01*
X8028571Y-157985714D01*
X7914285Y-158042857D01*
X7628571Y-158042857D01*
X7514285Y-157985714D01*
X7457142Y-157928571D01*
X9171428Y-157242857D02*
X9171428Y-158042857D01*
X8657142Y-157242857D02*
X8657142Y-157871428D01*
X8714285Y-157985714D01*
X8828571Y-158042857D01*
X9000000Y-158042857D01*
X9114285Y-157985714D01*
X9171428Y-157928571D01*
X11342857Y-157928571D02*
X11285714Y-157985714D01*
X11114285Y-158042857D01*
X11000000Y-158042857D01*
X10828571Y-157985714D01*
X10714285Y-157871428D01*
X10657142Y-157757142D01*
X10600000Y-157528571D01*
X10600000Y-157357142D01*
X10657142Y-157128571D01*
X10714285Y-157014285D01*
X10828571Y-156900000D01*
X11000000Y-156842857D01*
X11114285Y-156842857D01*
X11285714Y-156900000D01*
X11342857Y-156957142D01*
X11685714Y-157242857D02*
X12142857Y-157242857D01*
X11857142Y-156842857D02*
X11857142Y-157871428D01*
X11914285Y-157985714D01*
X12028571Y-158042857D01*
X12142857Y-158042857D01*
X12542857Y-158042857D02*
X12542857Y-157242857D01*
X12542857Y-157471428D02*
X12600000Y-157357142D01*
X12657142Y-157300000D01*
X12771428Y-157242857D01*
X12885714Y-157242857D01*
X13457142Y-158042857D02*
X13342857Y-157985714D01*
X13285714Y-157871428D01*
X13285714Y-156842857D01*
X136257142Y-157842857D02*
X136028571Y-157842857D01*
X135914285Y-157900000D01*
X135857142Y-157957142D01*
X135742857Y-158128571D01*
X135685714Y-158357142D01*
X135685714Y-158814285D01*
X135742857Y-158928571D01*
X135800000Y-158985714D01*
X135914285Y-159042857D01*
X136142857Y-159042857D01*
X136257142Y-158985714D01*
X136314285Y-158928571D01*
X136371428Y-158814285D01*
X136371428Y-158528571D01*
X136314285Y-158414285D01*
X136257142Y-158357142D01*
X136142857Y-158300000D01*
X135914285Y-158300000D01*
X135800000Y-158357142D01*
X135742857Y-158414285D01*
X135685714Y-158528571D01*
X136885714Y-158928571D02*
X136942857Y-158985714D01*
X136885714Y-159042857D01*
X136828571Y-158985714D01*
X136885714Y-158928571D01*
X136885714Y-159042857D01*
X137400000Y-157957142D02*
X137457142Y-157900000D01*
X137571428Y-157842857D01*
X137857142Y-157842857D01*
X137971428Y-157900000D01*
X138028571Y-157957142D01*
X138085714Y-158071428D01*
X138085714Y-158185714D01*
X138028571Y-158357142D01*
X137342857Y-159042857D01*
X138085714Y-159042857D01*
X139171428Y-157842857D02*
X138600000Y-157842857D01*
X138542857Y-158414285D01*
X138600000Y-158357142D01*
X138714285Y-158300000D01*
X139000000Y-158300000D01*
X139114285Y-158357142D01*
X139171428Y-158414285D01*
X139228571Y-158528571D01*
X139228571Y-158814285D01*
X139171428Y-158928571D01*
X139114285Y-158985714D01*
X139000000Y-159042857D01*
X138714285Y-159042857D01*
X138600000Y-158985714D01*
X138542857Y-158928571D01*
X140257142Y-158242857D02*
X140257142Y-159042857D01*
X139742857Y-158242857D02*
X139742857Y-158871428D01*
X139800000Y-158985714D01*
X139914285Y-159042857D01*
X140085714Y-159042857D01*
X140200000Y-158985714D01*
X140257142Y-158928571D01*
X120057142Y-155842857D02*
X120857142Y-155842857D01*
X120342857Y-157042857D01*
X121828571Y-156242857D02*
X121828571Y-157042857D01*
X121314285Y-156242857D02*
X121314285Y-156871428D01*
X121371428Y-156985714D01*
X121485714Y-157042857D01*
X121657142Y-157042857D01*
X121771428Y-156985714D01*
X121828571Y-156928571D01*
D12*
X46249999Y-154471071D02*
X47107142Y-154471071D01*
X46678571Y-155971071D02*
X46678571Y-154471071D01*
X48178571Y-155899642D02*
X48035714Y-155971071D01*
X47749999Y-155971071D01*
X47607142Y-155899642D01*
X47535714Y-155756785D01*
X47535714Y-155185357D01*
X47607142Y-155042500D01*
X47749999Y-154971071D01*
X48035714Y-154971071D01*
X48178571Y-155042500D01*
X48249999Y-155185357D01*
X48249999Y-155328214D01*
X47535714Y-155471071D01*
X48821428Y-155899642D02*
X48964285Y-155971071D01*
X49249999Y-155971071D01*
X49392857Y-155899642D01*
X49464285Y-155756785D01*
X49464285Y-155685357D01*
X49392857Y-155542500D01*
X49249999Y-155471071D01*
X49035714Y-155471071D01*
X48892857Y-155399642D01*
X48821428Y-155256785D01*
X48821428Y-155185357D01*
X48892857Y-155042500D01*
X49035714Y-154971071D01*
X49249999Y-154971071D01*
X49392857Y-155042500D01*
X49892857Y-154971071D02*
X50464285Y-154971071D01*
X50107142Y-154471071D02*
X50107142Y-155756785D01*
X50178571Y-155899642D01*
X50321428Y-155971071D01*
X50464285Y-155971071D01*
X51964285Y-154971071D02*
X52321428Y-155971071D01*
X52678571Y-154971071D02*
X52321428Y-155971071D01*
X52178571Y-156328214D01*
X52107142Y-156399642D01*
X51964285Y-156471071D01*
X53464285Y-155971071D02*
X53321428Y-155899642D01*
X53249999Y-155828214D01*
X53178571Y-155685357D01*
X53178571Y-155256785D01*
X53249999Y-155113928D01*
X53321428Y-155042500D01*
X53464285Y-154971071D01*
X53678571Y-154971071D01*
X53821428Y-155042500D01*
X53892857Y-155113928D01*
X53964285Y-155256785D01*
X53964285Y-155685357D01*
X53892857Y-155828214D01*
X53821428Y-155899642D01*
X53678571Y-155971071D01*
X53464285Y-155971071D01*
X55249999Y-154971071D02*
X55249999Y-155971071D01*
X54607142Y-154971071D02*
X54607142Y-155756785D01*
X54678571Y-155899642D01*
X54821428Y-155971071D01*
X55035714Y-155971071D01*
X55178571Y-155899642D01*
X55249999Y-155828214D01*
X55964285Y-155971071D02*
X55964285Y-154971071D01*
X55964285Y-155256785D02*
X56035714Y-155113928D01*
X56107142Y-155042500D01*
X56249999Y-154971071D01*
X56392857Y-154971071D01*
X58035714Y-155971071D02*
X58035714Y-154471071D01*
X58035714Y-155042500D02*
X58178571Y-154971071D01*
X58464285Y-154971071D01*
X58607142Y-155042500D01*
X58678571Y-155113928D01*
X58749999Y-155256785D01*
X58749999Y-155685357D01*
X58678571Y-155828214D01*
X58607142Y-155899642D01*
X58464285Y-155971071D01*
X58178571Y-155971071D01*
X58035714Y-155899642D01*
X59607142Y-155971071D02*
X59464285Y-155899642D01*
X59392857Y-155828214D01*
X59321428Y-155685357D01*
X59321428Y-155256785D01*
X59392857Y-155113928D01*
X59464285Y-155042500D01*
X59607142Y-154971071D01*
X59821428Y-154971071D01*
X59964285Y-155042500D01*
X60035714Y-155113928D01*
X60107142Y-155256785D01*
X60107142Y-155685357D01*
X60035714Y-155828214D01*
X59964285Y-155899642D01*
X59821428Y-155971071D01*
X59607142Y-155971071D01*
X60535714Y-154971071D02*
X61107142Y-154971071D01*
X60749999Y-154471071D02*
X60749999Y-155756785D01*
X60821428Y-155899642D01*
X60964285Y-155971071D01*
X61107142Y-155971071D01*
X61392857Y-154971071D02*
X61964285Y-154971071D01*
X61607142Y-154471071D02*
X61607142Y-155756785D01*
X61678571Y-155899642D01*
X61821428Y-155971071D01*
X61964285Y-155971071D01*
X62678571Y-155971071D02*
X62535714Y-155899642D01*
X62464285Y-155828214D01*
X62392857Y-155685357D01*
X62392857Y-155256785D01*
X62464285Y-155113928D01*
X62535714Y-155042500D01*
X62678571Y-154971071D01*
X62892857Y-154971071D01*
X63035714Y-155042500D01*
X63107142Y-155113928D01*
X63178571Y-155256785D01*
X63178571Y-155685357D01*
X63107142Y-155828214D01*
X63035714Y-155899642D01*
X62892857Y-155971071D01*
X62678571Y-155971071D01*
X63821428Y-155971071D02*
X63821428Y-154971071D01*
X63821428Y-155113928D02*
X63892857Y-155042500D01*
X64035714Y-154971071D01*
X64249999Y-154971071D01*
X64392857Y-155042500D01*
X64464285Y-155185357D01*
X64464285Y-155971071D01*
X64464285Y-155185357D02*
X64535714Y-155042500D01*
X64678571Y-154971071D01*
X64892857Y-154971071D01*
X65035714Y-155042500D01*
X65107142Y-155185357D01*
X65107142Y-155971071D01*
X66964285Y-155971071D02*
X66964285Y-154971071D01*
X66964285Y-155256785D02*
X67035714Y-155113928D01*
X67107142Y-155042500D01*
X67249999Y-154971071D01*
X67392857Y-154971071D01*
X68107142Y-155971071D02*
X67964285Y-155899642D01*
X67892857Y-155828214D01*
X67821428Y-155685357D01*
X67821428Y-155256785D01*
X67892857Y-155113928D01*
X67964285Y-155042500D01*
X68107142Y-154971071D01*
X68321428Y-154971071D01*
X68464285Y-155042500D01*
X68535714Y-155113928D01*
X68607142Y-155256785D01*
X68607142Y-155685357D01*
X68535714Y-155828214D01*
X68464285Y-155899642D01*
X68321428Y-155971071D01*
X68107142Y-155971071D01*
X69107142Y-154971071D02*
X69392857Y-155971071D01*
X69678571Y-155256785D01*
X69964285Y-155971071D01*
X70250000Y-154971071D01*
X71964285Y-155971071D02*
X71964285Y-154471071D01*
X71964285Y-155042500D02*
X72107142Y-154971071D01*
X72392857Y-154971071D01*
X72535714Y-155042500D01*
X72607142Y-155113928D01*
X72678571Y-155256785D01*
X72678571Y-155685357D01*
X72607142Y-155828214D01*
X72535714Y-155899642D01*
X72392857Y-155971071D01*
X72107142Y-155971071D01*
X71964285Y-155899642D01*
X73178571Y-154971071D02*
X73535714Y-155971071D01*
X73892857Y-154971071D02*
X73535714Y-155971071D01*
X73392857Y-156328214D01*
X73321428Y-156399642D01*
X73178571Y-156471071D01*
X75607142Y-155971071D02*
X75607142Y-154971071D01*
X75607142Y-154471071D02*
X75535714Y-154542500D01*
X75607142Y-154613928D01*
X75678571Y-154542500D01*
X75607142Y-154471071D01*
X75607142Y-154613928D01*
X76321428Y-154971071D02*
X76321428Y-155971071D01*
X76321428Y-155113928D02*
X76392857Y-155042500D01*
X76535714Y-154971071D01*
X76749999Y-154971071D01*
X76892857Y-155042500D01*
X76964285Y-155185357D01*
X76964285Y-155971071D01*
X77607142Y-155899642D02*
X77749999Y-155971071D01*
X78035714Y-155971071D01*
X78178571Y-155899642D01*
X78249999Y-155756785D01*
X78249999Y-155685357D01*
X78178571Y-155542500D01*
X78035714Y-155471071D01*
X77821428Y-155471071D01*
X77678571Y-155399642D01*
X77607142Y-155256785D01*
X77607142Y-155185357D01*
X77678571Y-155042500D01*
X77821428Y-154971071D01*
X78035714Y-154971071D01*
X78178571Y-155042500D01*
X78678571Y-154971071D02*
X79249999Y-154971071D01*
X78892857Y-154471071D02*
X78892857Y-155756785D01*
X78964285Y-155899642D01*
X79107142Y-155971071D01*
X79249999Y-155971071D01*
X80392857Y-155971071D02*
X80392857Y-155185357D01*
X80321428Y-155042500D01*
X80178571Y-154971071D01*
X79892857Y-154971071D01*
X79749999Y-155042500D01*
X80392857Y-155899642D02*
X80249999Y-155971071D01*
X79892857Y-155971071D01*
X79749999Y-155899642D01*
X79678571Y-155756785D01*
X79678571Y-155613928D01*
X79749999Y-155471071D01*
X79892857Y-155399642D01*
X80249999Y-155399642D01*
X80392857Y-155328214D01*
X81321428Y-155971071D02*
X81178571Y-155899642D01*
X81107142Y-155756785D01*
X81107142Y-154471071D01*
X82107142Y-155971071D02*
X81964285Y-155899642D01*
X81892857Y-155756785D01*
X81892857Y-154471071D01*
X82678571Y-155971071D02*
X82678571Y-154971071D01*
X82678571Y-154471071D02*
X82607142Y-154542500D01*
X82678571Y-154613928D01*
X82749999Y-154542500D01*
X82678571Y-154471071D01*
X82678571Y-154613928D01*
X83392857Y-154971071D02*
X83392857Y-155971071D01*
X83392857Y-155113928D02*
X83464285Y-155042500D01*
X83607142Y-154971071D01*
X83821428Y-154971071D01*
X83964285Y-155042500D01*
X84035714Y-155185357D01*
X84035714Y-155971071D01*
X85392857Y-154971071D02*
X85392857Y-156185357D01*
X85321428Y-156328214D01*
X85249999Y-156399642D01*
X85107142Y-156471071D01*
X84892857Y-156471071D01*
X84749999Y-156399642D01*
X85392857Y-155899642D02*
X85249999Y-155971071D01*
X84964285Y-155971071D01*
X84821428Y-155899642D01*
X84749999Y-155828214D01*
X84678571Y-155685357D01*
X84678571Y-155256785D01*
X84749999Y-155113928D01*
X84821428Y-155042500D01*
X84964285Y-154971071D01*
X85249999Y-154971071D01*
X85392857Y-155042500D01*
X46892857Y-158386071D02*
X46892857Y-156886071D01*
X47035714Y-157814642D02*
X47464285Y-158386071D01*
X47464285Y-157386071D02*
X46892857Y-157957500D01*
X48678571Y-158314642D02*
X48535714Y-158386071D01*
X48250000Y-158386071D01*
X48107142Y-158314642D01*
X48035714Y-158171785D01*
X48035714Y-157600357D01*
X48107142Y-157457500D01*
X48250000Y-157386071D01*
X48535714Y-157386071D01*
X48678571Y-157457500D01*
X48750000Y-157600357D01*
X48750000Y-157743214D01*
X48035714Y-157886071D01*
X49250000Y-157386071D02*
X49607142Y-158386071D01*
X49964285Y-157386071D02*
X49607142Y-158386071D01*
X49464285Y-158743214D01*
X49392857Y-158814642D01*
X49250000Y-158886071D01*
X51178571Y-158314642D02*
X51035714Y-158386071D01*
X50750000Y-158386071D01*
X50607142Y-158314642D01*
X50535714Y-158243214D01*
X50464285Y-158100357D01*
X50464285Y-157671785D01*
X50535714Y-157528928D01*
X50607142Y-157457500D01*
X50750000Y-157386071D01*
X51035714Y-157386071D01*
X51178571Y-157457500D01*
X52464285Y-158386071D02*
X52464285Y-157600357D01*
X52392857Y-157457500D01*
X52250000Y-157386071D01*
X51964285Y-157386071D01*
X51821428Y-157457500D01*
X52464285Y-158314642D02*
X52321428Y-158386071D01*
X51964285Y-158386071D01*
X51821428Y-158314642D01*
X51750000Y-158171785D01*
X51750000Y-158028928D01*
X51821428Y-157886071D01*
X51964285Y-157814642D01*
X52321428Y-157814642D01*
X52464285Y-157743214D01*
X53178571Y-157386071D02*
X53178571Y-158886071D01*
X53178571Y-157457500D02*
X53321428Y-157386071D01*
X53607142Y-157386071D01*
X53750000Y-157457500D01*
X53821428Y-157528928D01*
X53892857Y-157671785D01*
X53892857Y-158100357D01*
X53821428Y-158243214D01*
X53750000Y-158314642D01*
X53607142Y-158386071D01*
X53321428Y-158386071D01*
X53178571Y-158314642D01*
X54464285Y-158314642D02*
X54607142Y-158386071D01*
X54892857Y-158386071D01*
X55035714Y-158314642D01*
X55107142Y-158171785D01*
X55107142Y-158100357D01*
X55035714Y-157957500D01*
X54892857Y-157886071D01*
X54678571Y-157886071D01*
X54535714Y-157814642D01*
X54464285Y-157671785D01*
X54464285Y-157600357D01*
X54535714Y-157457500D01*
X54678571Y-157386071D01*
X54892857Y-157386071D01*
X55035714Y-157457500D01*
X56892857Y-158386071D02*
X56892857Y-156886071D01*
X56892857Y-157457500D02*
X57035714Y-157386071D01*
X57321428Y-157386071D01*
X57464285Y-157457500D01*
X57535714Y-157528928D01*
X57607142Y-157671785D01*
X57607142Y-158100357D01*
X57535714Y-158243214D01*
X57464285Y-158314642D01*
X57321428Y-158386071D01*
X57035714Y-158386071D01*
X56892857Y-158314642D01*
X58821428Y-158314642D02*
X58678571Y-158386071D01*
X58392857Y-158386071D01*
X58250000Y-158314642D01*
X58178571Y-158171785D01*
X58178571Y-157600357D01*
X58250000Y-157457500D01*
X58392857Y-157386071D01*
X58678571Y-157386071D01*
X58821428Y-157457500D01*
X58892857Y-157600357D01*
X58892857Y-157743214D01*
X58178571Y-157886071D01*
X59321428Y-157386071D02*
X59892857Y-157386071D01*
X59535714Y-158386071D02*
X59535714Y-157100357D01*
X59607142Y-156957500D01*
X59750000Y-156886071D01*
X59892857Y-156886071D01*
X60607142Y-158386071D02*
X60464285Y-158314642D01*
X60392857Y-158243214D01*
X60321428Y-158100357D01*
X60321428Y-157671785D01*
X60392857Y-157528928D01*
X60464285Y-157457500D01*
X60607142Y-157386071D01*
X60821428Y-157386071D01*
X60964285Y-157457500D01*
X61035714Y-157528928D01*
X61107142Y-157671785D01*
X61107142Y-158100357D01*
X61035714Y-158243214D01*
X60964285Y-158314642D01*
X60821428Y-158386071D01*
X60607142Y-158386071D01*
X61749999Y-158386071D02*
X61749999Y-157386071D01*
X61749999Y-157671785D02*
X61821428Y-157528928D01*
X61892857Y-157457500D01*
X62035714Y-157386071D01*
X62178571Y-157386071D01*
X63250000Y-158314642D02*
X63107142Y-158386071D01*
X62821428Y-158386071D01*
X62678571Y-158314642D01*
X62607142Y-158171785D01*
X62607142Y-157600357D01*
X62678571Y-157457500D01*
X62821428Y-157386071D01*
X63107142Y-157386071D01*
X63250000Y-157457500D01*
X63321428Y-157600357D01*
X63321428Y-157743214D01*
X62607142Y-157886071D01*
X65035714Y-158314642D02*
X65178571Y-158386071D01*
X65464285Y-158386071D01*
X65607142Y-158314642D01*
X65678571Y-158171785D01*
X65678571Y-158100357D01*
X65607142Y-157957500D01*
X65464285Y-157886071D01*
X65250000Y-157886071D01*
X65107142Y-157814642D01*
X65035714Y-157671785D01*
X65035714Y-157600357D01*
X65107142Y-157457500D01*
X65250000Y-157386071D01*
X65464285Y-157386071D01*
X65607142Y-157457500D01*
X66535714Y-158386071D02*
X66392857Y-158314642D01*
X66321428Y-158243214D01*
X66250000Y-158100357D01*
X66250000Y-157671785D01*
X66321428Y-157528928D01*
X66392857Y-157457500D01*
X66535714Y-157386071D01*
X66750000Y-157386071D01*
X66892857Y-157457500D01*
X66964285Y-157528928D01*
X67035714Y-157671785D01*
X67035714Y-158100357D01*
X66964285Y-158243214D01*
X66892857Y-158314642D01*
X66750000Y-158386071D01*
X66535714Y-158386071D01*
X67892857Y-158386071D02*
X67750000Y-158314642D01*
X67678571Y-158171785D01*
X67678571Y-156886071D01*
X69107142Y-158386071D02*
X69107142Y-156886071D01*
X69107142Y-158314642D02*
X68964285Y-158386071D01*
X68678571Y-158386071D01*
X68535714Y-158314642D01*
X68464285Y-158243214D01*
X68392857Y-158100357D01*
X68392857Y-157671785D01*
X68464285Y-157528928D01*
X68535714Y-157457500D01*
X68678571Y-157386071D01*
X68964285Y-157386071D01*
X69107142Y-157457500D01*
X70392857Y-158314642D02*
X70250000Y-158386071D01*
X69964285Y-158386071D01*
X69821428Y-158314642D01*
X69750000Y-158171785D01*
X69750000Y-157600357D01*
X69821428Y-157457500D01*
X69964285Y-157386071D01*
X70250000Y-157386071D01*
X70392857Y-157457500D01*
X70464285Y-157600357D01*
X70464285Y-157743214D01*
X69750000Y-157886071D01*
X71107142Y-158386071D02*
X71107142Y-157386071D01*
X71107142Y-157671785D02*
X71178571Y-157528928D01*
X71250000Y-157457500D01*
X71392857Y-157386071D01*
X71535714Y-157386071D01*
X72035714Y-158386071D02*
X72035714Y-157386071D01*
X72035714Y-156886071D02*
X71964285Y-156957500D01*
X72035714Y-157028928D01*
X72107142Y-156957500D01*
X72035714Y-156886071D01*
X72035714Y-157028928D01*
X72750000Y-157386071D02*
X72750000Y-158386071D01*
X72750000Y-157528928D02*
X72821428Y-157457500D01*
X72964285Y-157386071D01*
X73178571Y-157386071D01*
X73321428Y-157457500D01*
X73392857Y-157600357D01*
X73392857Y-158386071D01*
X74750000Y-157386071D02*
X74750000Y-158600357D01*
X74678571Y-158743214D01*
X74607142Y-158814642D01*
X74464285Y-158886071D01*
X74250000Y-158886071D01*
X74107142Y-158814642D01*
X74750000Y-158314642D02*
X74607142Y-158386071D01*
X74321428Y-158386071D01*
X74178571Y-158314642D01*
X74107142Y-158243214D01*
X74035714Y-158100357D01*
X74035714Y-157671785D01*
X74107142Y-157528928D01*
X74178571Y-157457500D01*
X74321428Y-157386071D01*
X74607142Y-157386071D01*
X74750000Y-157457500D01*
X76535714Y-158314642D02*
X76678571Y-158386071D01*
X76964285Y-158386071D01*
X77107142Y-158314642D01*
X77178571Y-158171785D01*
X77178571Y-158100357D01*
X77107142Y-157957500D01*
X76964285Y-157886071D01*
X76750000Y-157886071D01*
X76607142Y-157814642D01*
X76535714Y-157671785D01*
X76535714Y-157600357D01*
X76607142Y-157457500D01*
X76750000Y-157386071D01*
X76964285Y-157386071D01*
X77107142Y-157457500D01*
X77678571Y-157386071D02*
X77964285Y-158386071D01*
X78250000Y-157671785D01*
X78535714Y-158386071D01*
X78821428Y-157386071D01*
X79392857Y-158386071D02*
X79392857Y-157386071D01*
X79392857Y-156886071D02*
X79321428Y-156957500D01*
X79392857Y-157028928D01*
X79464285Y-156957500D01*
X79392857Y-156886071D01*
X79392857Y-157028928D01*
X79892857Y-157386071D02*
X80464285Y-157386071D01*
X80107142Y-156886071D02*
X80107142Y-158171785D01*
X80178571Y-158314642D01*
X80321428Y-158386071D01*
X80464285Y-158386071D01*
X81607142Y-158314642D02*
X81464285Y-158386071D01*
X81178571Y-158386071D01*
X81035714Y-158314642D01*
X80964285Y-158243214D01*
X80892857Y-158100357D01*
X80892857Y-157671785D01*
X80964285Y-157528928D01*
X81035714Y-157457500D01*
X81178571Y-157386071D01*
X81464285Y-157386071D01*
X81607142Y-157457500D01*
X82250000Y-158386071D02*
X82250000Y-156886071D01*
X82892857Y-158386071D02*
X82892857Y-157600357D01*
X82821428Y-157457500D01*
X82678571Y-157386071D01*
X82464285Y-157386071D01*
X82321428Y-157457500D01*
X82250000Y-157528928D01*
X84178571Y-158314642D02*
X84035714Y-158386071D01*
X83750000Y-158386071D01*
X83607142Y-158314642D01*
X83535714Y-158171785D01*
X83535714Y-157600357D01*
X83607142Y-157457500D01*
X83750000Y-157386071D01*
X84035714Y-157386071D01*
X84178571Y-157457500D01*
X84250000Y-157600357D01*
X84250000Y-157743214D01*
X83535714Y-157886071D01*
X84821428Y-158314642D02*
X84964285Y-158386071D01*
X85250000Y-158386071D01*
X85392857Y-158314642D01*
X85464285Y-158171785D01*
X85464285Y-158100357D01*
X85392857Y-157957500D01*
X85250000Y-157886071D01*
X85035714Y-157886071D01*
X84892857Y-157814642D01*
X84821428Y-157671785D01*
X84821428Y-157600357D01*
X84892857Y-157457500D01*
X85035714Y-157386071D01*
X85250000Y-157386071D01*
X85392857Y-157457500D01*
X86107142Y-158243214D02*
X86178571Y-158314642D01*
X86107142Y-158386071D01*
X86035714Y-158314642D01*
X86107142Y-158243214D01*
X86107142Y-158386071D01*
X86107142Y-157814642D02*
X86035714Y-156957500D01*
X86107142Y-156886071D01*
X86178571Y-156957500D01*
X86107142Y-157814642D01*
X86107142Y-156886071D01*
D11*
X8857142Y-160042857D02*
X8171428Y-160042857D01*
X8514285Y-160042857D02*
X8514285Y-158842857D01*
X8400000Y-159014285D01*
X8285714Y-159128571D01*
X8171428Y-159185714D01*
X9371428Y-159928571D02*
X9428571Y-159985714D01*
X9371428Y-160042857D01*
X9314285Y-159985714D01*
X9371428Y-159928571D01*
X9371428Y-160042857D01*
X10514285Y-158842857D02*
X9942857Y-158842857D01*
X9885714Y-159414285D01*
X9942857Y-159357142D01*
X10057142Y-159300000D01*
X10342857Y-159300000D01*
X10457142Y-159357142D01*
X10514285Y-159414285D01*
X10571428Y-159528571D01*
X10571428Y-159814285D01*
X10514285Y-159928571D01*
X10457142Y-159985714D01*
X10342857Y-160042857D01*
X10057142Y-160042857D01*
X9942857Y-159985714D01*
X9885714Y-159928571D01*
X11600000Y-159242857D02*
X11600000Y-160042857D01*
X11085714Y-159242857D02*
X11085714Y-159871428D01*
X11142857Y-159985714D01*
X11257142Y-160042857D01*
X11428571Y-160042857D01*
X11542857Y-159985714D01*
X11600000Y-159928571D01*
X13771428Y-159928571D02*
X13714285Y-159985714D01*
X13542857Y-160042857D01*
X13428571Y-160042857D01*
X13257142Y-159985714D01*
X13142857Y-159871428D01*
X13085714Y-159757142D01*
X13028571Y-159528571D01*
X13028571Y-159357142D01*
X13085714Y-159128571D01*
X13142857Y-159014285D01*
X13257142Y-158900000D01*
X13428571Y-158842857D01*
X13542857Y-158842857D01*
X13714285Y-158900000D01*
X13771428Y-158957142D01*
X14114285Y-159242857D02*
X14571428Y-159242857D01*
X14285714Y-158842857D02*
X14285714Y-159871428D01*
X14342857Y-159985714D01*
X14457142Y-160042857D01*
X14571428Y-160042857D01*
X14971428Y-160042857D02*
X14971428Y-159242857D01*
X14971428Y-159471428D02*
X15028571Y-159357142D01*
X15085714Y-159300000D01*
X15200000Y-159242857D01*
X15314285Y-159242857D01*
X15885714Y-160042857D02*
X15771428Y-159985714D01*
X15714285Y-159871428D01*
X15714285Y-158842857D01*
X199814285Y-159542857D02*
X199128571Y-159542857D01*
X199471428Y-159542857D02*
X199471428Y-158342857D01*
X199357142Y-158514285D01*
X199242857Y-158628571D01*
X199128571Y-158685714D01*
X200328571Y-159428571D02*
X200385714Y-159485714D01*
X200328571Y-159542857D01*
X200271428Y-159485714D01*
X200328571Y-159428571D01*
X200328571Y-159542857D01*
X201471428Y-158342857D02*
X200900000Y-158342857D01*
X200842857Y-158914285D01*
X200900000Y-158857142D01*
X201014285Y-158800000D01*
X201300000Y-158800000D01*
X201414285Y-158857142D01*
X201471428Y-158914285D01*
X201528571Y-159028571D01*
X201528571Y-159314285D01*
X201471428Y-159428571D01*
X201414285Y-159485714D01*
X201300000Y-159542857D01*
X201014285Y-159542857D01*
X200900000Y-159485714D01*
X200842857Y-159428571D01*
X202557142Y-158742857D02*
X202557142Y-159542857D01*
X202042857Y-158742857D02*
X202042857Y-159371428D01*
X202100000Y-159485714D01*
X202214285Y-159542857D01*
X202385714Y-159542857D01*
X202500000Y-159485714D01*
X202557142Y-159428571D01*
X203985714Y-159200000D02*
X204557142Y-159200000D01*
X203871428Y-159542857D02*
X204271428Y-158342857D01*
X204671428Y-159542857D01*
X205242857Y-159542857D02*
X205128571Y-159485714D01*
X205071428Y-159371428D01*
X205071428Y-158342857D01*
X205528571Y-158742857D02*
X205985714Y-158742857D01*
X205700000Y-158342857D02*
X205700000Y-159371428D01*
X205757142Y-159485714D01*
X205871428Y-159542857D01*
X205985714Y-159542857D01*
X29399999Y-157542857D02*
X28714285Y-157542857D01*
X29057142Y-157542857D02*
X29057142Y-156342857D01*
X28942857Y-156514285D01*
X28828571Y-156628571D01*
X28714285Y-156685714D01*
X29914285Y-157428571D02*
X29971428Y-157485714D01*
X29914285Y-157542857D01*
X29857142Y-157485714D01*
X29914285Y-157428571D01*
X29914285Y-157542857D01*
X30428571Y-156457142D02*
X30485714Y-156400000D01*
X30599999Y-156342857D01*
X30885714Y-156342857D01*
X30999999Y-156400000D01*
X31057142Y-156457142D01*
X31114285Y-156571428D01*
X31114285Y-156685714D01*
X31057142Y-156857142D01*
X30371428Y-157542857D01*
X31114285Y-157542857D01*
X32199999Y-156342857D02*
X31628571Y-156342857D01*
X31571428Y-156914285D01*
X31628571Y-156857142D01*
X31742857Y-156800000D01*
X32028571Y-156800000D01*
X32142857Y-156857142D01*
X32199999Y-156914285D01*
X32257142Y-157028571D01*
X32257142Y-157314285D01*
X32199999Y-157428571D01*
X32142857Y-157485714D01*
X32028571Y-157542857D01*
X31742857Y-157542857D01*
X31628571Y-157485714D01*
X31571428Y-157428571D01*
X33285714Y-156742857D02*
X33285714Y-157542857D01*
X32771428Y-156742857D02*
X32771428Y-157371428D01*
X32828571Y-157485714D01*
X32942857Y-157542857D01*
X33114285Y-157542857D01*
X33228571Y-157485714D01*
X33285714Y-157428571D01*
X34657142Y-156342857D02*
X34942857Y-157542857D01*
X35171428Y-156685714D01*
X35400000Y-157542857D01*
X35685714Y-156342857D01*
X36142857Y-157542857D02*
X36142857Y-156742857D01*
X36142857Y-156342857D02*
X36085714Y-156400000D01*
X36142857Y-156457142D01*
X36200000Y-156400000D01*
X36142857Y-156342857D01*
X36142857Y-156457142D01*
X36714285Y-156742857D02*
X36714285Y-157542857D01*
X36714285Y-156857142D02*
X36771428Y-156800000D01*
X36885714Y-156742857D01*
X37057142Y-156742857D01*
X37171428Y-156800000D01*
X37228571Y-156914285D01*
X37228571Y-157542857D01*
X123871428Y-159042857D02*
X123185714Y-159042857D01*
X123528571Y-159042857D02*
X123528571Y-157842857D01*
X123414285Y-158014285D01*
X123300000Y-158128571D01*
X123185714Y-158185714D01*
X124385714Y-158928571D02*
X124442857Y-158985714D01*
X124385714Y-159042857D01*
X124328571Y-158985714D01*
X124385714Y-158928571D01*
X124385714Y-159042857D01*
X124900000Y-157957142D02*
X124957142Y-157900000D01*
X125071428Y-157842857D01*
X125357142Y-157842857D01*
X125471428Y-157900000D01*
X125528571Y-157957142D01*
X125585714Y-158071428D01*
X125585714Y-158185714D01*
X125528571Y-158357142D01*
X124842857Y-159042857D01*
X125585714Y-159042857D01*
X126671428Y-157842857D02*
X126100000Y-157842857D01*
X126042857Y-158414285D01*
X126100000Y-158357142D01*
X126214285Y-158300000D01*
X126500000Y-158300000D01*
X126614285Y-158357142D01*
X126671428Y-158414285D01*
X126728571Y-158528571D01*
X126728571Y-158814285D01*
X126671428Y-158928571D01*
X126614285Y-158985714D01*
X126500000Y-159042857D01*
X126214285Y-159042857D01*
X126100000Y-158985714D01*
X126042857Y-158928571D01*
X127757142Y-158242857D02*
X127757142Y-159042857D01*
X127242857Y-158242857D02*
X127242857Y-158871428D01*
X127300000Y-158985714D01*
X127414285Y-159042857D01*
X127585714Y-159042857D01*
X127700000Y-158985714D01*
X127757142Y-158928571D01*
X196171428Y-157542857D02*
X195485714Y-157542857D01*
X195828571Y-157542857D02*
X195828571Y-156342857D01*
X195714285Y-156514285D01*
X195600000Y-156628571D01*
X195485714Y-156685714D01*
X197200000Y-156742857D02*
X197200000Y-157542857D01*
X196685714Y-156742857D02*
X196685714Y-157371428D01*
X196742857Y-157485714D01*
X196857142Y-157542857D01*
X197028571Y-157542857D01*
X197142857Y-157485714D01*
X197200000Y-157428571D01*
X198628571Y-157200000D02*
X199200000Y-157200000D01*
X198514285Y-157542857D02*
X198914285Y-156342857D01*
X199314285Y-157542857D01*
X199885714Y-157542857D02*
X199771428Y-157485714D01*
X199714285Y-157371428D01*
X199714285Y-156342857D01*
X200171428Y-156742857D02*
X200628571Y-156742857D01*
X200342857Y-156342857D02*
X200342857Y-157371428D01*
X200400000Y-157485714D01*
X200514285Y-157542857D01*
X200628571Y-157542857D01*
X37314285Y-160042857D02*
X36628571Y-160042857D01*
X36971428Y-160042857D02*
X36971428Y-158842857D01*
X36857142Y-159014285D01*
X36742857Y-159128571D01*
X36628571Y-159185714D01*
X37828571Y-159928571D02*
X37885714Y-159985714D01*
X37828571Y-160042857D01*
X37771428Y-159985714D01*
X37828571Y-159928571D01*
X37828571Y-160042857D01*
X38971428Y-158842857D02*
X38400000Y-158842857D01*
X38342857Y-159414285D01*
X38400000Y-159357142D01*
X38514285Y-159300000D01*
X38800000Y-159300000D01*
X38914285Y-159357142D01*
X38971428Y-159414285D01*
X39028571Y-159528571D01*
X39028571Y-159814285D01*
X38971428Y-159928571D01*
X38914285Y-159985714D01*
X38800000Y-160042857D01*
X38514285Y-160042857D01*
X38400000Y-159985714D01*
X38342857Y-159928571D01*
X40057142Y-159242857D02*
X40057142Y-160042857D01*
X39542857Y-159242857D02*
X39542857Y-159871428D01*
X39600000Y-159985714D01*
X39714285Y-160042857D01*
X39885714Y-160042857D01*
X40000000Y-159985714D01*
X40057142Y-159928571D01*
X41485714Y-159700000D02*
X42057142Y-159700000D01*
X41371428Y-160042857D02*
X41771428Y-158842857D01*
X42171428Y-160042857D01*
X42742857Y-160042857D02*
X42628571Y-159985714D01*
X42571428Y-159871428D01*
X42571428Y-158842857D01*
X43028571Y-159242857D02*
X43485714Y-159242857D01*
X43200000Y-158842857D02*
X43200000Y-159871428D01*
X43257142Y-159985714D01*
X43371428Y-160042857D01*
X43485714Y-160042857D01*
X245357142Y-158542857D02*
X244671428Y-158542857D01*
X245014285Y-158542857D02*
X245014285Y-157342857D01*
X244900000Y-157514285D01*
X244785714Y-157628571D01*
X244671428Y-157685714D01*
X245871428Y-158428571D02*
X245928571Y-158485714D01*
X245871428Y-158542857D01*
X245814285Y-158485714D01*
X245871428Y-158428571D01*
X245871428Y-158542857D01*
X247014285Y-157342857D02*
X246442857Y-157342857D01*
X246385714Y-157914285D01*
X246442857Y-157857142D01*
X246557142Y-157800000D01*
X246842857Y-157800000D01*
X246957142Y-157857142D01*
X247014285Y-157914285D01*
X247071428Y-158028571D01*
X247071428Y-158314285D01*
X247014285Y-158428571D01*
X246957142Y-158485714D01*
X246842857Y-158542857D01*
X246557142Y-158542857D01*
X246442857Y-158485714D01*
X246385714Y-158428571D01*
X248100000Y-157742857D02*
X248100000Y-158542857D01*
X247585714Y-157742857D02*
X247585714Y-158371428D01*
X247642857Y-158485714D01*
X247757142Y-158542857D01*
X247928571Y-158542857D01*
X248042857Y-158485714D01*
X248100000Y-158428571D01*
X250271428Y-158428571D02*
X250214285Y-158485714D01*
X250042857Y-158542857D01*
X249928571Y-158542857D01*
X249757142Y-158485714D01*
X249642857Y-158371428D01*
X249585714Y-158257142D01*
X249528571Y-158028571D01*
X249528571Y-157857142D01*
X249585714Y-157628571D01*
X249642857Y-157514285D01*
X249757142Y-157400000D01*
X249928571Y-157342857D01*
X250042857Y-157342857D01*
X250214285Y-157400000D01*
X250271428Y-157457142D01*
X250614285Y-157742857D02*
X251071428Y-157742857D01*
X250785714Y-157342857D02*
X250785714Y-158371428D01*
X250842857Y-158485714D01*
X250957142Y-158542857D01*
X251071428Y-158542857D01*
X251471428Y-158542857D02*
X251471428Y-157742857D01*
X251471428Y-157971428D02*
X251528571Y-157857142D01*
X251585714Y-157800000D01*
X251700000Y-157742857D01*
X251814285Y-157742857D01*
X252385714Y-158542857D02*
X252271428Y-158485714D01*
X252214285Y-158371428D01*
X252214285Y-157342857D01*
X243214285Y-156542857D02*
X242528571Y-156542857D01*
X242871428Y-156542857D02*
X242871428Y-155342857D01*
X242757142Y-155514285D01*
X242642857Y-155628571D01*
X242528571Y-155685714D01*
X244242857Y-155742857D02*
X244242857Y-156542857D01*
X243728571Y-155742857D02*
X243728571Y-156371428D01*
X243785714Y-156485714D01*
X243900000Y-156542857D01*
X244071428Y-156542857D01*
X244185714Y-156485714D01*
X244242857Y-156428571D01*
X246414285Y-156428571D02*
X246357142Y-156485714D01*
X246185714Y-156542857D01*
X246071428Y-156542857D01*
X245900000Y-156485714D01*
X245785714Y-156371428D01*
X245728571Y-156257142D01*
X245671428Y-156028571D01*
X245671428Y-155857142D01*
X245728571Y-155628571D01*
X245785714Y-155514285D01*
X245900000Y-155400000D01*
X246071428Y-155342857D01*
X246185714Y-155342857D01*
X246357142Y-155400000D01*
X246414285Y-155457142D01*
X246757142Y-155742857D02*
X247214285Y-155742857D01*
X246928571Y-155342857D02*
X246928571Y-156371428D01*
X246985714Y-156485714D01*
X247100000Y-156542857D01*
X247214285Y-156542857D01*
X247614285Y-156542857D02*
X247614285Y-155742857D01*
X247614285Y-155971428D02*
X247671428Y-155857142D01*
X247728571Y-155800000D01*
X247842857Y-155742857D01*
X247957142Y-155742857D01*
X248528571Y-156542857D02*
X248414285Y-156485714D01*
X248357142Y-156371428D01*
X248357142Y-155342857D01*
M02*
