%TF.GenerationSoftware,KiCad,Pcbnew,(6.0.2)*%
%TF.CreationDate,2022-03-07T23:39:06-05:00*%
%TF.ProjectId,FR4-fixed-layout-plate,4652342d-6669-4786-9564-2d6c61796f75,rev?*%
%TF.SameCoordinates,Original*%
%TF.FileFunction,Profile,NP*%
%FSLAX46Y46*%
G04 Gerber Fmt 4.6, Leading zero omitted, Abs format (unit mm)*
G04 Created by KiCad (PCBNEW (6.0.2)) date 2022-03-07 23:39:06*
%MOMM*%
%LPD*%
G01*
G04 APERTURE LIST*
%TA.AperFunction,Profile*%
%ADD10C,0.100000*%
%TD*%
%TA.AperFunction,Profile*%
%ADD11C,0.050000*%
%TD*%
G04 APERTURE END LIST*
D10*
X135087500Y-7000000D02*
G75*
G03*
X135587500Y-6500000I0J500000D01*
G01*
X173187500Y-73675000D02*
G75*
G03*
X173687500Y-73175000I0J500000D01*
G01*
X259412500Y-103037500D02*
G75*
G03*
X258912500Y-102537500I-500000J0D01*
G01*
X284012500Y26050000D02*
X297012500Y26050000D01*
X264962500Y-102537500D02*
G75*
G03*
X264462500Y-103037500I0J-500000D01*
G01*
X326375000Y25550000D02*
X326375000Y12550000D01*
X243547867Y33725000D02*
G75*
G03*
X241235288Y32418548I0J-2700000D01*
G01*
X247793749Y-71174999D02*
G75*
G03*
X247593750Y-70975000I-199999J0D01*
G01*
X-2237500Y-54125000D02*
G75*
G03*
X-1737500Y-54625000I500000J0D01*
G01*
X-9962500Y33725000D02*
X-9962500Y36188331D01*
X332287999Y-109274998D02*
G75*
G03*
X332088000Y-109074999I-199999J0D01*
G01*
X245912500Y-102537500D02*
G75*
G03*
X245412500Y-103037500I0J-500000D01*
G01*
X297012500Y-116537500D02*
G75*
G03*
X297512500Y-116037500I0J500000D01*
G01*
X284012500Y-73675000D02*
X297012500Y-73675000D01*
X321325000Y-22075000D02*
X321325000Y-35075000D01*
X114943750Y-111774999D02*
X127943750Y-111774999D01*
X68443750Y-113774999D02*
X74443750Y-113774999D01*
X121587500Y-6500000D02*
G75*
G03*
X122087500Y-7000000I500000J0D01*
G01*
X220812500Y-92725000D02*
G75*
G03*
X221312500Y-92225000I0J500000D01*
G01*
X261793750Y-60175000D02*
X261793750Y-62175000D01*
X168443750Y-98774999D02*
G75*
G03*
X167943750Y-99274999I0J-500000D01*
G01*
X359425000Y-98274999D02*
X359425000Y-111274999D01*
X160187500Y-73675000D02*
X173187500Y-73675000D01*
X159400000Y-22075000D02*
G75*
G03*
X158900000Y-21575000I-500000J0D01*
G01*
X247593746Y-62375001D02*
X246555750Y-62375000D01*
X59387499Y-60175000D02*
X59387499Y-73175000D01*
X297512500Y25550000D02*
X297512500Y12550000D01*
X202262500Y-79225000D02*
X202262500Y-92225000D01*
X122087500Y26050000D02*
G75*
G03*
X121587500Y25550000I0J-500000D01*
G01*
X255437499Y-40625000D02*
G75*
G03*
X254937499Y-41125000I0J-500000D01*
G01*
X55412500Y-78725000D02*
G75*
G03*
X54912500Y-79225000I0J-500000D01*
G01*
X247593747Y-62375000D02*
G75*
G03*
X247793746Y-62175001I0J199999D01*
G01*
X88250000Y-22075000D02*
X88250000Y-35075000D01*
X326875000Y-73675000D02*
X339875000Y-73675000D01*
X97487500Y-60175000D02*
G75*
G03*
X96987500Y-59675000I-500000J0D01*
G01*
X297512500Y-41125000D02*
X297512500Y-54125000D01*
X222100000Y26050000D02*
X235100000Y26050000D01*
X375774999Y-49949996D02*
X375775000Y-48912000D01*
X184000000Y-111774999D02*
X197000000Y-111774999D01*
X367175001Y-48912004D02*
X367175000Y-49950000D01*
X345925000Y-78725000D02*
G75*
G03*
X345425000Y-79225000I0J-500000D01*
G01*
X74943750Y-99274999D02*
X74943750Y-113274999D01*
X235100000Y-111774999D02*
G75*
G03*
X235600000Y-111274999I0J500000D01*
G01*
X345925000Y-59675000D02*
G75*
G03*
X345425000Y-60175000I0J-500000D01*
G01*
X283512500Y25550000D02*
X283512500Y12550000D01*
X154924999Y-54125000D02*
G75*
G03*
X155424999Y-54625000I500000J0D01*
G01*
X283512500Y-22075000D02*
X283512500Y-35075000D01*
X317350000Y-97774999D02*
X330350000Y-97774999D01*
X307825000Y-59675000D02*
G75*
G03*
X307325000Y-60175000I0J-500000D01*
G01*
X59675000Y-6500000D02*
G75*
G03*
X60175000Y-7000000I500000J0D01*
G01*
X77787500Y33725000D02*
G75*
G03*
X81187500Y33725000I1700000J0D01*
G01*
X362475000Y-42212000D02*
X362475000Y-48212000D01*
X6999999Y-22075000D02*
G75*
G03*
X6499999Y-21575000I-500000J0D01*
G01*
X169712500Y-78725000D02*
X182712500Y-78725000D01*
X178450000Y-22075000D02*
G75*
G03*
X177950000Y-21575000I-500000J0D01*
G01*
X207812500Y-78725000D02*
X220812500Y-78725000D01*
X135875000Y-41125000D02*
X135875000Y-54125000D01*
X379975001Y-110687999D02*
G75*
G03*
X380475001Y-110187999I0J500000D01*
G01*
X247006250Y-92725000D02*
G75*
G03*
X247506250Y-92225000I0J500000D01*
G01*
X297012500Y-35575000D02*
G75*
G03*
X297512500Y-35075000I0J500000D01*
G01*
X35075000Y12050000D02*
G75*
G03*
X35575000Y12550000I0J500000D01*
G01*
X272613000Y-23075000D02*
G75*
G03*
X272113001Y-22574999I-500000J1D01*
G01*
X79225000Y7000000D02*
G75*
G03*
X78725000Y6500000I0J-500000D01*
G01*
X5406250Y-92725000D02*
X18406250Y-92725000D01*
X13643749Y-73675000D02*
G75*
G03*
X14143749Y-73175000I0J500000D01*
G01*
X59675000Y-41125000D02*
X59675000Y-54125000D01*
X4906250Y-79225000D02*
X4906250Y-81225000D01*
X7500000Y14800000D02*
X-7500000Y14800000D01*
X203049999Y26050000D02*
X216049999Y26050000D01*
X207025000Y-41125000D02*
G75*
G03*
X206525000Y-40625000I-500000J0D01*
G01*
X359425000Y25550000D02*
X359425000Y12550000D01*
X45887500Y-59675000D02*
X58887499Y-59675000D01*
X265612999Y-33074999D02*
G75*
G03*
X265413000Y-32875000I-199999J0D01*
G01*
X41125000Y-40625000D02*
X54125000Y-40625000D01*
X159400000Y-22075000D02*
X159400000Y-35075000D01*
X254150000Y12050000D02*
G75*
G03*
X254650000Y12550000I0J500000D01*
G01*
X216549999Y-98274999D02*
G75*
G03*
X216049999Y-97774999I-500000J0D01*
G01*
X18906250Y-79225000D02*
G75*
G03*
X18406250Y-78725000I-500000J0D01*
G01*
X248293750Y-59675000D02*
X261293750Y-59675000D01*
X189831237Y35459375D02*
G75*
G03*
X188026987Y36681405I-2287481J-1434375D01*
G01*
X125562500Y-92725000D02*
G75*
G03*
X126062500Y-92225000I0J500000D01*
G01*
X339875000Y-7000000D02*
G75*
G03*
X340375000Y-6500000I0J500000D01*
G01*
X284012500Y-102537500D02*
X297012500Y-102537500D01*
X345425000Y25550000D02*
X345425000Y12550000D01*
X377975000Y-50150000D02*
X375975000Y-50150000D01*
X221600000Y-111274999D02*
G75*
G03*
X222100000Y-111774999I500000J0D01*
G01*
X326875000Y-7000000D02*
X339875000Y-7000000D01*
X378037500Y33725000D02*
G75*
G03*
X381437500Y33725000I1700000J0D01*
G01*
X340427133Y-120274999D02*
X322965933Y-120274999D01*
X221600000Y-22075000D02*
X221600000Y-35075000D01*
X184000000Y-21575000D02*
X197000000Y-21575000D01*
X330350000Y-111774999D02*
G75*
G03*
X330850001Y-111275000I1J500000D01*
G01*
X68443750Y-98774999D02*
X74443750Y-98774999D01*
X197000000Y-111774999D02*
G75*
G03*
X197500000Y-111274999I0J500000D01*
G01*
X345425000Y-6500000D02*
G75*
G03*
X345925000Y-7000000I500000J0D01*
G01*
X326875000Y-78725000D02*
X339875000Y-78725000D01*
X378475000Y-50650000D02*
G75*
G03*
X377975000Y-50150000I-500000J0D01*
G01*
X245125000Y-41125000D02*
G75*
G03*
X244625000Y-40625000I-500000J0D01*
G01*
X83199999Y-22075000D02*
X83199999Y-35075000D01*
X41125000Y12050000D02*
X54125000Y12050000D01*
X264462500Y-83987500D02*
X264462500Y-96987500D01*
X376975000Y-72588000D02*
X375975000Y-72588000D01*
X58887499Y-73675000D02*
G75*
G03*
X59387499Y-73175000I0J500000D01*
G01*
X9381250Y-98274999D02*
X9381250Y-111274999D01*
X154137500Y-7000000D02*
G75*
G03*
X154637500Y-6500000I0J500000D01*
G01*
X192737499Y-60175000D02*
G75*
G03*
X192237499Y-59675000I-500000J0D01*
G01*
X378475000Y6500000D02*
G75*
G03*
X377975000Y7000000I-500000J0D01*
G01*
X375974999Y-48712001D02*
G75*
G03*
X375775000Y-48912000I0J-199999D01*
G01*
X326875000Y-78725000D02*
G75*
G03*
X326375000Y-79225000I0J-500000D01*
G01*
X168924999Y-41125000D02*
X168924999Y-54125000D01*
X97774999Y-54125000D02*
G75*
G03*
X98274999Y-54625000I500000J0D01*
G01*
X135731250Y-103584375D02*
X159543750Y-103584375D01*
X248737000Y-23075000D02*
G75*
G03*
X248237000Y-22575000I-500000J0D01*
G01*
X96987500Y-73675000D02*
G75*
G03*
X97487500Y-73175000I0J500000D01*
G01*
X222100000Y7000000D02*
G75*
G03*
X221600000Y6500000I0J-500000D01*
G01*
X184000000Y-97774999D02*
X197000000Y-97774999D01*
X377975001Y-102249999D02*
G75*
G03*
X378475002Y-101750000I1J500000D01*
G01*
X340375000Y-41125000D02*
G75*
G03*
X339875000Y-40625000I-500000J0D01*
G01*
X326375000Y-60175000D02*
X326375000Y-73175000D01*
X270231750Y-75175000D02*
X270231750Y-62175000D01*
X19693750Y-111774999D02*
X32693750Y-111774999D01*
X-4168762Y35459375D02*
G75*
G03*
X-1034066Y33725000I3134696J1965625D01*
G01*
X326875000Y-21575000D02*
G75*
G03*
X326375000Y-22075000I0J-500000D01*
G01*
X79225000Y-7000000D02*
X92225000Y-7000000D01*
X207312500Y-92225000D02*
G75*
G03*
X207812500Y-92725000I500000J0D01*
G01*
X254650000Y25550000D02*
G75*
G03*
X254150000Y26050000I-500000J0D01*
G01*
X212575000Y-54625000D02*
X225575000Y-54625000D01*
X19106253Y-90025000D02*
G75*
G03*
X18906254Y-90224999I0J-199999D01*
G01*
X345425000Y-73175000D02*
G75*
G03*
X345925000Y-73675000I500000J0D01*
G01*
X182712500Y-92725000D02*
G75*
G03*
X183212500Y-92225000I0J500000D01*
G01*
X54625000Y25550000D02*
G75*
G03*
X54125000Y26050000I-500000J0D01*
G01*
X254650000Y25550000D02*
X254650000Y12550000D01*
X316649997Y-100474999D02*
G75*
G03*
X316849996Y-100275000I0J199999D01*
G01*
X178509067Y-120274999D02*
X138547867Y-120274999D01*
X345925000Y-7000000D02*
X358925000Y-7000000D01*
X18406250Y-92725000D02*
G75*
G03*
X18906251Y-92225001I1J500000D01*
G01*
X43506250Y-97774999D02*
X56506250Y-97774999D01*
X179237499Y-73675000D02*
X192237499Y-73675000D01*
X234006250Y-92725000D02*
X247006250Y-92725000D01*
X315612003Y-109074999D02*
G75*
G03*
X315412004Y-109274998I0J-199999D01*
G01*
X20344250Y-94225000D02*
G75*
G03*
X20844249Y-94725001I500000J-1D01*
G01*
X126350000Y-35075000D02*
G75*
G03*
X126850000Y-35575000I500000J0D01*
G01*
X317437500Y-120274999D02*
X317437500Y-122739477D01*
X340375000Y-22075000D02*
G75*
G03*
X339875000Y-21575000I-500000J0D01*
G01*
X59387499Y-60175000D02*
G75*
G03*
X58887499Y-59675000I-500000J0D01*
G01*
X284012500Y-21575000D02*
X297012500Y-21575000D01*
X59675000Y-54125000D02*
G75*
G03*
X60175000Y-54625000I500000J0D01*
G01*
X303062500Y12050000D02*
X316062500Y12050000D01*
X245912500Y-116537500D02*
X258912500Y-116537500D01*
X308912000Y-113774999D02*
X314912000Y-113774999D01*
X316562500Y25550000D02*
G75*
G03*
X316062500Y26050000I-500000J0D01*
G01*
X-10553408Y-123229996D02*
G75*
G03*
X-9962498Y-122738331I90998J491560D01*
G01*
X340375000Y6500000D02*
G75*
G03*
X339875000Y7000000I-500000J0D01*
G01*
X283512500Y-6500000D02*
G75*
G03*
X284012500Y-7000000I500000J0D01*
G01*
X307325000Y-41125000D02*
X307325000Y-54125000D01*
X217337500Y-59675000D02*
X230337500Y-59675000D01*
X345925000Y26050000D02*
G75*
G03*
X345425000Y25550000I0J-500000D01*
G01*
X202549999Y-22075000D02*
X202549999Y-35075000D01*
X26837500Y-59675000D02*
X39837500Y-59675000D01*
X154637500Y6500000D02*
X154637500Y-6500000D01*
X314912000Y-113774999D02*
G75*
G03*
X315412001Y-113275000I1J500000D01*
G01*
X316850000Y-111274999D02*
G75*
G03*
X317349999Y-111775000I500000J-1D01*
G01*
X26837500Y-59675000D02*
G75*
G03*
X26337500Y-60175000I0J-500000D01*
G01*
X74443750Y-113774999D02*
G75*
G03*
X74943750Y-113274999I0J500000D01*
G01*
X187475000Y-54625000D02*
G75*
G03*
X187975000Y-54125000I0J500000D01*
G01*
X297012500Y-73675000D02*
G75*
G03*
X297512500Y-73175000I0J500000D01*
G01*
X203049999Y-97774999D02*
G75*
G03*
X202549999Y-98274999I0J-500000D01*
G01*
X69199999Y-22075000D02*
X69199999Y-35075000D01*
X222100000Y-97774999D02*
G75*
G03*
X221600000Y-98274999I0J-500000D01*
G01*
X241150000Y7000000D02*
G75*
G03*
X240650000Y6500000I0J-500000D01*
G01*
X316562500Y25550000D02*
X316562500Y12550000D01*
X269731750Y-75675000D02*
G75*
G03*
X270231750Y-75175000I0J500000D01*
G01*
X226075000Y-41125000D02*
G75*
G03*
X225575000Y-40625000I-500000J0D01*
G01*
X307325000Y-92225000D02*
G75*
G03*
X307825000Y-92725000I500000J0D01*
G01*
X150162500Y-79225000D02*
X150162500Y-92225000D01*
X149875000Y-41125000D02*
X149875000Y-54125000D01*
X20344250Y-80225000D02*
X20344250Y-81225000D01*
X117324999Y-40625000D02*
G75*
G03*
X116824999Y-41125000I0J-500000D01*
G01*
X160187500Y-59675000D02*
X173187500Y-59675000D01*
X193025000Y-41125000D02*
X193025000Y-54125000D01*
X50650000Y-21575000D02*
X63650000Y-21575000D01*
X250675000Y-21575000D02*
G75*
G03*
X250175000Y-22075000I0J-500000D01*
G01*
X320825000Y-92725000D02*
G75*
G03*
X321325000Y-92225000I0J500000D01*
G01*
X264962500Y26050000D02*
G75*
G03*
X264462500Y25550000I0J-500000D01*
G01*
X345925000Y-21575000D02*
X358925000Y-21575000D01*
X235600000Y25550000D02*
G75*
G03*
X235100000Y26050000I-500000J0D01*
G01*
X173975000Y-54125000D02*
G75*
G03*
X174475000Y-54625000I500000J0D01*
G01*
X-10553408Y36679997D02*
G75*
G03*
X-12762501Y34025000I491597J-2655571D01*
G01*
X122087500Y26050000D02*
X135087500Y26050000D01*
X326875000Y-35575000D02*
X339875000Y-35575000D01*
X249974997Y-24275000D02*
G75*
G03*
X250174996Y-24075001I0J199999D01*
G01*
X187437500Y-122739477D02*
G75*
G03*
X188026987Y-123231404I500000J0D01*
G01*
X31047867Y33725000D02*
G75*
G03*
X28735288Y32418548I0J-2700000D01*
G01*
X203049999Y26050000D02*
G75*
G03*
X202549999Y25550000I0J-500000D01*
G01*
X49362500Y-92725000D02*
G75*
G03*
X49862500Y-92225000I0J500000D01*
G01*
X173687500Y6500000D02*
G75*
G03*
X173187500Y7000000I-500000J0D01*
G01*
X74462499Y-78725000D02*
X87462499Y-78725000D01*
X268937500Y-41125000D02*
G75*
G03*
X268437500Y-40625000I-500000J0D01*
G01*
X116824999Y-41125000D02*
X116824999Y-54125000D01*
X54912500Y-92225000D02*
G75*
G03*
X55412500Y-92725000I500000J0D01*
G01*
X54625000Y-41125000D02*
G75*
G03*
X54125000Y-40625000I-500000J0D01*
G01*
X111274999Y-54625000D02*
G75*
G03*
X111774999Y-54125000I0J500000D01*
G01*
X155424999Y-40625000D02*
G75*
G03*
X154924999Y-41125000I0J-500000D01*
G01*
X283512500Y-116037500D02*
G75*
G03*
X284012500Y-116537500I500000J0D01*
G01*
X98274999Y-40625000D02*
G75*
G03*
X97774999Y-41125000I0J-500000D01*
G01*
X22075000Y-54625000D02*
X35075000Y-54625000D01*
X19193750Y-98274999D02*
X19193750Y-111274999D01*
X320825000Y-35575000D02*
G75*
G03*
X321325000Y-35075000I0J500000D01*
G01*
X216549999Y-98274999D02*
X216549999Y-111274999D01*
X345925000Y-35575000D02*
X358925000Y-35575000D01*
X183212500Y-79225000D02*
G75*
G03*
X182712500Y-78725000I-500000J0D01*
G01*
X345925000Y-21575000D02*
G75*
G03*
X345425000Y-22075000I0J-500000D01*
G01*
X160187500Y-7000000D02*
X173187500Y-7000000D01*
X326375000Y-6500000D02*
G75*
G03*
X326875000Y-7000000I500000J0D01*
G01*
X365475001Y-86311999D02*
G75*
G03*
X365975001Y-86811999I500000J0D01*
G01*
X367175001Y-64350004D02*
X367175000Y-65388000D01*
X73175000Y-54625000D02*
G75*
G03*
X73675000Y-54125000I0J500000D01*
G01*
X19106254Y-90024999D02*
X20144250Y-90025000D01*
X92225000Y-7000000D02*
G75*
G03*
X92725000Y-6500000I0J500000D01*
G01*
X140637500Y12550000D02*
G75*
G03*
X141137500Y12050000I500000J0D01*
G01*
X241150000Y-7000000D02*
X254150000Y-7000000D01*
X103037500Y7000000D02*
X116037500Y7000000D01*
X75393763Y-122009374D02*
G75*
G03*
X72259067Y-120274999I-3134696J-1965625D01*
G01*
X315412000Y-99274999D02*
X315412000Y-100274999D01*
X316062500Y-7000000D02*
G75*
G03*
X316562500Y-6500000I0J500000D01*
G01*
X59675000Y25550000D02*
X59675000Y12550000D01*
X345425000Y-35075000D02*
G75*
G03*
X345925000Y-35575000I500000J0D01*
G01*
X77198013Y36681405D02*
G75*
G03*
X75393763Y35459375I483231J-2656405D01*
G01*
X239855750Y-60675000D02*
X245855750Y-60675000D01*
X103037500Y-73675000D02*
X116037500Y-73675000D01*
X202262500Y-79225000D02*
G75*
G03*
X201762500Y-78725000I-500000J0D01*
G01*
X340427133Y-120274999D02*
G75*
G03*
X342739712Y-118968547I0J2700000D01*
G01*
X116537500Y25550000D02*
X116537500Y12550000D01*
X203049999Y7000000D02*
G75*
G03*
X202549999Y6500000I0J-500000D01*
G01*
X264962500Y12050000D02*
X277962500Y12050000D01*
X31100000Y-22075000D02*
X31100000Y-35075000D01*
X77937500Y-73675000D02*
G75*
G03*
X78437500Y-73175000I0J500000D01*
G01*
X116037500Y12050000D02*
G75*
G03*
X116537500Y12550000I0J500000D01*
G01*
X-4618750Y-111274999D02*
G75*
G03*
X-4118750Y-111774999I500000J0D01*
G01*
X164450000Y-35075000D02*
G75*
G03*
X164950000Y-35575000I500000J0D01*
G01*
X359425000Y-79225000D02*
X359425000Y-92225000D01*
X-7000000Y-35075000D02*
G75*
G03*
X-6500000Y-35575000I500000J0D01*
G01*
X83581237Y35459375D02*
G75*
G03*
X86715933Y33725000I3134696J1965625D01*
G01*
X55412500Y-92725000D02*
X68412500Y-92725000D01*
X188762500Y-78725000D02*
X201762500Y-78725000D01*
X375975001Y-88249999D02*
X377975001Y-88249999D01*
X340375000Y-60175000D02*
G75*
G03*
X339875000Y-59675000I-500000J0D01*
G01*
X263231750Y-75175000D02*
G75*
G03*
X263731749Y-75675001I500000J-1D01*
G01*
X183500000Y-35075000D02*
G75*
G03*
X184000000Y-35575000I500000J0D01*
G01*
X381437500Y-120274999D02*
X381437500Y-122738330D01*
X321325000Y-22075000D02*
G75*
G03*
X320825000Y-21575000I-500000J0D01*
G01*
X316562500Y6500000D02*
G75*
G03*
X316062500Y7000000I-500000J0D01*
G01*
X107800000Y-21575000D02*
G75*
G03*
X107300000Y-22075000I0J-500000D01*
G01*
X127927133Y-120274999D02*
G75*
G03*
X130239712Y-118968547I0J2700000D01*
G01*
X222100000Y-111774999D02*
X235100000Y-111774999D01*
X40337500Y-60175000D02*
G75*
G03*
X39837500Y-59675000I-500000J0D01*
G01*
X265613000Y-37075000D02*
G75*
G03*
X266112999Y-37575001I500000J-1D01*
G01*
X233000000Y-83225000D02*
X233306250Y-83225000D01*
X345425000Y-41125000D02*
X345425000Y-54125000D01*
X114943750Y-97774999D02*
G75*
G03*
X114443750Y-98274999I0J-500000D01*
G01*
X284012500Y-59675000D02*
X297012500Y-59675000D01*
X340375000Y-60175000D02*
X340375000Y-73175000D01*
X235100000Y-7000000D02*
G75*
G03*
X235600000Y-6500000I0J500000D01*
G01*
X233506250Y-92225000D02*
X233506249Y-88424999D01*
X265613000Y-37075000D02*
X265613000Y-33075000D01*
X203049999Y7000000D02*
X216049999Y7000000D01*
X73675000Y6500000D02*
G75*
G03*
X73175000Y7000000I-500000J0D01*
G01*
X345925000Y-59675000D02*
X358925000Y-59675000D01*
X297012500Y12050000D02*
G75*
G03*
X297512500Y12550000I0J500000D01*
G01*
X-12762500Y-120575000D02*
X-12762500Y34025000D01*
X36362500Y-78725000D02*
G75*
G03*
X35862500Y-79225000I0J-500000D01*
G01*
X168424999Y-54625000D02*
G75*
G03*
X168924999Y-54125000I0J500000D01*
G01*
X20844250Y-79725000D02*
G75*
G03*
X20344250Y-80225000I0J-500000D01*
G01*
X250175000Y-22075000D02*
X250175000Y-24075000D01*
X221600000Y-98274999D02*
X221600000Y-111274999D01*
X351047867Y33725000D02*
G75*
G03*
X348735288Y32418548I0J-2700000D01*
G01*
X184000000Y7000000D02*
X197000000Y7000000D01*
X64937500Y-59675000D02*
X77937500Y-59675000D01*
X140637500Y-60175000D02*
X140637500Y-73175000D01*
X22075000Y7000000D02*
X35075000Y7000000D01*
X45100000Y-22075000D02*
G75*
G03*
X44600000Y-21575000I-500000J0D01*
G01*
X102537500Y12550000D02*
G75*
G03*
X103037500Y12050000I500000J0D01*
G01*
X130824999Y-41125000D02*
X130824999Y-54125000D01*
X20844250Y-79725000D02*
X26844250Y-79725000D01*
X32693750Y-111774999D02*
G75*
G03*
X33193750Y-111274999I0J500000D01*
G01*
X60175000Y-40625000D02*
G75*
G03*
X59675000Y-41125000I0J-500000D01*
G01*
X362975000Y-41712000D02*
G75*
G03*
X362475000Y-42212000I0J-500000D01*
G01*
X283512500Y6500000D02*
X283512500Y-6500000D01*
X141137500Y12050000D02*
X154137500Y12050000D01*
X114443750Y-98274999D02*
X114443750Y-111274999D01*
X188026987Y-123231404D02*
G75*
G03*
X189831237Y-122009374I-483231J2656405D01*
G01*
X174943750Y-99274999D02*
X174943750Y-113274999D01*
X277962500Y-7000000D02*
G75*
G03*
X278462500Y-6500000I0J500000D01*
G01*
X643749Y-59675000D02*
G75*
G03*
X143749Y-60175000I0J-500000D01*
G01*
X173687500Y-60175000D02*
X173687500Y-73175000D01*
X164162500Y-79225000D02*
X164162500Y-92225000D01*
X141137500Y-59675000D02*
G75*
G03*
X140637500Y-60175000I0J-500000D01*
G01*
X202549999Y-6500000D02*
G75*
G03*
X203049999Y-7000000I500000J0D01*
G01*
X187437500Y-120274999D02*
G75*
G03*
X184037500Y-120274999I-1700000J0D01*
G01*
X326875000Y26050000D02*
X339875000Y26050000D01*
X188026987Y36681405D02*
G75*
G03*
X187437500Y36189478I-89487J-491927D01*
G01*
X326875000Y-92725000D02*
X339875000Y-92725000D01*
X358925000Y-73675000D02*
G75*
G03*
X359425000Y-73175000I0J500000D01*
G01*
X342739712Y32418548D02*
G75*
G03*
X348735288Y32418549I2997788J1806452D01*
G01*
X177950000Y-35575000D02*
G75*
G03*
X178450000Y-35075000I0J500000D01*
G01*
X150662500Y-92725000D02*
X163662500Y-92725000D01*
X221600000Y-35075000D02*
G75*
G03*
X222100000Y-35575000I500000J0D01*
G01*
X378037500Y-122739477D02*
X378037500Y-120274999D01*
X247793750Y-73175000D02*
G75*
G03*
X248293749Y-73675001I500000J-1D01*
G01*
X150662500Y-78725000D02*
G75*
G03*
X150162500Y-79225000I0J-500000D01*
G01*
X366975001Y-65587999D02*
G75*
G03*
X367175000Y-65388000I0J199999D01*
G01*
X20344250Y-94225000D02*
X20344250Y-90225000D01*
X248293750Y-73675000D02*
X261293750Y-73675000D01*
X307825000Y-21575000D02*
G75*
G03*
X307325000Y-22075000I0J-500000D01*
G01*
X376975000Y-72588000D02*
G75*
G03*
X377475000Y-72088000I0J500000D01*
G01*
X173687500Y25550000D02*
G75*
G03*
X173187500Y26050000I-500000J0D01*
G01*
X128443750Y-98274999D02*
X128443750Y-111274999D01*
X212575000Y-40625000D02*
G75*
G03*
X212075000Y-41125000I0J-500000D01*
G01*
X235239712Y32418548D02*
G75*
G03*
X241235288Y32418549I2997788J1806452D01*
G01*
X381437500Y-122738330D02*
G75*
G03*
X382028409Y-123229996I500000J0D01*
G01*
X107800000Y-21575000D02*
X120799999Y-21575000D01*
X141137500Y26050000D02*
G75*
G03*
X140637500Y25550000I0J-500000D01*
G01*
X326375000Y-54125000D02*
G75*
G03*
X326875000Y-54625000I500000J0D01*
G01*
X83199999Y-22075000D02*
G75*
G03*
X82699999Y-21575000I-500000J0D01*
G01*
X81187500Y36189478D02*
X81187500Y33725000D01*
X-6500000Y7000000D02*
G75*
G03*
X-7000000Y6500000I0J-500000D01*
G01*
X57006250Y-98274999D02*
G75*
G03*
X56506250Y-97774999I-500000J0D01*
G01*
X264375004Y-32874999D02*
X265413000Y-32875000D01*
X45387500Y-73175000D02*
G75*
G03*
X45887500Y-73675000I500000J0D01*
G01*
X380475001Y-104187999D02*
G75*
G03*
X379975002Y-103687998I-500000J1D01*
G01*
X263031746Y-62375001D02*
X261993750Y-62375000D01*
X365975001Y-110687999D02*
X379975001Y-110687999D01*
X188762500Y-92725000D02*
X201762500Y-92725000D01*
X235100000Y12050000D02*
G75*
G03*
X235600000Y12550000I0J500000D01*
G01*
X264175000Y-33075000D02*
X264175000Y-35075000D01*
X68412500Y-92725000D02*
G75*
G03*
X68912500Y-92225000I0J500000D01*
G01*
X216049999Y-35575000D02*
G75*
G03*
X216549999Y-35075000I0J500000D01*
G01*
X184000000Y26050000D02*
G75*
G03*
X183500000Y25550000I0J-500000D01*
G01*
X376975000Y-65588000D02*
X375975000Y-65588000D01*
X203049999Y-21575000D02*
X216049999Y-21575000D01*
X326875000Y12050000D02*
X339875000Y12050000D01*
X138547867Y33725000D02*
G75*
G03*
X136235288Y32418548I0J-2700000D01*
G01*
X339875000Y-73675000D02*
G75*
G03*
X340375000Y-73175000I0J500000D01*
G01*
X21575000Y-54125000D02*
G75*
G03*
X22075000Y-54625000I500000J0D01*
G01*
X311643763Y-122009374D02*
G75*
G03*
X313448013Y-123231404I2287481J1434375D01*
G01*
X330850000Y-109274999D02*
X330850000Y-111274999D01*
X22075000Y7000000D02*
G75*
G03*
X21575000Y6500000I0J-500000D01*
G01*
X235600000Y-22075000D02*
X235600000Y-35075000D01*
X12549999Y-35575000D02*
X25550000Y-35575000D01*
X41125000Y7000000D02*
G75*
G03*
X40625000Y6500000I0J-500000D01*
G01*
X98274999Y-54625000D02*
X111274999Y-54625000D01*
X160187500Y26050000D02*
X173187500Y26050000D01*
X377975000Y-7000000D02*
G75*
G03*
X378475000Y-6500000I0J500000D01*
G01*
X202549999Y25550000D02*
X202549999Y12550000D01*
X246555754Y-70974999D02*
X247593750Y-70975000D01*
X307325000Y-54125000D02*
G75*
G03*
X307825000Y-54625000I500000J0D01*
G01*
X284012500Y-40625000D02*
X297012500Y-40625000D01*
X122087500Y-59675000D02*
G75*
G03*
X121587500Y-60175000I0J-500000D01*
G01*
X-6562500Y-120275000D02*
X-6562500Y-122739477D01*
X358925000Y-111774999D02*
G75*
G03*
X359425000Y-111274999I0J500000D01*
G01*
X339875000Y-35575000D02*
G75*
G03*
X340375000Y-35075000I0J500000D01*
G01*
X106512499Y-92725000D02*
G75*
G03*
X107012499Y-92225000I0J500000D01*
G01*
X365975001Y-103687999D02*
G75*
G03*
X365475001Y-104187999I0J-500000D01*
G01*
X49862500Y-79225000D02*
X49862500Y-92225000D01*
X332288000Y-113274999D02*
G75*
G03*
X332787999Y-113775000I500000J-1D01*
G01*
X5406250Y-78725000D02*
G75*
G03*
X4906250Y-79225000I0J-500000D01*
G01*
X77787500Y36189478D02*
G75*
G03*
X77198013Y36681405I-500000J0D01*
G01*
X49862500Y-79225000D02*
G75*
G03*
X49362500Y-78725000I-500000J0D01*
G01*
X73675000Y6500000D02*
X73675000Y-6500000D01*
X54125000Y-7000000D02*
G75*
G03*
X54625000Y-6500000I0J500000D01*
G01*
X155424999Y-40625000D02*
X168424999Y-40625000D01*
X345425000Y-111274999D02*
G75*
G03*
X345925000Y-111774999I500000J0D01*
G01*
X184000000Y-7000000D02*
X197000000Y-7000000D01*
X330850001Y-100275000D02*
G75*
G03*
X331050000Y-100474999I199999J0D01*
G01*
X375775001Y-103487996D02*
G75*
G03*
X375975000Y-103687995I199999J0D01*
G01*
X144612499Y-92725000D02*
G75*
G03*
X145112499Y-92225000I0J500000D01*
G01*
X22075000Y26050000D02*
G75*
G03*
X21575000Y25550000I0J-500000D01*
G01*
X181643763Y-122009374D02*
G75*
G03*
X183448013Y-123231404I2287481J1434375D01*
G01*
X359425000Y-41125000D02*
G75*
G03*
X358925000Y-40625000I-500000J0D01*
G01*
X277962500Y-116537500D02*
G75*
G03*
X278462500Y-116037500I0J500000D01*
G01*
X307325000Y-73175000D02*
G75*
G03*
X307825000Y-73675000I500000J0D01*
G01*
X243547867Y33725000D02*
X284759067Y33725000D01*
X183500000Y25550000D02*
X183500000Y12550000D01*
X297512500Y-103037500D02*
X297512500Y-116037500D01*
X378475000Y-22075000D02*
X378475000Y-35075000D01*
X339288000Y-99274999D02*
G75*
G03*
X338788000Y-98774999I-500000J0D01*
G01*
X266113000Y-22575000D02*
G75*
G03*
X265613000Y-23075000I0J-500000D01*
G01*
X83987500Y-59675000D02*
X96987500Y-59675000D01*
X364475001Y-101749999D02*
X364475001Y-88749999D01*
X143749Y-73175000D02*
G75*
G03*
X643749Y-73675000I500000J0D01*
G01*
X216549999Y-22075000D02*
X216549999Y-35075000D01*
X21575000Y6500000D02*
X21575000Y-6500000D01*
X366975001Y-50149999D02*
G75*
G03*
X367175000Y-49950000I0J199999D01*
G01*
X160187500Y-59675000D02*
G75*
G03*
X159687500Y-60175000I0J-500000D01*
G01*
X20427133Y-120274999D02*
X-1034066Y-120274999D01*
X164162500Y-79225000D02*
G75*
G03*
X163662500Y-78725000I-500000J0D01*
G01*
X365975001Y-103687999D02*
X366975001Y-103687999D01*
X207812500Y-78725000D02*
G75*
G03*
X207312500Y-79225000I0J-500000D01*
G01*
X375974999Y-64150001D02*
G75*
G03*
X375775000Y-64350000I0J-199999D01*
G01*
X140637500Y-73175000D02*
G75*
G03*
X141137500Y-73675000I500000J0D01*
G01*
X183448013Y-123231404D02*
G75*
G03*
X184037500Y-122739477I89487J491927D01*
G01*
X362475000Y-72088000D02*
G75*
G03*
X362975000Y-72588000I500000J0D01*
G01*
X264962500Y7000000D02*
G75*
G03*
X264462500Y6500000I0J-500000D01*
G01*
X378037500Y33725000D02*
X378037500Y36189478D01*
X19693750Y-97774999D02*
X32693750Y-97774999D01*
X254650000Y6500000D02*
X254650000Y-6500000D01*
X297512500Y25550000D02*
G75*
G03*
X297012500Y26050000I-500000J0D01*
G01*
X321325000Y-41125000D02*
G75*
G03*
X320825000Y-40625000I-500000J0D01*
G01*
X68912500Y-79225000D02*
X68912500Y-92225000D01*
X364975001Y-88249999D02*
X366975001Y-88249999D01*
X81776987Y-123231404D02*
G75*
G03*
X83581237Y-122009374I-483231J2656405D01*
G01*
X315412000Y-113274999D02*
X315412000Y-109274999D01*
X139850000Y-35575000D02*
G75*
G03*
X140350000Y-35075000I0J500000D01*
G01*
X232927133Y-120274999D02*
X192965933Y-120274999D01*
X379975001Y-103687999D02*
X375975001Y-103687999D01*
X154137500Y-73675000D02*
G75*
G03*
X154637500Y-73175000I0J500000D01*
G01*
X189831237Y35459375D02*
G75*
G03*
X192965933Y33725000I3134696J1965625D01*
G01*
X380475001Y-80311999D02*
G75*
G03*
X379975001Y-79811999I-500000J0D01*
G01*
X64937500Y-73675000D02*
X77937500Y-73675000D01*
X375975001Y-102249999D02*
X377975001Y-102249999D01*
X183212500Y-79225000D02*
X183212500Y-92225000D01*
X31600000Y-21575000D02*
X44600000Y-21575000D01*
X240650000Y12550000D02*
G75*
G03*
X241150000Y12050000I500000J0D01*
G01*
X264462500Y-116037500D02*
G75*
G03*
X264962500Y-116537500I500000J0D01*
G01*
X98274999Y-40625000D02*
X111274999Y-40625000D01*
X114443750Y-111274999D02*
G75*
G03*
X114943750Y-111774999I500000J0D01*
G01*
X92225000Y12050000D02*
G75*
G03*
X92725000Y12550000I0J500000D01*
G01*
X135587500Y25550000D02*
G75*
G03*
X135087500Y26050000I-500000J0D01*
G01*
X9381250Y-98274999D02*
G75*
G03*
X8881250Y-97774999I-500000J0D01*
G01*
X183500000Y-6500000D02*
G75*
G03*
X184000000Y-7000000I500000J0D01*
G01*
X261993754Y-70974999D02*
X263031750Y-70975000D01*
X330850000Y-98274999D02*
X330850000Y-100274999D01*
X231625000Y-54625000D02*
X244625000Y-54625000D01*
X203049999Y-21575000D02*
G75*
G03*
X202549999Y-22075000I0J-500000D01*
G01*
X297512500Y-22075000D02*
G75*
G03*
X297012500Y-21575000I-500000J0D01*
G01*
X264462500Y-96987500D02*
G75*
G03*
X264962500Y-97487500I500000J0D01*
G01*
X122087500Y-59675000D02*
X135087500Y-59675000D01*
X35575000Y-41125000D02*
X35575000Y-54125000D01*
X378475000Y-50650000D02*
X378475000Y-63650000D01*
X284012500Y-40625000D02*
G75*
G03*
X283512500Y-41125000I0J-500000D01*
G01*
X193525000Y-54625000D02*
X206525000Y-54625000D01*
X254937499Y-41125000D02*
X254937499Y-54125000D01*
X231625000Y-40625000D02*
X244625000Y-40625000D01*
X340375000Y-79225000D02*
G75*
G03*
X339875000Y-78725000I-500000J0D01*
G01*
X168443750Y-113774999D02*
X174443750Y-113774999D01*
X375775000Y-88049995D02*
X375775001Y-87011999D01*
X290287500Y33725000D02*
G75*
G03*
X293687500Y33725000I1700000J0D01*
G01*
X307325000Y-35075000D02*
G75*
G03*
X307825000Y-35575000I500000J0D01*
G01*
X362975000Y-65588000D02*
X366975000Y-65588000D01*
X211787500Y-60175000D02*
X211787500Y-73175000D01*
X60175000Y-40625000D02*
X73175000Y-40625000D01*
X326375000Y-79225000D02*
X326375000Y-92225000D01*
X331050003Y-109074999D02*
G75*
G03*
X330850004Y-109274998I0J-199999D01*
G01*
X247506250Y-79225000D02*
X247506250Y-92225000D01*
X-6500000Y-35575000D02*
X6499999Y-35575000D01*
X57006250Y-98274999D02*
X57006250Y-111274999D01*
X377975000Y-64150000D02*
X375975000Y-64150000D01*
X197500000Y25550000D02*
G75*
G03*
X197000000Y26050000I-500000J0D01*
G01*
X5406250Y-78725000D02*
X18406250Y-78725000D01*
X140350000Y-22075000D02*
G75*
G03*
X139850000Y-21575000I-500000J0D01*
G01*
X235600000Y25550000D02*
X235600000Y12550000D01*
X41125000Y-7000000D02*
X54125000Y-7000000D01*
X264462500Y-103037500D02*
X264462500Y-116037500D01*
X145900000Y-35575000D02*
X158900000Y-35575000D01*
X643749Y-73675000D02*
X13643749Y-73675000D01*
X375775000Y-65387997D02*
G75*
G03*
X375974999Y-65587996I199999J0D01*
G01*
X25550000Y-35575000D02*
G75*
G03*
X26050000Y-35075000I0J500000D01*
G01*
X379975001Y-79811999D02*
X366975001Y-79811999D01*
X207312500Y-79225000D02*
X207312500Y-92225000D01*
X167943750Y-99274999D02*
X167943750Y-113274999D01*
X197500000Y-22075000D02*
G75*
G03*
X197000000Y-21575000I-500000J0D01*
G01*
X20344249Y-90224999D02*
G75*
G03*
X20144250Y-90025000I-199999J0D01*
G01*
X297512500Y-60175000D02*
G75*
G03*
X297012500Y-59675000I-500000J0D01*
G01*
X278462500Y6500000D02*
X278462500Y-6500000D01*
X233506250Y-79225000D02*
X233506250Y-83025000D01*
X45887500Y-73675000D02*
X58887499Y-73675000D01*
X297512500Y-22075000D02*
X297512500Y-35075000D01*
X41125000Y-40625000D02*
G75*
G03*
X40625000Y-41125000I0J-500000D01*
G01*
X241150000Y7000000D02*
X254150000Y7000000D01*
X197787500Y-73175000D02*
G75*
G03*
X198287500Y-73675000I500000J0D01*
G01*
X88750000Y-35575000D02*
X101750000Y-35575000D01*
X86715933Y33725000D02*
X127927133Y33725000D01*
X359425000Y-60175000D02*
X359425000Y-73175000D01*
X235239712Y32418548D02*
G75*
G03*
X232927133Y33725000I-2312579J-1393548D01*
G01*
X64149999Y-22075000D02*
X64149999Y-35075000D01*
X303062500Y26050000D02*
X316062500Y26050000D01*
X234006250Y-78725000D02*
X247006250Y-78725000D01*
X78725000Y-41125000D02*
X78725000Y-54125000D01*
X283512500Y-60175000D02*
X283512500Y-73175000D01*
X270231750Y-61175000D02*
X270231750Y-62175000D01*
X40625000Y-41125000D02*
X40625000Y-54125000D01*
X284012500Y-35575000D02*
X297012500Y-35575000D01*
X93512499Y-92725000D02*
X106512499Y-92725000D01*
X216049999Y-111774999D02*
G75*
G03*
X216549999Y-111274999I0J500000D01*
G01*
X-6562500Y-120275000D02*
G75*
G03*
X-9962500Y-120275000I-1700000J0D01*
G01*
X345925000Y-97774999D02*
G75*
G03*
X345425000Y-98274999I0J-500000D01*
G01*
X643749Y-59675000D02*
X13643749Y-59675000D01*
X178737499Y-73175000D02*
G75*
G03*
X179237499Y-73675000I500000J0D01*
G01*
X103037500Y-7000000D02*
X116037500Y-7000000D01*
X307325000Y-60175000D02*
X307325000Y-73175000D01*
X316649996Y-100475000D02*
X315612000Y-100474999D01*
X359425000Y-60175000D02*
G75*
G03*
X358925000Y-59675000I-500000J0D01*
G01*
X326875000Y7000000D02*
X339875000Y7000000D01*
X135087500Y-73675000D02*
G75*
G03*
X135587500Y-73175000I0J500000D01*
G01*
X235600000Y6500000D02*
X235600000Y-6500000D01*
X284012500Y7000000D02*
G75*
G03*
X283512500Y6500000I0J-500000D01*
G01*
X83487500Y-60175000D02*
X83487500Y-73175000D01*
X169212500Y-79225000D02*
X169212500Y-92225000D01*
X35862500Y-92225000D02*
G75*
G03*
X36362500Y-92725000I500000J0D01*
G01*
X362475000Y-66088000D02*
X362475000Y-72088000D01*
X181643763Y-122009374D02*
G75*
G03*
X178509067Y-120274999I-3134696J-1965625D01*
G01*
X308912000Y-98774999D02*
X314912000Y-98774999D01*
X302562500Y6500000D02*
X302562500Y-6500000D01*
X8000000Y28800000D02*
G75*
G03*
X7500000Y29300000I-500000J0D01*
G01*
X245412500Y-103037500D02*
X245412500Y-116037500D01*
X86715933Y-120274999D02*
G75*
G03*
X83581237Y-122009374I0J-3700000D01*
G01*
X73675000Y-41125000D02*
G75*
G03*
X73175000Y-40625000I-500000J0D01*
G01*
X154924999Y-41125000D02*
X154924999Y-54125000D01*
X121587500Y-73175000D02*
G75*
G03*
X122087500Y-73675000I500000J0D01*
G01*
X81776987Y36681405D02*
G75*
G03*
X81187500Y36189478I-89487J-491927D01*
G01*
X187437500Y36189478D02*
X187437500Y33725000D01*
X20144247Y-81425000D02*
G75*
G03*
X20344246Y-81225001I0J199999D01*
G01*
X278462500Y-83987500D02*
G75*
G03*
X277962500Y-83487500I-500000J0D01*
G01*
X307825000Y-40625000D02*
X320825000Y-40625000D01*
X112562500Y-78725000D02*
X125562500Y-78725000D01*
X339875000Y12050000D02*
G75*
G03*
X340375000Y12550000I0J500000D01*
G01*
X364475000Y25550000D02*
X364475000Y12550000D01*
X6499999Y-7000000D02*
G75*
G03*
X6999999Y-6500000I0J500000D01*
G01*
X11762500Y-41125000D02*
G75*
G03*
X11262500Y-40625000I-500000J0D01*
G01*
X263731750Y-60675000D02*
G75*
G03*
X263231750Y-61175000I0J-500000D01*
G01*
X159687500Y-73175000D02*
G75*
G03*
X160187500Y-73675000I500000J0D01*
G01*
X43506250Y-97774999D02*
G75*
G03*
X43006250Y-98274999I0J-500000D01*
G01*
X72259067Y33725000D02*
G75*
G03*
X75393763Y35459375I0J3700000D01*
G01*
X60175000Y7000000D02*
X73175000Y7000000D01*
X93512499Y-78725000D02*
G75*
G03*
X93012499Y-79225000I0J-500000D01*
G01*
X239855750Y-60675000D02*
G75*
G03*
X239355750Y-61175000I0J-500000D01*
G01*
X60175000Y-7000000D02*
X73175000Y-7000000D01*
X365975001Y-86811999D02*
X366975001Y-86811999D01*
X241737000Y-23075000D02*
X241737000Y-37075000D01*
X232927133Y-120274999D02*
G75*
G03*
X235239712Y-118968547I0J2700000D01*
G01*
X221600000Y6500000D02*
X221600000Y-6500000D01*
X6999999Y6500000D02*
X6999999Y-6500000D01*
X107300000Y-35075000D02*
G75*
G03*
X107800000Y-35575000I500000J0D01*
G01*
X326375000Y-73175000D02*
G75*
G03*
X326875000Y-73675000I500000J0D01*
G01*
X141137500Y26050000D02*
X154137500Y26050000D01*
X313448013Y-123231404D02*
G75*
G03*
X314037500Y-122739477I89487J491927D01*
G01*
X246355750Y-61175000D02*
X246355750Y-62175000D01*
X-1737500Y-40625000D02*
X11262500Y-40625000D01*
X54625000Y25550000D02*
X54625000Y12550000D01*
X264462500Y25550000D02*
X264462500Y12550000D01*
X60175000Y12050000D02*
X73175000Y12050000D01*
X382028409Y-123229996D02*
G75*
G03*
X384237500Y-120574999I-490909J2654997D01*
G01*
X247793750Y-71175000D02*
X247793750Y-73175000D01*
X136375000Y-54625000D02*
X149375000Y-54625000D01*
X362975000Y-65588000D02*
G75*
G03*
X362474999Y-66087999I-1J-500000D01*
G01*
X378475000Y-22075000D02*
G75*
G03*
X377975000Y-21575000I-500000J0D01*
G01*
X362475000Y-48212000D02*
G75*
G03*
X362974999Y-48712001I500000J-1D01*
G01*
X241737000Y-37075000D02*
G75*
G03*
X242237000Y-37575000I500000J0D01*
G01*
X173687500Y25550000D02*
X173687500Y12550000D01*
X203049999Y-7000000D02*
X216049999Y-7000000D01*
X-7500000Y29300000D02*
X7500000Y29300000D01*
X73962499Y-79225000D02*
X73962499Y-92225000D01*
X82699999Y-35575000D02*
G75*
G03*
X83199999Y-35075000I0J500000D01*
G01*
X159687500Y25550000D02*
X159687500Y12550000D01*
X216549999Y25550000D02*
G75*
G03*
X216049999Y26050000I-500000J0D01*
G01*
X198287500Y-73675000D02*
X211287500Y-73675000D01*
X121299999Y-22075000D02*
X121299999Y-35075000D01*
X326375000Y-92225000D02*
G75*
G03*
X326875000Y-92725000I500000J0D01*
G01*
X92725000Y-41125000D02*
X92725000Y-54125000D01*
X77198013Y-123231404D02*
G75*
G03*
X77787500Y-122739477I89487J491927D01*
G01*
X263231750Y-61175000D02*
X263231750Y-62175000D01*
X187975000Y-41125000D02*
G75*
G03*
X187475000Y-40625000I-500000J0D01*
G01*
X378475000Y25550000D02*
G75*
G03*
X377975000Y26050000I-500000J0D01*
G01*
X73675000Y25550000D02*
X73675000Y12550000D01*
X3468250Y-80225000D02*
X3468250Y-81225000D01*
X364475000Y12550000D02*
G75*
G03*
X364975000Y12050000I500000J0D01*
G01*
X22075000Y-40625000D02*
X35075000Y-40625000D01*
X122087500Y-73675000D02*
X135087500Y-73675000D01*
X307825000Y-21575000D02*
X320825000Y-21575000D01*
X40625000Y12550000D02*
G75*
G03*
X41125000Y12050000I500000J0D01*
G01*
X4706247Y-81425000D02*
G75*
G03*
X4906246Y-81225001I0J199999D01*
G01*
X345425000Y-60175000D02*
X345425000Y-73175000D01*
X79225000Y-40625000D02*
G75*
G03*
X78725000Y-41125000I0J-500000D01*
G01*
X241235288Y-118968548D02*
G75*
G03*
X243547868Y-120274999I2312579J1393549D01*
G01*
X184000000Y-21575000D02*
G75*
G03*
X183500000Y-22075000I0J-500000D01*
G01*
X8000000Y28800000D02*
X8000000Y15300000D01*
X248737001Y-24075001D02*
G75*
G03*
X248937000Y-24275000I199999J0D01*
G01*
X248293750Y-59675000D02*
G75*
G03*
X247793750Y-60175000I0J-500000D01*
G01*
X221600000Y12550000D02*
G75*
G03*
X222100000Y12050000I500000J0D01*
G01*
X303062500Y7000000D02*
X316062500Y7000000D01*
X149375000Y-54625000D02*
G75*
G03*
X149875000Y-54125000I0J500000D01*
G01*
X117324999Y-54625000D02*
X130324999Y-54625000D01*
X60175000Y26050000D02*
G75*
G03*
X59675000Y25550000I0J-500000D01*
G01*
X-3031750Y-94725000D02*
X2968250Y-94725000D01*
X377975000Y-35575000D02*
G75*
G03*
X378475000Y-35075000I0J500000D01*
G01*
X111774999Y-41125000D02*
G75*
G03*
X111274999Y-40625000I-500000J0D01*
G01*
X107156250Y-101203125D02*
X83343750Y-101203125D01*
X302562500Y25550000D02*
X302562500Y12550000D01*
X12549999Y-21575000D02*
X25550000Y-21575000D01*
X326875000Y-40625000D02*
G75*
G03*
X326375000Y-41125000I0J-500000D01*
G01*
X173975000Y-41125000D02*
X173975000Y-54125000D01*
X248737000Y-23075000D02*
X248737000Y-24075000D01*
X18906251Y-81225001D02*
G75*
G03*
X19106250Y-81425000I199999J0D01*
G01*
X92725000Y25550000D02*
G75*
G03*
X92225000Y26050000I-500000J0D01*
G01*
X296081237Y35459375D02*
G75*
G03*
X294276987Y36681405I-2287481J-1434375D01*
G01*
X263031747Y-62375000D02*
G75*
G03*
X263231746Y-62175001I0J199999D01*
G01*
X54125000Y12050000D02*
G75*
G03*
X54625000Y12550000I0J500000D01*
G01*
X36362500Y-78725000D02*
X49362500Y-78725000D01*
X154637500Y-60175000D02*
X154637500Y-73175000D01*
X248237000Y-37575000D02*
G75*
G03*
X248737001Y-37075001I1J500000D01*
G01*
X345925000Y-97774999D02*
X358925000Y-97774999D01*
X216049999Y12050000D02*
G75*
G03*
X216549999Y12550000I0J500000D01*
G01*
X103037500Y26050000D02*
X116037500Y26050000D01*
X56506250Y-111774999D02*
G75*
G03*
X57006250Y-111274999I0J500000D01*
G01*
X241150000Y12050000D02*
X254150000Y12050000D01*
X184037500Y36189478D02*
G75*
G03*
X183448013Y36681405I-500000J0D01*
G01*
X297012500Y-54625000D02*
G75*
G03*
X297512500Y-54125000I0J500000D01*
G01*
X230837500Y-60175000D02*
G75*
G03*
X230337500Y-59675000I-500000J0D01*
G01*
X63650000Y-35575000D02*
G75*
G03*
X64150000Y-35075000I0J500000D01*
G01*
X22739712Y32418548D02*
G75*
G03*
X20427133Y33725000I-2312579J-1393548D01*
G01*
X261793750Y-71175000D02*
X261793750Y-73175000D01*
X263731750Y-75675000D02*
X269731750Y-75675000D01*
X297512500Y-103037500D02*
G75*
G03*
X297012500Y-102537500I-500000J0D01*
G01*
X-12762500Y-120575000D02*
G75*
G03*
X-10553410Y-123229998I2700689J572D01*
G01*
X198287500Y-59675000D02*
G75*
G03*
X197787500Y-60175000I0J-500000D01*
G01*
X-1034066Y33725000D02*
X20427133Y33725000D01*
X278462500Y6500000D02*
G75*
G03*
X277962500Y7000000I-500000J0D01*
G01*
X159687500Y6500000D02*
X159687500Y-6500000D01*
X31600000Y-35575000D02*
X44600000Y-35575000D01*
X345425000Y6500000D02*
X345425000Y-6500000D01*
X264962500Y26050000D02*
X277962500Y26050000D01*
X167943750Y-113274999D02*
G75*
G03*
X168443750Y-113774999I500000J0D01*
G01*
X136235287Y-118968548D02*
G75*
G03*
X130239713Y-118968547I-2997787J-1806451D01*
G01*
X359425000Y-22075000D02*
X359425000Y-35075000D01*
X26050000Y-22075000D02*
X26050000Y-35075000D01*
X278462500Y25550000D02*
X278462500Y12550000D01*
X18906250Y-79225000D02*
X18906250Y-81225000D01*
X35575000Y25550000D02*
G75*
G03*
X35075000Y26050000I-500000J0D01*
G01*
X359425000Y-41125000D02*
X359425000Y-54125000D01*
X121587500Y6500000D02*
X121587500Y-6500000D01*
X12049999Y-35075000D02*
G75*
G03*
X12549999Y-35575000I500000J0D01*
G01*
X79225000Y7000000D02*
X92225000Y7000000D01*
X290287500Y36189478D02*
G75*
G03*
X289698013Y36681405I-500000J0D01*
G01*
X140350000Y-22075000D02*
X140350000Y-35075000D01*
X81187500Y-120274999D02*
G75*
G03*
X77787500Y-120274999I-1700000J0D01*
G01*
X116037500Y-73675000D02*
G75*
G03*
X116537500Y-73175000I0J500000D01*
G01*
X74943750Y-99274999D02*
G75*
G03*
X74443750Y-98774999I-500000J0D01*
G01*
X247506250Y-79225000D02*
G75*
G03*
X247006250Y-78725000I-500000J0D01*
G01*
X247793750Y-60175000D02*
X247793750Y-62175000D01*
X50150000Y-35075000D02*
G75*
G03*
X50650000Y-35575000I500000J0D01*
G01*
X315412001Y-100275000D02*
G75*
G03*
X315612000Y-100474999I199999J0D01*
G01*
X140637500Y25550000D02*
X140637500Y12550000D01*
X235600000Y-98274999D02*
X235600000Y-111274999D01*
X73675000Y-41125000D02*
X73675000Y-54125000D01*
X126350000Y-22075000D02*
X126350000Y-35075000D01*
X381437500Y-120274999D02*
G75*
G03*
X378037500Y-120274999I-1700000J0D01*
G01*
X173687500Y6500000D02*
X173687500Y-6500000D01*
X384237500Y34025000D02*
G75*
G03*
X382028409Y36679997I-2700000J0D01*
G01*
X316062500Y12050000D02*
G75*
G03*
X316562500Y12550000I0J500000D01*
G01*
X35575000Y25550000D02*
X35575000Y12550000D01*
X221600000Y25550000D02*
X221600000Y12550000D01*
X4706246Y-81425001D02*
X3668250Y-81425000D01*
X233000000Y-88225000D02*
X233306250Y-88225000D01*
X216549999Y-22075000D02*
G75*
G03*
X216049999Y-21575000I-500000J0D01*
G01*
X278462500Y-83987500D02*
X278462500Y-96987500D01*
X64437500Y-60175000D02*
X64437500Y-73175000D01*
X78437500Y-60175000D02*
X78437500Y-73175000D01*
X136375000Y-40625000D02*
G75*
G03*
X135875000Y-41125000I0J-500000D01*
G01*
X43006250Y-111274999D02*
G75*
G03*
X43506250Y-111774999I500000J0D01*
G01*
X345425000Y-22075000D02*
X345425000Y-35075000D01*
X254650000Y6500000D02*
G75*
G03*
X254150000Y7000000I-500000J0D01*
G01*
X246355750Y-75175000D02*
X246355750Y-71175000D01*
X73175000Y-7000000D02*
G75*
G03*
X73675000Y-6500000I0J500000D01*
G01*
X364475001Y-101749999D02*
G75*
G03*
X364975001Y-102249999I500000J0D01*
G01*
X302562500Y12550000D02*
G75*
G03*
X303062500Y12050000I500000J0D01*
G01*
X183500000Y6500000D02*
X183500000Y-6500000D01*
X367175000Y-48912003D02*
G75*
G03*
X366975001Y-48712004I-199999J0D01*
G01*
X321325000Y-60175000D02*
X321325000Y-73175000D01*
X6499999Y-35575000D02*
G75*
G03*
X6999999Y-35075000I0J500000D01*
G01*
X168443750Y-98774999D02*
X174443750Y-98774999D01*
X-5973012Y-123231404D02*
G75*
G03*
X-4168762Y-122009374I-483231J2656405D01*
G01*
X184000000Y7000000D02*
G75*
G03*
X183500000Y6500000I0J-500000D01*
G01*
X184000000Y26050000D02*
X197000000Y26050000D01*
X367175000Y-64350003D02*
G75*
G03*
X366975001Y-64150004I-199999J0D01*
G01*
X-7500000Y29300000D02*
G75*
G03*
X-8000001Y28800001I-1J-500000D01*
G01*
X102537500Y-73175000D02*
G75*
G03*
X103037500Y-73675000I500000J0D01*
G01*
X382028409Y36679997D02*
G75*
G03*
X381437500Y36188331I-90909J-491666D01*
G01*
X293687500Y36189478D02*
X293687500Y33725000D01*
X315412000Y-99274999D02*
G75*
G03*
X314912000Y-98774999I-500000J0D01*
G01*
X130239712Y32418548D02*
G75*
G03*
X136235288Y32418549I2997788J1806452D01*
G01*
X283512500Y-103037500D02*
X283512500Y-116037500D01*
X316562500Y6500000D02*
X316562500Y-6500000D01*
X3468251Y-81225001D02*
G75*
G03*
X3668250Y-81425000I199999J0D01*
G01*
X246355750Y-61175000D02*
G75*
G03*
X245855750Y-60675000I-500000J0D01*
G01*
X263231749Y-71174999D02*
G75*
G03*
X263031750Y-70975000I-199999J0D01*
G01*
X318026987Y-123231404D02*
G75*
G03*
X319831237Y-122009374I-483231J2656405D01*
G01*
X376975000Y-41712000D02*
X362975000Y-41712000D01*
X202549999Y-35075000D02*
G75*
G03*
X203049999Y-35575000I500000J0D01*
G01*
X135587500Y6500000D02*
G75*
G03*
X135087500Y7000000I-500000J0D01*
G01*
X67943750Y-113274999D02*
G75*
G03*
X68443750Y-113774999I500000J0D01*
G01*
X192965933Y33725000D02*
X232927133Y33725000D01*
X375975000Y-86812000D02*
G75*
G03*
X375775001Y-87011999I0J-199999D01*
G01*
X278462500Y25550000D02*
G75*
G03*
X277962500Y26050000I-500000J0D01*
G01*
X261793751Y-62175001D02*
G75*
G03*
X261993750Y-62375000I199999J0D01*
G01*
X112062500Y-92225000D02*
G75*
G03*
X112562500Y-92725000I500000J0D01*
G01*
X264375003Y-32875000D02*
G75*
G03*
X264175004Y-33074999I0J-199999D01*
G01*
X116537500Y-60175000D02*
G75*
G03*
X116037500Y-59675000I-500000J0D01*
G01*
X187437500Y-120274999D02*
X187437500Y-122739477D01*
X359425000Y25550000D02*
G75*
G03*
X358925000Y26050000I-500000J0D01*
G01*
X88750000Y-21575000D02*
X101750000Y-21575000D01*
X11762500Y-41125000D02*
X11762500Y-54125000D01*
X366975002Y-88249998D02*
G75*
G03*
X367175001Y-88049999I0J199999D01*
G01*
X245912500Y-102537500D02*
X258912500Y-102537500D01*
X375975000Y-102250000D02*
G75*
G03*
X375775001Y-102449999I0J-199999D01*
G01*
X284012500Y-116537500D02*
X297012500Y-116537500D01*
X364475000Y6500000D02*
X364475000Y-6500000D01*
X14143749Y-60175000D02*
G75*
G03*
X13643749Y-59675000I-500000J0D01*
G01*
X303062500Y-7000000D02*
X316062500Y-7000000D01*
X332288000Y-99274999D02*
X332288000Y-100274999D01*
X250175000Y-35075000D02*
G75*
G03*
X250674999Y-35575001I500000J-1D01*
G01*
X249974996Y-24275001D02*
X248937000Y-24275000D01*
X159687500Y-60175000D02*
X159687500Y-73175000D01*
X202549999Y12550000D02*
G75*
G03*
X203049999Y12050000I500000J0D01*
G01*
X103037500Y26050000D02*
G75*
G03*
X102537500Y25550000I0J-500000D01*
G01*
X135731250Y-101203125D02*
G75*
G03*
X135731250Y-103584375I0J-1190625D01*
G01*
X3468250Y-80225000D02*
G75*
G03*
X2968250Y-79725000I-500000J0D01*
G01*
X35575000Y-41125000D02*
G75*
G03*
X35075000Y-40625000I-500000J0D01*
G01*
X307825000Y-92725000D02*
X320825000Y-92725000D01*
X380475001Y-86311999D02*
X380475001Y-80311999D01*
X216549999Y25550000D02*
X216549999Y12550000D01*
X239855750Y-75675000D02*
X245855750Y-75675000D01*
X326875000Y-21575000D02*
X339875000Y-21575000D01*
X358925000Y-54625000D02*
G75*
G03*
X359425000Y-54125000I0J500000D01*
G01*
X-3531750Y-80225000D02*
X-3531750Y-94225000D01*
X367175002Y-102450003D02*
X367175001Y-103487999D01*
X97774999Y-41125000D02*
X97774999Y-54125000D01*
X83987500Y-73675000D02*
X96987500Y-73675000D01*
X-7000000Y-6500000D02*
G75*
G03*
X-6500000Y-7000000I500000J0D01*
G01*
X169212500Y-92225000D02*
G75*
G03*
X169712500Y-92725000I500000J0D01*
G01*
X364975001Y-88249999D02*
G75*
G03*
X364475001Y-88749999I0J-500000D01*
G01*
X364975000Y7000000D02*
G75*
G03*
X364475000Y6500000I0J-500000D01*
G01*
X50650000Y-35575000D02*
X63650000Y-35575000D01*
X216549999Y6500000D02*
G75*
G03*
X216049999Y7000000I-500000J0D01*
G01*
X50650000Y-21575000D02*
G75*
G03*
X50150000Y-22075000I0J-500000D01*
G01*
X12549999Y-21575000D02*
G75*
G03*
X12049999Y-22075000I0J-500000D01*
G01*
X121299999Y-22075000D02*
G75*
G03*
X120799999Y-21575000I-500000J0D01*
G01*
X217337500Y-73675000D02*
X230337500Y-73675000D01*
X33193750Y-98274999D02*
X33193750Y-111274999D01*
X83581237Y35459375D02*
G75*
G03*
X81776987Y36681405I-2287481J-1434375D01*
G01*
X264175000Y-22075000D02*
X264175000Y-24075000D01*
X59675000Y12550000D02*
G75*
G03*
X60175000Y12050000I500000J0D01*
G01*
X366975000Y-64150000D02*
X364975000Y-64150000D01*
X345425000Y-98274999D02*
X345425000Y-111274999D01*
X164450000Y-22075000D02*
X164450000Y-35075000D01*
X221312500Y-79225000D02*
X221312500Y-92225000D01*
X54125000Y-54625000D02*
G75*
G03*
X54625000Y-54125000I0J500000D01*
G01*
X-7000000Y-22075000D02*
X-7000000Y-35075000D01*
X283512500Y-35075000D02*
G75*
G03*
X284012500Y-35575000I500000J0D01*
G01*
X150162500Y-92225000D02*
G75*
G03*
X150662500Y-92725000I500000J0D01*
G01*
X69699999Y-35575000D02*
X82699999Y-35575000D01*
X221312500Y-79225000D02*
G75*
G03*
X220812500Y-78725000I-500000J0D01*
G01*
X45100000Y-22075000D02*
X45100000Y-35075000D01*
X131612499Y-92725000D02*
X144612499Y-92725000D01*
X75393763Y-122009374D02*
G75*
G03*
X77198013Y-123231404I2287481J1434375D01*
G01*
X377475000Y-66088000D02*
G75*
G03*
X376975000Y-65588000I-500000J0D01*
G01*
X345925000Y-111774999D02*
X358925000Y-111774999D01*
X107156250Y-103584375D02*
G75*
G03*
X107156250Y-101203125I0J1190625D01*
G01*
X193525000Y-40625000D02*
X206525000Y-40625000D01*
X345925000Y-54625000D02*
X358925000Y-54625000D01*
X359425000Y-98274999D02*
G75*
G03*
X358925000Y-97774999I-500000J0D01*
G01*
X268437500Y-54625000D02*
G75*
G03*
X268937500Y-54125000I0J500000D01*
G01*
X246355751Y-62175001D02*
G75*
G03*
X246555750Y-62375000I199999J0D01*
G01*
X107012499Y-79225000D02*
G75*
G03*
X106512499Y-78725000I-500000J0D01*
G01*
X384237500Y34025000D02*
X384237500Y-120574999D01*
X111774999Y-41125000D02*
X111774999Y-54125000D01*
X127943750Y-111774999D02*
G75*
G03*
X128443750Y-111274999I0J500000D01*
G01*
X183500000Y12550000D02*
G75*
G03*
X184000000Y12050000I500000J0D01*
G01*
X316849999Y-109274998D02*
G75*
G03*
X316650000Y-109074999I-199999J0D01*
G01*
X222100000Y-21575000D02*
G75*
G03*
X221600000Y-22075000I0J-500000D01*
G01*
X321325000Y-79225000D02*
X321325000Y-92225000D01*
X4906249Y-90224999D02*
G75*
G03*
X4706250Y-90025000I-199999J0D01*
G01*
X183448013Y36681405D02*
G75*
G03*
X181643763Y35459375I483231J-2656405D01*
G01*
X60175000Y7000000D02*
G75*
G03*
X59675000Y6500000I0J-500000D01*
G01*
X79225000Y-40625000D02*
X92225000Y-40625000D01*
X317437500Y-120274999D02*
G75*
G03*
X314037500Y-120274999I-1700000J0D01*
G01*
X364975000Y12050000D02*
X377975000Y12050000D01*
X264962500Y-83487500D02*
G75*
G03*
X264462500Y-83987500I0J-500000D01*
G01*
X3668253Y-90025000D02*
G75*
G03*
X3468254Y-90224999I0J-199999D01*
G01*
X222100000Y26050000D02*
G75*
G03*
X221600000Y25550000I0J-500000D01*
G01*
X-4118750Y-97774999D02*
G75*
G03*
X-4618750Y-98274999I0J-500000D01*
G01*
X367175001Y-87012002D02*
G75*
G03*
X366975002Y-86812003I-199999J0D01*
G01*
X192737499Y-60175000D02*
X192737499Y-73175000D01*
X102250000Y-22075000D02*
G75*
G03*
X101750000Y-21575000I-500000J0D01*
G01*
X126850000Y-21575000D02*
X139850000Y-21575000D01*
X264462500Y-6500000D02*
G75*
G03*
X264962500Y-7000000I500000J0D01*
G01*
X284012500Y-102537500D02*
G75*
G03*
X283512500Y-103037500I0J-500000D01*
G01*
X78725000Y-54125000D02*
G75*
G03*
X79225000Y-54625000I500000J0D01*
G01*
X184037500Y33725000D02*
X184037500Y36189478D01*
X231125000Y-54125000D02*
G75*
G03*
X231625000Y-54625000I500000J0D01*
G01*
X239355750Y-75175000D02*
G75*
G03*
X239855750Y-75675000I500000J0D01*
G01*
X174475000Y-54625000D02*
X187475000Y-54625000D01*
X222100000Y12050000D02*
X235100000Y12050000D01*
X41125000Y26050000D02*
G75*
G03*
X40625000Y25550000I0J-500000D01*
G01*
X284012500Y-21575000D02*
G75*
G03*
X283512500Y-22075000I0J-500000D01*
G01*
X159543750Y-103584375D02*
G75*
G03*
X159543750Y-101203125I0J1190625D01*
G01*
X364475000Y-6500000D02*
G75*
G03*
X364975000Y-7000000I500000J0D01*
G01*
X88250000Y-35075000D02*
G75*
G03*
X88750000Y-35575000I500000J0D01*
G01*
X284012500Y-54625000D02*
X297012500Y-54625000D01*
X179237499Y-59675000D02*
G75*
G03*
X178737499Y-60175000I0J-500000D01*
G01*
X141137500Y-59675000D02*
X154137500Y-59675000D01*
X297512500Y-41125000D02*
G75*
G03*
X297012500Y-40625000I-500000J0D01*
G01*
X54625000Y6500000D02*
X54625000Y-6500000D01*
X158900000Y-35575000D02*
G75*
G03*
X159400000Y-35075000I0J500000D01*
G01*
X222100000Y-35575000D02*
X235100000Y-35575000D01*
X261793750Y-60175000D02*
G75*
G03*
X261293750Y-59675000I-500000J0D01*
G01*
X160187500Y26050000D02*
G75*
G03*
X159687500Y25550000I0J-500000D01*
G01*
X378037500Y36189478D02*
G75*
G03*
X377448013Y36681405I-500000J0D01*
G01*
X345925000Y-73675000D02*
X358925000Y-73675000D01*
X77787500Y-122739477D02*
X77787500Y-120274999D01*
X21575000Y12550000D02*
G75*
G03*
X22075000Y12050000I500000J0D01*
G01*
X307325000Y-22075000D02*
X307325000Y-35075000D01*
X364475000Y-22075000D02*
X364475000Y-35075000D01*
X241235287Y-118968548D02*
G75*
G03*
X235239713Y-118968547I-2997787J-1806451D01*
G01*
X284012500Y-59675000D02*
G75*
G03*
X283512500Y-60175000I0J-500000D01*
G01*
X121587500Y-60175000D02*
X121587500Y-73175000D01*
X28735288Y-118968548D02*
G75*
G03*
X31047868Y-120274999I2312579J1393549D01*
G01*
X68912500Y-79225000D02*
G75*
G03*
X68412500Y-78725000I-500000J0D01*
G01*
X103037500Y12050000D02*
X116037500Y12050000D01*
X377448013Y36681405D02*
G75*
G03*
X375643763Y35459375I483231J-2656405D01*
G01*
X263675000Y-35575000D02*
G75*
G03*
X264175001Y-35075001I1J500000D01*
G01*
X168924999Y-41125000D02*
G75*
G03*
X168424999Y-40625000I-500000J0D01*
G01*
X183500000Y-111274999D02*
G75*
G03*
X184000000Y-111774999I500000J0D01*
G01*
X93012499Y-92225000D02*
G75*
G03*
X93512499Y-92725000I500000J0D01*
G01*
X188762500Y-78725000D02*
G75*
G03*
X188262500Y-79225000I0J-500000D01*
G01*
X21575000Y-6500000D02*
G75*
G03*
X22075000Y-7000000I500000J0D01*
G01*
X154637500Y6500000D02*
G75*
G03*
X154137500Y7000000I-500000J0D01*
G01*
X314037500Y-122739477D02*
X314037500Y-120274999D01*
X254150000Y-7000000D02*
G75*
G03*
X254650000Y-6500000I0J500000D01*
G01*
X317350000Y-111774999D02*
X330350000Y-111774999D01*
X222100000Y-97774999D02*
X235100000Y-97774999D01*
X339875000Y-92725000D02*
G75*
G03*
X340375000Y-92225000I0J500000D01*
G01*
X307825000Y-78725000D02*
X320825000Y-78725000D01*
X173187500Y-7000000D02*
G75*
G03*
X173687500Y-6500000I0J500000D01*
G01*
X308412000Y-113274999D02*
G75*
G03*
X308912000Y-113774999I500000J0D01*
G01*
X136375000Y-40625000D02*
X149375000Y-40625000D01*
X78725000Y25550000D02*
X78725000Y12550000D01*
X331050004Y-109074998D02*
X332088000Y-109074999D01*
X126062500Y-79225000D02*
X126062500Y-92225000D01*
X348735287Y-118968548D02*
G75*
G03*
X342739713Y-118968547I-2997787J-1806451D01*
G01*
X197000000Y12050000D02*
G75*
G03*
X197500000Y12550000I0J500000D01*
G01*
X326875000Y26050000D02*
G75*
G03*
X326375000Y25550000I0J-500000D01*
G01*
X6999999Y6500000D02*
G75*
G03*
X6499999Y7000000I-500000J0D01*
G01*
X340375000Y25550000D02*
G75*
G03*
X339875000Y26050000I-500000J0D01*
G01*
X266113000Y-22575000D02*
X272113000Y-22575000D01*
X365475001Y-110187999D02*
X365475001Y-104187999D01*
X377975000Y-64150000D02*
G75*
G03*
X378475000Y-63650000I0J500000D01*
G01*
X40625000Y-54125000D02*
G75*
G03*
X41125000Y-54625000I500000J0D01*
G01*
X160187500Y7000000D02*
X173187500Y7000000D01*
X145112499Y-79225000D02*
G75*
G03*
X144612499Y-78725000I-500000J0D01*
G01*
X117324999Y-40625000D02*
X130324999Y-40625000D01*
X68443750Y-98774999D02*
G75*
G03*
X67943750Y-99274999I0J-500000D01*
G01*
X107800000Y-35575000D02*
X120799999Y-35575000D01*
X326375000Y6500000D02*
X326375000Y-6500000D01*
X362975000Y-48712000D02*
X366975000Y-48712000D01*
X379975001Y-86811999D02*
G75*
G03*
X380475002Y-86312000I1J500000D01*
G01*
X18906250Y-90225000D02*
X18906250Y-92225000D01*
X154137500Y12050000D02*
G75*
G03*
X154637500Y12550000I0J500000D01*
G01*
X259412500Y-103037500D02*
X259412500Y-116037500D01*
X178737499Y-60175000D02*
X178737499Y-73175000D01*
X216049999Y-7000000D02*
G75*
G03*
X216549999Y-6500000I0J500000D01*
G01*
X112562500Y-78725000D02*
G75*
G03*
X112062500Y-79225000I0J-500000D01*
G01*
X364975000Y-7000000D02*
X377975000Y-7000000D01*
X258912500Y-116537500D02*
G75*
G03*
X259412500Y-116037500I0J500000D01*
G01*
X365475001Y-110187999D02*
G75*
G03*
X365975001Y-110687999I500000J0D01*
G01*
X4906250Y-92225000D02*
G75*
G03*
X5406249Y-92725001I500000J-1D01*
G01*
X330850000Y-98274999D02*
G75*
G03*
X330350000Y-97774999I-500000J0D01*
G01*
X183500000Y-22075000D02*
X183500000Y-35075000D01*
X332288000Y-113274999D02*
X332288000Y-109274999D01*
X339288000Y-99274999D02*
X339288000Y-100274999D01*
X348735288Y-118968548D02*
G75*
G03*
X351047868Y-120274999I2312579J1393549D01*
G01*
X364475000Y-35075000D02*
G75*
G03*
X364975000Y-35575000I500000J0D01*
G01*
X332087996Y-100475000D02*
X331050000Y-100474999D01*
X265613000Y-23075000D02*
X265613000Y-24075000D01*
X365975001Y-79811999D02*
X366975001Y-79811999D01*
X203049999Y-111774999D02*
X216049999Y-111774999D01*
X375775000Y-49949997D02*
G75*
G03*
X375974999Y-50149996I199999J0D01*
G01*
X92725000Y6500000D02*
X92725000Y-6500000D01*
X136235288Y-118968548D02*
G75*
G03*
X138547868Y-120274999I2312579J1393549D01*
G01*
X192965933Y-120274999D02*
G75*
G03*
X189831237Y-122009374I0J-3700000D01*
G01*
X159687500Y12550000D02*
G75*
G03*
X160187500Y12050000I500000J0D01*
G01*
X193025000Y-54125000D02*
G75*
G03*
X193525000Y-54625000I500000J0D01*
G01*
X122087500Y7000000D02*
X135087500Y7000000D01*
X31047867Y33725000D02*
X72259067Y33725000D01*
X308509067Y-120274999D02*
X243547867Y-120274999D01*
X299215933Y33725000D02*
X340427133Y33725000D01*
X121587500Y25550000D02*
X121587500Y12550000D01*
X241150000Y26050000D02*
X254150000Y26050000D01*
X33193750Y-98274999D02*
G75*
G03*
X32693750Y-97774999I-500000J0D01*
G01*
X377448013Y-123231404D02*
G75*
G03*
X378037500Y-122739477I89487J491927D01*
G01*
X317437500Y-122739477D02*
G75*
G03*
X318026987Y-123231404I500000J0D01*
G01*
X321325000Y-41125000D02*
X321325000Y-54125000D01*
X92725000Y6500000D02*
G75*
G03*
X92225000Y7000000I-500000J0D01*
G01*
X245855750Y-75675000D02*
G75*
G03*
X246355751Y-75175001I1J500000D01*
G01*
X-4118750Y-97774999D02*
X8881250Y-97774999D01*
X79225000Y12050000D02*
X92225000Y12050000D01*
X231125000Y-41125000D02*
X231125000Y-54125000D01*
X244625000Y-54625000D02*
G75*
G03*
X245125000Y-54125000I0J500000D01*
G01*
X264962500Y7000000D02*
X277962500Y7000000D01*
X35575000Y6500000D02*
X35575000Y-6500000D01*
X316850000Y-109274999D02*
X316850000Y-111274999D01*
X242237000Y-22575000D02*
G75*
G03*
X241737000Y-23075000I0J-500000D01*
G01*
X41125000Y26050000D02*
X54125000Y26050000D01*
X345425000Y12550000D02*
G75*
G03*
X345925000Y12050000I500000J0D01*
G01*
X35862500Y-79225000D02*
X35862500Y-92225000D01*
X116537500Y6500000D02*
X116537500Y-6500000D01*
X297512500Y6500000D02*
X297512500Y-6500000D01*
X179237499Y-59675000D02*
X192237499Y-59675000D01*
X35575000Y6500000D02*
G75*
G03*
X35075000Y7000000I-500000J0D01*
G01*
X54912500Y-79225000D02*
X54912500Y-92225000D01*
X245412500Y-116037500D02*
G75*
G03*
X245912500Y-116537500I500000J0D01*
G01*
X377475000Y-42212000D02*
X377475000Y-48212000D01*
X372509067Y33725000D02*
G75*
G03*
X375643763Y35459375I0J3700000D01*
G01*
X240650000Y6500000D02*
X240650000Y-6500000D01*
X81187500Y-120274999D02*
X81187500Y-122739477D01*
X338788000Y-113774999D02*
G75*
G03*
X339288000Y-113274999I0J500000D01*
G01*
X103037500Y-59675000D02*
G75*
G03*
X102537500Y-60175000I0J-500000D01*
G01*
X263731750Y-60675000D02*
X269731750Y-60675000D01*
X359425000Y6500000D02*
X359425000Y-6500000D01*
X197500000Y-98274999D02*
X197500000Y-111274999D01*
X93512499Y-78725000D02*
X106512499Y-78725000D01*
X122087500Y7000000D02*
G75*
G03*
X121587500Y6500000I0J-500000D01*
G01*
X116537500Y-60175000D02*
X116537500Y-73175000D01*
X277962500Y12050000D02*
G75*
G03*
X278462500Y12550000I0J500000D01*
G01*
X212075000Y-54125000D02*
G75*
G03*
X212575000Y-54625000I500000J0D01*
G01*
X261993753Y-70975000D02*
G75*
G03*
X261793754Y-71174999I0J-199999D01*
G01*
X358925000Y-7000000D02*
G75*
G03*
X359425000Y-6500000I0J500000D01*
G01*
X135587500Y-60175000D02*
X135587500Y-73175000D01*
X140637500Y6500000D02*
X140637500Y-6500000D01*
X320825000Y-54625000D02*
G75*
G03*
X321325000Y-54125000I0J500000D01*
G01*
X54625000Y6500000D02*
G75*
G03*
X54125000Y7000000I-500000J0D01*
G01*
X20427133Y-120274999D02*
G75*
G03*
X22739712Y-118968547I0J2700000D01*
G01*
X284012500Y-7000000D02*
X297012500Y-7000000D01*
X284012500Y26050000D02*
G75*
G03*
X283512500Y25550000I0J-500000D01*
G01*
X317350000Y-97774999D02*
G75*
G03*
X316850000Y-98274999I0J-500000D01*
G01*
X326375000Y-22075000D02*
X326375000Y-35075000D01*
X-4168763Y35459375D02*
G75*
G03*
X-5973010Y36681405I-2287480J-1434374D01*
G01*
X264462500Y12550000D02*
G75*
G03*
X264962500Y12050000I500000J0D01*
G01*
X297012500Y-7000000D02*
G75*
G03*
X297512500Y-6500000I0J500000D01*
G01*
X375775000Y-103487995D02*
X375775001Y-102449999D01*
X41125000Y-54625000D02*
X54125000Y-54625000D01*
X78725000Y6500000D02*
X78725000Y-6500000D01*
X-3031750Y-79725000D02*
G75*
G03*
X-3531750Y-80225000I0J-500000D01*
G01*
X79225000Y26050000D02*
G75*
G03*
X78725000Y25550000I0J-500000D01*
G01*
X264175000Y-22075000D02*
G75*
G03*
X263675000Y-21575000I-500000J0D01*
G01*
X272113000Y-37575000D02*
G75*
G03*
X272613000Y-37075000I0J500000D01*
G01*
X155424999Y-54625000D02*
X168424999Y-54625000D01*
X6999999Y-22075000D02*
X6999999Y-35075000D01*
X3468250Y-94225000D02*
X3468250Y-90225000D01*
X135875000Y-54125000D02*
G75*
G03*
X136375000Y-54625000I500000J0D01*
G01*
X140637500Y-6500000D02*
G75*
G03*
X141137500Y-7000000I500000J0D01*
G01*
X242237000Y-22575000D02*
X248237000Y-22575000D01*
X73175000Y12050000D02*
G75*
G03*
X73675000Y12550000I0J500000D01*
G01*
X307825000Y-59675000D02*
X320825000Y-59675000D01*
X278462500Y-103037500D02*
G75*
G03*
X277962500Y-102537500I-500000J0D01*
G01*
X268937500Y-41125000D02*
X268937500Y-54125000D01*
X7500000Y14800000D02*
G75*
G03*
X8000000Y15300000I0J500000D01*
G01*
X367175001Y-102450002D02*
G75*
G03*
X366975002Y-102250003I-199999J0D01*
G01*
X2968250Y-94725000D02*
G75*
G03*
X3468251Y-94225001I1J500000D01*
G01*
X145112499Y-79225000D02*
X145112499Y-92225000D01*
X264962500Y-116537500D02*
X277962500Y-116537500D01*
X326375000Y-41125000D02*
X326375000Y-54125000D01*
X250175000Y-33075000D02*
X250175000Y-35075000D01*
X308912000Y-98774999D02*
G75*
G03*
X308412000Y-99274999I0J-500000D01*
G01*
X54625000Y-41125000D02*
X54625000Y-54125000D01*
X122087500Y12050000D02*
X135087500Y12050000D01*
X112062500Y-79225000D02*
X112062500Y-92225000D01*
X-9962500Y33725000D02*
G75*
G03*
X-6562500Y33725000I1700000J0D01*
G01*
X11262500Y-54625000D02*
G75*
G03*
X11762500Y-54125000I0J500000D01*
G01*
X235600000Y6500000D02*
G75*
G03*
X235100000Y7000000I-500000J0D01*
G01*
X332788000Y-98774999D02*
G75*
G03*
X332288000Y-99274999I0J-500000D01*
G01*
X138547867Y33725000D02*
X178509067Y33725000D01*
X21575000Y25550000D02*
X21575000Y12550000D01*
X-5973012Y36681405D02*
G75*
G03*
X-6562501Y36189479I-89452J-491971D01*
G01*
X250675000Y-21575000D02*
X263675000Y-21575000D01*
X365975001Y-79811999D02*
G75*
G03*
X365475001Y-80311999I0J-500000D01*
G01*
X235600000Y-98274999D02*
G75*
G03*
X235100000Y-97774999I-500000J0D01*
G01*
X254937499Y-54125000D02*
G75*
G03*
X255437499Y-54625000I500000J0D01*
G01*
X-1737500Y-40625000D02*
G75*
G03*
X-2237500Y-41125000I0J-500000D01*
G01*
X264962500Y-97487500D02*
X277962500Y-97487500D01*
X31100000Y-35075000D02*
G75*
G03*
X31600000Y-35575000I500000J0D01*
G01*
X242237000Y-37575000D02*
X248237000Y-37575000D01*
X103037500Y-59675000D02*
X116037500Y-59675000D01*
X303062500Y26050000D02*
G75*
G03*
X302562500Y25550000I0J-500000D01*
G01*
X364975000Y-21575000D02*
G75*
G03*
X364475000Y-22075000I0J-500000D01*
G01*
X60175000Y26050000D02*
X73175000Y26050000D01*
X173687500Y-60175000D02*
G75*
G03*
X173187500Y-59675000I-500000J0D01*
G01*
X277962500Y-97487500D02*
G75*
G03*
X278462500Y-96987500I0J500000D01*
G01*
X302562500Y-6500000D02*
G75*
G03*
X303062500Y-7000000I500000J0D01*
G01*
X217337500Y-59675000D02*
G75*
G03*
X216837500Y-60175000I0J-500000D01*
G01*
X364475000Y-63650000D02*
G75*
G03*
X364974999Y-64150001I500000J-1D01*
G01*
X150662500Y-78725000D02*
X163662500Y-78725000D01*
X73675000Y25550000D02*
G75*
G03*
X73175000Y26050000I-500000J0D01*
G01*
X340375000Y-79225000D02*
X340375000Y-92225000D01*
X202549999Y-111274999D02*
G75*
G03*
X203049999Y-111774999I500000J0D01*
G01*
X22075000Y26050000D02*
X35075000Y26050000D01*
X248737000Y-37075000D02*
X248737000Y-33075000D01*
X145400000Y-35075000D02*
G75*
G03*
X145900000Y-35575000I500000J0D01*
G01*
X120799999Y-35575000D02*
G75*
G03*
X121299999Y-35075000I0J500000D01*
G01*
X69699999Y-21575000D02*
G75*
G03*
X69199999Y-22075000I0J-500000D01*
G01*
X188262500Y-79225000D02*
X188262500Y-92225000D01*
X121587500Y12550000D02*
G75*
G03*
X122087500Y12050000I500000J0D01*
G01*
X322965933Y-120274999D02*
G75*
G03*
X319831237Y-122009374I0J-3700000D01*
G01*
X92725000Y-41125000D02*
G75*
G03*
X92225000Y-40625000I-500000J0D01*
G01*
X211787500Y-60175000D02*
G75*
G03*
X211287500Y-59675000I-500000J0D01*
G01*
X160187500Y7000000D02*
G75*
G03*
X159687500Y6500000I0J-500000D01*
G01*
X345925000Y-92725000D02*
X358925000Y-92725000D01*
X31600000Y-21575000D02*
G75*
G03*
X31100000Y-22075000I0J-500000D01*
G01*
X-3531750Y-94225000D02*
G75*
G03*
X-3031750Y-94725000I500000J0D01*
G01*
X233506250Y-92225000D02*
G75*
G03*
X234006250Y-92725000I500000J0D01*
G01*
X206525000Y-54625000D02*
G75*
G03*
X207025000Y-54125000I0J500000D01*
G01*
X40625000Y-6500000D02*
G75*
G03*
X41125000Y-7000000I500000J0D01*
G01*
X375643763Y-122009374D02*
G75*
G03*
X372509067Y-120274999I-3134696J-1965625D01*
G01*
X379975001Y-86811999D02*
X375975001Y-86811999D01*
X8881250Y-111774999D02*
G75*
G03*
X9381250Y-111274999I0J500000D01*
G01*
X116824999Y-54125000D02*
G75*
G03*
X117324999Y-54625000I500000J0D01*
G01*
X149875000Y-41125000D02*
G75*
G03*
X149375000Y-40625000I-500000J0D01*
G01*
X43506250Y-111774999D02*
X56506250Y-111774999D01*
X26837500Y-73675000D02*
X39837500Y-73675000D01*
X131612499Y-78725000D02*
X144612499Y-78725000D01*
X116537500Y25550000D02*
G75*
G03*
X116037500Y26050000I-500000J0D01*
G01*
X270231750Y-61175000D02*
G75*
G03*
X269731750Y-60675000I-500000J0D01*
G01*
X83487500Y-73175000D02*
G75*
G03*
X83987500Y-73675000I500000J0D01*
G01*
X-6500000Y7000000D02*
X6499999Y7000000D01*
X364975000Y7000000D02*
X377975000Y7000000D01*
X77787500Y33725000D02*
X77787500Y36189478D01*
X145900000Y-21575000D02*
X158900000Y-21575000D01*
X164950000Y-21575000D02*
G75*
G03*
X164450000Y-22075000I0J-500000D01*
G01*
X60175000Y-54625000D02*
X73175000Y-54625000D01*
X92225000Y-54625000D02*
G75*
G03*
X92725000Y-54125000I0J500000D01*
G01*
X365475001Y-86311999D02*
X365475001Y-80311999D01*
X283512500Y-54125000D02*
G75*
G03*
X284012500Y-54625000I500000J0D01*
G01*
X212575000Y-40625000D02*
X225575000Y-40625000D01*
X22075000Y-40625000D02*
G75*
G03*
X21575000Y-41125000I0J-500000D01*
G01*
X345925000Y12050000D02*
X358925000Y12050000D01*
X114943750Y-97774999D02*
X127943750Y-97774999D01*
X203049999Y-97774999D02*
X216049999Y-97774999D01*
X326875000Y-54625000D02*
X339875000Y-54625000D01*
X164950000Y-35575000D02*
X177950000Y-35575000D01*
X19693750Y-97774999D02*
G75*
G03*
X19193750Y-98274999I0J-500000D01*
G01*
X376975000Y-48712000D02*
G75*
G03*
X377475000Y-48212000I0J500000D01*
G01*
X69699999Y-21575000D02*
X82699999Y-21575000D01*
X64937500Y-59675000D02*
G75*
G03*
X64437500Y-60175000I0J-500000D01*
G01*
X184000000Y-97774999D02*
G75*
G03*
X183500000Y-98274999I0J-500000D01*
G01*
X184000000Y12050000D02*
X197000000Y12050000D01*
X211287500Y-73675000D02*
G75*
G03*
X211787500Y-73175000I0J500000D01*
G01*
X178450000Y-22075000D02*
X178450000Y-35075000D01*
X233506249Y-88424999D02*
G75*
G03*
X233306250Y-88225000I-199999J0D01*
G01*
X201762500Y-92725000D02*
G75*
G03*
X202262500Y-92225000I0J500000D01*
G01*
X135587500Y-60175000D02*
G75*
G03*
X135087500Y-59675000I-500000J0D01*
G01*
X308412000Y-99274999D02*
X308412000Y-113274999D01*
X45887500Y-59675000D02*
G75*
G03*
X45387500Y-60175000I0J-500000D01*
G01*
X69199999Y-35075000D02*
G75*
G03*
X69699999Y-35575000I500000J0D01*
G01*
X222100000Y-7000000D02*
X235100000Y-7000000D01*
X345925000Y-40625000D02*
X358925000Y-40625000D01*
X240650000Y25550000D02*
X240650000Y12550000D01*
X235600000Y-22075000D02*
G75*
G03*
X235100000Y-21575000I-500000J0D01*
G01*
X248937003Y-32875000D02*
G75*
G03*
X248737004Y-33074999I0J-199999D01*
G01*
X107300000Y-22075000D02*
X107300000Y-35075000D01*
X375643763Y-122009374D02*
G75*
G03*
X377448013Y-123231404I2287481J1434375D01*
G01*
X321325000Y-79225000D02*
G75*
G03*
X320825000Y-78725000I-500000J0D01*
G01*
X128443750Y-98274999D02*
G75*
G03*
X127943750Y-97774999I-500000J0D01*
G01*
X283512500Y-41125000D02*
X283512500Y-54125000D01*
X4906250Y-90225000D02*
X4906250Y-92225000D01*
X122087500Y-7000000D02*
X135087500Y-7000000D01*
X-9962500Y-122738330D02*
X-9962500Y-120275000D01*
X127927133Y-120274999D02*
X86715933Y-120274999D01*
X375775001Y-88049996D02*
G75*
G03*
X375975000Y-88249995I199999J0D01*
G01*
X358925000Y12050000D02*
G75*
G03*
X359425000Y12550000I0J500000D01*
G01*
X364975000Y26050000D02*
G75*
G03*
X364475000Y25550000I0J-500000D01*
G01*
X345425000Y-79225000D02*
X345425000Y-92225000D01*
X272613000Y-23075000D02*
X272613000Y-37075000D01*
X40625000Y25550000D02*
X40625000Y12550000D01*
X102250000Y-22075000D02*
X102250000Y-35075000D01*
X345425000Y-92225000D02*
G75*
G03*
X345925000Y-92725000I500000J0D01*
G01*
X316850000Y-98274999D02*
X316850000Y-100274999D01*
X116537500Y6500000D02*
G75*
G03*
X116037500Y7000000I-500000J0D01*
G01*
X154637500Y25550000D02*
G75*
G03*
X154137500Y26050000I-500000J0D01*
G01*
X216549999Y6500000D02*
X216549999Y-6500000D01*
X367175002Y-87012003D02*
X367175001Y-88049999D01*
X378475001Y-101749999D02*
X378475001Y-88749999D01*
X380475001Y-110187999D02*
X380475001Y-104187999D01*
X234006250Y-78725000D02*
G75*
G03*
X233506250Y-79225000I0J-500000D01*
G01*
X366975002Y-103687998D02*
G75*
G03*
X367175001Y-103487999I0J199999D01*
G01*
X377975000Y12050000D02*
G75*
G03*
X378475000Y12550000I0J500000D01*
G01*
X342739712Y32418548D02*
G75*
G03*
X340427133Y33725000I-2312579J-1393548D01*
G01*
X107012499Y-79225000D02*
X107012499Y-92225000D01*
X226075000Y-41125000D02*
X226075000Y-54125000D01*
X339875000Y-54625000D02*
G75*
G03*
X340375000Y-54125000I0J500000D01*
G01*
X303062500Y7000000D02*
G75*
G03*
X302562500Y6500000I0J-500000D01*
G01*
X345925000Y-40625000D02*
G75*
G03*
X345425000Y-41125000I0J-500000D01*
G01*
X378475000Y25550000D02*
X378475000Y12550000D01*
X197500000Y25550000D02*
X197500000Y12550000D01*
X55412500Y-78725000D02*
X68412500Y-78725000D01*
X40337500Y-60175000D02*
X40337500Y-73175000D01*
X43006250Y-98274999D02*
X43006250Y-111274999D01*
X264962500Y-7000000D02*
X277962500Y-7000000D01*
X233306251Y-83224999D02*
G75*
G03*
X233506250Y-83025000I0J199999D01*
G01*
X358925000Y-35575000D02*
G75*
G03*
X359425000Y-35075000I0J500000D01*
G01*
X255437499Y-54625000D02*
X268437500Y-54625000D01*
X339288000Y-113274999D02*
X339288000Y-100274999D01*
X64149999Y-22075000D02*
G75*
G03*
X63650000Y-21575001I-499999J0D01*
G01*
X225575000Y-54625000D02*
G75*
G03*
X226075000Y-54125000I0J500000D01*
G01*
X74462499Y-92725000D02*
X87462499Y-92725000D01*
X73962499Y-92225000D02*
G75*
G03*
X74462499Y-92725000I500000J0D01*
G01*
X93012499Y-79225000D02*
X93012499Y-92225000D01*
X126850000Y-35575000D02*
X139850000Y-35575000D01*
X178509067Y33725000D02*
G75*
G03*
X181643763Y35459375I0J3700000D01*
G01*
X345925000Y7000000D02*
X358925000Y7000000D01*
X35075000Y-7000000D02*
G75*
G03*
X35575000Y-6500000I0J500000D01*
G01*
X27344250Y-80225000D02*
X27344250Y-81225000D01*
X-1034066Y-120274999D02*
G75*
G03*
X-4168762Y-122009374I0J-3700000D01*
G01*
X141137500Y7000000D02*
X154137500Y7000000D01*
X40625000Y6500000D02*
X40625000Y-6500000D01*
X97487500Y-60175000D02*
X97487500Y-73175000D01*
X326375000Y-35075000D02*
G75*
G03*
X326875000Y-35575000I500000J0D01*
G01*
X39837500Y-73675000D02*
G75*
G03*
X40337500Y-73175000I0J500000D01*
G01*
X358925000Y-92725000D02*
G75*
G03*
X359425000Y-92225000I0J500000D01*
G01*
X102537500Y6500000D02*
X102537500Y-6500000D01*
X265412997Y-24275000D02*
G75*
G03*
X265612996Y-24075001I0J199999D01*
G01*
X311643763Y-122009374D02*
G75*
G03*
X308509067Y-120274999I-3134696J-1965625D01*
G01*
X264962500Y-102537500D02*
X277962500Y-102537500D01*
X87962499Y-79225000D02*
X87962499Y-92225000D01*
X-2237500Y-41125000D02*
X-2237500Y-54125000D01*
X131612499Y-78725000D02*
G75*
G03*
X131112499Y-79225000I0J-500000D01*
G01*
X377475000Y-42212000D02*
G75*
G03*
X376975000Y-41712000I-500000J0D01*
G01*
X141137500Y-7000000D02*
X154137500Y-7000000D01*
X26844250Y-94725000D02*
G75*
G03*
X27344250Y-94225000I0J500000D01*
G01*
X198287500Y-59675000D02*
X211287500Y-59675000D01*
X375774999Y-65387996D02*
X375775000Y-64350000D01*
X283512500Y-73175000D02*
G75*
G03*
X284012500Y-73675000I500000J0D01*
G01*
X-9962500Y36188331D02*
G75*
G03*
X-10553407Y36679997I-499911J107D01*
G01*
X174475000Y-40625000D02*
G75*
G03*
X173975000Y-41125000I0J-500000D01*
G01*
X36362500Y-92725000D02*
X49362500Y-92725000D01*
X222100000Y-21575000D02*
X235100000Y-21575000D01*
X351047867Y33725000D02*
X372509067Y33725000D01*
X184000000Y-35575000D02*
X197000000Y-35575000D01*
X378475001Y-88749999D02*
G75*
G03*
X377975002Y-88249998I-500000J1D01*
G01*
X131112499Y-92225000D02*
G75*
G03*
X131612499Y-92725000I500000J0D01*
G01*
X130824999Y-41125000D02*
G75*
G03*
X130324999Y-40625000I-500000J0D01*
G01*
X284759067Y33725000D02*
G75*
G03*
X287893763Y35459375I0J3700000D01*
G01*
X27344250Y-94225000D02*
X27344250Y-81225000D01*
X197787500Y-60175000D02*
X197787500Y-73175000D01*
X326375000Y12550000D02*
G75*
G03*
X326875000Y12050000I500000J0D01*
G01*
X364975001Y-102249999D02*
X366975001Y-102249999D01*
X326875000Y-40625000D02*
X339875000Y-40625000D01*
X159543750Y-101203125D02*
X135731250Y-101203125D01*
X126062500Y-79225000D02*
G75*
G03*
X125562500Y-78725000I-500000J0D01*
G01*
X188262500Y-92225000D02*
G75*
G03*
X188762500Y-92725000I500000J0D01*
G01*
X340375000Y6500000D02*
X340375000Y-6500000D01*
X197500000Y-22075000D02*
X197500000Y-35075000D01*
X197500000Y-98274999D02*
G75*
G03*
X197000000Y-97774999I-500000J0D01*
G01*
X372509067Y-120274999D02*
X351047867Y-120274999D01*
X3668254Y-90024999D02*
X4706250Y-90025000D01*
X297512500Y6500000D02*
G75*
G03*
X297012500Y7000000I-500000J0D01*
G01*
X154637500Y25550000D02*
X154637500Y12550000D01*
X284012500Y12050000D02*
X297012500Y12050000D01*
X126850000Y-21575000D02*
G75*
G03*
X126350000Y-22075000I0J-500000D01*
G01*
X221600000Y-6500000D02*
G75*
G03*
X222100000Y-7000000I500000J0D01*
G01*
X12049999Y-22075000D02*
X12049999Y-35075000D01*
X202549999Y6500000D02*
X202549999Y-6500000D01*
X212075000Y-41125000D02*
X212075000Y-54125000D01*
X159687500Y-6500000D02*
G75*
G03*
X160187500Y-7000000I500000J0D01*
G01*
X283512500Y12550000D02*
G75*
G03*
X284012500Y12050000I500000J0D01*
G01*
X278462500Y-103037500D02*
X278462500Y-116037500D01*
X289698013Y36681405D02*
G75*
G03*
X287893763Y35459375I483231J-2656405D01*
G01*
X216837500Y-73175000D02*
G75*
G03*
X217337500Y-73675000I500000J0D01*
G01*
X240650000Y-6500000D02*
G75*
G03*
X241150000Y-7000000I500000J0D01*
G01*
X376975000Y-48712000D02*
X375975000Y-48712000D01*
X22075000Y12050000D02*
X35075000Y12050000D01*
X320825000Y-73675000D02*
G75*
G03*
X321325000Y-73175000I0J500000D01*
G01*
X264175001Y-24075001D02*
G75*
G03*
X264375000Y-24275000I199999J0D01*
G01*
X26337500Y-73175000D02*
G75*
G03*
X26837500Y-73675000I500000J0D01*
G01*
X174443750Y-113774999D02*
G75*
G03*
X174943750Y-113274999I0J500000D01*
G01*
X50150000Y-22075000D02*
X50150000Y-35075000D01*
X20144246Y-81425001D02*
X19106250Y-81425000D01*
X-6562500Y-122739477D02*
G75*
G03*
X-5973013Y-123231405I500037J43D01*
G01*
X345425000Y-54125000D02*
G75*
G03*
X345925000Y-54625000I500000J0D01*
G01*
X255437499Y-40625000D02*
X268437500Y-40625000D01*
X307825000Y-35575000D02*
X320825000Y-35575000D01*
X364975000Y-35575000D02*
X377975000Y-35575000D01*
X101750000Y-35575000D02*
G75*
G03*
X102250000Y-35075000I0J500000D01*
G01*
X290287500Y33725000D02*
X290287500Y36189478D01*
X187975000Y-41125000D02*
X187975000Y-54125000D01*
X250675000Y-35575000D02*
X263675000Y-35575000D01*
X35075000Y-54625000D02*
G75*
G03*
X35575000Y-54125000I0J500000D01*
G01*
X230837500Y-60175000D02*
X230837500Y-73175000D01*
X321325000Y-60175000D02*
G75*
G03*
X320825000Y-59675000I-500000J0D01*
G01*
X340375000Y-22075000D02*
X340375000Y-35075000D01*
X141137500Y7000000D02*
G75*
G03*
X140637500Y6500000I0J-500000D01*
G01*
X21575000Y-41125000D02*
X21575000Y-54125000D01*
X297512500Y-60175000D02*
X297512500Y-73175000D01*
X332087997Y-100474999D02*
G75*
G03*
X332287996Y-100275000I0J199999D01*
G01*
X345925000Y7000000D02*
G75*
G03*
X345425000Y6500000I0J-500000D01*
G01*
X79225000Y-54625000D02*
X92225000Y-54625000D01*
X307825000Y-40625000D02*
G75*
G03*
X307325000Y-41125000I0J-500000D01*
G01*
X264962500Y-83487500D02*
X277962500Y-83487500D01*
X364975000Y-21575000D02*
X377975000Y-21575000D01*
X216837500Y-60175000D02*
X216837500Y-73175000D01*
X192237499Y-73675000D02*
G75*
G03*
X192737499Y-73175000I0J500000D01*
G01*
X131112499Y-79225000D02*
X131112499Y-92225000D01*
X67943750Y-99274999D02*
X67943750Y-113274999D01*
X174943750Y-99274999D02*
G75*
G03*
X174443750Y-98774999I-500000J0D01*
G01*
X88750000Y-21575000D02*
G75*
G03*
X88250000Y-22075000I0J-500000D01*
G01*
X-6562500Y36189478D02*
X-6562500Y33725000D01*
X248937004Y-32874999D02*
X249975000Y-32875000D01*
X22075000Y-7000000D02*
X35075000Y-7000000D01*
X359425000Y-22075000D02*
G75*
G03*
X358925000Y-21575000I-500000J0D01*
G01*
X-8000000Y15300000D02*
X-8000000Y28800000D01*
X26337500Y-60175000D02*
X26337500Y-73175000D01*
X230337500Y-73675000D02*
G75*
G03*
X230837500Y-73175000I0J500000D01*
G01*
X135587500Y25550000D02*
X135587500Y12550000D01*
X130324999Y-54625000D02*
G75*
G03*
X130824999Y-54125000I0J500000D01*
G01*
X92725000Y25550000D02*
X92725000Y12550000D01*
X169712500Y-78725000D02*
G75*
G03*
X169212500Y-79225000I0J-500000D01*
G01*
X239355750Y-61175000D02*
X239355750Y-75175000D01*
X307325000Y-79225000D02*
X307325000Y-92225000D01*
X79225000Y26050000D02*
X92225000Y26050000D01*
X174475000Y-40625000D02*
X187475000Y-40625000D01*
X284012500Y7000000D02*
X297012500Y7000000D01*
X326875000Y-59675000D02*
G75*
G03*
X326375000Y-60175000I0J-500000D01*
G01*
X364475000Y-50650000D02*
X364475000Y-63650000D01*
X-6500000Y-21575000D02*
G75*
G03*
X-7000000Y-22075000I0J-500000D01*
G01*
X112562500Y-92725000D02*
X125562500Y-92725000D01*
X130239712Y32418548D02*
G75*
G03*
X127927133Y33725000I-2312579J-1393548D01*
G01*
X231625000Y-40625000D02*
G75*
G03*
X231125000Y-41125000I0J-500000D01*
G01*
X116037500Y-7000000D02*
G75*
G03*
X116537500Y-6500000I0J500000D01*
G01*
X307825000Y-73675000D02*
X320825000Y-73675000D01*
X74462499Y-78725000D02*
G75*
G03*
X73962499Y-79225000I0J-500000D01*
G01*
X250174999Y-33074999D02*
G75*
G03*
X249975000Y-32875000I-199999J0D01*
G01*
X340375000Y-41125000D02*
X340375000Y-54125000D01*
X81187500Y-122739477D02*
G75*
G03*
X81776987Y-123231404I500000J0D01*
G01*
X378475000Y6500000D02*
X378475000Y-6500000D01*
X20844250Y-94725000D02*
X26844250Y-94725000D01*
X359425000Y6500000D02*
G75*
G03*
X358925000Y7000000I-500000J0D01*
G01*
X103037500Y7000000D02*
G75*
G03*
X102537500Y6500000I0J-500000D01*
G01*
X26050000Y-22075000D02*
G75*
G03*
X25550000Y-21575000I-500000J0D01*
G01*
X296081237Y35459375D02*
G75*
G03*
X299215933Y33725000I3134696J1965625D01*
G01*
X261293750Y-73675000D02*
G75*
G03*
X261793751Y-73175001I1J500000D01*
G01*
X246555753Y-70975000D02*
G75*
G03*
X246355754Y-71174999I0J-199999D01*
G01*
X-4118750Y-111774999D02*
X8881250Y-111774999D01*
X102537500Y25550000D02*
X102537500Y12550000D01*
X87962499Y-79225000D02*
G75*
G03*
X87462499Y-78725000I-500000J0D01*
G01*
X135587500Y6500000D02*
X135587500Y-6500000D01*
X163662500Y-92725000D02*
G75*
G03*
X164162500Y-92225000I0J500000D01*
G01*
X19193750Y-111274999D02*
G75*
G03*
X19693750Y-111774999I500000J0D01*
G01*
X102537500Y-6500000D02*
G75*
G03*
X103037500Y-7000000I500000J0D01*
G01*
X332788000Y-113774999D02*
X338788000Y-113774999D01*
X307825000Y-78725000D02*
G75*
G03*
X307325000Y-79225000I0J-500000D01*
G01*
X41125000Y7000000D02*
X54125000Y7000000D01*
X-1737500Y-54625000D02*
X11262500Y-54625000D01*
X266113000Y-37575000D02*
X272113000Y-37575000D01*
X78437500Y-60175000D02*
G75*
G03*
X77937500Y-59675000I-500000J0D01*
G01*
X307825000Y-54625000D02*
X320825000Y-54625000D01*
X197500000Y6500000D02*
X197500000Y-6500000D01*
X78725000Y12550000D02*
G75*
G03*
X79225000Y12050000I500000J0D01*
G01*
X64437500Y-73175000D02*
G75*
G03*
X64937500Y-73675000I500000J0D01*
G01*
X207025000Y-41125000D02*
X207025000Y-54125000D01*
X197500000Y6500000D02*
G75*
G03*
X197000000Y7000000I-500000J0D01*
G01*
X294276987Y36681405D02*
G75*
G03*
X293687500Y36189478I-89487J-491927D01*
G01*
X184037500Y33725000D02*
G75*
G03*
X187437500Y33725000I1700000J0D01*
G01*
X143749Y-60175000D02*
X143749Y-73175000D01*
X-3031750Y-79725000D02*
X2968250Y-79725000D01*
X359425000Y-79225000D02*
G75*
G03*
X358925000Y-78725000I-500000J0D01*
G01*
X145900000Y-21575000D02*
G75*
G03*
X145400000Y-22075000I0J-500000D01*
G01*
X197000000Y-35575000D02*
G75*
G03*
X197500000Y-35075000I0J500000D01*
G01*
X345925000Y26050000D02*
X358925000Y26050000D01*
X222100000Y7000000D02*
X235100000Y7000000D01*
X364975000Y-50150000D02*
G75*
G03*
X364474999Y-50649999I-1J-500000D01*
G01*
X28735287Y-118968548D02*
G75*
G03*
X22739713Y-118968547I-2997787J-1806451D01*
G01*
X-6500000Y-7000000D02*
X6499999Y-7000000D01*
X59675000Y6500000D02*
X59675000Y-6500000D01*
X381437500Y36188331D02*
X381437500Y33725000D01*
X102537500Y-60175000D02*
X102537500Y-73175000D01*
X184037500Y-122739477D02*
X184037500Y-120274999D01*
X241150000Y26050000D02*
G75*
G03*
X240650000Y25550000I0J-500000D01*
G01*
X-8000000Y15300000D02*
G75*
G03*
X-7500001Y14799999I500000J-1D01*
G01*
X141137500Y-73675000D02*
X154137500Y-73675000D01*
X27344250Y-80225000D02*
G75*
G03*
X26844250Y-79725000I-500000J0D01*
G01*
X135087500Y12050000D02*
G75*
G03*
X135587500Y12550000I0J500000D01*
G01*
X207812500Y-92725000D02*
X220812500Y-92725000D01*
X164950000Y-21575000D02*
X177950000Y-21575000D01*
X245125000Y-41125000D02*
X245125000Y-54125000D01*
X145400000Y-22075000D02*
X145400000Y-35075000D01*
X377475000Y-66088000D02*
X377475000Y-72088000D01*
X203049999Y12050000D02*
X216049999Y12050000D01*
X-4618750Y-98274999D02*
X-4618750Y-111274999D01*
X78725000Y-6500000D02*
G75*
G03*
X79225000Y-7000000I500000J0D01*
G01*
X340375000Y25550000D02*
X340375000Y12550000D01*
X-7000000Y6500000D02*
X-7000000Y-6500000D01*
X173187500Y12050000D02*
G75*
G03*
X173687500Y12550000I0J500000D01*
G01*
X45387500Y-60175000D02*
X45387500Y-73175000D01*
X-6500000Y-21575000D02*
X6499999Y-21575000D01*
X87462499Y-92725000D02*
G75*
G03*
X87962499Y-92225000I0J500000D01*
G01*
X83343750Y-101203125D02*
G75*
G03*
X83343750Y-103584375I0J-1190625D01*
G01*
X332788000Y-98774999D02*
X338788000Y-98774999D01*
X203049999Y-35575000D02*
X216049999Y-35575000D01*
X362975000Y-72588000D02*
X375975000Y-72588000D01*
X83987500Y-59675000D02*
G75*
G03*
X83487500Y-60175000I0J-500000D01*
G01*
X154637500Y-60175000D02*
G75*
G03*
X154137500Y-59675000I-500000J0D01*
G01*
X169712500Y-92725000D02*
X182712500Y-92725000D01*
X326875000Y7000000D02*
G75*
G03*
X326375000Y6500000I0J-500000D01*
G01*
X193525000Y-40625000D02*
G75*
G03*
X193025000Y-41125000I0J-500000D01*
G01*
X83343750Y-103584375D02*
X107156250Y-103584375D01*
X364975000Y26050000D02*
X377975000Y26050000D01*
X265412996Y-24275001D02*
X264375000Y-24275000D01*
X160187500Y12050000D02*
X173187500Y12050000D01*
X366975000Y-50150000D02*
X364975000Y-50150000D01*
X235100000Y-35575000D02*
G75*
G03*
X235600000Y-35075000I0J500000D01*
G01*
X202549999Y-98274999D02*
X202549999Y-111274999D01*
X72259067Y-120274999D02*
X31047867Y-120274999D01*
X264462500Y6500000D02*
X264462500Y-6500000D01*
X197000000Y-7000000D02*
G75*
G03*
X197500000Y-6500000I0J500000D01*
G01*
X263231750Y-75175000D02*
X263231750Y-71175000D01*
X345925000Y-78725000D02*
X358925000Y-78725000D01*
X44600000Y-35575000D02*
G75*
G03*
X45100000Y-35075000I0J500000D01*
G01*
X183500000Y-98274999D02*
X183500000Y-111274999D01*
X14143749Y-60175000D02*
X14143749Y-73175000D01*
X315612004Y-109074998D02*
X316650000Y-109074999D01*
X326875000Y-59675000D02*
X339875000Y-59675000D01*
X22739712Y32418548D02*
G75*
G03*
X28735288Y32418549I2997788J1806452D01*
G01*
D11*
%TO.C,H1*%
X232500000Y-82225000D02*
X232500000Y-82725000D01*
X232500000Y-89225000D02*
X232500000Y-88725000D01*
X232000000Y-81725000D02*
X226000000Y-81725000D01*
X225500000Y-82225000D02*
X225500000Y-89225000D01*
X232000000Y-89725000D02*
X226000000Y-89725000D01*
X225500000Y-89225000D02*
G75*
G03*
X226000000Y-89725000I500000J0D01*
G01*
X232500000Y-82725000D02*
G75*
G03*
X233000000Y-83225000I500000J0D01*
G01*
X232000002Y-89724998D02*
G75*
G03*
X232500000Y-89225000I0J499998D01*
G01*
X226000000Y-81725000D02*
G75*
G03*
X225500000Y-82225000I0J-500000D01*
G01*
X233000000Y-88225000D02*
G75*
G03*
X232500000Y-88725000I0J-500000D01*
G01*
X232499998Y-82224998D02*
G75*
G03*
X232000000Y-81725000I-499998J0D01*
G01*
%TD*%
M02*
