%TF.GenerationSoftware,KiCad,Pcbnew,7.0.2*%
%TF.CreationDate,2023-06-27T02:28:16-04:00*%
%TF.ProjectId,FR4-universal-layout-plate,4652342d-756e-4697-9665-7273616c2d6c,rev?*%
%TF.SameCoordinates,Original*%
%TF.FileFunction,Legend,Top*%
%TF.FilePolarity,Positive*%
%FSLAX46Y46*%
G04 Gerber Fmt 4.6, Leading zero omitted, Abs format (unit mm)*
G04 Created by KiCad (PCBNEW 7.0.2) date 2023-06-27 02:28:16*
%MOMM*%
%LPD*%
G01*
G04 APERTURE LIST*
%ADD10C,0.150000*%
%ADD11C,0.200000*%
G04 APERTURE END LIST*
D10*
X113704783Y-112514157D02*
X114895409Y-112514157D01*
X2381250Y-58340674D02*
X1785939Y-58340674D01*
X4167191Y-112514157D02*
X5357817Y-112514157D01*
X4762500Y-111918750D02*
X4167191Y-112514157D01*
X33932841Y-112514157D02*
X33337500Y-111918844D01*
X2381252Y-113109470D02*
X1190626Y-113109470D01*
X190500160Y-111918844D02*
X191095473Y-112514157D01*
X121443749Y-113109470D02*
X122039165Y-113109470D01*
X190500160Y-111918844D02*
X189904847Y-112514157D01*
X121443749Y-111918844D02*
X120848539Y-112514157D01*
X224433001Y-112514157D02*
X223242375Y-112514157D01*
X121443749Y-111918844D02*
X122039165Y-112514157D01*
X195262664Y-111918844D02*
X195262664Y-113109470D01*
X5357817Y-112514157D02*
X4762500Y-111918750D01*
X229195505Y-112514157D02*
X228004879Y-112514157D01*
X114300000Y-111918844D02*
X114895409Y-112514157D01*
X2381252Y-111918844D02*
X2976565Y-112514157D01*
X228600192Y-111918844D02*
X228600192Y-113109470D01*
X2381250Y-59531300D02*
X1785939Y-58935987D01*
X116681348Y-111918844D02*
X116086035Y-112514157D01*
X5357817Y-113109470D02*
X4762504Y-113109470D01*
X116681348Y-111918844D02*
X116681348Y-113109470D01*
X7739069Y-74414125D02*
X6548443Y-74414125D01*
X32742215Y-112514157D02*
X33932841Y-112514157D01*
X194667351Y-112514157D02*
X195857977Y-112514157D01*
X4762504Y-113109470D02*
X4762500Y-111918750D01*
X122039165Y-112514157D02*
X120848539Y-112514157D01*
X195262664Y-113109470D02*
X196453290Y-113109470D01*
X114300000Y-113109470D02*
X113704783Y-113109470D01*
X223837688Y-111918844D02*
X223242375Y-112514157D01*
X116681348Y-111918844D02*
X117276661Y-112514157D01*
X7143756Y-73818812D02*
X6548443Y-74414125D01*
X114300000Y-111918844D02*
X113704783Y-112514157D01*
X26789085Y-112514157D02*
X25598459Y-112514157D01*
X26193750Y-111918797D02*
X26789085Y-112514157D01*
X228600192Y-111918844D02*
X229195505Y-112514157D01*
X2381250Y-59531300D02*
X2976565Y-58935987D01*
X190500160Y-113109470D02*
X189904847Y-113109470D01*
X116086035Y-112514157D02*
X117276661Y-112514157D01*
X33932841Y-113109470D02*
X33337528Y-113109470D01*
X33337528Y-113109470D02*
X33337500Y-111918797D01*
X228600192Y-113109470D02*
X229195505Y-113109470D01*
X26193772Y-113109470D02*
X26193750Y-111918797D01*
X189904847Y-112514157D02*
X191095473Y-112514157D01*
X223837688Y-113109470D02*
X222647062Y-113109470D01*
X114300000Y-111918844D02*
X114300000Y-113109470D01*
X2381252Y-111918844D02*
X1785939Y-112514157D01*
X7143750Y-73818812D02*
X7143756Y-75009438D01*
X228600192Y-111918844D02*
X228004879Y-112514157D01*
X25598459Y-113109470D02*
X26193772Y-113109470D01*
X33337500Y-111918844D02*
X32742215Y-112514157D01*
X2381252Y-111918844D02*
X2381252Y-113109470D01*
X25598459Y-112514157D02*
X26193750Y-111918797D01*
X7143756Y-75009438D02*
X6548443Y-75009438D01*
X1785939Y-58935987D02*
X2976565Y-58935987D01*
X1785939Y-112514157D02*
X2976565Y-112514157D01*
X195262664Y-111918844D02*
X194667351Y-112514157D01*
X2381250Y-59531300D02*
X2381250Y-58340674D01*
X223837688Y-111918844D02*
X223837688Y-113109470D01*
X7143756Y-73818812D02*
X7739069Y-74414125D01*
X121443749Y-111918844D02*
X121443749Y-113109470D01*
X195262664Y-111918844D02*
X195857977Y-112514157D01*
X190500160Y-111918844D02*
X190500160Y-113109470D01*
X223837688Y-111918844D02*
X224433001Y-112514157D01*
D11*
X219542857Y-113255142D02*
X218857143Y-113255142D01*
X219200000Y-113255142D02*
X219200000Y-112055142D01*
X219200000Y-112055142D02*
X219085714Y-112226571D01*
X219085714Y-112226571D02*
X218971429Y-112340857D01*
X218971429Y-112340857D02*
X218857143Y-112398000D01*
X220057143Y-113140857D02*
X220114286Y-113198000D01*
X220114286Y-113198000D02*
X220057143Y-113255142D01*
X220057143Y-113255142D02*
X220000000Y-113198000D01*
X220000000Y-113198000D02*
X220057143Y-113140857D01*
X220057143Y-113140857D02*
X220057143Y-113255142D01*
X221200000Y-112055142D02*
X220628572Y-112055142D01*
X220628572Y-112055142D02*
X220571429Y-112626571D01*
X220571429Y-112626571D02*
X220628572Y-112569428D01*
X220628572Y-112569428D02*
X220742858Y-112512285D01*
X220742858Y-112512285D02*
X221028572Y-112512285D01*
X221028572Y-112512285D02*
X221142858Y-112569428D01*
X221142858Y-112569428D02*
X221200000Y-112626571D01*
X221200000Y-112626571D02*
X221257143Y-112740857D01*
X221257143Y-112740857D02*
X221257143Y-113026571D01*
X221257143Y-113026571D02*
X221200000Y-113140857D01*
X221200000Y-113140857D02*
X221142858Y-113198000D01*
X221142858Y-113198000D02*
X221028572Y-113255142D01*
X221028572Y-113255142D02*
X220742858Y-113255142D01*
X220742858Y-113255142D02*
X220628572Y-113198000D01*
X220628572Y-113198000D02*
X220571429Y-113140857D01*
X222285715Y-112455142D02*
X222285715Y-113255142D01*
X221771429Y-112455142D02*
X221771429Y-113083714D01*
X221771429Y-113083714D02*
X221828572Y-113198000D01*
X221828572Y-113198000D02*
X221942857Y-113255142D01*
X221942857Y-113255142D02*
X222114286Y-113255142D01*
X222114286Y-113255142D02*
X222228572Y-113198000D01*
X222228572Y-113198000D02*
X222285715Y-113140857D01*
X123057143Y-112055142D02*
X122828571Y-112055142D01*
X122828571Y-112055142D02*
X122714285Y-112112285D01*
X122714285Y-112112285D02*
X122657143Y-112169428D01*
X122657143Y-112169428D02*
X122542857Y-112340857D01*
X122542857Y-112340857D02*
X122485714Y-112569428D01*
X122485714Y-112569428D02*
X122485714Y-113026571D01*
X122485714Y-113026571D02*
X122542857Y-113140857D01*
X122542857Y-113140857D02*
X122600000Y-113198000D01*
X122600000Y-113198000D02*
X122714285Y-113255142D01*
X122714285Y-113255142D02*
X122942857Y-113255142D01*
X122942857Y-113255142D02*
X123057143Y-113198000D01*
X123057143Y-113198000D02*
X123114285Y-113140857D01*
X123114285Y-113140857D02*
X123171428Y-113026571D01*
X123171428Y-113026571D02*
X123171428Y-112740857D01*
X123171428Y-112740857D02*
X123114285Y-112626571D01*
X123114285Y-112626571D02*
X123057143Y-112569428D01*
X123057143Y-112569428D02*
X122942857Y-112512285D01*
X122942857Y-112512285D02*
X122714285Y-112512285D01*
X122714285Y-112512285D02*
X122600000Y-112569428D01*
X122600000Y-112569428D02*
X122542857Y-112626571D01*
X122542857Y-112626571D02*
X122485714Y-112740857D01*
X123685714Y-113140857D02*
X123742857Y-113198000D01*
X123742857Y-113198000D02*
X123685714Y-113255142D01*
X123685714Y-113255142D02*
X123628571Y-113198000D01*
X123628571Y-113198000D02*
X123685714Y-113140857D01*
X123685714Y-113140857D02*
X123685714Y-113255142D01*
X124200000Y-112169428D02*
X124257143Y-112112285D01*
X124257143Y-112112285D02*
X124371429Y-112055142D01*
X124371429Y-112055142D02*
X124657143Y-112055142D01*
X124657143Y-112055142D02*
X124771429Y-112112285D01*
X124771429Y-112112285D02*
X124828571Y-112169428D01*
X124828571Y-112169428D02*
X124885714Y-112283714D01*
X124885714Y-112283714D02*
X124885714Y-112398000D01*
X124885714Y-112398000D02*
X124828571Y-112569428D01*
X124828571Y-112569428D02*
X124142857Y-113255142D01*
X124142857Y-113255142D02*
X124885714Y-113255142D01*
X125971428Y-112055142D02*
X125400000Y-112055142D01*
X125400000Y-112055142D02*
X125342857Y-112626571D01*
X125342857Y-112626571D02*
X125400000Y-112569428D01*
X125400000Y-112569428D02*
X125514286Y-112512285D01*
X125514286Y-112512285D02*
X125800000Y-112512285D01*
X125800000Y-112512285D02*
X125914286Y-112569428D01*
X125914286Y-112569428D02*
X125971428Y-112626571D01*
X125971428Y-112626571D02*
X126028571Y-112740857D01*
X126028571Y-112740857D02*
X126028571Y-113026571D01*
X126028571Y-113026571D02*
X125971428Y-113140857D01*
X125971428Y-113140857D02*
X125914286Y-113198000D01*
X125914286Y-113198000D02*
X125800000Y-113255142D01*
X125800000Y-113255142D02*
X125514286Y-113255142D01*
X125514286Y-113255142D02*
X125400000Y-113198000D01*
X125400000Y-113198000D02*
X125342857Y-113140857D01*
X127057143Y-112455142D02*
X127057143Y-113255142D01*
X126542857Y-112455142D02*
X126542857Y-113083714D01*
X126542857Y-113083714D02*
X126600000Y-113198000D01*
X126600000Y-113198000D02*
X126714285Y-113255142D01*
X126714285Y-113255142D02*
X126885714Y-113255142D01*
X126885714Y-113255142D02*
X127000000Y-113198000D01*
X127000000Y-113198000D02*
X127057143Y-113140857D01*
X197442857Y-113255142D02*
X196757143Y-113255142D01*
X197100000Y-113255142D02*
X197100000Y-112055142D01*
X197100000Y-112055142D02*
X196985714Y-112226571D01*
X196985714Y-112226571D02*
X196871429Y-112340857D01*
X196871429Y-112340857D02*
X196757143Y-112398000D01*
X197957143Y-113140857D02*
X198014286Y-113198000D01*
X198014286Y-113198000D02*
X197957143Y-113255142D01*
X197957143Y-113255142D02*
X197900000Y-113198000D01*
X197900000Y-113198000D02*
X197957143Y-113140857D01*
X197957143Y-113140857D02*
X197957143Y-113255142D01*
X199100000Y-112055142D02*
X198528572Y-112055142D01*
X198528572Y-112055142D02*
X198471429Y-112626571D01*
X198471429Y-112626571D02*
X198528572Y-112569428D01*
X198528572Y-112569428D02*
X198642858Y-112512285D01*
X198642858Y-112512285D02*
X198928572Y-112512285D01*
X198928572Y-112512285D02*
X199042858Y-112569428D01*
X199042858Y-112569428D02*
X199100000Y-112626571D01*
X199100000Y-112626571D02*
X199157143Y-112740857D01*
X199157143Y-112740857D02*
X199157143Y-113026571D01*
X199157143Y-113026571D02*
X199100000Y-113140857D01*
X199100000Y-113140857D02*
X199042858Y-113198000D01*
X199042858Y-113198000D02*
X198928572Y-113255142D01*
X198928572Y-113255142D02*
X198642858Y-113255142D01*
X198642858Y-113255142D02*
X198528572Y-113198000D01*
X198528572Y-113198000D02*
X198471429Y-113140857D01*
X200185715Y-112455142D02*
X200185715Y-113255142D01*
X199671429Y-112455142D02*
X199671429Y-113083714D01*
X199671429Y-113083714D02*
X199728572Y-113198000D01*
X199728572Y-113198000D02*
X199842857Y-113255142D01*
X199842857Y-113255142D02*
X200014286Y-113255142D01*
X200014286Y-113255142D02*
X200128572Y-113198000D01*
X200128572Y-113198000D02*
X200185715Y-113140857D01*
X188300000Y-113255142D02*
X187614286Y-113255142D01*
X187957143Y-113255142D02*
X187957143Y-112055142D01*
X187957143Y-112055142D02*
X187842857Y-112226571D01*
X187842857Y-112226571D02*
X187728572Y-112340857D01*
X187728572Y-112340857D02*
X187614286Y-112398000D01*
X189328572Y-112455142D02*
X189328572Y-113255142D01*
X188814286Y-112455142D02*
X188814286Y-113083714D01*
X188814286Y-113083714D02*
X188871429Y-113198000D01*
X188871429Y-113198000D02*
X188985714Y-113255142D01*
X188985714Y-113255142D02*
X189157143Y-113255142D01*
X189157143Y-113255142D02*
X189271429Y-113198000D01*
X189271429Y-113198000D02*
X189328572Y-113140857D01*
X-5442855Y-75155142D02*
X-5442855Y-73955142D01*
X-5442855Y-73955142D02*
X-4757141Y-75155142D01*
X-4757141Y-75155142D02*
X-4757141Y-73955142D01*
X-4014284Y-75155142D02*
X-4128569Y-75098000D01*
X-4128569Y-75098000D02*
X-4185712Y-75040857D01*
X-4185712Y-75040857D02*
X-4242855Y-74926571D01*
X-4242855Y-74926571D02*
X-4242855Y-74583714D01*
X-4242855Y-74583714D02*
X-4185712Y-74469428D01*
X-4185712Y-74469428D02*
X-4128569Y-74412285D01*
X-4128569Y-74412285D02*
X-4014284Y-74355142D01*
X-4014284Y-74355142D02*
X-3842855Y-74355142D01*
X-3842855Y-74355142D02*
X-3728569Y-74412285D01*
X-3728569Y-74412285D02*
X-3671427Y-74469428D01*
X-3671427Y-74469428D02*
X-3614284Y-74583714D01*
X-3614284Y-74583714D02*
X-3614284Y-74926571D01*
X-3614284Y-74926571D02*
X-3671427Y-75040857D01*
X-3671427Y-75040857D02*
X-3728569Y-75098000D01*
X-3728569Y-75098000D02*
X-3842855Y-75155142D01*
X-3842855Y-75155142D02*
X-4014284Y-75155142D01*
X-3099998Y-74355142D02*
X-3099998Y-75155142D01*
X-3099998Y-74469428D02*
X-3042855Y-74412285D01*
X-3042855Y-74412285D02*
X-2928570Y-74355142D01*
X-2928570Y-74355142D02*
X-2757141Y-74355142D01*
X-2757141Y-74355142D02*
X-2642855Y-74412285D01*
X-2642855Y-74412285D02*
X-2585713Y-74526571D01*
X-2585713Y-74526571D02*
X-2585713Y-75155142D01*
X-2014284Y-74698000D02*
X-1099999Y-74698000D01*
X-585713Y-75098000D02*
X-414285Y-75155142D01*
X-414285Y-75155142D02*
X-128570Y-75155142D01*
X-128570Y-75155142D02*
X-14285Y-75098000D01*
X-14285Y-75098000D02*
X42857Y-75040857D01*
X42857Y-75040857D02*
X100000Y-74926571D01*
X100000Y-74926571D02*
X100000Y-74812285D01*
X100000Y-74812285D02*
X42857Y-74698000D01*
X42857Y-74698000D02*
X-14285Y-74640857D01*
X-14285Y-74640857D02*
X-128570Y-74583714D01*
X-128570Y-74583714D02*
X-357142Y-74526571D01*
X-357142Y-74526571D02*
X-471427Y-74469428D01*
X-471427Y-74469428D02*
X-528570Y-74412285D01*
X-528570Y-74412285D02*
X-585713Y-74298000D01*
X-585713Y-74298000D02*
X-585713Y-74183714D01*
X-585713Y-74183714D02*
X-528570Y-74069428D01*
X-528570Y-74069428D02*
X-471427Y-74012285D01*
X-471427Y-74012285D02*
X-357142Y-73955142D01*
X-357142Y-73955142D02*
X-71427Y-73955142D01*
X-71427Y-73955142D02*
X100000Y-74012285D01*
X442857Y-74355142D02*
X900000Y-74355142D01*
X614286Y-73955142D02*
X614286Y-74983714D01*
X614286Y-74983714D02*
X671429Y-75098000D01*
X671429Y-75098000D02*
X785714Y-75155142D01*
X785714Y-75155142D02*
X900000Y-75155142D01*
X1757143Y-75098000D02*
X1642857Y-75155142D01*
X1642857Y-75155142D02*
X1414286Y-75155142D01*
X1414286Y-75155142D02*
X1300000Y-75098000D01*
X1300000Y-75098000D02*
X1242857Y-74983714D01*
X1242857Y-74983714D02*
X1242857Y-74526571D01*
X1242857Y-74526571D02*
X1300000Y-74412285D01*
X1300000Y-74412285D02*
X1414286Y-74355142D01*
X1414286Y-74355142D02*
X1642857Y-74355142D01*
X1642857Y-74355142D02*
X1757143Y-74412285D01*
X1757143Y-74412285D02*
X1814286Y-74526571D01*
X1814286Y-74526571D02*
X1814286Y-74640857D01*
X1814286Y-74640857D02*
X1242857Y-74755142D01*
X2328571Y-74355142D02*
X2328571Y-75555142D01*
X2328571Y-74412285D02*
X2442857Y-74355142D01*
X2442857Y-74355142D02*
X2671428Y-74355142D01*
X2671428Y-74355142D02*
X2785714Y-74412285D01*
X2785714Y-74412285D02*
X2842857Y-74469428D01*
X2842857Y-74469428D02*
X2899999Y-74583714D01*
X2899999Y-74583714D02*
X2899999Y-74926571D01*
X2899999Y-74926571D02*
X2842857Y-75040857D01*
X2842857Y-75040857D02*
X2785714Y-75098000D01*
X2785714Y-75098000D02*
X2671428Y-75155142D01*
X2671428Y-75155142D02*
X2442857Y-75155142D01*
X2442857Y-75155142D02*
X2328571Y-75098000D01*
X3414285Y-74355142D02*
X3414285Y-75555142D01*
X3414285Y-74412285D02*
X3528571Y-74355142D01*
X3528571Y-74355142D02*
X3757142Y-74355142D01*
X3757142Y-74355142D02*
X3871428Y-74412285D01*
X3871428Y-74412285D02*
X3928571Y-74469428D01*
X3928571Y-74469428D02*
X3985713Y-74583714D01*
X3985713Y-74583714D02*
X3985713Y-74926571D01*
X3985713Y-74926571D02*
X3928571Y-75040857D01*
X3928571Y-75040857D02*
X3871428Y-75098000D01*
X3871428Y-75098000D02*
X3757142Y-75155142D01*
X3757142Y-75155142D02*
X3528571Y-75155142D01*
X3528571Y-75155142D02*
X3414285Y-75098000D01*
X4957142Y-75098000D02*
X4842856Y-75155142D01*
X4842856Y-75155142D02*
X4614285Y-75155142D01*
X4614285Y-75155142D02*
X4499999Y-75098000D01*
X4499999Y-75098000D02*
X4442856Y-74983714D01*
X4442856Y-74983714D02*
X4442856Y-74526571D01*
X4442856Y-74526571D02*
X4499999Y-74412285D01*
X4499999Y-74412285D02*
X4614285Y-74355142D01*
X4614285Y-74355142D02*
X4842856Y-74355142D01*
X4842856Y-74355142D02*
X4957142Y-74412285D01*
X4957142Y-74412285D02*
X5014285Y-74526571D01*
X5014285Y-74526571D02*
X5014285Y-74640857D01*
X5014285Y-74640857D02*
X4442856Y-74755142D01*
X6042856Y-75155142D02*
X6042856Y-73955142D01*
X6042856Y-75098000D02*
X5928570Y-75155142D01*
X5928570Y-75155142D02*
X5699998Y-75155142D01*
X5699998Y-75155142D02*
X5585713Y-75098000D01*
X5585713Y-75098000D02*
X5528570Y-75040857D01*
X5528570Y-75040857D02*
X5471427Y-74926571D01*
X5471427Y-74926571D02*
X5471427Y-74583714D01*
X5471427Y-74583714D02*
X5528570Y-74469428D01*
X5528570Y-74469428D02*
X5585713Y-74412285D01*
X5585713Y-74412285D02*
X5699998Y-74355142D01*
X5699998Y-74355142D02*
X5928570Y-74355142D01*
X5928570Y-74355142D02*
X6042856Y-74412285D01*
X17399999Y-113355142D02*
X16714285Y-113355142D01*
X17057142Y-113355142D02*
X17057142Y-112155142D01*
X17057142Y-112155142D02*
X16942856Y-112326571D01*
X16942856Y-112326571D02*
X16828571Y-112440857D01*
X16828571Y-112440857D02*
X16714285Y-112498000D01*
X17914285Y-113240857D02*
X17971428Y-113298000D01*
X17971428Y-113298000D02*
X17914285Y-113355142D01*
X17914285Y-113355142D02*
X17857142Y-113298000D01*
X17857142Y-113298000D02*
X17914285Y-113240857D01*
X17914285Y-113240857D02*
X17914285Y-113355142D01*
X18428571Y-112269428D02*
X18485714Y-112212285D01*
X18485714Y-112212285D02*
X18600000Y-112155142D01*
X18600000Y-112155142D02*
X18885714Y-112155142D01*
X18885714Y-112155142D02*
X19000000Y-112212285D01*
X19000000Y-112212285D02*
X19057142Y-112269428D01*
X19057142Y-112269428D02*
X19114285Y-112383714D01*
X19114285Y-112383714D02*
X19114285Y-112498000D01*
X19114285Y-112498000D02*
X19057142Y-112669428D01*
X19057142Y-112669428D02*
X18371428Y-113355142D01*
X18371428Y-113355142D02*
X19114285Y-113355142D01*
X20199999Y-112155142D02*
X19628571Y-112155142D01*
X19628571Y-112155142D02*
X19571428Y-112726571D01*
X19571428Y-112726571D02*
X19628571Y-112669428D01*
X19628571Y-112669428D02*
X19742857Y-112612285D01*
X19742857Y-112612285D02*
X20028571Y-112612285D01*
X20028571Y-112612285D02*
X20142857Y-112669428D01*
X20142857Y-112669428D02*
X20199999Y-112726571D01*
X20199999Y-112726571D02*
X20257142Y-112840857D01*
X20257142Y-112840857D02*
X20257142Y-113126571D01*
X20257142Y-113126571D02*
X20199999Y-113240857D01*
X20199999Y-113240857D02*
X20142857Y-113298000D01*
X20142857Y-113298000D02*
X20028571Y-113355142D01*
X20028571Y-113355142D02*
X19742857Y-113355142D01*
X19742857Y-113355142D02*
X19628571Y-113298000D01*
X19628571Y-113298000D02*
X19571428Y-113240857D01*
X21285714Y-112555142D02*
X21285714Y-113355142D01*
X20771428Y-112555142D02*
X20771428Y-113183714D01*
X20771428Y-113183714D02*
X20828571Y-113298000D01*
X20828571Y-113298000D02*
X20942856Y-113355142D01*
X20942856Y-113355142D02*
X21114285Y-113355142D01*
X21114285Y-113355142D02*
X21228571Y-113298000D01*
X21228571Y-113298000D02*
X21285714Y-113240857D01*
X22657142Y-112155142D02*
X22942856Y-113355142D01*
X22942856Y-113355142D02*
X23171428Y-112498000D01*
X23171428Y-112498000D02*
X23399999Y-113355142D01*
X23399999Y-113355142D02*
X23685714Y-112155142D01*
X24142857Y-113355142D02*
X24142857Y-112555142D01*
X24142857Y-112155142D02*
X24085714Y-112212285D01*
X24085714Y-112212285D02*
X24142857Y-112269428D01*
X24142857Y-112269428D02*
X24200000Y-112212285D01*
X24200000Y-112212285D02*
X24142857Y-112155142D01*
X24142857Y-112155142D02*
X24142857Y-112269428D01*
X24714286Y-112555142D02*
X24714286Y-113355142D01*
X24714286Y-112669428D02*
X24771429Y-112612285D01*
X24771429Y-112612285D02*
X24885714Y-112555142D01*
X24885714Y-112555142D02*
X25057143Y-112555142D01*
X25057143Y-112555142D02*
X25171429Y-112612285D01*
X25171429Y-112612285D02*
X25228572Y-112726571D01*
X25228572Y-112726571D02*
X25228572Y-113355142D01*
X-7214285Y-113255142D02*
X-7899999Y-113255142D01*
X-7557142Y-113255142D02*
X-7557142Y-112055142D01*
X-7557142Y-112055142D02*
X-7671428Y-112226571D01*
X-7671428Y-112226571D02*
X-7785713Y-112340857D01*
X-7785713Y-112340857D02*
X-7899999Y-112398000D01*
X-6699999Y-113140857D02*
X-6642856Y-113198000D01*
X-6642856Y-113198000D02*
X-6699999Y-113255142D01*
X-6699999Y-113255142D02*
X-6757142Y-113198000D01*
X-6757142Y-113198000D02*
X-6699999Y-113140857D01*
X-6699999Y-113140857D02*
X-6699999Y-113255142D01*
X-6185713Y-112169428D02*
X-6128570Y-112112285D01*
X-6128570Y-112112285D02*
X-6014285Y-112055142D01*
X-6014285Y-112055142D02*
X-5728570Y-112055142D01*
X-5728570Y-112055142D02*
X-5614285Y-112112285D01*
X-5614285Y-112112285D02*
X-5557142Y-112169428D01*
X-5557142Y-112169428D02*
X-5499999Y-112283714D01*
X-5499999Y-112283714D02*
X-5499999Y-112398000D01*
X-5499999Y-112398000D02*
X-5557142Y-112569428D01*
X-5557142Y-112569428D02*
X-6242856Y-113255142D01*
X-6242856Y-113255142D02*
X-5499999Y-113255142D01*
X-4414285Y-112055142D02*
X-4985713Y-112055142D01*
X-4985713Y-112055142D02*
X-5042856Y-112626571D01*
X-5042856Y-112626571D02*
X-4985713Y-112569428D01*
X-4985713Y-112569428D02*
X-4871428Y-112512285D01*
X-4871428Y-112512285D02*
X-4585713Y-112512285D01*
X-4585713Y-112512285D02*
X-4471428Y-112569428D01*
X-4471428Y-112569428D02*
X-4414285Y-112626571D01*
X-4414285Y-112626571D02*
X-4357142Y-112740857D01*
X-4357142Y-112740857D02*
X-4357142Y-113026571D01*
X-4357142Y-113026571D02*
X-4414285Y-113140857D01*
X-4414285Y-113140857D02*
X-4471428Y-113198000D01*
X-4471428Y-113198000D02*
X-4585713Y-113255142D01*
X-4585713Y-113255142D02*
X-4871428Y-113255142D01*
X-4871428Y-113255142D02*
X-4985713Y-113198000D01*
X-4985713Y-113198000D02*
X-5042856Y-113140857D01*
X-3328571Y-112455142D02*
X-3328571Y-113255142D01*
X-3842856Y-112455142D02*
X-3842856Y-113083714D01*
X-3842856Y-113083714D02*
X-3785713Y-113198000D01*
X-3785713Y-113198000D02*
X-3671428Y-113255142D01*
X-3671428Y-113255142D02*
X-3499999Y-113255142D01*
X-3499999Y-113255142D02*
X-3385713Y-113198000D01*
X-3385713Y-113198000D02*
X-3328571Y-113140857D01*
X-1157142Y-113140857D02*
X-1214285Y-113198000D01*
X-1214285Y-113198000D02*
X-1385713Y-113255142D01*
X-1385713Y-113255142D02*
X-1499999Y-113255142D01*
X-1499999Y-113255142D02*
X-1671428Y-113198000D01*
X-1671428Y-113198000D02*
X-1785713Y-113083714D01*
X-1785713Y-113083714D02*
X-1842856Y-112969428D01*
X-1842856Y-112969428D02*
X-1899999Y-112740857D01*
X-1899999Y-112740857D02*
X-1899999Y-112569428D01*
X-1899999Y-112569428D02*
X-1842856Y-112340857D01*
X-1842856Y-112340857D02*
X-1785713Y-112226571D01*
X-1785713Y-112226571D02*
X-1671428Y-112112285D01*
X-1671428Y-112112285D02*
X-1499999Y-112055142D01*
X-1499999Y-112055142D02*
X-1385713Y-112055142D01*
X-1385713Y-112055142D02*
X-1214285Y-112112285D01*
X-1214285Y-112112285D02*
X-1157142Y-112169428D01*
X-814285Y-112455142D02*
X-357142Y-112455142D01*
X-642856Y-112055142D02*
X-642856Y-113083714D01*
X-642856Y-113083714D02*
X-585713Y-113198000D01*
X-585713Y-113198000D02*
X-471428Y-113255142D01*
X-471428Y-113255142D02*
X-357142Y-113255142D01*
X42857Y-113255142D02*
X42857Y-112455142D01*
X42857Y-112683714D02*
X100000Y-112569428D01*
X100000Y-112569428D02*
X157143Y-112512285D01*
X157143Y-112512285D02*
X271428Y-112455142D01*
X271428Y-112455142D02*
X385714Y-112455142D01*
X957142Y-113255142D02*
X842857Y-113198000D01*
X842857Y-113198000D02*
X785714Y-113083714D01*
X785714Y-113083714D02*
X785714Y-112055142D01*
X-5242855Y-58898000D02*
X-5071427Y-58955142D01*
X-5071427Y-58955142D02*
X-4785712Y-58955142D01*
X-4785712Y-58955142D02*
X-4671427Y-58898000D01*
X-4671427Y-58898000D02*
X-4614284Y-58840857D01*
X-4614284Y-58840857D02*
X-4557141Y-58726571D01*
X-4557141Y-58726571D02*
X-4557141Y-58612285D01*
X-4557141Y-58612285D02*
X-4614284Y-58498000D01*
X-4614284Y-58498000D02*
X-4671427Y-58440857D01*
X-4671427Y-58440857D02*
X-4785712Y-58383714D01*
X-4785712Y-58383714D02*
X-5014284Y-58326571D01*
X-5014284Y-58326571D02*
X-5128569Y-58269428D01*
X-5128569Y-58269428D02*
X-5185712Y-58212285D01*
X-5185712Y-58212285D02*
X-5242855Y-58098000D01*
X-5242855Y-58098000D02*
X-5242855Y-57983714D01*
X-5242855Y-57983714D02*
X-5185712Y-57869428D01*
X-5185712Y-57869428D02*
X-5128569Y-57812285D01*
X-5128569Y-57812285D02*
X-5014284Y-57755142D01*
X-5014284Y-57755142D02*
X-4728569Y-57755142D01*
X-4728569Y-57755142D02*
X-4557141Y-57812285D01*
X-4214284Y-58155142D02*
X-3757141Y-58155142D01*
X-4042855Y-57755142D02*
X-4042855Y-58783714D01*
X-4042855Y-58783714D02*
X-3985712Y-58898000D01*
X-3985712Y-58898000D02*
X-3871427Y-58955142D01*
X-3871427Y-58955142D02*
X-3757141Y-58955142D01*
X-2899998Y-58898000D02*
X-3014284Y-58955142D01*
X-3014284Y-58955142D02*
X-3242856Y-58955142D01*
X-3242856Y-58955142D02*
X-3357141Y-58898000D01*
X-3357141Y-58898000D02*
X-3414284Y-58783714D01*
X-3414284Y-58783714D02*
X-3414284Y-58326571D01*
X-3414284Y-58326571D02*
X-3357141Y-58212285D01*
X-3357141Y-58212285D02*
X-3242856Y-58155142D01*
X-3242856Y-58155142D02*
X-3014284Y-58155142D01*
X-3014284Y-58155142D02*
X-2899998Y-58212285D01*
X-2899998Y-58212285D02*
X-2842856Y-58326571D01*
X-2842856Y-58326571D02*
X-2842856Y-58440857D01*
X-2842856Y-58440857D02*
X-3414284Y-58555142D01*
X-2328570Y-58155142D02*
X-2328570Y-59355142D01*
X-2328570Y-58212285D02*
X-2214285Y-58155142D01*
X-2214285Y-58155142D02*
X-1985713Y-58155142D01*
X-1985713Y-58155142D02*
X-1871427Y-58212285D01*
X-1871427Y-58212285D02*
X-1814285Y-58269428D01*
X-1814285Y-58269428D02*
X-1757142Y-58383714D01*
X-1757142Y-58383714D02*
X-1757142Y-58726571D01*
X-1757142Y-58726571D02*
X-1814285Y-58840857D01*
X-1814285Y-58840857D02*
X-1871427Y-58898000D01*
X-1871427Y-58898000D02*
X-1985713Y-58955142D01*
X-1985713Y-58955142D02*
X-2214285Y-58955142D01*
X-2214285Y-58955142D02*
X-2328570Y-58898000D01*
X-1242856Y-58155142D02*
X-1242856Y-59355142D01*
X-1242856Y-58212285D02*
X-1128571Y-58155142D01*
X-1128571Y-58155142D02*
X-899999Y-58155142D01*
X-899999Y-58155142D02*
X-785713Y-58212285D01*
X-785713Y-58212285D02*
X-728571Y-58269428D01*
X-728571Y-58269428D02*
X-671428Y-58383714D01*
X-671428Y-58383714D02*
X-671428Y-58726571D01*
X-671428Y-58726571D02*
X-728571Y-58840857D01*
X-728571Y-58840857D02*
X-785713Y-58898000D01*
X-785713Y-58898000D02*
X-899999Y-58955142D01*
X-899999Y-58955142D02*
X-1128571Y-58955142D01*
X-1128571Y-58955142D02*
X-1242856Y-58898000D01*
X300000Y-58898000D02*
X185714Y-58955142D01*
X185714Y-58955142D02*
X-42857Y-58955142D01*
X-42857Y-58955142D02*
X-157142Y-58898000D01*
X-157142Y-58898000D02*
X-214285Y-58783714D01*
X-214285Y-58783714D02*
X-214285Y-58326571D01*
X-214285Y-58326571D02*
X-157142Y-58212285D01*
X-157142Y-58212285D02*
X-42857Y-58155142D01*
X-42857Y-58155142D02*
X185714Y-58155142D01*
X185714Y-58155142D02*
X300000Y-58212285D01*
X300000Y-58212285D02*
X357143Y-58326571D01*
X357143Y-58326571D02*
X357143Y-58440857D01*
X357143Y-58440857D02*
X-214285Y-58555142D01*
X1385714Y-58955142D02*
X1385714Y-57755142D01*
X1385714Y-58898000D02*
X1271428Y-58955142D01*
X1271428Y-58955142D02*
X1042856Y-58955142D01*
X1042856Y-58955142D02*
X928571Y-58898000D01*
X928571Y-58898000D02*
X871428Y-58840857D01*
X871428Y-58840857D02*
X814285Y-58726571D01*
X814285Y-58726571D02*
X814285Y-58383714D01*
X814285Y-58383714D02*
X871428Y-58269428D01*
X871428Y-58269428D02*
X928571Y-58212285D01*
X928571Y-58212285D02*
X1042856Y-58155142D01*
X1042856Y-58155142D02*
X1271428Y-58155142D01*
X1271428Y-58155142D02*
X1385714Y-58212285D01*
X6657143Y-113255142D02*
X5971429Y-113255142D01*
X6314286Y-113255142D02*
X6314286Y-112055142D01*
X6314286Y-112055142D02*
X6200000Y-112226571D01*
X6200000Y-112226571D02*
X6085715Y-112340857D01*
X6085715Y-112340857D02*
X5971429Y-112398000D01*
X7171429Y-113140857D02*
X7228572Y-113198000D01*
X7228572Y-113198000D02*
X7171429Y-113255142D01*
X7171429Y-113255142D02*
X7114286Y-113198000D01*
X7114286Y-113198000D02*
X7171429Y-113140857D01*
X7171429Y-113140857D02*
X7171429Y-113255142D01*
X8314286Y-112055142D02*
X7742858Y-112055142D01*
X7742858Y-112055142D02*
X7685715Y-112626571D01*
X7685715Y-112626571D02*
X7742858Y-112569428D01*
X7742858Y-112569428D02*
X7857144Y-112512285D01*
X7857144Y-112512285D02*
X8142858Y-112512285D01*
X8142858Y-112512285D02*
X8257144Y-112569428D01*
X8257144Y-112569428D02*
X8314286Y-112626571D01*
X8314286Y-112626571D02*
X8371429Y-112740857D01*
X8371429Y-112740857D02*
X8371429Y-113026571D01*
X8371429Y-113026571D02*
X8314286Y-113140857D01*
X8314286Y-113140857D02*
X8257144Y-113198000D01*
X8257144Y-113198000D02*
X8142858Y-113255142D01*
X8142858Y-113255142D02*
X7857144Y-113255142D01*
X7857144Y-113255142D02*
X7742858Y-113198000D01*
X7742858Y-113198000D02*
X7685715Y-113140857D01*
X9400001Y-112455142D02*
X9400001Y-113255142D01*
X8885715Y-112455142D02*
X8885715Y-113083714D01*
X8885715Y-113083714D02*
X8942858Y-113198000D01*
X8942858Y-113198000D02*
X9057143Y-113255142D01*
X9057143Y-113255142D02*
X9228572Y-113255142D01*
X9228572Y-113255142D02*
X9342858Y-113198000D01*
X9342858Y-113198000D02*
X9400001Y-113140857D01*
X11571429Y-113140857D02*
X11514286Y-113198000D01*
X11514286Y-113198000D02*
X11342858Y-113255142D01*
X11342858Y-113255142D02*
X11228572Y-113255142D01*
X11228572Y-113255142D02*
X11057143Y-113198000D01*
X11057143Y-113198000D02*
X10942858Y-113083714D01*
X10942858Y-113083714D02*
X10885715Y-112969428D01*
X10885715Y-112969428D02*
X10828572Y-112740857D01*
X10828572Y-112740857D02*
X10828572Y-112569428D01*
X10828572Y-112569428D02*
X10885715Y-112340857D01*
X10885715Y-112340857D02*
X10942858Y-112226571D01*
X10942858Y-112226571D02*
X11057143Y-112112285D01*
X11057143Y-112112285D02*
X11228572Y-112055142D01*
X11228572Y-112055142D02*
X11342858Y-112055142D01*
X11342858Y-112055142D02*
X11514286Y-112112285D01*
X11514286Y-112112285D02*
X11571429Y-112169428D01*
X11914286Y-112455142D02*
X12371429Y-112455142D01*
X12085715Y-112055142D02*
X12085715Y-113083714D01*
X12085715Y-113083714D02*
X12142858Y-113198000D01*
X12142858Y-113198000D02*
X12257143Y-113255142D01*
X12257143Y-113255142D02*
X12371429Y-113255142D01*
X12771429Y-113255142D02*
X12771429Y-112455142D01*
X12771429Y-112683714D02*
X12828572Y-112569428D01*
X12828572Y-112569428D02*
X12885715Y-112512285D01*
X12885715Y-112512285D02*
X13000000Y-112455142D01*
X13000000Y-112455142D02*
X13114286Y-112455142D01*
X13685714Y-113255142D02*
X13571429Y-113198000D01*
X13571429Y-113198000D02*
X13514286Y-113083714D01*
X13514286Y-113083714D02*
X13514286Y-112055142D01*
X227157143Y-81415142D02*
X226757143Y-80843714D01*
X226471429Y-81415142D02*
X226471429Y-80215142D01*
X226471429Y-80215142D02*
X226928572Y-80215142D01*
X226928572Y-80215142D02*
X227042857Y-80272285D01*
X227042857Y-80272285D02*
X227100000Y-80329428D01*
X227100000Y-80329428D02*
X227157143Y-80443714D01*
X227157143Y-80443714D02*
X227157143Y-80615142D01*
X227157143Y-80615142D02*
X227100000Y-80729428D01*
X227100000Y-80729428D02*
X227042857Y-80786571D01*
X227042857Y-80786571D02*
X226928572Y-80843714D01*
X226928572Y-80843714D02*
X226471429Y-80843714D01*
X227671429Y-80786571D02*
X228071429Y-80786571D01*
X228242857Y-81415142D02*
X227671429Y-81415142D01*
X227671429Y-81415142D02*
X227671429Y-80215142D01*
X227671429Y-80215142D02*
X228242857Y-80215142D01*
X228700000Y-81358000D02*
X228871429Y-81415142D01*
X228871429Y-81415142D02*
X229157143Y-81415142D01*
X229157143Y-81415142D02*
X229271429Y-81358000D01*
X229271429Y-81358000D02*
X229328571Y-81300857D01*
X229328571Y-81300857D02*
X229385714Y-81186571D01*
X229385714Y-81186571D02*
X229385714Y-81072285D01*
X229385714Y-81072285D02*
X229328571Y-80958000D01*
X229328571Y-80958000D02*
X229271429Y-80900857D01*
X229271429Y-80900857D02*
X229157143Y-80843714D01*
X229157143Y-80843714D02*
X228928571Y-80786571D01*
X228928571Y-80786571D02*
X228814286Y-80729428D01*
X228814286Y-80729428D02*
X228757143Y-80672285D01*
X228757143Y-80672285D02*
X228700000Y-80558000D01*
X228700000Y-80558000D02*
X228700000Y-80443714D01*
X228700000Y-80443714D02*
X228757143Y-80329428D01*
X228757143Y-80329428D02*
X228814286Y-80272285D01*
X228814286Y-80272285D02*
X228928571Y-80215142D01*
X228928571Y-80215142D02*
X229214286Y-80215142D01*
X229214286Y-80215142D02*
X229385714Y-80272285D01*
X229900000Y-80786571D02*
X230300000Y-80786571D01*
X230471428Y-81415142D02*
X229900000Y-81415142D01*
X229900000Y-81415142D02*
X229900000Y-80215142D01*
X229900000Y-80215142D02*
X230471428Y-80215142D01*
X230814285Y-80215142D02*
X231500000Y-80215142D01*
X231157142Y-81415142D02*
X231157142Y-80215142D01*
X35114286Y-113255142D02*
X34428572Y-113255142D01*
X34771429Y-113255142D02*
X34771429Y-112055142D01*
X34771429Y-112055142D02*
X34657143Y-112226571D01*
X34657143Y-112226571D02*
X34542858Y-112340857D01*
X34542858Y-112340857D02*
X34428572Y-112398000D01*
X35628572Y-113140857D02*
X35685715Y-113198000D01*
X35685715Y-113198000D02*
X35628572Y-113255142D01*
X35628572Y-113255142D02*
X35571429Y-113198000D01*
X35571429Y-113198000D02*
X35628572Y-113140857D01*
X35628572Y-113140857D02*
X35628572Y-113255142D01*
X36771429Y-112055142D02*
X36200001Y-112055142D01*
X36200001Y-112055142D02*
X36142858Y-112626571D01*
X36142858Y-112626571D02*
X36200001Y-112569428D01*
X36200001Y-112569428D02*
X36314287Y-112512285D01*
X36314287Y-112512285D02*
X36600001Y-112512285D01*
X36600001Y-112512285D02*
X36714287Y-112569428D01*
X36714287Y-112569428D02*
X36771429Y-112626571D01*
X36771429Y-112626571D02*
X36828572Y-112740857D01*
X36828572Y-112740857D02*
X36828572Y-113026571D01*
X36828572Y-113026571D02*
X36771429Y-113140857D01*
X36771429Y-113140857D02*
X36714287Y-113198000D01*
X36714287Y-113198000D02*
X36600001Y-113255142D01*
X36600001Y-113255142D02*
X36314287Y-113255142D01*
X36314287Y-113255142D02*
X36200001Y-113198000D01*
X36200001Y-113198000D02*
X36142858Y-113140857D01*
X37857144Y-112455142D02*
X37857144Y-113255142D01*
X37342858Y-112455142D02*
X37342858Y-113083714D01*
X37342858Y-113083714D02*
X37400001Y-113198000D01*
X37400001Y-113198000D02*
X37514286Y-113255142D01*
X37514286Y-113255142D02*
X37685715Y-113255142D01*
X37685715Y-113255142D02*
X37800001Y-113198000D01*
X37800001Y-113198000D02*
X37857144Y-113140857D01*
X39285715Y-112912285D02*
X39857144Y-112912285D01*
X39171429Y-113255142D02*
X39571429Y-112055142D01*
X39571429Y-112055142D02*
X39971429Y-113255142D01*
X40542857Y-113255142D02*
X40428572Y-113198000D01*
X40428572Y-113198000D02*
X40371429Y-113083714D01*
X40371429Y-113083714D02*
X40371429Y-112055142D01*
X40828571Y-112455142D02*
X41285714Y-112455142D01*
X41000000Y-112055142D02*
X41000000Y-113083714D01*
X41000000Y-113083714D02*
X41057143Y-113198000D01*
X41057143Y-113198000D02*
X41171428Y-113255142D01*
X41171428Y-113255142D02*
X41285714Y-113255142D01*
X111557143Y-112055142D02*
X112357143Y-112055142D01*
X112357143Y-112055142D02*
X111842857Y-113255142D01*
X113328572Y-112455142D02*
X113328572Y-113255142D01*
X112814286Y-112455142D02*
X112814286Y-113083714D01*
X112814286Y-113083714D02*
X112871429Y-113198000D01*
X112871429Y-113198000D02*
X112985714Y-113255142D01*
X112985714Y-113255142D02*
X113157143Y-113255142D01*
X113157143Y-113255142D02*
X113271429Y-113198000D01*
X113271429Y-113198000D02*
X113328572Y-113140857D01*
X230186131Y-113255142D02*
X229500417Y-113255142D01*
X229843274Y-113255142D02*
X229843274Y-112055142D01*
X229843274Y-112055142D02*
X229728988Y-112226571D01*
X229728988Y-112226571D02*
X229614703Y-112340857D01*
X229614703Y-112340857D02*
X229500417Y-112398000D01*
X231214703Y-112455142D02*
X231214703Y-113255142D01*
X230700417Y-112455142D02*
X230700417Y-113083714D01*
X230700417Y-113083714D02*
X230757560Y-113198000D01*
X230757560Y-113198000D02*
X230871845Y-113255142D01*
X230871845Y-113255142D02*
X231043274Y-113255142D01*
X231043274Y-113255142D02*
X231157560Y-113198000D01*
X231157560Y-113198000D02*
X231214703Y-113140857D01*
X116243402Y-114055142D02*
X115557688Y-114055142D01*
X115900545Y-114055142D02*
X115900545Y-112855142D01*
X115900545Y-112855142D02*
X115786259Y-113026571D01*
X115786259Y-113026571D02*
X115671974Y-113140857D01*
X115671974Y-113140857D02*
X115557688Y-113198000D01*
X116757688Y-113940857D02*
X116814831Y-113998000D01*
X116814831Y-113998000D02*
X116757688Y-114055142D01*
X116757688Y-114055142D02*
X116700545Y-113998000D01*
X116700545Y-113998000D02*
X116757688Y-113940857D01*
X116757688Y-113940857D02*
X116757688Y-114055142D01*
X117271974Y-112969428D02*
X117329117Y-112912285D01*
X117329117Y-112912285D02*
X117443403Y-112855142D01*
X117443403Y-112855142D02*
X117729117Y-112855142D01*
X117729117Y-112855142D02*
X117843403Y-112912285D01*
X117843403Y-112912285D02*
X117900545Y-112969428D01*
X117900545Y-112969428D02*
X117957688Y-113083714D01*
X117957688Y-113083714D02*
X117957688Y-113198000D01*
X117957688Y-113198000D02*
X117900545Y-113369428D01*
X117900545Y-113369428D02*
X117214831Y-114055142D01*
X117214831Y-114055142D02*
X117957688Y-114055142D01*
X119043402Y-112855142D02*
X118471974Y-112855142D01*
X118471974Y-112855142D02*
X118414831Y-113426571D01*
X118414831Y-113426571D02*
X118471974Y-113369428D01*
X118471974Y-113369428D02*
X118586260Y-113312285D01*
X118586260Y-113312285D02*
X118871974Y-113312285D01*
X118871974Y-113312285D02*
X118986260Y-113369428D01*
X118986260Y-113369428D02*
X119043402Y-113426571D01*
X119043402Y-113426571D02*
X119100545Y-113540857D01*
X119100545Y-113540857D02*
X119100545Y-113826571D01*
X119100545Y-113826571D02*
X119043402Y-113940857D01*
X119043402Y-113940857D02*
X118986260Y-113998000D01*
X118986260Y-113998000D02*
X118871974Y-114055142D01*
X118871974Y-114055142D02*
X118586260Y-114055142D01*
X118586260Y-114055142D02*
X118471974Y-113998000D01*
X118471974Y-113998000D02*
X118414831Y-113940857D01*
X120129117Y-113255142D02*
X120129117Y-114055142D01*
X119614831Y-113255142D02*
X119614831Y-113883714D01*
X119614831Y-113883714D02*
X119671974Y-113998000D01*
X119671974Y-113998000D02*
X119786259Y-114055142D01*
X119786259Y-114055142D02*
X119957688Y-114055142D01*
X119957688Y-114055142D02*
X120071974Y-113998000D01*
X120071974Y-113998000D02*
X120129117Y-113940857D01*
X189590472Y-96262619D02*
X190161900Y-96262619D01*
X189876186Y-97262619D02*
X189876186Y-96262619D01*
X190876186Y-97215000D02*
X190780948Y-97262619D01*
X190780948Y-97262619D02*
X190590472Y-97262619D01*
X190590472Y-97262619D02*
X190495234Y-97215000D01*
X190495234Y-97215000D02*
X190447615Y-97119761D01*
X190447615Y-97119761D02*
X190447615Y-96738809D01*
X190447615Y-96738809D02*
X190495234Y-96643571D01*
X190495234Y-96643571D02*
X190590472Y-96595952D01*
X190590472Y-96595952D02*
X190780948Y-96595952D01*
X190780948Y-96595952D02*
X190876186Y-96643571D01*
X190876186Y-96643571D02*
X190923805Y-96738809D01*
X190923805Y-96738809D02*
X190923805Y-96834047D01*
X190923805Y-96834047D02*
X190447615Y-96929285D01*
X191304758Y-97215000D02*
X191399996Y-97262619D01*
X191399996Y-97262619D02*
X191590472Y-97262619D01*
X191590472Y-97262619D02*
X191685710Y-97215000D01*
X191685710Y-97215000D02*
X191733329Y-97119761D01*
X191733329Y-97119761D02*
X191733329Y-97072142D01*
X191733329Y-97072142D02*
X191685710Y-96976904D01*
X191685710Y-96976904D02*
X191590472Y-96929285D01*
X191590472Y-96929285D02*
X191447615Y-96929285D01*
X191447615Y-96929285D02*
X191352377Y-96881666D01*
X191352377Y-96881666D02*
X191304758Y-96786428D01*
X191304758Y-96786428D02*
X191304758Y-96738809D01*
X191304758Y-96738809D02*
X191352377Y-96643571D01*
X191352377Y-96643571D02*
X191447615Y-96595952D01*
X191447615Y-96595952D02*
X191590472Y-96595952D01*
X191590472Y-96595952D02*
X191685710Y-96643571D01*
X192019044Y-96595952D02*
X192399996Y-96595952D01*
X192161901Y-96262619D02*
X192161901Y-97119761D01*
X192161901Y-97119761D02*
X192209520Y-97215000D01*
X192209520Y-97215000D02*
X192304758Y-97262619D01*
X192304758Y-97262619D02*
X192399996Y-97262619D01*
X193399997Y-96595952D02*
X193638092Y-97262619D01*
X193876187Y-96595952D02*
X193638092Y-97262619D01*
X193638092Y-97262619D02*
X193542854Y-97500714D01*
X193542854Y-97500714D02*
X193495235Y-97548333D01*
X193495235Y-97548333D02*
X193399997Y-97595952D01*
X194399997Y-97262619D02*
X194304759Y-97215000D01*
X194304759Y-97215000D02*
X194257140Y-97167380D01*
X194257140Y-97167380D02*
X194209521Y-97072142D01*
X194209521Y-97072142D02*
X194209521Y-96786428D01*
X194209521Y-96786428D02*
X194257140Y-96691190D01*
X194257140Y-96691190D02*
X194304759Y-96643571D01*
X194304759Y-96643571D02*
X194399997Y-96595952D01*
X194399997Y-96595952D02*
X194542854Y-96595952D01*
X194542854Y-96595952D02*
X194638092Y-96643571D01*
X194638092Y-96643571D02*
X194685711Y-96691190D01*
X194685711Y-96691190D02*
X194733330Y-96786428D01*
X194733330Y-96786428D02*
X194733330Y-97072142D01*
X194733330Y-97072142D02*
X194685711Y-97167380D01*
X194685711Y-97167380D02*
X194638092Y-97215000D01*
X194638092Y-97215000D02*
X194542854Y-97262619D01*
X194542854Y-97262619D02*
X194399997Y-97262619D01*
X195590473Y-96595952D02*
X195590473Y-97262619D01*
X195161902Y-96595952D02*
X195161902Y-97119761D01*
X195161902Y-97119761D02*
X195209521Y-97215000D01*
X195209521Y-97215000D02*
X195304759Y-97262619D01*
X195304759Y-97262619D02*
X195447616Y-97262619D01*
X195447616Y-97262619D02*
X195542854Y-97215000D01*
X195542854Y-97215000D02*
X195590473Y-97167380D01*
X196066664Y-97262619D02*
X196066664Y-96595952D01*
X196066664Y-96786428D02*
X196114283Y-96691190D01*
X196114283Y-96691190D02*
X196161902Y-96643571D01*
X196161902Y-96643571D02*
X196257140Y-96595952D01*
X196257140Y-96595952D02*
X196352378Y-96595952D01*
X197447617Y-97262619D02*
X197447617Y-96262619D01*
X197447617Y-96643571D02*
X197542855Y-96595952D01*
X197542855Y-96595952D02*
X197733331Y-96595952D01*
X197733331Y-96595952D02*
X197828569Y-96643571D01*
X197828569Y-96643571D02*
X197876188Y-96691190D01*
X197876188Y-96691190D02*
X197923807Y-96786428D01*
X197923807Y-96786428D02*
X197923807Y-97072142D01*
X197923807Y-97072142D02*
X197876188Y-97167380D01*
X197876188Y-97167380D02*
X197828569Y-97215000D01*
X197828569Y-97215000D02*
X197733331Y-97262619D01*
X197733331Y-97262619D02*
X197542855Y-97262619D01*
X197542855Y-97262619D02*
X197447617Y-97215000D01*
X198495236Y-97262619D02*
X198399998Y-97215000D01*
X198399998Y-97215000D02*
X198352379Y-97167380D01*
X198352379Y-97167380D02*
X198304760Y-97072142D01*
X198304760Y-97072142D02*
X198304760Y-96786428D01*
X198304760Y-96786428D02*
X198352379Y-96691190D01*
X198352379Y-96691190D02*
X198399998Y-96643571D01*
X198399998Y-96643571D02*
X198495236Y-96595952D01*
X198495236Y-96595952D02*
X198638093Y-96595952D01*
X198638093Y-96595952D02*
X198733331Y-96643571D01*
X198733331Y-96643571D02*
X198780950Y-96691190D01*
X198780950Y-96691190D02*
X198828569Y-96786428D01*
X198828569Y-96786428D02*
X198828569Y-97072142D01*
X198828569Y-97072142D02*
X198780950Y-97167380D01*
X198780950Y-97167380D02*
X198733331Y-97215000D01*
X198733331Y-97215000D02*
X198638093Y-97262619D01*
X198638093Y-97262619D02*
X198495236Y-97262619D01*
X199114284Y-96595952D02*
X199495236Y-96595952D01*
X199257141Y-96262619D02*
X199257141Y-97119761D01*
X199257141Y-97119761D02*
X199304760Y-97215000D01*
X199304760Y-97215000D02*
X199399998Y-97262619D01*
X199399998Y-97262619D02*
X199495236Y-97262619D01*
X199685713Y-96595952D02*
X200066665Y-96595952D01*
X199828570Y-96262619D02*
X199828570Y-97119761D01*
X199828570Y-97119761D02*
X199876189Y-97215000D01*
X199876189Y-97215000D02*
X199971427Y-97262619D01*
X199971427Y-97262619D02*
X200066665Y-97262619D01*
X200542856Y-97262619D02*
X200447618Y-97215000D01*
X200447618Y-97215000D02*
X200399999Y-97167380D01*
X200399999Y-97167380D02*
X200352380Y-97072142D01*
X200352380Y-97072142D02*
X200352380Y-96786428D01*
X200352380Y-96786428D02*
X200399999Y-96691190D01*
X200399999Y-96691190D02*
X200447618Y-96643571D01*
X200447618Y-96643571D02*
X200542856Y-96595952D01*
X200542856Y-96595952D02*
X200685713Y-96595952D01*
X200685713Y-96595952D02*
X200780951Y-96643571D01*
X200780951Y-96643571D02*
X200828570Y-96691190D01*
X200828570Y-96691190D02*
X200876189Y-96786428D01*
X200876189Y-96786428D02*
X200876189Y-97072142D01*
X200876189Y-97072142D02*
X200828570Y-97167380D01*
X200828570Y-97167380D02*
X200780951Y-97215000D01*
X200780951Y-97215000D02*
X200685713Y-97262619D01*
X200685713Y-97262619D02*
X200542856Y-97262619D01*
X201304761Y-97262619D02*
X201304761Y-96595952D01*
X201304761Y-96691190D02*
X201352380Y-96643571D01*
X201352380Y-96643571D02*
X201447618Y-96595952D01*
X201447618Y-96595952D02*
X201590475Y-96595952D01*
X201590475Y-96595952D02*
X201685713Y-96643571D01*
X201685713Y-96643571D02*
X201733332Y-96738809D01*
X201733332Y-96738809D02*
X201733332Y-97262619D01*
X201733332Y-96738809D02*
X201780951Y-96643571D01*
X201780951Y-96643571D02*
X201876189Y-96595952D01*
X201876189Y-96595952D02*
X202019046Y-96595952D01*
X202019046Y-96595952D02*
X202114285Y-96643571D01*
X202114285Y-96643571D02*
X202161904Y-96738809D01*
X202161904Y-96738809D02*
X202161904Y-97262619D01*
X203399999Y-97262619D02*
X203399999Y-96595952D01*
X203399999Y-96786428D02*
X203447618Y-96691190D01*
X203447618Y-96691190D02*
X203495237Y-96643571D01*
X203495237Y-96643571D02*
X203590475Y-96595952D01*
X203590475Y-96595952D02*
X203685713Y-96595952D01*
X204161904Y-97262619D02*
X204066666Y-97215000D01*
X204066666Y-97215000D02*
X204019047Y-97167380D01*
X204019047Y-97167380D02*
X203971428Y-97072142D01*
X203971428Y-97072142D02*
X203971428Y-96786428D01*
X203971428Y-96786428D02*
X204019047Y-96691190D01*
X204019047Y-96691190D02*
X204066666Y-96643571D01*
X204066666Y-96643571D02*
X204161904Y-96595952D01*
X204161904Y-96595952D02*
X204304761Y-96595952D01*
X204304761Y-96595952D02*
X204399999Y-96643571D01*
X204399999Y-96643571D02*
X204447618Y-96691190D01*
X204447618Y-96691190D02*
X204495237Y-96786428D01*
X204495237Y-96786428D02*
X204495237Y-97072142D01*
X204495237Y-97072142D02*
X204447618Y-97167380D01*
X204447618Y-97167380D02*
X204399999Y-97215000D01*
X204399999Y-97215000D02*
X204304761Y-97262619D01*
X204304761Y-97262619D02*
X204161904Y-97262619D01*
X204828571Y-96595952D02*
X205019047Y-97262619D01*
X205019047Y-97262619D02*
X205209523Y-96786428D01*
X205209523Y-96786428D02*
X205399999Y-97262619D01*
X205399999Y-97262619D02*
X205590475Y-96595952D01*
X206638095Y-96595952D02*
X206828571Y-97262619D01*
X206828571Y-97262619D02*
X207019047Y-96786428D01*
X207019047Y-96786428D02*
X207209523Y-97262619D01*
X207209523Y-97262619D02*
X207399999Y-96595952D01*
X207780952Y-97262619D02*
X207780952Y-96595952D01*
X207780952Y-96262619D02*
X207733333Y-96310238D01*
X207733333Y-96310238D02*
X207780952Y-96357857D01*
X207780952Y-96357857D02*
X207828571Y-96310238D01*
X207828571Y-96310238D02*
X207780952Y-96262619D01*
X207780952Y-96262619D02*
X207780952Y-96357857D01*
X208114285Y-96595952D02*
X208495237Y-96595952D01*
X208257142Y-96262619D02*
X208257142Y-97119761D01*
X208257142Y-97119761D02*
X208304761Y-97215000D01*
X208304761Y-97215000D02*
X208399999Y-97262619D01*
X208399999Y-97262619D02*
X208495237Y-97262619D01*
X208828571Y-97262619D02*
X208828571Y-96262619D01*
X209257142Y-97262619D02*
X209257142Y-96738809D01*
X209257142Y-96738809D02*
X209209523Y-96643571D01*
X209209523Y-96643571D02*
X209114285Y-96595952D01*
X209114285Y-96595952D02*
X208971428Y-96595952D01*
X208971428Y-96595952D02*
X208876190Y-96643571D01*
X208876190Y-96643571D02*
X208828571Y-96691190D01*
X210495238Y-97262619D02*
X210495238Y-96262619D01*
X210590476Y-96881666D02*
X210876190Y-97262619D01*
X210876190Y-96595952D02*
X210495238Y-96976904D01*
X211685714Y-97215000D02*
X211590476Y-97262619D01*
X211590476Y-97262619D02*
X211400000Y-97262619D01*
X211400000Y-97262619D02*
X211304762Y-97215000D01*
X211304762Y-97215000D02*
X211257143Y-97119761D01*
X211257143Y-97119761D02*
X211257143Y-96738809D01*
X211257143Y-96738809D02*
X211304762Y-96643571D01*
X211304762Y-96643571D02*
X211400000Y-96595952D01*
X211400000Y-96595952D02*
X211590476Y-96595952D01*
X211590476Y-96595952D02*
X211685714Y-96643571D01*
X211685714Y-96643571D02*
X211733333Y-96738809D01*
X211733333Y-96738809D02*
X211733333Y-96834047D01*
X211733333Y-96834047D02*
X211257143Y-96929285D01*
X212066667Y-96595952D02*
X212304762Y-97262619D01*
X212542857Y-96595952D02*
X212304762Y-97262619D01*
X212304762Y-97262619D02*
X212209524Y-97500714D01*
X212209524Y-97500714D02*
X212161905Y-97548333D01*
X212161905Y-97548333D02*
X212066667Y-97595952D01*
X213352381Y-97215000D02*
X213257143Y-97262619D01*
X213257143Y-97262619D02*
X213066667Y-97262619D01*
X213066667Y-97262619D02*
X212971429Y-97215000D01*
X212971429Y-97215000D02*
X212923810Y-97167380D01*
X212923810Y-97167380D02*
X212876191Y-97072142D01*
X212876191Y-97072142D02*
X212876191Y-96786428D01*
X212876191Y-96786428D02*
X212923810Y-96691190D01*
X212923810Y-96691190D02*
X212971429Y-96643571D01*
X212971429Y-96643571D02*
X213066667Y-96595952D01*
X213066667Y-96595952D02*
X213257143Y-96595952D01*
X213257143Y-96595952D02*
X213352381Y-96643571D01*
X214209524Y-97262619D02*
X214209524Y-96738809D01*
X214209524Y-96738809D02*
X214161905Y-96643571D01*
X214161905Y-96643571D02*
X214066667Y-96595952D01*
X214066667Y-96595952D02*
X213876191Y-96595952D01*
X213876191Y-96595952D02*
X213780953Y-96643571D01*
X214209524Y-97215000D02*
X214114286Y-97262619D01*
X214114286Y-97262619D02*
X213876191Y-97262619D01*
X213876191Y-97262619D02*
X213780953Y-97215000D01*
X213780953Y-97215000D02*
X213733334Y-97119761D01*
X213733334Y-97119761D02*
X213733334Y-97024523D01*
X213733334Y-97024523D02*
X213780953Y-96929285D01*
X213780953Y-96929285D02*
X213876191Y-96881666D01*
X213876191Y-96881666D02*
X214114286Y-96881666D01*
X214114286Y-96881666D02*
X214209524Y-96834047D01*
X214685715Y-96595952D02*
X214685715Y-97595952D01*
X214685715Y-96643571D02*
X214780953Y-96595952D01*
X214780953Y-96595952D02*
X214971429Y-96595952D01*
X214971429Y-96595952D02*
X215066667Y-96643571D01*
X215066667Y-96643571D02*
X215114286Y-96691190D01*
X215114286Y-96691190D02*
X215161905Y-96786428D01*
X215161905Y-96786428D02*
X215161905Y-97072142D01*
X215161905Y-97072142D02*
X215114286Y-97167380D01*
X215114286Y-97167380D02*
X215066667Y-97215000D01*
X215066667Y-97215000D02*
X214971429Y-97262619D01*
X214971429Y-97262619D02*
X214780953Y-97262619D01*
X214780953Y-97262619D02*
X214685715Y-97215000D01*
X215542858Y-97215000D02*
X215638096Y-97262619D01*
X215638096Y-97262619D02*
X215828572Y-97262619D01*
X215828572Y-97262619D02*
X215923810Y-97215000D01*
X215923810Y-97215000D02*
X215971429Y-97119761D01*
X215971429Y-97119761D02*
X215971429Y-97072142D01*
X215971429Y-97072142D02*
X215923810Y-96976904D01*
X215923810Y-96976904D02*
X215828572Y-96929285D01*
X215828572Y-96929285D02*
X215685715Y-96929285D01*
X215685715Y-96929285D02*
X215590477Y-96881666D01*
X215590477Y-96881666D02*
X215542858Y-96786428D01*
X215542858Y-96786428D02*
X215542858Y-96738809D01*
X215542858Y-96738809D02*
X215590477Y-96643571D01*
X215590477Y-96643571D02*
X215685715Y-96595952D01*
X215685715Y-96595952D02*
X215828572Y-96595952D01*
X215828572Y-96595952D02*
X215923810Y-96643571D01*
X217161906Y-97262619D02*
X217161906Y-96262619D01*
X217161906Y-96643571D02*
X217257144Y-96595952D01*
X217257144Y-96595952D02*
X217447620Y-96595952D01*
X217447620Y-96595952D02*
X217542858Y-96643571D01*
X217542858Y-96643571D02*
X217590477Y-96691190D01*
X217590477Y-96691190D02*
X217638096Y-96786428D01*
X217638096Y-96786428D02*
X217638096Y-97072142D01*
X217638096Y-97072142D02*
X217590477Y-97167380D01*
X217590477Y-97167380D02*
X217542858Y-97215000D01*
X217542858Y-97215000D02*
X217447620Y-97262619D01*
X217447620Y-97262619D02*
X217257144Y-97262619D01*
X217257144Y-97262619D02*
X217161906Y-97215000D01*
X218447620Y-97215000D02*
X218352382Y-97262619D01*
X218352382Y-97262619D02*
X218161906Y-97262619D01*
X218161906Y-97262619D02*
X218066668Y-97215000D01*
X218066668Y-97215000D02*
X218019049Y-97119761D01*
X218019049Y-97119761D02*
X218019049Y-96738809D01*
X218019049Y-96738809D02*
X218066668Y-96643571D01*
X218066668Y-96643571D02*
X218161906Y-96595952D01*
X218161906Y-96595952D02*
X218352382Y-96595952D01*
X218352382Y-96595952D02*
X218447620Y-96643571D01*
X218447620Y-96643571D02*
X218495239Y-96738809D01*
X218495239Y-96738809D02*
X218495239Y-96834047D01*
X218495239Y-96834047D02*
X218019049Y-96929285D01*
X218780954Y-96595952D02*
X219161906Y-96595952D01*
X218923811Y-97262619D02*
X218923811Y-96405476D01*
X218923811Y-96405476D02*
X218971430Y-96310238D01*
X218971430Y-96310238D02*
X219066668Y-96262619D01*
X219066668Y-96262619D02*
X219161906Y-96262619D01*
X219638097Y-97262619D02*
X219542859Y-97215000D01*
X219542859Y-97215000D02*
X219495240Y-97167380D01*
X219495240Y-97167380D02*
X219447621Y-97072142D01*
X219447621Y-97072142D02*
X219447621Y-96786428D01*
X219447621Y-96786428D02*
X219495240Y-96691190D01*
X219495240Y-96691190D02*
X219542859Y-96643571D01*
X219542859Y-96643571D02*
X219638097Y-96595952D01*
X219638097Y-96595952D02*
X219780954Y-96595952D01*
X219780954Y-96595952D02*
X219876192Y-96643571D01*
X219876192Y-96643571D02*
X219923811Y-96691190D01*
X219923811Y-96691190D02*
X219971430Y-96786428D01*
X219971430Y-96786428D02*
X219971430Y-97072142D01*
X219971430Y-97072142D02*
X219923811Y-97167380D01*
X219923811Y-97167380D02*
X219876192Y-97215000D01*
X219876192Y-97215000D02*
X219780954Y-97262619D01*
X219780954Y-97262619D02*
X219638097Y-97262619D01*
X220400002Y-97262619D02*
X220400002Y-96595952D01*
X220400002Y-96786428D02*
X220447621Y-96691190D01*
X220447621Y-96691190D02*
X220495240Y-96643571D01*
X220495240Y-96643571D02*
X220590478Y-96595952D01*
X220590478Y-96595952D02*
X220685716Y-96595952D01*
X221400002Y-97215000D02*
X221304764Y-97262619D01*
X221304764Y-97262619D02*
X221114288Y-97262619D01*
X221114288Y-97262619D02*
X221019050Y-97215000D01*
X221019050Y-97215000D02*
X220971431Y-97119761D01*
X220971431Y-97119761D02*
X220971431Y-96738809D01*
X220971431Y-96738809D02*
X221019050Y-96643571D01*
X221019050Y-96643571D02*
X221114288Y-96595952D01*
X221114288Y-96595952D02*
X221304764Y-96595952D01*
X221304764Y-96595952D02*
X221400002Y-96643571D01*
X221400002Y-96643571D02*
X221447621Y-96738809D01*
X221447621Y-96738809D02*
X221447621Y-96834047D01*
X221447621Y-96834047D02*
X220971431Y-96929285D01*
X222590479Y-97215000D02*
X222685717Y-97262619D01*
X222685717Y-97262619D02*
X222876193Y-97262619D01*
X222876193Y-97262619D02*
X222971431Y-97215000D01*
X222971431Y-97215000D02*
X223019050Y-97119761D01*
X223019050Y-97119761D02*
X223019050Y-97072142D01*
X223019050Y-97072142D02*
X222971431Y-96976904D01*
X222971431Y-96976904D02*
X222876193Y-96929285D01*
X222876193Y-96929285D02*
X222733336Y-96929285D01*
X222733336Y-96929285D02*
X222638098Y-96881666D01*
X222638098Y-96881666D02*
X222590479Y-96786428D01*
X222590479Y-96786428D02*
X222590479Y-96738809D01*
X222590479Y-96738809D02*
X222638098Y-96643571D01*
X222638098Y-96643571D02*
X222733336Y-96595952D01*
X222733336Y-96595952D02*
X222876193Y-96595952D01*
X222876193Y-96595952D02*
X222971431Y-96643571D01*
X223590479Y-97262619D02*
X223495241Y-97215000D01*
X223495241Y-97215000D02*
X223447622Y-97167380D01*
X223447622Y-97167380D02*
X223400003Y-97072142D01*
X223400003Y-97072142D02*
X223400003Y-96786428D01*
X223400003Y-96786428D02*
X223447622Y-96691190D01*
X223447622Y-96691190D02*
X223495241Y-96643571D01*
X223495241Y-96643571D02*
X223590479Y-96595952D01*
X223590479Y-96595952D02*
X223733336Y-96595952D01*
X223733336Y-96595952D02*
X223828574Y-96643571D01*
X223828574Y-96643571D02*
X223876193Y-96691190D01*
X223876193Y-96691190D02*
X223923812Y-96786428D01*
X223923812Y-96786428D02*
X223923812Y-97072142D01*
X223923812Y-97072142D02*
X223876193Y-97167380D01*
X223876193Y-97167380D02*
X223828574Y-97215000D01*
X223828574Y-97215000D02*
X223733336Y-97262619D01*
X223733336Y-97262619D02*
X223590479Y-97262619D01*
X224495241Y-97262619D02*
X224400003Y-97215000D01*
X224400003Y-97215000D02*
X224352384Y-97119761D01*
X224352384Y-97119761D02*
X224352384Y-96262619D01*
X225304765Y-97262619D02*
X225304765Y-96262619D01*
X225304765Y-97215000D02*
X225209527Y-97262619D01*
X225209527Y-97262619D02*
X225019051Y-97262619D01*
X225019051Y-97262619D02*
X224923813Y-97215000D01*
X224923813Y-97215000D02*
X224876194Y-97167380D01*
X224876194Y-97167380D02*
X224828575Y-97072142D01*
X224828575Y-97072142D02*
X224828575Y-96786428D01*
X224828575Y-96786428D02*
X224876194Y-96691190D01*
X224876194Y-96691190D02*
X224923813Y-96643571D01*
X224923813Y-96643571D02*
X225019051Y-96595952D01*
X225019051Y-96595952D02*
X225209527Y-96595952D01*
X225209527Y-96595952D02*
X225304765Y-96643571D01*
X226161908Y-97215000D02*
X226066670Y-97262619D01*
X226066670Y-97262619D02*
X225876194Y-97262619D01*
X225876194Y-97262619D02*
X225780956Y-97215000D01*
X225780956Y-97215000D02*
X225733337Y-97119761D01*
X225733337Y-97119761D02*
X225733337Y-96738809D01*
X225733337Y-96738809D02*
X225780956Y-96643571D01*
X225780956Y-96643571D02*
X225876194Y-96595952D01*
X225876194Y-96595952D02*
X226066670Y-96595952D01*
X226066670Y-96595952D02*
X226161908Y-96643571D01*
X226161908Y-96643571D02*
X226209527Y-96738809D01*
X226209527Y-96738809D02*
X226209527Y-96834047D01*
X226209527Y-96834047D02*
X225733337Y-96929285D01*
X226638099Y-97262619D02*
X226638099Y-96595952D01*
X226638099Y-96786428D02*
X226685718Y-96691190D01*
X226685718Y-96691190D02*
X226733337Y-96643571D01*
X226733337Y-96643571D02*
X226828575Y-96595952D01*
X226828575Y-96595952D02*
X226923813Y-96595952D01*
X227257147Y-97262619D02*
X227257147Y-96595952D01*
X227257147Y-96262619D02*
X227209528Y-96310238D01*
X227209528Y-96310238D02*
X227257147Y-96357857D01*
X227257147Y-96357857D02*
X227304766Y-96310238D01*
X227304766Y-96310238D02*
X227257147Y-96262619D01*
X227257147Y-96262619D02*
X227257147Y-96357857D01*
X227733337Y-96595952D02*
X227733337Y-97262619D01*
X227733337Y-96691190D02*
X227780956Y-96643571D01*
X227780956Y-96643571D02*
X227876194Y-96595952D01*
X227876194Y-96595952D02*
X228019051Y-96595952D01*
X228019051Y-96595952D02*
X228114289Y-96643571D01*
X228114289Y-96643571D02*
X228161908Y-96738809D01*
X228161908Y-96738809D02*
X228161908Y-97262619D01*
X229066670Y-96595952D02*
X229066670Y-97405476D01*
X229066670Y-97405476D02*
X229019051Y-97500714D01*
X229019051Y-97500714D02*
X228971432Y-97548333D01*
X228971432Y-97548333D02*
X228876194Y-97595952D01*
X228876194Y-97595952D02*
X228733337Y-97595952D01*
X228733337Y-97595952D02*
X228638099Y-97548333D01*
X229066670Y-97215000D02*
X228971432Y-97262619D01*
X228971432Y-97262619D02*
X228780956Y-97262619D01*
X228780956Y-97262619D02*
X228685718Y-97215000D01*
X228685718Y-97215000D02*
X228638099Y-97167380D01*
X228638099Y-97167380D02*
X228590480Y-97072142D01*
X228590480Y-97072142D02*
X228590480Y-96786428D01*
X228590480Y-96786428D02*
X228638099Y-96691190D01*
X228638099Y-96691190D02*
X228685718Y-96643571D01*
X228685718Y-96643571D02*
X228780956Y-96595952D01*
X228780956Y-96595952D02*
X228971432Y-96595952D01*
X228971432Y-96595952D02*
X229066670Y-96643571D01*
M02*
