0
SECTION
2
HEADER
9
$INSUNITS
70
4
9
$ACADVER
1
AC1014
9
$HANDSEED
5
FFFF
0
ENDSEC
0
SECTION
2
TABLES
0
TABLE
2
VPORT
5
8
100
AcDbSymbolTable
0
ENDTAB
0
TABLE
2
LTYPE
5
5
100
AcDbSymbolTable
0
LTYPE
5
14
100
AcDbSymbolTableRecord
100
AcDbLinetypeTableRecord
2
BYBLOCK
70
0
0
LTYPE
5
15
100
AcDbSymbolTableRecord
100
AcDbLinetypeTableRecord
2
BYLAYER
70
0
0
ENDTAB
0
TABLE
2
LAYER
5
2
100
AcDbSymbolTable
70
2
0
LAYER
5
50
100
AcDbSymbolTableRecord
100
AcDbLayerTableRecord
2
0
70
0
6
CONTINUOUS
0
ENDTAB
0
TABLE
2
STYLE
5
3
100
AcDbSymbolTable
70
1
0
STYLE
5
11
100
AcDbSymbolTableRecord
100
AcDbTextStyleTableRecord
2
STANDARD
70
0
0
ENDTAB
0
TABLE
2
VIEW
5
6
100
AcDbSymbolTable
70
0
0
ENDTAB
0
TABLE
2
UCS
5
7
100
AcDbSymbolTable
70
0
0
ENDTAB
0
TABLE
2
APPID
5
9
100
AcDbSymbolTable
70
2
0
APPID
5
12
100
AcDbSymbolTableRecord
100
AcDbRegAppTableRecord
2
ACAD
70
0
0
ENDTAB
0
TABLE
2
DIMSTYLE
5
A
100
AcDbSymbolTable
70
1
0
ENDTAB
0
TABLE
2
BLOCK_RECORD
5
1
100
AcDbSymbolTable
70
1
0
BLOCK_RECORD
5
1F
100
AcDbSymbolTableRecord
100
AcDbBlockTableRecord
2
*MODEL_SPACE
0
BLOCK_RECORD
5
1B
100
AcDbSymbolTableRecord
100
AcDbBlockTableRecord
2
*PAPER_SPACE
0
ENDTAB
0
ENDSEC
0
SECTION
2
BLOCKS
0
BLOCK
5
20
100
AcDbEntity
100
AcDbBlockBegin
2
*MODEL_SPACE
0
ENDBLK
5
21
100
AcDbEntity
100
AcDbBlockEnd
0
BLOCK
5
1C
100
AcDbEntity
100
AcDbBlockBegin
2
*PAPER_SPACE
0
ENDBLK
5
1D
100
AcDbEntity
100
AcDbBlockEnd
0
ENDSEC
0
SECTION
2
ENTITIES
0
LWPOLYLINE
5
100
100
AcDbEntity
8
0
100
AcDbPolyline
90
16
70
1
43
0.0
10
-69.469249000000005
20
137.20000100000036
42
-0.41421356237305601
10
-69.269249000000002
20
137.00000100000037
10
-69.269249000000002
20
136.69999999999999
42
0.41421356237309503
10
-68.769249000000002
20
136.19999999999999
10
-55.769249000000009
20
136.19999999999999
42
0.41421356237309503
10
-55.269249000000009
20
136.69999999999999
10
-55.269249000000009
20
149.69999999999999
42
0.41421356237309503
10
-55.769249000000009
20
150.19999999999999
10
-65.712999999999994
20
150.19999999999999
42
-0.41421356237305601
10
-65.912999999999997
20
150.39999999999998
10
-65.912999999999997
20
151.70000100000041
42
0.41421356237307944
10
-66.412999999999997
20
152.20000100000038
10
-72.412999999999997
20
152.20000100000038
42
0.41421356237308982
10
-72.913000000000011
20
151.70000100000041
10
-72.912999999999997
20
137.70000100000036
42
0.4142135623730534
10
-72.412999999999997
20
137.20000100000033
0
LWPOLYLINE
5
101
100
AcDbEntity
8
0
100
AcDbPolyline
90
8
70
1
43
0.0
10
-140.206749
20
136.19999999999999
10
-120.06300000000002
20
136.20000100000033
42
0.4142135623730534
10
-119.563
20
136.70000100000033
10
-119.563
20
149.70000100000038
42
0.4142135623730534
10
-120.06300000000002
20
150.20000100000038
10
-140.206749
20
150.19999999999999
42
0.41421356237309503
10
-140.706749
20
149.69999999999999
10
-140.70674900000003
20
136.69999999999999
42
0.41421356237309503
0
LWPOLYLINE
5
102
100
AcDbEntity
8
0
100
AcDbPolyline
90
9
70
1
43
0.0
10
-8.1442499999999995
20
150.19999999999999
10
-23.525500000000001
20
150.20000100000038
42
0.41421356237309503
10
-24.025500000000012
20
149.70000100000038
10
-24.025499999999997
20
136.70000100000036
42
0.41421356237312884
10
-23.525500000000001
20
136.20000100000033
10
-21.144248999999999
20
136.19999999999999
10
-8.1442499999999995
20
136.19999899999999
42
0.41421356237309503
10
-7.6442490000000003
20
136.69999999999999
10
-7.6442499999999995
20
149.69999999999999
42
0.41421356237309503
0
LWPOLYLINE
5
103
100
AcDbEntity
8
0
100
AcDbPolyline
90
8
70
1
43
0.0
10
-31.956749000000002
20
150.19999999999999
10
-52.100499999999997
20
150.20000100000038
42
0.41421356237309503
10
-52.600500000000004
20
149.70000100000038
10
-52.600499999999997
20
136.70000100000036
42
0.41421356237308982
10
-52.100499999999997
20
136.20000100000033
10
-31.956749000000002
20
136.19999999999999
42
0.41421356237309503
10
-31.456748999999999
20
136.69999999999999
10
-31.456749000000002
20
149.69999999999999
42
0.41421356237309503
0
LWPOLYLINE
5
104
100
AcDbEntity
8
0
100
AcDbPolyline
90
8
70
1
43
0.0
10
0
20
1.0000000000000002
42
-0.41421356237309509
10
-1.0000000000000142
20
0
10
-394.99999800000006
20
1.0000000567889078e-06
42
-0.41421356237309742
10
-395.999999
20
0.99999999999999645
10
-395.99999900000006
20
159.999999
42
-0.41421356237309503
10
-394.99999900000006
20
160.999999
10
-1.0000000000000004
20
160.999999
42
-0.41421356237309509
10
0
20
159.999999
0
CIRCLE
5
105
100
AcDbEntity
8
0
100
AcDbCircle
10
-25.263000000000005
20
26.375
30
0
40
1.25
210
0
220
0
230
1
0
CIRCLE
5
106
100
AcDbEntity
8
0
100
AcDbCircle
10
-25.263000000000005
20
16.375
30
0
40
2.6500000000000004
210
0
220
0
230
1
0
LWPOLYLINE
5
107
100
AcDbEntity
8
0
100
AcDbPolyline
90
8
70
1
43
0.0
10
-47.337999000000003
20
12.375001000000001
10
-34.337999000000003
20
12.375001000000001
42
0.41421356237309503
10
-33.837999000000003
20
12.875000999999999
10
-33.837999000000003
20
25.875001000000001
42
0.41421356237309503
10
-34.337999000000003
20
26.375001000000005
10
-47.337999000000003
20
26.375001000000001
42
0.41421356237309503
10
-47.837999000000011
20
25.875001000000001
10
-47.837998999999996
20
12.875000999999999
42
0.41421356237309503
0
LWPOLYLINE
5
108
100
AcDbEntity
8
0
100
AcDbPolyline
90
8
70
1
43
0.0
10
-53.387999000000008
20
26.375001000000005
10
-66.387998999999994
20
26.375001000000005
42
0.41421356237309503
10
-66.887998999999994
20
25.875001000000001
10
-66.887998999999994
20
12.875000999999999
42
0.41421356237309503
10
-66.387998999999994
20
12.375001000000001
10
-53.387999000000008
20
12.375000999999999
42
0.41421356237309503
10
-52.887999000000008
20
12.875000999999999
10
-52.887999000000008
20
25.875001000000001
42
0.41421356237309503
0
LWPOLYLINE
5
109
100
AcDbEntity
8
0
100
AcDbPolyline
90
8
70
1
43
0.0
10
-85.437999000000019
20
31.425000999999995
42
-0.41421356237309503
10
-85.937999000000019
20
31.925001000000002
10
-85.937999000000005
20
44.925001000000002
42
-0.41421356237309503
10
-85.437999000000019
20
45.425000999999995
10
-72.437999000000005
20
45.425000999999995
42
-0.41421356237309503
10
-71.937999000000005
20
44.925001000000002
10
-71.937999000000005
20
31.925001000000002
42
-0.41421356237309503
10
-72.437999000000005
20
31.425001000000002
0
LWPOLYLINE
5
110
100
AcDbEntity
8
0
100
AcDbPolyline
90
8
70
1
43
0.0
10
-47.337999000000003
20
31.425001000000002
42
-0.41421356237309503
10
-47.837998999999996
20
31.925001000000002
10
-47.837998999999996
20
44.925001000000002
42
-0.41421356237309503
10
-47.337999000000003
20
45.425000999999995
10
-34.337999000000003
20
45.425000999999995
42
-0.41421356237309503
10
-33.837999000000003
20
44.925001000000002
10
-33.837999000000003
20
31.925001000000002
42
-0.41421356237309503
10
-34.337999000000003
20
31.425001000000002
0
LWPOLYLINE
5
111
100
AcDbEntity
8
0
100
AcDbPolyline
90
8
70
1
43
0.0
10
-85.437999000000019
20
12.375001000000001
10
-72.437999000000005
20
12.375001000000001
42
0.41421356237309503
10
-71.937999000000005
20
12.875000999999999
10
-71.937999000000005
20
25.875001000000001
42
0.41421356237309503
10
-72.437999000000005
20
26.375001000000005
10
-85.437999000000019
20
26.375001000000001
42
0.41421356237309503
10
-85.937999000000005
20
25.875001000000001
10
-85.937999000000019
20
12.875000999999999
42
0.41421356237309503
0
LWPOLYLINE
5
112
100
AcDbEntity
8
0
100
AcDbPolyline
90
8
70
1
43
0.0
10
-114.800499
20
12.875000999999999
42
-0.41421356237309503
10
-115.30049900000002
20
12.375000999999999
10
-128.300499
20
12.375000999999992
42
-0.41421356237309503
10
-128.800499
20
12.875000999999999
10
-128.800499
20
25.875001000000001
42
-0.41421356237309503
10
-128.300499
20
26.375001000000001
10
-115.30049900000002
20
26.375001000000008
42
-0.41421356237309503
10
-114.800499
20
25.875001000000001
0
CIRCLE
5
113
100
AcDbEntity
8
0
100
AcDbCircle
10
-109.89425
20
14.675000000000002
30
0
40
1.25
210
0
220
0
230
1
0
LWPOLYLINE
5
114
100
AcDbEntity
8
0
100
AcDbPolyline
90
8
70
1
43
0.0
10
-104.487999
20
31.425000999999995
42
-0.41421356237309503
10
-104.98799900000002
20
31.925001000000002
10
-104.98799900000002
20
44.925001000000002
42
-0.41421356237309503
10
-104.487999
20
45.425000999999995
10
-91.487999000000002
20
45.425001000000009
42
-0.41421356237309503
10
-90.987999000000002
20
44.925001000000002
10
-90.987999000000002
20
31.925001000000002
42
-0.41421356237309503
10
-91.487999000000002
20
31.425001000000002
0
LWPOLYLINE
5
115
100
AcDbEntity
8
0
100
AcDbPolyline
90
8
70
1
43
0.0
10
-91.487999000000002
20
26.375001000000005
10
-104.487999
20
26.375001000000005
42
0.41421356237309503
10
-104.98799900000002
20
25.875001000000001
10
-104.98799900000002
20
12.875000999999999
42
0.41421356237309503
10
-104.487999
20
12.375001000000001
10
-91.487999000000002
20
12.375000999999999
42
0.41421356237309503
10
-90.987999000000016
20
12.875000999999999
10
-90.987999000000002
20
25.875001000000001
42
0.41421356237309503
0
LWPOLYLINE
5
116
100
AcDbEntity
8
0
100
AcDbPolyline
90
8
70
1
43
0.0
10
-62.912998999999999
20
74
10
-75.912998999999999
20
74
42
0.41421356237309503
10
-76.412998999999999
20
73.5
10
-76.412998999999999
20
60.500000999999997
42
0.41421356237309503
10
-75.912998999999999
20
60.000001000000005
10
-62.912998999999999
20
60.000001000000005
42
0.41421356237309503
10
-62.412999000000006
20
60.500000999999997
10
-62.412999000000006
20
73.5
42
0.41421356237309503
0
LWPOLYLINE
5
117
100
AcDbEntity
8
0
100
AcDbPolyline
90
8
70
1
43
0.0
10
-56.862999000000009
20
60.000001000000005
42
-0.41421356237309503
10
-57.362999000000002
20
60.500000999999997
10
-57.362999000000002
20
73.5
42
-0.41421356237309503
10
-56.862999000000009
20
74
10
-43.862999000000002
20
74
42
-0.41421356237309503
10
-43.362999000000002
20
73.5
10
-43.362999000000002
20
60.500000999999997
42
-0.41421356237309503
10
-43.862999000000002
20
60.000001000000005
0
LWPOLYLINE
5
118
100
AcDbEntity
8
0
100
AcDbPolyline
90
8
70
1
43
0.0
10
-24.312999000000005
20
60.500000999999997
10
-24.312999000000005
20
73.5
42
0.41421356237309503
10
-24.812999000000001
20
74
10
-37.812998999999998
20
74
42
0.41421356237309503
10
-38.312998999999998
20
73.5
10
-38.312998999999998
20
60.500000999999997
42
0.41421356237309503
10
-37.812998999999998
20
60.000001000000005
10
-24.812999000000001
20
60.000001000000005
42
0.41421356237309503
0
LWPOLYLINE
5
119
100
AcDbEntity
8
0
100
AcDbPolyline
90
8
70
1
43
0.0
10
-100.51299900000001
20
60.500000999999997
10
-100.51299900000001
20
73.5
42
0.41421356237309503
10
-101.01299900000001
20
74
10
-114.01299899999999
20
74
42
0.41421356237309503
10
-114.51299900000001
20
73.5
10
-114.51299900000001
20
60.500000999999997
42
0.41421356237309503
10
-114.01299899999999
20
60.000001000000005
10
-101.01299900000001
20
60.000001000000005
42
0.41421356237309503
0
LWPOLYLINE
5
120
100
AcDbEntity
8
0
100
AcDbPolyline
90
8
70
1
43
0.0
10
-228.31299900000002
20
60.000001000000005
10
-215.31299899999999
20
60.000001000000005
42
0.41421356237309503
10
-214.81299899999999
20
60.500000999999997
10
-214.81299899999999
20
73.5
42
0.41421356237309503
10
-215.31299899999999
20
74
10
-228.31299900000002
20
74
42
0.41421356237309503
10
-228.81299900000002
20
73.5
10
-228.81299900000002
20
60.500000999999997
42
0.41421356237309503
0
LWPOLYLINE
5
121
100
AcDbEntity
8
0
100
AcDbPolyline
90
8
70
1
43
0.0
10
-214.81299899999999
20
31.925001000000002
42
-0.41421356237309503
10
-215.31299899999999
20
31.425001000000002
10
-228.31299900000002
20
31.425000999999995
42
-0.41421356237309503
10
-228.81299900000002
20
31.925001000000002
10
-228.81299900000002
20
44.925001000000002
42
-0.41421356237309503
10
-228.31299900000002
20
45.425000999999995
10
-215.31299899999999
20
45.425001000000009
42
-0.41421356237309503
10
-214.81299899999999
20
44.925001000000002
0
LWPOLYLINE
5
122
100
AcDbEntity
8
0
100
AcDbPolyline
90
8
70
1
43
0.0
10
-172.45049900000001
20
45.425001000000009
42
-0.41421356237309503
10
-171.95049900000001
20
44.925001000000002
10
-171.95049900000001
20
31.925001000000002
42
-0.41421356237309503
10
-172.45049900000001
20
31.425001000000002
10
-185.45049900000004
20
31.425000999999995
42
-0.41421356237309503
10
-185.95049900000004
20
31.925001000000002
10
-185.95049900000004
20
44.925001000000002
42
-0.41421356237309503
10
-185.45049900000004
20
45.425000999999995
0
LWPOLYLINE
5
123
100
AcDbEntity
8
0
100
AcDbPolyline
90
8
70
1
43
0.0
10
-195.76299900000004
20
31.925001000000002
10
-195.76299900000004
20
44.925001000000002
42
0.41421356237309503
10
-196.26299900000004
20
45.425001000000009
10
-209.26299900000004
20
45.425000999999995
42
0.41421356237309503
10
-209.76299900000001
20
44.925001000000002
10
-209.76299900000004
20
31.925001000000002
42
0.41421356237309503
10
-209.26299900000004
20
31.425001000000002
10
-196.26299900000004
20
31.425001000000002
42
0.41421356237309503
0
CIRCLE
5
124
100
AcDbEntity
8
0
100
AcDbCircle
10
-196.76230000000004
20
52.712500000000006
30
0
40
1.25
210
0
220
0
230
1
0
LWPOLYLINE
5
125
100
AcDbEntity
8
0
100
AcDbPolyline
90
8
70
1
43
0.0
10
-147.85049900000001
20
44.925001000000002
42
-0.41421356237309503
10
-147.35049900000001
20
45.425000999999995
10
-134.35049900000001
20
45.425001000000009
42
-0.41421356237309503
10
-133.85049900000001
20
44.925001000000002
10
-133.85049900000001
20
31.925001000000002
42
-0.41421356237309503
10
-134.35049900000001
20
31.425001000000002
10
-147.35049900000001
20
31.425000999999995
42
-0.41421356237309503
10
-147.85049900000001
20
31.925001000000002
0
LWPOLYLINE
5
126
100
AcDbEntity
8
0
100
AcDbPolyline
90
8
70
1
43
0.0
10
-152.612999
20
73.5
10
-152.612999
20
60.500000999999997
42
0.41421356237309503
10
-152.112999
20
60.000001000000005
10
-139.112999
20
60.000001000000005
42
0.41421356237309503
10
-138.612999
20
60.500000999999997
10
-138.612999
20
73.5
42
0.41421356237309503
10
-139.112999
20
74
10
-152.112999
20
74
42
0.41421356237309503
0
LWPOLYLINE
5
127
100
AcDbEntity
8
0
100
AcDbPolyline
90
8
70
1
43
0.0
10
-166.40049900000002
20
31.425000999999995
42
-0.41421356237309503
10
-166.90049900000002
20
31.925001000000002
10
-166.90049900000002
20
44.925001000000002
42
-0.41421356237309503
10
-166.40049900000002
20
45.425000999999995
10
-153.400499
20
45.425001000000009
42
-0.41421356237309503
10
-152.900499
20
44.925001000000002
10
-152.900499
20
31.925001000000002
42
-0.41421356237309503
10
-153.400499
20
31.425001000000002
0
LWPOLYLINE
5
128
100
AcDbEntity
8
0
100
AcDbPolyline
90
8
70
1
43
0.0
10
-147.85049900000001
20
25.875001000000001
42
-0.41421356237309503
10
-147.35049900000001
20
26.375001000000001
10
-134.35049900000001
20
26.375001000000008
42
-0.41421356237309503
10
-133.85049900000001
20
25.875001000000001
10
-133.85049900000001
20
12.875000999999999
42
-0.41421356237309503
10
-134.35049900000001
20
12.375000999999999
10
-147.35049900000001
20
12.375000999999992
42
-0.41421356237309503
10
-147.85049900000001
20
12.875000999999999
0
LWPOLYLINE
5
129
100
AcDbEntity
8
0
100
AcDbPolyline
90
8
70
1
43
0.0
10
-152.900499
20
12.875000999999999
42
-0.41421356237309503
10
-153.400499
20
12.375000999999999
10
-166.40049900000002
20
12.375000999999992
42
-0.41421356237309503
10
-166.90049900000002
20
12.875000999999999
10
-166.90049900000002
20
25.875001000000001
42
-0.41421356237309503
10
-166.40049900000002
20
26.375001000000001
10
-153.400499
20
26.375001000000008
42
-0.41421356237309503
10
-152.900499
20
25.875001000000001
0
LWPOLYLINE
5
130
100
AcDbEntity
8
0
100
AcDbPolyline
90
8
70
1
43
0.0
10
-185.95049900000004
20
25.875001000000001
10
-185.95049900000004
20
12.875000999999999
42
0.41421356237309503
10
-185.45049900000004
20
12.375001000000001
10
-172.45049900000001
20
12.375000999999999
42
0.41421356237309503
10
-171.95049900000001
20
12.875000999999999
10
-171.95049900000001
20
25.875001000000001
42
0.41421356237309503
10
-172.45049900000001
20
26.375001000000005
10
-185.45049900000004
20
26.375001000000001
42
0.41421356237309503
0
CIRCLE
5
131
100
AcDbEntity
8
0
100
AcDbCircle
10
-276.26229999999998
20
52.712500000000006
30
0
40
1.25
210
0
220
0
230
1
0
LWPOLYLINE
5
132
100
AcDbEntity
8
0
100
AcDbPolyline
90
8
70
1
43
0.0
10
-276.72549900000001
20
31.925001000000002
10
-276.72549900000001
20
44.925001000000002
42
0.41421356237309503
10
-277.22549900000001
20
45.425001000000009
10
-290.22549900000001
20
45.425000999999995
42
0.41421356237309503
10
-290.72549900000001
20
44.925001000000002
10
-290.72549900000001
20
31.925001000000002
42
0.41421356237309503
10
-290.22549900000001
20
31.425001000000002
10
-277.22549900000001
20
31.425001000000002
42
0.41421356237309503
0
LWPOLYLINE
5
133
100
AcDbEntity
8
0
100
AcDbPolyline
90
8
70
1
43
0.0
10
-266.41299900000001
20
12.375000999999992
42
-0.41421356237309503
10
-266.91299900000001
20
12.875000999999999
10
-266.91299900000001
20
25.875001000000001
42
-0.41421356237309503
10
-266.41299900000001
20
26.375001000000001
10
-253.41299900000001
20
26.375001000000008
42
-0.41421356237309503
10
-252.91299900000001
20
25.875001000000001
10
-252.91299900000001
20
12.875000999999999
42
-0.41421356237309503
10
-253.41299900000001
20
12.375000999999999
0
LWPOLYLINE
5
134
100
AcDbEntity
8
0
100
AcDbPolyline
90
8
70
1
43
0.0
10
-290.72549900000001
20
25.875001000000001
42
-0.41421356237309503
10
-290.22549900000001
20
26.375001000000001
10
-277.22549900000001
20
26.375001000000008
42
-0.41421356237309503
10
-276.72549900000001
20
25.875001000000001
10
-276.72549900000001
20
12.875000999999999
42
-0.41421356237309503
10
-277.22549900000001
20
12.375000999999999
10
-290.22549900000001
20
12.375000999999992
42
-0.41421356237309503
10
-290.72549900000001
20
12.875000999999999
0
CIRCLE
5
135
100
AcDbEntity
8
0
100
AcDbCircle
10
-271.81925000000001
20
14.675000000000002
30
0
40
1.25
210
0
220
0
230
1
0
LWPOLYLINE
5
136
100
AcDbEntity
8
0
100
AcDbPolyline
90
8
70
1
43
0.0
10
-234.362999
20
26.375001000000008
42
-0.41421356237309503
10
-233.862999
20
25.875001000000001
10
-233.862999
20
12.875000999999999
42
-0.41421356237309503
10
-234.362999
20
12.375000999999999
10
-247.36299900000003
20
12.375000999999992
42
-0.41421356237309503
10
-247.86299900000003
20
12.875000999999999
10
-247.86299900000003
20
25.875001000000001
42
-0.41421356237309503
10
-247.36299900000003
20
26.375001000000001
0
CIRCLE
5
137
100
AcDbEntity
8
0
100
AcDbCircle
10
-190.85675000000003
20
14.675000000000002
30
0
40
1.25
210
0
220
0
230
1
0
LWPOLYLINE
5
138
100
AcDbEntity
8
0
100
AcDbPolyline
90
8
70
1
43
0.0
10
-209.26299900000004
20
12.375000999999992
42
-0.41421356237309503
10
-209.76299900000004
20
12.875000999999999
10
-209.76299900000004
20
25.875001000000001
42
-0.41421356237309503
10
-209.26299900000004
20
26.375001000000001
10
-196.26299900000004
20
26.375001000000008
42
-0.41421356237309503
10
-195.76299900000004
20
25.875001000000001
10
-195.76299900000004
20
12.875000999999999
42
-0.41421356237309503
10
-196.26299900000004
20
12.375000999999999
0
LWPOLYLINE
5
139
100
AcDbEntity
8
0
100
AcDbPolyline
90
8
70
1
43
0.0
10
-228.81299900000002
20
25.875001000000001
42
-0.41421356237309503
10
-228.31299900000002
20
26.375001000000001
10
-215.31299899999999
20
26.375001000000008
42
-0.41421356237309503
10
-214.81299899999999
20
25.875001000000001
10
-214.81299899999999
20
12.875000999999999
42
-0.41421356237309503
10
-215.31299899999999
20
12.375000999999999
10
-228.31299900000002
20
12.375000999999992
42
-0.41421356237309503
10
-228.81299900000002
20
12.875000999999999
0
CIRCLE
5
140
100
AcDbEntity
8
0
100
AcDbCircle
10
-208.96299999999999
20
52.712500000000006
30
0
40
1.25
210
0
220
0
230
1
0
LWPOLYLINE
5
141
100
AcDbEntity
8
0
100
AcDbPolyline
90
8
70
1
43
0.0
10
-247.36299900000003
20
60.000000999999997
42
-0.41421356237309503
10
-247.86299900000003
20
60.500000999999997
10
-247.86299900000003
20
73.5
42
-0.41421356237309503
10
-247.36299900000003
20
74
10
-234.362999
20
74.000000000000014
42
-0.41421356237309503
10
-233.862999
20
73.5
10
-233.862999
20
60.500000999999997
42
-0.41421356237309503
10
-234.362999
20
60.000001000000005
0
LWPOLYLINE
5
142
100
AcDbEntity
8
0
100
AcDbPolyline
90
20
70
1
43
0.0
10
-252.91299900000001
20
60.500000999999997
42
-0.41421356237309503
10
-253.41299900000001
20
60.000001000000005
10
-285.46299900000002
20
60.000000999999997
42
-0.41421356237309503
10
-285.96299900000008
20
60.500000999999997
10
-285.96299900000008
20
73.5
42
-0.41421356237309503
10
-285.46299900000002
20
74
10
-284.87599899999998
20
74
10
-284.87599899999998
20
75.5
42
-0.41421356237309503
10
-284.37599899999998
20
76
10
-278.37599899999998
20
76.000000000000014
42
-0.41421356237309503
10
-277.87599899999998
20
75.5
10
-277.87599899999998
20
74
10
-260.999999
20
74
10
-260.99999900000006
20
75.5
42
-0.41421356237309503
10
-260.499999
20
76
10
-254.499999
20
76.000000000000014
42
-0.41421356237309503
10
-253.999999
20
75.5
10
-253.999999
20
74
10
-253.41299900000001
20
74.000000000000014
42
-0.41421356237309503
10
-252.91299900000001
20
73.5
0
LWPOLYLINE
5
143
100
AcDbEntity
8
0
100
AcDbPolyline
90
8
70
1
43
0.0
10
-195.76299900000004
20
60.500000999999997
10
-195.76299900000004
20
73.5
42
0.41421356237309503
10
-196.26299900000004
20
74
10
-209.26299900000004
20
74
42
0.41421356237309503
10
-209.76299900000001
20
73.5
10
-209.76299900000004
20
60.500000999999997
42
0.41421356237309503
10
-209.26299900000004
20
60.000001000000005
10
-196.26299900000004
20
60.000001000000005
42
0.41421356237309503
0
LWPOLYLINE
5
144
100
AcDbEntity
8
0
100
AcDbPolyline
90
8
70
1
43
0.0
10
-3.7629999999999999
20
9.875
42
-0.41421356237309503
10
-4.262999999999999
20
9.375
10
-20.262999000000001
20
9.3750000000000018
42
-0.41421356237309503
10
-20.762999000000001
20
9.875
10
-20.762999000000001
20
22.875
42
-0.41421356237309503
10
-20.262999000000001
20
23.375
10
-4.262999999999999
20
23.375
42
-0.41421356237309437
10
-3.7630000000000003
20
22.875
0
LWPOLYLINE
5
145
100
AcDbEntity
8
0
100
AcDbPolyline
90
8
70
1
43
0.0
10
-109.25049900000002
20
98.099999999999994
42
-0.41421356237309503
10
-109.75049900000002
20
98.599999999999994
10
-109.75049900000002
20
111.59999999999999
42
-0.41421356237309503
10
-109.25049900000002
20
112.10000000000001
10
-96.250499000000005
20
112.10000000000001
42
-0.41421356237309503
10
-95.750498999999991
20
111.59999999999999
10
-95.750498999999991
20
98.599999999999994
42
-0.41421356237309503
10
-96.250499000000005
20
98.099999999999994
0
LWPOLYLINE
5
146
100
AcDbEntity
8
0
100
AcDbPolyline
90
8
70
1
43
0.0
10
-128.800499
20
111.59999999999999
10
-128.800499
20
98.599999999999994
42
0.41421356237309503
10
-128.300499
20
98.100000000000009
10
-115.30049900000002
20
98.099999999999994
42
0.41421356237309503
10
-114.800499
20
98.599999999999994
10
-114.800499
20
111.59999999999999
42
0.41421356237309503
10
-115.30049900000002
20
112.10000000000001
10
-128.300499
20
112.10000000000001
42
0.41421356237309503
0
LWPOLYLINE
5
147
100
AcDbEntity
8
0
100
AcDbPolyline
90
8
70
1
43
0.0
10
-134.35049900000001
20
112.10000000000001
10
-147.35049900000001
20
112.10000000000001
42
0.41421356237309503
10
-147.85049900000001
20
111.59999999999999
10
-147.85049900000001
20
98.599999999999994
42
0.41421356237309503
10
-147.35049900000001
20
98.100000000000009
10
-134.35049900000001
20
98.099999999999994
42
0.41421356237309503
10
-133.85049900000001
20
98.599999999999994
10
-133.85049900000001
20
111.59999999999999
42
0.41421356237309503
0
LWPOLYLINE
5
148
100
AcDbEntity
8
0
100
AcDbPolyline
90
8
70
1
43
0.0
10
-166.90049900000002
20
111.59999999999999
42
-0.41421356237309503
10
-166.40049900000002
20
112.10000000000001
10
-153.400499
20
112.10000000000001
42
-0.41421356237309503
10
-152.900499
20
111.59999999999999
10
-152.900499
20
98.599999999999994
42
-0.41421356237309503
10
-153.400499
20
98.099999999999994
10
-166.40049900000002
20
98.099999999999994
42
-0.41421356237309503
10
-166.90049900000002
20
98.599999999999994
0
LWPOLYLINE
5
149
100
AcDbEntity
8
0
100
AcDbPolyline
90
8
70
1
43
0.0
10
-243.10049900000001
20
111.59999999999999
42
-0.41421356237309503
10
-242.60049900000001
20
112.10000000000001
10
-229.60049900000001
20
112.10000000000001
42
-0.41421356237309503
10
-229.10049900000001
20
111.59999999999999
10
-229.10049900000001
20
98.599999999999994
42
-0.41421356237309503
10
-229.60049900000001
20
98.099999999999994
10
-242.60049900000001
20
98.099999999999994
42
-0.41421356237309503
10
-243.10049900000001
20
98.599999999999994
0
LWPOLYLINE
5
150
100
AcDbEntity
8
0
100
AcDbPolyline
90
8
70
1
43
0.0
10
-210.550499
20
112.10000000000001
42
-0.41421356237309503
10
-210.050499
20
111.59999999999999
10
-210.050499
20
98.599999999999994
42
-0.41421356237309503
10
-210.550499
20
98.099999999999994
10
-223.550499
20
98.099999999999994
42
-0.41421356237309503
10
-224.050499
20
98.599999999999994
10
-224.050499
20
111.59999999999999
42
-0.41421356237309503
10
-223.550499
20
112.10000000000001
0
LWPOLYLINE
5
151
100
AcDbEntity
8
0
100
AcDbPolyline
90
8
70
1
43
0.0
10
-172.45049900000001
20
112.10000000000001
10
-185.45049900000004
20
112.10000000000001
42
0.41421356237309503
10
-185.95049900000004
20
111.59999999999999
10
-185.95049900000004
20
98.599999999999994
42
0.41421356237309503
10
-185.45049900000004
20
98.100000000000009
10
-172.45049900000001
20
98.099999999999994
42
0.41421356237309503
10
-171.95049900000001
20
98.599999999999994
10
-171.95049900000001
20
111.59999999999999
42
0.41421356237309503
0
LWPOLYLINE
5
152
100
AcDbEntity
8
0
100
AcDbPolyline
90
8
70
1
43
0.0
10
-191.50049899999999
20
112.10000000000001
10
-204.50049899999999
20
112.10000000000001
42
0.41421356237309503
10
-205.00049899999999
20
111.59999999999999
10
-205.00049899999999
20
98.599999999999994
42
0.41421356237309503
10
-204.50049899999999
20
98.100000000000009
10
-191.50049899999999
20
98.099999999999994
42
0.41421356237309503
10
-191.00049899999999
20
98.599999999999994
10
-191.00049899999999
20
111.59999999999999
42
0.41421356237309503
0
LWPOLYLINE
5
153
100
AcDbEntity
8
0
100
AcDbPolyline
90
8
70
1
43
0.0
10
-219.28799900000004
20
92.550000000000011
42
-0.41421356237309503
10
-218.78799900000004
20
93.050000000000011
10
-205.78799900000004
20
93.050000000000011
42
-0.41421356237309503
10
-205.28799900000001
20
92.550000000000011
10
-205.28799900000001
20
79.549999999999997
42
-0.41421356237309503
10
-205.78799900000004
20
79.049999999999997
10
-218.78799900000004
20
79.049999999999997
42
-0.41421356237309503
10
-219.28799900000004
20
79.549999999999997
0
LWPOLYLINE
5
154
100
AcDbEntity
8
0
100
AcDbPolyline
90
8
70
1
43
0.0
10
-186.73799900000003
20
93.050000000000011
42
-0.41421356237309503
10
-186.237999
20
92.550000000000011
10
-186.237999
20
79.549999999999997
42
-0.41421356237309503
10
-186.73799900000003
20
79.049999999999997
10
-199.73799900000003
20
79.049999999999997
42
-0.41421356237309503
10
-200.23799900000003
20
79.549999999999997
10
-200.23799900000003
20
92.550000000000011
42
-0.41421356237309503
10
-199.73799900000003
20
93.050000000000011
0
LWPOLYLINE
5
155
100
AcDbEntity
8
0
100
AcDbPolyline
90
8
70
1
43
0.0
10
-180.68799899999999
20
79.049999999999997
10
-167.68799900000002
20
79.049999999999997
42
0.41421356237309503
10
-167.18799899999999
20
79.549999999999997
10
-167.18799899999999
20
92.550000000000011
42
0.41421356237309503
10
-167.68799900000002
20
93.049999999999997
10
-180.68799899999999
20
93.050000000000011
42
0.41421356237309503
10
-181.18799899999999
20
92.550000000000011
10
-181.18799899999999
20
79.549999999999997
42
0.41421356237309503
0
LWPOLYLINE
5
156
100
AcDbEntity
8
0
100
AcDbPolyline
90
8
70
1
43
0.0
10
-110.03799900000001
20
79.549999999999997
10
-110.03799900000001
20
92.550000000000011
42
0.41421356237309503
10
-110.53799900000001
20
93.049999999999997
10
-123.537999
20
93.050000000000011
42
0.41421356237309503
10
-124.03799900000001
20
92.550000000000011
10
-124.03799900000001
20
79.549999999999997
42
0.41421356237309503
10
-123.537999
20
79.049999999999997
10
-110.53799900000001
20
79.049999999999997
42
0.41421356237309503
0
LWPOLYLINE
5
157
100
AcDbEntity
8
0
100
AcDbPolyline
90
8
70
1
43
0.0
10
-129.08799900000002
20
79.549999999999997
42
-0.41421356237309503
10
-129.587999
20
79.049999999999997
10
-142.587999
20
79.049999999999997
42
-0.41421356237309503
10
-143.087999
20
79.549999999999997
10
-143.087999
20
92.550000000000011
42
-0.41421356237309503
10
-142.587999
20
93.050000000000011
10
-129.587999
20
93.050000000000011
42
-0.41421356237309503
10
-129.087999
20
92.550000000000011
0
LWPOLYLINE
5
158
100
AcDbEntity
8
0
100
AcDbPolyline
90
8
70
1
43
0.0
10
-148.13799900000001
20
79.549999999999997
10
-148.13799900000001
20
92.550000000000011
42
0.41421356237309503
10
-148.63799900000001
20
93.049999999999997
10
-161.63799900000001
20
93.050000000000011
42
0.41421356237309503
10
-162.13799900000001
20
92.550000000000011
10
-162.13799900000001
20
79.549999999999997
42
0.41421356237309503
10
-161.63799900000001
20
79.049999999999997
10
-148.63799900000001
20
79.049999999999997
42
0.41421356237309503
0
LWPOLYLINE
5
159
100
AcDbEntity
8
0
100
AcDbPolyline
90
8
70
1
43
0.0
10
-238.33799900000002
20
92.550000000000011
42
-0.41421356237309503
10
-237.83799900000002
20
93.050000000000011
10
-224.83799900000002
20
93.050000000000011
42
-0.41421356237309503
10
-224.337999
20
92.550000000000011
10
-224.337999
20
79.549999999999997
42
-0.41421356237309503
10
-224.83799900000002
20
79.049999999999997
10
-237.83799900000002
20
79.049999999999997
42
-0.41421356237309503
10
-238.33799900000002
20
79.549999999999997
0
LWPOLYLINE
5
160
100
AcDbEntity
8
0
100
AcDbPolyline
90
8
70
1
43
0.0
10
-104.98799900000002
20
92.550000000000011
42
-0.41421356237309503
10
-104.487999
20
93.050000000000011
10
-91.487999000000002
20
93.050000000000011
42
-0.41421356237309503
10
-90.987999000000002
20
92.550000000000011
10
-90.987999000000002
20
79.549999999999997
42
-0.41421356237309503
10
-91.487999000000002
20
79.049999999999997
10
-104.487999
20
79.049999999999997
42
-0.41421356237309503
10
-104.98799900000002
20
79.549999999999997
0
LWPOLYLINE
5
161
100
AcDbEntity
8
0
100
AcDbPolyline
90
8
70
1
43
0.0
10
-10.525499999999999
20
93.049999
42
-0.41421356237309503
10
-10.025499999999997
20
92.549999
10
-10.025500000000001
20
79.549999000000014
42
-0.41421356237309503
10
-10.525499999999999
20
79.049999000000014
10
-23.525499
20
79.049999999999997
42
-0.41421356237309503
10
-24.025499
20
79.549999999999997
10
-24.025499000000007
20
92.550000000000011
42
-0.41421356237309503
10
-23.525499
20
93.050000000000011
0
LWPOLYLINE
5
162
100
AcDbEntity
8
0
100
AcDbPolyline
90
8
70
1
43
0.0
10
-8.1442499999999995
20
112.10000000000001
10
-25.906749000000001
20
112.10000000000001
42
0.41421356237309503
10
-26.406749000000005
20
111.59999999999999
10
-26.406749000000001
20
98.599999999999994
42
0.41421356237309503
10
-25.906749000000001
20
98.100000000000009
10
-8.1442499999999995
20
98.099999999999994
42
0.41421356237309503
10
-7.6442500000000013
20
98.599999999999994
10
-7.6442499999999995
20
111.59999999999999
42
0.41421356237309503
0
LWPOLYLINE
5
163
100
AcDbEntity
8
0
100
AcDbPolyline
90
8
70
1
43
0.0
10
-52.100499000000006
20
98.099999999999994
42
-0.41421356237309503
10
-52.600498999999999
20
98.599999999999994
10
-52.600499000000013
20
111.59999999999999
42
-0.41421356237309503
10
-52.100499000000006
20
112.10000000000001
10
-39.100498999999999
20
112.10000000000001
42
-0.41421356237309503
10
-38.600499000000006
20
111.59999999999999
10
-38.600498999999992
20
98.599999999999994
42
-0.41421356237309503
10
-39.100498999999999
20
98.099999999999994
0
LWPOLYLINE
5
164
100
AcDbEntity
8
0
100
AcDbPolyline
90
8
70
1
43
0.0
10
-34.337999000000003
20
93.049999999999997
10
-47.337999000000003
20
93.049999999999997
42
0.41421356237309503
10
-47.837999000000011
20
92.550000000000011
10
-47.837998999999996
20
79.549999999999997
42
0.41421356237309503
10
-47.337999000000003
20
79.049999999999997
10
-34.337999000000003
20
79.049999999999997
42
0.41421356237309503
10
-33.837999000000003
20
79.549999999999997
10
-33.837999000000003
20
92.550000000000011
42
0.41421356237309503
0
LWPOLYLINE
5
165
100
AcDbEntity
8
0
100
AcDbPolyline
90
8
70
1
43
0.0
10
-90.700499000000008
20
111.59999999999999
42
-0.41421356237309503
10
-90.200499000000008
20
112.10000000000001
10
-77.200498999999994
20
112.10000000000001
42
-0.41421356237309503
10
-76.700498999999994
20
111.59999999999999
10
-76.700498999999979
20
98.599999999999994
42
-0.41421356237309503
10
-77.200498999999994
20
98.099999999999994
10
-90.200499000000008
20
98.099999999999994
42
-0.41421356237309503
10
-90.700499000000008
20
98.599999999999994
0
LWPOLYLINE
5
166
100
AcDbEntity
8
0
100
AcDbPolyline
90
8
70
1
43
0.0
10
-57.650499000000011
20
98.599999999999994
10
-57.650499000000011
20
111.59999999999999
42
0.41421356237309503
10
-58.150499000000011
20
112.10000000000001
10
-71.150498999999996
20
112.10000000000001
42
0.41421356237309503
10
-71.650498999999996
20
111.59999999999999
10
-71.650498999999996
20
98.599999999999994
42
0.41421356237309503
10
-71.150498999999996
20
98.100000000000009
10
-58.150499000000011
20
98.099999999999994
42
0.41421356237309503
0
LWPOLYLINE
5
167
100
AcDbEntity
8
0
100
AcDbPolyline
90
8
70
1
43
0.0
10
-66.387998999999994
20
79.049999999999997
10
-53.387999000000008
20
79.049999999999997
42
0.41421356237309503
10
-52.887999000000008
20
79.549999999999997
10
-52.887999000000008
20
92.550000000000011
42
0.41421356237309503
10
-53.387999000000008
20
93.049999999999997
10
-66.387998999999994
20
93.050000000000011
42
0.41421356237309503
10
-66.887998999999994
20
92.550000000000011
10
-66.887998999999994
20
79.549999999999997
42
0.41421356237309503
0
LWPOLYLINE
5
168
100
AcDbEntity
8
0
100
AcDbPolyline
90
8
70
1
43
0.0
10
-85.437999000000019
20
79.049999999999997
42
-0.41421356237309503
10
-85.937999000000019
20
79.549999999999997
10
-85.937999000000019
20
92.550000000000011
42
-0.41421356237309503
10
-85.437999000000019
20
93.050000000000011
10
-72.437999000000005
20
93.049999999999997
42
-0.41421356237309503
10
-71.937999000000005
20
92.550000000000011
10
-71.937999000000005
20
79.549999999999997
42
-0.41421356237309503
10
-72.437999000000005
20
79.049999999999997
0
LWPOLYLINE
5
169
100
AcDbEntity
8
0
100
AcDbPolyline
90
8
70
1
43
0.0
10
-243.88799900000004
20
93.049999999999997
10
-256.88799899999998
20
93.049999999999997
42
0.41421356237309503
10
-257.38799899999998
20
92.550000000000011
10
-257.38799899999998
20
79.549999999999997
42
0.41421356237309503
10
-256.88799899999998
20
79.049999999999997
10
-243.88799900000004
20
79.049999999999997
42
0.41421356237309503
10
-243.38799900000001
20
79.549999999999997
10
-243.38799900000001
20
92.550000000000011
42
0.41421356237309503
0
LWPOLYLINE
5
170
100
AcDbEntity
8
0
100
AcDbPolyline
90
52
70
1
43
0.0
10
-252.11874900000001
20
114.09999999999999
10
-258.11874899999998
20
114.09999999999999
42
0.41421356237309503
10
-258.61874899999998
20
113.59999999999999
10
-258.61874899999998
20
112.40000000000002
42
-0.41421356237309503
10
-258.91874899999999
20
112.10000000000001
10
-273.55674900000002
20
112.10000000000001
42
0.41421356237309503
10
-274.05674900000002
20
111.59999999999999
10
-274.05674900000002
20
111.31300000000002
42
-0.41421356237309503
10
-274.35674899999998
20
111.01300000000002
10
-275.194749
20
111.01300000000001
42
-0.41421356237309503
10
-275.49474900000001
20
111.31300000000002
10
-275.49474900000001
20
113.59999999999999
42
0.41421356237309503
10
-275.99474900000007
20
114.09999999999999
10
-281.99474900000001
20
114.09999999999999
42
0.41421356237309503
10
-282.49474900000001
20
113.59999999999999
10
-282.49474900000001
20
110.79483500000002
42
0.15083409117842547
10
-282.58174896721999
20
110.5129999519
10
-282.58174900000006
20
104.51300000000002
42
0.15083409116760405
10
-282.49474899999001
20
104.2311649418
10
-282.49474900000001
20
102.87500000000001
42
-0.41421356237309503
10
-282.79474900000002
20
102.575
10
-283.081749
20
102.57500000000002
42
0.41421356237309503
10
-283.581749
20
102.07500000000002
10
-283.581749
20
89.075000000000003
42
0.41421356237309503
10
-283.081749
20
88.575000000000003
10
-281.50049899999999
20
88.575000000000017
42
-0.41421356237309503
10
-281.20049899999998
20
88.275000000000006
10
-281.20049899999998
20
87.437000000000012
42
-0.41421356237309503
10
-281.50049899999999
20
87.137000000000015
10
-282.08174900000006
20
87.137000000000015
42
0.41421356237309503
10
-282.581749
20
86.637
10
-282.58174900000006
20
80.637
42
0.41421356237309503
10
-282.08174900000006
20
80.137
10
-281.50049899999999
20
80.137000000000015
42
-0.41421356237309503
10
-281.20049899999998
20
79.837000000000003
10
-281.20049900000004
20
79.549999999999997
42
0.41421356237309503
10
-280.70049900000004
20
79.049999999999997
10
-267.70049899999998
20
79.049999999999997
42
0.41421356237309503
10
-267.20049899999998
20
79.549999999999997
10
-267.20049899999998
20
92.550000000000011
42
0.41421356237309503
10
-267.70049899999998
20
93.049999999999997
10
-269.28174899999999
20
93.049999999999983
42
-0.41421356237309503
10
-269.58174900000006
20
93.349999999999994
10
-269.58174900000006
20
97.800000000000011
42
-0.41421356237309503
10
-269.28174899999999
20
98.100000000000009
10
-248.65049900000002
20
98.099999999999994
42
0.41421356237309503
10
-248.15049900000002
20
98.599999999999994
10
-248.15049900000002
20
111.59999999999999
42
0.41421356237309503
10
-248.65049900000002
20
112.10000000000001
10
-251.318749
20
112.10000000000001
42
-0.41421356237309503
10
-251.61874900000001
20
112.40000000000002
10
-251.61874900000001
20
113.59999999999999
42
0.41421356237309503
0
LWPOLYLINE
5
171
100
AcDbEntity
8
0
100
AcDbPolyline
90
8
70
1
43
0.0
10
-18.762998
20
31.425001000000002
10
-5.7629999999999999
20
31.425001000000002
42
0.41421356237309503
10
-5.2629999999999999
20
31.925001000000002
10
-5.2629999999999999
20
44.925001000000002
42
0.41421356237309503
10
-5.7629999999999999
20
45.425001000000009
10
-18.762998
20
45.425000999999995
42
0.41421356237309503
10
-19.262998
20
44.925001000000002
10
-19.262998
20
31.925001000000002
42
0.41421356237309503
0
CIRCLE
5
172
100
AcDbEntity
8
0
100
AcDbCircle
10
-8.5630000000000006
20
52.712500000000006
30
0
40
1.25
210
0
220
0
230
1
0
LWPOLYLINE
5
173
100
AcDbEntity
8
0
100
AcDbPolyline
90
8
70
1
43
0.0
10
-5.2630000000000017
20
60.500000000000007
42
-0.41421356237309503
10
-5.7629999999999999
20
60.000000000000007
10
-18.762999000000001
20
60.000000000000007
42
-0.41421356237309503
10
-19.262999000000004
20
60.500000000000007
10
-19.262999000000001
20
73.499999000000003
42
-0.41421356237309503
10
-18.762999000000001
20
73.999999000000003
10
-5.7629999999999999
20
73.999999000000003
42
-0.41421356237309503
10
-5.2629999999999999
20
73.499999000000003
0
LWPOLYLINE
5
174
100
AcDbEntity
8
0
100
AcDbPolyline
90
8
70
1
43
0.0
10
-81.962998999999996
20
74.000000000000014
42
-0.41421356237309503
10
-81.462998999999996
20
73.5
10
-81.462998999999996
20
60.500000999999997
42
-0.41421356237309503
10
-81.962998999999996
20
60.000001000000005
10
-94.962998999999996
20
60.000000999999997
42
-0.41421356237309503
10
-95.462999000000011
20
60.500000999999997
10
-95.462999000000011
20
73.5
42
-0.41421356237309503
10
-94.962998999999996
20
74
0
LWPOLYLINE
5
175
100
AcDbEntity
8
0
100
AcDbPolyline
90
8
70
1
43
0.0
10
-52.887999000000008
20
31.925001000000002
42
-0.41421356237309503
10
-53.387999000000008
20
31.425001000000002
10
-66.387998999999994
20
31.425001000000002
42
-0.41421356237309503
10
-66.887998999999994
20
31.925001000000002
10
-66.887998999999994
20
44.925001000000002
42
-0.41421356237309503
10
-66.387998999999994
20
45.425000999999995
10
-53.387999000000008
20
45.425000999999995
42
-0.41421356237309503
10
-52.887999000000008
20
44.925001000000002
0
LWPOLYLINE
5
176
100
AcDbEntity
8
0
100
AcDbPolyline
90
8
70
1
43
0.0
10
-120.06299900000002
20
74
10
-133.06299899999999
20
74
42
0.41421356237309503
10
-133.56299899999999
20
73.5
10
-133.56299899999999
20
60.500000999999997
42
0.41421356237309503
10
-133.06299899999999
20
60.000001000000005
10
-120.06299900000002
20
60.000001000000005
42
0.41421356237309503
10
-119.56299900000002
20
60.500000999999997
10
-119.56299900000002
20
73.5
42
0.41421356237309503
0
LWPOLYLINE
5
177
100
AcDbEntity
8
0
100
AcDbPolyline
90
8
70
1
43
0.0
10
-128.300499
20
31.425001000000002
10
-115.30049900000002
20
31.425001000000002
42
0.41421356237309503
10
-114.800499
20
31.925001000000002
10
-114.800499
20
44.925001000000002
42
0.41421356237309503
10
-115.30049900000002
20
45.425001000000009
10
-128.300499
20
45.425000999999995
42
0.41421356237309503
10
-128.800499
20
44.925001000000002
10
-128.800499
20
31.925001000000002
42
0.41421356237309503
0
CIRCLE
5
178
100
AcDbEntity
8
0
100
AcDbCircle
10
-119.76300000000002
20
52.712500000000006
30
0
40
1.25
210
0
220
0
230
1
0
LWPOLYLINE
5
179
100
AcDbEntity
8
0
100
AcDbPolyline
90
8
70
1
43
0.0
10
-158.16299900000001
20
74
10
-171.16299900000001
20
74
42
0.41421356237309503
10
-171.66299900000001
20
73.5
10
-171.66299900000001
20
60.500000999999997
42
0.41421356237309503
10
-171.16299900000001
20
60.000001000000005
10
-158.16299900000001
20
60.000001000000005
42
0.41421356237309503
10
-157.66299900000001
20
60.500000999999997
10
-157.66299900000001
20
73.5
42
0.41421356237309503
0
LWPOLYLINE
5
180
100
AcDbEntity
8
0
100
AcDbPolyline
90
8
70
1
43
0.0
10
-266.41299900000001
20
31.425001000000002
10
-253.41299900000001
20
31.425001000000002
42
0.41421356237309503
10
-252.91299900000001
20
31.925001000000002
10
-252.91299900000001
20
44.925001000000002
42
0.41421356237309503
10
-253.41299900000001
20
45.425001000000009
10
-266.41299900000001
20
45.425000999999995
42
0.41421356237309503
10
-266.91299900000001
20
44.925001000000002
10
-266.91299900000001
20
31.925001000000002
42
0.41421356237309503
0
LWPOLYLINE
5
181
100
AcDbEntity
8
0
100
AcDbPolyline
90
8
70
1
43
0.0
10
-247.86299900000003
20
44.925001000000002
42
-0.41421356237309503
10
-247.36299900000003
20
45.425000999999995
10
-234.362999
20
45.425001000000009
42
-0.41421356237309503
10
-233.862999
20
44.925001000000002
10
-233.862999
20
31.925001000000002
42
-0.41421356237309503
10
-234.362999
20
31.425001000000002
10
-247.36299900000003
20
31.425000999999995
42
-0.41421356237309503
10
-247.86299900000003
20
31.925001000000002
0
LWPOLYLINE
5
182
100
AcDbEntity
8
0
100
AcDbPolyline
90
8
70
1
43
0.0
10
-190.212999
20
60.000000999999997
42
-0.41421356237309503
10
-190.712999
20
60.500000999999997
10
-190.712999
20
73.5
42
-0.41421356237309503
10
-190.212999
20
74
10
-177.21299900000002
20
74.000000000000014
42
-0.41421356237309503
10
-176.71299900000002
20
73.5
10
-176.71299900000002
20
60.500000999999997
42
-0.41421356237309503
10
-177.21299900000002
20
60.000001000000005
0
CIRCLE
5
183
100
AcDbEntity
8
0
100
AcDbCircle
10
-283.72550000000001
20
52.712500000000006
30
0
40
2.6500000000000004
210
0
220
0
230
1
0
LWPOLYLINE
5
184
100
AcDbEntity
8
0
100
AcDbPolyline
90
8
70
1
43
0.0
10
-357.68799899999999
20
98.599999999999994
10
-357.68799899999999
20
111.59999999999999
42
0.41421356237309503
10
-358.18799899999999
20
112.10000000000001
10
-371.18799899999999
20
112.10000000000001
42
0.41421356237309503
10
-371.68799900000005
20
111.59999999999999
10
-371.68799899999999
20
98.599999999999994
42
0.41421356237309503
10
-371.18799899999999
20
98.100000000000009
10
-358.18799899999999
20
98.099999999999994
42
0.41421356237309503
0
LWPOLYLINE
5
185
100
AcDbEntity
8
0
100
AcDbPolyline
90
8
70
1
43
0.0
10
-358.18799899999999
20
93.049999999999997
10
-371.18799899999999
20
93.049999999999997
42
0.41421356237309503
10
-371.68799900000005
20
92.550000000000011
10
-371.68799899999999
20
79.549999999999997
42
0.41421356237309503
10
-371.18799899999999
20
79.049999999999997
10
-358.18799899999999
20
79.049999999999997
42
0.41421356237309503
10
-357.68799899999999
20
79.549999999999997
10
-357.68799900000005
20
92.550000000000011
42
0.41421356237309503
0
LWPOLYLINE
5
186
100
AcDbEntity
8
0
100
AcDbPolyline
90
8
70
1
43
0.0
10
-338.63799900000004
20
98.599999999999994
42
-0.41421356237309503
10
-339.13799900000004
20
98.099999999999994
10
-352.13799899999998
20
98.100000000000023
42
-0.41421356237309503
10
-352.63799899999992
20
98.599999999999994
10
-352.63799899999992
20
111.59999999999999
42
-0.41421356237309503
10
-352.13799899999998
20
112.10000000000001
10
-339.13799900000004
20
112.09999999999997
42
-0.41421356237309503
10
-338.63799900000004
20
111.59999999999999
0
LWPOLYLINE
5
187
100
AcDbEntity
8
0
100
AcDbPolyline
90
8
70
1
43
0.0
10
-338.63799900000004
20
60.500000999999997
42
-0.41421356237309503
10
-339.13799900000004
20
60.000001000000005
10
-352.13799899999998
20
60.000001000000026
42
-0.41421356237309503
10
-352.63799899999992
20
60.500000999999997
10
-352.63799899999992
20
73.5
42
-0.41421356237309503
10
-352.13799899999998
20
74
10
-339.13799900000004
20
73.999999999999972
42
-0.41421356237309503
10
-338.63799900000004
20
73.5
0
LWPOLYLINE
5
188
100
AcDbEntity
8
0
100
AcDbPolyline
90
8
70
1
43
0.0
10
-371.18799899999999
20
60.000001000000005
10
-358.18799899999999
20
60.000001000000005
42
0.41421356237309503
10
-357.68799899999999
20
60.500000999999997
10
-357.68799900000005
20
73.5
42
0.41421356237309503
10
-358.18799899999999
20
74
10
-371.18799899999999
20
74
42
0.41421356237309503
10
-371.68799900000005
20
73.5
10
-371.68799899999999
20
60.500000999999997
42
0.41421356237309503
0
LWPOLYLINE
5
189
100
AcDbEntity
8
0
100
AcDbPolyline
90
8
70
1
43
0.0
10
-339.13799900000004
20
93.049999999999997
10
-352.13799899999998
20
93.049999999999997
42
0.41421356237309503
10
-352.63799900000004
20
92.550000000000011
10
-352.63799899999992
20
79.549999999999997
42
0.41421356237309503
10
-352.13799899999998
20
79.049999999999997
10
-339.13799900000004
20
79.049999999999997
42
0.41421356237309503
10
-338.63799899999998
20
79.549999999999997
10
-338.63799900000004
20
92.550000000000011
42
0.41421356237309503
0
LWPOLYLINE
5
190
100
AcDbEntity
8
0
100
AcDbPolyline
90
8
70
1
43
0.0
10
-333.08799900000002
20
98.100000000000009
10
-320.08799900000008
20
98.100000000000009
42
0.41421356237309503
10
-319.58799900000002
20
98.599999999999994
10
-319.58799900000008
20
111.59999999999999
42
0.41421356237309503
10
-320.08799900000008
20
112.10000000000001
10
-333.08799900000002
20
112.10000000000001
42
0.41421356237309503
10
-333.58799900000002
20
111.59999999999999
10
-333.58799900000002
20
98.599999999999994
42
0.41421356237309503
0
LWPOLYLINE
5
191
100
AcDbEntity
8
0
100
AcDbPolyline
90
8
70
1
43
0.0
10
-320.08799900000008
20
74.000000000000014
42
-0.41421356237309503
10
-319.58799900000008
20
73.5
10
-319.58799900000008
20
60.500000999999997
42
-0.41421356237309503
10
-320.08799900000008
20
60.000001000000005
10
-333.08799900000002
20
60.000001000000026
42
-0.41421356237309503
10
-333.58799900000002
20
60.500000999999997
10
-333.58799900000002
20
73.5
42
-0.41421356237309503
10
-333.08799900000002
20
74
0
LWPOLYLINE
5
192
100
AcDbEntity
8
0
100
AcDbPolyline
90
8
70
1
43
0.0
10
-320.08799900000008
20
93.050000000000011
42
-0.41421356237309503
10
-319.58799900000008
20
92.550000000000011
10
-319.58799900000008
20
79.549999999999997
42
-0.41421356237309503
10
-320.08799900000008
20
79.049999999999997
10
-333.08799900000002
20
79.050000000000026
42
-0.41421356237309503
10
-333.58799900000002
20
79.549999999999997
10
-333.58799900000008
20
92.550000000000011
42
-0.41421356237309503
10
-333.08799900000002
20
93.050000000000011
0
LWPOLYLINE
5
193
100
AcDbEntity
8
0
100
AcDbPolyline
90
8
70
1
43
0.0
10
-328.82549899999992
20
25.875001000000001
42
-0.41421356237309503
10
-328.32549899999998
20
26.375001000000001
10
-315.32549899999998
20
26.375001000000008
42
-0.41421356237309503
10
-314.82549899999998
20
25.875001000000001
10
-314.82549899999998
20
12.875000999999999
42
-0.41421356237309503
10
-315.32549899999998
20
12.375000999999999
10
-328.32549899999998
20
12.375001000000028
42
-0.41421356237309503
10
-328.82549899999992
20
12.875000999999999
0
CIRCLE
5
194
100
AcDbEntity
8
0
100
AcDbCircle
10
-333.73174999999998
20
14.675000000000002
30
0
40
1.25
210
0
220
0
230
1
0
LWPOLYLINE
5
195
100
AcDbEntity
8
0
100
AcDbPolyline
90
8
70
1
43
0.0
10
-371.68799899999999
20
25.875001000000001
42
-0.41421356237309503
10
-371.18799899999999
20
26.375001000000001
10
-358.18799899999999
20
26.375000999999973
42
-0.41421356237309503
10
-357.68799900000005
20
25.875001000000001
10
-357.68799900000005
20
12.875000999999999
42
-0.41421356237309503
10
-358.18799899999999
20
12.375000999999999
10
-371.18799899999999
20
12.375001000000028
42
-0.41421356237309503
10
-371.68799899999999
20
12.875000999999999
0
LWPOLYLINE
5
196
100
AcDbEntity
8
0
100
AcDbPolyline
90
8
70
1
43
0.0
10
-352.13799899999998
20
12.375001000000028
42
-0.41421356237309503
10
-352.63799899999992
20
12.875000999999999
10
-352.63799899999992
20
25.875001000000001
42
-0.41421356237309503
10
-352.13799899999998
20
26.375001000000001
10
-339.13799900000004
20
26.375000999999973
42
-0.41421356237309503
10
-338.63799900000004
20
25.875001000000001
10
-338.63799900000004
20
12.875000999999999
42
-0.41421356237309503
10
-339.13799900000004
20
12.375000999999999
0
LWPOLYLINE
5
197
100
AcDbEntity
8
0
100
AcDbPolyline
90
8
70
1
43
0.0
10
-339.13799900000004
20
45.425000999999973
42
-0.41421356237309503
10
-338.63799900000004
20
44.925001000000002
10
-338.63799900000004
20
31.925001000000002
42
-0.41421356237309503
10
-339.13799900000004
20
31.425001000000002
10
-352.13799899999998
20
31.42500100000003
42
-0.41421356237309503
10
-352.63799899999992
20
31.925001000000002
10
-352.63799899999992
20
44.925001000000002
42
-0.41421356237309503
10
-352.13799899999998
20
45.425000999999995
0
LWPOLYLINE
5
198
100
AcDbEntity
8
0
100
AcDbPolyline
90
8
70
1
43
0.0
10
-314.82549899999998
20
31.925001000000002
42
-0.41421356237309503
10
-315.32549899999998
20
31.425001000000002
10
-328.32549899999998
20
31.42500100000003
42
-0.41421356237309503
10
-328.82549899999992
20
31.925001000000002
10
-328.82549899999992
20
44.925001000000002
42
-0.41421356237309503
10
-328.32549899999998
20
45.425000999999995
10
-315.32549899999998
20
45.425001000000009
42
-0.41421356237309503
10
-314.82549899999998
20
44.925001000000002
0
LWPOLYLINE
5
199
100
AcDbEntity
8
0
100
AcDbPolyline
90
8
70
1
43
0.0
10
-371.68799899999999
20
44.925001000000002
42
-0.41421356237309503
10
-371.18799899999999
20
45.425000999999995
10
-358.18799899999999
20
45.425000999999973
42
-0.41421356237309503
10
-357.68799900000005
20
44.925001000000002
10
-357.68799900000005
20
31.925001000000002
42
-0.41421356237309503
10
-358.18799899999999
20
31.425001000000002
10
-371.18799899999999
20
31.42500100000003
42
-0.41421356237309503
10
-371.68799899999999
20
31.925001000000002
0
CIRCLE
5
200
100
AcDbEntity
8
0
100
AcDbCircle
10
-321.82549999999998
20
52.712500000000006
30
0
40
2.6500000000000004
210
0
220
0
230
1
0
LWPOLYLINE
5
201
100
AcDbEntity
8
0
100
AcDbPolyline
90
8
70
1
43
0.0
10
-295.77549900000002
20
60.500000999999997
42
-0.41421356237309503
10
-296.27549900000008
20
60.000001000000005
10
-309.27549900000002
20
60.000000999999997
42
-0.41421356237309503
10
-309.77549900000002
20
60.500000999999997
10
-309.77549900000002
20
73.5
42
-0.41421356237309503
10
-309.27549900000002
20
74
10
-296.27549900000008
20
74.000000000000014
42
-0.41421356237309503
10
-295.77549900000002
20
73.5
0
LWPOLYLINE
5
202
100
AcDbEntity
8
0
100
AcDbPolyline
90
8
70
1
43
0.0
10
-296.27549900000008
20
45.425001000000009
10
-309.27549900000002
20
45.425001000000009
42
0.41421356237309503
10
-309.77549900000002
20
44.925001000000002
10
-309.77549900000002
20
31.925001000000002
42
0.41421356237309503
10
-309.27549900000002
20
31.425001000000002
10
-296.27549900000008
20
31.425001000000002
42
0.41421356237309503
10
-295.77549900000002
20
31.925001000000002
10
-295.77549900000002
20
44.925001000000002
42
0.41421356237309503
0
CIRCLE
5
203
100
AcDbEntity
8
0
100
AcDbCircle
10
-302.77550000000008
20
52.712500000000006
30
0
40
2.6500000000000004
210
0
220
0
230
1
0
LWPOLYLINE
5
204
100
AcDbEntity
8
0
100
AcDbPolyline
90
8
70
1
43
0.0
10
-296.27549900000008
20
112.10000000000001
10
-309.27549900000002
20
112.10000000000001
42
0.41421356237309503
10
-309.77549900000002
20
111.59999999999999
10
-309.77549900000002
20
98.599999999999994
42
0.41421356237309503
10
-309.27549900000002
20
98.100000000000009
10
-296.27549900000008
20
98.099999999999994
42
0.41421356237309503
10
-295.77549900000002
20
98.599999999999994
10
-295.77549900000002
20
111.59999999999999
42
0.41421356237309503
0
LWPOLYLINE
5
205
100
AcDbEntity
8
0
100
AcDbPolyline
90
8
70
1
43
0.0
10
-296.27549900000008
20
93.049999999999997
10
-309.27549900000002
20
93.049999999999997
42
0.41421356237309503
10
-309.77549900000002
20
92.550000000000011
10
-309.77549900000002
20
79.549999999999997
42
0.41421356237309503
10
-309.27549900000002
20
79.049999999999997
10
-296.27549900000008
20
79.049999999999997
42
0.41421356237309503
10
-295.77549900000002
20
79.549999999999997
10
-295.77549900000002
20
92.550000000000011
42
0.41421356237309503
0
LWPOLYLINE
5
206
100
AcDbEntity
8
0
100
AcDbPolyline
90
8
70
1
43
0.0
10
-296.27549900000008
20
26.375001000000008
42
-0.41421356237309503
10
-295.77549900000002
20
25.875001000000001
10
-295.77549900000002
20
12.875000999999999
42
-0.41421356237309503
10
-296.27549900000008
20
12.375000999999999
10
-309.27549900000002
20
12.375000999999992
42
-0.41421356237309503
10
-309.77549900000002
20
12.875000999999999
10
-309.77549900000002
20
25.875001000000001
42
-0.41421356237309503
10
-309.27549900000002
20
26.375001000000001
0
LWPOLYLINE
5
207
100
AcDbEntity
8
0
100
AcDbPolyline
90
8
70
1
43
0.0
10
-376.73799900000006
20
31.925001000000002
42
-0.41421356237309503
10
-377.23799900000006
20
31.425001000000002
10
-390.237999
20
31.42500100000003
42
-0.41421356237309503
10
-390.73799899999995
20
31.925001000000002
10
-390.73799899999995
20
44.925001000000002
42
-0.41421356237309503
10
-390.237999
20
45.425000999999995
10
-377.23799900000006
20
45.425000999999973
42
-0.41421356237309503
10
-376.73799900000006
20
44.925001000000002
0
CIRCLE
5
208
100
AcDbEntity
8
0
100
AcDbCircle
10
-387.43700000000001
20
52.712500000000006
30
0
40
1.25
210
0
220
0
230
1
0
LWPOLYLINE
5
209
100
AcDbEntity
8
0
100
AcDbPolyline
90
8
70
1
43
0.0
10
-390.237999
20
12.375001000000028
42
-0.41421356237309503
10
-390.73799899999995
20
12.875000999999999
10
-390.73799899999995
20
25.875001000000001
42
-0.41421356237309503
10
-390.237999
20
26.375001000000001
10
-377.23799900000006
20
26.375000999999973
42
-0.41421356237309503
10
-376.73799900000006
20
25.875001000000001
10
-376.73799900000006
20
12.875000999999999
42
-0.41421356237309503
10
-377.23799900000006
20
12.375000999999999
0
LWPOLYLINE
5
210
100
AcDbEntity
8
0
100
AcDbPolyline
90
8
70
1
43
0.0
10
-390.237999
20
60.000001000000026
42
-0.41421356237309503
10
-390.73799899999995
20
60.500000999999997
10
-390.73799899999995
20
73.5
42
-0.41421356237309503
10
-390.237999
20
74
10
-377.23799900000006
20
73.999999999999972
42
-0.41421356237309503
10
-376.73799900000006
20
73.5
10
-376.73799900000006
20
60.500000999999997
42
-0.41421356237309503
10
-377.23799900000006
20
60.000001000000005
0
LWPOLYLINE
5
211
100
AcDbEntity
8
0
100
AcDbPolyline
90
24
70
1
43
0.0
10
-376.737999
20
87.437000000000012
10
-376.737999
20
103.71299999999999
42
-0.41421356237309503
10
-376.43799899999999
20
104.01300000000001
10
-375.237999
20
104.01300000000001
42
0.41421356237309503
10
-374.73799900000006
20
104.51300000000002
10
-374.73799900000006
20
110.51300000000001
42
0.41421356237309503
10
-375.237999
20
111.01300000000002
10
-376.43799899999999
20
111.01300000000001
42
-0.41421356237309503
10
-376.737999
20
111.31300000000002
10
-376.73799900000006
20
111.59999999999999
42
0.41421356237309503
10
-377.23799900000006
20
112.10000000000001
10
-390.237999
20
112.10000000000001
42
0.41421356237309503
10
-390.73799900000006
20
111.59999999999999
10
-390.73799899999995
20
79.549999999999997
42
0.41421356237309503
10
-390.237999
20
79.049999999999997
10
-377.23799900000006
20
79.049999999999997
42
0.41421356237309503
10
-376.737999
20
79.549999999999997
10
-376.737999
20
79.837000000000003
42
-0.41421356237309503
10
-376.43799899999999
20
80.137
10
-375.237999
20
80.137
42
0.41421356237309503
10
-374.73799900000006
20
80.637
10
-374.73799900000006
20
86.637
42
0.41421356237309503
10
-375.237999
20
87.137000000000015
10
-376.43799899999999
20
87.137
42
-0.41421356237309503
0
LWPOLYLINE
5
212
100
AcDbEntity
8
0
100
AcDbPolyline
90
8
70
1
43
0.0
10
-290.72549900000001
20
154.46250000000001
42
-0.41421356237309503
10
-290.22549900000001
20
154.96250000000001
10
-277.22549900000001
20
154.96250000000001
42
-0.41421356237309503
10
-276.72549900000001
20
154.46250000000001
10
-276.72549900000001
20
141.46250000000003
42
-0.41421356237309503
10
-277.22549900000001
20
140.96250000000001
10
-290.22549900000001
20
140.96250000000001
42
-0.41421356237309503
10
-290.72549900000001
20
141.46250000000003
0
CIRCLE
5
213
100
AcDbEntity
8
0
100
AcDbCircle
10
-314.68175000000002
20
149.53111200000001
30
0
40
1.25
210
0
220
0
230
1
0
LWPOLYLINE
5
214
100
AcDbEntity
8
0
100
AcDbPolyline
90
8
70
1
43
0.0
10
-295.77549900000002
20
141.46250000000003
42
-0.41421356237309503
10
-296.27549900000008
20
140.96250000000001
10
-309.27549900000002
20
140.96250000000001
42
-0.41421356237309503
10
-309.77549900000002
20
141.46250000000003
10
-309.77549900000002
20
154.46250000000001
42
-0.41421356237309503
10
-309.27549900000002
20
154.96250000000001
10
-296.27549900000008
20
154.96250000000001
42
-0.41421356237309503
10
-295.77549900000002
20
154.46250000000001
0
CIRCLE
5
215
100
AcDbEntity
8
0
100
AcDbCircle
10
-373.00000000000006
20
157.19999999999999
30
0
40
2.2999999999999998
210
0
220
0
230
1
0
LWPOLYLINE
5
216
100
AcDbEntity
8
0
100
AcDbPolyline
90
8
70
1
43
0.0
10
-371.68799900000005
20
130.65000000000001
10
-371.68799900000005
20
117.65000000000001
42
0.41421356237309503
10
-371.18799899999999
20
117.15000000000002
10
-358.18799899999999
20
117.15000000000001
42
0.41421356237309503
10
-357.68799899999999
20
117.65000000000001
10
-357.68799900000005
20
130.65000000000001
42
0.41421356237309503
10
-358.18799899999999
20
131.15000000000003
10
-371.18799899999999
20
131.15000000000003
42
0.41421356237309503
0
LWPOLYLINE
5
217
100
AcDbEntity
8
0
100
AcDbPolyline
90
40
70
1
43
0.0
10
-378.23799900000006
20
126.67500000000001
10
-377.23799900000006
20
126.67500000000001
42
0.41421356237309503
10
-376.737999
20
127.17500000000001
10
-376.73799900000006
20
140.17500000000001
42
0.41421356237309503
10
-377.23799900000006
20
140.67500000000001
10
-378.23799900000006
20
140.67500000000004
42
-0.41421356237309503
10
-378.737999
20
141.17500000000001
10
-378.73799900000006
20
141.613
42
-0.41421356237309503
10
-378.23799900000006
20
142.113
10
-375.237999
20
142.113
42
0.41421356237309503
10
-374.73799900000006
20
142.613
10
-374.73799900000006
20
148.613
42
0.41421356237309503
10
-375.237999
20
149.113
10
-389.23799900000006
20
149.113
42
0.41421356237309503
10
-389.73799900000006
20
148.613
10
-389.73799900000006
20
142.613
42
0.41421356237309503
10
-389.23799900000006
20
142.113
10
-388.23799900000006
20
142.11300000000006
42
-0.41421356237309503
10
-387.737999
20
141.613
10
-387.73799900000006
20
141.17500000000001
42
-0.41421356237309503
10
-388.23799900000006
20
140.67500000000001
10
-390.237999
20
140.67500000000001
42
0.41421356237309503
10
-390.73799900000006
20
140.17500000000001
10
-390.73799899999995
20
127.17500000000001
42
0.41421356237309503
10
-390.237999
20
126.67500000000001
10
-388.23799900000006
20
126.67500000000004
42
-0.41421356237309503
10
-387.737999
20
126.175
10
-387.737999
20
125.73700000000001
42
-0.41421356237309503
10
-388.23799900000006
20
125.23699999999999
10
-389.23799900000006
20
125.23700000000002
42
0.41421356237309503
10
-389.73799900000006
20
124.73700000000001
10
-389.73799900000006
20
118.73699999999999
42
0.41421356237309503
10
-389.23799900000006
20
118.23700000000001
10
-375.237999
20
118.23699999999999
42
0.41421356237309503
10
-374.73799900000006
20
118.73699999999999
10
-374.73799900000006
20
124.73700000000001
42
0.41421356237309503
10
-375.237999
20
125.23699999999999
10
-378.23799900000006
20
125.23700000000004
42
-0.41421356237309503
10
-378.737999
20
125.73700000000001
10
-378.73799900000006
20
126.175
42
-0.41421356237309503
0
LWPOLYLINE
5
218
100
AcDbEntity
8
0
100
AcDbPolyline
90
8
70
1
43
0.0
10
-371.68799900000005
20
149.69999999999999
10
-371.68799900000005
20
136.69999999999999
42
0.41421356237309503
10
-371.18799899999999
20
136.19999999999999
10
-358.18799899999999
20
136.19999999999999
42
0.41421356237309503
10
-357.68799899999999
20
136.69999999999999
10
-357.68799900000005
20
149.69999999999999
42
0.41421356237309503
10
-358.18799899999999
20
150.19999999999999
10
-371.18799899999999
20
150.19999999999999
42
0.41421356237309503
0
LWPOLYLINE
5
219
100
AcDbEntity
8
0
100
AcDbPolyline
90
24
70
1
43
0.0
10
-352.13799899999998
20
136.20000000000002
42
-0.41421356237309503
10
-352.63799899999992
20
136.69999999999999
10
-352.63799899999992
20
149.69999999999999
42
-0.41421356237309503
10
-352.13799899999998
20
150.19999999999999
10
-351.85099900000006
20
150.19999999999999
42
0.41421356237309503
10
-351.55099900000005
20
150.5
10
-351.55099899999993
20
151.69999999999999
42
-0.41421356237309503
10
-351.05099899999999
20
152.20000000000002
10
-345.05099899999999
20
152.19999999999996
42
-0.41421356237309503
10
-344.55099899999999
20
151.69999999999999
10
-344.55099899999999
20
150.5
42
0.41421356237309503
10
-344.25099899999998
20
150.20000000000002
10
-327.97499900000003
20
150.19999999999999
42
0.41421356237309503
10
-327.67499900000007
20
150.5
10
-327.67499900000007
20
151.69999999999999
42
-0.41421356237309503
10
-327.17499900000001
20
152.20000000000002
10
-321.17499900000007
20
152.19999999999996
42
-0.41421356237309503
10
-320.67499900000007
20
151.69999999999999
10
-320.67499900000001
20
150.5
42
0.41421356237309503
10
-320.374999
20
150.20000000000002
10
-320.08799900000008
20
150.19999999999999
42
-0.41421356237309503
10
-319.58799900000008
20
149.69999999999999
10
-319.58799900000008
20
136.69999999999999
42
-0.41421356237309503
10
-320.08799900000008
20
136.19999999999999
0
LWPOLYLINE
5
220
100
AcDbEntity
8
0
100
AcDbPolyline
90
8
70
1
43
0.0
10
-352.13799899999998
20
117.15000000000002
10
-339.13799900000004
20
117.15000000000002
42
0.41421356237309503
10
-338.63799899999998
20
117.65000000000001
10
-338.63799900000004
20
130.65000000000001
42
0.41421356237309503
10
-339.13799900000004
20
131.15000000000003
10
-352.13799899999998
20
131.15000000000003
42
0.41421356237309503
10
-352.63799900000004
20
130.65000000000001
10
-352.63799899999992
20
117.65000000000001
42
0.41421356237309503
0
CIRCLE
5
221
100
AcDbEntity
8
0
100
AcDbCircle
10
-233
20
157.19999999999999
30
0
40
2.2999999999999998
210
0
220
0
230
1
0
CIRCLE
5
222
100
AcDbEntity
8
0
100
AcDbCircle
10
-252.76925000000003
20
149.53111200000001
30
0
40
1.25
210
0
220
0
230
1
0
LWPOLYLINE
5
223
100
AcDbEntity
8
0
100
AcDbPolyline
90
8
70
1
43
0.0
10
-258.17549900000006
20
154.96250000000001
10
-271.175499
20
154.96250000000001
42
0.41421356237309503
10
-271.675499
20
154.46250000000001
10
-271.675499
20
141.46250000000003
42
0.41421356237309503
10
-271.175499
20
140.96250000000001
10
-258.17549900000006
20
140.96250000000001
42
0.41421356237309503
10
-257.675499
20
141.46250000000003
10
-257.675499
20
154.46250000000001
42
0.41421356237309503
0
CIRCLE
5
224
100
AcDbEntity
8
0
100
AcDbCircle
10
-93
20
157.19999999999999
30
0
40
2.2999999999999998
210
0
220
0
230
1
0
CIRCLE
5
225
100
AcDbEntity
8
0
100
AcDbCircle
10
-163
20
157.19999999999999
30
0
40
2.2999999999999998
210
0
220
0
230
1
0
LWPOLYLINE
5
226
100
AcDbEntity
8
0
100
AcDbPolyline
90
24
70
1
43
0.0
10
-32.307248999999999
20
131.15000000000001
42
-0.41421356237309503
10
-32.607249000000003
20
131.44999999999999
10
-32.607249000000003
20
132.65000000000001
42
0.41421356237309503
10
-33.107249000000003
20
133.15000000000001
10
-39.107249000000003
20
133.15000000000001
42
0.41421356237309503
10
-39.60724900000001
20
132.65000000000001
10
-39.607249000000024
20
131.44999999999999
42
-0.41421356237309503
10
-39.907249
20
131.15000000000003
10
-42.575499000000001
20
131.15000000000003
42
0.41421356237309503
10
-43.075499000000008
20
130.65000000000001
10
-43.075498999999994
20
117.65000000000001
42
0.41421356237309503
10
-42.575499000000001
20
117.15000000000002
10
-8.1442499999999995
20
117.15000000000001
42
0.41421356237309503
10
-7.6442500000000013
20
117.65000000000001
10
-7.6442499999999995
20
130.65000000000001
42
0.41421356237309503
10
-8.1442499999999995
20
131.15000000000003
10
-8.4312500000000021
20
131.15000000000001
42
-0.41421356237309503
10
-8.7312499999999993
20
131.44999999999999
10
-8.7312499999999993
20
132.65000000000001
42
0.41421356237309503
10
-9.2312499999999993
20
133.15000000000001
10
-15.231249
20
133.15000000000001
42
0.41421356237309503
10
-15.731249
20
132.65000000000001
10
-15.731249000000025
20
131.44999999999999
42
-0.41421356237309503
10
-16.031249000000003
20
131.15000000000003
0
LWPOLYLINE
5
227
100
AcDbEntity
8
0
100
AcDbPolyline
90
8
70
1
43
0.0
10
-61.625499000000005
20
117.15000000000002
10
-48.625499000000005
20
117.15000000000002
42
0.41421356237309503
10
-48.125499000000005
20
117.65000000000001
10
-48.125499000000005
20
130.65000000000001
42
0.41421356237309503
10
-48.625499000000005
20
131.15000000000003
10
-61.625499000000005
20
131.15000000000003
42
0.41421356237309503
10
-62.125498999999998
20
130.65000000000001
10
-62.125498999999998
20
117.65000000000001
42
0.41421356237309503
0
LWPOLYLINE
5
228
100
AcDbEntity
8
0
100
AcDbPolyline
90
8
70
1
43
0.0
10
-81.175499000000016
20
130.65000000000001
42
-0.41421356237309503
10
-80.675499000000016
20
131.15000000000003
10
-67.675499000000002
20
131.15000000000003
42
-0.41421356237309503
10
-67.175499000000002
20
130.65000000000001
10
-67.175499000000002
20
117.65000000000001
42
-0.41421356237309503
10
-67.675499000000002
20
117.15000000000001
10
-80.675499000000016
20
117.15000000000001
42
-0.41421356237309503
10
-81.175499000000016
20
117.65000000000001
0
LWPOLYLINE
5
229
100
AcDbEntity
8
0
100
AcDbPolyline
90
8
70
1
43
0.0
10
-105.275499
20
117.65000000000001
42
-0.41421356237309503
10
-105.77549900000001
20
117.15000000000001
10
-118.775499
20
117.15000000000001
42
-0.41421356237309503
10
-119.27549900000001
20
117.65000000000001
10
-119.27549900000001
20
130.65000000000001
42
-0.41421356237309503
10
-118.775499
20
131.15000000000003
10
-105.77549900000001
20
131.15000000000003
42
-0.41421356237309503
10
-105.275499
20
130.65000000000001
0
LWPOLYLINE
5
230
100
AcDbEntity
8
0
100
AcDbPolyline
90
8
70
1
43
0.0
10
-100.22549900000001
20
130.65000000000001
10
-100.22549900000001
20
117.65000000000001
42
0.41421356237309503
10
-99.725499000000013
20
117.15000000000002
10
-86.725498999999999
20
117.15000000000001
42
0.41421356237309503
10
-86.225499000000013
20
117.65000000000001
10
-86.225498999999985
20
130.65000000000001
42
0.41421356237309503
10
-86.725498999999999
20
131.15000000000003
10
-99.725499000000013
20
131.15000000000003
42
0.41421356237309503
0
LWPOLYLINE
5
231
100
AcDbEntity
8
0
100
AcDbPolyline
90
8
70
1
43
0.0
10
-176.42549900000003
20
130.65000000000001
10
-176.42549900000003
20
117.65000000000001
42
0.41421356237309503
10
-175.925499
20
117.15000000000002
10
-162.925499
20
117.15000000000001
42
0.41421356237309503
10
-162.425499
20
117.65000000000001
10
-162.425499
20
130.65000000000001
42
0.41421356237309503
10
-162.925499
20
131.15000000000003
10
-175.925499
20
131.15000000000003
42
0.41421356237309503
0
LWPOLYLINE
5
232
100
AcDbEntity
8
0
100
AcDbPolyline
90
8
70
1
43
0.0
10
-156.87549899999999
20
117.15000000000002
10
-143.87549899999999
20
117.15000000000002
42
0.41421356237309503
10
-143.37549899999999
20
117.65000000000001
10
-143.37549899999999
20
130.65000000000001
42
0.41421356237309503
10
-143.87549899999999
20
131.15000000000003
10
-156.87549899999999
20
131.15000000000003
42
0.41421356237309503
10
-157.37549899999999
20
130.65000000000001
10
-157.37549900000002
20
117.65000000000001
42
0.41421356237309503
0
LWPOLYLINE
5
233
100
AcDbEntity
8
0
100
AcDbPolyline
90
8
70
1
43
0.0
10
-124.82549900000001
20
131.15000000000003
10
-137.82549900000001
20
131.15000000000003
42
0.41421356237309503
10
-138.32549900000001
20
130.65000000000001
10
-138.32549900000001
20
117.65000000000001
42
0.41421356237309503
10
-137.82549900000001
20
117.15000000000002
10
-124.82549900000001
20
117.15000000000001
42
0.41421356237309503
10
-124.32549899999999
20
117.65000000000001
10
-124.32549899999999
20
130.65000000000001
42
0.41421356237309503
0
LWPOLYLINE
5
234
100
AcDbEntity
8
0
100
AcDbPolyline
90
8
70
1
43
0.0
10
-200.525499
20
117.65000000000001
42
-0.41421356237309503
10
-201.025499
20
117.15000000000001
10
-214.025499
20
117.15000000000001
42
-0.41421356237309503
10
-214.52549900000002
20
117.65000000000001
10
-214.52549900000002
20
130.65000000000001
42
-0.41421356237309503
10
-214.025499
20
131.15000000000003
10
-201.025499
20
131.15000000000003
42
-0.41421356237309503
10
-200.525499
20
130.65000000000001
0
LWPOLYLINE
5
235
100
AcDbEntity
8
0
100
AcDbPolyline
90
8
70
1
43
0.0
10
-181.97549900000001
20
131.15000000000003
42
-0.41421356237309503
10
-181.47549900000001
20
130.65000000000001
10
-181.47549900000001
20
117.65000000000001
42
-0.41421356237309503
10
-181.97549900000001
20
117.15000000000001
10
-194.97549900000001
20
117.15000000000001
42
-0.41421356237309503
10
-195.47549900000004
20
117.65000000000001
10
-195.47549900000004
20
130.65000000000001
42
-0.41421356237309503
10
-194.97549900000001
20
131.15000000000003
0
LWPOLYLINE
5
236
100
AcDbEntity
8
0
100
AcDbPolyline
90
8
70
1
43
0.0
10
-333.58799900000002
20
130.65000000000001
10
-333.58799900000002
20
117.65000000000001
42
0.41421356237309503
10
-333.08799900000002
20
117.15000000000002
10
-320.08799900000008
20
117.15000000000001
42
0.41421356237309503
10
-319.58799900000002
20
117.65000000000001
10
-319.58799900000008
20
130.65000000000001
42
0.41421356237309503
10
-320.08799900000008
20
131.15000000000003
10
-333.08799900000002
20
131.15000000000003
42
0.41421356237309503
0
CIRCLE
5
237
100
AcDbEntity
8
0
100
AcDbCircle
10
-305.15699999999998
20
119.09999999999999
30
0
40
1.25
210
0
220
0
230
1
0
LWPOLYLINE
5
238
100
AcDbEntity
8
0
100
AcDbPolyline
90
8
70
1
43
0.0
10
-276.72549900000001
20
122.41250000000001
10
-276.72549900000001
20
135.41249999999999
42
0.41421356237309503
10
-277.22549900000001
20
135.91249999999999
10
-290.22549900000001
20
135.91249999999999
42
0.41421356237309503
10
-290.72549900000001
20
135.41249999999999
10
-290.72549900000001
20
122.41250000000001
42
0.41421356237309503
10
-290.22549900000001
20
121.91249999999999
10
-277.22549900000001
20
121.91249999999999
42
0.41421356237309503
0
LWPOLYLINE
5
239
100
AcDbEntity
8
0
100
AcDbPolyline
90
8
70
1
43
0.0
10
-233.57549900000004
20
130.65000000000001
10
-233.57549900000004
20
117.65000000000001
42
0.41421356237309503
10
-233.07549900000001
20
117.15000000000002
10
-220.07549900000001
20
117.15000000000001
42
0.41421356237309503
10
-219.57549900000004
20
117.65000000000001
10
-219.57549900000001
20
130.65000000000001
42
0.41421356237309503
10
-220.07549900000001
20
131.15000000000003
10
-233.07549900000001
20
131.15000000000003
42
0.41421356237309503
0
LWPOLYLINE
5
240
100
AcDbEntity
8
0
100
AcDbPolyline
90
8
70
1
43
0.0
10
-246.26924900000003
20
131.15000000000003
10
-259.26924900000006
20
131.15000000000003
42
0.41421356237309503
10
-259.769249
20
130.65000000000001
10
-259.76924900000006
20
117.65000000000001
42
0.41421356237309503
10
-259.26924900000006
20
117.15000000000002
10
-246.26924900000003
20
117.15000000000001
42
0.41421356237309503
10
-245.769249
20
117.65000000000001
10
-245.769249
20
130.65000000000001
42
0.41421356237309503
0
CIRCLE
5
241
100
AcDbEntity
8
0
100
AcDbCircle
10
-23.000000000000004
20
157.19999999999999
30
0
40
2.2999999999999998
210
0
220
0
230
1
0
CIRCLE
5
242
100
AcDbEntity
8
0
100
AcDbCircle
10
-303
20
5.375
30
0
40
2.2999999999999998
210
0
220
0
230
1
0
CIRCLE
5
243
100
AcDbEntity
8
0
100
AcDbCircle
10
-373.00000000000006
20
5.375
30
0
40
2.2999999999999998
210
0
220
0
230
1
0
CIRCLE
5
244
100
AcDbEntity
8
0
100
AcDbCircle
10
-233
20
5.375
30
0
40
2.2999999999999998
210
0
220
0
230
1
0
CIRCLE
5
245
100
AcDbEntity
8
0
100
AcDbCircle
10
-23.000000000000004
20
5.375
30
0
40
2.2999999999999998
210
0
220
0
230
1
0
CIRCLE
5
246
100
AcDbEntity
8
0
100
AcDbCircle
10
-163
20
5.375
30
0
40
2.2999999999999998
210
0
220
0
230
1
0
CIRCLE
5
247
100
AcDbEntity
8
0
100
AcDbCircle
10
-93
20
5.375
30
0
40
2.2999999999999998
210
0
220
0
230
1
0
LWPOLYLINE
5
248
100
AcDbEntity
8
0
100
AcDbPolyline
90
8
70
1
43
0.0
10
-247.36299900000003
20
136.19999999999999
10
-196.26299900000004
20
136.19999999999999
42
0.41421356237309503
10
-195.76299900000004
20
136.69999999999999
10
-195.76299900000004
20
149.69999999999999
42
0.41421356237309503
10
-196.26299900000004
20
150.19999999999999
10
-247.36299900000003
20
150.19999999999999
42
0.41421356237309503
10
-247.86299900000003
20
149.69999999999999
10
-247.86299900000003
20
136.69999999999999
42
0.41421356237309503
0
LWPOLYLINE
5
249
100
AcDbEntity
8
0
100
AcDbPolyline
90
40
70
1
43
0.0
10
-102.80675000000002
20
139.20000099999999
42
-0.41421356237304302
10
-102.60675000000003
20
139.000001
10
-102.60675000000003
20
136.70000099999999
42
0.41421356237309503
10
-102.10675000000002
20
136.20000099999999
10
-89.106750000000034
20
136.20000099999999
42
0.41421356237307422
10
-88.606750000000019
20
136.70000099999999
10
-88.606750000000019
20
139.000001
42
-0.41421356237309503
10
-88.406750000000031
20
139.20000099999999
10
-87.406749000000005
20
139.20000099999999
42
-0.41421356237309503
10
-87.206749000000002
20
139.000001
10
-87.206749000000002
20
137.69999999999999
42
0.41421356237309503
10
-86.706749000000002
20
137.19999999999999
10
-80.706749000000002
20
137.19999999999999
42
0.41421356237309503
10
-80.206749000000016
20
137.69999999999999
10
-80.206749000000002
20
151.69999999999999
42
0.41421356237309503
10
-80.706749000000002
20
152.19999999999999
10
-86.706749000000002
20
152.20000000000002
42
0.41421356237309503
10
-87.206749000000002
20
151.69999999999999
10
-87.206748999999988
20
147.90000099999997
42
-0.41421356237314705
10
-87.406749000000005
20
147.70000099999999
10
-88.406750000000031
20
147.70000100000001
42
-0.41421356237314705
10
-88.606750000000005
20
147.90000099999997
10
-88.606750000000019
20
149.70000099999999
42
0.4142135623730534
10
-89.106750000000034
20
150.20000099999999
10
-102.10675000000002
20
150.20000099999999
42
0.41421356237307422
10
-102.60675000000003
20
149.70000099999999
10
-102.60675000000001
20
147.90000099999997
42
-0.41421356237309503
10
-102.80675000000002
20
147.70000099999999
10
-103.84475000000002
20
147.70000099999999
42
-0.41421356237309503
10
-104.04475000000002
20
147.90000099999997
10
-104.04475000000002
20
151.70000099999999
42
0.41421356237309503
10
-104.54475000000002
20
152.20000099999999
10
-110.54475000000002
20
152.20000099999999
42
0.41421356237307422
10
-111.04475000000002
20
151.70000099999999
10
-111.04475000000002
20
137.70000099999999
42
0.4142135623730534
10
-110.54475000000002
20
137.20000099999999
10
-104.54475000000002
20
137.20000099999999
42
0.41421356237307422
10
-104.04475000000002
20
137.70000099999999
10
-104.04475000000002
20
139.000001
42
-0.41421356237304302
10
-103.84475000000002
20
139.20000099999999
0
LWPOLYLINE
5
250
100
AcDbEntity
8
0
100
AcDbPolyline
90
40
70
1
43
0.0
10
-175.28225000000006
20
147.70000100000001
42
-0.4142135623732251
10
-175.48225000000002
20
147.90000099999997
10
-175.48225000000002
20
151.70000099999999
42
0.41421356237314705
10
-175.98225000000002
20
152.20000099999999
10
-186.706749
20
152.20000000000002
42
0.41421356237309503
10
-187.20674900000003
20
151.69999999999999
10
-187.20674900000003
20
137.69999999999999
42
0.41421356237309503
10
-186.706749
20
137.19999999999999
10
-175.98224999999999
20
137.20000099999999
42
0.4142135623730846
10
-175.48224999999996
20
137.70000099999999
10
-175.48224999999996
20
139.000001
42
-0.41421356237317308
10
-175.28224999999995
20
139.20000099999999
10
-174.24424999999999
20
139.20000099999996
42
-0.41421356237309503
10
-174.04425000000003
20
139.000001
10
-174.04425000000001
20
136.70000099999999
42
0.41421356237310542
10
-173.54424999999998
20
136.20000099999996
10
-160.54425000000003
20
136.20000099999999
42
0.41421356237316787
10
-160.04425000000003
20
136.70000099999999
10
-160.04425000000001
20
139.000001
42
-0.41421356237304302
10
-159.84425000000002
20
139.20000099999999
10
-158.80625000000003
20
139.20000100000001
42
-0.41421356237304302
10
-158.60625000000002
20
139.000001
10
-158.60625000000002
20
137.70000099999999
42
0.41421356237307422
10
-158.10625000000002
20
137.20000099999999
10
-152.10624999999999
20
137.20000099999999
42
0.41421356237307422
10
-151.60624999999999
20
137.70000099999999
10
-151.60624999999999
20
151.70000099999999
42
0.41421356237309503
10
-152.10624999999999
20
152.20000099999999
10
-158.10625000000002
20
152.20000099999999
42
0.41421356237309503
10
-158.60625000000002
20
151.70000099999999
10
-158.60624999999999
20
147.90000099999997
42
-0.41421356237314705
10
-158.80625000000001
20
147.70000099999999
10
-159.84425000000005
20
147.70000100000007
42
-0.41421356237312101
10
-160.04424999999998
20
147.90000099999997
10
-160.04425000000001
20
149.70000099999999
42
0.41421356237304302
10
-160.54425000000003
20
150.20000099999999
10
-173.54425000000003
20
150.20000099999999
42
0.41421356237309503
10
-174.04425000000003
20
149.70000099999999
10
-174.04425000000003
20
147.90000099999997
42
-0.41421356237314705
10
-174.24424999999999
20
147.70000099999999
0
ENDSEC
0
SECTION
2
OBJECTS
0
DICTIONARY
5
C
100
AcDbDictionary
3
ACAD_GROUP
350
D
3
ACAD_MLINESTYLE
350
17
0
DICTIONARY
5
D
100
AcDbDictionary
0
DICTIONARY
5
1A
330
C
100
AcDbDictionary
0
DICTIONARY
5
17
100
AcDbDictionary
0
ENDSEC
0
EOF
