M48
; DRILL file {KiCad 7.0.2} date Thu Jun 29 00:05:03 2023
; FORMAT={-:-/ absolute / metric / decimal}
; #@! TF.CreationDate,2023-06-29T00:05:03-04:00
; #@! TF.GenerationSoftware,Kicad,Pcbnew,7.0.2
; #@! TF.FileFunction,Plated,1,2,PTH
FMAT,2
METRIC
; #@! TA.AperFunction,Plated,PTH,ViaDrill
T1C0.400
; #@! TA.AperFunction,Plated,PTH,ComponentDrill
T2C2.200
; #@! TA.AperFunction,Plated,PTH,ComponentDrill
T3C5.500
; #@! TA.AperFunction,Plated,PTH,ComponentDrill
T4C7.000
; #@! TA.AperFunction,Plated,PTH,ComponentDrill
T5C8.400
%
G90
G05
T1
X-10.75Y35.5
X-10.75Y-122.0
X-5.75Y35.5
X-5.75Y-122.0
X77.0Y35.5
X77.0Y-122.0
X82.0Y35.5
X82.0Y-122.0
X183.25Y35.5
X183.25Y-122.0
X188.25Y35.5
X188.25Y-122.0
X289.5Y35.5
X294.5Y35.5
X313.25Y-122.0
X318.25Y-122.0
X377.25Y35.5
X377.25Y-122.0
X382.25Y35.5
X382.25Y-122.0
T2
X15.478Y-38.1
X38.1Y9.525
X38.1Y-95.25
X133.35Y-38.1
X138.113Y9.525
X200.025Y-95.25
X238.125Y9.525
X323.85Y-38.1
X361.95Y9.525
X361.95Y-95.25
T3
X271.462Y-14.287
X290.512Y-14.287
X309.562Y-14.287
T4
X13.0Y22.05
T5
X292.894Y-88.225
T0
M30
