%TF.GenerationSoftware,KiCad,Pcbnew,(6.0.11)*%
%TF.CreationDate,2023-03-05T02:03:33-05:00*%
%TF.ProjectId,FR4-hotswap-ANSI-plate,4652342d-686f-4747-9377-61702d414e53,rev?*%
%TF.SameCoordinates,Original*%
%TF.FileFunction,Legend,Bot*%
%TF.FilePolarity,Positive*%
%FSLAX46Y46*%
G04 Gerber Fmt 4.6, Leading zero omitted, Abs format (unit mm)*
G04 Created by KiCad (PCBNEW (6.0.11)) date 2023-03-05 02:03:33*
%MOMM*%
%LPD*%
G01*
G04 APERTURE LIST*
%ADD10C,0.300000*%
%ADD11C,0.150000*%
G04 APERTURE END LIST*
D10*
X263323972Y-13060512D02*
X263123972Y-13127178D01*
X263057305Y-13193845D01*
X262990638Y-13327178D01*
X262990638Y-13527178D01*
X263057305Y-13660512D01*
X263123972Y-13727178D01*
X263257305Y-13793845D01*
X263790638Y-13793845D01*
X263790638Y-12393845D01*
X263323972Y-12393845D01*
X263190638Y-12460512D01*
X263123972Y-12527178D01*
X263057305Y-12660512D01*
X263057305Y-12793845D01*
X263123972Y-12927178D01*
X263190638Y-12993845D01*
X263323972Y-13060512D01*
X263790638Y-13060512D01*
X262190638Y-13793845D02*
X262323972Y-13727178D01*
X262390638Y-13660512D01*
X262457305Y-13527178D01*
X262457305Y-13127178D01*
X262390638Y-12993845D01*
X262323972Y-12927178D01*
X262190638Y-12860512D01*
X261990638Y-12860512D01*
X261857305Y-12927178D01*
X261790638Y-12993845D01*
X261723972Y-13127178D01*
X261723972Y-13527178D01*
X261790638Y-13660512D01*
X261857305Y-13727178D01*
X261990638Y-13793845D01*
X262190638Y-13793845D01*
X261190638Y-13727178D02*
X261057305Y-13793845D01*
X260790638Y-13793845D01*
X260657305Y-13727178D01*
X260590638Y-13593845D01*
X260590638Y-13527178D01*
X260657305Y-13393845D01*
X260790638Y-13327178D01*
X260990638Y-13327178D01*
X261123972Y-13260512D01*
X261190638Y-13127178D01*
X261190638Y-13060512D01*
X261123972Y-12927178D01*
X260990638Y-12860512D01*
X260790638Y-12860512D01*
X260657305Y-12927178D01*
X260190638Y-12860512D02*
X259657305Y-12860512D01*
X259990638Y-12393845D02*
X259990638Y-13593845D01*
X259923972Y-13727178D01*
X259790638Y-13793845D01*
X259657305Y-13793845D01*
X258990638Y-13793845D02*
X259123972Y-13727178D01*
X259190638Y-13660512D01*
X259257305Y-13527178D01*
X259257305Y-13127178D01*
X259190638Y-12993845D01*
X259123972Y-12927178D01*
X258990638Y-12860512D01*
X258790638Y-12860512D01*
X258657305Y-12927178D01*
X258590638Y-12993845D01*
X258523972Y-13127178D01*
X258523972Y-13527178D01*
X258590638Y-13660512D01*
X258657305Y-13727178D01*
X258790638Y-13793845D01*
X258990638Y-13793845D01*
X257923972Y-12860512D02*
X257923972Y-13793845D01*
X257923972Y-12993845D02*
X257857305Y-12927178D01*
X257723972Y-12860512D01*
X257523972Y-12860512D01*
X257390638Y-12927178D01*
X257323972Y-13060512D01*
X257323972Y-13793845D01*
X255190638Y-14327178D02*
X255257305Y-14260512D01*
X255390638Y-14060512D01*
X255457305Y-13927178D01*
X255523972Y-13727178D01*
X255590638Y-13393845D01*
X255590638Y-13127178D01*
X255523972Y-12793845D01*
X255457305Y-12593845D01*
X255390638Y-12460512D01*
X255257305Y-12260512D01*
X255190638Y-12193845D01*
X254657305Y-13793845D02*
X254657305Y-12393845D01*
X254190638Y-13393845D01*
X253723972Y-12393845D01*
X253723972Y-13793845D01*
X252523972Y-13727178D02*
X252657305Y-13793845D01*
X252923972Y-13793845D01*
X253057305Y-13727178D01*
X253123972Y-13593845D01*
X253123972Y-13060512D01*
X253057305Y-12927178D01*
X252923972Y-12860512D01*
X252657305Y-12860512D01*
X252523972Y-12927178D01*
X252457305Y-13060512D01*
X252457305Y-13193845D01*
X253123972Y-13327178D01*
X252057305Y-12860512D02*
X251523972Y-12860512D01*
X251857305Y-12393845D02*
X251857305Y-13593845D01*
X251790638Y-13727178D01*
X251657305Y-13793845D01*
X251523972Y-13793845D01*
X250457305Y-13793845D02*
X250457305Y-13060512D01*
X250523972Y-12927178D01*
X250657305Y-12860512D01*
X250923972Y-12860512D01*
X251057305Y-12927178D01*
X250457305Y-13727178D02*
X250590638Y-13793845D01*
X250923972Y-13793845D01*
X251057305Y-13727178D01*
X251123972Y-13593845D01*
X251123972Y-13460512D01*
X251057305Y-13327178D01*
X250923972Y-13260512D01*
X250590638Y-13260512D01*
X250457305Y-13193845D01*
X249590638Y-13793845D02*
X249723972Y-13727178D01*
X249790638Y-13593845D01*
X249790638Y-12393845D01*
X248190638Y-12393845D02*
X247723972Y-13793845D01*
X247257305Y-12393845D01*
X246257305Y-13727178D02*
X246390638Y-13793845D01*
X246657305Y-13793845D01*
X246790638Y-13727178D01*
X246857305Y-13593845D01*
X246857305Y-13060512D01*
X246790638Y-12927178D01*
X246657305Y-12860512D01*
X246390638Y-12860512D01*
X246257305Y-12927178D01*
X246190638Y-13060512D01*
X246190638Y-13193845D01*
X246857305Y-13327178D01*
X245590638Y-13793845D02*
X245590638Y-12860512D01*
X245590638Y-13127178D02*
X245523972Y-12993845D01*
X245457305Y-12927178D01*
X245323972Y-12860512D01*
X245190638Y-12860512D01*
X244790638Y-13727178D02*
X244657305Y-13793845D01*
X244390638Y-13793845D01*
X244257305Y-13727178D01*
X244190638Y-13593845D01*
X244190638Y-13527178D01*
X244257305Y-13393845D01*
X244390638Y-13327178D01*
X244590638Y-13327178D01*
X244723972Y-13260512D01*
X244790638Y-13127178D01*
X244790638Y-13060512D01*
X244723972Y-12927178D01*
X244590638Y-12860512D01*
X244390638Y-12860512D01*
X244257305Y-12927178D01*
X243590638Y-13793845D02*
X243590638Y-12860512D01*
X243590638Y-12393845D02*
X243657305Y-12460512D01*
X243590638Y-12527178D01*
X243523972Y-12460512D01*
X243590638Y-12393845D01*
X243590638Y-12527178D01*
X242723972Y-13793845D02*
X242857305Y-13727178D01*
X242923972Y-13660512D01*
X242990638Y-13527178D01*
X242990638Y-13127178D01*
X242923972Y-12993845D01*
X242857305Y-12927178D01*
X242723972Y-12860512D01*
X242523972Y-12860512D01*
X242390638Y-12927178D01*
X242323972Y-12993845D01*
X242257305Y-13127178D01*
X242257305Y-13527178D01*
X242323972Y-13660512D01*
X242390638Y-13727178D01*
X242523972Y-13793845D01*
X242723972Y-13793845D01*
X241657305Y-12860512D02*
X241657305Y-13793845D01*
X241657305Y-12993845D02*
X241590638Y-12927178D01*
X241457305Y-12860512D01*
X241257305Y-12860512D01*
X241123972Y-12927178D01*
X241057305Y-13060512D01*
X241057305Y-13793845D01*
X240523972Y-14327178D02*
X240457305Y-14260512D01*
X240323972Y-14060512D01*
X240257305Y-13927178D01*
X240190638Y-13727178D01*
X240123972Y-13393845D01*
X240123972Y-13127178D01*
X240190638Y-12793845D01*
X240257305Y-12593845D01*
X240323972Y-12460512D01*
X240457305Y-12260512D01*
X240523972Y-12193845D01*
X238390638Y-13260512D02*
X237323972Y-13260512D01*
X235657305Y-13393845D02*
X234990638Y-13393845D01*
X235790638Y-13793845D02*
X235323972Y-12393845D01*
X234857305Y-13793845D01*
X234390638Y-13793845D02*
X234390638Y-12393845D01*
X233590638Y-13793845D01*
X233590638Y-12393845D01*
X232990638Y-13727178D02*
X232790638Y-13793845D01*
X232457305Y-13793845D01*
X232323972Y-13727178D01*
X232257305Y-13660512D01*
X232190638Y-13527178D01*
X232190638Y-13393845D01*
X232257305Y-13260512D01*
X232323972Y-13193845D01*
X232457305Y-13127178D01*
X232723972Y-13060512D01*
X232857305Y-12993845D01*
X232923972Y-12927178D01*
X232990638Y-12793845D01*
X232990638Y-12660512D01*
X232923972Y-12527178D01*
X232857305Y-12460512D01*
X232723972Y-12393845D01*
X232390638Y-12393845D01*
X232190638Y-12460512D01*
X231590638Y-13793845D02*
X231590638Y-12393845D01*
X229857305Y-13793845D02*
X229857305Y-12393845D01*
X229857305Y-13060512D02*
X229057305Y-13060512D01*
X229057305Y-13793845D02*
X229057305Y-12393845D01*
X228190638Y-13793845D02*
X228323972Y-13727178D01*
X228390638Y-13660512D01*
X228457305Y-13527178D01*
X228457305Y-13127178D01*
X228390638Y-12993845D01*
X228323972Y-12927178D01*
X228190638Y-12860512D01*
X227990638Y-12860512D01*
X227857305Y-12927178D01*
X227790638Y-12993845D01*
X227723972Y-13127178D01*
X227723972Y-13527178D01*
X227790638Y-13660512D01*
X227857305Y-13727178D01*
X227990638Y-13793845D01*
X228190638Y-13793845D01*
X227323972Y-12860512D02*
X226790638Y-12860512D01*
X227123972Y-12393845D02*
X227123972Y-13593845D01*
X227057305Y-13727178D01*
X226923972Y-13793845D01*
X226790638Y-13793845D01*
X226390638Y-13727178D02*
X226257305Y-13793845D01*
X225990638Y-13793845D01*
X225857305Y-13727178D01*
X225790638Y-13593845D01*
X225790638Y-13527178D01*
X225857305Y-13393845D01*
X225990638Y-13327178D01*
X226190638Y-13327178D01*
X226323972Y-13260512D01*
X226390638Y-13127178D01*
X226390638Y-13060512D01*
X226323972Y-12927178D01*
X226190638Y-12860512D01*
X225990638Y-12860512D01*
X225857305Y-12927178D01*
X225323972Y-12860512D02*
X225057305Y-13793845D01*
X224790638Y-13127178D01*
X224523972Y-13793845D01*
X224257305Y-12860512D01*
X223123972Y-13793845D02*
X223123972Y-13060512D01*
X223190638Y-12927178D01*
X223323972Y-12860512D01*
X223590638Y-12860512D01*
X223723972Y-12927178D01*
X223123972Y-13727178D02*
X223257305Y-13793845D01*
X223590638Y-13793845D01*
X223723972Y-13727178D01*
X223790638Y-13593845D01*
X223790638Y-13460512D01*
X223723972Y-13327178D01*
X223590638Y-13260512D01*
X223257305Y-13260512D01*
X223123972Y-13193845D01*
X222457305Y-12860512D02*
X222457305Y-14260512D01*
X222457305Y-12927178D02*
X222323972Y-12860512D01*
X222057305Y-12860512D01*
X221923972Y-12927178D01*
X221857305Y-12993845D01*
X221790638Y-13127178D01*
X221790638Y-13527178D01*
X221857305Y-13660512D01*
X221923972Y-13727178D01*
X222057305Y-13793845D01*
X222323972Y-13793845D01*
X222457305Y-13727178D01*
X220123972Y-13793845D02*
X220123972Y-12393845D01*
X219590638Y-12393845D01*
X219457305Y-12460512D01*
X219390638Y-12527178D01*
X219323972Y-12660512D01*
X219323972Y-12860512D01*
X219390638Y-12993845D01*
X219457305Y-13060512D01*
X219590638Y-13127178D01*
X220123972Y-13127178D01*
X218523972Y-13793845D02*
X218657305Y-13727178D01*
X218723972Y-13593845D01*
X218723972Y-12393845D01*
X217390638Y-13793845D02*
X217390638Y-13060512D01*
X217457305Y-12927178D01*
X217590638Y-12860512D01*
X217857305Y-12860512D01*
X217990638Y-12927178D01*
X217390638Y-13727178D02*
X217523972Y-13793845D01*
X217857305Y-13793845D01*
X217990638Y-13727178D01*
X218057305Y-13593845D01*
X218057305Y-13460512D01*
X217990638Y-13327178D01*
X217857305Y-13260512D01*
X217523972Y-13260512D01*
X217390638Y-13193845D01*
X216923972Y-12860512D02*
X216390638Y-12860512D01*
X216723972Y-12393845D02*
X216723972Y-13593845D01*
X216657305Y-13727178D01*
X216523972Y-13793845D01*
X216390638Y-13793845D01*
X215390638Y-13727178D02*
X215523972Y-13793845D01*
X215790638Y-13793845D01*
X215923972Y-13727178D01*
X215990638Y-13593845D01*
X215990638Y-13060512D01*
X215923972Y-12927178D01*
X215790638Y-12860512D01*
X215523972Y-12860512D01*
X215390638Y-12927178D01*
X215323972Y-13060512D01*
X215323972Y-13193845D01*
X215990638Y-13327178D01*
X213857305Y-12393845D02*
X213390638Y-13793845D01*
X212923972Y-12393845D01*
X212190638Y-12393845D02*
X212057305Y-12393845D01*
X211923972Y-12460512D01*
X211857305Y-12527178D01*
X211790638Y-12660512D01*
X211723972Y-12927178D01*
X211723972Y-13260512D01*
X211790638Y-13527178D01*
X211857305Y-13660512D01*
X211923972Y-13727178D01*
X212057305Y-13793845D01*
X212190638Y-13793845D01*
X212323972Y-13727178D01*
X212390638Y-13660512D01*
X212457305Y-13527178D01*
X212523972Y-13260512D01*
X212523972Y-12927178D01*
X212457305Y-12660512D01*
X212390638Y-12527178D01*
X212323972Y-12460512D01*
X212190638Y-12393845D01*
X211123972Y-13660512D02*
X211057305Y-13727178D01*
X211123972Y-13793845D01*
X211190638Y-13727178D01*
X211123972Y-13660512D01*
X211123972Y-13793845D01*
X209723972Y-13793845D02*
X210523972Y-13793845D01*
X210123972Y-13793845D02*
X210123972Y-12393845D01*
X210257305Y-12593845D01*
X210390638Y-12727178D01*
X210523972Y-12793845D01*
X208057305Y-13260512D02*
X206990638Y-13260512D01*
X205257305Y-13793845D02*
X205257305Y-12393845D01*
X204790638Y-13393845D01*
X204323972Y-12393845D01*
X204323972Y-13793845D01*
X203057305Y-13793845D02*
X203057305Y-13060512D01*
X203123972Y-12927178D01*
X203257305Y-12860512D01*
X203523972Y-12860512D01*
X203657305Y-12927178D01*
X203057305Y-13727178D02*
X203190638Y-13793845D01*
X203523972Y-13793845D01*
X203657305Y-13727178D01*
X203723972Y-13593845D01*
X203723972Y-13460512D01*
X203657305Y-13327178D01*
X203523972Y-13260512D01*
X203190638Y-13260512D01*
X203057305Y-13193845D01*
X202390638Y-13793845D02*
X202390638Y-12860512D01*
X202390638Y-13127178D02*
X202323972Y-12993845D01*
X202257305Y-12927178D01*
X202123972Y-12860512D01*
X201990638Y-12860512D01*
X200923972Y-13727178D02*
X201057305Y-13793845D01*
X201323972Y-13793845D01*
X201457305Y-13727178D01*
X201523972Y-13660512D01*
X201590638Y-13527178D01*
X201590638Y-13127178D01*
X201523972Y-12993845D01*
X201457305Y-12927178D01*
X201323972Y-12860512D01*
X201057305Y-12860512D01*
X200923972Y-12927178D01*
X200323972Y-13793845D02*
X200323972Y-12393845D01*
X199723972Y-13793845D02*
X199723972Y-13060512D01*
X199790638Y-12927178D01*
X199923972Y-12860512D01*
X200123972Y-12860512D01*
X200257305Y-12927178D01*
X200323972Y-12993845D01*
X197390638Y-12860512D02*
X197390638Y-13793845D01*
X197723972Y-12327178D02*
X198057305Y-13327178D01*
X197190638Y-13327178D01*
X196590638Y-13727178D02*
X196590638Y-13793845D01*
X196657305Y-13927178D01*
X196723972Y-13993845D01*
X194990638Y-12527178D02*
X194923972Y-12460512D01*
X194790638Y-12393845D01*
X194457305Y-12393845D01*
X194323972Y-12460512D01*
X194257305Y-12527178D01*
X194190638Y-12660512D01*
X194190638Y-12793845D01*
X194257305Y-12993845D01*
X195057305Y-13793845D01*
X194190638Y-13793845D01*
X193323972Y-12393845D02*
X193190638Y-12393845D01*
X193057305Y-12460512D01*
X192990638Y-12527178D01*
X192923972Y-12660512D01*
X192857305Y-12927178D01*
X192857305Y-13260512D01*
X192923972Y-13527178D01*
X192990638Y-13660512D01*
X193057305Y-13727178D01*
X193190638Y-13793845D01*
X193323972Y-13793845D01*
X193457305Y-13727178D01*
X193523972Y-13660512D01*
X193590638Y-13527178D01*
X193657305Y-13260512D01*
X193657305Y-12927178D01*
X193590638Y-12660512D01*
X193523972Y-12527178D01*
X193457305Y-12460512D01*
X193323972Y-12393845D01*
X192323972Y-12527178D02*
X192257305Y-12460512D01*
X192123972Y-12393845D01*
X191790638Y-12393845D01*
X191657305Y-12460512D01*
X191590638Y-12527178D01*
X191523972Y-12660512D01*
X191523972Y-12793845D01*
X191590638Y-12993845D01*
X192390638Y-13793845D01*
X191523972Y-13793845D01*
X191057305Y-12393845D02*
X190190638Y-12393845D01*
X190657305Y-12927178D01*
X190457305Y-12927178D01*
X190323972Y-12993845D01*
X190257305Y-13060512D01*
X190190638Y-13193845D01*
X190190638Y-13527178D01*
X190257305Y-13660512D01*
X190323972Y-13727178D01*
X190457305Y-13793845D01*
X190857305Y-13793845D01*
X190990638Y-13727178D01*
X191057305Y-13660512D01*
X263790638Y-16047845D02*
X263790638Y-14647845D01*
X263457305Y-14647845D01*
X263257305Y-14714512D01*
X263123972Y-14847845D01*
X263057305Y-14981178D01*
X262990638Y-15247845D01*
X262990638Y-15447845D01*
X263057305Y-15714512D01*
X263123972Y-15847845D01*
X263257305Y-15981178D01*
X263457305Y-16047845D01*
X263790638Y-16047845D01*
X261857305Y-15981178D02*
X261990638Y-16047845D01*
X262257305Y-16047845D01*
X262390638Y-15981178D01*
X262457305Y-15847845D01*
X262457305Y-15314512D01*
X262390638Y-15181178D01*
X262257305Y-15114512D01*
X261990638Y-15114512D01*
X261857305Y-15181178D01*
X261790638Y-15314512D01*
X261790638Y-15447845D01*
X262457305Y-15581178D01*
X261257305Y-15981178D02*
X261123972Y-16047845D01*
X260857305Y-16047845D01*
X260723972Y-15981178D01*
X260657305Y-15847845D01*
X260657305Y-15781178D01*
X260723972Y-15647845D01*
X260857305Y-15581178D01*
X261057305Y-15581178D01*
X261190638Y-15514512D01*
X261257305Y-15381178D01*
X261257305Y-15314512D01*
X261190638Y-15181178D01*
X261057305Y-15114512D01*
X260857305Y-15114512D01*
X260723972Y-15181178D01*
X260057305Y-16047845D02*
X260057305Y-15114512D01*
X260057305Y-14647845D02*
X260123972Y-14714512D01*
X260057305Y-14781178D01*
X259990638Y-14714512D01*
X260057305Y-14647845D01*
X260057305Y-14781178D01*
X258790638Y-15114512D02*
X258790638Y-16247845D01*
X258857305Y-16381178D01*
X258923972Y-16447845D01*
X259057305Y-16514512D01*
X259257305Y-16514512D01*
X259390638Y-16447845D01*
X258790638Y-15981178D02*
X258923972Y-16047845D01*
X259190638Y-16047845D01*
X259323972Y-15981178D01*
X259390638Y-15914512D01*
X259457305Y-15781178D01*
X259457305Y-15381178D01*
X259390638Y-15247845D01*
X259323972Y-15181178D01*
X259190638Y-15114512D01*
X258923972Y-15114512D01*
X258790638Y-15181178D01*
X258123972Y-15114512D02*
X258123972Y-16047845D01*
X258123972Y-15247845D02*
X258057305Y-15181178D01*
X257923972Y-15114512D01*
X257723972Y-15114512D01*
X257590638Y-15181178D01*
X257523972Y-15314512D01*
X257523972Y-16047845D01*
X256323972Y-15981178D02*
X256457305Y-16047845D01*
X256723972Y-16047845D01*
X256857305Y-15981178D01*
X256923972Y-15847845D01*
X256923972Y-15314512D01*
X256857305Y-15181178D01*
X256723972Y-15114512D01*
X256457305Y-15114512D01*
X256323972Y-15181178D01*
X256257305Y-15314512D01*
X256257305Y-15447845D01*
X256923972Y-15581178D01*
X255057305Y-16047845D02*
X255057305Y-14647845D01*
X255057305Y-15981178D02*
X255190638Y-16047845D01*
X255457305Y-16047845D01*
X255590638Y-15981178D01*
X255657305Y-15914512D01*
X255723972Y-15781178D01*
X255723972Y-15381178D01*
X255657305Y-15247845D01*
X255590638Y-15181178D01*
X255457305Y-15114512D01*
X255190638Y-15114512D01*
X255057305Y-15181178D01*
X253323972Y-16047845D02*
X253323972Y-14647845D01*
X253323972Y-15181178D02*
X253190638Y-15114512D01*
X252923972Y-15114512D01*
X252790638Y-15181178D01*
X252723972Y-15247845D01*
X252657305Y-15381178D01*
X252657305Y-15781178D01*
X252723972Y-15914512D01*
X252790638Y-15981178D01*
X252923972Y-16047845D01*
X253190638Y-16047845D01*
X253323972Y-15981178D01*
X252190638Y-15114512D02*
X251857305Y-16047845D01*
X251523972Y-15114512D02*
X251857305Y-16047845D01*
X251990638Y-16381178D01*
X252057305Y-16447845D01*
X252190638Y-16514512D01*
X249923971Y-16047845D02*
X249923971Y-14647845D01*
X249390638Y-14647845D01*
X249257305Y-14714512D01*
X249190638Y-14781178D01*
X249123971Y-14914512D01*
X249123971Y-15114512D01*
X249190638Y-15247845D01*
X249257305Y-15314512D01*
X249390638Y-15381178D01*
X249923971Y-15381178D01*
X248657305Y-15114512D02*
X248323971Y-16047845D01*
X247990638Y-15114512D02*
X248323971Y-16047845D01*
X248457305Y-16381178D01*
X248523971Y-16447845D01*
X248657305Y-16514512D01*
X247257305Y-16047845D02*
X247390638Y-15981178D01*
X247457305Y-15847845D01*
X247457305Y-14647845D01*
X246523971Y-16047845D02*
X246657305Y-15981178D01*
X246723971Y-15914512D01*
X246790638Y-15781178D01*
X246790638Y-15381178D01*
X246723971Y-15247845D01*
X246657305Y-15181178D01*
X246523971Y-15114512D01*
X246323971Y-15114512D01*
X246190638Y-15181178D01*
X246123971Y-15247845D01*
X246057305Y-15381178D01*
X246057305Y-15781178D01*
X246123971Y-15914512D01*
X246190638Y-15981178D01*
X246323971Y-16047845D01*
X246523971Y-16047845D01*
X245457305Y-15114512D02*
X245457305Y-16047845D01*
X245457305Y-15247845D02*
X245390638Y-15181178D01*
X245257305Y-15114512D01*
X245057305Y-15114512D01*
X244923972Y-15181178D01*
X244857305Y-15314512D01*
X244857305Y-16047845D01*
X243123972Y-15514512D02*
X242057305Y-15514512D01*
X240123972Y-16047845D02*
X240257305Y-15981178D01*
X240323972Y-15914512D01*
X240390638Y-15781178D01*
X240390638Y-15381178D01*
X240323972Y-15247845D01*
X240257305Y-15181178D01*
X240123972Y-15114512D01*
X239923972Y-15114512D01*
X239790638Y-15181178D01*
X239723972Y-15247845D01*
X239657305Y-15381178D01*
X239657305Y-15781178D01*
X239723972Y-15914512D01*
X239790638Y-15981178D01*
X239923972Y-16047845D01*
X240123972Y-16047845D01*
X239057305Y-15114512D02*
X239057305Y-16514512D01*
X239057305Y-15181178D02*
X238923972Y-15114512D01*
X238657305Y-15114512D01*
X238523972Y-15181178D01*
X238457305Y-15247845D01*
X238390638Y-15381178D01*
X238390638Y-15781178D01*
X238457305Y-15914512D01*
X238523972Y-15981178D01*
X238657305Y-16047845D01*
X238923972Y-16047845D01*
X239057305Y-15981178D01*
X237257305Y-15981178D02*
X237390638Y-16047845D01*
X237657305Y-16047845D01*
X237790638Y-15981178D01*
X237857305Y-15847845D01*
X237857305Y-15314512D01*
X237790638Y-15181178D01*
X237657305Y-15114512D01*
X237390638Y-15114512D01*
X237257305Y-15181178D01*
X237190638Y-15314512D01*
X237190638Y-15447845D01*
X237857305Y-15581178D01*
X236590638Y-15114512D02*
X236590638Y-16047845D01*
X236590638Y-15247845D02*
X236523972Y-15181178D01*
X236390638Y-15114512D01*
X236190638Y-15114512D01*
X236057305Y-15181178D01*
X235990638Y-15314512D01*
X235990638Y-16047845D01*
X234323972Y-15981178D02*
X234190638Y-16047845D01*
X233923972Y-16047845D01*
X233790638Y-15981178D01*
X233723972Y-15847845D01*
X233723972Y-15781178D01*
X233790638Y-15647845D01*
X233923972Y-15581178D01*
X234123972Y-15581178D01*
X234257305Y-15514512D01*
X234323972Y-15381178D01*
X234323972Y-15314512D01*
X234257305Y-15181178D01*
X234123972Y-15114512D01*
X233923972Y-15114512D01*
X233790638Y-15181178D01*
X232923972Y-16047845D02*
X233057305Y-15981178D01*
X233123972Y-15914512D01*
X233190638Y-15781178D01*
X233190638Y-15381178D01*
X233123972Y-15247845D01*
X233057305Y-15181178D01*
X232923972Y-15114512D01*
X232723972Y-15114512D01*
X232590638Y-15181178D01*
X232523972Y-15247845D01*
X232457305Y-15381178D01*
X232457305Y-15781178D01*
X232523972Y-15914512D01*
X232590638Y-15981178D01*
X232723972Y-16047845D01*
X232923972Y-16047845D01*
X231257305Y-15114512D02*
X231257305Y-16047845D01*
X231857305Y-15114512D02*
X231857305Y-15847845D01*
X231790638Y-15981178D01*
X231657305Y-16047845D01*
X231457305Y-16047845D01*
X231323972Y-15981178D01*
X231257305Y-15914512D01*
X230590638Y-16047845D02*
X230590638Y-15114512D01*
X230590638Y-15381178D02*
X230523972Y-15247845D01*
X230457305Y-15181178D01*
X230323972Y-15114512D01*
X230190638Y-15114512D01*
X229123972Y-15981178D02*
X229257305Y-16047845D01*
X229523972Y-16047845D01*
X229657305Y-15981178D01*
X229723972Y-15914512D01*
X229790638Y-15781178D01*
X229790638Y-15381178D01*
X229723972Y-15247845D01*
X229657305Y-15181178D01*
X229523972Y-15114512D01*
X229257305Y-15114512D01*
X229123972Y-15181178D01*
X227990638Y-15981178D02*
X228123972Y-16047845D01*
X228390638Y-16047845D01*
X228523972Y-15981178D01*
X228590638Y-15847845D01*
X228590638Y-15314512D01*
X228523972Y-15181178D01*
X228390638Y-15114512D01*
X228123972Y-15114512D01*
X227990638Y-15181178D01*
X227923972Y-15314512D01*
X227923972Y-15447845D01*
X228590638Y-15581178D01*
X225657305Y-16047845D02*
X225657305Y-15314512D01*
X225723972Y-15181178D01*
X225857305Y-15114512D01*
X226123972Y-15114512D01*
X226257305Y-15181178D01*
X225657305Y-15981178D02*
X225790638Y-16047845D01*
X226123972Y-16047845D01*
X226257305Y-15981178D01*
X226323972Y-15847845D01*
X226323972Y-15714512D01*
X226257305Y-15581178D01*
X226123972Y-15514512D01*
X225790638Y-15514512D01*
X225657305Y-15447845D01*
X225190638Y-15114512D02*
X224657305Y-15114512D01*
X224990638Y-14647845D02*
X224990638Y-15847845D01*
X224923972Y-15981178D01*
X224790638Y-16047845D01*
X224657305Y-16047845D01*
X223123972Y-16047845D02*
X223123972Y-14647845D01*
X222523972Y-16047845D02*
X222523972Y-15314512D01*
X222590638Y-15181178D01*
X222723972Y-15114512D01*
X222923972Y-15114512D01*
X223057305Y-15181178D01*
X223123972Y-15247845D01*
X222057305Y-15114512D02*
X221523972Y-15114512D01*
X221857305Y-14647845D02*
X221857305Y-15847845D01*
X221790638Y-15981178D01*
X221657305Y-16047845D01*
X221523972Y-16047845D01*
X221257305Y-15114512D02*
X220723972Y-15114512D01*
X221057305Y-14647845D02*
X221057305Y-15847845D01*
X220990638Y-15981178D01*
X220857305Y-16047845D01*
X220723972Y-16047845D01*
X220257305Y-15114512D02*
X220257305Y-16514512D01*
X220257305Y-15181178D02*
X220123972Y-15114512D01*
X219857305Y-15114512D01*
X219723972Y-15181178D01*
X219657305Y-15247845D01*
X219590638Y-15381178D01*
X219590638Y-15781178D01*
X219657305Y-15914512D01*
X219723972Y-15981178D01*
X219857305Y-16047845D01*
X220123972Y-16047845D01*
X220257305Y-15981178D01*
X218990638Y-15914512D02*
X218923972Y-15981178D01*
X218990638Y-16047845D01*
X219057305Y-15981178D01*
X218990638Y-15914512D01*
X218990638Y-16047845D01*
X218990638Y-15181178D02*
X218923972Y-15247845D01*
X218990638Y-15314512D01*
X219057305Y-15247845D01*
X218990638Y-15181178D01*
X218990638Y-15314512D01*
X217323972Y-14581178D02*
X218523972Y-16381178D01*
X215857305Y-14581178D02*
X217057305Y-16381178D01*
X214790638Y-15114512D02*
X214790638Y-16247845D01*
X214857305Y-16381178D01*
X214923972Y-16447845D01*
X215057305Y-16514512D01*
X215257305Y-16514512D01*
X215390638Y-16447845D01*
X214790638Y-15981178D02*
X214923972Y-16047845D01*
X215190638Y-16047845D01*
X215323972Y-15981178D01*
X215390638Y-15914512D01*
X215457305Y-15781178D01*
X215457305Y-15381178D01*
X215390638Y-15247845D01*
X215323972Y-15181178D01*
X215190638Y-15114512D01*
X214923972Y-15114512D01*
X214790638Y-15181178D01*
X214123972Y-16047845D02*
X214123972Y-15114512D01*
X214123972Y-14647845D02*
X214190638Y-14714512D01*
X214123972Y-14781178D01*
X214057305Y-14714512D01*
X214123972Y-14647845D01*
X214123972Y-14781178D01*
X213657305Y-15114512D02*
X213123972Y-15114512D01*
X213457305Y-14647845D02*
X213457305Y-15847845D01*
X213390638Y-15981178D01*
X213257305Y-16047845D01*
X213123972Y-16047845D01*
X212657305Y-16047845D02*
X212657305Y-14647845D01*
X212057305Y-16047845D02*
X212057305Y-15314512D01*
X212123972Y-15181178D01*
X212257305Y-15114512D01*
X212457305Y-15114512D01*
X212590638Y-15181178D01*
X212657305Y-15247845D01*
X210790638Y-15114512D02*
X210790638Y-16047845D01*
X211390638Y-15114512D02*
X211390638Y-15847845D01*
X211323972Y-15981178D01*
X211190638Y-16047845D01*
X210990638Y-16047845D01*
X210857305Y-15981178D01*
X210790638Y-15914512D01*
X210123972Y-16047845D02*
X210123972Y-14647845D01*
X210123972Y-15181178D02*
X209990638Y-15114512D01*
X209723972Y-15114512D01*
X209590638Y-15181178D01*
X209523972Y-15247845D01*
X209457305Y-15381178D01*
X209457305Y-15781178D01*
X209523972Y-15914512D01*
X209590638Y-15981178D01*
X209723972Y-16047845D01*
X209990638Y-16047845D01*
X210123972Y-15981178D01*
X208857305Y-15914512D02*
X208790638Y-15981178D01*
X208857305Y-16047845D01*
X208923972Y-15981178D01*
X208857305Y-15914512D01*
X208857305Y-16047845D01*
X207590638Y-15981178D02*
X207723972Y-16047845D01*
X207990638Y-16047845D01*
X208123972Y-15981178D01*
X208190638Y-15914512D01*
X208257305Y-15781178D01*
X208257305Y-15381178D01*
X208190638Y-15247845D01*
X208123972Y-15181178D01*
X207990638Y-15114512D01*
X207723972Y-15114512D01*
X207590638Y-15181178D01*
X206790638Y-16047845D02*
X206923972Y-15981178D01*
X206990638Y-15914512D01*
X207057305Y-15781178D01*
X207057305Y-15381178D01*
X206990638Y-15247845D01*
X206923972Y-15181178D01*
X206790638Y-15114512D01*
X206590638Y-15114512D01*
X206457305Y-15181178D01*
X206390638Y-15247845D01*
X206323972Y-15381178D01*
X206323972Y-15781178D01*
X206390638Y-15914512D01*
X206457305Y-15981178D01*
X206590638Y-16047845D01*
X206790638Y-16047845D01*
X205723972Y-16047845D02*
X205723972Y-15114512D01*
X205723972Y-15247845D02*
X205657305Y-15181178D01*
X205523972Y-15114512D01*
X205323972Y-15114512D01*
X205190638Y-15181178D01*
X205123972Y-15314512D01*
X205123972Y-16047845D01*
X205123972Y-15314512D02*
X205057305Y-15181178D01*
X204923972Y-15114512D01*
X204723972Y-15114512D01*
X204590638Y-15181178D01*
X204523972Y-15314512D01*
X204523972Y-16047845D01*
X202857305Y-14581178D02*
X204057305Y-16381178D01*
X202390638Y-16047845D02*
X202390638Y-14647845D01*
X202390638Y-15181178D02*
X202257305Y-15114512D01*
X201990638Y-15114512D01*
X201857305Y-15181178D01*
X201790638Y-15247845D01*
X201723972Y-15381178D01*
X201723972Y-15781178D01*
X201790638Y-15914512D01*
X201857305Y-15981178D01*
X201990638Y-16047845D01*
X202257305Y-16047845D01*
X202390638Y-15981178D01*
X200923972Y-16047845D02*
X201057305Y-15981178D01*
X201123972Y-15847845D01*
X201123972Y-14647845D01*
X199790638Y-15114512D02*
X199790638Y-16047845D01*
X200390638Y-15114512D02*
X200390638Y-15847845D01*
X200323972Y-15981178D01*
X200190638Y-16047845D01*
X199990638Y-16047845D01*
X199857305Y-15981178D01*
X199790638Y-15914512D01*
X198590638Y-15981178D02*
X198723972Y-16047845D01*
X198990638Y-16047845D01*
X199123972Y-15981178D01*
X199190638Y-15847845D01*
X199190638Y-15314512D01*
X199123972Y-15181178D01*
X198990638Y-15114512D01*
X198723972Y-15114512D01*
X198590638Y-15181178D01*
X198523972Y-15314512D01*
X198523972Y-15447845D01*
X199190638Y-15581178D01*
X197923972Y-15114512D02*
X197923972Y-16514512D01*
X197923972Y-15181178D02*
X197790638Y-15114512D01*
X197523972Y-15114512D01*
X197390638Y-15181178D01*
X197323972Y-15247845D01*
X197257305Y-15381178D01*
X197257305Y-15781178D01*
X197323972Y-15914512D01*
X197390638Y-15981178D01*
X197523972Y-16047845D01*
X197790638Y-16047845D01*
X197923972Y-15981178D01*
X196790638Y-15114512D02*
X196457305Y-16047845D01*
X196123972Y-15114512D02*
X196457305Y-16047845D01*
X196590638Y-16381178D01*
X196657305Y-16447845D01*
X196790638Y-16514512D01*
X195390638Y-16047845D02*
X195523972Y-15981178D01*
X195590638Y-15847845D01*
X195590638Y-14647845D01*
X194657305Y-16047845D02*
X194790638Y-15981178D01*
X194857305Y-15914512D01*
X194923972Y-15781178D01*
X194923972Y-15381178D01*
X194857305Y-15247845D01*
X194790638Y-15181178D01*
X194657305Y-15114512D01*
X194457305Y-15114512D01*
X194323972Y-15181178D01*
X194257305Y-15247845D01*
X194190638Y-15381178D01*
X194190638Y-15781178D01*
X194257305Y-15914512D01*
X194323972Y-15981178D01*
X194457305Y-16047845D01*
X194657305Y-16047845D01*
X193590638Y-15114512D02*
X193590638Y-16047845D01*
X193590638Y-15247845D02*
X193523972Y-15181178D01*
X193390638Y-15114512D01*
X193190638Y-15114512D01*
X193057305Y-15181178D01*
X192990638Y-15314512D01*
X192990638Y-16047845D01*
X192390638Y-15981178D02*
X192257305Y-16047845D01*
X191990638Y-16047845D01*
X191857305Y-15981178D01*
X191790638Y-15847845D01*
X191790638Y-15781178D01*
X191857305Y-15647845D01*
X191990638Y-15581178D01*
X192190638Y-15581178D01*
X192323972Y-15514512D01*
X192390638Y-15381178D01*
X192390638Y-15314512D01*
X192323972Y-15181178D01*
X192190638Y-15114512D01*
X191990638Y-15114512D01*
X191857305Y-15181178D01*
X190190638Y-14581178D02*
X191390638Y-16381178D01*
X189257305Y-15314512D02*
X189057305Y-15381178D01*
X188990638Y-15447845D01*
X188923972Y-15581178D01*
X188923972Y-15781178D01*
X188990638Y-15914512D01*
X189057305Y-15981178D01*
X189190638Y-16047845D01*
X189723972Y-16047845D01*
X189723972Y-14647845D01*
X189257305Y-14647845D01*
X189123972Y-14714512D01*
X189057305Y-14781178D01*
X188990638Y-14914512D01*
X188990638Y-15047845D01*
X189057305Y-15181178D01*
X189123972Y-15247845D01*
X189257305Y-15314512D01*
X189723972Y-15314512D01*
X188123972Y-16047845D02*
X188257305Y-15981178D01*
X188323972Y-15914512D01*
X188390638Y-15781178D01*
X188390638Y-15381178D01*
X188323972Y-15247845D01*
X188257305Y-15181178D01*
X188123972Y-15114512D01*
X187923972Y-15114512D01*
X187790638Y-15181178D01*
X187723972Y-15247845D01*
X187657305Y-15381178D01*
X187657305Y-15781178D01*
X187723972Y-15914512D01*
X187790638Y-15981178D01*
X187923972Y-16047845D01*
X188123972Y-16047845D01*
X187123972Y-15981178D02*
X186990638Y-16047845D01*
X186723972Y-16047845D01*
X186590638Y-15981178D01*
X186523972Y-15847845D01*
X186523972Y-15781178D01*
X186590638Y-15647845D01*
X186723972Y-15581178D01*
X186923972Y-15581178D01*
X187057305Y-15514512D01*
X187123972Y-15381178D01*
X187123972Y-15314512D01*
X187057305Y-15181178D01*
X186923972Y-15114512D01*
X186723972Y-15114512D01*
X186590638Y-15181178D01*
X186123972Y-15114512D02*
X185590638Y-15114512D01*
X185923972Y-14647845D02*
X185923972Y-15847845D01*
X185857305Y-15981178D01*
X185723972Y-16047845D01*
X185590638Y-16047845D01*
X184923972Y-16047845D02*
X185057305Y-15981178D01*
X185123972Y-15914512D01*
X185190638Y-15781178D01*
X185190638Y-15381178D01*
X185123972Y-15247845D01*
X185057305Y-15181178D01*
X184923972Y-15114512D01*
X184723972Y-15114512D01*
X184590638Y-15181178D01*
X184523972Y-15247845D01*
X184457305Y-15381178D01*
X184457305Y-15781178D01*
X184523972Y-15914512D01*
X184590638Y-15981178D01*
X184723972Y-16047845D01*
X184923972Y-16047845D01*
X183857305Y-15114512D02*
X183857305Y-16047845D01*
X183857305Y-15247845D02*
X183790638Y-15181178D01*
X183657305Y-15114512D01*
X183457305Y-15114512D01*
X183323972Y-15181178D01*
X183257305Y-15314512D01*
X183257305Y-16047845D01*
D11*
X377719047Y-13852380D02*
X377719047Y-14566666D01*
X377766666Y-14709523D01*
X377861904Y-14804761D01*
X378004761Y-14852380D01*
X378100000Y-14852380D01*
X376766666Y-14852380D02*
X377242857Y-14852380D01*
X377242857Y-13852380D01*
X375861904Y-14757142D02*
X375909523Y-14804761D01*
X376052380Y-14852380D01*
X376147619Y-14852380D01*
X376290476Y-14804761D01*
X376385714Y-14709523D01*
X376433333Y-14614285D01*
X376480952Y-14423809D01*
X376480952Y-14280952D01*
X376433333Y-14090476D01*
X376385714Y-13995238D01*
X376290476Y-13900000D01*
X376147619Y-13852380D01*
X376052380Y-13852380D01*
X375909523Y-13900000D01*
X375861904Y-13947619D01*
X375147619Y-13852380D02*
X375147619Y-14566666D01*
X375195238Y-14709523D01*
X375290476Y-14804761D01*
X375433333Y-14852380D01*
X375528571Y-14852380D01*
X374195238Y-14852380D02*
X374671428Y-14852380D01*
X374671428Y-13852380D01*
X373290476Y-14757142D02*
X373338095Y-14804761D01*
X373480952Y-14852380D01*
X373576190Y-14852380D01*
X373719047Y-14804761D01*
X373814285Y-14709523D01*
X373861904Y-14614285D01*
X373909523Y-14423809D01*
X373909523Y-14280952D01*
X373861904Y-14090476D01*
X373814285Y-13995238D01*
X373719047Y-13900000D01*
X373576190Y-13852380D01*
X373480952Y-13852380D01*
X373338095Y-13900000D01*
X373290476Y-13947619D01*
X372576190Y-13852380D02*
X372576190Y-14566666D01*
X372623809Y-14709523D01*
X372719047Y-14804761D01*
X372861904Y-14852380D01*
X372957142Y-14852380D01*
X371623809Y-14852380D02*
X372100000Y-14852380D01*
X372100000Y-13852380D01*
X370719047Y-14757142D02*
X370766666Y-14804761D01*
X370909523Y-14852380D01*
X371004761Y-14852380D01*
X371147619Y-14804761D01*
X371242857Y-14709523D01*
X371290476Y-14614285D01*
X371338095Y-14423809D01*
X371338095Y-14280952D01*
X371290476Y-14090476D01*
X371242857Y-13995238D01*
X371147619Y-13900000D01*
X371004761Y-13852380D01*
X370909523Y-13852380D01*
X370766666Y-13900000D01*
X370719047Y-13947619D01*
X370004761Y-13852380D02*
X370004761Y-14566666D01*
X370052380Y-14709523D01*
X370147619Y-14804761D01*
X370290476Y-14852380D01*
X370385714Y-14852380D01*
X369052380Y-14852380D02*
X369528571Y-14852380D01*
X369528571Y-13852380D01*
X368147619Y-14757142D02*
X368195238Y-14804761D01*
X368338095Y-14852380D01*
X368433333Y-14852380D01*
X368576190Y-14804761D01*
X368671428Y-14709523D01*
X368719047Y-14614285D01*
X368766666Y-14423809D01*
X368766666Y-14280952D01*
X368719047Y-14090476D01*
X368671428Y-13995238D01*
X368576190Y-13900000D01*
X368433333Y-13852380D01*
X368338095Y-13852380D01*
X368195238Y-13900000D01*
X368147619Y-13947619D01*
M02*
