%TF.GenerationSoftware,KiCad,Pcbnew,(6.0.11)*%
%TF.CreationDate,2023-03-05T02:03:33-05:00*%
%TF.ProjectId,FR4-hotswap-ANSI-plate,4652342d-686f-4747-9377-61702d414e53,rev?*%
%TF.SameCoordinates,Original*%
%TF.FileFunction,Legend,Top*%
%TF.FilePolarity,Positive*%
%FSLAX46Y46*%
G04 Gerber Fmt 4.6, Leading zero omitted, Abs format (unit mm)*
G04 Created by KiCad (PCBNEW (6.0.11)) date 2023-03-05 02:03:33*
%MOMM*%
%LPD*%
G01*
G04 APERTURE LIST*
%ADD10C,0.150000*%
%ADD11C,0.200000*%
G04 APERTURE END LIST*
D10*
X126206356Y-111918844D02*
X126801669Y-112514157D01*
X120848539Y-97036019D02*
X122039165Y-97036019D01*
X126206356Y-111918844D02*
X126206356Y-113109470D01*
X126801669Y-112514157D02*
X125611043Y-112514157D01*
X121443852Y-97631332D02*
X120848539Y-97036019D01*
X121443852Y-97631332D02*
X121443852Y-96440706D01*
X126206356Y-113109470D02*
X127992295Y-113109470D01*
X122039165Y-97036019D02*
X121443852Y-97631332D01*
X121443852Y-96440706D02*
X120848539Y-96440706D01*
X125611043Y-112514157D02*
X126206356Y-111918844D01*
X86177752Y-96583638D02*
X86225371Y-96536019D01*
X86320609Y-96488399D01*
X86558704Y-96488399D01*
X86653943Y-96536019D01*
X86701562Y-96583638D01*
X86749181Y-96678876D01*
X86749181Y-96774114D01*
X86701562Y-96916971D01*
X86130133Y-97488399D01*
X86749181Y-97488399D01*
X87177752Y-97393161D02*
X87225371Y-97440780D01*
X87177752Y-97488399D01*
X87130133Y-97440780D01*
X87177752Y-97393161D01*
X87177752Y-97488399D01*
X87558704Y-96488399D02*
X88225371Y-96488399D01*
X87796800Y-97488399D01*
X89082514Y-96488399D02*
X88606324Y-96488399D01*
X88558704Y-96964590D01*
X88606324Y-96916971D01*
X88701562Y-96869352D01*
X88939657Y-96869352D01*
X89034895Y-96916971D01*
X89082514Y-96964590D01*
X89130133Y-97059828D01*
X89130133Y-97297923D01*
X89082514Y-97393161D01*
X89034895Y-97440780D01*
X88939657Y-97488399D01*
X88701562Y-97488399D01*
X88606324Y-97440780D01*
X88558704Y-97393161D01*
X89987276Y-96821733D02*
X89987276Y-97488399D01*
X89558704Y-96821733D02*
X89558704Y-97345542D01*
X89606324Y-97440780D01*
X89701562Y-97488399D01*
X89844419Y-97488399D01*
X89939657Y-97440780D01*
X89987276Y-97393161D01*
X117014906Y-95893086D02*
X116824429Y-95893086D01*
X116729191Y-95940706D01*
X116681572Y-95988325D01*
X116586334Y-96131182D01*
X116538715Y-96321658D01*
X116538715Y-96702610D01*
X116586334Y-96797848D01*
X116633953Y-96845467D01*
X116729191Y-96893086D01*
X116919667Y-96893086D01*
X117014906Y-96845467D01*
X117062525Y-96797848D01*
X117110144Y-96702610D01*
X117110144Y-96464515D01*
X117062525Y-96369277D01*
X117014906Y-96321658D01*
X116919667Y-96274039D01*
X116729191Y-96274039D01*
X116633953Y-96321658D01*
X116586334Y-96369277D01*
X116538715Y-96464515D01*
X117538715Y-96797848D02*
X117586334Y-96845467D01*
X117538715Y-96893086D01*
X117491096Y-96845467D01*
X117538715Y-96797848D01*
X117538715Y-96893086D01*
X117967287Y-95988325D02*
X118014906Y-95940706D01*
X118110144Y-95893086D01*
X118348239Y-95893086D01*
X118443477Y-95940706D01*
X118491096Y-95988325D01*
X118538715Y-96083563D01*
X118538715Y-96178801D01*
X118491096Y-96321658D01*
X117919667Y-96893086D01*
X118538715Y-96893086D01*
X119443477Y-95893086D02*
X118967287Y-95893086D01*
X118919667Y-96369277D01*
X118967287Y-96321658D01*
X119062525Y-96274039D01*
X119300620Y-96274039D01*
X119395858Y-96321658D01*
X119443477Y-96369277D01*
X119491096Y-96464515D01*
X119491096Y-96702610D01*
X119443477Y-96797848D01*
X119395858Y-96845467D01*
X119300620Y-96893086D01*
X119062525Y-96893086D01*
X118967287Y-96845467D01*
X118919667Y-96797848D01*
X120348239Y-96226420D02*
X120348239Y-96893086D01*
X119919667Y-96226420D02*
X119919667Y-96750229D01*
X119967287Y-96845467D01*
X120062525Y-96893086D01*
X120205382Y-96893086D01*
X120300620Y-96845467D01*
X120348239Y-96797848D01*
X157615312Y-96583638D02*
X157662931Y-96536019D01*
X157758169Y-96488399D01*
X157996264Y-96488399D01*
X158091503Y-96536019D01*
X158139122Y-96583638D01*
X158186741Y-96678876D01*
X158186741Y-96774114D01*
X158139122Y-96916971D01*
X157567693Y-97488399D01*
X158186741Y-97488399D01*
X158615312Y-97393161D02*
X158662931Y-97440780D01*
X158615312Y-97488399D01*
X158567693Y-97440780D01*
X158615312Y-97393161D01*
X158615312Y-97488399D01*
X159043884Y-96583638D02*
X159091503Y-96536019D01*
X159186741Y-96488399D01*
X159424836Y-96488399D01*
X159520074Y-96536019D01*
X159567693Y-96583638D01*
X159615312Y-96678876D01*
X159615312Y-96774114D01*
X159567693Y-96916971D01*
X158996264Y-97488399D01*
X159615312Y-97488399D01*
X160520074Y-96488399D02*
X160043884Y-96488399D01*
X159996264Y-96964590D01*
X160043884Y-96916971D01*
X160139122Y-96869352D01*
X160377217Y-96869352D01*
X160472455Y-96916971D01*
X160520074Y-96964590D01*
X160567693Y-97059828D01*
X160567693Y-97297923D01*
X160520074Y-97393161D01*
X160472455Y-97440780D01*
X160377217Y-97488399D01*
X160139122Y-97488399D01*
X160043884Y-97440780D01*
X159996264Y-97393161D01*
X161424836Y-96821733D02*
X161424836Y-97488399D01*
X160996264Y-96821733D02*
X160996264Y-97345542D01*
X161043884Y-97440780D01*
X161139122Y-97488399D01*
X161281979Y-97488399D01*
X161377217Y-97440780D01*
X161424836Y-97393161D01*
D11*
X227157142Y-81402857D02*
X226757142Y-80831428D01*
X226471428Y-81402857D02*
X226471428Y-80202857D01*
X226928571Y-80202857D01*
X227042857Y-80260000D01*
X227100000Y-80317142D01*
X227157142Y-80431428D01*
X227157142Y-80602857D01*
X227100000Y-80717142D01*
X227042857Y-80774285D01*
X226928571Y-80831428D01*
X226471428Y-80831428D01*
X227671428Y-80774285D02*
X228071428Y-80774285D01*
X228242857Y-81402857D02*
X227671428Y-81402857D01*
X227671428Y-80202857D01*
X228242857Y-80202857D01*
X228700000Y-81345714D02*
X228871428Y-81402857D01*
X229157142Y-81402857D01*
X229271428Y-81345714D01*
X229328571Y-81288571D01*
X229385714Y-81174285D01*
X229385714Y-81060000D01*
X229328571Y-80945714D01*
X229271428Y-80888571D01*
X229157142Y-80831428D01*
X228928571Y-80774285D01*
X228814285Y-80717142D01*
X228757142Y-80660000D01*
X228700000Y-80545714D01*
X228700000Y-80431428D01*
X228757142Y-80317142D01*
X228814285Y-80260000D01*
X228928571Y-80202857D01*
X229214285Y-80202857D01*
X229385714Y-80260000D01*
X229900000Y-80774285D02*
X230300000Y-80774285D01*
X230471428Y-81402857D02*
X229900000Y-81402857D01*
X229900000Y-80202857D01*
X230471428Y-80202857D01*
X230814285Y-80202857D02*
X231500000Y-80202857D01*
X231157142Y-81402857D02*
X231157142Y-80202857D01*
D10*
X129016404Y-113561850D02*
X128444975Y-113561850D01*
X128730689Y-113561850D02*
X128730689Y-112561850D01*
X128635451Y-112704708D01*
X128540213Y-112799946D01*
X128444975Y-112847565D01*
X129444975Y-113466612D02*
X129492594Y-113514231D01*
X129444975Y-113561850D01*
X129397356Y-113514231D01*
X129444975Y-113466612D01*
X129444975Y-113561850D01*
X129873547Y-112657089D02*
X129921166Y-112609470D01*
X130016404Y-112561850D01*
X130254499Y-112561850D01*
X130349737Y-112609470D01*
X130397356Y-112657089D01*
X130444975Y-112752327D01*
X130444975Y-112847565D01*
X130397356Y-112990422D01*
X129825927Y-113561850D01*
X130444975Y-113561850D01*
X131349737Y-112561850D02*
X130873547Y-112561850D01*
X130825927Y-113038041D01*
X130873547Y-112990422D01*
X130968785Y-112942803D01*
X131206880Y-112942803D01*
X131302118Y-112990422D01*
X131349737Y-113038041D01*
X131397356Y-113133279D01*
X131397356Y-113371374D01*
X131349737Y-113466612D01*
X131302118Y-113514231D01*
X131206880Y-113561850D01*
X130968785Y-113561850D01*
X130873547Y-113514231D01*
X130825927Y-113466612D01*
X132254499Y-112895184D02*
X132254499Y-113561850D01*
X131825927Y-112895184D02*
X131825927Y-113418993D01*
X131873547Y-113514231D01*
X131968785Y-113561850D01*
X132111642Y-113561850D01*
X132206880Y-113514231D01*
X132254499Y-113466612D01*
M02*
