M48
; DRILL file {KiCad (6.0.2)} date Fri Mar 18 22:22:50 2022
; FORMAT={-:-/ absolute / metric / decimal}
; #@! TF.CreationDate,2022-03-18T22:22:50-04:00
; #@! TF.GenerationSoftware,Kicad,Pcbnew,(6.0.2)
; #@! TF.FileFunction,Plated,1,2,PTH
FMAT,2
METRIC
; #@! TA.AperFunction,Plated,PTH,ViaDrill
T1C0.300
; #@! TA.AperFunction,Plated,PTH,ComponentDrill
T2C0.300
; #@! TA.AperFunction,Plated,PTH,ViaDrill
T3C0.400
; #@! TA.AperFunction,Plated,PTH,ComponentDrill
T4C0.500
; #@! TA.AperFunction,Plated,PTH,ComponentDrill
T5C0.800
; #@! TA.AperFunction,Plated,PTH,ComponentDrill
T6C0.900
; #@! TA.AperFunction,Plated,PTH,ComponentDrill
T7C1.000
; #@! TA.AperFunction,Plated,PTH,ComponentDrill
T8C1.100
; #@! TA.AperFunction,Plated,PTH,ComponentDrill
T9C1.270
; #@! TA.AperFunction,Plated,PTH,ComponentDrill
T10C1.524
; #@! TA.AperFunction,Plated,PTH,ComponentDrill
T11C1.525
; #@! TA.AperFunction,Plated,PTH,ComponentDrill
T12C1.800
; #@! TA.AperFunction,Plated,PTH,ComponentDrill
T13C3.500
%
G90
G05
T1
X68.175Y-169.6
X70.975Y-169.525
X72.4Y-104.125
X74.5Y-30.925
X76.1Y-30.725
X76.5Y-43.725
X77.4Y-43.825
X80.3Y-39.225
X81.05Y-38.475
X83.5Y-78.725
X85.6Y-78.425
X91.975Y-169.45
X99.05Y-169.375
X99.125Y-131.275
X99.2Y-122.525
X100.2Y-120.925
X102.2Y-118.025
X108.675Y-150.35
X110.8Y-120.325
X115.825Y-169.325
X118.125Y-131.35
X127.7Y-150.3
X137.225Y-131.35
X146.725Y-150.35
X149.15Y-169.25
X156.3Y-131.25
X165.8Y-150.25
X170.7Y-103.425
X171.5Y-101.525
X172.7Y-104.325
X175.325Y-131.225
X180.1Y-93.125
X180.2Y-169.725
X182.825Y-169.7
X184.8Y-150.325
X187.25Y-169.375
X194.4Y-131.2
X198.2Y-93.525
X203.9Y-150.325
X213.425Y-131.35
X215.85Y-91.325
X218.2Y-93.2
X220.575Y-169.3
X221.15Y-92.525
X222.925Y-150.35
X232.4Y-131.525
X235.1Y-59.725
X236.58Y-40.435
X236.9Y-59.725
X236.96Y-43.375
X237.25Y-93.175
X239.02Y-47.245
X241.0Y-52.525
X241.2Y-54.925
X241.975Y-150.375
X242.8Y-45.015
X243.23Y-49.955
X243.46Y-47.505
X243.55Y-89.325
X243.8Y-54.525
X243.9Y-52.425
X245.55Y-89.375
X249.3Y-51.425
X249.3Y-52.525
X249.3Y-54.525
X251.3Y-51.425
X251.3Y-54.525
X251.5Y-131.425
X256.3Y-93.225
X256.325Y-169.425
X260.9Y-59.725
X261.05Y-150.325
X261.05Y-169.325
X263.16Y-33.445
X270.6Y-131.25
X275.35Y-169.425
X275.4Y-64.425
X277.142Y-65.958
X279.42Y-64.425
X280.1Y-54.445
X280.1Y-150.3
X280.16Y-53.045
X281.8Y-55.725
X281.9Y-51.425
X282.2Y-65.125
X282.7Y-146.425
X282.7Y-150.725
X282.82Y-90.355
X282.83Y-88.495
X283.59Y-84.935
X283.9Y-53.425
X284.3Y-51.525
X284.6Y-150.825
X284.69Y-90.315
X284.7Y-146.325
X284.9Y-112.15
X285.99Y-89.155
X286.7Y-95.525
X288.4Y-93.225
X289.3Y-71.875
X289.34Y-99.445
X289.37Y-97.805
X289.6Y-169.35
X289.65Y-131.25
X290.77Y-66.695
X290.88Y-102.875
X291.2Y-71.875
X291.26Y-99.395
X291.28Y-97.895
X292.1Y-87.525
X292.35Y-101.545
X292.765Y-138.69
X293.6Y-71.925
X293.72Y-67.535
X294.375Y-169.35
X294.425Y-62.475
X294.5Y-84.425
X294.7Y-148.725
X294.7Y-152.325
X295.5Y-67.425
X296.3Y-148.725
X296.3Y-152.225
X297.4Y-89.425
X297.8Y-77.725
X298.1Y-69.425
X298.2Y-146.125
X299.7Y-71.825
X299.7Y-72.925
X299.7Y-73.925
X299.71Y-75.12
X300.7Y-71.825
X300.7Y-72.925
X300.7Y-73.925
X300.7Y-83.0
X301.43Y-82.245
X301.6Y-97.025
X301.7Y-71.825
X301.7Y-72.925
X301.7Y-73.925
X301.7Y-83.125
X302.4Y-62.925
X302.6Y-86.725
X302.66Y-84.645
X302.8Y-83.725
X303.1Y-70.425
X303.1Y-102.125
X303.43Y-80.685
X303.43Y-83.075
X303.8Y-100.025
X303.875Y-112.1
X304.1Y-71.725
X304.105Y-73.62
X304.12Y-72.645
X304.3Y-103.325
X305.05Y-85.375
X305.24Y-80.815
X305.35Y-82.315
X305.7Y-69.225
X305.993Y-81.532
X306.1Y-89.725
X306.275Y-150.325
X306.4Y-96.525
X306.625Y-131.725
X308.0Y-79.925
X308.2Y-83.525
X308.8Y-97.825
X310.3Y-72.525
X311.0Y-131.675
X311.625Y-62.0
X312.2Y-89.125
X315.1Y-89.125
X315.4Y-65.05
X315.7Y-85.225
X318.2Y-174.175
X320.6Y-131.325
X321.7Y-89.125
X322.2Y-80.925
X323.0Y-72.925
X323.0Y-84.425
X324.7Y-59.925
X324.7Y-63.525
X324.8Y-83.525
X325.4Y-143.925
X326.525Y-115.75
X326.7Y-59.925
X326.7Y-63.525
X326.7Y-67.925
X326.7Y-75.225
X326.75Y-77.225
X327.775Y-112.375
X328.0Y-69.175
X329.7Y-141.625
X330.3Y-62.725
X332.2Y-60.625
X332.55Y-63.875
X333.4Y-74.825
X337.15Y-64.825
X337.25Y-155.175
X337.25Y-174.175
X337.9Y-146.325
X338.2Y-144.225
X338.4Y-142.525
X339.25Y-60.675
X340.35Y-63.875
X340.7Y-140.825
X341.0Y-145.825
X341.7Y-147.525
X344.4Y-140.825
X344.4Y-142.525
X356.3Y-174.175
X356.35Y-64.725
X361.8Y-155.425
X367.6Y-154.825
X367.7Y-152.325
X373.76Y-165.415
X375.375Y-64.6
X375.9Y-169.045
X376.3Y-53.425
X377.8Y-57.125
X378.24Y-164.645
X380.1Y-112.225
X380.15Y-131.275
X380.15Y-150.225
X392.58Y-168.475
X393.48Y-166.255
X399.15Y-112.3
X399.15Y-131.3
X399.175Y-64.6
X399.175Y-150.25
X405.25Y-63.925
X418.175Y-112.2
X418.2Y-131.2
X418.225Y-150.35
X418.3Y-64.65
X423.47Y-126.535
X424.95Y-154.155
X425.75Y-111.925
X428.3Y-110.345
X429.2Y-113.485
X431.075Y-105.85
X433.625Y-115.35
X434.9Y-91.325
T2
X76.0Y-69.775
X76.0Y-70.375
X76.0Y-70.975
X76.6Y-69.775
X76.6Y-70.375
X76.6Y-70.975
X82.2Y-69.775
X82.2Y-70.375
X82.2Y-70.975
X82.8Y-69.775
X82.8Y-70.375
X82.8Y-70.975
X263.8Y-60.9
X263.8Y-61.5
X263.8Y-67.1
X263.8Y-67.7
X264.4Y-60.9
X264.4Y-61.5
X264.4Y-67.1
X264.4Y-67.7
X265.0Y-60.9
X265.0Y-61.5
X265.0Y-67.1
X265.0Y-67.7
T3
X55.7Y-153.825
X56.75Y-166.225
X56.9Y-153.125
X56.9Y-154.425
X58.23Y-92.645
X58.85Y-36.275
X59.11Y-147.935
X59.5Y-152.925
X59.5Y-154.025
X59.79Y-162.155
X60.6Y-153.425
X61.66Y-150.025
X61.88Y-145.635
X63.5Y-93.175
X63.5Y-95.425
X63.6Y-155.925
X63.75Y-48.125
X64.2Y-50.225
X64.3Y-49.075
X64.66Y-33.285
X64.71Y-149.955
X65.56Y-144.935
X65.85Y-64.925
X66.4Y-47.825
X66.55Y-50.075
X66.6Y-49.025
X66.9Y-73.025
X67.4Y-80.225
X68.2Y-131.675
X68.2Y-150.625
X68.8Y-29.025
X68.9Y-92.675
X69.0Y-85.925
X69.0Y-94.925
X69.0Y-115.925
X69.0Y-117.925
X69.5Y-160.425
X69.7Y-35.925
X69.86Y-40.935
X70.0Y-73.025
X70.2Y-54.325
X70.4Y-103.425
X70.5Y-92.825
X70.5Y-94.925
X70.5Y-112.475
X70.6Y-89.025
X71.0Y-82.625
X71.0Y-142.925
X71.0Y-153.425
X71.2Y-68.125
X71.4Y-101.325
X71.715Y-52.234
X71.8Y-55.725
X72.19Y-146.075
X72.2Y-85.725
X72.39Y-148.145
X72.4Y-60.425
X72.5Y-64.125
X72.5Y-116.125
X72.5Y-118.025
X72.9Y-92.825
X72.9Y-131.575
X73.0Y-49.025
X73.0Y-94.925
X73.1Y-44.025
X73.1Y-50.325
X73.2Y-47.725
X73.4Y-54.125
X73.4Y-83.625
X73.5Y-89.025
X73.6Y-108.225
X73.62Y-67.474
X73.9Y-111.925
X73.9Y-121.125
X74.1Y-29.025
X74.8Y-60.425
X74.8Y-64.125
X74.8Y-67.325
X74.8Y-104.225
X74.9Y-102.125
X75.0Y-86.425
X75.2Y-117.925
X75.3Y-116.025
X75.9Y-47.825
X76.0Y-49.025
X76.1Y-46.525
X76.1Y-72.325
X76.1Y-108.125
X76.1Y-111.925
X76.6Y-50.025
X76.72Y-155.995
X76.9Y-79.925
X77.2Y-121.325
X77.4Y-48.025
X77.6Y-129.025
X77.7Y-150.525
X77.8Y-54.025
X77.8Y-60.425
X77.8Y-64.025
X77.9Y-50.225
X77.9Y-93.625
X78.9Y-54.625
X78.9Y-59.925
X78.9Y-64.425
X79.0Y-153.725
X79.1Y-137.425
X79.2Y-131.525
X79.2Y-141.125
X79.3Y-126.525
X79.8Y-156.225
X79.9Y-64.025
X80.0Y-48.225
X80.0Y-50.325
X80.0Y-54.025
X80.0Y-60.425
X80.1Y-145.925
X80.5Y-164.925
X80.5Y-169.425
X80.8Y-46.025
X80.9Y-149.625
X81.039Y-61.686
X81.4Y-58.425
X81.5Y-60.525
X81.6Y-127.625
X81.6Y-131.525
X81.7Y-137.425
X81.9Y-65.725
X81.9Y-66.725
X81.939Y-61.686
X82.8Y-145.925
X82.9Y-149.625
X83.1Y-66.225
X83.2Y-64.025
X83.2Y-73.625
X84.0Y-105.425
X84.0Y-113.425
X84.0Y-121.425
X84.9Y-93.525
X85.0Y-153.725
X85.05Y-69.33
X85.1Y-67.425
X85.23Y-38.605
X85.9Y-73.725
X85.9Y-82.925
X86.0Y-49.635
X86.025Y-35.05
X86.3Y-28.825
X86.4Y-42.525
X87.78Y-43.945
X87.99Y-33.445
X88.7Y-101.225
X88.8Y-99.025
X89.2Y-48.425
X89.2Y-49.425
X89.29Y-43.935
X90.1Y-123.625
X90.1Y-127.625
X90.1Y-131.625
X91.0Y-81.025
X91.0Y-83.925
X91.7Y-47.825
X92.0Y-146.125
X92.3Y-150.925
X92.4Y-123.725
X92.4Y-127.625
X92.4Y-131.525
X92.5Y-82.425
X92.7Y-47.825
X92.7Y-120.225
X92.9Y-158.125
X93.0Y-118.125
X93.3Y-67.425
X93.4Y-88.875
X93.4Y-136.025
X93.5Y-93.125
X93.5Y-94.925
X93.5Y-154.725
X93.9Y-103.525
X94.35Y-64.975
X94.4Y-112.625
X94.45Y-42.975
X95.1Y-133.425
X95.2Y-53.825
X95.2Y-137.725
X95.595Y-69.33
X95.6Y-93.125
X95.6Y-94.925
X95.6Y-102.125
X95.7Y-88.825
X95.8Y-51.625
X95.9Y-154.625
X96.0Y-156.825
X96.1Y-146.125
X96.2Y-135.325
X96.2Y-149.825
X96.4Y-47.725
X96.5Y-104.225
X96.7Y-37.725
X96.9Y-74.325
X96.981Y-66.021
X97.2Y-67.425
X97.3Y-43.025
X97.5Y-60.325
X97.5Y-63.925
X97.6Y-121.125
X98.6Y-51.625
X98.6Y-56.925
X98.6Y-146.125
X98.6Y-149.825
X98.7Y-54.925
X98.9Y-37.825
X99.3Y-43.825
X99.4Y-47.825
X99.6Y-60.325
X99.6Y-63.925
X100.0Y-100.025
X100.1Y-103.025
X100.6Y-108.025
X100.7Y-111.825
X101.3Y-153.725
X101.4Y-123.325
X101.5Y-79.425
X101.5Y-82.425
X101.5Y-101.525
X103.1Y-108.025
X103.5Y-32.625
X103.5Y-34.825
X103.8Y-120.825
X103.85Y-93.325
X103.9Y-111.725
X104.0Y-66.425
X104.0Y-134.425
X104.6Y-106.425
X104.7Y-81.625
X106.0Y-57.625
X106.0Y-145.425
X106.0Y-155.425
X106.0Y-159.425
X106.0Y-163.425
X106.0Y-169.925
X106.5Y-136.425
X106.5Y-139.925
X107.4Y-124.625
X107.5Y-98.425
X107.5Y-101.425
X108.0Y-117.425
X108.3Y-72.725
X108.4Y-85.125
X108.6Y-130.525
X108.7Y-126.825
X109.0Y-97.425
X109.1Y-80.925
X109.4Y-138.525
X110.0Y-83.725
X110.8Y-73.825
X111.0Y-130.525
X111.1Y-126.825
X111.1Y-137.025
X111.1Y-142.625
X111.785Y-69.33
X112.1Y-118.125
X112.35Y-89.175
X112.5Y-156.925
X112.8Y-86.225
X112.8Y-103.425
X113.3Y-112.625
X113.4Y-45.775
X113.4Y-64.825
X113.5Y-55.625
X113.5Y-93.025
X113.5Y-94.825
X113.5Y-140.325
X114.2Y-101.625
X114.2Y-155.625
X114.4Y-158.825
X114.75Y-146.175
X114.9Y-51.625
X114.95Y-149.825
X115.0Y-141.825
X115.1Y-138.825
X115.415Y-69.33
X115.55Y-89.125
X115.7Y-93.025
X115.7Y-94.825
X116.0Y-117.425
X116.0Y-157.125
X116.4Y-42.925
X116.4Y-60.425
X116.5Y-47.925
X116.5Y-64.025
X116.6Y-121.025
X116.6Y-140.325
X116.672Y-66.332
X116.8Y-104.525
X117.0Y-79.425
X117.0Y-82.425
X117.05Y-149.725
X117.15Y-146.175
X117.5Y-51.725
X117.5Y-55.025
X117.6Y-57.125
X117.7Y-118.925
X117.9Y-66.825
X118.5Y-43.825
X118.6Y-47.825
X118.7Y-60.425
X118.7Y-64.025
X119.0Y-101.425
X119.0Y-168.425
X119.1Y-165.425
X119.7Y-108.125
X119.7Y-111.725
X119.8Y-118.125
X120.4Y-123.325
X121.0Y-74.125
X121.0Y-103.425
X122.0Y-108.125
X122.0Y-111.725
X122.1Y-118.125
X123.0Y-93.475
X123.0Y-97.425
X124.0Y-66.425
X124.6Y-80.025
X124.8Y-106.825
X126.0Y-115.425
X126.0Y-134.425
X126.0Y-140.425
X126.24Y-121.055
X126.4Y-85.425
X126.9Y-80.025
X127.5Y-127.125
X127.7Y-130.625
X127.8Y-82.325
X128.3Y-74.125
X128.5Y-138.625
X129.3Y-83.925
X129.8Y-130.725
X129.9Y-127.125
X130.7Y-120.225
X130.8Y-88.825
X131.0Y-157.225
X131.4Y-163.725
X131.5Y-168.925
X131.8Y-74.725
X131.9Y-140.425
X132.1Y-118.125
X132.2Y-92.425
X132.2Y-94.325
X132.3Y-45.825
X132.35Y-64.925
X132.4Y-112.525
X133.1Y-100.625
X133.3Y-53.025
X133.525Y-69.33
X134.3Y-88.725
X134.4Y-92.425
X134.4Y-94.325
X134.6Y-30.225
X135.1Y-149.725
X135.2Y-141.525
X135.2Y-146.225
X135.5Y-47.725
X135.9Y-43.725
X136.0Y-122.425
X136.1Y-118.825
X136.42Y-66.445
X136.785Y-69.33
X137.2Y-57.025
X137.5Y-53.925
X138.0Y-43.925
X138.0Y-116.425
X138.1Y-47.725
X138.1Y-121.025
X138.5Y-100.125
X138.5Y-103.125
X138.8Y-60.625
X138.8Y-63.625
X139.0Y-55.525
X139.0Y-134.425
X139.0Y-144.425
X139.0Y-152.425
X139.3Y-123.225
X139.48Y-66.485
X140.0Y-64.4
X140.0Y-74.525
X140.0Y-101.625
X140.7Y-108.025
X140.7Y-111.725
X141.15Y-60.675
X141.2Y-63.575
X141.3Y-35.025
X141.4Y-32.725
X141.95Y-93.425
X142.0Y-97.425
X142.3Y-165.125
X142.3Y-168.425
X142.5Y-81.925
X142.9Y-108.025
X143.0Y-111.725
X143.4Y-79.525
X143.6Y-105.825
X144.9Y-85.125
X144.95Y-88.775
X145.0Y-92.375
X146.1Y-94.475
X146.2Y-79.725
X146.9Y-82.225
X147.2Y-88.775
X147.2Y-92.125
X147.3Y-85.025
X147.4Y-141.525
X147.6Y-138.725
X147.8Y-125.425
X147.85Y-96.325
X148.3Y-73.525
X148.5Y-127.225
X148.5Y-130.825
X148.7Y-120.325
X149.15Y-94.275
X150.0Y-116.425
X150.1Y-146.125
X150.5Y-132.625
X150.6Y-127.225
X150.7Y-140.725
X150.8Y-80.125
X150.8Y-82.025
X150.8Y-153.025
X150.8Y-155.225
X150.9Y-74.825
X150.9Y-149.825
X151.0Y-96.325
X151.3Y-103.425
X151.3Y-142.825
X151.5Y-45.925
X151.5Y-64.825
X151.5Y-112.525
X152.0Y-118.125
X152.1Y-100.625
X152.3Y-53.225
X152.6Y-168.625
X152.745Y-69.33
X152.9Y-146.125
X152.9Y-149.825
X153.0Y-153.025
X153.0Y-155.225
X153.4Y-42.825
X153.6Y-142.025
X153.8Y-104.425
X154.5Y-80.125
X154.5Y-82.025
X154.7Y-121.125
X155.4Y-157.125
X155.6Y-154.125
X155.9Y-56.625
X155.995Y-69.33
X156.2Y-44.125
X156.31Y-65.975
X156.33Y-47.715
X156.4Y-136.825
X157.0Y-54.425
X157.2Y-60.525
X157.2Y-103.425
X157.25Y-63.725
X157.3Y-100.325
X157.3Y-142.925
X157.8Y-118.325
X158.0Y-108.125
X158.0Y-111.625
X158.4Y-47.705
X158.447Y-64.422
X158.5Y-123.325
X158.56Y-51.645
X158.6Y-44.125
X158.8Y-56.325
X158.8Y-102.025
X158.8Y-165.325
X159.4Y-65.825
X159.4Y-125.425
X159.5Y-159.925
X159.5Y-162.525
X159.6Y-139.325
X159.7Y-168.425
X160.0Y-60.425
X160.0Y-111.625
X160.1Y-108.125
X160.2Y-63.825
X161.0Y-93.425
X161.4Y-99.025
X161.6Y-137.125
X161.745Y-69.33
X162.3Y-118.525
X162.4Y-80.325
X162.8Y-121.525
X163.6Y-101.325
X165.2Y-84.825
X165.6Y-80.425
X166.4Y-118.025
X166.4Y-120.325
X166.6Y-138.825
X166.7Y-83.325
X167.5Y-168.925
X167.54Y-130.725
X167.56Y-127.215
X167.6Y-155.825
X167.7Y-163.025
X169.15Y-88.975
X169.56Y-132.465
X169.58Y-127.215
X169.7Y-92.525
X169.8Y-94.325
X170.3Y-142.425
X170.5Y-112.525
X171.0Y-115.425
X171.4Y-140.325
X171.9Y-92.525
X171.9Y-94.325
X172.0Y-88.925
X173.0Y-141.925
X173.3Y-121.025
X174.0Y-146.225
X174.3Y-118.825
X174.5Y-149.825
X174.6Y-107.625
X175.25Y-45.975
X175.25Y-64.775
X175.9Y-100.525
X175.9Y-103.725
X176.2Y-121.025
X176.7Y-146.125
X176.7Y-149.825
X176.8Y-51.625
X177.5Y-102.125
X177.6Y-145.225
X178.0Y-135.425
X178.0Y-155.625
X178.5Y-111.525
X178.6Y-108.125
X179.0Y-44.125
X179.07Y-47.815
X179.4Y-51.625
X179.6Y-153.525
X179.9Y-57.025
X180.0Y-65.725
X180.0Y-97.425
X180.1Y-69.425
X180.5Y-54.225
X180.6Y-108.125
X180.6Y-111.525
X181.05Y-63.925
X181.1Y-155.825
X181.175Y-65.325
X181.3Y-44.125
X181.3Y-47.825
X181.5Y-80.025
X181.7Y-60.675
X182.0Y-55.725
X182.3Y-69.725
X183.2Y-122.425
X183.4Y-88.025
X184.0Y-64.025
X184.1Y-60.675
X184.1Y-155.525
X184.2Y-80.025
X184.4Y-85.125
X184.7Y-140.925
X185.0Y-82.425
X185.6Y-138.825
X186.25Y-89.025
X186.27Y-83.845
X186.3Y-92.825
X186.4Y-94.625
X186.6Y-73.925
X186.6Y-127.225
X186.6Y-130.725
X186.8Y-120.325
X187.48Y-153.375
X187.5Y-155.525
X188.5Y-89.025
X188.5Y-92.825
X188.5Y-94.625
X188.6Y-127.225
X188.7Y-132.825
X188.8Y-75.125
X189.0Y-140.525
X189.3Y-103.525
X189.6Y-112.525
X189.8Y-70.625
X190.7Y-102.025
X191.0Y-115.425
X191.7Y-104.225
X192.9Y-70.825
X193.3Y-121.025
X193.4Y-145.025
X193.9Y-149.825
X194.095Y-68.005
X194.3Y-45.975
X194.3Y-64.925
X194.4Y-118.925
X195.0Y-97.425
X195.9Y-100.025
X195.9Y-103.225
X196.0Y-135.425
X196.8Y-47.725
X197.41Y-101.675
X197.6Y-43.425
X197.6Y-118.025
X198.4Y-121.525
X198.4Y-163.225
X198.44Y-108.145
X198.44Y-111.615
X198.5Y-54.625
X198.5Y-168.925
X198.8Y-155.525
X199.1Y-119.625
X199.35Y-64.075
X199.5Y-159.425
X199.55Y-60.675
X199.6Y-47.925
X199.7Y-43.825
X199.9Y-82.225
X200.0Y-53.125
X200.0Y-56.125
X200.5Y-108.125
X200.5Y-111.625
X200.9Y-94.025
X201.2Y-106.425
X201.45Y-64.075
X201.5Y-54.625
X201.7Y-89.125
X201.8Y-123.225
X201.81Y-85.135
X201.85Y-95.775
X202.0Y-130.725
X202.1Y-127.225
X202.61Y-78.365
X203.05Y-60.775
X203.4Y-141.525
X203.6Y-83.125
X203.8Y-32.325
X203.8Y-34.525
X203.88Y-92.655
X203.9Y-94.725
X204.1Y-89.025
X204.1Y-130.725
X204.2Y-75.025
X204.2Y-85.125
X204.2Y-127.225
X204.3Y-70.325
X204.58Y-79.525
X204.6Y-139.725
X204.6Y-165.025
X205.2Y-59.025
X206.2Y-120.225
X206.3Y-168.825
X206.4Y-142.525
X206.464Y-90.261
X206.58Y-76.265
X206.85Y-88.925
X207.0Y-92.675
X207.0Y-115.425
X207.1Y-80.925
X207.2Y-83.525
X207.2Y-145.225
X207.364Y-90.261
X207.75Y-94.625
X208.1Y-75.025
X208.2Y-70.225
X208.26Y-77.535
X208.3Y-121.025
X208.364Y-90.261
X208.6Y-112.425
X208.9Y-103.225
X209.4Y-100.625
X209.55Y-96.475
X209.555Y-91.445
X210.2Y-67.425
X210.4Y-146.225
X210.4Y-149.825
X210.434Y-91.441
X210.7Y-135.625
X210.7Y-140.325
X210.8Y-82.925
X210.864Y-147.411
X211.05Y-89.025
X211.24Y-108.175
X211.25Y-92.675
X211.3Y-91.425
X211.4Y-64.875
X211.4Y-113.325
X211.5Y-159.425
X211.5Y-161.625
X211.7Y-80.925
X211.864Y-147.411
X212.3Y-121.025
X212.775Y-94.45
X213.0Y-70.325
X213.0Y-75.525
X213.0Y-76.825
X213.0Y-78.125
X213.084Y-148.591
X213.2Y-101.825
X213.3Y-104.525
X213.3Y-108.175
X213.3Y-111.625
X213.35Y-45.975
X213.4Y-118.925
X213.51Y-82.765
X213.8Y-55.725
X214.084Y-148.591
X214.2Y-53.225
X214.2Y-75.525
X214.2Y-76.825
X214.2Y-78.125
X214.2Y-149.825
X214.4Y-135.525
X214.4Y-146.125
X214.7Y-139.625
X214.875Y-96.475
X214.9Y-65.075
X215.0Y-79.425
X215.0Y-100.025
X215.1Y-118.325
X215.15Y-48.425
X215.25Y-66.225
X215.4Y-60.525
X215.8Y-42.775
X215.964Y-109.311
X216.1Y-123.925
X216.4Y-66.625
X216.5Y-121.925
X216.52Y-81.865
X216.6Y-101.525
X216.65Y-111.675
X216.7Y-108.125
X216.864Y-109.311
X217.3Y-55.025
X217.3Y-118.325
X217.6Y-57.325
X217.7Y-63.825
X217.764Y-109.311
X217.9Y-44.175
X217.95Y-47.775
X218.4Y-75.025
X218.7Y-69.925
X218.9Y-136.725
X218.989Y-61.686
X219.0Y-110.5
X219.1Y-51.625
X219.1Y-98.725
X219.2Y-47.825
X219.4Y-60.425
X219.41Y-46.615
X219.45Y-63.925
X219.5Y-83.225
X219.5Y-157.125
X219.5Y-159.225
X219.7Y-54.925
X219.884Y-110.491
X219.889Y-61.686
X220.0Y-136.325
X220.0Y-139.425
X220.15Y-108.175
X220.15Y-111.625
X220.2Y-101.425
X220.3Y-130.725
X220.41Y-46.615
X220.5Y-85.125
X220.6Y-118.525
X220.7Y-121.925
X220.784Y-110.491
X220.8Y-61.725
X220.8Y-127.225
X220.864Y-128.361
X220.9Y-79.925
X221.69Y-45.21
X221.864Y-128.361
X222.0Y-138.125
X222.1Y-44.025
X222.1Y-62.825
X222.3Y-141.625
X222.715Y-45.21
X223.0Y-51.525
X223.0Y-69.925
X223.084Y-129.541
X223.1Y-74.925
X223.2Y-77.825
X223.25Y-62.825
X223.3Y-60.475
X223.3Y-63.925
X223.35Y-47.775
X223.5Y-84.225
X223.6Y-54.225
X224.0Y-80.625
X224.2Y-130.625
X224.234Y-129.541
X224.3Y-117.825
X224.3Y-120.425
X224.3Y-127.225
X224.35Y-62.825
X224.4Y-63.925
X224.6Y-161.525
X224.8Y-40.225
X224.8Y-159.425
X225.2Y-69.925
X225.2Y-74.925
X225.375Y-146.25
X225.5Y-78.625
X225.6Y-82.325
X225.75Y-150.65
X226.0Y-92.825
X226.0Y-94.825
X226.14Y-89.115
X226.9Y-46.075
X227.5Y-82.025
X227.5Y-142.725
X227.6Y-112.525
X227.6Y-139.425
X227.925Y-146.2
X227.95Y-149.8
X228.0Y-115.425
X228.0Y-134.425
X228.1Y-48.525
X228.36Y-89.125
X228.4Y-92.825
X228.55Y-94.875
X229.2Y-78.625
X229.5Y-51.525
X230.4Y-47.325
X231.15Y-65.125
X231.6Y-144.825
X232.1Y-102.025
X232.2Y-80.525
X232.5Y-45.725
X232.7Y-55.725
X232.8Y-51.525
X232.85Y-48.725
X232.9Y-122.425
X233.3Y-119.825
X233.495Y-49.63
X234.0Y-99.925
X234.0Y-102.925
X234.2Y-65.125
X234.3Y-50.625
X234.7Y-131.825
X234.8Y-127.225
X235.05Y-61.775
X235.2Y-159.325
X235.2Y-161.525
X235.4Y-50.825
X235.5Y-101.525
X236.18Y-61.315
X236.3Y-121.725
X236.4Y-108.125
X236.4Y-111.625
X236.48Y-67.635
X236.7Y-54.725
X236.8Y-127.225
X236.887Y-65.812
X236.9Y-123.825
X236.9Y-130.725
X237.1Y-56.825
X237.11Y-47.605
X237.2Y-61.895
X237.9Y-34.325
X238.1Y-65.705
X238.2Y-53.525
X238.4Y-35.425
X238.5Y-80.525
X238.6Y-111.625
X238.7Y-54.8
X238.7Y-69.925
X238.7Y-108.125
X238.8Y-78.525
X238.8Y-106.625
X239.0Y-97.425
X239.55Y-50.225
X239.7Y-85.125
X240.1Y-36.525
X240.5Y-75.025
X241.0Y-134.425
X241.2Y-78.525
X241.6Y-80.525
X241.7Y-69.425
X242.0Y-82.125
X242.9Y-83.825
X243.4Y-93.125
X243.4Y-94.925
X243.6Y-137.325
X243.88Y-69.425
X243.89Y-75.125
X244.0Y-155.425
X244.0Y-164.425
X244.0Y-168.925
X245.0Y-115.425
X245.0Y-145.925
X245.1Y-141.025
X245.7Y-93.125
X245.7Y-94.825
X246.05Y-31.15
X246.1Y-143.125
X246.6Y-103.225
X246.7Y-112.525
X246.9Y-139.525
X247.5Y-100.925
X248.44Y-65.335
X248.46Y-67.105
X248.5Y-47.825
X248.8Y-141.625
X248.8Y-144.525
X249.1Y-45.025
X249.1Y-48.825
X249.2Y-69.425
X249.3Y-46.925
X249.4Y-104.425
X250.0Y-108.125
X250.2Y-111.725
X250.2Y-117.925
X250.24Y-65.345
X250.25Y-67.115
X250.4Y-61.225
X250.475Y-146.225
X250.975Y-149.8
X251.4Y-45.575
X251.4Y-47.025
X251.4Y-48.825
X251.6Y-102.225
X251.6Y-104.425
X252.4Y-108.025
X252.4Y-111.725
X252.4Y-117.925
X252.7Y-34.725
X252.9Y-48.925
X253.0Y-156.425
X253.2Y-158.525
X253.225Y-149.8
X253.325Y-146.225
X254.5Y-51.625
X255.45Y-54.025
X255.7Y-156.125
X256.1Y-34.825
X256.1Y-121.925
X256.25Y-45.775
X256.3Y-64.925
X257.0Y-97.425
X257.2Y-82.525
X257.4Y-130.725
X257.6Y-51.625
X257.6Y-80.525
X258.0Y-127.025
X258.01Y-48.725
X258.1Y-42.475
X258.3Y-122.825
X258.4Y-119.725
X258.7Y-78.525
X258.8Y-106.425
X259.2Y-65.125
X259.2Y-67.325
X259.7Y-63.825
X259.9Y-121.225
X259.9Y-156.525
X260.4Y-130.825
X260.4Y-140.325
X260.52Y-48.755
X260.6Y-69.325
X260.6Y-126.925
X260.7Y-159.125
X260.9Y-51.625
X260.9Y-84.925
X261.0Y-74.925
X261.1Y-65.125
X261.1Y-80.425
X261.1Y-82.025
X261.2Y-67.325
X261.8Y-33.225
X261.8Y-125.625
X261.9Y-78.525
X261.9Y-138.825
X262.0Y-115.425
X262.0Y-134.425
X263.0Y-82.825
X263.6Y-94.625
X263.8Y-92.825
X263.85Y-89.125
X264.15Y-45.475
X264.35Y-41.775
X265.35Y-46.325
X265.8Y-112.625
X266.0Y-158.425
X266.0Y-169.425
X266.1Y-94.525
X266.15Y-89.125
X266.2Y-92.825
X266.4Y-142.525
X266.75Y-41.825
X266.8Y-45.425
X266.8Y-64.825
X266.82Y-76.955
X266.82Y-78.715
X266.89Y-61.875
X266.9Y-66.725
X266.9Y-139.925
X267.2Y-48.025
X267.625Y-146.25
X267.675Y-149.775
X268.4Y-141.425
X268.96Y-57.335
X269.8Y-149.775
X269.825Y-146.25
X269.9Y-156.225
X270.2Y-144.625
X270.3Y-102.025
X271.4Y-119.725
X271.9Y-158.325
X272.08Y-58.935
X272.3Y-100.025
X272.3Y-103.125
X272.3Y-108.125
X272.3Y-111.725
X272.8Y-34.525
X273.7Y-101.525
X274.0Y-97.425
X274.35Y-78.695
X274.36Y-76.935
X274.4Y-111.625
X274.5Y-108.125
X274.6Y-66.925
X274.6Y-105.625
X274.9Y-84.425
X275.2Y-157.025
X275.35Y-45.875
X275.35Y-93.325
X276.1Y-34.725
X276.1Y-123.625
X276.3Y-121.325
X276.7Y-83.225
X277.06Y-49.545
X277.15Y-42.575
X277.7Y-60.325
X278.1Y-122.525
X278.4Y-74.925
X278.45Y-47.575
X278.7Y-42.925
X278.7Y-159.925
X278.72Y-80.035
X278.96Y-130.745
X278.98Y-127.075
X279.2Y-67.125
X279.2Y-69.325
X279.5Y-49.555
X279.6Y-85.025
X279.7Y-93.105
X279.8Y-35.625
X279.87Y-90.205
X279.89Y-47.215
X279.9Y-95.525
X280.0Y-37.825
X280.04Y-78.805
X280.22Y-81.535
X280.3Y-76.025
X280.4Y-83.225
X280.4Y-141.425
X280.792Y-53.757
X280.9Y-47.755
X280.9Y-60.095
X280.9Y-138.725
X281.08Y-130.745
X281.13Y-127.095
X281.2Y-43.575
X281.5Y-85.275
X281.53Y-80.205
X281.65Y-82.705
X282.26Y-60.175
X282.4Y-92.825
X282.4Y-116.825
X282.5Y-120.925
X282.59Y-85.67
X282.6Y-63.4
X282.75Y-82.825
X282.8Y-135.625
X282.9Y-76.5
X282.91Y-95.535
X282.93Y-131.255
X283.0Y-69.375
X283.3Y-51.225
X283.5Y-67.125
X283.71Y-127.215
X283.89Y-64.335
X284.2Y-118.125
X284.4Y-103.525
X284.4Y-142.225
X284.45Y-43.575
X284.5Y-137.025
X284.6Y-34.725
X284.6Y-47.125
X284.6Y-86.625
X284.64Y-87.885
X284.72Y-134.335
X284.8Y-92.725
X285.0Y-63.925
X285.2Y-156.225
X285.56Y-58.175
X285.7Y-101.125
X286.0Y-97.425
X286.1Y-120.225
X286.3Y-83.825
X286.3Y-93.525
X286.4Y-87.025
X286.5Y-61.4
X286.6Y-47.125
X286.65Y-43.475
X286.7Y-118.125
X286.78Y-136.415
X286.8Y-32.025
X287.2Y-158.325
X287.24Y-66.615
X287.3Y-93.125
X287.5Y-34.725
X287.55Y-62.095
X287.9Y-134.125
X288.15Y-68.075
X288.2Y-108.125
X288.2Y-111.825
X288.2Y-137.625
X288.3Y-83.425
X288.4Y-156.125
X288.45Y-96.075
X288.48Y-115.045
X288.6Y-85.625
X288.68Y-53.62
X288.7Y-67.125
X288.88Y-90.135
X289.1Y-104.225
X289.25Y-115.815
X289.4Y-69.625
X289.4Y-78.125
X289.5Y-32.425
X289.5Y-95.625
X289.5Y-101.325
X289.6Y-136.425
X290.0Y-122.425
X290.2Y-139.725
X290.3Y-108.125
X290.4Y-119.925
X290.475Y-135.35
X290.5Y-157.125
X290.7Y-111.725
X290.8Y-79.525
X290.82Y-115.005
X291.1Y-76.625
X291.15Y-69.925
X291.7Y-102.325
X291.8Y-127.125
X292.32Y-112.425
X292.4Y-77.925
X292.4Y-107.725
X292.4Y-137.525
X292.5Y-81.825
X292.57Y-113.555
X292.9Y-130.825
X293.0Y-104.625
X293.1Y-97.225
X293.48Y-108.135
X293.5Y-160.825
X293.6Y-76.425
X293.9Y-99.025
X293.9Y-121.425
X294.0Y-116.425
X294.1Y-111.825
X294.1Y-123.525
X294.3Y-93.375
X294.35Y-45.775
X294.5Y-139.925
X294.7Y-80.025
X294.75Y-78.625
X294.9Y-130.725
X295.0Y-134.425
X295.1Y-77.425
X295.2Y-82.125
X295.3Y-95.925
X295.3Y-127.025
X295.4Y-119.825
X295.5Y-69.625
X295.6Y-123.025
X296.2Y-51.625
X296.2Y-55.625
X296.6Y-69.675
X296.6Y-97.325
X297.0Y-76.425
X297.0Y-79.925
X297.25Y-66.375
X297.3Y-111.725
X297.6Y-92.175
X297.6Y-108.125
X297.6Y-137.625
X297.8Y-119.3
X297.8Y-120.725
X297.8Y-127.025
X297.8Y-130.925
X297.9Y-159.925
X298.6Y-139.825
X298.6Y-162.025
X298.66Y-67.14
X299.1Y-49.625
X299.2Y-34.825
X299.2Y-64.6
X299.3Y-52.825
X299.4Y-43.825
X299.6Y-161.0
X299.7Y-47.425
X299.8Y-127.025
X299.8Y-130.825
X300.0Y-118.025
X300.0Y-120.425
X300.14Y-35.66
X300.2Y-37.325
X300.2Y-114.225
X300.5Y-63.75
X300.6Y-88.925
X300.6Y-91.175
X300.7Y-51.325
X300.82Y-80.445
X301.2Y-108.025
X301.4Y-63.025
X301.8Y-35.625
X301.8Y-43.825
X301.85Y-47.475
X302.0Y-134.425
X302.414Y-100.114
X302.811Y-52.489
X302.863Y-61.962
X303.0Y-169.425
X303.1Y-66.0
X303.2Y-129.81
X303.4Y-131.025
X303.45Y-89.075
X303.8Y-53.525
X303.8Y-61.075
X304.15Y-51.425
X304.2Y-43.775
X304.25Y-47.425
X304.9Y-60.325
X304.95Y-44.925
X305.0Y-163.425
X305.04Y-86.645
X306.275Y-46.2
X306.3Y-77.425
X306.7Y-139.525
X306.9Y-68.825
X307.2Y-53.525
X307.2Y-108.025
X307.25Y-47.375
X307.35Y-51.475
X307.42Y-77.385
X307.6Y-111.625
X307.9Y-102.625
X308.0Y-157.425
X308.3Y-68.825
X308.3Y-104.725
X308.5Y-142.325
X308.53Y-73.415
X309.2Y-51.325
X309.2Y-146.25
X309.6Y-111.725
X309.6Y-149.825
X309.7Y-108.025
X310.0Y-88.925
X310.18Y-69.485
X310.3Y-121.925
X310.35Y-53.625
X310.6Y-135.825
X310.7Y-142.325
X310.8Y-48.525
X310.9Y-127.125
X311.0Y-139.725
X311.2Y-173.625
X311.3Y-103.7
X311.35Y-172.35
X311.4Y-75.52
X311.5Y-74.425
X311.8Y-146.225
X311.8Y-149.8
X312.05Y-71.955
X312.4Y-173.625
X312.41Y-172.35
X312.5Y-114.925
X312.5Y-121.725
X312.5Y-137.225
X312.67Y-113.2
X312.7Y-54.625
X312.7Y-130.825
X312.775Y-49.4
X313.0Y-48.0
X313.0Y-71.025
X313.0Y-108.125
X313.05Y-50.575
X313.4Y-45.725
X313.4Y-142.325
X313.45Y-93.225
X313.5Y-127.025
X314.0Y-111.725
X314.0Y-169.725
X314.071Y-110.491
X314.1Y-33.825
X314.644Y-101.066
X315.0Y-132.425
X315.2Y-75.425
X315.2Y-169.725
X315.4Y-155.825
X315.425Y-109.625
X315.8Y-102.125
X316.0Y-140.725
X316.1Y-37.825
X316.1Y-79.325
X316.2Y-77.625
X316.3Y-100.025
X316.4Y-71.325
X316.4Y-92.525
X316.6Y-75.325
X316.6Y-108.125
X316.8Y-113.725
X317.2Y-74.225
X317.52Y-91.42
X317.6Y-51.725
X317.6Y-161.125
X317.9Y-72.625
X318.0Y-88.825
X318.0Y-90.125
X318.0Y-134.425
X318.1Y-47.075
X318.2Y-109.925
X318.3Y-35.725
X318.4Y-37.825
X318.6Y-128.725
X318.7Y-165.325
X318.941Y-108.689
X319.1Y-104.325
X319.5Y-55.025
X319.6Y-59.825
X319.7Y-57.025
X319.7Y-114.125
X319.9Y-102.125
X320.0Y-99.825
X320.05Y-95.075
X320.1Y-109.925
X320.1Y-111.125
X320.4Y-72.275
X320.55Y-54.475
X320.6Y-78.625
X320.6Y-144.225
X320.801Y-114.499
X320.9Y-75.575
X321.0Y-68.3
X321.2Y-52.225
X321.2Y-83.225
X321.9Y-168.525
X322.025Y-63.675
X322.2Y-172.225
X322.95Y-93.425
X323.0Y-69.825
X323.1Y-54.925
X323.2Y-32.425
X323.2Y-59.825
X323.3Y-155.825
X324.3Y-75.975
X324.3Y-162.525
X324.4Y-57.625
X324.9Y-89.025
X325.0Y-34.525
X325.6Y-107.625
X325.71Y-64.39
X325.8Y-144.825
X325.8Y-164.025
X326.2Y-32.225
X326.4Y-166.825
X326.5Y-169.625
X326.5Y-172.325
X326.6Y-85.025
X327.4Y-34.525
X327.5Y-139.525
X327.8Y-63.625
X327.8Y-150.925
X328.05Y-95.175
X328.1Y-97.425
X328.1Y-99.525
X328.337Y-62.487
X328.5Y-90.025
X329.2Y-169.625
X329.2Y-172.325
X329.7Y-103.625
X329.9Y-97.425
X330.15Y-90.525
X330.25Y-95.125
X331.4Y-79.025
X331.9Y-99.525
X331.9Y-103.625
X333.7Y-109.725
X334.1Y-125.125
X334.2Y-113.325
X334.3Y-121.725
X334.6Y-99.625
X334.7Y-85.225
X334.7Y-88.925
X335.4Y-163.125
X335.7Y-92.025
X335.7Y-124.325
X335.8Y-107.025
X336.0Y-53.525
X336.4Y-112.825
X336.7Y-36.325
X336.9Y-110.325
X337.0Y-88.825
X337.0Y-114.925
X337.25Y-45.825
X337.3Y-117.525
X337.9Y-162.425
X337.975Y-50.25
X338.0Y-34.325
X338.1Y-53.125
X338.1Y-122.225
X338.9Y-49.225
X338.9Y-51.225
X339.0Y-91.125
X339.0Y-120.125
X339.075Y-151.025
X339.5Y-109.225
X339.5Y-113.525
X339.5Y-115.625
X339.55Y-157.005
X339.7Y-41.325
X339.8Y-88.125
X339.9Y-57.025
X340.0Y-118.025
X340.1Y-133.125
X340.5Y-45.075
X340.9Y-86.4
X340.9Y-166.825
X341.0Y-164.725
X341.1Y-49.125
X341.1Y-51.225
X341.1Y-54.925
X341.1Y-122.225
X341.6Y-97.425
X341.7Y-103.325
X341.7Y-106.525
X341.8Y-99.525
X341.81Y-155.525
X341.93Y-150.905
X342.0Y-89.125
X342.1Y-34.925
X342.1Y-37.725
X342.1Y-85.625
X342.8Y-94.1
X342.8Y-97.1
X342.9Y-41.325
X342.9Y-45.025
X343.4Y-133.025
X343.9Y-99.525
X343.9Y-103.825
X343.9Y-146.7
X344.0Y-94.125
X344.0Y-97.125
X344.0Y-116.825
X344.6Y-145.825
X344.7Y-147.625
X346.2Y-116.525
X346.2Y-170.025
X346.3Y-172.725
X348.1Y-170.025
X348.1Y-172.625
X348.8Y-59.025
X349.2Y-157.225
X350.4Y-160.925
X350.5Y-163.025
X351.2Y-140.725
X351.2Y-142.525
X351.4Y-154.625
X354.0Y-168.825
X354.35Y-41.425
X355.3Y-122.625
X355.8Y-84.425
X356.1Y-36.125
X356.2Y-165.325
X356.25Y-93.375
X356.3Y-45.775
X356.3Y-131.625
X356.4Y-112.525
X356.6Y-103.325
X356.8Y-120.925
X357.1Y-34.025
X357.1Y-100.825
X357.9Y-49.325
X357.9Y-51.425
X357.9Y-80.325
X357.9Y-118.225
X358.0Y-96.725
X358.0Y-156.125
X358.6Y-85.225
X358.6Y-166.325
X358.85Y-89.125
X359.0Y-108.025
X359.0Y-137.425
X359.05Y-41.475
X359.4Y-45.025
X359.4Y-172.225
X359.5Y-92.675
X359.5Y-111.625
X359.9Y-76.425
X360.2Y-49.225
X360.2Y-51.225
X360.7Y-37.825
X360.7Y-104.225
X360.8Y-35.525
X360.8Y-83.125
X360.8Y-101.725
X360.9Y-85.225
X360.9Y-123.325
X361.4Y-54.025
X361.4Y-120.625
X361.5Y-41.325
X361.7Y-45.025
X361.8Y-74.525
X361.8Y-89.025
X361.8Y-92.675
X361.9Y-56.825
X361.9Y-108.025
X361.9Y-111.625
X362.9Y-122.225
X363.2Y-64.075
X363.2Y-76.425
X363.25Y-60.575
X363.3Y-67.425
X363.4Y-71.725
X363.7Y-55.025
X364.4Y-169.925
X364.4Y-172.225
X364.5Y-68.5
X364.6Y-38.225
X364.8Y-74.525
X365.2Y-164.225
X365.6Y-71.625
X365.65Y-64.075
X365.7Y-60.475
X365.7Y-161.725
X365.8Y-67.925
X366.4Y-166.225
X366.65Y-147.925
X366.7Y-138.725
X366.7Y-140.525
X367.0Y-73.425
X367.0Y-78.425
X367.0Y-97.425
X367.0Y-106.425
X367.0Y-116.425
X367.0Y-121.425
X367.0Y-124.425
X368.4Y-159.325
X368.6Y-86.425
X369.6Y-148.825
X370.6Y-138.25
X370.6Y-158.925
X371.3Y-169.925
X371.4Y-172.225
X371.425Y-148.7
X371.6Y-139.325
X371.7Y-127.225
X371.7Y-130.825
X371.7Y-135.925
X371.7Y-152.325
X372.1Y-160.625
X373.9Y-130.725
X373.9Y-136.025
X373.9Y-142.725
X373.9Y-152.325
X373.975Y-148.45
X374.0Y-127.125
X374.0Y-139.325
X375.2Y-45.775
X377.1Y-51.125
X377.6Y-69.225
X377.6Y-136.025
X377.6Y-139.325
X377.85Y-60.525
X378.4Y-49.325
X378.6Y-64.125
X379.7Y-51.125
X379.8Y-65.525
X379.9Y-54.225
X379.9Y-84.425
X380.05Y-93.375
X380.1Y-56.925
X380.15Y-169.725
X380.2Y-141.525
X380.3Y-122.325
X380.4Y-103.325
X380.6Y-35.525
X380.8Y-139.225
X380.9Y-119.825
X380.95Y-60.375
X381.0Y-100.825
X381.1Y-82.725
X381.25Y-63.975
X381.4Y-49.325
X381.7Y-70.825
X381.8Y-74.525
X381.8Y-76.325
X381.8Y-156.425
X382.4Y-37.225
X382.4Y-142.525
X382.45Y-89.125
X382.5Y-34.125
X382.5Y-85.525
X382.55Y-41.475
X382.55Y-45.025
X382.7Y-108.025
X382.8Y-133.925
X383.2Y-111.625
X383.2Y-127.025
X383.2Y-130.725
X383.3Y-92.725
X383.425Y-146.225
X383.8Y-149.725
X383.8Y-152.125
X383.9Y-35.725
X383.9Y-76.325
X384.0Y-74.525
X384.4Y-155.025
X384.5Y-102.125
X384.6Y-104.725
X384.6Y-142.625
X384.7Y-85.225
X384.7Y-123.425
X384.8Y-41.475
X384.8Y-82.225
X384.8Y-120.325
X384.85Y-44.975
X385.2Y-127.125
X385.2Y-130.725
X385.3Y-134.725
X385.4Y-108.025
X385.4Y-111.625
X385.5Y-89.025
X385.5Y-92.675
X385.71Y-138.615
X386.0Y-152.125
X386.1Y-131.525
X386.1Y-146.125
X386.1Y-149.725
X387.0Y-48.425
X387.0Y-54.425
X387.0Y-59.425
X387.0Y-64.425
X387.0Y-127.125
X387.0Y-130.725
X387.4Y-75.425
X387.4Y-80.525
X387.4Y-99.325
X387.5Y-77.725
X387.5Y-82.725
X387.5Y-89.125
X387.5Y-92.625
X387.5Y-102.425
X387.5Y-108.125
X387.5Y-111.625
X387.5Y-118.125
X387.5Y-120.725
X388.125Y-72.45
X389.3Y-80.525
X389.3Y-82.625
X389.3Y-92.625
X389.3Y-101.225
X389.3Y-108.025
X389.3Y-111.525
X389.3Y-118.125
X389.3Y-120.225
X389.4Y-75.825
X389.4Y-77.725
X389.4Y-89.025
X389.4Y-99.125
X389.6Y-169.725
X390.8Y-87.825
X391.3Y-156.225
X391.4Y-154.025
X398.7Y-84.425
X398.8Y-73.225
X399.1Y-55.225
X399.1Y-93.375
X399.15Y-169.725
X399.2Y-45.825
X399.4Y-103.425
X399.5Y-141.525
X399.7Y-36.725
X399.9Y-33.925
X399.98Y-52.905
X400.0Y-101.125
X400.5Y-83.225
X400.6Y-75.225
X400.7Y-66.725
X400.8Y-69.125
X400.8Y-77.325
X400.8Y-118.325
X400.9Y-49.325
X400.9Y-51.125
X400.9Y-137.425
X401.35Y-89.125
X401.4Y-85.325
X401.5Y-104.525
X401.6Y-60.425
X401.6Y-142.725
X401.7Y-108.125
X401.915Y-67.285
X401.95Y-93.625
X402.0Y-41.475
X402.4Y-45.125
X402.5Y-111.525
X403.0Y-49.325
X403.0Y-77.325
X403.1Y-51.325
X403.1Y-72.525
X403.1Y-75.325
X403.15Y-64.025
X403.4Y-54.725
X403.4Y-56.825
X403.5Y-104.425
X403.6Y-36.025
X403.6Y-38.125
X403.6Y-85.125
X403.6Y-142.325
X403.8Y-70.425
X403.8Y-123.725
X403.9Y-81.925
X403.9Y-101.125
X403.9Y-139.125
X404.25Y-89.125
X404.5Y-45.025
X404.5Y-121.125
X404.6Y-41.375
X404.7Y-111.625
X404.9Y-69.025
X404.9Y-160.125
X404.95Y-52.9
X405.1Y-60.575
X405.2Y-140.825
X405.25Y-99.625
X405.25Y-108.025
X405.25Y-130.725
X405.3Y-92.775
X405.35Y-127.275
X405.4Y-102.675
X405.534Y-91.441
X405.6Y-67.425
X405.7Y-154.525
X406.2Y-146.125
X406.2Y-149.825
X406.3Y-111.625
X406.356Y-110.419
X406.4Y-55.025
X406.534Y-91.441
X406.614Y-90.261
X406.7Y-118.775
X406.8Y-121.775
X407.15Y-64.125
X407.2Y-60.425
X407.356Y-110.419
X407.4Y-156.125
X407.45Y-89.075
X407.55Y-130.925
X407.75Y-127.175
X407.786Y-109.239
X408.164Y-90.261
X408.4Y-149.725
X408.75Y-146.125
X409.0Y-92.625
X409.05Y-98.975
X409.05Y-101.275
X409.05Y-107.925
X409.2Y-137.625
X409.2Y-139.725
X409.236Y-109.239
X409.25Y-130.775
X409.445Y-129.58
X410.175Y-128.4
X410.27Y-148.555
X410.445Y-129.58
X410.5Y-40.925
X410.5Y-111.625
X410.55Y-117.875
X410.7Y-120.525
X410.8Y-149.775
X411.2Y-147.375
X411.22Y-148.555
X411.225Y-128.4
X411.7Y-123.525
X411.7Y-127.175
X412.2Y-147.375
X412.9Y-146.175
X412.95Y-132.525
X412.95Y-137.575
X412.95Y-139.725
X413.0Y-50.925
X413.0Y-53.925
X416.6Y-146.225
X417.5Y-54.525
X418.2Y-93.425
X418.25Y-45.775
X418.3Y-141.525
X418.3Y-169.725
X418.4Y-103.425
X418.8Y-139.025
X418.9Y-52.825
X419.0Y-101.125
X419.1Y-82.525
X419.8Y-137.025
X419.9Y-118.225
X420.0Y-116.325
X420.3Y-108.225
X420.5Y-89.175
X420.5Y-94.925
X420.6Y-85.325
X420.8Y-146.025
X420.9Y-60.575
X420.95Y-41.425
X421.0Y-57.025
X421.2Y-127.125
X421.22Y-150.705
X421.4Y-44.975
X421.4Y-64.125
X422.1Y-118.225
X422.1Y-137.025
X422.2Y-102.725
X422.3Y-140.725
X422.5Y-104.925
X422.7Y-83.225
X422.7Y-116.225
X422.7Y-142.925
X422.8Y-89.125
X422.85Y-92.575
X422.9Y-85.325
X423.045Y-110.81
X423.08Y-117.44
X423.1Y-53.625
X423.1Y-56.625
X423.19Y-111.895
X423.2Y-60.575
X423.21Y-108.215
X423.215Y-109.45
X423.35Y-122.645
X423.5Y-67.325
X423.5Y-77.425
X423.6Y-64.125
X423.68Y-150.415
X423.7Y-131.425
X423.7Y-146.025
X424.0Y-41.325
X424.0Y-44.975
X424.0Y-74.925
X424.1Y-69.025
X424.8Y-89.025
X424.8Y-156.025
X424.8Y-161.225
X425.0Y-124.725
X425.3Y-60.525
X425.3Y-67.5
X425.85Y-127.86
X426.07Y-155.765
X426.134Y-91.441
X426.15Y-92.675
X426.2Y-129.125
X426.25Y-107.175
X426.4Y-67.025
X426.509Y-62.866
X426.6Y-77.275
X426.7Y-64.175
X426.7Y-75.225
X426.8Y-45.075
X426.82Y-152.705
X426.85Y-53.475
X426.95Y-51.375
X427.0Y-112.325
X427.009Y-43.816
X427.3Y-149.825
X427.5Y-151.725
X427.6Y-92.675
X427.634Y-91.441
X427.8Y-90.261
X427.859Y-62.866
X427.989Y-42.636
X428.139Y-61.686
X428.159Y-43.816
X428.5Y-41.325
X428.56Y-120.875
X428.6Y-117.215
X428.6Y-156.125
X428.6Y-161.225
X428.8Y-89.025
X428.964Y-90.261
X429.089Y-42.636
X429.239Y-61.686
X429.25Y-60.375
X429.4Y-107.125
X429.59Y-108.26
X430.55Y-64.075
X430.65Y-75.325
X430.65Y-77.275
X430.7Y-52.425
X430.7Y-56.825
X430.75Y-45.025
X430.8Y-54.725
X431.962Y-109.487
X433.1Y-109.225
X433.7Y-112.225
X433.8Y-124.925
X433.8Y-153.425
X434.7Y-112.825
X437.25Y-42.975
X437.25Y-61.875
X439.0Y-93.725
T4
X356.268Y-146.649
X357.037Y-144.793
X357.037Y-148.506
X358.893Y-144.024
X358.893Y-149.274
X360.75Y-144.793
X360.75Y-148.506
X361.518Y-146.649
T5
X314.6Y-71.4
X322.22Y-71.4
X345.08Y-75.6
X352.7Y-75.6
X362.38Y-72.7
X370.0Y-72.7
T6
X64.73Y-63.53
X64.73Y-92.08
X67.111Y-130.18
X67.111Y-149.23
X67.118Y-168.28
X67.27Y-63.53
X67.27Y-92.08
X69.492Y-111.13
X69.651Y-130.18
X69.651Y-149.23
X69.658Y-168.28
X69.658Y-168.28
X71.874Y-130.18
X72.032Y-111.13
X72.198Y-168.28
X74.414Y-130.18
X76.636Y-149.23
X79.176Y-149.23
X83.78Y-92.08
X86.32Y-92.08
X88.542Y-149.23
X90.924Y-168.28
X91.082Y-149.23
X93.305Y-44.455
X93.305Y-63.505
X93.305Y-111.13
X93.464Y-168.28
X95.845Y-44.455
X95.845Y-63.505
X95.845Y-111.13
X98.055Y-168.305
X98.067Y-130.18
X100.595Y-168.305
X100.608Y-130.18
X102.83Y-92.08
X105.37Y-92.08
X107.593Y-149.23
X110.132Y-149.23
X112.355Y-44.455
X112.355Y-63.505
X112.355Y-111.13
X114.743Y-168.28
X114.895Y-44.455
X114.895Y-63.505
X114.895Y-111.13
X117.117Y-130.18
X117.283Y-168.28
X119.657Y-130.18
X121.88Y-92.08
X124.42Y-92.08
X126.642Y-149.23
X129.183Y-149.23
X131.278Y-44.455
X131.405Y-63.505
X131.405Y-111.13
X133.818Y-44.455
X133.945Y-63.505
X133.945Y-111.13
X136.167Y-130.18
X138.707Y-130.18
X140.93Y-92.08
X143.47Y-92.08
X145.692Y-149.23
X148.069Y-168.262
X148.232Y-149.23
X150.455Y-44.455
X150.455Y-63.505
X150.455Y-111.13
X150.609Y-168.262
X152.995Y-44.455
X152.995Y-63.505
X152.995Y-111.13
X155.218Y-130.18
X157.757Y-130.18
X159.98Y-92.08
X162.52Y-92.08
X164.742Y-149.23
X167.282Y-149.23
X169.505Y-111.13
X172.045Y-111.13
X174.267Y-44.455
X174.267Y-63.505
X174.267Y-130.18
X176.808Y-44.455
X176.808Y-63.505
X176.808Y-130.18
X179.03Y-92.08
X179.03Y-168.28
X181.57Y-92.08
X183.792Y-149.23
X183.96Y-168.28
X186.167Y-168.28
X186.332Y-149.23
X188.555Y-111.13
X188.707Y-168.28
X191.095Y-111.13
X193.317Y-44.455
X193.317Y-63.505
X193.317Y-130.18
X195.857Y-44.455
X195.857Y-63.505
X195.857Y-130.18
X198.08Y-92.08
X200.62Y-92.08
X202.843Y-149.23
X205.382Y-149.23
X207.605Y-111.13
X210.145Y-111.13
X212.367Y-44.455
X212.367Y-63.505
X212.367Y-130.18
X214.907Y-44.455
X214.907Y-63.505
X214.907Y-130.18
X217.13Y-92.08
X219.52Y-168.265
X219.67Y-92.08
X221.892Y-149.23
X222.06Y-168.265
X224.432Y-149.23
X226.655Y-111.13
X229.195Y-111.13
X231.417Y-63.505
X231.417Y-130.18
X231.456Y-44.455
X233.957Y-63.505
X233.957Y-130.18
X233.996Y-44.455
X236.18Y-92.08
X238.72Y-92.08
X240.942Y-149.23
X243.482Y-149.23
X245.705Y-111.13
X248.245Y-111.13
X250.468Y-130.18
X253.007Y-130.18
X255.23Y-44.455
X255.23Y-63.505
X255.23Y-92.08
X255.23Y-168.28
X257.77Y-44.455
X257.77Y-63.505
X257.77Y-92.08
X257.77Y-168.28
X259.98Y-168.255
X259.993Y-149.23
X262.52Y-168.255
X262.532Y-149.23
X264.755Y-111.13
X267.295Y-111.13
X269.517Y-130.18
X272.058Y-130.18
X274.28Y-44.455
X274.28Y-63.505
X274.28Y-92.08
X274.28Y-168.28
X276.82Y-44.455
X276.82Y-63.505
X276.82Y-92.08
X276.82Y-168.28
X279.042Y-149.23
X281.582Y-149.23
X283.805Y-111.13
X286.345Y-111.13
X288.555Y-168.28
X288.567Y-130.18
X291.095Y-168.28
X291.107Y-130.18
X293.33Y-44.455
X293.33Y-63.505
X293.33Y-92.08
X293.33Y-168.28
X295.87Y-44.455
X295.87Y-63.505
X295.87Y-92.08
X295.87Y-168.28
X302.855Y-111.13
X305.236Y-149.23
X305.395Y-111.13
X307.618Y-130.18
X307.776Y-149.23
X310.157Y-130.18
X312.375Y-92.062
X312.38Y-44.455
X312.38Y-63.5
X314.915Y-92.062
X314.92Y-44.455
X314.92Y-63.5
X317.142Y-173.042
X319.524Y-130.18
X319.683Y-173.042
X321.905Y-92.08
X322.064Y-130.18
X324.445Y-92.08
X325.239Y-114.305
X325.239Y-116.845
X326.667Y-111.13
X329.207Y-111.13
X331.43Y-92.08
X333.97Y-92.08
X336.192Y-63.5
X336.192Y-72.712
X336.192Y-153.993
X336.192Y-173.042
X336.205Y-44.455
X338.732Y-63.5
X338.732Y-72.712
X338.732Y-153.993
X338.732Y-173.042
X338.745Y-44.455
X355.243Y-44.43
X355.243Y-72.712
X355.243Y-92.08
X355.243Y-111.13
X355.243Y-130.18
X355.243Y-173.042
X355.26Y-63.5
X357.782Y-44.43
X357.782Y-72.712
X357.782Y-92.08
X357.782Y-111.13
X357.782Y-130.18
X357.782Y-173.042
X357.8Y-63.5
X374.292Y-44.48
X374.292Y-63.5
X374.292Y-72.712
X376.832Y-44.48
X376.832Y-63.5
X376.832Y-72.712
X379.055Y-92.08
X379.055Y-111.13
X379.055Y-130.18
X379.055Y-149.23
X379.055Y-168.28
X381.595Y-92.08
X381.595Y-111.13
X381.595Y-130.18
X381.595Y-149.23
X381.595Y-168.28
X388.58Y-168.28
X391.12Y-168.28
X398.105Y-44.48
X398.105Y-63.53
X398.105Y-92.08
X398.105Y-111.13
X398.105Y-130.18
X398.105Y-149.23
X398.105Y-168.28
X400.645Y-44.48
X400.645Y-63.53
X400.645Y-92.08
X400.645Y-111.13
X400.645Y-130.18
X400.645Y-149.23
X400.645Y-168.28
X417.155Y-44.43
X417.155Y-63.53
X417.155Y-92.08
X417.155Y-111.13
X417.155Y-130.18
X417.155Y-149.23
X417.155Y-168.28
X419.695Y-44.43
X419.695Y-63.53
X419.695Y-92.08
X419.695Y-111.13
X419.695Y-130.18
X419.695Y-149.23
X419.695Y-168.28
X432.395Y-104.78
X432.395Y-107.32
X432.395Y-114.305
X432.395Y-116.845
X432.395Y-123.83
X432.395Y-126.37
X432.395Y-152.405
X432.395Y-154.945
X436.205Y-44.43
X436.205Y-63.48
X436.205Y-92.08
X438.745Y-44.43
X438.745Y-63.48
X438.745Y-92.08
T7
X77.745Y-30.95
X80.285Y-30.95
X82.825Y-30.95
X323.71Y-38.0
X323.71Y-40.54
X323.71Y-43.08
X323.71Y-45.62
X323.71Y-48.16
X326.25Y-38.0
X326.25Y-40.54
X326.25Y-43.08
X326.25Y-45.62
X326.25Y-48.16
T8
X292.75Y-140.9
X292.75Y-147.4
X297.25Y-140.9
X297.25Y-147.4
T9
X59.0Y-33.875
X59.0Y-38.875
X73.5Y-33.875
X73.5Y-36.375
X73.5Y-38.875
T10
X64.571Y-122.56
X64.571Y-141.61
X64.571Y-160.66
X66.953Y-103.51
X66.953Y-160.66
X69.334Y-122.56
X70.921Y-120.02
X70.921Y-139.07
X70.921Y-158.12
X73.302Y-100.97
X73.302Y-158.12
X74.096Y-141.61
X75.684Y-120.02
X80.446Y-139.07
X88.384Y-160.66
X94.734Y-158.12
X95.527Y-160.66
X101.877Y-158.12
X112.196Y-160.66
X118.546Y-158.12
X145.534Y-160.66
X151.884Y-158.12
X176.49Y-160.66
X178.871Y-160.66
X182.84Y-158.12
X183.634Y-160.66
X185.221Y-158.12
X189.984Y-158.12
X216.971Y-160.66
X223.321Y-158.12
X257.452Y-160.66
X263.803Y-158.12
X286.027Y-160.66
X292.377Y-158.12
X302.696Y-141.61
X309.046Y-139.07
X316.984Y-122.56
X319.365Y-84.46
X323.334Y-120.02
X324.127Y-103.51
X325.715Y-81.92
X330.477Y-100.97
X332.859Y-111.765
X335.399Y-118.115
X386.04Y-160.66
X392.39Y-158.12
X440.015Y-111.765
X440.015Y-149.865
X442.555Y-118.115
X442.555Y-156.215
T11
X62.19Y-55.885
X62.19Y-84.46
X68.54Y-53.345
X68.54Y-81.92
X81.24Y-84.46
X86.002Y-141.61
X87.59Y-81.92
X90.765Y-36.835
X90.765Y-55.885
X90.765Y-103.51
X92.352Y-139.07
X95.527Y-122.56
X97.115Y-34.295
X97.115Y-53.345
X97.115Y-100.97
X100.29Y-84.46
X101.877Y-120.02
X105.052Y-141.61
X106.64Y-81.92
X109.815Y-36.835
X109.815Y-55.885
X109.815Y-103.51
X111.402Y-139.07
X114.578Y-122.56
X116.165Y-34.295
X116.165Y-53.345
X116.165Y-100.97
X119.34Y-84.46
X120.927Y-120.02
X124.102Y-141.61
X125.69Y-81.92
X128.865Y-36.835
X128.865Y-55.885
X128.865Y-103.51
X130.452Y-139.07
X133.627Y-122.56
X135.215Y-34.295
X135.215Y-53.345
X135.215Y-100.97
X138.39Y-84.46
X139.977Y-120.02
X143.153Y-141.61
X144.74Y-81.92
X147.915Y-36.835
X147.915Y-55.885
X147.915Y-103.51
X149.502Y-139.07
X152.677Y-122.56
X154.265Y-34.295
X154.265Y-53.345
X154.265Y-100.97
X157.44Y-84.46
X159.028Y-120.02
X162.202Y-141.61
X163.79Y-81.92
X166.965Y-103.51
X168.552Y-139.07
X171.727Y-55.885
X171.727Y-122.56
X171.728Y-36.835
X173.315Y-100.97
X176.49Y-84.46
X178.077Y-53.345
X178.077Y-120.02
X178.078Y-34.295
X181.252Y-141.61
X182.84Y-81.92
X186.015Y-103.51
X187.602Y-139.07
X190.778Y-55.885
X190.778Y-122.56
X190.778Y-36.835
X192.365Y-100.97
X195.54Y-84.46
X197.127Y-53.345
X197.127Y-120.02
X197.128Y-34.295
X200.302Y-141.61
X201.89Y-81.92
X205.065Y-103.51
X206.653Y-139.07
X209.827Y-36.835
X209.827Y-55.885
X209.827Y-122.56
X211.415Y-100.97
X214.59Y-84.46
X216.177Y-34.295
X216.177Y-53.345
X216.177Y-120.02
X219.352Y-141.61
X220.94Y-81.92
X224.115Y-103.51
X225.702Y-139.07
X228.877Y-36.835
X228.877Y-55.885
X228.877Y-122.56
X230.465Y-100.97
X233.64Y-84.46
X235.227Y-34.295
X235.227Y-53.345
X235.227Y-120.02
X238.403Y-141.61
X239.99Y-81.92
X243.165Y-103.51
X244.752Y-139.07
X247.927Y-122.56
X249.515Y-100.97
X252.69Y-55.885
X252.69Y-84.46
X252.69Y-160.66
X252.69Y-36.835
X254.277Y-120.02
X257.452Y-141.61
X259.04Y-53.345
X259.04Y-81.92
X259.04Y-158.12
X259.04Y-34.295
X262.215Y-103.51
X263.803Y-139.07
X266.977Y-122.56
X268.565Y-100.97
X271.74Y-36.835
X271.74Y-55.885
X271.74Y-84.46
X271.74Y-160.66
X273.327Y-120.02
X276.502Y-141.61
X278.09Y-34.295
X278.09Y-53.345
X278.09Y-81.92
X278.09Y-158.12
X281.265Y-103.51
X282.852Y-139.07
X286.027Y-122.56
X287.615Y-100.97
X290.79Y-36.835
X290.79Y-55.885
X290.79Y-84.46
X290.79Y-160.66
X292.377Y-120.02
X297.14Y-34.295
X297.14Y-53.345
X297.14Y-81.92
X297.14Y-158.12
X300.315Y-103.51
X305.077Y-122.56
X306.665Y-100.97
X309.84Y-36.835
X309.84Y-55.885
X309.84Y-84.46
X311.428Y-120.02
X314.602Y-165.422
X316.19Y-34.295
X316.19Y-53.345
X316.19Y-81.92
X320.952Y-162.882
X328.89Y-84.46
X333.652Y-36.835
X333.652Y-55.885
X333.652Y-146.373
X333.652Y-165.422
X335.24Y-81.92
X340.002Y-34.295
X340.002Y-53.345
X340.002Y-143.832
X340.002Y-162.882
X352.702Y-36.835
X352.702Y-55.885
X352.702Y-84.46
X352.702Y-103.51
X352.702Y-122.56
X352.702Y-165.422
X359.053Y-34.295
X359.053Y-53.345
X359.053Y-81.92
X359.053Y-100.97
X359.053Y-120.02
X359.053Y-162.882
X371.752Y-36.835
X371.752Y-55.885
X376.515Y-84.46
X376.515Y-103.51
X376.515Y-122.56
X376.515Y-141.61
X376.515Y-160.66
X378.102Y-34.295
X378.102Y-53.345
X382.865Y-81.92
X382.865Y-100.97
X382.865Y-120.02
X382.865Y-139.07
X382.865Y-158.12
X395.565Y-36.835
X395.565Y-55.885
X395.565Y-84.46
X395.565Y-103.51
X395.565Y-122.56
X395.565Y-141.61
X395.565Y-160.66
X401.915Y-34.295
X401.915Y-53.345
X401.915Y-81.92
X401.915Y-100.97
X401.915Y-120.02
X401.915Y-139.07
X401.915Y-158.12
X414.615Y-36.835
X414.615Y-55.885
X414.615Y-84.46
X414.615Y-103.51
X414.615Y-122.56
X414.615Y-141.61
X414.615Y-160.66
X420.965Y-34.295
X420.965Y-53.345
X420.965Y-81.92
X420.965Y-100.97
X420.965Y-120.02
X420.965Y-139.07
X420.965Y-158.12
X433.665Y-36.835
X433.665Y-55.885
X433.665Y-84.46
X440.015Y-34.295
X440.015Y-53.345
X440.015Y-81.92
X440.015Y-102.24
X440.015Y-121.29
X442.555Y-108.59
X442.555Y-127.64
T13
X358.893Y-146.649
T6
G00X181.27Y-168.28
M15
G01X181.57Y-168.28
M16
G05
G00X181.87Y-168.28
M15
G01X181.27Y-168.28
M16
G05
T12
G00X65.45Y-30.125
M15
G01X66.55Y-30.125
M16
G05
G00X65.45Y-42.625
M15
G01X66.55Y-42.625
M16
G05
T0
M30
