%TF.GenerationSoftware,KiCad,Pcbnew,7.0.5*%
%TF.CreationDate,2023-07-04T15:17:44-04:00*%
%TF.ProjectId,FR4-hotswap-ISO-plate,4652342d-686f-4747-9377-61702d49534f,rev?*%
%TF.SameCoordinates,Original*%
%TF.FileFunction,Legend,Bot*%
%TF.FilePolarity,Positive*%
%FSLAX46Y46*%
G04 Gerber Fmt 4.6, Leading zero omitted, Abs format (unit mm)*
G04 Created by KiCad (PCBNEW 7.0.5) date 2023-07-04 15:17:44*
%MOMM*%
%LPD*%
G01*
G04 APERTURE LIST*
%ADD10C,0.300000*%
%ADD11C,0.150000*%
G04 APERTURE END LIST*
D10*
X263321604Y-13059245D02*
X263121604Y-13125912D01*
X263121604Y-13125912D02*
X263054937Y-13192578D01*
X263054937Y-13192578D02*
X262988270Y-13325912D01*
X262988270Y-13325912D02*
X262988270Y-13525912D01*
X262988270Y-13525912D02*
X263054937Y-13659245D01*
X263054937Y-13659245D02*
X263121604Y-13725912D01*
X263121604Y-13725912D02*
X263254937Y-13792578D01*
X263254937Y-13792578D02*
X263788270Y-13792578D01*
X263788270Y-13792578D02*
X263788270Y-12392578D01*
X263788270Y-12392578D02*
X263321604Y-12392578D01*
X263321604Y-12392578D02*
X263188270Y-12459245D01*
X263188270Y-12459245D02*
X263121604Y-12525912D01*
X263121604Y-12525912D02*
X263054937Y-12659245D01*
X263054937Y-12659245D02*
X263054937Y-12792578D01*
X263054937Y-12792578D02*
X263121604Y-12925912D01*
X263121604Y-12925912D02*
X263188270Y-12992578D01*
X263188270Y-12992578D02*
X263321604Y-13059245D01*
X263321604Y-13059245D02*
X263788270Y-13059245D01*
X262188270Y-13792578D02*
X262321604Y-13725912D01*
X262321604Y-13725912D02*
X262388270Y-13659245D01*
X262388270Y-13659245D02*
X262454937Y-13525912D01*
X262454937Y-13525912D02*
X262454937Y-13125912D01*
X262454937Y-13125912D02*
X262388270Y-12992578D01*
X262388270Y-12992578D02*
X262321604Y-12925912D01*
X262321604Y-12925912D02*
X262188270Y-12859245D01*
X262188270Y-12859245D02*
X261988270Y-12859245D01*
X261988270Y-12859245D02*
X261854937Y-12925912D01*
X261854937Y-12925912D02*
X261788270Y-12992578D01*
X261788270Y-12992578D02*
X261721604Y-13125912D01*
X261721604Y-13125912D02*
X261721604Y-13525912D01*
X261721604Y-13525912D02*
X261788270Y-13659245D01*
X261788270Y-13659245D02*
X261854937Y-13725912D01*
X261854937Y-13725912D02*
X261988270Y-13792578D01*
X261988270Y-13792578D02*
X262188270Y-13792578D01*
X261188270Y-13725912D02*
X261054937Y-13792578D01*
X261054937Y-13792578D02*
X260788270Y-13792578D01*
X260788270Y-13792578D02*
X260654937Y-13725912D01*
X260654937Y-13725912D02*
X260588270Y-13592578D01*
X260588270Y-13592578D02*
X260588270Y-13525912D01*
X260588270Y-13525912D02*
X260654937Y-13392578D01*
X260654937Y-13392578D02*
X260788270Y-13325912D01*
X260788270Y-13325912D02*
X260988270Y-13325912D01*
X260988270Y-13325912D02*
X261121603Y-13259245D01*
X261121603Y-13259245D02*
X261188270Y-13125912D01*
X261188270Y-13125912D02*
X261188270Y-13059245D01*
X261188270Y-13059245D02*
X261121603Y-12925912D01*
X261121603Y-12925912D02*
X260988270Y-12859245D01*
X260988270Y-12859245D02*
X260788270Y-12859245D01*
X260788270Y-12859245D02*
X260654937Y-12925912D01*
X260188270Y-12859245D02*
X259654937Y-12859245D01*
X259988270Y-12392578D02*
X259988270Y-13592578D01*
X259988270Y-13592578D02*
X259921604Y-13725912D01*
X259921604Y-13725912D02*
X259788270Y-13792578D01*
X259788270Y-13792578D02*
X259654937Y-13792578D01*
X258988270Y-13792578D02*
X259121604Y-13725912D01*
X259121604Y-13725912D02*
X259188270Y-13659245D01*
X259188270Y-13659245D02*
X259254937Y-13525912D01*
X259254937Y-13525912D02*
X259254937Y-13125912D01*
X259254937Y-13125912D02*
X259188270Y-12992578D01*
X259188270Y-12992578D02*
X259121604Y-12925912D01*
X259121604Y-12925912D02*
X258988270Y-12859245D01*
X258988270Y-12859245D02*
X258788270Y-12859245D01*
X258788270Y-12859245D02*
X258654937Y-12925912D01*
X258654937Y-12925912D02*
X258588270Y-12992578D01*
X258588270Y-12992578D02*
X258521604Y-13125912D01*
X258521604Y-13125912D02*
X258521604Y-13525912D01*
X258521604Y-13525912D02*
X258588270Y-13659245D01*
X258588270Y-13659245D02*
X258654937Y-13725912D01*
X258654937Y-13725912D02*
X258788270Y-13792578D01*
X258788270Y-13792578D02*
X258988270Y-13792578D01*
X257921603Y-12859245D02*
X257921603Y-13792578D01*
X257921603Y-12992578D02*
X257854937Y-12925912D01*
X257854937Y-12925912D02*
X257721603Y-12859245D01*
X257721603Y-12859245D02*
X257521603Y-12859245D01*
X257521603Y-12859245D02*
X257388270Y-12925912D01*
X257388270Y-12925912D02*
X257321603Y-13059245D01*
X257321603Y-13059245D02*
X257321603Y-13792578D01*
X255188269Y-14325912D02*
X255254936Y-14259245D01*
X255254936Y-14259245D02*
X255388269Y-14059245D01*
X255388269Y-14059245D02*
X255454936Y-13925912D01*
X255454936Y-13925912D02*
X255521603Y-13725912D01*
X255521603Y-13725912D02*
X255588269Y-13392578D01*
X255588269Y-13392578D02*
X255588269Y-13125912D01*
X255588269Y-13125912D02*
X255521603Y-12792578D01*
X255521603Y-12792578D02*
X255454936Y-12592578D01*
X255454936Y-12592578D02*
X255388269Y-12459245D01*
X255388269Y-12459245D02*
X255254936Y-12259245D01*
X255254936Y-12259245D02*
X255188269Y-12192578D01*
X254654936Y-13792578D02*
X254654936Y-12392578D01*
X254654936Y-12392578D02*
X254188270Y-13392578D01*
X254188270Y-13392578D02*
X253721603Y-12392578D01*
X253721603Y-12392578D02*
X253721603Y-13792578D01*
X252521603Y-13725912D02*
X252654936Y-13792578D01*
X252654936Y-13792578D02*
X252921603Y-13792578D01*
X252921603Y-13792578D02*
X253054936Y-13725912D01*
X253054936Y-13725912D02*
X253121603Y-13592578D01*
X253121603Y-13592578D02*
X253121603Y-13059245D01*
X253121603Y-13059245D02*
X253054936Y-12925912D01*
X253054936Y-12925912D02*
X252921603Y-12859245D01*
X252921603Y-12859245D02*
X252654936Y-12859245D01*
X252654936Y-12859245D02*
X252521603Y-12925912D01*
X252521603Y-12925912D02*
X252454936Y-13059245D01*
X252454936Y-13059245D02*
X252454936Y-13192578D01*
X252454936Y-13192578D02*
X253121603Y-13325912D01*
X252054936Y-12859245D02*
X251521603Y-12859245D01*
X251854936Y-12392578D02*
X251854936Y-13592578D01*
X251854936Y-13592578D02*
X251788270Y-13725912D01*
X251788270Y-13725912D02*
X251654936Y-13792578D01*
X251654936Y-13792578D02*
X251521603Y-13792578D01*
X250454936Y-13792578D02*
X250454936Y-13059245D01*
X250454936Y-13059245D02*
X250521603Y-12925912D01*
X250521603Y-12925912D02*
X250654936Y-12859245D01*
X250654936Y-12859245D02*
X250921603Y-12859245D01*
X250921603Y-12859245D02*
X251054936Y-12925912D01*
X250454936Y-13725912D02*
X250588270Y-13792578D01*
X250588270Y-13792578D02*
X250921603Y-13792578D01*
X250921603Y-13792578D02*
X251054936Y-13725912D01*
X251054936Y-13725912D02*
X251121603Y-13592578D01*
X251121603Y-13592578D02*
X251121603Y-13459245D01*
X251121603Y-13459245D02*
X251054936Y-13325912D01*
X251054936Y-13325912D02*
X250921603Y-13259245D01*
X250921603Y-13259245D02*
X250588270Y-13259245D01*
X250588270Y-13259245D02*
X250454936Y-13192578D01*
X249588269Y-13792578D02*
X249721603Y-13725912D01*
X249721603Y-13725912D02*
X249788269Y-13592578D01*
X249788269Y-13592578D02*
X249788269Y-12392578D01*
X248188269Y-12392578D02*
X247721603Y-13792578D01*
X247721603Y-13792578D02*
X247254936Y-12392578D01*
X246254936Y-13725912D02*
X246388269Y-13792578D01*
X246388269Y-13792578D02*
X246654936Y-13792578D01*
X246654936Y-13792578D02*
X246788269Y-13725912D01*
X246788269Y-13725912D02*
X246854936Y-13592578D01*
X246854936Y-13592578D02*
X246854936Y-13059245D01*
X246854936Y-13059245D02*
X246788269Y-12925912D01*
X246788269Y-12925912D02*
X246654936Y-12859245D01*
X246654936Y-12859245D02*
X246388269Y-12859245D01*
X246388269Y-12859245D02*
X246254936Y-12925912D01*
X246254936Y-12925912D02*
X246188269Y-13059245D01*
X246188269Y-13059245D02*
X246188269Y-13192578D01*
X246188269Y-13192578D02*
X246854936Y-13325912D01*
X245588269Y-13792578D02*
X245588269Y-12859245D01*
X245588269Y-13125912D02*
X245521603Y-12992578D01*
X245521603Y-12992578D02*
X245454936Y-12925912D01*
X245454936Y-12925912D02*
X245321603Y-12859245D01*
X245321603Y-12859245D02*
X245188269Y-12859245D01*
X244788269Y-13725912D02*
X244654936Y-13792578D01*
X244654936Y-13792578D02*
X244388269Y-13792578D01*
X244388269Y-13792578D02*
X244254936Y-13725912D01*
X244254936Y-13725912D02*
X244188269Y-13592578D01*
X244188269Y-13592578D02*
X244188269Y-13525912D01*
X244188269Y-13525912D02*
X244254936Y-13392578D01*
X244254936Y-13392578D02*
X244388269Y-13325912D01*
X244388269Y-13325912D02*
X244588269Y-13325912D01*
X244588269Y-13325912D02*
X244721602Y-13259245D01*
X244721602Y-13259245D02*
X244788269Y-13125912D01*
X244788269Y-13125912D02*
X244788269Y-13059245D01*
X244788269Y-13059245D02*
X244721602Y-12925912D01*
X244721602Y-12925912D02*
X244588269Y-12859245D01*
X244588269Y-12859245D02*
X244388269Y-12859245D01*
X244388269Y-12859245D02*
X244254936Y-12925912D01*
X243588269Y-13792578D02*
X243588269Y-12859245D01*
X243588269Y-12392578D02*
X243654936Y-12459245D01*
X243654936Y-12459245D02*
X243588269Y-12525912D01*
X243588269Y-12525912D02*
X243521603Y-12459245D01*
X243521603Y-12459245D02*
X243588269Y-12392578D01*
X243588269Y-12392578D02*
X243588269Y-12525912D01*
X242721602Y-13792578D02*
X242854936Y-13725912D01*
X242854936Y-13725912D02*
X242921602Y-13659245D01*
X242921602Y-13659245D02*
X242988269Y-13525912D01*
X242988269Y-13525912D02*
X242988269Y-13125912D01*
X242988269Y-13125912D02*
X242921602Y-12992578D01*
X242921602Y-12992578D02*
X242854936Y-12925912D01*
X242854936Y-12925912D02*
X242721602Y-12859245D01*
X242721602Y-12859245D02*
X242521602Y-12859245D01*
X242521602Y-12859245D02*
X242388269Y-12925912D01*
X242388269Y-12925912D02*
X242321602Y-12992578D01*
X242321602Y-12992578D02*
X242254936Y-13125912D01*
X242254936Y-13125912D02*
X242254936Y-13525912D01*
X242254936Y-13525912D02*
X242321602Y-13659245D01*
X242321602Y-13659245D02*
X242388269Y-13725912D01*
X242388269Y-13725912D02*
X242521602Y-13792578D01*
X242521602Y-13792578D02*
X242721602Y-13792578D01*
X241654935Y-12859245D02*
X241654935Y-13792578D01*
X241654935Y-12992578D02*
X241588269Y-12925912D01*
X241588269Y-12925912D02*
X241454935Y-12859245D01*
X241454935Y-12859245D02*
X241254935Y-12859245D01*
X241254935Y-12859245D02*
X241121602Y-12925912D01*
X241121602Y-12925912D02*
X241054935Y-13059245D01*
X241054935Y-13059245D02*
X241054935Y-13792578D01*
X240521602Y-14325912D02*
X240454935Y-14259245D01*
X240454935Y-14259245D02*
X240321602Y-14059245D01*
X240321602Y-14059245D02*
X240254935Y-13925912D01*
X240254935Y-13925912D02*
X240188268Y-13725912D01*
X240188268Y-13725912D02*
X240121602Y-13392578D01*
X240121602Y-13392578D02*
X240121602Y-13125912D01*
X240121602Y-13125912D02*
X240188268Y-12792578D01*
X240188268Y-12792578D02*
X240254935Y-12592578D01*
X240254935Y-12592578D02*
X240321602Y-12459245D01*
X240321602Y-12459245D02*
X240454935Y-12259245D01*
X240454935Y-12259245D02*
X240521602Y-12192578D01*
X238388268Y-13259245D02*
X237321602Y-13259245D01*
X235588268Y-13792578D02*
X235588268Y-12392578D01*
X234988268Y-13725912D02*
X234788268Y-13792578D01*
X234788268Y-13792578D02*
X234454935Y-13792578D01*
X234454935Y-13792578D02*
X234321601Y-13725912D01*
X234321601Y-13725912D02*
X234254935Y-13659245D01*
X234254935Y-13659245D02*
X234188268Y-13525912D01*
X234188268Y-13525912D02*
X234188268Y-13392578D01*
X234188268Y-13392578D02*
X234254935Y-13259245D01*
X234254935Y-13259245D02*
X234321601Y-13192578D01*
X234321601Y-13192578D02*
X234454935Y-13125912D01*
X234454935Y-13125912D02*
X234721601Y-13059245D01*
X234721601Y-13059245D02*
X234854935Y-12992578D01*
X234854935Y-12992578D02*
X234921601Y-12925912D01*
X234921601Y-12925912D02*
X234988268Y-12792578D01*
X234988268Y-12792578D02*
X234988268Y-12659245D01*
X234988268Y-12659245D02*
X234921601Y-12525912D01*
X234921601Y-12525912D02*
X234854935Y-12459245D01*
X234854935Y-12459245D02*
X234721601Y-12392578D01*
X234721601Y-12392578D02*
X234388268Y-12392578D01*
X234388268Y-12392578D02*
X234188268Y-12459245D01*
X233321602Y-12392578D02*
X233054935Y-12392578D01*
X233054935Y-12392578D02*
X232921602Y-12459245D01*
X232921602Y-12459245D02*
X232788268Y-12592578D01*
X232788268Y-12592578D02*
X232721602Y-12859245D01*
X232721602Y-12859245D02*
X232721602Y-13325912D01*
X232721602Y-13325912D02*
X232788268Y-13592578D01*
X232788268Y-13592578D02*
X232921602Y-13725912D01*
X232921602Y-13725912D02*
X233054935Y-13792578D01*
X233054935Y-13792578D02*
X233321602Y-13792578D01*
X233321602Y-13792578D02*
X233454935Y-13725912D01*
X233454935Y-13725912D02*
X233588268Y-13592578D01*
X233588268Y-13592578D02*
X233654935Y-13325912D01*
X233654935Y-13325912D02*
X233654935Y-12859245D01*
X233654935Y-12859245D02*
X233588268Y-12592578D01*
X233588268Y-12592578D02*
X233454935Y-12459245D01*
X233454935Y-12459245D02*
X233321602Y-12392578D01*
X231054934Y-13792578D02*
X231054934Y-12392578D01*
X231054934Y-13059245D02*
X230254934Y-13059245D01*
X230254934Y-13792578D02*
X230254934Y-12392578D01*
X229388267Y-13792578D02*
X229521601Y-13725912D01*
X229521601Y-13725912D02*
X229588267Y-13659245D01*
X229588267Y-13659245D02*
X229654934Y-13525912D01*
X229654934Y-13525912D02*
X229654934Y-13125912D01*
X229654934Y-13125912D02*
X229588267Y-12992578D01*
X229588267Y-12992578D02*
X229521601Y-12925912D01*
X229521601Y-12925912D02*
X229388267Y-12859245D01*
X229388267Y-12859245D02*
X229188267Y-12859245D01*
X229188267Y-12859245D02*
X229054934Y-12925912D01*
X229054934Y-12925912D02*
X228988267Y-12992578D01*
X228988267Y-12992578D02*
X228921601Y-13125912D01*
X228921601Y-13125912D02*
X228921601Y-13525912D01*
X228921601Y-13525912D02*
X228988267Y-13659245D01*
X228988267Y-13659245D02*
X229054934Y-13725912D01*
X229054934Y-13725912D02*
X229188267Y-13792578D01*
X229188267Y-13792578D02*
X229388267Y-13792578D01*
X228521600Y-12859245D02*
X227988267Y-12859245D01*
X228321600Y-12392578D02*
X228321600Y-13592578D01*
X228321600Y-13592578D02*
X228254934Y-13725912D01*
X228254934Y-13725912D02*
X228121600Y-13792578D01*
X228121600Y-13792578D02*
X227988267Y-13792578D01*
X227588267Y-13725912D02*
X227454934Y-13792578D01*
X227454934Y-13792578D02*
X227188267Y-13792578D01*
X227188267Y-13792578D02*
X227054934Y-13725912D01*
X227054934Y-13725912D02*
X226988267Y-13592578D01*
X226988267Y-13592578D02*
X226988267Y-13525912D01*
X226988267Y-13525912D02*
X227054934Y-13392578D01*
X227054934Y-13392578D02*
X227188267Y-13325912D01*
X227188267Y-13325912D02*
X227388267Y-13325912D01*
X227388267Y-13325912D02*
X227521600Y-13259245D01*
X227521600Y-13259245D02*
X227588267Y-13125912D01*
X227588267Y-13125912D02*
X227588267Y-13059245D01*
X227588267Y-13059245D02*
X227521600Y-12925912D01*
X227521600Y-12925912D02*
X227388267Y-12859245D01*
X227388267Y-12859245D02*
X227188267Y-12859245D01*
X227188267Y-12859245D02*
X227054934Y-12925912D01*
X226521601Y-12859245D02*
X226254934Y-13792578D01*
X226254934Y-13792578D02*
X225988267Y-13125912D01*
X225988267Y-13125912D02*
X225721601Y-13792578D01*
X225721601Y-13792578D02*
X225454934Y-12859245D01*
X224321600Y-13792578D02*
X224321600Y-13059245D01*
X224321600Y-13059245D02*
X224388267Y-12925912D01*
X224388267Y-12925912D02*
X224521600Y-12859245D01*
X224521600Y-12859245D02*
X224788267Y-12859245D01*
X224788267Y-12859245D02*
X224921600Y-12925912D01*
X224321600Y-13725912D02*
X224454934Y-13792578D01*
X224454934Y-13792578D02*
X224788267Y-13792578D01*
X224788267Y-13792578D02*
X224921600Y-13725912D01*
X224921600Y-13725912D02*
X224988267Y-13592578D01*
X224988267Y-13592578D02*
X224988267Y-13459245D01*
X224988267Y-13459245D02*
X224921600Y-13325912D01*
X224921600Y-13325912D02*
X224788267Y-13259245D01*
X224788267Y-13259245D02*
X224454934Y-13259245D01*
X224454934Y-13259245D02*
X224321600Y-13192578D01*
X223654933Y-12859245D02*
X223654933Y-14259245D01*
X223654933Y-12925912D02*
X223521600Y-12859245D01*
X223521600Y-12859245D02*
X223254933Y-12859245D01*
X223254933Y-12859245D02*
X223121600Y-12925912D01*
X223121600Y-12925912D02*
X223054933Y-12992578D01*
X223054933Y-12992578D02*
X222988267Y-13125912D01*
X222988267Y-13125912D02*
X222988267Y-13525912D01*
X222988267Y-13525912D02*
X223054933Y-13659245D01*
X223054933Y-13659245D02*
X223121600Y-13725912D01*
X223121600Y-13725912D02*
X223254933Y-13792578D01*
X223254933Y-13792578D02*
X223521600Y-13792578D01*
X223521600Y-13792578D02*
X223654933Y-13725912D01*
X221321599Y-13792578D02*
X221321599Y-12392578D01*
X221321599Y-12392578D02*
X220788266Y-12392578D01*
X220788266Y-12392578D02*
X220654933Y-12459245D01*
X220654933Y-12459245D02*
X220588266Y-12525912D01*
X220588266Y-12525912D02*
X220521599Y-12659245D01*
X220521599Y-12659245D02*
X220521599Y-12859245D01*
X220521599Y-12859245D02*
X220588266Y-12992578D01*
X220588266Y-12992578D02*
X220654933Y-13059245D01*
X220654933Y-13059245D02*
X220788266Y-13125912D01*
X220788266Y-13125912D02*
X221321599Y-13125912D01*
X219721599Y-13792578D02*
X219854933Y-13725912D01*
X219854933Y-13725912D02*
X219921599Y-13592578D01*
X219921599Y-13592578D02*
X219921599Y-12392578D01*
X218588266Y-13792578D02*
X218588266Y-13059245D01*
X218588266Y-13059245D02*
X218654933Y-12925912D01*
X218654933Y-12925912D02*
X218788266Y-12859245D01*
X218788266Y-12859245D02*
X219054933Y-12859245D01*
X219054933Y-12859245D02*
X219188266Y-12925912D01*
X218588266Y-13725912D02*
X218721600Y-13792578D01*
X218721600Y-13792578D02*
X219054933Y-13792578D01*
X219054933Y-13792578D02*
X219188266Y-13725912D01*
X219188266Y-13725912D02*
X219254933Y-13592578D01*
X219254933Y-13592578D02*
X219254933Y-13459245D01*
X219254933Y-13459245D02*
X219188266Y-13325912D01*
X219188266Y-13325912D02*
X219054933Y-13259245D01*
X219054933Y-13259245D02*
X218721600Y-13259245D01*
X218721600Y-13259245D02*
X218588266Y-13192578D01*
X218121599Y-12859245D02*
X217588266Y-12859245D01*
X217921599Y-12392578D02*
X217921599Y-13592578D01*
X217921599Y-13592578D02*
X217854933Y-13725912D01*
X217854933Y-13725912D02*
X217721599Y-13792578D01*
X217721599Y-13792578D02*
X217588266Y-13792578D01*
X216588266Y-13725912D02*
X216721599Y-13792578D01*
X216721599Y-13792578D02*
X216988266Y-13792578D01*
X216988266Y-13792578D02*
X217121599Y-13725912D01*
X217121599Y-13725912D02*
X217188266Y-13592578D01*
X217188266Y-13592578D02*
X217188266Y-13059245D01*
X217188266Y-13059245D02*
X217121599Y-12925912D01*
X217121599Y-12925912D02*
X216988266Y-12859245D01*
X216988266Y-12859245D02*
X216721599Y-12859245D01*
X216721599Y-12859245D02*
X216588266Y-12925912D01*
X216588266Y-12925912D02*
X216521599Y-13059245D01*
X216521599Y-13059245D02*
X216521599Y-13192578D01*
X216521599Y-13192578D02*
X217188266Y-13325912D01*
X215054932Y-12392578D02*
X214588266Y-13792578D01*
X214588266Y-13792578D02*
X214121599Y-12392578D01*
X213388266Y-12392578D02*
X213254932Y-12392578D01*
X213254932Y-12392578D02*
X213121599Y-12459245D01*
X213121599Y-12459245D02*
X213054932Y-12525912D01*
X213054932Y-12525912D02*
X212988266Y-12659245D01*
X212988266Y-12659245D02*
X212921599Y-12925912D01*
X212921599Y-12925912D02*
X212921599Y-13259245D01*
X212921599Y-13259245D02*
X212988266Y-13525912D01*
X212988266Y-13525912D02*
X213054932Y-13659245D01*
X213054932Y-13659245D02*
X213121599Y-13725912D01*
X213121599Y-13725912D02*
X213254932Y-13792578D01*
X213254932Y-13792578D02*
X213388266Y-13792578D01*
X213388266Y-13792578D02*
X213521599Y-13725912D01*
X213521599Y-13725912D02*
X213588266Y-13659245D01*
X213588266Y-13659245D02*
X213654932Y-13525912D01*
X213654932Y-13525912D02*
X213721599Y-13259245D01*
X213721599Y-13259245D02*
X213721599Y-12925912D01*
X213721599Y-12925912D02*
X213654932Y-12659245D01*
X213654932Y-12659245D02*
X213588266Y-12525912D01*
X213588266Y-12525912D02*
X213521599Y-12459245D01*
X213521599Y-12459245D02*
X213388266Y-12392578D01*
X212321599Y-13659245D02*
X212254933Y-13725912D01*
X212254933Y-13725912D02*
X212321599Y-13792578D01*
X212321599Y-13792578D02*
X212388266Y-13725912D01*
X212388266Y-13725912D02*
X212321599Y-13659245D01*
X212321599Y-13659245D02*
X212321599Y-13792578D01*
X210921599Y-13792578D02*
X211721599Y-13792578D01*
X211321599Y-13792578D02*
X211321599Y-12392578D01*
X211321599Y-12392578D02*
X211454932Y-12592578D01*
X211454932Y-12592578D02*
X211588266Y-12725912D01*
X211588266Y-12725912D02*
X211721599Y-12792578D01*
X209254932Y-13259245D02*
X208188266Y-13259245D01*
X206054932Y-12392578D02*
X206054932Y-13392578D01*
X206054932Y-13392578D02*
X206121599Y-13592578D01*
X206121599Y-13592578D02*
X206254932Y-13725912D01*
X206254932Y-13725912D02*
X206454932Y-13792578D01*
X206454932Y-13792578D02*
X206588266Y-13792578D01*
X204788265Y-12859245D02*
X204788265Y-13792578D01*
X205388265Y-12859245D02*
X205388265Y-13592578D01*
X205388265Y-13592578D02*
X205321599Y-13725912D01*
X205321599Y-13725912D02*
X205188265Y-13792578D01*
X205188265Y-13792578D02*
X204988265Y-13792578D01*
X204988265Y-13792578D02*
X204854932Y-13725912D01*
X204854932Y-13725912D02*
X204788265Y-13659245D01*
X203921598Y-13792578D02*
X204054932Y-13725912D01*
X204054932Y-13725912D02*
X204121598Y-13592578D01*
X204121598Y-13592578D02*
X204121598Y-12392578D01*
X203521599Y-12859245D02*
X203188265Y-13792578D01*
X202854932Y-12859245D02*
X203188265Y-13792578D01*
X203188265Y-13792578D02*
X203321599Y-14125912D01*
X203321599Y-14125912D02*
X203388265Y-14192578D01*
X203388265Y-14192578D02*
X203521599Y-14259245D01*
X200654931Y-12859245D02*
X200654931Y-13792578D01*
X200988265Y-12325912D02*
X201321598Y-13325912D01*
X201321598Y-13325912D02*
X200454931Y-13325912D01*
X199854932Y-13725912D02*
X199854932Y-13792578D01*
X199854932Y-13792578D02*
X199921598Y-13925912D01*
X199921598Y-13925912D02*
X199988265Y-13992578D01*
X198254931Y-12525912D02*
X198188264Y-12459245D01*
X198188264Y-12459245D02*
X198054931Y-12392578D01*
X198054931Y-12392578D02*
X197721598Y-12392578D01*
X197721598Y-12392578D02*
X197588264Y-12459245D01*
X197588264Y-12459245D02*
X197521598Y-12525912D01*
X197521598Y-12525912D02*
X197454931Y-12659245D01*
X197454931Y-12659245D02*
X197454931Y-12792578D01*
X197454931Y-12792578D02*
X197521598Y-12992578D01*
X197521598Y-12992578D02*
X198321598Y-13792578D01*
X198321598Y-13792578D02*
X197454931Y-13792578D01*
X196588265Y-12392578D02*
X196454931Y-12392578D01*
X196454931Y-12392578D02*
X196321598Y-12459245D01*
X196321598Y-12459245D02*
X196254931Y-12525912D01*
X196254931Y-12525912D02*
X196188265Y-12659245D01*
X196188265Y-12659245D02*
X196121598Y-12925912D01*
X196121598Y-12925912D02*
X196121598Y-13259245D01*
X196121598Y-13259245D02*
X196188265Y-13525912D01*
X196188265Y-13525912D02*
X196254931Y-13659245D01*
X196254931Y-13659245D02*
X196321598Y-13725912D01*
X196321598Y-13725912D02*
X196454931Y-13792578D01*
X196454931Y-13792578D02*
X196588265Y-13792578D01*
X196588265Y-13792578D02*
X196721598Y-13725912D01*
X196721598Y-13725912D02*
X196788265Y-13659245D01*
X196788265Y-13659245D02*
X196854931Y-13525912D01*
X196854931Y-13525912D02*
X196921598Y-13259245D01*
X196921598Y-13259245D02*
X196921598Y-12925912D01*
X196921598Y-12925912D02*
X196854931Y-12659245D01*
X196854931Y-12659245D02*
X196788265Y-12525912D01*
X196788265Y-12525912D02*
X196721598Y-12459245D01*
X196721598Y-12459245D02*
X196588265Y-12392578D01*
X195588265Y-12525912D02*
X195521598Y-12459245D01*
X195521598Y-12459245D02*
X195388265Y-12392578D01*
X195388265Y-12392578D02*
X195054932Y-12392578D01*
X195054932Y-12392578D02*
X194921598Y-12459245D01*
X194921598Y-12459245D02*
X194854932Y-12525912D01*
X194854932Y-12525912D02*
X194788265Y-12659245D01*
X194788265Y-12659245D02*
X194788265Y-12792578D01*
X194788265Y-12792578D02*
X194854932Y-12992578D01*
X194854932Y-12992578D02*
X195654932Y-13792578D01*
X195654932Y-13792578D02*
X194788265Y-13792578D01*
X194321599Y-12392578D02*
X193454932Y-12392578D01*
X193454932Y-12392578D02*
X193921599Y-12925912D01*
X193921599Y-12925912D02*
X193721599Y-12925912D01*
X193721599Y-12925912D02*
X193588265Y-12992578D01*
X193588265Y-12992578D02*
X193521599Y-13059245D01*
X193521599Y-13059245D02*
X193454932Y-13192578D01*
X193454932Y-13192578D02*
X193454932Y-13525912D01*
X193454932Y-13525912D02*
X193521599Y-13659245D01*
X193521599Y-13659245D02*
X193588265Y-13725912D01*
X193588265Y-13725912D02*
X193721599Y-13792578D01*
X193721599Y-13792578D02*
X194121599Y-13792578D01*
X194121599Y-13792578D02*
X194254932Y-13725912D01*
X194254932Y-13725912D02*
X194321599Y-13659245D01*
X263788270Y-16046578D02*
X263788270Y-14646578D01*
X263788270Y-14646578D02*
X263454937Y-14646578D01*
X263454937Y-14646578D02*
X263254937Y-14713245D01*
X263254937Y-14713245D02*
X263121604Y-14846578D01*
X263121604Y-14846578D02*
X263054937Y-14979912D01*
X263054937Y-14979912D02*
X262988270Y-15246578D01*
X262988270Y-15246578D02*
X262988270Y-15446578D01*
X262988270Y-15446578D02*
X263054937Y-15713245D01*
X263054937Y-15713245D02*
X263121604Y-15846578D01*
X263121604Y-15846578D02*
X263254937Y-15979912D01*
X263254937Y-15979912D02*
X263454937Y-16046578D01*
X263454937Y-16046578D02*
X263788270Y-16046578D01*
X261854937Y-15979912D02*
X261988270Y-16046578D01*
X261988270Y-16046578D02*
X262254937Y-16046578D01*
X262254937Y-16046578D02*
X262388270Y-15979912D01*
X262388270Y-15979912D02*
X262454937Y-15846578D01*
X262454937Y-15846578D02*
X262454937Y-15313245D01*
X262454937Y-15313245D02*
X262388270Y-15179912D01*
X262388270Y-15179912D02*
X262254937Y-15113245D01*
X262254937Y-15113245D02*
X261988270Y-15113245D01*
X261988270Y-15113245D02*
X261854937Y-15179912D01*
X261854937Y-15179912D02*
X261788270Y-15313245D01*
X261788270Y-15313245D02*
X261788270Y-15446578D01*
X261788270Y-15446578D02*
X262454937Y-15579912D01*
X261254937Y-15979912D02*
X261121604Y-16046578D01*
X261121604Y-16046578D02*
X260854937Y-16046578D01*
X260854937Y-16046578D02*
X260721604Y-15979912D01*
X260721604Y-15979912D02*
X260654937Y-15846578D01*
X260654937Y-15846578D02*
X260654937Y-15779912D01*
X260654937Y-15779912D02*
X260721604Y-15646578D01*
X260721604Y-15646578D02*
X260854937Y-15579912D01*
X260854937Y-15579912D02*
X261054937Y-15579912D01*
X261054937Y-15579912D02*
X261188270Y-15513245D01*
X261188270Y-15513245D02*
X261254937Y-15379912D01*
X261254937Y-15379912D02*
X261254937Y-15313245D01*
X261254937Y-15313245D02*
X261188270Y-15179912D01*
X261188270Y-15179912D02*
X261054937Y-15113245D01*
X261054937Y-15113245D02*
X260854937Y-15113245D01*
X260854937Y-15113245D02*
X260721604Y-15179912D01*
X260054937Y-16046578D02*
X260054937Y-15113245D01*
X260054937Y-14646578D02*
X260121604Y-14713245D01*
X260121604Y-14713245D02*
X260054937Y-14779912D01*
X260054937Y-14779912D02*
X259988271Y-14713245D01*
X259988271Y-14713245D02*
X260054937Y-14646578D01*
X260054937Y-14646578D02*
X260054937Y-14779912D01*
X258788270Y-15113245D02*
X258788270Y-16246578D01*
X258788270Y-16246578D02*
X258854937Y-16379912D01*
X258854937Y-16379912D02*
X258921604Y-16446578D01*
X258921604Y-16446578D02*
X259054937Y-16513245D01*
X259054937Y-16513245D02*
X259254937Y-16513245D01*
X259254937Y-16513245D02*
X259388270Y-16446578D01*
X258788270Y-15979912D02*
X258921604Y-16046578D01*
X258921604Y-16046578D02*
X259188270Y-16046578D01*
X259188270Y-16046578D02*
X259321604Y-15979912D01*
X259321604Y-15979912D02*
X259388270Y-15913245D01*
X259388270Y-15913245D02*
X259454937Y-15779912D01*
X259454937Y-15779912D02*
X259454937Y-15379912D01*
X259454937Y-15379912D02*
X259388270Y-15246578D01*
X259388270Y-15246578D02*
X259321604Y-15179912D01*
X259321604Y-15179912D02*
X259188270Y-15113245D01*
X259188270Y-15113245D02*
X258921604Y-15113245D01*
X258921604Y-15113245D02*
X258788270Y-15179912D01*
X258121603Y-15113245D02*
X258121603Y-16046578D01*
X258121603Y-15246578D02*
X258054937Y-15179912D01*
X258054937Y-15179912D02*
X257921603Y-15113245D01*
X257921603Y-15113245D02*
X257721603Y-15113245D01*
X257721603Y-15113245D02*
X257588270Y-15179912D01*
X257588270Y-15179912D02*
X257521603Y-15313245D01*
X257521603Y-15313245D02*
X257521603Y-16046578D01*
X256321603Y-15979912D02*
X256454936Y-16046578D01*
X256454936Y-16046578D02*
X256721603Y-16046578D01*
X256721603Y-16046578D02*
X256854936Y-15979912D01*
X256854936Y-15979912D02*
X256921603Y-15846578D01*
X256921603Y-15846578D02*
X256921603Y-15313245D01*
X256921603Y-15313245D02*
X256854936Y-15179912D01*
X256854936Y-15179912D02*
X256721603Y-15113245D01*
X256721603Y-15113245D02*
X256454936Y-15113245D01*
X256454936Y-15113245D02*
X256321603Y-15179912D01*
X256321603Y-15179912D02*
X256254936Y-15313245D01*
X256254936Y-15313245D02*
X256254936Y-15446578D01*
X256254936Y-15446578D02*
X256921603Y-15579912D01*
X255054936Y-16046578D02*
X255054936Y-14646578D01*
X255054936Y-15979912D02*
X255188270Y-16046578D01*
X255188270Y-16046578D02*
X255454936Y-16046578D01*
X255454936Y-16046578D02*
X255588270Y-15979912D01*
X255588270Y-15979912D02*
X255654936Y-15913245D01*
X255654936Y-15913245D02*
X255721603Y-15779912D01*
X255721603Y-15779912D02*
X255721603Y-15379912D01*
X255721603Y-15379912D02*
X255654936Y-15246578D01*
X255654936Y-15246578D02*
X255588270Y-15179912D01*
X255588270Y-15179912D02*
X255454936Y-15113245D01*
X255454936Y-15113245D02*
X255188270Y-15113245D01*
X255188270Y-15113245D02*
X255054936Y-15179912D01*
X253321602Y-16046578D02*
X253321602Y-14646578D01*
X253321602Y-15179912D02*
X253188269Y-15113245D01*
X253188269Y-15113245D02*
X252921602Y-15113245D01*
X252921602Y-15113245D02*
X252788269Y-15179912D01*
X252788269Y-15179912D02*
X252721602Y-15246578D01*
X252721602Y-15246578D02*
X252654936Y-15379912D01*
X252654936Y-15379912D02*
X252654936Y-15779912D01*
X252654936Y-15779912D02*
X252721602Y-15913245D01*
X252721602Y-15913245D02*
X252788269Y-15979912D01*
X252788269Y-15979912D02*
X252921602Y-16046578D01*
X252921602Y-16046578D02*
X253188269Y-16046578D01*
X253188269Y-16046578D02*
X253321602Y-15979912D01*
X252188269Y-15113245D02*
X251854935Y-16046578D01*
X251521602Y-15113245D02*
X251854935Y-16046578D01*
X251854935Y-16046578D02*
X251988269Y-16379912D01*
X251988269Y-16379912D02*
X252054935Y-16446578D01*
X252054935Y-16446578D02*
X252188269Y-16513245D01*
X249921601Y-16046578D02*
X249921601Y-14646578D01*
X249921601Y-14646578D02*
X249388268Y-14646578D01*
X249388268Y-14646578D02*
X249254935Y-14713245D01*
X249254935Y-14713245D02*
X249188268Y-14779912D01*
X249188268Y-14779912D02*
X249121601Y-14913245D01*
X249121601Y-14913245D02*
X249121601Y-15113245D01*
X249121601Y-15113245D02*
X249188268Y-15246578D01*
X249188268Y-15246578D02*
X249254935Y-15313245D01*
X249254935Y-15313245D02*
X249388268Y-15379912D01*
X249388268Y-15379912D02*
X249921601Y-15379912D01*
X248654935Y-15113245D02*
X248321601Y-16046578D01*
X247988268Y-15113245D02*
X248321601Y-16046578D01*
X248321601Y-16046578D02*
X248454935Y-16379912D01*
X248454935Y-16379912D02*
X248521601Y-16446578D01*
X248521601Y-16446578D02*
X248654935Y-16513245D01*
X247254934Y-16046578D02*
X247388268Y-15979912D01*
X247388268Y-15979912D02*
X247454934Y-15846578D01*
X247454934Y-15846578D02*
X247454934Y-14646578D01*
X246521601Y-16046578D02*
X246654935Y-15979912D01*
X246654935Y-15979912D02*
X246721601Y-15913245D01*
X246721601Y-15913245D02*
X246788268Y-15779912D01*
X246788268Y-15779912D02*
X246788268Y-15379912D01*
X246788268Y-15379912D02*
X246721601Y-15246578D01*
X246721601Y-15246578D02*
X246654935Y-15179912D01*
X246654935Y-15179912D02*
X246521601Y-15113245D01*
X246521601Y-15113245D02*
X246321601Y-15113245D01*
X246321601Y-15113245D02*
X246188268Y-15179912D01*
X246188268Y-15179912D02*
X246121601Y-15246578D01*
X246121601Y-15246578D02*
X246054935Y-15379912D01*
X246054935Y-15379912D02*
X246054935Y-15779912D01*
X246054935Y-15779912D02*
X246121601Y-15913245D01*
X246121601Y-15913245D02*
X246188268Y-15979912D01*
X246188268Y-15979912D02*
X246321601Y-16046578D01*
X246321601Y-16046578D02*
X246521601Y-16046578D01*
X245454934Y-15113245D02*
X245454934Y-16046578D01*
X245454934Y-15246578D02*
X245388268Y-15179912D01*
X245388268Y-15179912D02*
X245254934Y-15113245D01*
X245254934Y-15113245D02*
X245054934Y-15113245D01*
X245054934Y-15113245D02*
X244921601Y-15179912D01*
X244921601Y-15179912D02*
X244854934Y-15313245D01*
X244854934Y-15313245D02*
X244854934Y-16046578D01*
X243121600Y-15513245D02*
X242054934Y-15513245D01*
X240121600Y-16046578D02*
X240254934Y-15979912D01*
X240254934Y-15979912D02*
X240321600Y-15913245D01*
X240321600Y-15913245D02*
X240388267Y-15779912D01*
X240388267Y-15779912D02*
X240388267Y-15379912D01*
X240388267Y-15379912D02*
X240321600Y-15246578D01*
X240321600Y-15246578D02*
X240254934Y-15179912D01*
X240254934Y-15179912D02*
X240121600Y-15113245D01*
X240121600Y-15113245D02*
X239921600Y-15113245D01*
X239921600Y-15113245D02*
X239788267Y-15179912D01*
X239788267Y-15179912D02*
X239721600Y-15246578D01*
X239721600Y-15246578D02*
X239654934Y-15379912D01*
X239654934Y-15379912D02*
X239654934Y-15779912D01*
X239654934Y-15779912D02*
X239721600Y-15913245D01*
X239721600Y-15913245D02*
X239788267Y-15979912D01*
X239788267Y-15979912D02*
X239921600Y-16046578D01*
X239921600Y-16046578D02*
X240121600Y-16046578D01*
X239054933Y-15113245D02*
X239054933Y-16513245D01*
X239054933Y-15179912D02*
X238921600Y-15113245D01*
X238921600Y-15113245D02*
X238654933Y-15113245D01*
X238654933Y-15113245D02*
X238521600Y-15179912D01*
X238521600Y-15179912D02*
X238454933Y-15246578D01*
X238454933Y-15246578D02*
X238388267Y-15379912D01*
X238388267Y-15379912D02*
X238388267Y-15779912D01*
X238388267Y-15779912D02*
X238454933Y-15913245D01*
X238454933Y-15913245D02*
X238521600Y-15979912D01*
X238521600Y-15979912D02*
X238654933Y-16046578D01*
X238654933Y-16046578D02*
X238921600Y-16046578D01*
X238921600Y-16046578D02*
X239054933Y-15979912D01*
X237254933Y-15979912D02*
X237388266Y-16046578D01*
X237388266Y-16046578D02*
X237654933Y-16046578D01*
X237654933Y-16046578D02*
X237788266Y-15979912D01*
X237788266Y-15979912D02*
X237854933Y-15846578D01*
X237854933Y-15846578D02*
X237854933Y-15313245D01*
X237854933Y-15313245D02*
X237788266Y-15179912D01*
X237788266Y-15179912D02*
X237654933Y-15113245D01*
X237654933Y-15113245D02*
X237388266Y-15113245D01*
X237388266Y-15113245D02*
X237254933Y-15179912D01*
X237254933Y-15179912D02*
X237188266Y-15313245D01*
X237188266Y-15313245D02*
X237188266Y-15446578D01*
X237188266Y-15446578D02*
X237854933Y-15579912D01*
X236588266Y-15113245D02*
X236588266Y-16046578D01*
X236588266Y-15246578D02*
X236521600Y-15179912D01*
X236521600Y-15179912D02*
X236388266Y-15113245D01*
X236388266Y-15113245D02*
X236188266Y-15113245D01*
X236188266Y-15113245D02*
X236054933Y-15179912D01*
X236054933Y-15179912D02*
X235988266Y-15313245D01*
X235988266Y-15313245D02*
X235988266Y-16046578D01*
X234321599Y-15979912D02*
X234188266Y-16046578D01*
X234188266Y-16046578D02*
X233921599Y-16046578D01*
X233921599Y-16046578D02*
X233788266Y-15979912D01*
X233788266Y-15979912D02*
X233721599Y-15846578D01*
X233721599Y-15846578D02*
X233721599Y-15779912D01*
X233721599Y-15779912D02*
X233788266Y-15646578D01*
X233788266Y-15646578D02*
X233921599Y-15579912D01*
X233921599Y-15579912D02*
X234121599Y-15579912D01*
X234121599Y-15579912D02*
X234254932Y-15513245D01*
X234254932Y-15513245D02*
X234321599Y-15379912D01*
X234321599Y-15379912D02*
X234321599Y-15313245D01*
X234321599Y-15313245D02*
X234254932Y-15179912D01*
X234254932Y-15179912D02*
X234121599Y-15113245D01*
X234121599Y-15113245D02*
X233921599Y-15113245D01*
X233921599Y-15113245D02*
X233788266Y-15179912D01*
X232921599Y-16046578D02*
X233054933Y-15979912D01*
X233054933Y-15979912D02*
X233121599Y-15913245D01*
X233121599Y-15913245D02*
X233188266Y-15779912D01*
X233188266Y-15779912D02*
X233188266Y-15379912D01*
X233188266Y-15379912D02*
X233121599Y-15246578D01*
X233121599Y-15246578D02*
X233054933Y-15179912D01*
X233054933Y-15179912D02*
X232921599Y-15113245D01*
X232921599Y-15113245D02*
X232721599Y-15113245D01*
X232721599Y-15113245D02*
X232588266Y-15179912D01*
X232588266Y-15179912D02*
X232521599Y-15246578D01*
X232521599Y-15246578D02*
X232454933Y-15379912D01*
X232454933Y-15379912D02*
X232454933Y-15779912D01*
X232454933Y-15779912D02*
X232521599Y-15913245D01*
X232521599Y-15913245D02*
X232588266Y-15979912D01*
X232588266Y-15979912D02*
X232721599Y-16046578D01*
X232721599Y-16046578D02*
X232921599Y-16046578D01*
X231254932Y-15113245D02*
X231254932Y-16046578D01*
X231854932Y-15113245D02*
X231854932Y-15846578D01*
X231854932Y-15846578D02*
X231788266Y-15979912D01*
X231788266Y-15979912D02*
X231654932Y-16046578D01*
X231654932Y-16046578D02*
X231454932Y-16046578D01*
X231454932Y-16046578D02*
X231321599Y-15979912D01*
X231321599Y-15979912D02*
X231254932Y-15913245D01*
X230588265Y-16046578D02*
X230588265Y-15113245D01*
X230588265Y-15379912D02*
X230521599Y-15246578D01*
X230521599Y-15246578D02*
X230454932Y-15179912D01*
X230454932Y-15179912D02*
X230321599Y-15113245D01*
X230321599Y-15113245D02*
X230188265Y-15113245D01*
X229121598Y-15979912D02*
X229254932Y-16046578D01*
X229254932Y-16046578D02*
X229521598Y-16046578D01*
X229521598Y-16046578D02*
X229654932Y-15979912D01*
X229654932Y-15979912D02*
X229721598Y-15913245D01*
X229721598Y-15913245D02*
X229788265Y-15779912D01*
X229788265Y-15779912D02*
X229788265Y-15379912D01*
X229788265Y-15379912D02*
X229721598Y-15246578D01*
X229721598Y-15246578D02*
X229654932Y-15179912D01*
X229654932Y-15179912D02*
X229521598Y-15113245D01*
X229521598Y-15113245D02*
X229254932Y-15113245D01*
X229254932Y-15113245D02*
X229121598Y-15179912D01*
X227988265Y-15979912D02*
X228121598Y-16046578D01*
X228121598Y-16046578D02*
X228388265Y-16046578D01*
X228388265Y-16046578D02*
X228521598Y-15979912D01*
X228521598Y-15979912D02*
X228588265Y-15846578D01*
X228588265Y-15846578D02*
X228588265Y-15313245D01*
X228588265Y-15313245D02*
X228521598Y-15179912D01*
X228521598Y-15179912D02*
X228388265Y-15113245D01*
X228388265Y-15113245D02*
X228121598Y-15113245D01*
X228121598Y-15113245D02*
X227988265Y-15179912D01*
X227988265Y-15179912D02*
X227921598Y-15313245D01*
X227921598Y-15313245D02*
X227921598Y-15446578D01*
X227921598Y-15446578D02*
X228588265Y-15579912D01*
X225654931Y-16046578D02*
X225654931Y-15313245D01*
X225654931Y-15313245D02*
X225721598Y-15179912D01*
X225721598Y-15179912D02*
X225854931Y-15113245D01*
X225854931Y-15113245D02*
X226121598Y-15113245D01*
X226121598Y-15113245D02*
X226254931Y-15179912D01*
X225654931Y-15979912D02*
X225788265Y-16046578D01*
X225788265Y-16046578D02*
X226121598Y-16046578D01*
X226121598Y-16046578D02*
X226254931Y-15979912D01*
X226254931Y-15979912D02*
X226321598Y-15846578D01*
X226321598Y-15846578D02*
X226321598Y-15713245D01*
X226321598Y-15713245D02*
X226254931Y-15579912D01*
X226254931Y-15579912D02*
X226121598Y-15513245D01*
X226121598Y-15513245D02*
X225788265Y-15513245D01*
X225788265Y-15513245D02*
X225654931Y-15446578D01*
X225188264Y-15113245D02*
X224654931Y-15113245D01*
X224988264Y-14646578D02*
X224988264Y-15846578D01*
X224988264Y-15846578D02*
X224921598Y-15979912D01*
X224921598Y-15979912D02*
X224788264Y-16046578D01*
X224788264Y-16046578D02*
X224654931Y-16046578D01*
X223121597Y-16046578D02*
X223121597Y-14646578D01*
X222521597Y-16046578D02*
X222521597Y-15313245D01*
X222521597Y-15313245D02*
X222588264Y-15179912D01*
X222588264Y-15179912D02*
X222721597Y-15113245D01*
X222721597Y-15113245D02*
X222921597Y-15113245D01*
X222921597Y-15113245D02*
X223054931Y-15179912D01*
X223054931Y-15179912D02*
X223121597Y-15246578D01*
X222054930Y-15113245D02*
X221521597Y-15113245D01*
X221854930Y-14646578D02*
X221854930Y-15846578D01*
X221854930Y-15846578D02*
X221788264Y-15979912D01*
X221788264Y-15979912D02*
X221654930Y-16046578D01*
X221654930Y-16046578D02*
X221521597Y-16046578D01*
X221254930Y-15113245D02*
X220721597Y-15113245D01*
X221054930Y-14646578D02*
X221054930Y-15846578D01*
X221054930Y-15846578D02*
X220988264Y-15979912D01*
X220988264Y-15979912D02*
X220854930Y-16046578D01*
X220854930Y-16046578D02*
X220721597Y-16046578D01*
X220254930Y-15113245D02*
X220254930Y-16513245D01*
X220254930Y-15179912D02*
X220121597Y-15113245D01*
X220121597Y-15113245D02*
X219854930Y-15113245D01*
X219854930Y-15113245D02*
X219721597Y-15179912D01*
X219721597Y-15179912D02*
X219654930Y-15246578D01*
X219654930Y-15246578D02*
X219588264Y-15379912D01*
X219588264Y-15379912D02*
X219588264Y-15779912D01*
X219588264Y-15779912D02*
X219654930Y-15913245D01*
X219654930Y-15913245D02*
X219721597Y-15979912D01*
X219721597Y-15979912D02*
X219854930Y-16046578D01*
X219854930Y-16046578D02*
X220121597Y-16046578D01*
X220121597Y-16046578D02*
X220254930Y-15979912D01*
X218988263Y-15913245D02*
X218921597Y-15979912D01*
X218921597Y-15979912D02*
X218988263Y-16046578D01*
X218988263Y-16046578D02*
X219054930Y-15979912D01*
X219054930Y-15979912D02*
X218988263Y-15913245D01*
X218988263Y-15913245D02*
X218988263Y-16046578D01*
X218988263Y-15179912D02*
X218921597Y-15246578D01*
X218921597Y-15246578D02*
X218988263Y-15313245D01*
X218988263Y-15313245D02*
X219054930Y-15246578D01*
X219054930Y-15246578D02*
X218988263Y-15179912D01*
X218988263Y-15179912D02*
X218988263Y-15313245D01*
X217321596Y-14579912D02*
X218521596Y-16379912D01*
X215854929Y-14579912D02*
X217054929Y-16379912D01*
X214788262Y-15113245D02*
X214788262Y-16246578D01*
X214788262Y-16246578D02*
X214854929Y-16379912D01*
X214854929Y-16379912D02*
X214921596Y-16446578D01*
X214921596Y-16446578D02*
X215054929Y-16513245D01*
X215054929Y-16513245D02*
X215254929Y-16513245D01*
X215254929Y-16513245D02*
X215388262Y-16446578D01*
X214788262Y-15979912D02*
X214921596Y-16046578D01*
X214921596Y-16046578D02*
X215188262Y-16046578D01*
X215188262Y-16046578D02*
X215321596Y-15979912D01*
X215321596Y-15979912D02*
X215388262Y-15913245D01*
X215388262Y-15913245D02*
X215454929Y-15779912D01*
X215454929Y-15779912D02*
X215454929Y-15379912D01*
X215454929Y-15379912D02*
X215388262Y-15246578D01*
X215388262Y-15246578D02*
X215321596Y-15179912D01*
X215321596Y-15179912D02*
X215188262Y-15113245D01*
X215188262Y-15113245D02*
X214921596Y-15113245D01*
X214921596Y-15113245D02*
X214788262Y-15179912D01*
X214121595Y-16046578D02*
X214121595Y-15113245D01*
X214121595Y-14646578D02*
X214188262Y-14713245D01*
X214188262Y-14713245D02*
X214121595Y-14779912D01*
X214121595Y-14779912D02*
X214054929Y-14713245D01*
X214054929Y-14713245D02*
X214121595Y-14646578D01*
X214121595Y-14646578D02*
X214121595Y-14779912D01*
X213654928Y-15113245D02*
X213121595Y-15113245D01*
X213454928Y-14646578D02*
X213454928Y-15846578D01*
X213454928Y-15846578D02*
X213388262Y-15979912D01*
X213388262Y-15979912D02*
X213254928Y-16046578D01*
X213254928Y-16046578D02*
X213121595Y-16046578D01*
X212654928Y-16046578D02*
X212654928Y-14646578D01*
X212054928Y-16046578D02*
X212054928Y-15313245D01*
X212054928Y-15313245D02*
X212121595Y-15179912D01*
X212121595Y-15179912D02*
X212254928Y-15113245D01*
X212254928Y-15113245D02*
X212454928Y-15113245D01*
X212454928Y-15113245D02*
X212588262Y-15179912D01*
X212588262Y-15179912D02*
X212654928Y-15246578D01*
X210788261Y-15113245D02*
X210788261Y-16046578D01*
X211388261Y-15113245D02*
X211388261Y-15846578D01*
X211388261Y-15846578D02*
X211321595Y-15979912D01*
X211321595Y-15979912D02*
X211188261Y-16046578D01*
X211188261Y-16046578D02*
X210988261Y-16046578D01*
X210988261Y-16046578D02*
X210854928Y-15979912D01*
X210854928Y-15979912D02*
X210788261Y-15913245D01*
X210121594Y-16046578D02*
X210121594Y-14646578D01*
X210121594Y-15179912D02*
X209988261Y-15113245D01*
X209988261Y-15113245D02*
X209721594Y-15113245D01*
X209721594Y-15113245D02*
X209588261Y-15179912D01*
X209588261Y-15179912D02*
X209521594Y-15246578D01*
X209521594Y-15246578D02*
X209454928Y-15379912D01*
X209454928Y-15379912D02*
X209454928Y-15779912D01*
X209454928Y-15779912D02*
X209521594Y-15913245D01*
X209521594Y-15913245D02*
X209588261Y-15979912D01*
X209588261Y-15979912D02*
X209721594Y-16046578D01*
X209721594Y-16046578D02*
X209988261Y-16046578D01*
X209988261Y-16046578D02*
X210121594Y-15979912D01*
X208854927Y-15913245D02*
X208788261Y-15979912D01*
X208788261Y-15979912D02*
X208854927Y-16046578D01*
X208854927Y-16046578D02*
X208921594Y-15979912D01*
X208921594Y-15979912D02*
X208854927Y-15913245D01*
X208854927Y-15913245D02*
X208854927Y-16046578D01*
X207588260Y-15979912D02*
X207721594Y-16046578D01*
X207721594Y-16046578D02*
X207988260Y-16046578D01*
X207988260Y-16046578D02*
X208121594Y-15979912D01*
X208121594Y-15979912D02*
X208188260Y-15913245D01*
X208188260Y-15913245D02*
X208254927Y-15779912D01*
X208254927Y-15779912D02*
X208254927Y-15379912D01*
X208254927Y-15379912D02*
X208188260Y-15246578D01*
X208188260Y-15246578D02*
X208121594Y-15179912D01*
X208121594Y-15179912D02*
X207988260Y-15113245D01*
X207988260Y-15113245D02*
X207721594Y-15113245D01*
X207721594Y-15113245D02*
X207588260Y-15179912D01*
X206788260Y-16046578D02*
X206921594Y-15979912D01*
X206921594Y-15979912D02*
X206988260Y-15913245D01*
X206988260Y-15913245D02*
X207054927Y-15779912D01*
X207054927Y-15779912D02*
X207054927Y-15379912D01*
X207054927Y-15379912D02*
X206988260Y-15246578D01*
X206988260Y-15246578D02*
X206921594Y-15179912D01*
X206921594Y-15179912D02*
X206788260Y-15113245D01*
X206788260Y-15113245D02*
X206588260Y-15113245D01*
X206588260Y-15113245D02*
X206454927Y-15179912D01*
X206454927Y-15179912D02*
X206388260Y-15246578D01*
X206388260Y-15246578D02*
X206321594Y-15379912D01*
X206321594Y-15379912D02*
X206321594Y-15779912D01*
X206321594Y-15779912D02*
X206388260Y-15913245D01*
X206388260Y-15913245D02*
X206454927Y-15979912D01*
X206454927Y-15979912D02*
X206588260Y-16046578D01*
X206588260Y-16046578D02*
X206788260Y-16046578D01*
X205721593Y-16046578D02*
X205721593Y-15113245D01*
X205721593Y-15246578D02*
X205654927Y-15179912D01*
X205654927Y-15179912D02*
X205521593Y-15113245D01*
X205521593Y-15113245D02*
X205321593Y-15113245D01*
X205321593Y-15113245D02*
X205188260Y-15179912D01*
X205188260Y-15179912D02*
X205121593Y-15313245D01*
X205121593Y-15313245D02*
X205121593Y-16046578D01*
X205121593Y-15313245D02*
X205054927Y-15179912D01*
X205054927Y-15179912D02*
X204921593Y-15113245D01*
X204921593Y-15113245D02*
X204721593Y-15113245D01*
X204721593Y-15113245D02*
X204588260Y-15179912D01*
X204588260Y-15179912D02*
X204521593Y-15313245D01*
X204521593Y-15313245D02*
X204521593Y-16046578D01*
X202854926Y-14579912D02*
X204054926Y-16379912D01*
X202388259Y-16046578D02*
X202388259Y-14646578D01*
X202388259Y-15179912D02*
X202254926Y-15113245D01*
X202254926Y-15113245D02*
X201988259Y-15113245D01*
X201988259Y-15113245D02*
X201854926Y-15179912D01*
X201854926Y-15179912D02*
X201788259Y-15246578D01*
X201788259Y-15246578D02*
X201721593Y-15379912D01*
X201721593Y-15379912D02*
X201721593Y-15779912D01*
X201721593Y-15779912D02*
X201788259Y-15913245D01*
X201788259Y-15913245D02*
X201854926Y-15979912D01*
X201854926Y-15979912D02*
X201988259Y-16046578D01*
X201988259Y-16046578D02*
X202254926Y-16046578D01*
X202254926Y-16046578D02*
X202388259Y-15979912D01*
X200921592Y-16046578D02*
X201054926Y-15979912D01*
X201054926Y-15979912D02*
X201121592Y-15846578D01*
X201121592Y-15846578D02*
X201121592Y-14646578D01*
X199788259Y-15113245D02*
X199788259Y-16046578D01*
X200388259Y-15113245D02*
X200388259Y-15846578D01*
X200388259Y-15846578D02*
X200321593Y-15979912D01*
X200321593Y-15979912D02*
X200188259Y-16046578D01*
X200188259Y-16046578D02*
X199988259Y-16046578D01*
X199988259Y-16046578D02*
X199854926Y-15979912D01*
X199854926Y-15979912D02*
X199788259Y-15913245D01*
X198588259Y-15979912D02*
X198721592Y-16046578D01*
X198721592Y-16046578D02*
X198988259Y-16046578D01*
X198988259Y-16046578D02*
X199121592Y-15979912D01*
X199121592Y-15979912D02*
X199188259Y-15846578D01*
X199188259Y-15846578D02*
X199188259Y-15313245D01*
X199188259Y-15313245D02*
X199121592Y-15179912D01*
X199121592Y-15179912D02*
X198988259Y-15113245D01*
X198988259Y-15113245D02*
X198721592Y-15113245D01*
X198721592Y-15113245D02*
X198588259Y-15179912D01*
X198588259Y-15179912D02*
X198521592Y-15313245D01*
X198521592Y-15313245D02*
X198521592Y-15446578D01*
X198521592Y-15446578D02*
X199188259Y-15579912D01*
X197921592Y-15113245D02*
X197921592Y-16513245D01*
X197921592Y-15179912D02*
X197788259Y-15113245D01*
X197788259Y-15113245D02*
X197521592Y-15113245D01*
X197521592Y-15113245D02*
X197388259Y-15179912D01*
X197388259Y-15179912D02*
X197321592Y-15246578D01*
X197321592Y-15246578D02*
X197254926Y-15379912D01*
X197254926Y-15379912D02*
X197254926Y-15779912D01*
X197254926Y-15779912D02*
X197321592Y-15913245D01*
X197321592Y-15913245D02*
X197388259Y-15979912D01*
X197388259Y-15979912D02*
X197521592Y-16046578D01*
X197521592Y-16046578D02*
X197788259Y-16046578D01*
X197788259Y-16046578D02*
X197921592Y-15979912D01*
X196788259Y-15113245D02*
X196454925Y-16046578D01*
X196121592Y-15113245D02*
X196454925Y-16046578D01*
X196454925Y-16046578D02*
X196588259Y-16379912D01*
X196588259Y-16379912D02*
X196654925Y-16446578D01*
X196654925Y-16446578D02*
X196788259Y-16513245D01*
X195388258Y-16046578D02*
X195521592Y-15979912D01*
X195521592Y-15979912D02*
X195588258Y-15846578D01*
X195588258Y-15846578D02*
X195588258Y-14646578D01*
X194654925Y-16046578D02*
X194788259Y-15979912D01*
X194788259Y-15979912D02*
X194854925Y-15913245D01*
X194854925Y-15913245D02*
X194921592Y-15779912D01*
X194921592Y-15779912D02*
X194921592Y-15379912D01*
X194921592Y-15379912D02*
X194854925Y-15246578D01*
X194854925Y-15246578D02*
X194788259Y-15179912D01*
X194788259Y-15179912D02*
X194654925Y-15113245D01*
X194654925Y-15113245D02*
X194454925Y-15113245D01*
X194454925Y-15113245D02*
X194321592Y-15179912D01*
X194321592Y-15179912D02*
X194254925Y-15246578D01*
X194254925Y-15246578D02*
X194188259Y-15379912D01*
X194188259Y-15379912D02*
X194188259Y-15779912D01*
X194188259Y-15779912D02*
X194254925Y-15913245D01*
X194254925Y-15913245D02*
X194321592Y-15979912D01*
X194321592Y-15979912D02*
X194454925Y-16046578D01*
X194454925Y-16046578D02*
X194654925Y-16046578D01*
X193588258Y-15113245D02*
X193588258Y-16046578D01*
X193588258Y-15246578D02*
X193521592Y-15179912D01*
X193521592Y-15179912D02*
X193388258Y-15113245D01*
X193388258Y-15113245D02*
X193188258Y-15113245D01*
X193188258Y-15113245D02*
X193054925Y-15179912D01*
X193054925Y-15179912D02*
X192988258Y-15313245D01*
X192988258Y-15313245D02*
X192988258Y-16046578D01*
X192388258Y-15979912D02*
X192254925Y-16046578D01*
X192254925Y-16046578D02*
X191988258Y-16046578D01*
X191988258Y-16046578D02*
X191854925Y-15979912D01*
X191854925Y-15979912D02*
X191788258Y-15846578D01*
X191788258Y-15846578D02*
X191788258Y-15779912D01*
X191788258Y-15779912D02*
X191854925Y-15646578D01*
X191854925Y-15646578D02*
X191988258Y-15579912D01*
X191988258Y-15579912D02*
X192188258Y-15579912D01*
X192188258Y-15579912D02*
X192321591Y-15513245D01*
X192321591Y-15513245D02*
X192388258Y-15379912D01*
X192388258Y-15379912D02*
X192388258Y-15313245D01*
X192388258Y-15313245D02*
X192321591Y-15179912D01*
X192321591Y-15179912D02*
X192188258Y-15113245D01*
X192188258Y-15113245D02*
X191988258Y-15113245D01*
X191988258Y-15113245D02*
X191854925Y-15179912D01*
X190188258Y-14579912D02*
X191388258Y-16379912D01*
X189254925Y-15313245D02*
X189054925Y-15379912D01*
X189054925Y-15379912D02*
X188988258Y-15446578D01*
X188988258Y-15446578D02*
X188921591Y-15579912D01*
X188921591Y-15579912D02*
X188921591Y-15779912D01*
X188921591Y-15779912D02*
X188988258Y-15913245D01*
X188988258Y-15913245D02*
X189054925Y-15979912D01*
X189054925Y-15979912D02*
X189188258Y-16046578D01*
X189188258Y-16046578D02*
X189721591Y-16046578D01*
X189721591Y-16046578D02*
X189721591Y-14646578D01*
X189721591Y-14646578D02*
X189254925Y-14646578D01*
X189254925Y-14646578D02*
X189121591Y-14713245D01*
X189121591Y-14713245D02*
X189054925Y-14779912D01*
X189054925Y-14779912D02*
X188988258Y-14913245D01*
X188988258Y-14913245D02*
X188988258Y-15046578D01*
X188988258Y-15046578D02*
X189054925Y-15179912D01*
X189054925Y-15179912D02*
X189121591Y-15246578D01*
X189121591Y-15246578D02*
X189254925Y-15313245D01*
X189254925Y-15313245D02*
X189721591Y-15313245D01*
X188121591Y-16046578D02*
X188254925Y-15979912D01*
X188254925Y-15979912D02*
X188321591Y-15913245D01*
X188321591Y-15913245D02*
X188388258Y-15779912D01*
X188388258Y-15779912D02*
X188388258Y-15379912D01*
X188388258Y-15379912D02*
X188321591Y-15246578D01*
X188321591Y-15246578D02*
X188254925Y-15179912D01*
X188254925Y-15179912D02*
X188121591Y-15113245D01*
X188121591Y-15113245D02*
X187921591Y-15113245D01*
X187921591Y-15113245D02*
X187788258Y-15179912D01*
X187788258Y-15179912D02*
X187721591Y-15246578D01*
X187721591Y-15246578D02*
X187654925Y-15379912D01*
X187654925Y-15379912D02*
X187654925Y-15779912D01*
X187654925Y-15779912D02*
X187721591Y-15913245D01*
X187721591Y-15913245D02*
X187788258Y-15979912D01*
X187788258Y-15979912D02*
X187921591Y-16046578D01*
X187921591Y-16046578D02*
X188121591Y-16046578D01*
X187121591Y-15979912D02*
X186988258Y-16046578D01*
X186988258Y-16046578D02*
X186721591Y-16046578D01*
X186721591Y-16046578D02*
X186588258Y-15979912D01*
X186588258Y-15979912D02*
X186521591Y-15846578D01*
X186521591Y-15846578D02*
X186521591Y-15779912D01*
X186521591Y-15779912D02*
X186588258Y-15646578D01*
X186588258Y-15646578D02*
X186721591Y-15579912D01*
X186721591Y-15579912D02*
X186921591Y-15579912D01*
X186921591Y-15579912D02*
X187054924Y-15513245D01*
X187054924Y-15513245D02*
X187121591Y-15379912D01*
X187121591Y-15379912D02*
X187121591Y-15313245D01*
X187121591Y-15313245D02*
X187054924Y-15179912D01*
X187054924Y-15179912D02*
X186921591Y-15113245D01*
X186921591Y-15113245D02*
X186721591Y-15113245D01*
X186721591Y-15113245D02*
X186588258Y-15179912D01*
X186121591Y-15113245D02*
X185588258Y-15113245D01*
X185921591Y-14646578D02*
X185921591Y-15846578D01*
X185921591Y-15846578D02*
X185854925Y-15979912D01*
X185854925Y-15979912D02*
X185721591Y-16046578D01*
X185721591Y-16046578D02*
X185588258Y-16046578D01*
X184921591Y-16046578D02*
X185054925Y-15979912D01*
X185054925Y-15979912D02*
X185121591Y-15913245D01*
X185121591Y-15913245D02*
X185188258Y-15779912D01*
X185188258Y-15779912D02*
X185188258Y-15379912D01*
X185188258Y-15379912D02*
X185121591Y-15246578D01*
X185121591Y-15246578D02*
X185054925Y-15179912D01*
X185054925Y-15179912D02*
X184921591Y-15113245D01*
X184921591Y-15113245D02*
X184721591Y-15113245D01*
X184721591Y-15113245D02*
X184588258Y-15179912D01*
X184588258Y-15179912D02*
X184521591Y-15246578D01*
X184521591Y-15246578D02*
X184454925Y-15379912D01*
X184454925Y-15379912D02*
X184454925Y-15779912D01*
X184454925Y-15779912D02*
X184521591Y-15913245D01*
X184521591Y-15913245D02*
X184588258Y-15979912D01*
X184588258Y-15979912D02*
X184721591Y-16046578D01*
X184721591Y-16046578D02*
X184921591Y-16046578D01*
X183854924Y-15113245D02*
X183854924Y-16046578D01*
X183854924Y-15246578D02*
X183788258Y-15179912D01*
X183788258Y-15179912D02*
X183654924Y-15113245D01*
X183654924Y-15113245D02*
X183454924Y-15113245D01*
X183454924Y-15113245D02*
X183321591Y-15179912D01*
X183321591Y-15179912D02*
X183254924Y-15313245D01*
X183254924Y-15313245D02*
X183254924Y-16046578D01*
D11*
X377719048Y-13854819D02*
X377719048Y-14569104D01*
X377719048Y-14569104D02*
X377766667Y-14711961D01*
X377766667Y-14711961D02*
X377861905Y-14807200D01*
X377861905Y-14807200D02*
X378004762Y-14854819D01*
X378004762Y-14854819D02*
X378100000Y-14854819D01*
X376766667Y-14854819D02*
X377242857Y-14854819D01*
X377242857Y-14854819D02*
X377242857Y-13854819D01*
X375861905Y-14759580D02*
X375909524Y-14807200D01*
X375909524Y-14807200D02*
X376052381Y-14854819D01*
X376052381Y-14854819D02*
X376147619Y-14854819D01*
X376147619Y-14854819D02*
X376290476Y-14807200D01*
X376290476Y-14807200D02*
X376385714Y-14711961D01*
X376385714Y-14711961D02*
X376433333Y-14616723D01*
X376433333Y-14616723D02*
X376480952Y-14426247D01*
X376480952Y-14426247D02*
X376480952Y-14283390D01*
X376480952Y-14283390D02*
X376433333Y-14092914D01*
X376433333Y-14092914D02*
X376385714Y-13997676D01*
X376385714Y-13997676D02*
X376290476Y-13902438D01*
X376290476Y-13902438D02*
X376147619Y-13854819D01*
X376147619Y-13854819D02*
X376052381Y-13854819D01*
X376052381Y-13854819D02*
X375909524Y-13902438D01*
X375909524Y-13902438D02*
X375861905Y-13950057D01*
X375147619Y-13854819D02*
X375147619Y-14569104D01*
X375147619Y-14569104D02*
X375195238Y-14711961D01*
X375195238Y-14711961D02*
X375290476Y-14807200D01*
X375290476Y-14807200D02*
X375433333Y-14854819D01*
X375433333Y-14854819D02*
X375528571Y-14854819D01*
X374195238Y-14854819D02*
X374671428Y-14854819D01*
X374671428Y-14854819D02*
X374671428Y-13854819D01*
X373290476Y-14759580D02*
X373338095Y-14807200D01*
X373338095Y-14807200D02*
X373480952Y-14854819D01*
X373480952Y-14854819D02*
X373576190Y-14854819D01*
X373576190Y-14854819D02*
X373719047Y-14807200D01*
X373719047Y-14807200D02*
X373814285Y-14711961D01*
X373814285Y-14711961D02*
X373861904Y-14616723D01*
X373861904Y-14616723D02*
X373909523Y-14426247D01*
X373909523Y-14426247D02*
X373909523Y-14283390D01*
X373909523Y-14283390D02*
X373861904Y-14092914D01*
X373861904Y-14092914D02*
X373814285Y-13997676D01*
X373814285Y-13997676D02*
X373719047Y-13902438D01*
X373719047Y-13902438D02*
X373576190Y-13854819D01*
X373576190Y-13854819D02*
X373480952Y-13854819D01*
X373480952Y-13854819D02*
X373338095Y-13902438D01*
X373338095Y-13902438D02*
X373290476Y-13950057D01*
X372576190Y-13854819D02*
X372576190Y-14569104D01*
X372576190Y-14569104D02*
X372623809Y-14711961D01*
X372623809Y-14711961D02*
X372719047Y-14807200D01*
X372719047Y-14807200D02*
X372861904Y-14854819D01*
X372861904Y-14854819D02*
X372957142Y-14854819D01*
X371623809Y-14854819D02*
X372099999Y-14854819D01*
X372099999Y-14854819D02*
X372099999Y-13854819D01*
X370719047Y-14759580D02*
X370766666Y-14807200D01*
X370766666Y-14807200D02*
X370909523Y-14854819D01*
X370909523Y-14854819D02*
X371004761Y-14854819D01*
X371004761Y-14854819D02*
X371147618Y-14807200D01*
X371147618Y-14807200D02*
X371242856Y-14711961D01*
X371242856Y-14711961D02*
X371290475Y-14616723D01*
X371290475Y-14616723D02*
X371338094Y-14426247D01*
X371338094Y-14426247D02*
X371338094Y-14283390D01*
X371338094Y-14283390D02*
X371290475Y-14092914D01*
X371290475Y-14092914D02*
X371242856Y-13997676D01*
X371242856Y-13997676D02*
X371147618Y-13902438D01*
X371147618Y-13902438D02*
X371004761Y-13854819D01*
X371004761Y-13854819D02*
X370909523Y-13854819D01*
X370909523Y-13854819D02*
X370766666Y-13902438D01*
X370766666Y-13902438D02*
X370719047Y-13950057D01*
X370004761Y-13854819D02*
X370004761Y-14569104D01*
X370004761Y-14569104D02*
X370052380Y-14711961D01*
X370052380Y-14711961D02*
X370147618Y-14807200D01*
X370147618Y-14807200D02*
X370290475Y-14854819D01*
X370290475Y-14854819D02*
X370385713Y-14854819D01*
X369052380Y-14854819D02*
X369528570Y-14854819D01*
X369528570Y-14854819D02*
X369528570Y-13854819D01*
X368147618Y-14759580D02*
X368195237Y-14807200D01*
X368195237Y-14807200D02*
X368338094Y-14854819D01*
X368338094Y-14854819D02*
X368433332Y-14854819D01*
X368433332Y-14854819D02*
X368576189Y-14807200D01*
X368576189Y-14807200D02*
X368671427Y-14711961D01*
X368671427Y-14711961D02*
X368719046Y-14616723D01*
X368719046Y-14616723D02*
X368766665Y-14426247D01*
X368766665Y-14426247D02*
X368766665Y-14283390D01*
X368766665Y-14283390D02*
X368719046Y-14092914D01*
X368719046Y-14092914D02*
X368671427Y-13997676D01*
X368671427Y-13997676D02*
X368576189Y-13902438D01*
X368576189Y-13902438D02*
X368433332Y-13854819D01*
X368433332Y-13854819D02*
X368338094Y-13854819D01*
X368338094Y-13854819D02*
X368195237Y-13902438D01*
X368195237Y-13902438D02*
X368147618Y-13950057D01*
M02*
