G04 #@! TF.GenerationSoftware,KiCad,Pcbnew,(6.0.11)*
G04 #@! TF.CreationDate,2023-03-19T22:58:01-04:00*
G04 #@! TF.ProjectId,Boston-PCB-V08D,426f7374-6f6e-42d5-9043-422d56303844,rev?*
G04 #@! TF.SameCoordinates,Original*
G04 #@! TF.FileFunction,Profile,NP*
%FSLAX46Y46*%
G04 Gerber Fmt 4.6, Leading zero omitted, Abs format (unit mm)*
G04 Created by KiCad (PCBNEW (6.0.11)) date 2023-03-19 22:58:01*
%MOMM*%
%LPD*%
G01*
G04 APERTURE LIST*
G04 #@! TA.AperFunction,Profile*
%ADD10C,0.050000*%
G04 #@! TD*
G04 APERTURE END LIST*
D10*
X448475000Y-31000000D02*
G75*
G03*
X445475000Y-28000000I-3000000J0D01*
G01*
X362000000Y-153425000D02*
X362000000Y-153925000D01*
X360000000Y-153425000D02*
X360000000Y-153925000D01*
X355500000Y-153925000D02*
G75*
G03*
X357500000Y-153925000I1000000J0D01*
G01*
X355000000Y-142425000D02*
G75*
G03*
X354500000Y-142925000I0J-500000D01*
G01*
X55000000Y-31000000D02*
X55000000Y-172000000D01*
X354500000Y-150425000D02*
G75*
G03*
X355000000Y-150925000I500000J0D01*
G01*
X357500000Y-153925000D02*
X357500000Y-153425000D01*
X354500000Y-150425000D02*
X354500000Y-142925000D01*
X355500000Y-153925000D02*
X355500000Y-153425000D01*
X241737000Y-28000000D02*
X261737000Y-28000000D01*
X355000000Y-142425000D02*
X362500000Y-142425000D01*
X448475000Y-31000000D02*
X448475000Y-172000000D01*
X365000000Y-142925000D02*
X365000000Y-150425000D01*
X362500000Y-150925000D02*
G75*
G03*
X363000000Y-150425000I0J500000D01*
G01*
X55000000Y-172000000D02*
G75*
G03*
X58000000Y-175000000I3000000J0D01*
G01*
X360000000Y-153925000D02*
G75*
G03*
X362000000Y-153925000I1000000J0D01*
G01*
X362500000Y-152925000D02*
G75*
G03*
X365000000Y-150425000I0J2500000D01*
G01*
X362500000Y-140425000D02*
X355000000Y-140425000D01*
X355500000Y-153425000D02*
G75*
G03*
X355000000Y-152925000I-500000J0D01*
G01*
X362500000Y-150925000D02*
G75*
G03*
X360000000Y-153425000I0J-2500000D01*
G01*
X445475000Y-175000000D02*
G75*
G03*
X448475000Y-172000000I0J3000000D01*
G01*
X363000000Y-142925000D02*
G75*
G03*
X362500000Y-142425000I-500000J0D01*
G01*
X241737000Y-28000000D02*
X58000000Y-28000000D01*
X363000000Y-142925000D02*
X363000000Y-150425000D01*
X58000000Y-28000000D02*
G75*
G03*
X55000000Y-31000000I0J-3000000D01*
G01*
X362500000Y-152925000D02*
G75*
G03*
X362000000Y-153425000I0J-500000D01*
G01*
X445475000Y-175000000D02*
X58000000Y-175000000D01*
X355000000Y-140425000D02*
G75*
G03*
X352500000Y-142925000I0J-2500000D01*
G01*
X357500000Y-153425000D02*
G75*
G03*
X355000000Y-150925000I-2500000J0D01*
G01*
X352500000Y-142925000D02*
X352500000Y-150425000D01*
X365000000Y-142925000D02*
G75*
G03*
X362500000Y-140425000I-2500000J0D01*
G01*
X352500000Y-150425000D02*
G75*
G03*
X355000000Y-152925000I2500000J0D01*
G01*
X261737000Y-28000000D02*
X445475000Y-28000000D01*
M02*
