G04 #@! TF.GenerationSoftware,KiCad,Pcbnew,7.0.1*
G04 #@! TF.CreationDate,2023-04-05T01:47:31-04:00*
G04 #@! TF.ProjectId,Boston-keyboard-V081DHA,426f7374-6f6e-42d6-9b65-79626f617264,rev?*
G04 #@! TF.SameCoordinates,Original*
G04 #@! TF.FileFunction,Soldermask,Top*
G04 #@! TF.FilePolarity,Negative*
%FSLAX46Y46*%
G04 Gerber Fmt 4.6, Leading zero omitted, Abs format (unit mm)*
G04 Created by KiCad (PCBNEW 7.0.1) date 2023-04-05 01:47:31*
%MOMM*%
%LPD*%
G01*
G04 APERTURE LIST*
%ADD10C,0.800000*%
%ADD11C,7.000000*%
%ADD12C,2.200000*%
%ADD13R,1.800000X1.800000*%
%ADD14C,1.800000*%
%ADD15C,1.448000*%
%ADD16C,2.000000*%
%ADD17R,1.700000X1.700000*%
%ADD18O,1.700000X1.700000*%
%ADD19C,3.500000*%
%ADD20C,1.701800*%
%ADD21C,3.048000*%
%ADD22C,3.987800*%
%ADD23O,2.768600X1.651000*%
%ADD24C,1.016000*%
%ADD25C,2.032000*%
%ADD26O,3.900000X2.799999*%
%ADD27C,4.250000*%
G04 APERTURE END LIST*
D10*
X356268500Y-146649500D03*
X357037345Y-144793345D03*
X357037345Y-148505655D03*
X358893500Y-144024500D03*
D11*
X358893500Y-146649500D03*
D10*
X358893500Y-149274500D03*
X360749655Y-144793345D03*
X360749655Y-148505655D03*
X361518500Y-146649500D03*
D12*
X304125200Y-48899992D03*
X389850272Y-96525032D03*
X427950304Y-48899992D03*
D13*
X338732500Y-72712500D03*
D14*
X336192500Y-72712500D03*
D15*
X447000000Y-31000000D03*
D13*
X357782500Y-72712500D03*
D14*
X355242500Y-72712500D03*
D16*
X291750000Y-147400000D03*
X291750000Y-140900000D03*
X296250000Y-147400000D03*
X296250000Y-140900000D03*
D17*
X82825000Y-30950000D03*
D18*
X80285000Y-30950000D03*
X77745000Y-30950000D03*
D15*
X57000000Y-172000000D03*
D12*
X266025168Y-153675080D03*
D15*
X57000000Y-32000000D03*
D12*
X199350112Y-96525032D03*
X104100032Y-153675080D03*
X204112500Y-48900000D03*
D19*
X427950304Y-153675080D03*
D12*
X81478138Y-96525032D03*
D17*
X325655625Y-39087500D03*
D18*
X323115625Y-39087500D03*
X325655625Y-41627500D03*
X323115625Y-41627500D03*
X325655625Y-44167500D03*
X323115625Y-44167500D03*
X325655625Y-46707500D03*
X323115625Y-46707500D03*
X325655625Y-49247500D03*
X323115625Y-49247500D03*
D13*
X376832500Y-72712500D03*
D14*
X374292500Y-72712500D03*
D15*
X447000000Y-172000000D03*
D20*
X280630000Y-87000000D03*
D21*
X278090000Y-81920000D03*
D22*
X275550000Y-87000000D03*
D21*
X271740000Y-84460000D03*
D20*
X270470000Y-87000000D03*
D22*
X401788000Y-171455000D03*
D21*
X401788000Y-156215000D03*
D20*
X394930000Y-163200000D03*
D21*
X392390000Y-158120000D03*
D22*
X389850000Y-163200000D03*
D21*
X386040000Y-160660000D03*
D20*
X384770000Y-163200000D03*
D22*
X377912000Y-171455000D03*
D21*
X377912000Y-156215000D03*
D20*
X256817500Y-125100000D03*
D21*
X254277500Y-120020000D03*
D22*
X251737500Y-125100000D03*
D21*
X247927500Y-122560000D03*
D20*
X246657500Y-125100000D03*
X423505000Y-163200000D03*
D21*
X420965000Y-158120000D03*
D22*
X418425000Y-163200000D03*
D21*
X414615000Y-160660000D03*
D20*
X413345000Y-163200000D03*
X261580000Y-163200000D03*
D21*
X259040000Y-158120000D03*
D22*
X256500000Y-163200000D03*
D21*
X252690000Y-160660000D03*
D20*
X251420000Y-163200000D03*
X99655000Y-58425000D03*
D21*
X97115000Y-53345000D03*
D22*
X94575000Y-58425000D03*
D21*
X90765000Y-55885000D03*
D20*
X89495000Y-58425000D03*
X309205000Y-106050000D03*
D21*
X306665000Y-100970000D03*
D22*
X304125000Y-106050000D03*
D21*
X300315000Y-103510000D03*
D20*
X299045000Y-106050000D03*
X218717500Y-39375000D03*
D21*
X216177500Y-34295000D03*
D22*
X213637500Y-39375000D03*
D21*
X209827500Y-36835000D03*
D20*
X208557500Y-39375000D03*
X437475000Y-100970000D03*
D21*
X432395000Y-103510000D03*
D22*
X437475000Y-106050000D03*
D21*
X434935000Y-109860000D03*
D20*
X437475000Y-111130000D03*
X342542500Y-58425000D03*
D21*
X340002500Y-53345000D03*
D22*
X337462500Y-58425000D03*
D21*
X333652500Y-55885000D03*
D20*
X332382500Y-58425000D03*
X361592500Y-125100000D03*
D21*
X359052500Y-120020000D03*
D22*
X356512500Y-125100000D03*
D21*
X352702500Y-122560000D03*
D20*
X351432500Y-125100000D03*
X361592500Y-106050000D03*
D21*
X359052500Y-100970000D03*
D22*
X356512500Y-106050000D03*
D21*
X352702500Y-103510000D03*
D20*
X351432500Y-106050000D03*
X423505000Y-125100000D03*
D21*
X420965000Y-120020000D03*
D22*
X418425000Y-125100000D03*
D21*
X414615000Y-122560000D03*
D20*
X413345000Y-125100000D03*
X97273750Y-163200000D03*
D21*
X94733750Y-158120000D03*
D22*
X92193750Y-163200000D03*
D21*
X88383750Y-160660000D03*
D20*
X87113750Y-163200000D03*
D22*
X89844250Y-152405000D03*
D21*
X89844250Y-137165000D03*
D20*
X82986250Y-144150000D03*
D21*
X80446250Y-139070000D03*
D22*
X77906250Y-144150000D03*
D21*
X74096250Y-141610000D03*
D20*
X72826250Y-144150000D03*
D22*
X65968250Y-152405000D03*
D21*
X65968250Y-137165000D03*
D20*
X394295000Y-163200000D03*
D21*
X396835000Y-168280000D03*
D22*
X399375000Y-163200000D03*
D21*
X403185000Y-165740000D03*
D20*
X404455000Y-163200000D03*
X142517500Y-125100000D03*
D21*
X139977500Y-120020000D03*
D22*
X137437500Y-125100000D03*
D21*
X133627500Y-122560000D03*
D20*
X132357500Y-125100000D03*
X299680000Y-39375000D03*
D21*
X297140000Y-34295000D03*
D22*
X294600000Y-39375000D03*
D21*
X290790000Y-36835000D03*
D20*
X289520000Y-39375000D03*
X333017500Y-106050000D03*
D21*
X330477500Y-100970000D03*
D22*
X327937500Y-106050000D03*
D21*
X324127500Y-103510000D03*
D20*
X322857500Y-106050000D03*
X132992500Y-144150000D03*
D21*
X130452500Y-139070000D03*
D22*
X127912500Y-144150000D03*
D21*
X124102500Y-141610000D03*
D20*
X122832500Y-144150000D03*
X266342500Y-144150000D03*
D21*
X263802500Y-139070000D03*
D22*
X261262500Y-144150000D03*
D21*
X257452500Y-141610000D03*
D20*
X256182500Y-144150000D03*
X218717500Y-125100000D03*
D21*
X216177500Y-120020000D03*
D22*
X213637500Y-125100000D03*
D21*
X209827500Y-122560000D03*
D20*
X208557500Y-125100000D03*
X185380000Y-87000000D03*
D21*
X182840000Y-81920000D03*
D22*
X180300000Y-87000000D03*
D21*
X176490000Y-84460000D03*
D20*
X175220000Y-87000000D03*
D22*
X332731964Y-133355000D03*
D21*
X332731964Y-118115000D03*
D20*
X325873964Y-125100000D03*
D21*
X323333964Y-120020000D03*
D22*
X320793964Y-125100000D03*
D21*
X316983964Y-122560000D03*
D20*
X315713964Y-125100000D03*
D22*
X308855964Y-133355000D03*
D21*
X308855964Y-118115000D03*
D20*
X299680000Y-87000000D03*
D21*
X297140000Y-81920000D03*
D22*
X294600000Y-87000000D03*
D21*
X290790000Y-84460000D03*
D20*
X289520000Y-87000000D03*
X156805000Y-58425000D03*
D21*
X154265000Y-53345000D03*
D22*
X151725000Y-58425000D03*
D21*
X147915000Y-55885000D03*
D20*
X146645000Y-58425000D03*
X199667500Y-125100000D03*
D21*
X197127500Y-120020000D03*
D22*
X194587500Y-125100000D03*
D21*
X190777500Y-122560000D03*
D20*
X189507500Y-125100000D03*
X261580160Y-39375000D03*
D21*
X259040160Y-34295000D03*
D22*
X256500160Y-39375000D03*
D21*
X252690160Y-36835000D03*
D20*
X251420160Y-39375000D03*
X223480000Y-87000000D03*
D21*
X220940000Y-81920000D03*
D22*
X218400000Y-87000000D03*
D21*
X214590000Y-84460000D03*
D20*
X213320000Y-87000000D03*
X442555000Y-87000000D03*
D21*
X440015000Y-81920000D03*
D22*
X437475000Y-87000000D03*
D21*
X433665000Y-84460000D03*
D20*
X432395000Y-87000000D03*
X118705000Y-106050000D03*
D21*
X116165000Y-100970000D03*
D22*
X113625000Y-106050000D03*
D21*
X109815000Y-103510000D03*
D20*
X108545000Y-106050000D03*
X194905000Y-106050000D03*
D21*
X192365000Y-100970000D03*
D22*
X189825000Y-106050000D03*
D21*
X186015000Y-103510000D03*
D20*
X184745000Y-106050000D03*
X113942500Y-144150000D03*
D21*
X111402500Y-139070000D03*
D22*
X108862500Y-144150000D03*
D21*
X105052500Y-141610000D03*
D20*
X103782500Y-144150000D03*
X404455000Y-144150000D03*
D21*
X401915000Y-139070000D03*
D22*
X399375000Y-144150000D03*
D21*
X395565000Y-141610000D03*
D20*
X394295000Y-144150000D03*
X190142500Y-144150000D03*
D21*
X187602500Y-139070000D03*
D22*
X185062500Y-144150000D03*
D21*
X181252500Y-141610000D03*
D20*
X179982500Y-144150000D03*
X90130000Y-87000000D03*
D21*
X87590000Y-81920000D03*
D22*
X85050000Y-87000000D03*
D21*
X81240000Y-84460000D03*
D20*
X79970000Y-87000000D03*
D22*
X335113000Y-95255000D03*
D21*
X335113000Y-80015000D03*
D20*
X328255000Y-87000000D03*
D21*
X325715000Y-81920000D03*
D22*
X323175000Y-87000000D03*
D21*
X319365000Y-84460000D03*
D20*
X318095000Y-87000000D03*
D22*
X311237000Y-95255000D03*
D21*
X311237000Y-80015000D03*
D20*
X128230000Y-87000000D03*
D21*
X125690000Y-81920000D03*
D22*
X123150000Y-87000000D03*
D21*
X119340000Y-84460000D03*
D20*
X118070000Y-87000000D03*
X423505000Y-87000000D03*
D21*
X420965000Y-81920000D03*
D22*
X418425000Y-87000000D03*
D21*
X414615000Y-84460000D03*
D20*
X413345000Y-87000000D03*
X442555000Y-58425000D03*
D21*
X440015000Y-53345000D03*
D22*
X437475000Y-58425000D03*
D21*
X433665000Y-55885000D03*
D20*
X432395000Y-58425000D03*
X199667606Y-39375000D03*
D21*
X197127606Y-34295000D03*
D22*
X194587606Y-39375000D03*
D21*
X190777606Y-36835000D03*
D20*
X189507606Y-39375000D03*
X404455000Y-39375000D03*
D21*
X401915000Y-34295000D03*
D22*
X399375000Y-39375000D03*
D21*
X395565000Y-36835000D03*
D20*
X394295000Y-39375000D03*
X156805000Y-39375000D03*
D21*
X154265000Y-34295000D03*
D22*
X151725000Y-39375000D03*
D21*
X147915000Y-36835000D03*
D20*
X146645000Y-39375000D03*
X275867500Y-125100000D03*
D21*
X273327500Y-120020000D03*
D22*
X270787500Y-125100000D03*
D21*
X266977500Y-122560000D03*
D20*
X265707500Y-125100000D03*
X237767500Y-58425000D03*
D21*
X235227500Y-53345000D03*
D22*
X232687500Y-58425000D03*
D21*
X228877500Y-55885000D03*
D20*
X227607500Y-58425000D03*
X404455000Y-125100000D03*
D21*
X401915000Y-120020000D03*
D22*
X399375000Y-125100000D03*
D21*
X395565000Y-122560000D03*
D20*
X394295000Y-125100000D03*
X280630000Y-39375000D03*
D21*
X278090000Y-34295000D03*
D22*
X275550000Y-39375000D03*
D21*
X271740000Y-36835000D03*
D20*
X270470000Y-39375000D03*
X342542500Y-148912500D03*
D21*
X340002500Y-143832500D03*
D22*
X337462500Y-148912500D03*
D21*
X333652500Y-146372500D03*
D20*
X332382500Y-148912500D03*
X209192500Y-144150000D03*
D21*
X206652500Y-139070000D03*
D22*
X204112500Y-144150000D03*
D21*
X200302500Y-141610000D03*
D20*
X199032500Y-144150000D03*
D21*
X237481750Y-170185000D03*
D22*
X237481750Y-154945000D03*
D20*
X230623750Y-163200000D03*
D21*
X228083750Y-158120000D03*
D22*
X225543750Y-163200000D03*
D21*
X221733750Y-160660000D03*
D20*
X220463750Y-163200000D03*
D21*
X213605750Y-170185000D03*
D22*
X213605750Y-154945000D03*
D20*
X180617500Y-58425000D03*
D21*
X178077500Y-53345000D03*
D22*
X175537500Y-58425000D03*
D21*
X171727500Y-55885000D03*
D20*
X170457500Y-58425000D03*
X437475000Y-120020000D03*
D21*
X432395000Y-122560000D03*
D22*
X437475000Y-125100000D03*
D21*
X434935000Y-128910000D03*
D20*
X437475000Y-130180000D03*
X327620000Y-87000000D03*
D21*
X330160000Y-92080000D03*
D22*
X332700000Y-87000000D03*
D21*
X336510000Y-89540000D03*
D20*
X337780000Y-87000000D03*
X187126250Y-163200000D03*
D21*
X189666250Y-168280000D03*
D22*
X192206250Y-163200000D03*
D21*
X196016250Y-165740000D03*
D20*
X197286250Y-163200000D03*
X180617590Y-39375000D03*
D21*
X178077590Y-34295000D03*
D22*
X175537590Y-39375000D03*
D21*
X171727590Y-36835000D03*
D20*
X170457590Y-39375000D03*
X290155000Y-106050000D03*
D21*
X287615000Y-100970000D03*
D22*
X285075000Y-106050000D03*
D21*
X281265000Y-103510000D03*
D20*
X279995000Y-106050000D03*
X308570000Y-87000000D03*
D21*
X311110000Y-92080000D03*
D22*
X313650000Y-87000000D03*
D21*
X317460000Y-89540000D03*
D20*
X318730000Y-87000000D03*
X404455000Y-106050000D03*
D21*
X401915000Y-100970000D03*
D22*
X399375000Y-106050000D03*
D21*
X395565000Y-103510000D03*
D20*
X394295000Y-106050000D03*
X118705000Y-39375000D03*
D21*
X116165000Y-34295000D03*
D22*
X113625000Y-39375000D03*
D21*
X109815000Y-36835000D03*
D20*
X108545000Y-39375000D03*
X237767500Y-125100000D03*
D21*
X235227500Y-120020000D03*
D22*
X232687500Y-125100000D03*
D21*
X228877500Y-122560000D03*
D20*
X227607500Y-125100000D03*
X137755000Y-106050000D03*
D21*
X135215000Y-100970000D03*
D22*
X132675000Y-106050000D03*
D21*
X128865000Y-103510000D03*
D20*
X127595000Y-106050000D03*
X199667500Y-58425000D03*
D21*
X197127500Y-53345000D03*
D22*
X194587500Y-58425000D03*
D21*
X190777500Y-55885000D03*
D20*
X189507500Y-58425000D03*
D21*
X166044250Y-170185000D03*
D22*
X166044250Y-154945000D03*
D20*
X159186250Y-163200000D03*
D21*
X156646250Y-158120000D03*
D22*
X154106250Y-163200000D03*
D21*
X150296250Y-160660000D03*
D20*
X149026250Y-163200000D03*
D21*
X142168250Y-170185000D03*
D22*
X142168250Y-154945000D03*
D20*
X171092500Y-144150000D03*
D21*
X168552500Y-139070000D03*
D22*
X166012500Y-144150000D03*
D21*
X162202500Y-141610000D03*
D20*
X160932500Y-144150000D03*
X342542500Y-167962500D03*
D21*
X340002500Y-162882500D03*
D22*
X337462500Y-167962500D03*
D21*
X333652500Y-165422500D03*
D20*
X332382500Y-167962500D03*
X75842500Y-106050000D03*
D21*
X73302500Y-100970000D03*
D22*
X70762500Y-106050000D03*
D21*
X66952500Y-103510000D03*
D20*
X65682500Y-106050000D03*
X375245000Y-163200000D03*
D21*
X377785000Y-168280000D03*
D22*
X380325000Y-163200000D03*
D21*
X384135000Y-165740000D03*
D20*
X385405000Y-163200000D03*
X99655000Y-106050000D03*
D21*
X97115000Y-100970000D03*
D22*
X94575000Y-106050000D03*
D21*
X90765000Y-103510000D03*
D20*
X89495000Y-106050000D03*
X71080000Y-58425000D03*
D21*
X68540000Y-53345000D03*
D22*
X66000000Y-58425000D03*
D21*
X62190000Y-55885000D03*
D20*
X60920000Y-58425000D03*
X318730000Y-39375000D03*
D21*
X316190000Y-34295000D03*
D22*
X313650000Y-39375000D03*
D21*
X309840000Y-36835000D03*
D20*
X308570000Y-39375000D03*
X361592500Y-167962500D03*
D21*
X359052500Y-162882500D03*
D22*
X356512500Y-167962500D03*
D21*
X352702500Y-165422500D03*
D20*
X351432500Y-167962500D03*
X261580000Y-87000000D03*
D21*
X259040000Y-81920000D03*
D22*
X256500000Y-87000000D03*
D21*
X252690000Y-84460000D03*
D20*
X251420000Y-87000000D03*
X99655000Y-39375000D03*
D21*
X97115000Y-34295000D03*
D22*
X94575000Y-39375000D03*
D21*
X90765000Y-36835000D03*
D20*
X89495000Y-39375000D03*
X147280000Y-87000000D03*
D21*
X144740000Y-81920000D03*
D22*
X142200000Y-87000000D03*
D21*
X138390000Y-84460000D03*
D20*
X137120000Y-87000000D03*
D22*
X429220000Y-127513000D03*
D21*
X444460000Y-127513000D03*
D20*
X437475000Y-120655000D03*
D21*
X442555000Y-118115000D03*
D22*
X437475000Y-115575000D03*
D21*
X440015000Y-111765000D03*
D20*
X437475000Y-110495000D03*
D22*
X429220000Y-103637000D03*
D21*
X444460000Y-103637000D03*
D20*
X361592500Y-58425000D03*
D21*
X359052500Y-53345000D03*
D22*
X356512500Y-58425000D03*
D21*
X352702500Y-55885000D03*
D20*
X351432500Y-58425000D03*
X228242500Y-144150000D03*
D21*
X225702500Y-139070000D03*
D22*
X223162500Y-144150000D03*
D21*
X219352500Y-141610000D03*
D20*
X218082500Y-144150000D03*
X361592500Y-39375000D03*
D21*
X359052500Y-34295000D03*
D22*
X356512500Y-39375000D03*
D21*
X352702500Y-36835000D03*
D20*
X351432500Y-39375000D03*
X280630000Y-163200000D03*
D21*
X278090000Y-158120000D03*
D22*
X275550000Y-163200000D03*
D21*
X271740000Y-160660000D03*
D20*
X270470000Y-163200000D03*
X121086250Y-163200000D03*
D21*
X118546250Y-158120000D03*
D22*
X116006250Y-163200000D03*
D21*
X112196250Y-160660000D03*
D20*
X110926250Y-163200000D03*
X380642500Y-39375000D03*
D21*
X378102500Y-34295000D03*
D22*
X375562500Y-39375000D03*
D21*
X371752500Y-36835000D03*
D20*
X370482500Y-39375000D03*
X442555000Y-39375000D03*
D21*
X440015000Y-34295000D03*
D22*
X437475000Y-39375000D03*
D21*
X433665000Y-36835000D03*
D20*
X432395000Y-39375000D03*
X404455000Y-87000000D03*
D21*
X401915000Y-81920000D03*
D22*
X399375000Y-87000000D03*
D21*
X395565000Y-84460000D03*
D20*
X394295000Y-87000000D03*
X137755000Y-39375000D03*
D21*
X135215000Y-34295000D03*
D22*
X132675000Y-39375000D03*
D21*
X128865000Y-36835000D03*
D20*
X127595000Y-39375000D03*
X242530000Y-87000000D03*
D21*
X239990000Y-81920000D03*
D22*
X237450000Y-87000000D03*
D21*
X233640000Y-84460000D03*
D20*
X232370000Y-87000000D03*
X342542500Y-39375000D03*
D21*
X340002500Y-34295000D03*
D22*
X337462500Y-39375000D03*
D21*
X333652500Y-36835000D03*
D20*
X332382500Y-39375000D03*
X152042500Y-144150000D03*
D21*
X149502500Y-139070000D03*
D22*
X146962500Y-144150000D03*
D21*
X143152500Y-141610000D03*
D20*
X141882500Y-144150000D03*
X423505000Y-144150000D03*
D21*
X420965000Y-139070000D03*
D22*
X418425000Y-144150000D03*
D21*
X414615000Y-141610000D03*
D20*
X413345000Y-144150000D03*
X109180000Y-87000000D03*
D21*
X106640000Y-81920000D03*
D22*
X104100000Y-87000000D03*
D21*
X100290000Y-84460000D03*
D20*
X99020000Y-87000000D03*
X71080000Y-87000000D03*
D21*
X68540000Y-81920000D03*
D22*
X66000000Y-87000000D03*
D21*
X62190000Y-84460000D03*
D20*
X60920000Y-87000000D03*
X78223750Y-125100000D03*
D21*
X75683750Y-120020000D03*
D22*
X73143750Y-125100000D03*
D21*
X69333750Y-122560000D03*
D20*
X68063750Y-125100000D03*
X161567500Y-125100000D03*
D21*
X159027500Y-120020000D03*
D22*
X156487500Y-125100000D03*
D21*
X152677500Y-122560000D03*
D20*
X151407500Y-125100000D03*
X280630000Y-58425000D03*
D21*
X278090000Y-53345000D03*
D22*
X275550000Y-58425000D03*
D21*
X271740000Y-55885000D03*
D20*
X270470000Y-58425000D03*
X180617500Y-125100000D03*
D21*
X178077500Y-120020000D03*
D22*
X175537500Y-125100000D03*
D21*
X171727500Y-122560000D03*
D20*
X170457500Y-125100000D03*
X423505000Y-106050000D03*
D21*
X420965000Y-100970000D03*
D22*
X418425000Y-106050000D03*
D21*
X414615000Y-103510000D03*
D20*
X413345000Y-106050000D03*
X247292500Y-144150000D03*
D21*
X244752500Y-139070000D03*
D22*
X242212500Y-144150000D03*
D21*
X238402500Y-141610000D03*
D20*
X237132500Y-144150000D03*
X118705000Y-58425000D03*
D21*
X116165000Y-53345000D03*
D22*
X113625000Y-58425000D03*
D21*
X109815000Y-55885000D03*
D20*
X108545000Y-58425000D03*
X156805000Y-106050000D03*
D21*
X154265000Y-100970000D03*
D22*
X151725000Y-106050000D03*
D21*
X147915000Y-103510000D03*
D20*
X146645000Y-106050000D03*
X385405000Y-106050000D03*
D21*
X382865000Y-100970000D03*
D22*
X380325000Y-106050000D03*
D21*
X376515000Y-103510000D03*
D20*
X375245000Y-106050000D03*
X261580000Y-58425000D03*
D21*
X259040000Y-53345000D03*
D22*
X256500000Y-58425000D03*
D21*
X252690000Y-55885000D03*
D20*
X251420000Y-58425000D03*
D23*
X66000000Y-30125000D03*
D24*
X73500000Y-33875000D03*
X59000000Y-33875000D03*
X73500000Y-36375000D03*
X73500000Y-38875000D03*
X59000000Y-38875000D03*
D23*
X66000000Y-42625000D03*
D25*
X73500000Y-33875000D03*
X73500000Y-38875000D03*
X73500000Y-36375000D03*
D26*
X66000000Y-30125000D03*
X66000000Y-42625000D03*
D25*
X59000000Y-33875000D03*
X59000000Y-38875000D03*
D20*
X318730000Y-58425000D03*
D21*
X316190000Y-53345000D03*
D22*
X313650000Y-58425000D03*
D21*
X309840000Y-55885000D03*
D20*
X308570000Y-58425000D03*
X237767500Y-39375000D03*
D21*
X235227500Y-34295000D03*
D22*
X232687500Y-39375000D03*
D21*
X228877500Y-36835000D03*
D20*
X227607500Y-39375000D03*
X385405000Y-125100000D03*
D21*
X382865000Y-120020000D03*
D22*
X380325000Y-125100000D03*
D21*
X376515000Y-122560000D03*
D20*
X375245000Y-125100000D03*
X299680000Y-58425000D03*
D21*
X297140000Y-53345000D03*
D22*
X294600000Y-58425000D03*
D21*
X290790000Y-55885000D03*
D20*
X289520000Y-58425000D03*
X271105000Y-106050000D03*
D21*
X268565000Y-100970000D03*
D22*
X266025000Y-106050000D03*
D21*
X262215000Y-103510000D03*
D20*
X260945000Y-106050000D03*
D12*
X104100000Y-48900000D03*
D20*
X294917500Y-125100000D03*
D21*
X292377500Y-120020000D03*
D22*
X289837500Y-125100000D03*
D21*
X286027500Y-122560000D03*
D20*
X284757500Y-125100000D03*
X166330000Y-87000000D03*
D21*
X163790000Y-81920000D03*
D22*
X161250000Y-87000000D03*
D21*
X157440000Y-84460000D03*
D20*
X156170000Y-87000000D03*
X104417500Y-125100000D03*
D21*
X101877500Y-120020000D03*
D22*
X99337500Y-125100000D03*
D21*
X95527500Y-122560000D03*
D20*
X94257500Y-125100000D03*
X380642500Y-58425000D03*
D21*
X378102500Y-53345000D03*
D22*
X375562500Y-58425000D03*
D21*
X371752500Y-55885000D03*
D20*
X370482500Y-58425000D03*
X123467500Y-125100000D03*
D21*
X120927500Y-120020000D03*
D22*
X118387500Y-125100000D03*
D21*
X114577500Y-122560000D03*
D20*
X113307500Y-125100000D03*
X252055000Y-106050000D03*
D21*
X249515000Y-100970000D03*
D22*
X246975000Y-106050000D03*
D21*
X243165000Y-103510000D03*
D20*
X241895000Y-106050000D03*
X385405000Y-144150000D03*
D21*
X382865000Y-139070000D03*
D22*
X380325000Y-144150000D03*
D21*
X376515000Y-141610000D03*
D20*
X375245000Y-144150000D03*
X423505000Y-39375000D03*
D21*
X420965000Y-34295000D03*
D22*
X418425000Y-39375000D03*
D21*
X414615000Y-36835000D03*
D20*
X413345000Y-39375000D03*
X218717500Y-58425000D03*
D21*
X216177500Y-53345000D03*
D22*
X213637500Y-58425000D03*
D21*
X209827500Y-55885000D03*
D20*
X208557500Y-58425000D03*
X311586250Y-144150000D03*
D21*
X309046250Y-139070000D03*
D22*
X306506250Y-144150000D03*
D21*
X302696250Y-141610000D03*
D20*
X301426250Y-144150000D03*
X137755000Y-58425000D03*
D21*
X135215000Y-53345000D03*
D22*
X132675000Y-58425000D03*
D21*
X128865000Y-55885000D03*
D20*
X127595000Y-58425000D03*
X285392500Y-144150000D03*
D21*
X282852500Y-139070000D03*
D22*
X280312500Y-144150000D03*
D21*
X276502500Y-141610000D03*
D20*
X275232500Y-144150000D03*
X404455000Y-58425000D03*
D21*
X401915000Y-53345000D03*
D22*
X399375000Y-58425000D03*
D21*
X395565000Y-55885000D03*
D20*
X394295000Y-58425000D03*
X213955000Y-106050000D03*
D21*
X211415000Y-100970000D03*
D22*
X208875000Y-106050000D03*
D21*
X205065000Y-103510000D03*
D20*
X203795000Y-106050000D03*
X385405000Y-87000000D03*
D21*
X382865000Y-81920000D03*
D22*
X380325000Y-87000000D03*
D21*
X376515000Y-84460000D03*
D20*
X375245000Y-87000000D03*
D21*
X237481750Y-170185000D03*
D22*
X237481750Y-154945000D03*
D20*
X192523750Y-163200000D03*
D21*
X189983750Y-158120000D03*
D22*
X187443750Y-163200000D03*
D21*
X183633750Y-160660000D03*
D20*
X182363750Y-163200000D03*
D21*
X137405750Y-170185000D03*
D22*
X137405750Y-154945000D03*
D20*
X323492500Y-167962500D03*
D21*
X320952500Y-162882500D03*
D22*
X318412500Y-167962500D03*
D21*
X314602500Y-165422500D03*
D20*
X313332500Y-167962500D03*
D27*
X79000000Y-36375000D03*
D21*
X430490000Y-165613000D03*
D22*
X445730000Y-165613000D03*
D20*
X437475000Y-158755000D03*
D21*
X442555000Y-156215000D03*
D22*
X437475000Y-153675000D03*
D21*
X440015000Y-149865000D03*
D20*
X437475000Y-148595000D03*
D21*
X430490000Y-141737000D03*
D22*
X445730000Y-141737000D03*
D20*
X73461250Y-163200000D03*
D21*
X70921250Y-158120000D03*
D22*
X68381250Y-163200000D03*
D21*
X64571250Y-160660000D03*
D20*
X63301250Y-163200000D03*
X361592500Y-87000000D03*
D21*
X359052500Y-81920000D03*
D22*
X356512500Y-87000000D03*
D21*
X352702500Y-84460000D03*
D20*
X351432500Y-87000000D03*
X204430000Y-87000000D03*
D21*
X201890000Y-81920000D03*
D22*
X199350000Y-87000000D03*
D21*
X195540000Y-84460000D03*
D20*
X194270000Y-87000000D03*
X423505000Y-58425000D03*
D21*
X420965000Y-53345000D03*
D22*
X418425000Y-58425000D03*
D21*
X414615000Y-55885000D03*
D20*
X413345000Y-58425000D03*
X299680000Y-163200000D03*
D21*
X297140000Y-158120000D03*
D22*
X294600000Y-163200000D03*
D21*
X290790000Y-160660000D03*
D20*
X289520000Y-163200000D03*
X175855000Y-106050000D03*
D21*
X173315000Y-100970000D03*
D22*
X170775000Y-106050000D03*
D21*
X166965000Y-103510000D03*
D20*
X165695000Y-106050000D03*
X233005000Y-106050000D03*
D21*
X230465000Y-100970000D03*
D22*
X227925000Y-106050000D03*
D21*
X224115000Y-103510000D03*
D20*
X222845000Y-106050000D03*
M02*
